<svg width="100" height="100" viewBox="0 0 100 100" xmlns="http://www.w3.org/2000/svg"><title>0338E20D-99C3-4AE8-93A7-27D8D9E9BC2E</title><g fill="none" fill-rule="evenodd"><path d="M50 100C22.43 100 0 77.57 0 50S22.43 0 50 0s50 22.43 50 50-22.43 50-50 50" fill="#FF5C1B"/><path d="M50 43.2c-5.073 0-9.2 4.127-9.2 9.2 0 5.073 4.127 9.2 9.2 9.2 5.073 0 9.2-4.127 9.2-9.2 0-5.073-4.127-9.2-9.2-9.2M65.6 40a3.2 3.2 0 1 1 0-6.4 3.2 3.2 0 0 1 0 6.4M50 66.4c-7.733 0-14-6.268-14-14s6.267-14 14-14c7.732 0 14 6.268 14 14s-6.268 14-14 14m16-39.6H34c-5.28 0-9.6 4.32-9.6 9.6v32c0 5.28 4.32 9.6 9.6 9.6h32c5.28 0 9.6-4.32 9.6-9.6v-32c0-5.28-4.32-9.6-9.6-9.6" fill="#FF4F16"/><path d="M50 42.8c-5.073 0-9.2 4.127-9.2 9.2 0 5.073 4.127 9.2 9.2 9.2 5.073 0 9.2-4.127 9.2-9.2 0-5.073-4.127-9.2-9.2-9.2m15.6-3.2a3.2 3.2 0 1 1 0-6.4 3.2 3.2 0 0 1 0 6.4M50 66c-7.733 0-14-6.268-14-14s6.267-14 14-14c7.732 0 14 6.268 14 14s-6.268 14-14 14m16-39.6H34c-5.28 0-9.6 4.32-9.6 9.6v32c0 5.28 4.32 9.6 9.6 9.6h32c5.28 0 9.6-4.32 9.6-9.6V36c0-5.28-4.32-9.6-9.6-9.6" fill="#FFF"/><path d="M65.6 39.6a3.198 3.198 0 0 1-3.19-3c-.004.066-.01.132-.01.2 0 .034.004.067.005.1l.005-.1c.104 1.673 1.49 3 3.19 3s3.086-1.327 3.19-3l.005.1c.001-.033.005-.066.005-.1 0-.068-.006-.134-.01-.2a3.198 3.198 0 0 1-3.19 3m.4-13.2H34c-5.28 0-9.6 4.32-9.6 9.6v.2c0-5.28 4.32-9.6 9.6-9.6h32c5.28 0 9.6 4.32 9.6 9.6V36c0-5.28-4.32-9.6-9.6-9.6M50 43c5.04 0 9.143 4.073 9.197 9.1l.003-.1c0-5.073-4.127-9.2-9.2-9.2-5.073 0-9.2 4.127-9.2 9.2l.003.1C40.857 47.073 44.96 43 50 43m0 23c-7.666 0-13.888-6.16-13.995-13.8-.001.066-.005.132-.005.2l.002.1c.002-.033.002-.067.003-.1.107 7.64 6.33 13.8 13.995 13.8 7.665 0 13.888-6.16 13.995-13.8 0 .033.001.067.003.1l.002-.1c0-.068-.004-.134-.005-.2C63.888 59.84 57.665 66 50 66" fill="#FFF"/></g></svg>