<svg width="100" height="100" viewBox="0 0 100 100" xmlns="http://www.w3.org/2000/svg"><title>68E0868B-CD65-4E22-BE44-7C97BA58DECD</title><g fill="none" fill-rule="evenodd"><path d="M50.178 99.91C22.706 99.91.355 77.521.355 50.003.355 22.487 22.705.1 50.178.1 77.65.1 100 22.487 100 50.004c0 27.518-22.35 49.905-49.822 49.905" fill="#5CB500"/><path d="M61.936 54.396H60.74a.2.2 0 0 0-.2.2v1.197c0 .11.09.2.2.2h1.196a.2.2 0 0 0 .2-.2v-1.197a.2.2 0 0 0-.2-.2zm0-3.194H60.74a.2.2 0 0 0-.2.2v1.197c0 .11.09.2.2.2h1.196a.2.2 0 0 0 .2-.2v-1.197a.2.2 0 0 0-.2-.2zm0 6.388H60.74a.2.2 0 0 0-.2.2v1.197c0 .11.09.2.2.2h1.196a.2.2 0 0 0 .2-.2V57.79a.2.2 0 0 0-.2-.2zm0-15.97H60.74a.2.2 0 0 0-.2.2v1.198c0 .11.09.2.2.2h1.196a.2.2 0 0 0 .2-.2V41.82a.2.2 0 0 0-.2-.2zm2.59 22.957a.2.2 0 0 1-.199.2H36.028a.2.2 0 0 1-.2-.2V39.424c0-.11.09-.2.2-.2h28.3a.2.2 0 0 1 .199.2v25.153zM74.06 42.89c.003-.143.011-.284.011-.427 0-11.27-9.12-20.405-20.372-20.405-7.66 0-14.329 4.237-17.808 10.497a9.088 9.088 0 0 0-1.26-.09c-5 0-9.053 4.061-9.053 9.07 0 .49.04.972.115 1.443-6.69 1.136-11.785 6.966-11.785 13.99 0 7.84 6.344 14.196 14.172 14.196h44.216c7.819-.01 14.153-6.362 14.153-14.195 0-7.235-5.404-13.2-12.389-14.08zM61.936 60.784H60.74a.2.2 0 0 0-.2.2v1.197c0 .11.09.2.2.2h1.196a.2.2 0 0 0 .2-.2v-1.198a.2.2 0 0 0-.2-.2zm0-12.776H60.74a.2.2 0 0 0-.2.2v1.198c0 .11.09.2.2.2h1.196a.2.2 0 0 0 .2-.2v-1.198a.2.2 0 0 0-.2-.2zm0-3.194H60.74a.2.2 0 0 0-.2.2v1.198c0 .11.09.2.2.2h1.196a.2.2 0 0 0 .2-.2v-1.198a.2.2 0 0 0-.2-.2zm-22.32 0H38.42a.2.2 0 0 0-.2.2v1.198c0 .11.09.2.2.2h1.195a.2.2 0 0 0 .2-.2v-1.198a.2.2 0 0 0-.2-.2zm0 9.582H38.42a.2.2 0 0 0-.2.2v1.197c0 .11.09.2.2.2h1.195a.2.2 0 0 0 .2-.2v-1.197a.2.2 0 0 0-.2-.2zm0 6.388H38.42a.2.2 0 0 0-.2.2v1.197c0 .11.09.2.2.2h1.195a.2.2 0 0 0 .2-.2v-1.198a.2.2 0 0 0-.2-.2zm0-9.582H38.42a.2.2 0 0 0-.2.2v1.197c0 .11.09.2.2.2h1.195a.2.2 0 0 0 .2-.2v-1.197a.2.2 0 0 0-.2-.2zm0 6.388H38.42a.2.2 0 0 0-.2.2v1.197c0 .11.09.2.2.2h1.195a.2.2 0 0 0 .2-.2V57.79a.2.2 0 0 0-.2-.2zm17.736-15.97H43.003a.8.8 0 0 0-.797.799v7.585a.8.8 0 0 0 .797.799h14.35a.8.8 0 0 0 .796-.799V42.42a.8.8 0 0 0-.797-.799zm0 11.578H43.003a.8.8 0 0 0-.797.799v7.585a.8.8 0 0 0 .797.799h14.35a.8.8 0 0 0 .796-.799v-7.585a.8.8 0 0 0-.797-.799zM39.615 41.62H38.42a.2.2 0 0 0-.2.2v1.198c0 .11.09.2.2.2h1.195a.2.2 0 0 0 .2-.2V41.82a.2.2 0 0 0-.2-.2zm0 6.388H38.42a.2.2 0 0 0-.2.2v1.198c0 .11.09.2.2.2h1.195a.2.2 0 0 0 .2-.2v-1.198a.2.2 0 0 0-.2-.2z" fill="#57BA00"/><path d="M61.936 53.997H60.74a.2.2 0 0 0-.2.2v1.197c0 .11.09.2.2.2h1.196a.2.2 0 0 0 .2-.2v-1.198a.2.2 0 0 0-.2-.2zm0 3.194H60.74a.2.2 0 0 0-.2.2v1.197c0 .11.09.2.2.2h1.196a.2.2 0 0 0 .2-.2V57.39a.2.2 0 0 0-.2-.2zm0 3.194H60.74a.2.2 0 0 0-.2.2v1.197c0 .11.09.2.2.2h1.196a.2.2 0 0 0 .2-.2v-1.198a.2.2 0 0 0-.2-.2zm0-9.582H60.74a.2.2 0 0 0-.2.2V52.2c0 .11.09.2.2.2h1.196a.2.2 0 0 0 .2-.2v-1.198a.2.2 0 0 0-.2-.2zm2.59 13.374a.2.2 0 0 1-.199.2H36.028a.2.2 0 0 1-.2-.2V39.025c0-.11.09-.2.2-.2h28.3a.2.2 0 0 1 .199.2v25.152zm9.539-21.69c.003-.14.005-.281.005-.423 0-11.27-9.12-20.406-20.372-20.406-7.66 0-14.33 4.236-17.81 10.496a9.114 9.114 0 0 0-1.257-.088c-5 0-9.054 4.06-9.054 9.07 0 .49.04.97.114 1.44-6.69 1.136-11.784 6.968-11.784 13.993 0 7.84 6.344 14.196 14.172 14.196h44.216c7.819-.01 14.153-6.362 14.153-14.195 0-7.233-5.4-13.203-12.383-14.083zm-12.13 5.122H60.74a.2.2 0 0 0-.2.2v1.197c0 .11.09.2.2.2h1.196a.2.2 0 0 0 .2-.2V47.81a.2.2 0 0 0-.2-.2zm0-6.388H60.74a.2.2 0 0 0-.2.2v1.197c0 .11.09.2.2.2h1.196a.2.2 0 0 0 .2-.2v-1.197a.2.2 0 0 0-.2-.2zm0 3.194H60.74a.2.2 0 0 0-.2.2v1.197c0 .11.09.2.2.2h1.196a.2.2 0 0 0 .2-.2v-1.197a.2.2 0 0 0-.2-.2zm-22.32 15.97H38.42a.2.2 0 0 0-.2.2v1.197c0 .11.09.2.2.2h1.195a.2.2 0 0 0 .2-.2v-1.198a.2.2 0 0 0-.2-.2zm0-6.388H38.42a.2.2 0 0 0-.2.2v1.197c0 .11.09.2.2.2h1.195a.2.2 0 0 0 .2-.2v-1.198a.2.2 0 0 0-.2-.2zM57.352 41.22H43.003a.8.8 0 0 0-.797.799v7.585a.8.8 0 0 0 .797.799h14.35a.8.8 0 0 0 .796-.799V42.02a.8.8 0 0 0-.797-.799zm-17.737 9.582H38.42a.2.2 0 0 0-.2.2V52.2c0 .11.09.2.2.2h1.195a.2.2 0 0 0 .2-.2v-1.198a.2.2 0 0 0-.2-.2zm0 6.388H38.42a.2.2 0 0 0-.2.2v1.197c0 .11.09.2.2.2h1.195a.2.2 0 0 0 .2-.2V57.39a.2.2 0 0 0-.2-.2zm17.737-4.392H43.003a.8.8 0 0 0-.797.799v7.585a.8.8 0 0 0 .797.799h14.35a.8.8 0 0 0 .796-.799v-7.585a.8.8 0 0 0-.797-.799zm-17.737-8.384H38.42a.2.2 0 0 0-.2.2v1.197c0 .11.09.2.2.2h1.195a.2.2 0 0 0 .2-.2v-1.197a.2.2 0 0 0-.2-.2zm0 3.194H38.42a.2.2 0 0 0-.2.2v1.197c0 .11.09.2.2.2h1.195a.2.2 0 0 0 .2-.2V47.81a.2.2 0 0 0-.2-.2zm0-6.388H38.42a.2.2 0 0 0-.2.2v1.197c0 .11.09.2.2.2h1.195a.2.2 0 0 0 .2-.2V41.42a.2.2 0 0 0-.2-.2z" fill="#FFF"/><path d="M38.22 51.202c0-.11.09-.2.2-.2h1.195c.11 0 .2.09.2.2v-.2a.2.2 0 0 0-.2-.2H38.42a.2.2 0 0 0-.2.2v.2zm0 3.194c0-.11.09-.2.2-.2h1.195c.11 0 .2.09.2.2v-.2a.2.2 0 0 0-.2-.2H38.42a.2.2 0 0 0-.2.2v.2zm0 6.388c0-.11.09-.2.2-.2h1.195c.11 0 .2.09.2.2v-.2a.2.2 0 0 0-.2-.2H38.42a.2.2 0 0 0-.2.2v.2zm0-3.194c0-.11.09-.2.2-.2h1.195c.11 0 .2.09.2.2v-.2a.2.2 0 0 0-.2-.2H38.42a.2.2 0 0 0-.2.2v.2zm0-9.582c0-.11.09-.2.2-.2h1.195c.11 0 .2.09.2.2v-.2a.2.2 0 0 0-.2-.2H38.42a.2.2 0 0 0-.2.2v.2zm35.85-5.944c0-11.27-9.12-20.406-20.372-20.406-7.66 0-14.332 4.237-17.81 10.497a9.116 9.116 0 0 0-1.257-.089c-5 0-9.054 4.06-9.054 9.07l.002.075c.066-4.95 4.092-8.945 9.052-8.945.426 0 .845.032 1.256.089 3.48-6.26 10.151-10.497 17.811-10.497 11.218 0 20.317 9.082 20.371 20.305l.001-.099zm-9.743 22.313H36.028a.2.2 0 0 1-.2-.2v.2c0 .11.09.2.2.2h28.3a.2.2 0 0 0 .199-.2v-.2a.2.2 0 0 1-.2.2zM38.42 41.421h1.195c.11 0 .2.09.2.2v-.2a.2.2 0 0 0-.2-.2H38.42a.2.2 0 0 0-.2.2v.2c0-.11.09-.2.2-.2zm-.2 3.393c0-.11.09-.2.2-.2h1.195c.11 0 .2.09.2.2v-.2a.2.2 0 0 0-.2-.199H38.42a.2.2 0 0 0-.2.2v.2zM13.907 56.57l.001.095c.05-6.978 5.128-12.755 11.785-13.886l-.028-.195c-6.677 1.148-11.758 6.97-11.758 13.986zm46.634 1.02a.2.2 0 0 1 .199-.199h1.196c.11 0 .2.09.2.2v-.2a.2.2 0 0 0-.2-.2H60.74a.2.2 0 0 0-.2.2v.2zm13.526-15.098c0 .067 0 .133-.002.2 6.949.877 12.33 6.789 12.382 13.974l.001-.095c0-7.232-5.4-13.196-12.38-14.079zM60.541 60.784c0-.11.09-.2.199-.2h1.196c.11 0 .2.09.2.2v-.2a.2.2 0 0 0-.2-.2H60.74a.2.2 0 0 0-.2.2v.2zm0-6.388c0-.11.09-.2.199-.2h1.196c.11 0 .2.09.2.2v-.2a.2.2 0 0 0-.2-.2H60.74a.2.2 0 0 0-.2.2v.2zm0-3.194c0-.11.09-.2.199-.2h1.196c.11 0 .2.09.2.2v-.2a.2.2 0 0 0-.2-.2H60.74a.2.2 0 0 0-.2.2v.2zm.199-9.781h1.196c.11 0 .2.09.2.2v-.2a.2.2 0 0 0-.2-.2H60.74a.2.2 0 0 0-.2.2v.2c0-.11.09-.2.2-.2zM42.206 53.797a.8.8 0 0 1 .797-.798h14.35a.8.8 0 0 1 .796.798v-.2a.8.8 0 0 0-.797-.798H43.003a.8.8 0 0 0-.797.799v.2zm18.335-5.789c0-.11.09-.2.199-.2h1.196c.11 0 .2.09.2.2v-.2a.2.2 0 0 0-.2-.2H60.74a.2.2 0 0 0-.2.2v.2zm0-3.194c0-.11.09-.2.199-.2h1.196c.11 0 .2.09.2.2v-.2a.2.2 0 0 0-.2-.199H60.74a.2.2 0 0 0-.2.2v.2zm-17.538-3.393h14.35a.8.8 0 0 1 .796.798v-.2a.8.8 0 0 0-.797-.798H43.003a.8.8 0 0 0-.797.799v.2a.8.8 0 0 1 .797-.8z" fill="#FFF"/></g></svg>