<svg width="100" height="100" viewBox="0 0 100 100" xmlns="http://www.w3.org/2000/svg"><title>62CFD1E1-F021-4ECD-B2BD-4CC0AD455492</title><g fill="none" fill-rule="evenodd"><path d="M50 100C22.43 100 0 77.57 0 50S22.43 0 50 0s50 22.43 50 50-22.43 50-50 50" fill="#9C71DA"/><path d="M83.807 49.622l-4.966-2.099v-2.072C78.84 30.314 66.35 18 51 18S23.16 30.314 23.16 45.451v2.073l-4.967 2.098c-1.211.512-2.193 1.98-2.193 3.28V63.49c0 1.3.982 2.768 2.193 3.28l6.75 2.852c1.211.512 2.193-.127 2.193-1.426V45.451c0-12.974 10.706-23.53 23.864-23.53 13.158 0 23.864 10.556 23.864 23.53v22.744c0 1.3.982 1.939 2.193 1.426l6.75-2.852C85.018 66.258 86 64.79 86 63.49V52.902c0-1.299-.982-2.767-2.193-3.28M60.545 62.315c-2.196 0-3.977-1.756-3.977-3.922 0-2.166 1.78-3.921 3.977-3.921s3.978 1.755 3.978 3.921-1.78 3.922-3.978 3.922M51 52.902c-2.197 0-3.977-1.756-3.977-3.921 0-2.166 1.78-3.922 3.977-3.922s3.977 1.756 3.977 3.922c0 2.165-1.78 3.921-3.977 3.921m-1.59 5.49A1.58 1.58 0 0 1 51 56.824c.878 0 1.59.702 1.59 1.568A1.58 1.58 0 0 1 51 59.961a1.58 1.58 0 0 1-1.59-1.569M51 71.725c-2.197 0-3.977-1.755-3.977-3.921s1.78-3.922 3.977-3.922 3.977 1.756 3.977 3.922c0 2.166-1.78 3.921-3.977 3.921m-9.545-9.411c-2.197 0-3.978-1.756-3.978-3.922 0-2.166 1.781-3.921 3.978-3.921 2.196 0 3.977 1.755 3.977 3.921s-1.78 3.922-3.977 3.922M51 38.784c-10.983 0-19.886 8.779-19.886 19.608C31.114 69.222 40.017 78 51 78c10.983 0 19.886-8.779 19.886-19.608S61.983 38.784 51 38.784" fill="#8F64CA"/><path d="M83.807 49.622l-4.966-2.099v-2.072C78.84 30.314 66.35 18 51 18S23.16 30.314 23.16 45.451v2.073l-4.967 2.098c-1.211.512-2.193 1.98-2.193 3.28V63.49c0 1.3.982 2.768 2.193 3.28l6.75 2.852c1.211.512 2.193-.127 2.193-1.426V45.451c0-12.974 10.706-23.53 23.864-23.53 13.158 0 23.864 10.556 23.864 23.53v22.744c0 1.3.982 1.939 2.193 1.426l6.75-2.852C85.018 66.258 86 64.79 86 63.49V52.902c0-1.299-.982-2.767-2.193-3.28M60.545 62.315c-2.196 0-3.977-1.756-3.977-3.922 0-2.166 1.78-3.921 3.977-3.921s3.978 1.755 3.978 3.921-1.78 3.922-3.978 3.922M51 52.902c-2.197 0-3.977-1.756-3.977-3.921 0-2.166 1.78-3.922 3.977-3.922s3.977 1.756 3.977 3.922c0 2.165-1.78 3.921-3.977 3.921m-1.59 5.49A1.58 1.58 0 0 1 51 56.824c.878 0 1.59.702 1.59 1.568A1.58 1.58 0 0 1 51 59.961a1.58 1.58 0 0 1-1.59-1.569M51 71.725c-2.197 0-3.977-1.755-3.977-3.921s1.78-3.922 3.977-3.922 3.977 1.756 3.977 3.922c0 2.166-1.78 3.921-3.977 3.921m-9.545-9.411c-2.197 0-3.978-1.756-3.978-3.922 0-2.166 1.781-3.921 3.978-3.921 2.196 0 3.977 1.755 3.977 3.921s-1.78 3.922-3.977 3.922M51 38.784c-10.983 0-19.886 8.779-19.886 19.608C31.114 69.222 40.017 78 51 78c10.983 0 19.886-8.779 19.886-19.608S61.983 38.784 51 38.784" fill="#FFF"/><path d="M51 71.823c-2.167 0-3.925-1.712-3.973-3.84 0 .03-.004.058-.004.088 0 2.17 1.78 3.929 3.977 3.929s3.977-1.759 3.977-3.929c0-.03-.004-.058-.004-.088-.048 2.128-1.806 3.84-3.973 3.84M83.807 49.68l-4.966-2.102v.177l4.966 2.102C85.018 50.369 86 51.84 86 53.142v-.177c0-1.302-.982-2.773-2.193-3.286M51 52.966c-2.167 0-3.925-1.712-3.973-3.84 0 .029-.004.058-.004.088 0 2.17 1.78 3.928 3.977 3.928s3.977-1.758 3.977-3.928c0-.03-.004-.059-.004-.089-.048 2.129-1.806 3.84-3.973 3.84m0-14.143c-10.983 0-19.886 8.795-19.886 19.644v.088c.05-10.808 8.934-19.555 19.886-19.555s19.837 8.747 19.885 19.555l.001-.088c0-10.85-8.903-19.644-19.886-19.644m0-20.645c15.351 0 27.84 12.337 27.84 27.5v-.176C78.84 30.337 66.352 18 51 18c-15.351 0-27.84 12.337-27.84 27.5v.178c0-15.164 12.489-27.501 27.84-27.501M16 52.965v.177c0-1.302.982-2.773 2.193-3.285l4.966-2.103v-.176l-4.966 2.102C16.982 50.193 16 51.664 16 52.965m25.455 9.43c-2.167 0-3.925-1.712-3.973-3.841 0 .03-.005.059-.005.088 0 2.17 1.781 3.93 3.978 3.93 2.196 0 3.977-1.76 3.977-3.93 0-.03-.004-.058-.005-.088-.048 2.129-1.806 3.84-3.972 3.84m11.136-3.752c0-.03-.003-.059-.005-.088A1.582 1.582 0 0 1 51 60.037a1.58 1.58 0 0 1-1.586-1.483c-.002.03-.005.059-.005.088 0 .868.712 1.572 1.591 1.572s1.59-.704 1.59-1.572m7.955 3.752c-2.166 0-3.924-1.711-3.972-3.84 0 .03-.005.059-.005.088 0 2.17 1.78 3.93 3.977 3.93s3.978-1.76 3.978-3.93c0-.03-.004-.058-.005-.088-.048 2.129-1.806 3.84-3.973 3.84" fill="#FFF"/></g></svg>