<svg width="100" height="100" viewBox="0 0 100 100" xmlns="http://www.w3.org/2000/svg"><title>E029DF40-B129-456C-B98E-0A2C547D03B0</title><g fill="none" fill-rule="evenodd"><path d="M49.689 99.107C22.392 99.107.184 76.9.184 49.602.184 22.305 22.392.097 49.689.097c27.297 0 49.505 22.208 49.505 49.505 0 27.297-22.208 49.505-49.505 49.505" fill="#3881FF"/><path d="M56.349 60.242c-2.403 1.277-5.142 1.013-6.117-.59-.977-1.604.178-3.94 2.58-5.216 1.397-.743 2.905-.96 4.117-.701V41.887l-12.523 1.99v14.048c0 1.118-.968 3.228-2.928 4.27-2.403 1.278-5.142 1.013-6.117-.59-.977-1.603.178-3.938 2.58-5.216 1.397-.742 2.905-.96 4.117-.7v-16.91c0-.431.346-.836.772-.904l15.673-2.49a.646.646 0 0 1 .773.66V55.97c-.026 1.59-.966 3.228-2.927 4.271m16.206-18.27c.003-.138.006-.276.006-.414 0-11.03-8.956-19.97-20.002-19.97-7.521 0-14.072 4.145-17.488 10.271a8.974 8.974 0 0 0-1.234-.085c-4.91 0-8.89 3.973-8.89 8.875 0 .48.04.95.113 1.41-6.569 1.112-11.57 6.82-11.57 13.695 0 7.673 6.229 13.893 13.914 13.893h43.414c7.677-.01 13.896-6.226 13.896-13.893 0-7.079-5.303-12.92-12.159-13.783" fill="#3881FF"/><path d="M56.349 59.851c-2.403 1.278-5.142 1.013-6.117-.59-.977-1.604.178-3.939 2.58-5.216 1.397-.743 2.905-.96 4.117-.7V41.496l-12.523 1.989v14.048c0 1.118-.968 3.228-2.928 4.271-2.403 1.277-5.142 1.013-6.117-.59-.977-1.604.178-3.94 2.58-5.216 1.397-.743 2.905-.96 4.117-.701v-16.91c0-.431.346-.836.772-.904l15.673-2.489a.646.646 0 0 1 .773.659V55.58c-.026 1.59-.966 3.227-2.927 4.27m16.206-18.27c.003-.138.006-.276.006-.414 0-11.03-8.956-19.97-20.002-19.97-7.521 0-14.072 4.145-17.488 10.272a8.974 8.974 0 0 0-1.234-.086c-4.91 0-8.89 3.974-8.89 8.875 0 .48.04.95.113 1.41-6.569 1.113-11.57 6.82-11.57 13.695 0 7.673 6.229 13.893 13.914 13.893h43.414c7.677-.01 13.896-6.226 13.896-13.892 0-7.08-5.303-12.921-12.159-13.783" fill="#FFF"/><path d="M41.478 61.805c-2.403 1.277-5.142 1.013-6.117-.59a2.384 2.384 0 0 1-.345-1.16c-.016.48.093.942.345 1.355.975 1.603 3.714 1.868 6.117.59 1.96-1.043 2.928-3.153 2.928-4.27v-.196c0 1.118-.968 3.228-2.928 4.271zM72.56 41.167c0-11.03-8.956-19.97-20.002-19.97-7.521 0-14.072 4.145-17.488 10.272a8.975 8.975 0 0 0-1.234-.086c-4.91 0-8.89 3.974-8.89 8.875l.002.076c.065-4.846 4.019-8.756 8.888-8.756.419 0 .83.03 1.234.086 3.416-6.127 9.967-10.272 17.488-10.272 11.014 0 19.947 8.888 20 19.873l.002-.098zM13.49 55.363v.093c.05-6.83 5.034-12.486 11.57-13.593-.01-.063-.018-.127-.027-.19-6.555 1.123-11.543 6.825-11.543 13.69zm43.439-13.866l-12.523 1.989v.195l12.523-1.989v-.195zm15.629.084l-.003.195c6.824.858 12.107 6.648 12.158 13.681l.001-.093c0-7.078-5.301-12.92-12.156-13.783zm-16.21 18.27c-2.402 1.278-5.141 1.013-6.116-.59a2.384 2.384 0 0 1-.345-1.16c-.016.48.093.942.345 1.355.975 1.603 3.714 1.868 6.117.59 1.96-1.042 2.9-2.68 2.928-4.27v-.195c-.028 1.59-.967 3.227-2.928 4.27z" fill="#FFF"/></g></svg>