/* XPM */
static char * alsamixergui_xpm[] = {
"32 32 104 2",
"  	c None",
". 	c #717970",
"+ 	c #727A71",
"@ 	c #5C625B",
"# 	c #1E211E",
"$ 	c #121412",
"% 	c #000000",
"& 	c #666F65",
"* 	c #4F554E",
"= 	c #090A09",
"- 	c #282A28",
"; 	c #2E312E",
"> 	c #393D38",
", 	c #494F49",
"' 	c #4E554E",
") 	c #50574F",
"! 	c #4A504A",
"~ 	c #444943",
"{ 	c #282B28",
"] 	c #0E0E0D",
"^ 	c #222421",
"/ 	c #060706",
"( 	c #4D524D",
"_ 	c #727B71",
": 	c #818C7F",
"< 	c #9FAD9E",
"[ 	c #A5B3A4",
"} 	c #B0BFAF",
"| 	c #C1D1BF",
"1 	c #C6D7C4",
"2 	c #C7D9C5",
"3 	c #C2D3C0",
"4 	c #BBCBBA",
"5 	c #8D998B",
"6 	c #758074",
"7 	c #646B63",
"8 	c #4B504A",
"9 	c #141614",
"0 	c #252825",
"a 	c #252724",
"b 	c #7D867C",
"c 	c #A3B1A1",
"d 	c #99A698",
"e 	c #666E65",
"f 	c #282B27",
"g 	c #677166",
"h 	c #ACBBAA",
"i 	c #4D524C",
"j 	c #484E47",
"k 	c #C6D8C4",
"l 	c #BECFBD",
"m 	c #ADBCAB",
"n 	c #96A296",
"o 	c #727971",
"p 	c #202320",
"q 	c #0C0D0C",
"r 	c #1D201D",
"s 	c #919C90",
"t 	c #929E90",
"u 	c #494F48",
"v 	c #C0D1BE",
"w 	c #B2C1B0",
"x 	c #373B37",
"y 	c #181A18",
"z 	c #BDCEBB",
"A 	c #242824",
"B 	c #BACAB8",
"C 	c #909A8E",
"D 	c #50554F",
"E 	c #141514",
"F 	c #363B35",
"G 	c #A7B5A6",
"H 	c #1C1D1B",
"I 	c #939F92",
"J 	c #A8B7A7",
"K 	c #778276",
"L 	c #798378",
"M 	c #0E0F0E",
"N 	c #5F665E",
"O 	c #BDCDBC",
"P 	c #8D978C",
"Q 	c #323632",
"R 	c #A9B8A8",
"S 	c #636B62",
"T 	c #596058",
"U 	c #C3D4C1",
"V 	c #5E655D",
"W 	c #869084",
"X 	c #60685F",
"Y 	c #A4B2A2",
"Z 	c #353834",
"` 	c #7F8B7E",
" .	c #1A1C1A",
"..	c #9FAB9D",
"+.	c #BFCFBE",
"@.	c #2B2F2B",
"#.	c #9FAE9E",
"$.	c #4A4E49",
"%.	c #101110",
"&.	c #A7B6A5",
"*.	c #080908",
"=.	c #474D46",
"-.	c #879486",
";.	c #262926",
"                                                                ",
"                                                                ",
"                                                                ",
"                                                                ",
"                                                                ",
"                                                                ",
"                                                                ",
"                                                                ",
"                  . + @ # $ % % % % $ # @ + .                   ",
"            & * $ % = - ; > , ' ) ) ) ! ~ ; ; { * &             ",
"        ] ^ / $ ( _ : < [ } | 1 2 2 2 3 4 [ [ 5 6 7 8 9         ",
"      0 % a b c d e 2 2 f g 2 2 2 h i f 2 2 2 j k l m n o       ",
"  p q r s 2 2 2 t u v 2 % ) 2 2 w x y f 2 2 z A B 2 2 2 2 h C   ",
"D E F G 2 2 2 2 x H I 2 % ) 2 2 J H K 2 2 2 L M N 2 2 2 2 2 O P ",
"x Q R 2 2 2 2 2 % % K 2 % ) 2 2 v S T z 2 2 ) % f 2 2 2 2 2 U V ",
"y W 1 2 2 2 2 s p X * B % ) 2 2 2 K M Y 2 h Z `  ...2 2 2 2 +.@.",
"@.+.2 2 2 2 2 f f K % #.% ) 2 2 2 2 ) $.2 K % #.% ) 2 2 2 1 W y ",
"V U 2 2 2 2 2 f y j % #.% ) 2 2 2 2 ` %.h K % X % ) 2 2 2 R Q x ",
"P O 2 2 2 2 2 f % % % #.% ) 2 2 2 2 2 f i K % % % ) 2 2 G F E D ",
"  C h 2 2 2 2 f p X % #.% %.f f &.f f *.. K % ` % ) 2 s r q p   ",
"      o n m l =.j -.f &.f f f f &.f f . 2 -.;.d / a a % 0       ",
"        9 8 7 6 5 [ [ 4 3 2 2 2 1 | } [ < : _ ( $ / ^ ]         ",
"            & * { ; ; ~ ! ) ) ) ' , > ; - = % $ * &             ",
"                  . + @ # $ % % % % $ # @ + .                   ",
"                                                                ",
"                                                                ",
"                                                                ",
"                                                                ",
"                                                                ",
"                                                                ",
"                                                                ",
"                                                                "};
