<?xml version="1.0" encoding="UTF-8" standalone="no"?>
<svg xmlns:rdf="http://www.w3.org/1999/02/22-rdf-syntax-ns#" xmlns="http://www.w3.org/2000/svg" height="188.783" width="219.685" version="1.1" xmlns:cc="http://creativecommons.org/ns#" xmlns:dc="http://purl.org/dc/elements/1.1/">
 <g fill-rule="evenodd" transform="translate(-359.703 68.9522)">
  <path d="m376.643-68.9522h185.807c9.31625 0 16.9388 7.6225 16.9388 16.9388v154.905c0 9.31637-7.6225 16.939-16.9388 16.939h-185.807c-9.3165 0-16.9395-7.62263-16.9395-16.939v-154.905c0-9.31625 7.623-16.9388 16.9395-16.9388" fill="#a7a5a6"/>
  <path d="m376.643-65.4834h185.807c7.4075 0 13.4688 6.06125 13.4688 13.47v154.905c0 7.40875-6.06125 13.4698-13.4688 13.4698h-185.807c-7.40825 0-13.4698-6.061-13.4698-13.4698v-154.905c0-7.40875 6.0615-13.47 13.4698-13.47" fill="#231f20"/>
  <path d="m402.773-44.1447 1.61125 3.04375h4.29737l-7.69925-14.6825h-4.11862l-7.69925 14.6825h4.29687l1.61138-3.04375h7.70025zm-3.9395-7.87875 1.96925 3.93875h-3.939c1.07475-1.79 1.61137-3.04375 1.96975-3.93875zm31.1562-3.76h-3.939l-5.01363 10.9225-5.37162-10.9225h-3.76075v14.6825h3.58162v-7.34125c0.53663 1.07375 1.07413 2.32875 1.96925 4.2975l1.61125 3.04375h3.76075l1.61188-3.04375c0.895-1.79 1.61125-3.22375 1.96925-4.2975v7.34125h3.581v-14.6825zm7.87887 5.55125v-1.79125h10.9229v-3.76h-14.6831v14.6825h14.6831v-3.76h-10.9229v-1.79125h10.5645v-3.58h-10.5645zm31.6939 0.3575v-1.25375c0-1.2525-0.35838-2.3275-1.25338-3.2225-0.71687-0.895-1.79062-1.4325-2.86525-1.4325h-12.7129v14.6825h3.75975v-4.2975h3.5815l4.29737 4.2975h5.19288l-4.11863-4.2975c1.07463 0 1.96975-0.53625 2.86525-1.25375 0.895-0.895 1.25338-1.96875 1.25338-3.2225zm-3.9395-1.79c0.17875 0 0.358 0.17875 0.358 0.53625v1.4325c0 0.18-0.17925 0.35875-0.358 0.5375-0.17913 0-0.35838 0.17875-0.5375 0.17875h-8.59475v-3.04375h8.59475c0.17912 0 0.35837 0.18 0.5375 0.35875zm11.818 10.5638v-14.6825h-3.76v14.6825h3.76zm17.9062-10.9225c0.17875 0 0.3575 0.35875 0.53625 0.895l3.22375-2.3275c-0.3575-0.71625-0.895-1.2525-1.61125-1.79-0.71625-0.35875-1.4325-0.5375-2.14875-0.5375h-8.9525c-1.255 0-2.14875 0.5375-3.045 1.4325-0.895 0.895-1.4325 1.97-1.4325 3.2225v5.55125c0 1.25375 0.5375 2.3275 1.4325 3.2225 0.89625 0.89625 1.79 1.25375 3.045 1.25375h8.9525c0.53625 0 1.25375-0.17875 2.14875-0.5375 0.71625-0.53625 1.25375-1.07375 1.79-1.61125l-2.685-2.5075c-0.5375 0.53875-1.075 0.89625-1.25375 0.89625h-8.9525c-0.18 0-0.35875 0-0.5375-0.17875 0-0.17875-0.18-0.35875-0.18-0.5375v-5.55125c0-0.3575 0.18-0.53625 0.18-0.53625 0.17875-0.17875 0.3575-0.35875 0.5375-0.35875h8.9525zm20.4125 7.87875 1.61125 3.04375h4.2975l-7.69875-14.6825h-4.11875l-7.7 14.6825h4.2975l1.61125-3.04375h7.7zm-3.94-7.87875 1.97125 3.93875h-3.94c1.07375-1.79 1.61125-3.04375 1.96875-3.93875zm16.8325-2.3275v-2.50625h-3.76v2.685c0.71625 0 1.075 0 1.075 0.17875s-0.18 0.5375-0.7175 1.4325l1.4325 0.7175 1.97-2.5075zm19.3375 2.3275v-3.76h-10.0262c-1.075 0-1.97 0.17875-2.865 0.71625-0.895 0.35875-1.61125 1.07375-2.14875 1.97-0.17875 0.53625-0.3575 1.25375-0.3575 1.96875 0 0.71625 0.17875 1.25375 0.3575 1.97 0.895 1.61125 2.68625 2.50625 5.01375 2.50625h5.55125c0.3575 0 0.71625 0.18 0.895 0.35875 0.17875 0.18 0.3575 0.35875 0.3575 0.71625 0 0.5375-0.3575 0.71625-1.2525 0.71625h-10.565v3.76h10.0275c1.07375 0 2.14875-0.17875 3.04375-0.5375 0.895-0.53625 1.79125-1.2525 2.14875-2.14875 0.3575-0.53625 0.5375-1.2525 0.5375-1.79 0-0.71625-0.18-1.4325-0.5375-1.97-0.895-1.79-2.50625-2.685-5.1925-2.685h-5.3725c-0.3575 0-0.71625 0-0.895-0.18-0.35875-0.17875-0.35875-0.3575-0.35875-0.71625 0-0.17875 0-0.53625 0.35875-0.53625 0.17875-0.17875 0.5375-0.35875 0.895-0.35875h10.385" fill="#fff"/>
  <path d="m410.221 104.991 3.581 7.16112h9.668l-17.1875-32.9429h-9.48925l-17.3662 32.9429h9.84625l3.40225-7.16112h17.5455zm-8.773-17.5464 4.4765 9.13138h-8.77288c2.14838-4.11775 3.5805-6.9825 4.29638-9.13138zm63.7378 5.01362v-3.04388c0-2.86525-0.895-5.37062-2.686-7.34038-1.7895-1.96975-4.11713-2.86475-6.80275-2.86475h-28.4672v32.9429h8.415v-9.668h8.05612l9.6685 9.668h11.8164l-9.48875-9.668c2.68562-0.17912 4.8335-1.07412 6.80275-3.04388 1.791-1.96875 2.686-4.29638 2.686-6.982zm-8.77288-4.29725c0.17913 0.358375 0.35838 0.71675 0.35838 1.25338v3.22262c0 0.357875-0.17925 0.716375-0.35838 1.07425-0.35837 0.357875-0.895 0.537125-1.253 0.537125h-19.5151v-6.6245h19.5151c0.358 0 0.89463 0.179125 1.253 0.537125zm55.3229-8.95175h-8.77375l-11.4588 24.5279-11.6362-24.5279h-8.773v32.9429h8.05675v-16.4711c1.07375 2.14788 2.50625 5.19188 4.475 9.48826l3.58125 6.98287h8.415l3.40125-6.80325c2.14875-4.29725 3.76-7.52 4.655-9.66788v16.4711h8.0575v-32.9429zm32.9425 0-6.0875 9.13088c-1.61125 2.6855-2.86375 4.65475-3.40125 5.90825l-3.4025-5.90825-6.08625-9.13088h-9.66875l14.6812 21.8424v11.1005h8.59375v-10.563l15.2188-22.3799h-9.8475" fill="#fff"/>
  <path d="m363.173 23.6565h106.373v-53.8799h-106.373v53.8799z" fill="#2c3f75"/>
  <path d="m363.173 76.7443h106.373v-53.0879h-106.373v53.0879z" fill="#ed1b29"/>
  <path d="m469.546 23.6565h106.373v-53.8799h-106.373v53.8799z" fill="#ed1b29"/>
  <path d="m469.546 76.7443h106.373v-53.0879h-106.373v53.0879z" fill="#2c3f75"/>
  <path d="m430.184-21.7684-1.2325-1.40875-1.9375-0.52875h-20.9575l-1.76124 0.52875-1.40913 1.40875-38.5689 73.2638-0.3525 1.05712h31.3486l7.04487-14.0898h28.7066l7.04437 14.0898h30.9966l-0.35212-1.05712-38.5698-73.2638" fill="#a7a5a6"/>
  <path d="m434.235 34.2361 7.0445 14.2656h19.7255l-35.0474-66.5714h-19.0205l-35.0469 66.5714h19.7251l7.04437-14.2656h35.5752zm-17.7876-35.5758 8.80612 18.3175h-17.6118c4.40288-8.10125 7.22075-14.2662 8.80563-18.3175" fill="#231f20"/>
  <path d="m536.206-21.7684-1.23375-1.40875-1.93625-0.52875h-20.9588l-1.76125 0.52875-1.40875 1.40875-38.5689 73.2638-0.3525 1.05712h31.3489l7.045-14.0898h28.7062l7.045 14.0898h30.9962l-0.3525-1.05712-38.5688-73.2638" fill="#a7a5a6"/>
  <path d="m540.256 34.2361 7.045 14.2656h19.725l-35.0475-66.5714h-19.02l-35.0475 66.5714h19.725l7.045-14.2656h35.575zm-17.7875-35.5758 8.80625 18.3175h-17.6125c4.40375-8.10125 7.22125-14.2662 8.80625-18.3175" fill="#231f20"/>
  <path d="m447.636 47.6262 8.43062-25.9488-21.2275-16.2546h26.4765l7.87263-24.7762 8.03625 24.7762h27.0275l-21.235 16.2605 7.7975 25.2559-21.6068-17.5195-21.5718 18.2065" fill="#231f20"/>
  <path d="m449.401 45.0022 7.68013-23.6401-19.6825-15.073h24.5518l7.2465-22.8062 7.398 22.8062h25.0988l-19.6825 15.073 7.1325 23.106-19.9468-16.1739-19.7959 16.708" fill="#fff"/>
 </g>
</svg>
