<?xml version="1.0" encoding="UTF-8" standalone="no"?>
<!-- Created with Inkscape (http://www.inkscape.org/) -->
<svg
   xmlns:svg="http://www.w3.org/2000/svg"
   xmlns="http://www.w3.org/2000/svg"
   version="1.0"
   width="36.374691"
   height="39.749435"
   id="svg2">
  <defs
     id="defs4" />
  <rect
     width="36.374691"
     height="39.749435"
     x="0"
     y="0"
     style="fill:#000000;fill-opacity:1;stroke:none;stroke-width:1.07684779;stroke-opacity:0"
     id="rect3197" />
  <rect
     width="31.501463"
     height="35.215481"
     x="2.4938965"
     y="2.2149963"
     style="fill:#000000;fill-opacity:1;stroke:#ffffff;stroke-width:2;stroke-miterlimit:4;stroke-dasharray:none;stroke-opacity:1"
     id="rect3195" />
  <path
     d="M 27.791338,15.978874 C 27.791338,18.540914 27.849368,24.933544 27.849368,31.299384 C 26.207018,31.299384 21.631128,31.299384 20.042558,31.299384 C 20.042558,29.405144 20.042558,28.305624 20.042558,24.133454 C 19.491948,24.133454 19.208498,24.133454 18.168648,24.133454 C 18.168648,22.474134 18.168648,18.761004 18.168648,17.984314 C 18.718488,17.984314 19.755618,17.984314 20.042558,17.984314 C 20.042558,16.948254 19.982528,16.052604 19.982528,15.169464 C 19.982528,14.254754 19.356618,13.621704 18.508578,13.621704 C 17.663488,13.621704 17.062198,14.277334 17.062198,15.148724 C 17.062198,16.051694 16.943038,23.023424 16.943038,31.299384 C 15.410168,31.299384 11.159238,31.299384 9.2940679,31.299384 C 9.2940679,24.924024 9.2258879,20.436744 9.2258879,15.978874 C 9.2258879,10.854814 13.384548,6.6961539 18.508608,6.6961539 C 23.632678,6.6961539 27.791338,10.854814 27.791338,15.978874 z "
     style="fill:#ffffff;fill-opacity:1;fill-rule:evenodd;stroke:#000000;stroke-width:0.9626528px;stroke-linecap:butt;stroke-linejoin:miter;stroke-opacity:0"
     id="path2221" />
</svg>
