/* XPM */
static char *ares[] = {
  /* columns rows colors chars-per-pixel */
  "48 48 256 2 ",
  "   c black",
  ".  c #12181E",
  "X  c #1E251D",
  "o  c #2C2C05",
  "O  c #272809",
  "+  c #2F3008",
  "@  c #333405",
  "#  c #3B3C04",
  "$  c #35360A",
  "%  c #3A3B0B",
  "&  c #373808",
  "*  c #242916",
  "=  c #373912",
  "-  c #1A272F",
  ";  c #262E28",
  ":  c #333B2D",
  ">  c #273438",
  ",  c #2D362F",
  "<  c #0B152B",
  "1  c #3F4008",
  "2  c #3E4014",
  "3  c #374132",
  "4  c #41430D",
  "5  c #4A4B0A",
  "6  c #474913",
  "7  c #525313",
  "8  c #595B16",
  "9  c #53540F",
  "0  c #5F6119",
  "q  c #66681B",
  "w  c #77791B",
  "e  c #65670D",
  "r  c #575928",
  "t  c #595C35",
  "y  c #4B4D35",
  "u  c #686926",
  "i  c #787928",
  "p  c #676838",
  "a  c #787935",
  "s  c #6F7038",
  "d  c #172E4E",
  "f  c #29384B",
  "g  c #1A3A75",
  "h  c #253979",
  "j  c #071B60",
  "k  c #354758",
  "l  c #2A4665",
  "z  c #354D67",
  "x  c #375269",
  "c  c #334B79",
  "v  c #3C5775",
  "b  c #2B4373",
  "n  c #4D5550",
  "m  c #5D624E",
  "M  c #65674A",
  "N  c #74754D",
  "B  c #415C7B",
  "V  c #455B77",
  "C  c #4B5867",
  "Z  c #44617F",
  "A  c #56697A",
  "S  c #787863",
  "D  c #7F8114",
  "F  c #898B17",
  "G  c #B7B91C",
  "H  c #87892B",
  "J  c #96982D",
  "K  c #888936",
  "L  c #969836",
  "P  c #8F922C",
  "I  c #9EA12E",
  "U  c #B8BA2A",
  "Y  c #A6A838",
  "T  c #B6B83A",
  "R  c #A9AB32",
  "E  c #BFC23B",
  "W  c #BFC125",
  "Q  c #C4C72A",
  "!  c #C2C53D",
  "~  c #C6CA3C",
  "^  c #C9CC3C",
  "/  c #CACC33",
  "(  c #D3D539",
  ")  c #D8DB28",
  "_  c #DFE134",
  "`  c #F9FA34",
  "'  c #E8EA34",
  "]  c #8E8F4C",
  "[  c #A7A949",
  "{  c #BABD47",
  "}  c #AEAF54",
  "|  c #9B9C69",
  " . c #919177",
  ".. c #87886F",
  "X. c #A8A877",
  "o. c #BFC244",
  "O. c #CACD42",
  "+. c #C6C946",
  "@. c #CED244",
  "#. c #CDD148",
  "$. c #D1D545",
  "%. c #FCFC57",
  "&. c #FFFF48",
  "*. c #D0D071",
  "=. c #FFFF6E",
  "-. c #143998",
  ";. c #0F3391",
  ":. c #0405B8",
  ">. c #0416B5",
  ",. c #053BB7",
  "<. c #0A2EAE",
  "1. c #1B4491",
  "2. c #2A4D9A",
  "3. c #385A98",
  "4. c #2D508D",
  "5. c #1748B3",
  "6. c #184DB1",
  "7. c #2C53A7",
  "8. c #3659A9",
  "9. c #2559B8",
  "0. c #365BB4",
  "q. c #244CA8",
  "w. c #2C63B8",
  "e. c #2660B8",
  "r. c #3666B9",
  "t. c #3C62AE",
  "y. c #4A5C83",
  "u. c #4C6B8C",
  "i. c #476584",
  "p. c #54698A",
  "a. c #567698",
  "s. c #526E92",
  "d. c #617D9A",
  "f. c #5B7EA2",
  "g. c #5B77AD",
  "h. c #436CB9",
  "j. c #4866B9",
  "k. c #566BB8",
  "l. c #5E72B9",
  "z. c #5169AC",
  "x. c #0017C5",
  "c. c #0011CF",
  "v. c #0027CD",
  "b. c #0037D8",
  "n. c #0334CE",
  "m. c #002BE0",
  "M. c #0248D8",
  "N. c #0A56D9",
  "B. c #1657D0",
  "V. c #3253CE",
  "C. c #146CDF",
  "Z. c #316CD2",
  "A. c #044AE5",
  "S. c #187BF9",
  "D. c #0E74F9",
  "F. c #3978E3",
  "G. c #2072E5",
  "H. c #4774CA",
  "J. c #4B6ED4",
  "K. c #6A76D5",
  "L. c #5D8395",
  "P. c #5E828E",
  "I. c #728C8D",
  "U. c #5E82A7",
  "Y. c #6286AB",
  "T. c #658BB2",
  "R. c #688FB7",
  "E. c #6A93BB",
  "W. c #6C95B6",
  "Q. c #7597A9",
  "!. c #78A4BD",
  "~. c #3B8AD6",
  "^. c #3787F2",
  "/. c #308CF6",
  "(. c #3EA4FD",
  "). c #1D85FD",
  "_. c #548FD3",
  "`. c #7B8BC8",
  "'. c #719BC4",
  "]. c #749EC9",
  "[. c #7C88DA",
  "{. c #6897D4",
  "}. c #6A8EC4",
  "|. c #78A3CB",
  " X c #7CA9D5",
  ".X c #7BA7D5",
  "XX c #75AED8",
  "oX c #4698F7",
  "OX c #518EEA",
  "+X c #6D91E6",
  "@X c #46A8FB",
  "#X c #56B9FD",
  "$X c #51AEFA",
  "%X c #67B3FD",
  "&X c #7AADED",
  "*X c #5CC5FD",
  "=X c #64C5FD",
  "-X c #76C6FD",
  ";X c #70D3FD",
  ":X c #8C9595",
  ">X c #9099A7",
  ",X c #97A9B8",
  "<X c #90AAAF",
  "1X c #A8B3BB",
  "2X c #ADB0B0",
  "3X c #C0C0BE",
  "4X c #81AEDA",
  "5X c #85B4DA",
  "6X c #8FB0CD",
  "7X c #ABB3D0",
  "8X c #8F9BE5",
  "9X c #8BBBEC",
  "0X c #88B8E2",
  "qX c #96AAEB",
  "wX c #A8AAE6",
  "eX c #A5B3EA",
  "rX c #B8BAE7",
  "tX c #8E98D2",
  "yX c #8EC5D5",
  "uX c #BAC7D6",
  "iX c #B3C1CD",
  "pX c #95C8EA",
  "aX c #87C7FB",
  "sX c #95C8F9",
  "dX c #9DD4FE",
  "fX c #9AD8FB",
  "gX c #8BD2FA",
  "hX c #A4DBFF",
  "jX c #A7D9FE",
  "kX c #B4D2F4",
  "lX c #8DE4FD",
  "zX c #AAE4FF",
  "xX c #ACE8FF",
  "cX c #B6F4FF",
  "vX c #B1EEFF",
  "bX c #CAD4DB",
  "nX c #D8D8D8",
  "mX c #C3CCD2",
  "MX c #E2E1DE",
  "NX c #D3DCE4",
  "BX c #D8D9E7",
  "VX c #CDD3EF",
  "CX c #DDE4EB",
  "ZX c #CFE9FD",
  "AX c #E5E7EA",
  "SX c #E6EBF2",
  "DX c #E9EEF4",
  "FX c #EDF1F6",
  "GX c #EDF3FB",
  "HX c #F4F4F4",
  "JX c #F2F6F9",
  "KX c #F5F9FC",
  "LX c #FDFDFD",
  "PX c #F1F1ED",
  "IX c #E1DFDF",
  "UX c None",
  /* pixels */
  "UXUXUXUXUXUXUXUXUXUXUXUXUXUXUXUXUXUXUXUX7XBXCXSXSXAXbX1X>XUXUXUXUXUXUXUXUXUXUXUXUXUXUXUXUXUXUXUX",
  "UXUXUXUXUXUXUXUXUXUXUXUXUXUXUXUXUXNXKXLXLXKXLXLXLXLXLXLXLXFXNX1XUXUXUXUXUXUXUXUXUXUXUXUXUXUXUXUX",
  "UXUXUXUXUXUXUXUXUXUXUXUXUXUXiXKXLXLXl.l.l.l.l.l.l.l.l.l.l.HXLXLXJXiXUXUXUXUXUXUXUXUXUXUXUXUXUXUX",
  "UXUXUXUXUXUXUXUXUXUXUXUXNXKXLXLXLXLXk.S .. . .:X ...S M A K.KXLXLXLXLXBXUXUXUXUXUXUXUXUXUXUXUXUX",
  "UXUXUXUXUXUXUXUXUXUXUXKXLXLXLXLXLX6Xs.N ..| X.X.X.| N M n g.LXHXKXKXKXLXLXbXUXUXUXUXUXUXUXUXUXUX",
  "UXUXUXUXUXUXUXUXUXmXLXLXLXLXLXLXLXl.m a [ *.*.*.*.} [ i r z.VXKXKXKXJXJXLXLXCXUXUXUXUXUXUXUXUXUX",
  "UXUXUXUXUXUXUXUXbXLXLXLXLXLXLXLXDXl.u L +.%.=.=.=.%.^ I i C l.JXJXJXJXKXJXGXKXJXUXUXUXUXUXUXUXUX",
  "UXUXUXUXUXUXUXmXLXLXLXLXLXLXLXLX`.p.a T ' %.%.%.%.&.` Q P t k.JXJXJXFXFXFXFXFXKXLX  UXUXUXUXUXUX",
  "UXUXUXUXUXUX1XLXLXLXLXLXKXKXHXKXk.M J ( ` ` ` ` ` ` ` _ R u p.tXGXJXJXGXDXDXDXDXKXSXUXUXUXUXUXUX",
  "UXUXUXUXUXI.LXLXKXHXHXHXKXKXHXrXz.s Y ( ' W w q D G ' _ U i n k.VXBXDXGXDXDXDXDXSXKXmXUXUXUXUXUX",
  "UXUXUXUXA 2XLXHXHXHXHXLXLXAXVXk.C K T ( W 8 = $ = 0 / _ ~ J t z.VXVXVXCXDXSXSXSXAXSXKX>XUXUXUXUX",
  "UXUXUXUXI.3XLXHXHXHXHXPXBXrXrXz.p L E / w = = $ % 2 H ( ( R u A `.GXwXrXCXSXAXAXSXCXSXNXV UXUXUX",
  "UXUXUXP.:XnXHXPXPXPXPXVXwXwX8Xz.s Y ! E 7 = = % % % 0 E ( T H n k.LXkXqXrXCXCXCXCXCXCXSXQ.UXUXUX",
  "UXUXUXI.:XAXPXAXPXPXBXwXwXwXk.C K T ^ J 6 & % % & & 7 Y $.~ L t z.rXkXeXwXrXNXCXBXNXNXCX,Xb UXUX",
  "UXUXi.I.2XPXMXPXAXIXwXtXqXqXj.p L ! ^ i 2 & @ C & & 6 P @.@.R i B j.GXZXeXqXwXNXNXNXNXBX1Xz UXUX",
  "UXUXd.I.:XPXMXAXMXwX[.8X&Xj.y.N Y ^ ! 8 % @ @ 8.3 @ 1 w O.#.E H t 0.ZXkX+X[.[.uXbXbXbXNX1Xv x UX",
  "UXV d.I.>XMXMXMXbX8X8X+X+X0.m K o.^ L 6 $ @ > t.c @ & 8 R @.^ L u 2._.sX+X+XK.8XVXbXmXbX,Xv v UX",
  "UXV P.I.:XnXMXMXwX8X8X+XOX0.s L ~ ! u % $ o b J.0.* @ 4 F #.O.T i z q.8XOXOXJ.K.wXmXuXbX,Xv v UX",
  "UXu.P.I.:X3XIXnXK.J.OX&Xk.p.a { ^ T 8 & + O 0.sX0.l o # q ! $.E P t 5.$XOXF.F.F.[.uXiXuXQ.v v v ",
  "UXu.d.:X:X2XMX7XK.V.Z.F.j.M K E ^ H 4 & o f 9.OXOX-.O @ 9 I @.^ Y u h V.OXV.V.V.J.7XiX7XL.Z Z v ",
  "x u.L.Q.:X2XnX`.V.F.F.B.q.s Y ~ ~ q % + o 1.F.oXOX5.> + 4 D +.@.T i k 5.oXN.N.B.V.6XiX6Xu.u.Z B ",
  "v i.P.Q.:X<X2Xr.n.V.F.5.x a T ~ Y 7 $ + * 5.oX^.^.9.h o % 0 E $.! J u <.^.N.M.M.n.`.1XY.a.u.i.Z ",
  "x i.L.Q.<X<X>X<.v.b.N.5.M L ! ^ i 4 $ o g 5.F.F.^.G.7.* o 7 I @.O.Y u 1.9.M.b.b.v.K.!.U.U.s.u.Z ",
  "z Z a.W.!.1X,X>.x.b.<.;.s Y ~ ! 0 $ + O ;.G.S./.S.S.q.f o 4 w O.$.T H y 5.N.m.m.c.H.Q.T.U.L.s.i.",
  "l B a.W.!.<X6X>.:.v.>.k K T ^ J 6 & o d ,.D.S.S.S./.F.;.o @ 8 R @.! J u -.M.v.m.v.H.!.W.T.U.a.i.",
  "x v s.T.!.yX6X>.:.c.<.p L o.^ u 1 @ O g B.S.D.D.S.%X/.,.X o 5 P @.@.R i b ,.A.A.b.H.|.!.R.Y.a.u.",
  "x v s.T.!.6XyX<.:.>.h a [ ^ T 7 $ + * 6.$X$X(.%XkXGX%X5.d o & q +.@.E H t 0.C.A.v.H.6X|.W.Y.f.s.",
  "z v s.U.W.XXyXr.:.<.C K T ^ H 6 $ O d ,./.oX@XhXLXLXvX^.6.O & 9 R @.O.L u 3.N.A.b.{.5X|.'.T.L.u.",
  "UXB s.U.R.].5X{.x.;.p L E E q 2 $ O 1.G./.(.(.-XKXZX-X(.6.- o 1 D O.@.T i C ,.A.M.XXyXXX].T.U.u.",
  "UXB s.U.E.].XXXX<.h a T ~ Y 7 $ + ; 9.(.(.@X(.#XfX=X@X(.Z.g O $ 8 T @.E P r ,.b.Z.yX5X5X].R.f.u.",
  "UXv u.U.E.].5X0X5.n K E ~ i 2 @ o l w.;X#X#X#X=X=X#X#X#X$X6.* @ 7 J @.O.Y u g ,.XXpX0X5X].T.f.UX",
  "UXUXu.U.E.|.5X{.3.s Y +.o.q 1 + + 9.$X_.w.e.e.w.e.e.e.~.*Xe.d o 1 w O.@.T a k q.zXpX0X5X].T.a.UX",
  "UXUXu.U.R.].4X0.C a [ ! J 6 % + > e.~.8.u.L.L.a.a.s.Z 4.~._.2.o & 0 U +.{ K t t.yXgX0X5X].Y.UXUX",
  "UXUXi.a.Y.'.4X0.M ] { +.w 1 $ o g ~.e.c m S  . ...M y l e.;Xw.* + 5 P @.+.Y s Z h.pX0X XW.U.UXUX",
  "UXUXUXs.U.'.h.3.s [ { Q 8 % @ O 9.*Xw.l y N | | ] t = l w.lXr.l o 1 D ) #.} a n r.sX0X|.E.UXUXUX",
  "UXUXUXu.f.R.8.C N } ~ F 5 & + d 9.=Xw.l r K [ [ L q = l t.lX#X7.o @ 9 G ) +.] t 3.].4X].T.UXUXUX",
  "UXUXUXUXa.g.2.p K U Q e 4 @ o 1.~.%Xw.z u P Y R L i 6 z r.lX;Xw.> o 5 D ) Q Y p x 0.|.E.UXUXUXUX",
  "UXUXUXUXUX2.c p J G F 5 # @ ; 9.$X#Xw.x q i i u 0 0 7 C l.lX;XZ.l o 1 5 D G R i y 8.'.Y.UXUXUXUX",
  "UXUXUXUXUX-.y u F 8 5 4 # o z r.-X#X9.z 7 7 4 % 2 6 6 x h.gXgXaXr.o @ # 5 e D D r c 8.UXUXUXUXUX",
  "UXUXUXUXUX  = 6 4 # # # @ o t.fXxXhXw.l $ $ $ % $ $ @ l 0.gXxXvXh.k @ # 1 1 5 e 7 f   UXUXUXUXUX",
  "UXUXUXUX  d O o @ # # # @ > j.jXzXvXh.k O o # % $ + O l h.cXcXcX0X3.o # # # @ $ $ O   UXUXUXUXUX",
  "UXUXUXUX  < . X ; : : : , 4.{.hXjXzX_.b ; , 3 3 3 , ; z }.cXvXvXxXh.> : 3 : : , X . j UXUXUXUXUX",
  "UXUXUXUXUX        ;.2.q.7.H.9XsXdXjXzX_.j.h.h.h.j.h.h._.xXxXxXzXhX{.0.0.8.7.-.      UXUXUXUXUXUX",
  "UXUXUXUXUXUXUXUXUXUXUXT.'..X0X9XsXsXdXdXjXzXhXzXxXxXxXzXzXhXdXdXsX9X0X X].UXUXUXUXUXUXUXUXUXUXUX",
  "UXUXUXUXUXUXUXUXUXUXUXUXa.E.].4X4X9XsXsXsXdXdXdXdXdXdXdXdXsXsX9X0X X|.'.UXUXUXUXUXUXUXUXUXUXUXUX",
  "UXUXUXUXUXUXUXUXUXUXUXUXUXUXUXR.'.]..X X4X9X9X9X9XpX9X9X0X4X.X|.].UXUXUXUXUXUXUXUXUXUXUXUXUXUXUX",
  "UXUXUXUXUXUXUXUXUXUXUXUXUXUXUXUXUXY.'.'.|..X.X.X X X.X.X|.].E.UXUXUXUXUXUXUXUXUXUXUXUXUXUXUXUXUX",
  "UXUXUXUXUXUXUXUXUXUXUXUXUXUXUXUXUXUXUXUXUXa.f.U.U.U.f.UXUXUXUXUXUXUXUXUXUXUXUXUXUXUXUXUXUXUXUXUX"
};
