<svg xmlns="http://www.w3.org/2000/svg" viewBox="0 0 128 128" role="img" aria-labelledby="title desc">
  <title id="title">AUR Security Auditor</title>
  <desc id="desc">A stylized malware bug inspected through a magnifying glass with AUR lettering</desc>
  <defs>
    <linearGradient id="lens" x1="0" y1="0" x2="1" y2="1">
      <stop offset="0" stop-color="#79b9f1"/>
      <stop offset="1" stop-color="#3f78b4"/>
    </linearGradient>
  </defs>
  <rect x="8" y="8" width="112" height="112" rx="22" fill="#111820" stroke="#3c4b5a" stroke-width="4"/>
  <circle cx="57" cy="55" r="34" fill="#0c1117" stroke="url(#lens)" stroke-width="7"/>
  <path d="M80 80 108 108" fill="none" stroke="url(#lens)" stroke-width="11" stroke-linecap="round"/>
  <path d="M44 40c0-8 6-14 13-14s13 6 13 14v6H44z" fill="#d96c76"/>
  <rect x="39" y="44" width="36" height="36" rx="15" fill="#b94755" stroke="#f19aa3" stroke-width="3"/>
  <path d="M46 31 38 23M68 31l8-8M37 49 24 43M37 61 22 61M39 73 25 82M77 49l13-6M77 61h13M75 73l12 8" fill="none" stroke="#dbe5ee" stroke-width="4" stroke-linecap="round"/>
  <path d="M57 44v36M40 57h34" fill="none" stroke="#792b35" stroke-width="3" opacity=".85"/>
  <rect x="32" y="87" width="48" height="20" rx="6" fill="#162b3f" stroke="#4c8fd9" stroke-width="2"/>
  <text x="56" y="101" text-anchor="middle" font-family="ui-monospace,monospace" font-size="13" font-weight="700" letter-spacing="2" fill="#b9ddff">AUR</text>
</svg>
