<?xml version="1.0" encoding="UTF-8" standalone="no"?>
<!-- Created with Inkscape (http://www.inkscape.org/) -->

<svg
   width="120"
   height="120"
   viewBox="0 0 120 120"
   version="1.1"
   id="svg5"
   xml:space="preserve"
   xmlns="http://www.w3.org/2000/svg"
   xmlns:svg="http://www.w3.org/2000/svg"><defs
     id="defs2" /><g
     id="layer1"
     style="display:inline"><path
       style="display:inline;opacity:1;fill:#cfc19f;fill-opacity:1;stroke:none;stroke-opacity:1"
       d="m 61.372515,58.909879 c 0,0 -0.04364,0.633782 0.1357,0.813117 0.179335,0.179335 0.662123,0.308254 0.662123,0.308254 l 14.625,2.9375 3.527574,-15.63679 -16.926369,-3.248272 z"
       id="path11473" /><path
       style="display:inline;opacity:1;fill:#69b954;fill-opacity:1;stroke:none;stroke-opacity:1"
       d="m 63.197669,44.834989 c -0.3326,-0.08044 -0.287262,-0.817592 -0.287262,-0.817592 0,0 -0.0096,-0.441197 0.110485,-0.618718 0.593851,-0.877666 3.819853,-2.647492 5.612661,-3.159884 1.792807,-0.512392 18.42897,2.872622 18.42897,2.872622 l -4.795068,5.45798 c 0,0 -18.032824,-3.483618 -19.069786,-3.734408 z"
       id="path12515" /><path
       style="display:inline;opacity:1;fill:#cfc19f;fill-opacity:1;stroke:none;stroke-opacity:1"
       d="m 83.867598,30.231036 -2.6829,20.061934 17.339741,4.993941 3.254751,-22.229669 z"
       id="path12581" /><path
       style="display:inline;opacity:1;fill:#cfc19f;fill-opacity:1;stroke:none;stroke-opacity:1"
       d="m 74.477819,65.434906 c 0,0 -0.04364,0.633782 0.1357,0.813117 0.179335,0.179335 0.662123,0.308254 0.662123,0.308254 0,0 15.953751,3.223372 16.633289,3.116172 0.679538,-0.1072 4.925738,-2.418663 5.13057,-2.762149 0.204832,-0.343486 2.211844,-15.777856 2.211844,-15.777856 l -4.791879,2.537043 -17.610459,-3.665952 z"
       id="path11751" /><path
       style="display:inline;opacity:1;fill:#cfc19f;fill-opacity:1;stroke:none;stroke-opacity:1"
       d="m 96.431688,52.170571 c 0.53033,-0.176776 8.043342,-5.545718 8.043342,-5.545718 l 2.07713,-15.158601 -7.601404,3.270369 z"
       id="path12583" /><path
       style="display:inline;opacity:1;fill:#aecbcd;fill-opacity:1;stroke:none;stroke-opacity:1"
       d="m 76.478018,51.331533 c 0,0 -0.32089,-0.603973 -0.353553,-0.905981 -0.03266,-0.302008 -0.105459,-0.685964 0.132583,-0.839689 1.049352,-0.67766 5.700558,-3.068854 5.700558,-3.068854 5.887253,1.115175 11.854492,1.917607 17.611868,3.577087 0,0 0.257446,0.61217 0.220971,0.928078 -0.05478,0.474483 -0.640815,1.281631 -0.640815,1.281631 0,0 -3.72782,2.261599 -4.883457,2.430679 -1.297505,0.189838 -17.788155,-3.402951 -17.788155,-3.402951 z"
       id="path11818" /><path
       style="display:inline;opacity:1;fill:#c99b5c;fill-opacity:1;stroke:none;stroke-opacity:1"
       d="m 83.670338,31.15625 c 0,0 -0.266289,-0.513938 -0.28125,-0.84375 -0.01496,-0.329812 0.08844,-0.810797 0.25,-1.0625 0.161561,-0.251703 4.788394,-2.725504 5.753791,-2.922985 0.965397,-0.197481 17.145661,3.282787 17.406251,3.46875 0.26059,0.185962 0.52647,0.463799 0.54308,1.047985 0.0166,0.584186 -0.45312,1.1875 -0.45312,1.1875 L 101.54534,34.75 Z"
       id="path12585" /><path
       style="display:inline;fill:#91310f;fill-opacity:1"
       d="m 47.818913,82.245614 c 0,0 1.330023,1.086814 2.14035,1.22807 1.252156,0.218276 2.564361,-0.220145 3.754386,-0.666666 1.061062,-0.398132 2.2384,-0.843208 2.912281,-1.754386 0.487469,-0.659124 0.596491,-2.385965 0.596491,-2.385965 L 51.573299,68.140351 c 0,0 3.335067,-0.320224 4.91228,-0.842105 2.626942,-0.869224 5.218306,-2.056958 7.403509,-3.754386 1.976771,-1.535521 3.710577,-3.472934 4.947368,-5.649123 1.233587,-2.170551 1.800061,-4.680052 2.31579,-7.122807 0.451724,-2.139594 0.777454,-4.342365 0.666667,-6.526316 -0.140963,-2.778799 -0.819172,-5.530953 -1.684211,-8.175439 -0.847746,-2.591622 -1.94688,-5.133513 -3.403509,-7.438596 -1.467948,-2.322995 -3.307392,-4.421673 -5.298245,-6.31579 C 59.636534,20.606663 57.633543,19.093232 55.503123,17.824561 52.876726,16.260535 50.067366,14.954986 47.152246,14.035088 40.615733,11.97242 26.94172,10.245614 26.94172,10.245614 c -3.837397,4.344451 -7.685865,8.587841 -10.736843,13.508772 0,0 3.656344,-0.702637 5.438597,-0.350877 1.621651,0.320062 3.3046,0.989628 4.45614,2.175438 1.126829,1.160364 1.602859,2.853103 2,4.421053 0.322454,1.273077 0.479529,2.631684 0.280702,3.929825 -0.188414,1.230156 -0.660693,2.450012 -1.368421,3.473684 -0.861719,1.246408 -2.071386,2.269183 -3.368421,3.052631 -0.991323,0.598788 -2.125955,0.97381 -3.263158,1.192983 -1.516657,0.292305 -3.123929,0.476036 -4.631579,0.140351 -1.061966,-0.236451 -2.035262,-0.829853 -2.912281,-1.473684 -1.053422,-0.773331 -2.736842,-2.807018 -2.736842,-2.807018 0,0 -1.1493395,2.679555 -1.3684214,4.105263 -0.4228441,2.75172 -0.3013948,5.602128 0.1403508,8.350877 0.4431662,2.757589 1.3751966,5.439694 2.4912286,8 1.04785,2.403891 2.340204,4.726104 3.910636,6.826206 1.362326,1.821808 2.948981,3.501622 4.720943,4.92818 1.868717,1.504453 3.883444,2.940844 6.140351,3.754386 2.467888,0.889593 5.168459,1.232909 7.789474,1.122807 2.698564,-0.113359 5.410044,-0.7656 7.894737,-1.824561 1.593601,-0.679183 4.350877,-2.842105 4.350877,-2.842105 z"
       id="path966" /><path
       style="display:inline;fill:#7a1e03;fill-opacity:1"
       d="m 46.16979,69.929825 2.063048,-3.398575 c 0,0 -5.587912,-1.31253 -13.176098,-0.599908 -7.690544,0.722235 -15.062389,3.787956 -15.062389,3.787956 0,0 3.883444,2.940844 6.140351,3.754386 2.467888,0.889593 5.168459,1.232909 7.789474,1.122807 2.698564,-0.113359 5.410044,-0.7656 7.894737,-1.824561 1.593601,-0.679183 4.350877,-2.842105 4.350877,-2.842105 z"
       id="path3917" /><path
       style="display:inline;fill:#7a1e03;fill-opacity:1"
       d="m 48.232838,66.53125 3.340461,1.609101 c 0,0 3.335067,-0.320224 4.91228,-0.842105 2.626942,-0.869224 5.218306,-2.056958 7.403509,-3.754386 1.976771,-1.535521 3.710577,-3.472934 4.947368,-5.649123 1.233587,-2.170551 2.31579,-7.122807 2.31579,-7.122807 0,0 -7.624581,2.799207 -11.791727,5.891073 -4.965446,3.684174 -11.127681,9.868247 -11.127681,9.868247"
       id="path8234" /><path
       style="display:inline;fill:#7a1e03;fill-opacity:1"
       d="m 8.7311926,41.614035 c 0,0 -0.6909962,3.769486 0.1403508,8.350877 0.831347,4.58139 2.4912286,8 2.4912286,8 0,0 10.782757,-5.250344 16.598851,-5.490261 5.233595,-0.215888 15.239965,-0.537151 15.239965,-0.537151 0,0 10.561027,-8.348308 15.720554,-11.243193 4.006405,-2.247897 11.21256,-4.624132 11.21256,-4.624132 0,0 -0.894346,-3.249557 -3.403509,-7.438596 -2.509163,-4.189039 -5.298245,-6.31579 -5.298245,-6.31579 0,0 -7.52781,3.031068 -10.983792,5.227068 C 45.951779,30.400581 38.014088,37.75 38.014088,37.75 L 27.011895,37.403509 c 0,0 -2.071386,2.269183 -3.368421,3.052631 -0.991323,0.598788 -2.125955,0.97381 -3.263158,1.192983 -1.516657,0.292305 -3.123929,0.476036 -4.631579,0.140351 -1.061966,-0.236451 -2.912281,-1.473684 -2.912281,-1.473684 z"
       id="path8236" /><path
       style="display:inline;fill:#7a1e03;fill-opacity:1"
       d="m 26.099614,25.578947 7.134405,0.09787 C 37.735308,21.611018 42.162487,17.498181 47.152246,14.03509 42.205072,12.459495 34.305664,11.24216 26.94172,10.245616 c -3.837397,4.344451 -7.685865,8.587841 -10.736843,13.508772 3.85836,-0.807509 6.873603,-0.731685 9.894737,1.824559 z"
       id="path8238" /><path
       style="display:inline;fill:#000000;fill-opacity:1"
       d="m 29.451588,40.78125 c 0,0 0.11677,-1.281697 1.21875,-1.71875 1.10198,-0.437053 1.875,0.59375 1.875,0.59375 l 3.59375,9.3125 c 0,0 -0.0604,1.225789 -1.09375,1.65625 -1.03335,0.430461 -2.09375,-0.34375 -2.09375,-0.34375 z"
       id="path8240" /><path
       style="display:inline;fill:#ffffff;fill-opacity:1"
       d="m 32.326588,43.46875 c 0.346137,-0.154811 0.497245,-0.652404 0.4375,-1.125 -0.09535,-0.754226 -0.426397,-1.42859 -0.75,-1.90625 -0.16628,-0.245441 -0.564588,-0.35321 -0.84375,-0.28125 -0.279162,0.07196 -0.570486,0.39509 -0.59375,0.710938 -0.0206,0.279711 0.318383,1.549362 0.75,2.226562 0.19134,0.300209 0.653863,0.529811 1,0.375 z"
       id="path8307" /><path
       style="display:inline;fill:#000000;fill-opacity:1"
       d="m 44.014088,35.375 c 0,0 -0.09007,-1.044773 1.0625,-1.5625 1.152568,-0.517727 2.1875,0.625 2.1875,0.625 l 3.5,8.78125 c 0,0 0.213697,1.417841 -0.84375,1.9375 -1.057447,0.519659 -2.1875,-0.21875 -2.1875,-0.21875 z"
       id="path8242" /><path
       style="display:inline;fill:#ffffff;fill-opacity:1"
       d="m 46.898461,38.078851 c 0.336125,-0.175491 0.456817,-0.681323 0.368558,-1.149433 -0.140856,-0.747066 -0.51214,-1.400141 -0.864079,-1.857324 -0.180841,-0.23492 -0.584945,-0.318366 -0.859236,-0.22963 -0.274291,0.08874 -0.545509,0.428917 -0.5496,0.745594 -0.0036,0.280446 0.411639,1.527234 0.88348,2.177049 0.209171,0.288069 0.684752,0.489236 1.020877,0.313744 z"
       id="path8311" /><path
       style="display:inline;fill:#bc7fc5;fill-opacity:1"
       d="m 86.682608,85.597137 5.514884,-2.107853 4.806394,-1.837059 10.759044,-19.799135 c 0.28266,-1.71729 0.4233,-2.714468 -0.48654,-4.232552 -0.94957,-1.611835 -2.9188,-2.806657 -4.56603,-3.48345 -1.9323,-0.758492 -3.675427,-0.835726 -5.532798,-0.09924 -0.548488,0.310612 -1.574583,1.205168 -1.574583,1.205168 L 85.243584,73.712784 c -0.76687,1.171147 0.127707,4.393217 0.372162,6.475609 z"
       id="path970" /><path
       style="display:inline;fill:#c886d1;fill-opacity:1;stroke:none;stroke-opacity:1"
       d="M 89.117552,74.688154 99.045338,55.96875 104.26409,58.75 93.91262,77.317707 Z"
       id="path8431" /><path
       style="display:inline;fill:#c886d1;fill-opacity:1;stroke:none;stroke-opacity:1"
       d="M 107.76293,61.85309 97.003886,81.652225 97.227183,80.146134 107.32659,61.4375 Z"
       id="path8433" /><path
       style="display:inline;fill:#c1b49b;fill-opacity:1;stroke:none;stroke-opacity:1"
       d="m 85.243584,73.712784 c -0.733941,0.82558 0.0091,4.29415 0.372162,6.475609 l 1.066862,5.408744 5.514884,-2.107853 4.806394,-1.837059 0.223297,-1.506091 -3.314563,-2.828427 -4.795068,-2.629553 -1.936984,-0.487685 z"
       id="path8427" /><path
       style="display:inline;fill:#000000;fill-opacity:1;stroke:none;stroke-opacity:1"
       d="m 86.682608,85.597137 5.514884,-2.107853 c 0,0 -1.11319,-1.549354 -1.876659,-2.092387 -1.16412,-0.828005 -2.293243,-1.6156 -3.718298,-1.515663 -0.291144,0.02042 -0.986789,0.307159 -0.986789,0.307159 z"
       id="path9050" /><path
       style="display:inline;fill:#c9acbb;fill-opacity:1;stroke:none;stroke-opacity:1"
       d="m 95.602979,55.243016 3.442359,0.725734 5.218752,2.78125 3.49884,3.10309 c 0,0 0.90943,-1.935155 -0.48654,-4.232552 -1.23865,-2.038492 -3.23057,-2.970686 -4.56603,-3.48345 -1.33545,-0.512764 -3.051323,-1.172583 -5.532798,-0.09924 -0.606637,0.262396 -1.574583,1.205168 -1.574583,1.205168 z"
       id="path8429" /><path
       style="opacity:1;fill:#fbfbfb;fill-opacity:1;stroke:none;stroke-opacity:1"
       d="m 7.7781746,91.923881 1.8561553,-6.894291 49.7626391,15.99829 50.116191,-15.909901 1.94455,7.071067 -50.381362,15.556354 -1.502602,-4.77298 -1.414213,5.21492 z"
       id="path18599" /><path
       style="opacity:1;fill:#f6f67b;fill-opacity:1;stroke:none;stroke-opacity:1"
       d="M 4.8613591,90.509668 4.065864,93.956813 59.573746,110.83899 115.17002,93.780037 114.19774,90.686444 59.662135,107.65701 Z"
       id="path19168" /></g></svg>
