<?xml version="1.0" standalone="no"?>
<!DOCTYPE svg PUBLIC "-//W3C//DTD SVG 20010904//EN"
 "http://www.w3.org/TR/2001/REC-SVG-20010904/DTD/svg10.dtd">
<svg version="1.0" xmlns="http://www.w3.org/2000/svg"
 width="1024.000000pt" height="1024.000000pt" viewBox="0 0 1024.000000 1024.000000"
 preserveAspectRatio="xMidYMid meet">
<metadata>
Created by potrace 1.16, written by Peter Selinger 2001-2019
</metadata>
<g transform="translate(0.000000,1024.000000) scale(0.100000,-0.100000)"
fill="#000000" stroke="none">
<path d="M10210 5120 c0 -4544 2 -5120 15 -5120 13 0 15 576 15 5120 0 4544
-2 5120 -15 5120 -13 0 -15 -576 -15 -5120z"/>
<path d="M4010 8384 c-194 -10 -618 -47 -735 -65 -267 -42 -627 -142 -840
-234 -370 -158 -679 -352 -998 -628 -193 -168 -443 -468 -588 -707 -42 -70
-131 -245 -177 -350 -38 -86 -104 -313 -124 -429 -29 -160 -28 -365 1 -474 83
-315 346 -489 736 -491 304 -1 591 73 841 216 99 57 247 167 278 206 29 38 72
87 134 153 28 31 52 58 52 62 0 6 -78 58 -229 153 -117 73 -222 173 -253 240
-20 43 -22 65 -22 174 1 129 8 166 59 323 67 205 211 428 371 574 108 98 173
150 279 221 157 105 369 219 473 256 20 8 57 22 82 34 102 45 231 79 424 112
154 26 172 23 128 -23 -70 -72 -230 -310 -299 -444 -53 -103 -116 -252 -158
-373 -13 -36 -49 -135 -80 -220 -31 -85 -65 -180 -75 -210 -10 -30 -48 -138
-85 -240 -37 -102 -83 -230 -102 -285 -103 -296 -129 -367 -228 -640 -26 -71
-65 -179 -87 -240 -45 -124 -164 -466 -273 -780 -128 -369 -143 -410 -190
-506 -63 -130 -101 -191 -231 -370 -33 -44 -118 -142 -216 -251 l-88 -96 64
-36 c149 -83 442 -191 616 -226 52 -11 143 -30 202 -44 59 -14 145 -30 190
-36 46 -6 115 -15 153 -20 98 -13 308 -27 597 -41 185 -9 273 -9 350 -1 57 6
132 14 168 18 142 13 434 100 558 166 29 15 57 28 63 28 6 0 45 -31 87 -68 87
-76 167 -138 262 -202 36 -24 77 -51 92 -61 151 -103 441 -243 663 -321 399
-141 751 -198 1140 -185 489 17 889 145 1338 428 218 138 491 410 724 724 28
38 119 190 165 275 58 108 117 274 150 418 30 130 32 148 32 347 0 200 -1 215
-28 310 -15 55 -46 136 -69 179 -115 217 -402 404 -807 525 -74 22 -151 44
-170 49 l-35 8 115 56 c261 127 477 289 719 536 111 114 131 137 249 292 106
139 198 304 256 461 47 127 86 341 86 467 0 108 -27 250 -61 319 -33 69 -112
147 -192 191 -204 112 -420 170 -837 222 -85 11 -179 25 -209 30 -30 6 -84 10
-120 10 -36 0 -97 5 -136 11 -38 5 -160 19 -270 29 -353 34 -417 41 -560 61
-375 52 -436 60 -520 74 -49 9 -124 20 -165 25 -41 6 -109 17 -150 24 -153 30
-247 46 -315 56 -38 6 -104 17 -145 25 -41 8 -131 24 -200 35 -69 12 -174 30
-235 40 -413 71 -967 130 -1200 129 -55 0 -149 1 -210 4 -60 2 -144 2 -185 1z
m3545 -979 c123 -24 240 -65 293 -105 55 -41 98 -120 113 -208 15 -87 1 -252
-31 -377 -29 -112 -113 -309 -143 -334 -10 -7 -17 -18 -17 -24 0 -19 -115
-162 -192 -238 -207 -206 -433 -316 -698 -340 -135 -12 -193 -7 -580 56 -85
14 -193 30 -240 35 -113 14 -130 19 -130 39 0 20 49 149 99 261 21 47 60 144
86 215 80 220 142 362 196 452 114 189 287 360 466 459 70 39 239 102 308 114
79 14 386 11 470 -5z m-1556 -2126 c294 -27 544 -144 720 -335 200 -217 274
-412 274 -719 0 -392 -181 -742 -514 -993 -31 -23 -59 -42 -62 -42 -3 0 -30
-14 -59 -31 -29 -18 -109 -53 -178 -78 l-125 -46 -220 0 -220 0 -105 38 c-195
70 -348 158 -448 260 l-52 53 46 124 c25 69 54 148 64 175 9 28 41 113 69 190
29 77 65 176 81 220 16 44 56 154 90 245 33 91 108 294 165 451 57 157 118
321 135 363 17 43 30 83 29 89 -3 26 2 36 19 40 33 9 177 7 291 -4z"/>
<path d="M3233 8343 c9 -2 23 -2 30 0 6 3 -1 5 -18 5 -16 0 -22 -2 -12 -5z"/>
</g>
</svg>
