<?xml version="1.0" standalone="no"?>
<!DOCTYPE svg PUBLIC "-//W3C//DTD SVG 20010904//EN"
 "http://www.w3.org/TR/2001/REC-SVG-20010904/DTD/svg10.dtd">
<svg version="1.0" xmlns="http://www.w3.org/2000/svg"
 width="512.000000pt" height="512.000000pt" viewBox="0 0 512.000000 512.000000"
 preserveAspectRatio="xMidYMid meet">
<metadata>
Created by potrace 1.15, written by Peter Selinger 2001-2017
</metadata>
<g transform="translate(0.000000,512.000000) scale(0.100000,-0.100000)"
fill="#000000" stroke="none">
<path d="M210 5098 c-76 -29 -160 -114 -188 -191 l-22 -58 0 -2289 0 -2289 22
-58 c29 -79 112 -162 191 -191 l58 -22 2289 0 2289 0 58 22 c79 29 162 112
191 191 l22 58 0 2289 0 2289 -22 58 c-29 79 -112 162 -191 191 l-58 22 -2292
-1 -2292 0 -55 -21z m1170 -973 c-251 -299 -384 -628 -416 -1027 l-7 -88 -118
0 c-138 0 -125 -19 -109 154 41 433 199 801 489 1141 l74 87 85 -85 84 -84
-82 -98z m664 -550 c-129 -163 -198 -322 -211 -487 l-6 -78 -415 0 -414 0 6
88 c31 393 180 748 432 1030 l57 64 290 -290 290 -291 -29 -36z m873 520 c192
-36 394 -135 538 -263 l38 -34 -84 -84 -83 -83 -31 24 c-68 56 -152 109 -221
141 -78 36 -217 74 -274 74 -81 1 -80 -1 -80 126 l0 114 59 0 c32 0 95 -7 138
-15z m880 -177 c200 -242 313 -518 339 -825 l7 -83 -277 0 -276 0 0 53 c0 152
-84 352 -217 515 l-27 33 190 190 c104 104 192 189 195 189 3 0 33 -33 66 -72z
m-1097 -217 l0 -128 -54 -7 c-111 -13 -209 -56 -323 -141 -9 -7 -36 13 -103
80 -49 49 -90 93 -90 97 0 16 137 109 215 148 93 46 215 78 298 79 l57 1 0
-129z m210 109 c47 -12 121 -38 165 -60 76 -36 215 -132 215 -148 0 -4 -41
-48 -90 -97 -67 -67 -94 -87 -103 -80 -113 85 -190 120 -307 140 l-65 10 -3
128 -3 127 53 0 c29 0 91 -9 138 -20z m-654 -462 c-54 -63 -95 -154 -114 -252
l-16 -86 -130 0 -129 0 6 76 c13 142 85 313 188 444 l41 52 96 -95 95 -95 -37
-44z m1117 165 c105 -137 176 -322 177 -455 l0 -48 -127 0 -128 0 -16 84 c-19
99 -51 171 -108 246 l-41 55 87 87 c48 49 93 88 100 88 6 0 32 -26 56 -57z
m-1243 -555 c1 -92 63 -252 126 -326 l33 -39 -95 -94 -95 -94 -34 40 c-108
127 -194 344 -195 488 l0 47 130 0 c128 0 130 0 130 -22z m1417 -58 c-11 -146
-92 -337 -192 -455 l-34 -40 -91 90 c-49 49 -90 93 -90 97 0 4 18 31 40 60 50
66 88 160 103 255 l12 73 129 0 129 0 -6 -80z m589 -7 c-21 -260 -117 -527
-262 -729 -63 -88 -129 -164 -142 -164 -4 0 -92 85 -196 189 l-190 190 35 38
c111 123 192 307 205 466 3 40 7 78 10 85 2 9 66 12 275 12 l272 0 -7 -87z
m-1776 -362 c83 -66 226 -120 318 -121 22 0 22 -2 22 -131 l0 -132 -72 6
c-101 8 -178 30 -283 81 -94 45 -215 129 -215 149 0 10 168 187 178 187 1 0
25 -18 52 -39z m848 -54 l93 -94 -45 -37 c-138 -113 -343 -195 -488 -196 l-48
0 0 129 0 129 58 7 c108 13 255 77 307 135 10 11 21 20 24 20 4 0 48 -42 99
-93z m-1060 -168 c126 -111 325 -189 512 -202 l35 -2 3 -117 3 -118 -49 0
c-129 0 -333 57 -470 130 -83 45 -192 122 -231 164 l-25 27 79 79 c44 44 83
80 88 80 5 0 30 -18 55 -41z m1376 -148 l188 -188 -47 -44 c-222 -206 -568
-350 -865 -361 l-75 -3 0 270 0 270 70 6 c88 8 178 31 265 68 76 31 192 105
229 145 14 14 29 26 35 26 6 0 96 -85 200 -189z m304 -304 l83 -84 -53 -48
c-223 -201 -495 -340 -788 -403 -106 -23 -314 -47 -336 -38 -11 4 -14 30 -14
119 l0 114 88 7 c331 27 651 160 867 360 33 30 62 55 65 56 3 0 43 -38 88 -83z
m307 -308 l190 -190 -50 -46 c-227 -205 -473 -359 -741 -463 -217 -84 -545
-150 -742 -150 l-72 0 0 268 0 269 133 11 c232 21 421 73 622 172 142 69 270
153 380 249 44 39 82 70 85 71 3 0 91 -86 195 -191z"/>
</g>
</svg>
