<?xml version="1.0" encoding="UTF-8"?>
<svg width="254px" height="34px" viewBox="0 0 254 34" version="1.1" xmlns="http://www.w3.org/2000/svg" xmlns:xlink="http://www.w3.org/1999/xlink">
    <!-- Generator: Sketch 42 (36781) - http://www.bohemiancoding.com/sketch -->
    <title>Group 34</title>
    <desc>Created with Sketch.</desc>
    <defs></defs>
    <g id="Page-1" stroke="none" stroke-width="1" fill="none" fill-rule="evenodd">
        <g id="Desktop-HD" transform="translate(-1448.000000, -1967.000000)" fill="#FFFFFF">
            <g id="Group-34" transform="translate(1448.000000, 1967.000000)">
                <path d="M13.56,22.255 C14.9833405,22.255 16.2083282,22.0158357 17.235,21.5375 C18.2616718,21.0591643 19.3349944,20.2950053 20.455,19.245 L23.115,21.975 C20.524987,24.8450143 17.3808518,26.28 13.6825,26.28 C9.98414817,26.28 6.91584552,25.0900119 4.4775,22.71 C2.03915448,20.3299881 0.82,17.3200182 0.82,13.68 C0.82,10.0399818 2.06248757,7.0066788 4.5475,4.58 C7.03251243,2.1533212 10.1708144,0.94 13.9625,0.94 C17.7541856,0.94 20.921654,2.339986 23.465,5.14 L20.84,8.01 C19.6733275,6.8899944 18.5708385,6.10833555 17.5325,5.665 C16.4941615,5.22166445 15.275007,5 13.875,5 C11.4016543,5 9.3250084,5.79915867 7.645,7.3975 C5.9649916,8.99584132 5.125,11.0374876 5.125,13.5225 C5.125,16.0075124 5.95915833,18.0841583 7.6275,19.7525 C9.29584168,21.4208417 11.2733219,22.255 13.56,22.255 Z M40.68,26 L37.11,26 L37.11,23.515 C35.5699923,25.3583426 33.505013,26.28 30.915,26.28 C28.9783236,26.28 27.374173,25.7316721 26.1025,24.635 C24.830827,23.5383279 24.195,22.0741758 24.195,20.2425 C24.195,18.4108242 24.8716599,17.0400046 26.225,16.13 C27.5783401,15.2199954 29.4099884,14.765 31.72,14.765 L36.795,14.765 L36.795,14.065 C36.795,11.5916543 35.4183471,10.355 32.665,10.355 C30.9383247,10.355 29.141676,10.9849937 27.275,12.245 L25.525,9.795 C27.7883446,7.99832435 30.3549856,7.1 33.225,7.1 C35.4183443,7.1 37.2091597,7.65416112 38.5975,8.7625 C39.9858403,9.87083887 40.68,11.6149881 40.68,13.995 L40.68,26 Z M36.76,19.07 L36.76,17.495 L32.35,17.495 C29.5266526,17.495 28.115,18.3816578 28.115,20.155 C28.115,21.0650045 28.4649965,21.7591643 29.165,22.2375 C29.8650035,22.7158357 30.8391604,22.955 32.0875,22.955 C33.3358396,22.955 34.426662,22.6050035 35.36,21.905 C36.293338,21.2049965 36.76,20.260006 36.76,19.07 Z M45.575,23.62 C43.8249913,21.8466578 42.95,19.5133478 42.95,16.62 C42.95,13.7266522 43.8483243,11.4166753 45.645,9.69 C47.4416756,7.9633247 49.5824876,7.1 52.0675,7.1 C54.5525124,7.1 56.5533258,8.1499895 58.07,10.25 L58.07,0.03 L61.99,0.03 L61.99,26 L58.07,26 L58.07,23.2 C56.6233261,25.2533436 54.5116805,26.28 51.735,26.28 C49.3783216,26.28 47.3250088,25.3933422 45.575,23.62 Z M48.585,21.135 C49.728339,22.2550056 51.0699923,22.815 52.61,22.815 C54.1500077,22.815 55.4566613,22.2491723 56.53,21.1175 C57.6033387,19.9858277 58.14,18.5333422 58.14,16.76 C58.14,14.9866578 57.6033387,13.5050059 56.53,12.315 C55.4566613,11.124994 54.1383412,10.53 52.575,10.53 C51.0116589,10.53 49.6700056,11.124994 48.55,12.315 C47.4299944,13.5050059 46.87,14.9924911 46.87,16.7775 C46.87,18.5625089 47.4416609,20.0149944 48.585,21.135 Z M67.095,23.62 C65.3449913,21.8466578 64.47,19.5133478 64.47,16.62 C64.47,13.7266522 65.3683243,11.4166753 67.165,9.69 C68.9616756,7.9633247 71.1024876,7.1 73.5875,7.1 C76.0725124,7.1 78.0733258,8.1499895 79.59,10.25 L79.59,0.03 L83.51,0.03 L83.51,26 L79.59,26 L79.59,23.2 C78.1433261,25.2533436 76.0316805,26.28 73.255,26.28 C70.8983215,26.28 68.8450088,25.3933422 67.095,23.62 Z M70.105,21.135 C71.248339,22.2550056 72.5899923,22.815 74.13,22.815 C75.6700077,22.815 76.9766613,22.2491723 78.05,21.1175 C79.1233387,19.9858277 79.66,18.5333422 79.66,16.76 C79.66,14.9866578 79.1233387,13.5050059 78.05,12.315 C76.9766613,11.124994 75.6583412,10.53 74.095,10.53 C72.5316588,10.53 71.1900056,11.124994 70.07,12.315 C68.9499944,13.5050059 68.39,14.9924911 68.39,16.7775 C68.39,18.5625089 68.9616609,20.0149944 70.105,21.135 Z M89.525,33.42 C87.8216582,33.42 86.2816736,32.8016728 84.905,31.565 L86.69,28.38 C87.5066707,29.1500039 88.3524956,29.535 89.2275,29.535 C90.1025044,29.535 90.8141639,29.2200031 91.3625,28.59 C91.9108361,27.9599968 92.185,27.2716704 92.185,26.525 C92.185,26.1983317 89.6766917,19.8167288 84.66,7.38 L88.86,7.38 L94.425,21.1 L99.99,7.38 L104.19,7.38 L95.16,29.5 C94.6233307,30.7133394 93.8533384,31.6699965 92.85,32.37 C91.8466616,33.0700035 90.7383394,33.42 89.525,33.42 Z" id="Caddy-Copy-12"></path>
                <path d="M120.960938,23 L120.574219,21.171875 L120.480469,21.171875 C119.839841,21.9765665 119.201175,22.5214829 118.564453,22.8066406 C117.927731,23.0917983 117.132817,23.234375 116.179688,23.234375 C114.906244,23.234375 113.908207,22.9062533 113.185547,22.25 C112.462887,21.5937467 112.101562,20.6601623 112.101562,19.4492188 C112.101562,16.8554558 114.175761,15.4960944 118.324219,15.3710938 L120.503906,15.3007812 L120.503906,14.5039062 C120.503906,13.4960887 120.287112,12.7519555 119.853516,12.2714844 C119.41992,11.7910132 118.726567,11.5507812 117.773438,11.5507812 C116.70312,11.5507812 115.492194,11.878903 114.140625,12.5351562 L113.542969,11.046875 C114.175784,10.7031233 114.869137,10.4335947 115.623047,10.2382812 C116.376957,10.0429678 117.132809,9.9453125 117.890625,9.9453125 C119.421883,9.9453125 120.556637,10.2851529 121.294922,10.9648438 C122.033207,11.6445346 122.402344,12.7343675 122.402344,14.234375 L122.402344,23 L120.960938,23 Z M116.566406,21.6289062 C117.77735,21.6289062 118.728512,21.2968783 119.419922,20.6328125 C120.111332,19.9687467 120.457031,19.0390685 120.457031,17.84375 L120.457031,16.6835938 L118.511719,16.765625 C116.964836,16.8203128 115.849613,17.0605447 115.166016,17.4863281 C114.482418,17.9121115 114.140625,18.5742143 114.140625,19.4726562 C114.140625,20.1757848 114.353513,20.7109357 114.779297,21.078125 C115.20508,21.4453143 115.800777,21.6289062 116.566406,21.6289062 Z M129.187165,21.6289062 C129.530917,21.6289062 129.862945,21.6035159 130.183259,21.5527344 C130.503573,21.5019529 130.757477,21.449219 130.944978,21.3945312 L130.944978,22.8828125 C130.734039,22.9843755 130.423495,23.068359 130.013337,23.1347656 C129.603179,23.2011722 129.234042,23.234375 128.905915,23.234375 C126.421528,23.234375 125.179353,21.9257943 125.179353,19.3085938 L125.179353,11.6679688 L123.339509,11.6679688 L123.339509,10.7304688 L125.179353,9.921875 L125.999665,7.1796875 L127.124665,7.1796875 L127.124665,10.15625 L130.851228,10.15625 L130.851228,11.6679688 L127.124665,11.6679688 L127.124665,19.2265625 C127.124665,20.0000039 127.308257,20.5937479 127.675446,21.0078125 C128.042636,21.4218771 128.546537,21.6289062 129.187165,21.6289062 Z M134.963839,10.15625 L137.049777,10.15625 L139.862277,17.4804688 C140.479467,19.1523521 140.862276,20.3593713 141.010714,21.1015625 L141.104464,21.1015625 C141.206027,20.703123 141.418916,20.0214892 141.743136,19.0566406 C142.067356,18.0917921 143.127893,15.1250248 144.924777,10.15625 L147.010714,10.15625 L141.491183,24.78125 C140.944305,26.2265697 140.30564,27.2519501 139.575167,27.8574219 C138.844695,28.4628937 137.948219,28.765625 136.885714,28.765625 C136.291961,28.765625 135.70603,28.6992194 135.127902,28.5664062 L135.127902,27.0078125 C135.557591,27.101563 136.038055,27.1484375 136.569308,27.1484375 C137.905252,27.1484375 138.858368,26.398445 139.428683,24.8984375 L140.143527,23.0703125 L134.963839,10.15625 Z M158.811161,16.5664062 C158.811161,18.6601667 158.283822,20.294916 157.229129,21.4707031 C156.174437,22.6464903 154.71742,23.234375 152.858036,23.234375 C151.709592,23.234375 150.690071,22.9648464 149.799442,22.4257812 C148.908812,21.8867161 148.221319,21.1132863 147.736942,20.1054688 C147.252564,19.0976512 147.010379,17.9179755 147.010379,16.5664062 C147.010379,14.4726458 147.533812,12.8418027 148.580692,11.6738281 C149.627572,10.5058535 151.080683,9.921875 152.940067,9.921875 C154.736951,9.921875 156.164671,10.5195253 157.22327,11.7148438 C158.281869,12.9101622 158.811161,14.5273336 158.811161,16.5664062 Z M149.026004,16.5664062 C149.026004,18.2070395 149.354126,19.457027 150.010379,20.3164062 C150.666633,21.1757855 151.631467,21.6054688 152.904911,21.6054688 C154.178354,21.6054688 155.145142,21.1777387 155.805301,20.3222656 C156.465461,19.4667926 156.795536,18.214852 156.795536,16.5664062 C156.795536,14.9335856 156.465461,13.6933636 155.805301,12.8457031 C155.145142,11.9980426 154.170542,11.5742188 152.881473,11.5742188 C151.608029,11.5742188 150.647101,11.9921833 149.998661,12.828125 C149.35022,13.6640667 149.026004,14.910148 149.026004,16.5664062 Z M162.678013,10.15625 L162.678013,18.4882812 C162.678013,19.5351615 162.916292,20.3164037 163.392857,20.8320312 C163.869422,21.3476588 164.615508,21.6054688 165.631138,21.6054688 C166.974895,21.6054688 167.957307,21.2382849 168.578404,20.5039062 C169.199501,19.7695276 169.510044,18.5703208 169.510044,16.90625 L169.510044,10.15625 L171.455357,10.15625 L171.455357,23 L169.849888,23 L169.568638,21.2773438 L169.463169,21.2773438 C169.06473,21.9101594 168.512001,22.3945296 167.804966,22.7304688 C167.097932,23.0664079 166.291299,23.234375 165.385044,23.234375 C163.822537,23.234375 162.652626,22.863285 161.875279,22.1210938 C161.097931,21.3789025 160.709263,20.1914144 160.709263,18.5585938 L160.709263,10.15625 L162.678013,10.15625 Z M180.068303,9.921875 C180.638619,9.921875 181.150332,9.96874953 181.60346,10.0625 L181.333928,11.8671875 C180.802676,11.7499994 180.33393,11.6914062 179.927678,11.6914062 C178.888611,11.6914062 177.999948,12.113277 177.261663,12.9570312 C176.523378,13.8007855 176.154241,14.8515562 176.154241,16.109375 L176.154241,23 L174.208928,23 L174.208928,10.15625 L175.814397,10.15625 L176.037053,12.5351562 L176.130803,12.5351562 C176.607368,11.6992146 177.181581,11.0546898 177.85346,10.6015625 C178.525338,10.1484352 179.263612,9.921875 180.068303,9.921875 Z M195.782477,19.4960938 C195.782477,20.6914122 195.337169,21.613278 194.44654,22.2617188 C193.55591,22.9101595 192.305923,23.234375 190.69654,23.234375 C188.993406,23.234375 187.665295,22.9648464 186.712165,22.4257812 L186.712165,20.6210938 C187.329355,20.9335953 187.991458,21.1796866 188.698493,21.359375 C189.405528,21.5390634 190.087162,21.6289062 190.743415,21.6289062 C191.759045,21.6289062 192.540287,21.4667985 193.087165,21.1425781 C193.634043,20.8183578 193.907477,20.3242221 193.907477,19.6601562 C193.907477,19.1601538 193.690683,18.7324237 193.257087,18.3769531 C192.823491,18.0214826 191.977796,17.6015649 190.719977,17.1171875 C189.524659,16.6718728 188.675058,16.2832048 188.171149,15.9511719 C187.66724,15.619139 187.292244,15.2421896 187.046149,14.8203125 C186.800054,14.3984354 186.677009,13.8945342 186.677009,13.3085938 C186.677009,12.2617135 187.102786,11.4355499 187.954352,10.8300781 C188.805919,10.2246063 189.973876,9.921875 191.458259,9.921875 C192.841078,9.921875 194.192627,10.2031222 195.512946,10.765625 L194.82154,12.3476562 C193.532471,11.8164036 192.364514,11.5507812 191.317634,11.5507812 C190.395754,11.5507812 189.700448,11.6953111 189.231696,11.984375 C188.762944,12.2734389 188.528571,12.6718725 188.528571,13.1796875 C188.528571,13.5234392 188.616461,13.816405 188.792243,14.0585938 C188.968025,14.3007825 189.251225,14.5312489 189.641852,14.75 C190.032479,14.9687511 190.782472,15.2851542 191.891852,15.6992188 C193.415297,16.253909 194.444584,16.8124972 194.979743,17.375 C195.514902,17.9375028 195.782477,18.644527 195.782477,19.4960938 Z M203.000893,23.234375 C201.102446,23.234375 199.604414,22.6562558 198.506752,21.5 C197.40909,20.3437442 196.860268,18.7382915 196.860268,16.6835938 C196.860268,14.6132709 197.370028,12.9687561 198.389564,11.75 C199.409101,10.5312439 200.778228,9.921875 202.496986,9.921875 C204.106369,9.921875 205.379794,10.4511666 206.317299,11.5097656 C207.254803,12.5683647 207.723549,13.9648351 207.723549,15.6992188 L207.723549,16.9296875 L198.875893,16.9296875 C198.914955,18.4375075 199.295811,19.5820273 200.018471,20.3632812 C200.741131,21.1445352 201.758698,21.5351562 203.071205,21.5351562 C204.454024,21.5351562 205.821198,21.2460966 207.172768,20.6679688 L207.172768,22.4023438 C206.485264,22.6992202 205.83488,22.9121087 205.221596,23.0410156 C204.608311,23.1699225 203.868084,23.234375 203.000893,23.234375 Z M202.473549,11.5507812 C201.442294,11.5507812 200.620036,11.8867154 200.006752,12.5585938 C199.393468,13.2304721 199.032143,14.1601503 198.922768,15.3476562 L205.637611,15.3476562 C205.637611,14.1210876 205.364177,13.1816439 204.817299,12.5292969 C204.270421,11.8769499 203.489179,11.5507812 202.473549,11.5507812 Z M215.527901,9.921875 C216.098217,9.921875 216.60993,9.96874953 217.063058,10.0625 L216.793526,11.8671875 C216.262274,11.7499994 215.793528,11.6914062 215.387276,11.6914062 C214.348209,11.6914062 213.459546,12.113277 212.721261,12.9570312 C211.982976,13.8007855 211.613839,14.8515562 211.613839,16.109375 L211.613839,23 L209.668526,23 L209.668526,10.15625 L211.273995,10.15625 L211.496651,12.5351562 L211.590401,12.5351562 C212.066966,11.6992146 212.641179,11.0546898 213.313058,10.6015625 C213.984936,10.1484352 214.72321,9.921875 215.527901,9.921875 Z M220.906473,23 L216.031473,10.15625 L218.11741,10.15625 L220.883035,17.7734375 C221.508038,19.5546964 221.875222,20.7109348 221.984598,21.2421875 L222.078348,21.2421875 C222.164286,20.8281229 222.435767,19.9707096 222.892801,18.6699219 C223.349834,17.3691341 224.375215,14.5312719 225.968973,10.15625 L228.05491,10.15625 L223.17991,23 L220.906473,23 Z M230.691294,23 L228.745982,23 L228.745982,10.15625 L230.691294,10.15625 L230.691294,23 Z M228.581919,6.67578125 C228.581919,6.23046652 228.691293,5.90429791 228.910044,5.69726562 C229.128795,5.49023334 229.40223,5.38671875 229.730357,5.38671875 C230.042858,5.38671875 230.312387,5.49218645 230.53895,5.703125 C230.765514,5.91406355 230.878794,6.23827906 230.878794,6.67578125 C230.878794,7.11328344 230.765514,7.43945205 230.53895,7.65429688 C230.312387,7.8691417 230.042858,7.9765625 229.730357,7.9765625 C229.40223,7.9765625 229.128795,7.8691417 228.910044,7.65429688 C228.691293,7.43945205 228.581919,7.11328344 228.581919,6.67578125 Z M238.577678,23.234375 C236.718294,23.234375 235.278855,22.6621151 234.259319,21.5175781 C233.239782,20.3730412 232.730022,18.7539167 232.730022,16.6601562 C232.730022,14.511708 233.247595,12.8515684 234.282756,11.6796875 C235.317918,10.5078066 236.792512,9.921875 238.706584,9.921875 C239.323775,9.921875 239.940956,9.98828059 240.558147,10.1210938 C241.175337,10.2539069 241.659708,10.4101554 242.011272,10.5898438 L241.413616,12.2421875 C240.983926,12.0703116 240.515181,11.9277349 240.007366,11.8144531 C239.499551,11.7011713 239.050336,11.6445312 238.659709,11.6445312 C236.050321,11.6445312 234.745647,13.3085771 234.745647,16.6367188 C234.745647,18.2148516 235.064003,19.425777 235.700725,20.2695312 C236.337447,21.1132855 237.280797,21.5351562 238.530803,21.5351562 C239.601121,21.5351562 240.698766,21.3046898 241.823772,20.84375 L241.823772,22.5664062 C240.964393,23.011721 239.882372,23.234375 238.577678,23.234375 Z M248.924999,23.234375 C247.026552,23.234375 245.528521,22.6562558 244.430859,21.5 C243.333197,20.3437442 242.784374,18.7382915 242.784374,16.6835938 C242.784374,14.6132709 243.294135,12.9687561 244.313671,11.75 C245.333208,10.5312439 246.702335,9.921875 248.421093,9.921875 C250.030476,9.921875 251.303901,10.4511666 252.241406,11.5097656 C253.17891,12.5683647 253.647656,13.9648351 253.647656,15.6992188 L253.647656,16.9296875 L244.799999,16.9296875 C244.839062,18.4375075 245.219918,19.5820273 245.942578,20.3632812 C246.665237,21.1445352 247.682805,21.5351562 248.995312,21.5351562 C250.378131,21.5351562 251.745305,21.2460966 253.096874,20.6679688 L253.096874,22.4023438 C252.409371,22.6992202 251.758987,22.9121087 251.145703,23.0410156 C250.532418,23.1699225 249.792191,23.234375 248.924999,23.234375 Z M248.397656,11.5507812 C247.366401,11.5507812 246.544143,11.8867154 245.930859,12.5585938 C245.317575,13.2304721 244.95625,14.1601503 244.846874,15.3476562 L251.561718,15.3476562 C251.561718,14.1210876 251.288283,13.1816439 250.741406,12.5292969 C250.194528,11.8769499 249.413286,11.5507812 248.397656,11.5507812 Z" id="at-your-service-copy"></path>
            </g>
        </g>
    </g>
</svg>