<?xml version="1.0" encoding="UTF-8" standalone="no"?>
<!-- Created with Sodipodi ("http://www.sodipodi.com/") -->

<svg
   xmlns:a="http://ns.adobe.com/AdobeSVGViewerExtensions/3.0/"
   xmlns:xapMM="http://ns.adobe.com/xap/1.0/mm/"
   xmlns:xapGImg="http://ns.adobe.com/xap/1.0/g/img/"
   xmlns:xap="http://ns.adobe.com/xap/1.0/"
   xmlns:pdf="http://ns.adobe.com/pdf/1.3/"
   xmlns:x="adobe:ns:meta/"
   xmlns:dc="http://purl.org/dc/elements/1.1/"
   xmlns:cc="http://creativecommons.org/ns#"
   xmlns:rdf="http://www.w3.org/1999/02/22-rdf-syntax-ns#"
   xmlns:svg="http://www.w3.org/2000/svg"
   xmlns="http://www.w3.org/2000/svg"
   xmlns:sodipodi="http://sodipodi.sourceforge.net/DTD/sodipodi-0.dtd"
   xmlns:inkscape="http://www.inkscape.org/namespaces/inkscape"
   width="128"
   height="128"
   viewBox="0 0 102.4 102.4"
   style="overflow:visible"
   xml:space="preserve"
   id="svg1231"
   sodipodi:version="0.32"
   sodipodi:docname="canon-pixma-mp240-complete-scangear-icon.svg"
   version="1.1"
   inkscape:version="0.48.5 r10040"><defs
     id="defs1336" /><sodipodi:namedview
     id="base"
     showgrid="false"
     inkscape:zoom="3.9333333"
     inkscape:cx="-27.076271"
     inkscape:cy="29.491525"
     inkscape:window-width="1920"
     inkscape:window-height="1014"
     inkscape:window-x="0"
     inkscape:window-y="27"
     inkscape:window-maximized="1"
     inkscape:current-layer="svg1231" /><metadata
     id="metadata1232"><xpacket
       id="xpacket6">begin='﻿' id='W5M0MpCehiHzreSzNTczkc9d'    </xpacket><x:xmpmeta
       x:xmptk="XMP toolkit 3.0-29, framework 1.6"><metadata
         id="metadata69"><rdf:RDF><rdf:Description
             rdf:about="uuid:d5cefbf0-17ab-41b0-8415-14258dda764a"><pdf:Producer>
Adobe PDF library 5.00</pdf:Producer></rdf:Description><rdf:Description
             rdf:about="uuid:d5cefbf0-17ab-41b0-8415-14258dda764a" /><rdf:Description
             rdf:about="uuid:d5cefbf0-17ab-41b0-8415-14258dda764a" /><rdf:Description
             rdf:about="uuid:d5cefbf0-17ab-41b0-8415-14258dda764a"><xap:CreateDate>
2003-03-30T14:51:50+02:00</xap:CreateDate><xap:ModifyDate>
2004-03-29T09:18:54Z</xap:ModifyDate><xap:CreatorTool>
Adobe Illustrator 10.0</xap:CreatorTool><xap:MetadataDate>
2004-02-13T18:54:42+01:00</xap:MetadataDate><xap:Thumbnails><rdf:Alt><rdf:li
                   rdf:parseType="Resource"><xapGImg:format>
JPEG</xapGImg:format><xapGImg:width>
256</xapGImg:width><xapGImg:height>
256</xapGImg:height><xapGImg:image>
/9j/4AAQSkZJRgABAgEASABIAAD/7QAsUGhvdG9zaG9wIDMuMAA4QklNA+0AAAAAABAASAAAAAEA
AQBIAAAAAQAB/+4ADkFkb2JlAGTAAAAAAf/bAIQABgQEBAUEBgUFBgkGBQYJCwgGBggLDAoKCwoK
DBAMDAwMDAwQDA4PEA8ODBMTFBQTExwbGxscHx8fHx8fHx8fHwEHBwcNDA0YEBAYGhURFRofHx8f
Hx8fHx8fHx8fHx8fHx8fHx8fHx8fHx8fHx8fHx8fHx8fHx8fHx8fHx8fHx8f/8AAEQgBAAEAAwER
AAIRAQMRAf/EAaIAAAAHAQEBAQEAAAAAAAAAAAQFAwIGAQAHCAkKCwEAAgIDAQEBAQEAAAAAAAAA
AQACAwQFBgcICQoLEAACAQMDAgQCBgcDBAIGAnMBAgMRBAAFIRIxQVEGE2EicYEUMpGhBxWxQiPB
UtHhMxZi8CRygvElQzRTkqKyY3PCNUQnk6OzNhdUZHTD0uIIJoMJChgZhJRFRqS0VtNVKBry4/PE
1OT0ZXWFlaW1xdXl9WZ2hpamtsbW5vY3R1dnd4eXp7fH1+f3OEhYaHiImKi4yNjo+Ck5SVlpeYmZ
qbnJ2en5KjpKWmp6ipqqusra6voRAAICAQIDBQUEBQYECAMDbQEAAhEDBCESMUEFURNhIgZxgZEy
obHwFMHR4SNCFVJicvEzJDRDghaSUyWiY7LCB3PSNeJEgxdUkwgJChgZJjZFGidkdFU38qOzwygp
0+PzhJSktMTU5PRldYWVpbXF1eX1RlZmdoaWprbG1ub2R1dnd4eXp7fH1+f3OEhYaHiImKi4yNjo
+DlJWWl5iZmpucnZ6fkqOkpaanqKmqq6ytrq+v/aAAwDAQACEQMRAD8A9U4q7FXYq7FXYq7FXYq7
FXYq7FXYq7FXYq7FXYq7FXYq7FXYq7FXYq7FXYq7FXYq7FXYq7FXYq7FXYq7FXYq7FXYq7FXYq7F
XYq7FXYqgF8waC0jRLqVq0imjIJ4ywPgRyw8JVGxyxSryjdXXxUgj8MCrsVdirsVdirsVdirsVdi
rsVdirsVdirsVdirsVdirsVdirsVdirsVdirsVdirsVdirsVdirsVea/mx5ovoJovL9k3pC4jWS5
m5cSwdiqx8jQBfhqx/ty3HHqgoK1/JoyW0TT6usNyygyxLDzVWP7Ib1ErT5YfFWlCT8nNcR62mo2
zU6MxkjP/Cq+PirTn8j/AJm2J/0S+eWneC7dQe/+7DHjxxVzf8rh09QzG5cdqGG5O3sPUPfB6VaX
zv8AmbaLyubORlGxea0ZRX5qEGPDFV8P5ya6hpcWNs5HUL6iH8WfHgC2mEH50xmgn0kjxZJgfwKD
9eDw1tMIPzh8utQTWt1Ee5CxsP8AiYP4YOAptMYPzQ8nS/au3h/14pP+NQ2DhKphB528pz04apbi
v87en/xPjg4SqYQavpNxT0L2CWvThKje/Y4KVFggio6Yq7FXYq7FXYq7FXYq7FXYq7FXYq7FXYq7
FXYq7FXYq7FXYq7FWH/mL5MGvWAurRf9ylop9L/i1OpjPv3X3+eWQnSCkH5debnuUGh6ieN5ACtq
7bF0TrGwP7SAfd8tzkhW4UM7ypLYZh0JGKt+o/8AMTirRJPXFVKSCN1KtuCKEHcEHG1S2bytosrc
msrct1q0MZP6sNqllz+X2hSsW+qxgn+VpIx9yEYeJUuu/wAs7Fz+6Voh4RyV/wCTgbDxKltz+Wkq
rSBpg3ctwk/BeGHiQls3kLU4VJ5Ozdqwso++rY8SoNdE120Y8ZhDStAkkimv/ArhtU08s/mRf6Bq
i2uuzSTaXM4ilklYu1u5+y1Ty+A9/vyJCXtKOkiK6MGRwGVhuCDuCMgreKuxV2KuxV2KuxV2KuxV
2KuxV2KuxV2KuxV2KuxV2KuxV5l+Z3k2SKQ+ZdJBjljYSXqR1DBlNROtOhH7X3+OXY5dCgpr5N82
xa5YBZSF1G3AFzH05dhIvs3fwP0VhONJZD6mQV3qYq71MVd6mKu9TFXepirvUxV3qYq71MVU50in
heGVeUcg4sPY4q8o86+WyjyROvqALQbf3kRPan7S5YEJ1+TnnSRT/hHVJeU8Cl9JuGP97D19Ovin
b2+WQIS9YwK7FXYq7FXYq7FXYq7FXYq7FXYq7FXYq7FXYq7FXYq7FWmVWUqwDKwoQdwQcVeOeb/L
975O1yLWdIqNPmc8FNSqMd2hfxVh9n+orl8TxCihmmj63a6rp8d5bn4X2dK1KOPtI3uP7cqIpKN9
XFXerirvVxV3q4q71cVd6uKu9XFXerirvVxVL9b09NQtCgoJ0+KFj4+HyOIV5Br+l3Ntcpc2Za3v
LeT1LaQbGOZTXj7A0/z2yRCHtf5e+dIPNWhJckCPUbc+lqFv0KSjvT+VuoytLJ8VdirsVdirsVdi
rsVdirsVdirsVdirsVdirsVdirsVdiqG1LTrPUrGaxvIxLbTrxkQ/gR4EHcHCDSvGXj1HyL5ke3n
DTafPuGGwkir8Lr25p3H9a5d9QQz+G7inhSaJg8UihkYdCCKg5XSV/q4q71cVd6uKu9XFXerirvV
xV3q4q71cVd6uKsY83aPHcRNdotQRS4UeA6OPcYQhgWj63e+UPMSaxAC8BpFqluvSWAnaQDxH6/p
wEJfROn39pqFlBfWcgltrhBJFIvQqwrkFRGKuxV2KuxV2KuxV2KuxV2KuxV2KuxV2KuxV2KuxV2K
uxVJvNnli08w6U9pNRJ1q9rPTeOT/mk9CMlGVK8q8vareaFqMuhatWJEcqvLpG536/yP1r079zlp
F7oZr6mQV3qYq71MVd6mKu9TFXepirvUxV3qYq71MVczhlKsKqRQg9CDirAfNOiehLVF5RNUxV3B
B+1Ga4VRP5TecDoeqDy1fyH9FXzFtLlev7qYn4oTXoGP4/PKyEvbsCuxV2KuxV2KuxV2KuxV2Kux
V2KuxV2KuxV2KuxV2KuxV2KsO/MTyWuuWP12zQfpS1U8AOssY39M+/8AL92ThKlYT5U8wPMn6Ouz
S5iFImOxZV/ZP+Uv6smQhkfq4Fd6uKu9XFXerirvVxV3q4q71cVd6uKu9XFUPf28V5bNBJ33Vv5W
HQ4q8113SiHkglqjcgeY6pIPsuvz9v64CFet/lV54fXtMbTdRamuaaAlwD1ljGyyjxr3/tyBSzvA
rsVdirsVdirsVdirsVdirsVdirsVdirsVdirsVdirsVdirzD8zPJrwyN5i0tSpVg97GnVWBqJlp/
w33+OWwl0Ql2ia2moW1W+G5joJk/42HsclSpj6uBXerirvVxV3q4q71cVd6uKu9XFXerirvVxVKP
MOnLd25lReUqAhlpXkncYqwmC+1DRtWt9Y040vrH4uFTSaDo6N47ZAhL6J8t+YdP8waNbarYtyhn
WpXujj7SN7qcgqZ4q7FXYq7FXYq7FXYq7FXYq7FXYq7FXYq7FXYq7FXYq7FWnRXUo4DIwIZSKgg9
QRirxjzp5YufK2rrqOng/o24Y+mNyEJ3aFvY/s/1GXRlaERZ38V1brNEaq3Ud1PcHJKrer74q71f
fFXer74q71ffFXer74q71ffFXer74q71ffFXer74qxXzFppik+swbI5qNqhX/ociQq78vvN/+Fdc
CzsV0DVHCXSHpb3HQP8AI9/b6MrIS+gVZWUMpBUioI6EHIq3irsVdirsVdirsVdirsVdirsVdirs
VdirsVdirsVdirsVQup6bZ6nYTWN4nqW868XHceBB7EHcYQVeI6np1/5T1uSzuAZLaTeOQCgkjr8
Lr/lDuP9vLgbQmSzqyhlNVYVBHcHCrfq4Vd6uKu9XFXerirvVxV3q4q71cVd6uKrJhHNE0Ugqjih
GBWFapZC3llguAWgkFH917OPdf8APtkJBXpn5P8AnSSRD5U1WXle2i8tOnY/31uP2a/zJ+r5ZUl6
jirsVdirsVdirsVdirsVdirsVdirsVdirsVdirsVdirsVdiqS+bPLFr5h0trWWiXCVe1npuj/wDN
J6EYYmleLwNdaVey6ZfqYpInKFW/Zb/mluoPTvl4KEy9TJId6mKu9TFXepirvUxV3qYq71MVd6mK
u9TFUFqlot5b0H96m8Z/h9OAhWKo11DPC9q5g1Gyf1bCUbEMu5jP3f50ymQS+hPIfnC1806FHeoB
HeRfur627xyjrt4HqMglkeKuxV2KuxV2KuxV2KuxV2KuxV2KuxV2KuxV2KuxV2KuxVIvMfnPQ9BQ
i7m9S6pVLSKjSHwqOij3OSESVeT6xf6t501cXEFikXBfTBToF3I9SQ0BOTGyE7h8mXSWqK14rTqK
N8J4/wDBVr+GSE1Qs/lrWIvsosw8UYfqbjkuIKl89tewf30EkY8WUgffhsIQ/q++FXer74q71ffF
Xer74q71ffFXer74q71ffFUl1yzr/pUWxBBenYjo2RkErvKnmu48t60mtQgtaSFYdatF6FCdpVFe
o6j7vHMcikvo6zvLa9tIbu1kEtvOgkikU1DKwqCMCq2KuxV2KuxV2KuxV2KuxV2KuxV2KuxV2Kux
V2KoHV9b0vSLY3Oo3CwR/sht2Y+CqN2PywgWrzPXfzO1nVpjYeXoXt43qBKByuHHtSoT6N/fLBAD
mhQ0fyA7yfWtakLyMeTW6tUk1qeb96+334mSp5rOu+W/K2miS9mjsrdQfRgUfG5HZEHxMf8AM5k6
TRZdRLhxxv7h7y15c0cYuReTeY/zK81+ZOdvoitomkNUG7b/AHqlU+BH2P8AYn/ZZ1+k7G0+m9WX
97k7v4R+v4/J02o7QlLaOw+1JrO88x6Yqiw16/iK/svL60dfH05Q6fhmRljhyH144H4UfmN3HhqM
keUinFp+aHn+yosz2WqIOpmiaCQ/7KE8P+EzBydj6SfISh7jY+3f7XLh2hkHOimEX5waTLtrflmW
In7Uto0Vz9O/ouMwcns+f8nkif6wMf1uVDtCJ5hH23nH8qtQYKmqnTpj/uq6DwU+bTLx/wCGzCyd
j6qH8PEPKj9zkR1OM9U4i8uW97F62l6lBeRfzowZf+CjLjNfMSgakCD5t4IPJC3Hl3WYan0PUUd4
yG/D7X4ZHiCpfNHcQHjNE8R8HUr+vJKper74q71ffFXM6sCp3B2IOKscvI2sLqoBe3kBDJ1DIeqm
u1R2yqcUvQvyi85foq+XyzfS8tOvD6mjXDHZWbcwknx7e/zyhL2jFXYq7FXYq7FXYq7FXYq7FXYq
7FXYq7FVO4ube2hee4lWGGMVeRyFUDxJOKvO/Mv5twoWtfL8fryn4frkgPAH/itOrfM/ccsGPvRb
HrHyj5g125/SGu3EiB9yZDWZhXoFOyD/ADphMgOSswtbDRdBsndBHaW6Cs1xIQK07u7YwhKcqiLJ
QSALLA/MX5rT3DvZeVIPXcfC+pzAiJP9RD1+bfcc6bR+z4iOPUGv6I5/H8fF1eo7SA2h82DtpD3F
22oatcPqOoPuZpiWC+yqew7fhTN94wjHgxjgh5OmnllM2SqyrlKAg5Vwswg5VwsghJVwswgp41YE
MAw8CKjJA0zCXGxt4pfWgU28w6SwM0TD6UK5M5CRR3Hnu2RkQmll548+aZ/vH5gumUfsXfC7Wnh+
+DN9xzEyaHTz+qEfh6fuciGpmOqf2X58ecrYBdQ06x1KMbMYzJbSMPcn1k/4XMHJ2Fhl9MpR+39T
kR1h6hNrf87PIl1RNX0K6sHO7SQok0Y+bxMj/wDCZg5Owso+mUZfY3x1MSnFn5m/KnVT/oPmKG2k
bZY7l/QofDjcLGx+/MLJ2fqIc4H4b/c3DJE9U3/wpPNGJbG9huYW6SA0B+RXmPxzEJI2IZJVqXlf
WHgMclo71PwNHSQ1+SEn8MBIKpBqmh6ppGjO+oRtbyhhLaxGqyxOHAqQfs1JrT6e+Y8+bJ9D+StX
utT0GCW73uo/3crjoxXbl9OQVPsVdirsVdirsVdirsVdirsVdirsVYZ5n/M/RdJ529kRqF8uxWM/
ukP+VIK1+S/hk44yUWwUwecfOk6z3shisQaoWBSFev8Adx/tH3+85OxHkrL9C8o6To6q8SetdDrc
yCrf7EdFysyJSlvmL8wtM052s9PQ6lqW4EMRqiH/AC3FengPppm30XY2TL6p+iHnz+AcLUa6ENhu
WAapHrWuzi41+5LoprFYRErCn0Dv79ffOn08MWnFYhv/ADjzLodRrJ5Du16EUUYjiQIi9FUUAwkk
my4loaVcWQQcq5JmEJKuFmEHKuFmEHKMLIISVcLMIOVcLMIOVcLIISVcLMIOVcLMJ35O/LjWfOF2
Ut0EOnRMFur+Vaxp3KqNub0/ZHtUiuYes18NON95dA5GLGZPpHyZ5H0by1p6aVoVrwDHlNJQGWV6
fbkYAV/UO1M4/VaqeaXFM/sdhGIAoJ/PdxWCGO2Ikuz9u4G6p7R+J/yvuzGAtk8z/M0ltLLMak7k
nqT6iZHIoeufl1/yji/8ZpP4ZWlk+KuxV2KuxV2KuxV2KuxV2KpD5k866FoCEXc3qXVKpaRUaQ+F
R0Ue7ZKMCVea3/mXzn50ne00+JrfTzs8MRKpQ/7+lNOXy/DLajFCf6B+XOmafxnvyL26G4Uj90p9
lP2vp+7K5TJWk11vzFpOjRD6zJ+9p+7to/ikbwovYe5zI0uhyZz6Rt39GrLqI4+bCtTv/MmvgrKx
0vS2/wCPdD++df8ALO3+fY50Om0uDT7j1z7+g9zp9RrZT2GwQsOmWdlHwtowg/abqx+ZzLOWUzZL
rZboadctiWkoGVcsQEHKuFmEJKuFkEHKuFmEJKuFmEHKuFkEHKuFmEJKuSZhByrhZhByrhZBnX5f
/lJe680Wp6uGtdF2dI91luB24/yof5u4+z4jT9odqxxXGG8/sH7XNwacy3PJ73pOjW1taxWOnwJb
WdutFRRxjjXqSf1nuTnK5MhkeKRsl2AFbBFXV1FFG1vZ1CNtLOdnf29l9sgAlKZMmrBfzL/45P0f
8zEyvIoeu/l1/wAo2v8Axmk/hlaWT4q7FXYq7FXYq7FXYqgdY1zStHtTc6jcpbx/sht2Y+CqPiY/
LCATyV5jrf5m67rdwdO8tW8kCPUCRRyuHHiKVEY/H3GXDGBuUWr+X/yrdnF55hlMkrHm1qjVqa1/
eSd69+P35GWXuWmbSHStHsQD6dnaRCiqAFHyAHU/jgx4pZDURZROYiLLF7zzBrOrVi0aI2tp0a/m
HxHx4Lv/AJ+GbfFoceLfKeKX80fpdbm1pO0NvNBW2gWlm5nctc3jbvcy/ExJ7itaZmy1BkKG0e4O
vl5unXDEtMgl069cyIlqkls65kxLTJASrlwYBByrhZhByrhZBCSrhZhByrhZhByrhZhCSrhZBByr
hZhCmKSSRY41LyOQqIoJZmJoAANyScJIAss4i3q/kH8oY4DHqnmSNZJtmt9NPxIncNN2Zv8AI6Dv
XoOc1/a9+jFy7/1frdpg0tbyet21n6iGR29O3TYv4nwUdznPkua3dXPKMQxD07deidyf5mPc4AqX
S5IKgby4gtoWmnfhEvU9yewUdycJNK8612/ufNF6NL0+HlGrATSDcIoapq3djTt/XKpStL3XyTYz
WegxxSihZ2cfJqfxyKp9irsVdirsVdiqnc3NvbQPPcyrDBGKvLIQqqPEk7Y0rzjzN+b0SM1n5di+
sTH4frkinjXp+7j6t8z9xy6OLvRaV6R+XXmXzFcjU/MlxJBHJQ0kNZ2WvQKdox/nTCcgGwWno+la
Bo2h2pisYEgQD95KftNQdXc7nKbJK8kuvPMUk0rWuiwG8nGzTHaFPcnauZ+PRADiynhHd1cPJq+k
Nygl8tGWb63rExvrrsh/uk9lXv8Aq9syfzQiOHGOGP2uHIGRuRsomaMAUAoBsAPDIRLWQl869cyI
lqkls65kRLTJLp165kxLTJLp1zIiWqSXTLl4akHKuSZBByrkmYQcq4WQQkq4WYQcq4WYQcq4WYas
NJ1DVL1LKwga4uZPsovYDqzE7Ko8TkMuaOOPFI0G3HAyNB7P5I/LnT/LqLd3HG71gj4rinwRVFCs
IP3cup9htnJ67tKWc0Nod3f73c4NMMfvZ3b2ahRNcgiPqkfRn/oPfNWS5K25maQitAq7Ig2AHtiE
oOTChKNa1iy0yD1LhviIJSIEAkDuSfsr7nCTSvPfU1zzjflLYmKwU8XuACBx/kiH8e+Vkpeu+TfI
Nho9pGGiC0FRGRuT4v8A0+/ArMsVdirsVdirsVYV5p/NLQ9I529kRqN+uxWM/ukP+XIK1p4L+GWx
xEothdvpPnrz7cLc3shg00NVHcFIFG/91H1c+/3nJmUY8lej+WfImg6AqvBF697T4ryUAv78R0Qf
L78plMlKY6hrdrbN6UYNxcnZYY9zX3PbLsWmlLc7R73Hy6iMduZSt9N1DU2D6pL6cHVbOI0H+yOZ
Iywx7QG/eXDnKU/q5dyaW9tb28QigjWOMdFUUzGlMyNlQKU5165OJYyS2dcyIlqkEunXrmREtMgl
065kxLVIJbOvXMiJaZJdOuZES1SS6deuZMS0lAyrk1CElXCzCDlXCzCDlXCyCElXCzCN8veU9U8w
3fo2i8LdGAuLtx+7jHX/AGTU6KPpoN8xtXrIYI3Ln0Hf+O9ytPp5ZDtyezeXPK2leX7P6tYx1d6G
e4ahlkYdOR8B2A2H35yOq1c80rl8ugd7iwxxigyWGzSALJOOUvVYT0Hhz/pmIS2rZnd2LOasepOA
KhJMkrGPNXm2x0aB15q90BuDuqf61O/gv+ZbVhWk6BrfnG/FzfCRLGRqrEdpJvDlTotOgHQZFXtv
lvyrY6RbxhY1EiAcVA+FPl7++BU9xV2KuxV2KpT5m8zad5e00316WYFgkMKbu7kVoK0HQVJOSjEy
KvLLvzD54893D2Wmwtb6edpIoyVjAP8Av6Y05fL8Mv4Yw582LMPK35U6NpfC41Kmo3ooQGH7lD7I
ftfNvuyqeUlNM5AAAAFANgBlaUJqNrdXMXCCf0RTdadf9kNxl2KcYncW05scpDY0gIIRYKQ1oyD9
qaP97X50+P8A4XL5S4/4v0OH4UodERBd209fRlVyOoB3HzHUZXKEo8wxBBVcglTmWoyUSgpfOvXM
iJapJbOvXMmJaZJdOvXMiJaZJdOvXMiJapJbOvXMmJaZJdOuZES1SCAlXLmAQcq4WYQkq4WYQcq4
WQT/AMp+Q7vW3S7u+VtpXUP0eb2jr0Xxf7vEazX9pxw+mO8/u9/6vm7LSaIz9Uto/e9Z03S7a0t4
rDT4BFDGOMcSDbxJPiT1JPXqc5XJllORlI2S7yMREUOSbQwpbLXZ5z1fqF9l9/fKiWSxjU1PXAqi
+EKwDzl+YNvYq1ppzepcOeAlj+Ilv5YgOp/yvu7HCqUeUfIGpa5ex3+rLy35w2pPwID+057n3/zA
tXtmk6NaabAEiUF6UZ6U+geAwKj8VdirsVdirsVeb/ncV/Q+nAj4/rDUb24Gv8Mvwc0FPPJd7b2n
lrTIeBUfV43ZloQWdATUH59shOO5VkkN5FLQI6udtgaGvc8W7ZAhKuHUmldzXY7HY06HAreKuxVD
3WnWN1vPCrsOj9HHyYUYfflkMso8iwnjjLmEDJpN7DvZXrUH+6rkeqv/AAQ4uPvOXDPE/VH5bfsc
eWm/mlDS32o2yn67YOyj/d1ofWX/AID4ZB/wJyyMIS+mXz2/Y0yxzHMfJQj1LT7slbedHkH2oq8X
HzRqMPuyw4px5hxyQoTrlkS1yCWzr1zIiWmQS6dcyYlqkl065kRLTJLZ165kxLTJL5ly8NaDlXJM
gg5R26kmgA3JJ2AGFnEWzLyt+Xofhfa3H8P2otPbw7Gb/mj/AIL+UaDX9rfwYj/nfq/X8u93mk7P
r1T+X63ocFu8rBIxQDqegUe+c8S7dHrHFApWLqdmkPU+3sMjaqbYqoXM8MELzTOI4oxyd2NABiry
zzl+YFxfTnSdFRnMnw8V2aQHbk/8ie3fv7SVMfIf5ZzPONR1I+tdn7crD4Ix/Kg/z98Fq9ds7K3s
4RFAvFR1PcnxJwKr4q7FXYq7FXYq7FXmv53/APHK0z/jO/8AxDL8HMoKYeXh/uA0z/mEg/5NrjLm
qPocCoiK+uoxx5806FH+IU+nAQFR0OsLX96jKa1JU8gdqdD0HyORMUo6G8ilpwZXOw22Ne54t2yJ
CqwdSaV3NdjsdjTocCtnFVNhiqA1DSdOv143ltHPT7LMo5D/AFW6j6MtxZ54/pJDCeOMuYtJrjyt
PHvpuoSwAdILj/SYvl8ZEg/4PMyGvB+uIPmPSf1fY4s9ED9JpKbyHzDaV+s6d9aiHWexbmfpifg/
/A8szMeXDPlLhPdL9Y2+5w8mkyDpfuSoarp08pgWYJcDrbygxSg/8Y3Ct+GZnhSAutu8bj5hwpCu
alOvXLIlpkl065kRLTJLp165kRLUUKltcXNwlvbRtNcSmkcSdT9+wA7k7DDPJGETKRoBsxYpTNRF
ln3lnyXbaWVu7vjcajT4W6xxV6iOvftyO/hTfOW13acs3pjtD7T7/wBT0mk0McW53l+OTKre0ear
V4xqaMx/UM1bno6iogjjHFB95PicCqbYqgNV1Sx0y0a6vJPTiXYDqzN2VR3JxV4/5h82635r1D9G
6UnGFG3A3jj/AMpz+29PoH35LkrOvIP5aW1hELm4BeST4pZ23eQ+xPQe/wDt5FXpMUUcUaxxqERR
RVHQYquxV2KuxV2KuxV2KuxV5r+d/wDxytM/4zv/AMQy/BzKCmPlpkfy/ppRgwFrCpoQaERgEbeG
CXNUy44FdxxV3HFXcTiqf25SW0QjccQGB33HUEHKylRe+9JvjDUqSSu/anQ/wONKvhv7aYhUkVn2
HEHixPf4W7D6cSFVCVJp0JrsdjsadDgVYwxVSYYqgNR0nTdRi9K/tYrqMdFlRXp7io2+jLcWeeM3
AmPuYzhGXMWxm8/L21FW0q/uNPPaFj9Zg/4CWrD/AGLjNni7Yn/lIxn/ALE/MfqcLJ2dCXLZjuoa
D5wsamSxj1KEbmaxcLJT3hmK7/6rnNnh1+mn/EYH+ly+Y/SA67L2bkHLdA6XY3ms3LW9vbzQPGaX
JuYpIRF/rcwtT4Bevy3GTqNVDDHiJBvlRBtxcWhyZJVVM/0XQLHSICsA5zvT17hvtuR29lHZR+up
zltXrJ55XLl0Hc9Fp9NDFGop5a2Rf45QRH2Hdj/TMRyEYaABQKKOgHQYqpNiqReZvNOm6DbGS4YP
OwLRW4IBIH7TH9lffCAryCe68w+etUJR2jsQeLXABCha/YhHYe/fDdK9c8meQNP0e0jDQhQBURkb
k+L/ANPvyKsyxV2KuxV2KuxV2KuxV2KuxVLPMPl3TNf082OoITHyDo6Hi6ONuSkg70PhkoyIOyvO
NQ/KLzHp0hufLWrAsOsMpaFyB0HNCVb6aDLvGB5hFJc/m3z75dbh5h0p5IVNDcFfhPymiBT/AIXD
UTyVPtJ/MnyzqFFeU2kh2pKKrX/XWoH+ypkTArbJ4Jre4iEtvKk0TfZkjYMp+RGQVU4Y2qrBNLC1
Y2pXqOxwFV00/qj4lofbFKV3OnyS/ZKj51/pkrQvs4tXgPH67WHoYXX1FI8Pi6fRkSqcpfxsf3il
TWpKmoO1Oh6fRgpKspWT7DK522Gxr3+E9sjSqbihoQQd9jsdjTFVNhiqkwxVSYYqjLawA4yTDfqI
/wDmr+mKopyTucVU2xVhnnf8wNP0CCSGF0kvwKNXdIv9anVvBfv9yArzTSdA13zpqP1zUfVFnK3I
RtX1JvDlTovgB0GElXt3lvyrY6RbxqsaiRAOKgDiny9/f7siqe4q7FXYq7FXYq7FXYq7FXYq7FXY
q7FXMqspVgCpFCDuCDirFtb/ACz8m6uWeawW2uD/AMfFofRevjRfhP0rkxkIWmG3n5Q+ZdLka48t
6wX7+jMWhkIHb1E2b/ZAZYMoPNFIJ/OHn3y6eHmHSnkhXY3BX4T8pogU/wCFx4Ynkqf6R+ZflnUA
FeU2kh2pKKrX/XWoH+ypkTArbKLee3uIhLbyJNE32ZI2DKfkRkUqlMCupirqYq6mKqqXE6rxJ5Id
irbin04qqieFz8aFCTUlTUdKdD/DBStPEOBdHV1UVbsf8o8T2GBUVbWYjHNwDJ1Htiqq2KqTbA4q
8y8/fmlBZK9ho7+pO59M3Me7FunGEDqf8v7vHJCKsZ8n/l9qWt3qahq6ljXnDak/AgO/Jz3Pv/mE
lXt2k6NaabAEiUF6UZ6U+geAyKo/FXYq7FXYq7FXYq7FXYq7FXYq7FXYq7FXYq7FXYq5lVlKsAVI
oQdwQcVYvrX5aeTdXLPLYLbXB/4+LU+i9fGi/CfpXJiZC0w67/KPzJpcrXHlvWC56+jMWhkIHb1E
2b/ZAZPxAeaKQbecfPvl5gnmHSnkhXYzlfhPymiBT/hceEHkqf6R+ZfljUAFkla0kO1JRVa/661A
/wBlTImBVlNvPb3MQlt5Umib7MkbBlP0jIpVOOBXccVdxxVcoosn/GN/+InFU2bAqGu7q3tbd7i5
kWKCIcpJHNABirxnz5+Zt3qk50bQkdo5Ph4Ls8o6cpD+xH7d+/tMClRfkL8sZWnGo6kfWuz9uVh8
EY/lQH/PxyJNq9es7K3s4RFAvFR1PcnxJwKr4q7FXYq7FXYq7FXYq7FXYq7FXYq7FXYq7FXYq7FX
Yq7FXYq7FXMqspVgCpFCDuCDirF9a/LTydqxZ5bBba4P/Hxan0Xr40X4T9K5ITIVh93+UvmTS5Tc
eW9YLnr6MxaGQgdvUTZv9kBk+MHmikKfOfn3y8QnmHSnlhXYzlfhPymiBT/hceEHkrINI/M3yvqA
CyStaSHakoqtf9dagf7KmRMCllNvcW1zEJbeVJom+zJGwZT9IyCqtBwl/wCMb/8AETiqrret6do1
i15fyiOJdlUbu7dlRe5wgK8K80eddf8AOep/o7TF4W6Nsi7xxduTn9uSn0D78nyQznyB+Wdrp8Iu
ZwXkk+KWdt3kPsT0Hv8A7eQJtL0mKKOKNY41CIooqjoMCrsVdirsVdirsVdirsVdirsVdirsVdir
sVdirsVdirsVdirsVdirsVdirsVdirmVWUqwBUihB3BBxVjGtflt5P1Ys8tittcH/j4tT6L18fh+
E/SMkJFWIXX5TeZNLlNx5c1guevozFopCB29RNm/2QGS475oQc3nP8wfL6NFrmmlo6FTcvGWUg7b
Swnh+GPCCrFrybzZ571T1pPUhsSeJuCCqhf99wA9vE4k0r1nyZ5A0/RrOMNCFAFRGRuT4v8A0+/K
0syxV2KuxV2KuxV2KuxV2KuxV2KuxV2KuxV2KuxV2KuxV2KuxV2KuxV2KuxV2KuxV2KuxV2KuxV2
KqZt7cyeqYkMo/b4jl9/XFVTFXYq7FXYq7FXYq7FXYq7FXYq7FXYq7FXYq7FXYq7FXYq7FXYq7FX
Yq7FXYq7FXYq7FXYq7FXYq7FXYq7FXYq7FXYq7FXYq7FXYq7FXYq7FXYq7FXYq7FX//Z</xapGImg:image></rdf:li></rdf:Alt></xap:Thumbnails></rdf:Description><rdf:Description
             rdf:about="uuid:d5cefbf0-17ab-41b0-8415-14258dda764a"><xapMM:DocumentID>
uuid:a7165ecb-510a-4770-99c4-6a5d0cb7bebd</xapMM:DocumentID></rdf:Description><rdf:Description
             rdf:about="uuid:d5cefbf0-17ab-41b0-8415-14258dda764a"><dc:format>
image/svg+xml</dc:format><dc:title><rdf:Alt><rdf:li
                   xml:lang="x-default">
scanner.ai</rdf:li></rdf:Alt></dc:title></rdf:Description><cc:Work
             rdf:about=""><dc:format>image/svg+xml</dc:format><dc:type
               rdf:resource="http://purl.org/dc/dcmitype/StillImage" /></cc:Work></rdf:RDF></metadata></x:xmpmeta><xpacket
       id="xpacket8">end='w'    </xpacket></metadata><g
     id="Layer_1"
     transform="matrix(2.2881357,0,0,2.2796609,-3.6610172,-3.5661015)"><linearGradient
       id="XMLID_12_"
       gradientUnits="userSpaceOnUse"
       x1="2.3594"
       y1="23.917999"
       x2="45.078098"
       y2="23.917999"><stop
         offset="0"
         style="stop-color:#7D7D99"
         id="stop1235" /><stop
         offset="1"
         style="stop-color:#949494"
         id="stop1236" /><a:midPointStop
         offset="0"
         style="stop-color:#7D7D99"
         id="midPointStop1237" /><a:midPointStop
         offset="0.5"
         style="stop-color:#7D7D99"
         id="midPointStop1238" /><a:midPointStop
         offset="1"
         style="stop-color:#949494"
         id="midPointStop1239" /></linearGradient><path
       style="fill:url(#XMLID_12_)"
       d="m 12.966,3.507 c 0,0 -0.006,0.013 -0.013,0.026 -0.132,0.078 -0.243,0.173 -0.311,0.298 -0.069,0.126 -0.105,0.269 -0.105,0.413 0,0.19 0.064,0.376 0.181,0.523 0,0 10.26,12.875 12.06,15.134 C 24.043,20.32 2.785,32.469 2.785,32.469 2.523,32.618 2.36,32.9 2.36,33.201 l 0.004,0.084 c 0,-10e-4 0.016,0.048 0.032,0.097 -10e-4,0.105 -0.036,3.858 -0.036,3.858 0,0.364 0.232,0.686 0.577,0.801 l 20.739,6.913 c 0.282,0.095 0.596,0.038 0.818,-0.147 L 44.66,28.001 c 0.193,-0.16 0.304,-0.396 0.304,-0.647 0,0 0,-3.474 0,-3.698 0.072,-0.127 0.115,-0.269 0.115,-0.417 0,-0.176 -0.053,-0.344 -0.153,-0.485 L 32.336,5.024 C 32.196,4.826 31.977,4.698 31.735,4.673 L 14.027,2.839 C 13.617,2.796 13.089,3.282 12.966,3.507 z M 13.473,3.393 C 13.46,3.392 13.448,3.392 13.434,3.391 c 0.013,0 0.026,0 0.039,0.002 z M 44.19,23.888 c -0.06,-0.068 -0.088,-0.155 -0.088,-0.243 0,-0.069 0.022,-0.136 0.057,-0.197 0.111,0.036 0.204,0.114 0.243,0.226 0.014,0.04 0.021,0.081 0.021,0.122 0,0.071 -0.025,0.139 -0.064,0.2 -0.063,-0.022 -0.122,-0.055 -0.169,-0.108 z m 0.435,-0.139 c 0.031,0.03 0.044,0.052 0.044,0.067 0,0.016 -0.015,0.027 -0.036,0.037 -0.005,0.052 -0.15,0.05 -0.254,0.148 C 44.377,24 44.376,24 44.375,24 c 0,-0.001 0.003,-0.003 0.003,-0.003 -10e-4,0.001 -0.003,0.002 -0.004,0.003 -0.001,0 -0.003,0 -0.005,-0.001 0.004,-0.004 0.008,-0.009 0.011,-0.014 -0.005,0.005 -0.011,0.008 -0.017,0.012 0,0 0,0 -10e-4,0 0.066,-0.097 0.095,-0.208 0.142,-0.238 0.028,-0.051 0.06,-0.071 0.121,-0.01 z m -0.566,0.329 c 0.024,0.005 0.05,0.005 0.075,0.008 -0.026,-10e-4 -0.051,-0.003 -0.075,-0.008 z M 2.411,33.438 C 2.409,33.432 2.41,33.429 2.409,33.424 2.417,33.448 2.423,33.468 2.424,33.47 2.422,33.466 2.411,33.438 2.411,33.438 z"
       id="path1240"
       inkscape:connector-curvature="0" /><path
       style="opacity:0.2"
       d="m 14.232,4.25 c -0.01,0.019 -0.025,0.048 -0.038,0.074 0.073,-0.042 0.158,-0.065 0.245,-0.063 -0.002,0.003 -0.067,0.067 -0.067,0.067 -0.071,-0.007 -0.136,0.017 -0.201,0.041 -0.074,0.15 -0.162,0.361 -0.162,0.509 0,0.042 0.012,0.075 0.029,0.104 -0.05,-0.077 -0.081,-0.164 -0.081,-0.253 0,-0.077 0.019,-0.154 0.058,-0.225 0.029,-0.053 0.077,-0.089 0.122,-0.126 -0.094,0.042 -0.178,0.103 -0.229,0.196 -0.04,0.072 -0.059,0.152 -0.059,0.232 0,0.103 0.033,0.206 0.099,0.289 0,0 11.688,14.667 12.333,15.477 -0.911,0.52 -22.373,12.784 -22.373,12.784 -0.147,0.084 -0.236,0.24 -0.236,0.407 0,0.016 0,0.03 0.002,0.046 0.003,0.031 0.024,0.054 0.033,0.083 0,0.06 -0.036,3.909 -0.036,3.91 0,0.202 0.129,0.381 0.32,0.445 L 24.73,45.16 c 0.154,0.052 0.335,0.023 0.46,-0.08 L 45.356,28.274 c 0.106,-0.089 0.168,-0.221 0.168,-0.359 0,0 0,-3.484 0,-3.817 0.011,-0.013 0.027,-0.019 0.037,-0.034 0.052,-0.079 0.078,-0.172 0.078,-0.264 0,-0.094 -0.027,-0.188 -0.084,-0.268 L 32.968,5.804 C 32.891,5.694 32.769,5.623 32.635,5.609 L 14.926,3.774 C 14.738,3.755 14.323,4.084 14.232,4.25 z M 45.4,24.214 c -0.016,0.018 -0.025,0.04 -0.044,0.056 -0.104,0.085 -0.237,0.11 -0.369,0.089 0.003,-0.003 0.015,-0.016 0.015,-0.016 l 0.019,-0.017 0.017,-0.018 0.019,-0.017 0.016,-0.018 c 0.113,0.024 0.229,-0.002 0.327,-0.059 z"
       id="path1241"
       inkscape:connector-curvature="0" /><path
       style="opacity:0.2"
       d="M 14.045,3.875 C 14.035,3.894 14.02,3.923 14.007,3.949 14.08,3.907 14.165,3.884 14.252,3.886 14.25,3.889 14.185,3.953 14.185,3.953 14.114,3.946 14.049,3.97 13.984,3.994 c -0.074,0.15 -0.162,0.361 -0.162,0.509 0,0.042 0.012,0.075 0.029,0.104 C 13.801,4.53 13.77,4.443 13.77,4.354 13.77,4.277 13.789,4.2 13.828,4.129 13.857,4.076 13.905,4.04 13.95,4.003 c -0.094,0.042 -0.178,0.103 -0.229,0.196 -0.04,0.072 -0.059,0.152 -0.059,0.232 0,0.103 0.033,0.206 0.099,0.289 0,0 11.688,14.667 12.333,15.477 -0.911,0.52 -22.373,12.784 -22.373,12.784 -0.147,0.084 -0.236,0.24 -0.236,0.407 0,0.016 0,0.03 0.002,0.046 0.003,0.031 0.024,0.054 0.033,0.083 0,0.06 -0.036,3.909 -0.036,3.91 0,0.202 0.129,0.381 0.32,0.445 l 20.739,6.913 c 0.154,0.052 0.335,0.023 0.46,-0.08 L 45.17,27.9 c 0.106,-0.089 0.168,-0.221 0.168,-0.359 0,0 0,-3.484 0,-3.817 0.011,-0.013 0.027,-0.019 0.037,-0.034 0.052,-0.079 0.078,-0.172 0.078,-0.264 0,-0.094 -0.027,-0.188 -0.084,-0.268 L 32.78,5.429 C 32.703,5.319 32.581,5.248 32.447,5.234 L 14.738,3.399 C 14.55,3.38 14.136,3.709 14.045,3.875 z m 31.168,19.964 c -0.016,0.018 -0.025,0.04 -0.044,0.056 -0.104,0.085 -0.237,0.11 -0.369,0.089 0.003,-0.003 0.015,-0.016 0.015,-0.016 l 0.019,-0.017 0.017,-0.018 0.019,-0.017 0.016,-0.018 c 0.112,0.024 0.228,-0.002 0.327,-0.059 z"
       id="path1242"
       inkscape:connector-curvature="0" /><linearGradient
       id="XMLID_13_"
       gradientUnits="userSpaceOnUse"
       x1="2.7344"
       y1="23.9175"
       x2="44.703098"
       y2="23.9175"><stop
         offset="0"
         style="stop-color:#7D7D99"
         id="stop1244" /><stop
         offset="1"
         style="stop-color:#949494"
         id="stop1245" /><a:midPointStop
         offset="0"
         style="stop-color:#7D7D99"
         id="midPointStop1246" /><a:midPointStop
         offset="0.5"
         style="stop-color:#7D7D99"
         id="midPointStop1247" /><a:midPointStop
         offset="1"
         style="stop-color:#949494"
         id="midPointStop1248" /></linearGradient><path
       style="fill:url(#XMLID_13_)"
       d="M 13.295,3.687 C 13.285,3.706 13.27,3.735 13.257,3.761 13.33,3.719 13.415,3.696 13.502,3.698 13.5,3.701 13.435,3.765 13.435,3.765 13.364,3.758 13.299,3.782 13.234,3.806 c -0.074,0.15 -0.162,0.361 -0.162,0.509 0,0.042 0.012,0.075 0.029,0.104 -0.05,-0.077 -0.081,-0.164 -0.081,-0.253 0,-0.077 0.019,-0.154 0.058,-0.225 0.029,-0.053 0.077,-0.089 0.122,-0.126 -0.094,0.042 -0.178,0.103 -0.229,0.196 -0.04,0.072 -0.059,0.152 -0.059,0.232 0,0.103 0.033,0.206 0.099,0.289 0,0 11.688,14.667 12.333,15.477 -0.911,0.521 -22.373,12.785 -22.373,12.785 -0.147,0.084 -0.236,0.24 -0.236,0.407 0,0.016 0,0.03 0.002,0.046 0.003,0.031 0.024,0.054 0.033,0.083 0,0.06 -0.036,3.909 -0.036,3.91 0,0.202 0.129,0.381 0.32,0.445 l 20.739,6.913 c 0.154,0.052 0.335,0.023 0.46,-0.08 L 44.42,27.713 c 0.106,-0.089 0.168,-0.221 0.168,-0.359 0,0 0,-3.484 0,-3.817 0.011,-0.013 0.027,-0.019 0.037,-0.034 0.052,-0.079 0.078,-0.172 0.078,-0.264 0,-0.094 -0.027,-0.188 -0.084,-0.268 L 32.03,5.242 C 31.953,5.132 31.831,5.061 31.697,5.047 L 13.988,3.212 C 13.8,3.192 13.386,3.521 13.295,3.687 z m 31.168,19.964 c -0.016,0.018 -0.025,0.04 -0.044,0.056 -0.104,0.085 -0.237,0.11 -0.369,0.089 0.003,-0.003 0.015,-0.016 0.015,-0.016 l 0.019,-0.017 0.017,-0.018 0.019,-0.017 0.016,-0.018 c 0.112,0.024 0.228,-0.001 0.327,-0.059 z"
       id="path1249"
       inkscape:connector-curvature="0" /><path
       style="fill:#ffffff"
       d="M 26.629,19.815 26.32,19.991 3.203,33.201 17.098,37.832 3.363,33.254 3.239,33.304 3.203,37.24 3.204,37.241 c 0,0.022 0,0.042 0,0.053 0.256,0.086 19.873,6.625 20.358,6.786 0,-0.015 0,-0.032 0,-0.053 l 0.38,0.127 0.011,0.004 20.166,-16.805 v -0.104 -3.546 -0.39 l -17.49,-3.498 z"
       id="path1250"
       inkscape:connector-curvature="0" /><line
       style="fill:#b5b5b5"
       x1="43.359001"
       y1="23.693001"
       x2="43.93"
       y2="23.313"
       id="line1251" /><polygon
       points="13.914,3.723 13.897,3.722 13.905,3.732 13.888,3.73 13.896,3.74 13.879,3.739 13.888,3.749 13.871,3.748 13.879,3.758 13.862,3.756 13.871,3.767 13.854,3.765 13.862,3.775 13.845,3.773 13.853,3.784 13.836,3.782 13.845,3.792 13.828,3.791 13.836,3.801 13.819,3.799 13.827,3.81 13.81,3.808 13.818,3.818 13.802,3.816 13.81,3.827 13.793,3.825 13.801,3.836 13.784,3.834 13.792,3.844 13.775,3.843 13.784,3.853 13.767,3.851 13.775,3.862 13.758,3.86 13.767,3.87 13.75,3.869 13.758,3.879 13.741,3.877 13.75,3.888 13.732,3.886 13.741,3.896 13.724,3.895 13.732,3.905 13.715,3.903 13.723,3.914 13.707,3.912 13.715,3.922 13.698,3.92 13.706,3.931 13.689,3.929 13.697,3.939 13.68,3.938 13.688,3.948 13.672,3.946 13.68,3.957 13.663,3.955 13.671,3.965 13.654,3.964 13.663,3.974 13.646,3.973 13.654,3.983 13.637,3.981 13.646,3.992 13.628,3.99 13.637,4 13.62,3.998 13.628,4.009 13.611,4.007 13.619,4.018 13.603,4.016 13.611,4.026 13.594,4.024 13.602,4.035 13.585,4.033 13.594,4.043 13.577,4.042 13.585,4.052 13.568,4.05 13.576,4.061 13.56,4.059 13.567,4.069 13.551,4.068 13.559,4.078 13.542,4.076 13.55,4.087 13.533,4.085 13.542,4.095 13.525,4.094 13.533,4.104 13.516,4.103 13.524,4.112 13.507,4.111 13.516,4.121 13.499,4.12 13.507,4.13 13.49,4.128 13.499,4.139 13.481,4.137 13.49,4.147 13.473,4.146 13.489,4.166 13.456,4.163 13.464,4.173 13.447,4.171 13.455,4.182 13.438,4.18 13.446,4.19 13.43,4.188 13.438,4.199 13.421,4.197 13.429,4.208 13.412,4.206 13.42,4.216 13.403,4.215 13.412,4.225 13.395,4.223 13.403,4.234 13.386,4.232 13.395,4.242 13.377,4.241 26.052,20.145 3.203,33.201 3.363,33.255 3.239,33.304 3.203,37.24 23.942,44.154 23.954,44.158 44.119,27.354 44.119,23.354 44.124,23.355 44.119,23.349 44.119,23.344 44.133,23.347 44.124,23.334 44.142,23.338 44.133,23.326 44.15,23.329 44.142,23.317 44.159,23.32 44.15,23.308 44.167,23.312 44.159,23.3 44.176,23.303 44.167,23.291 44.185,23.294 44.176,23.282 44.193,23.286 44.185,23.273 44.202,23.277 44.193,23.265 44.211,23.269 44.202,23.256 44.219,23.26 44.211,23.248 44.229,23.251 44.22,23.239 44.236,23.243 31.648,5.513 13.94,3.678 13.948,3.688 13.932,3.687 13.939,3.697 13.923,3.695 13.931,3.706 13.914,3.704 13.922,3.714 13.905,3.713 "
       id="polygon1252" /><linearGradient
       id="XMLID_14_"
       gradientUnits="userSpaceOnUse"
       x1="13.8003"
       y1="36.515598"
       x2="38.5854"
       y2="20.466999"><stop
         offset="0"
         style="stop-color:#FFFFFF"
         id="stop1254" /><stop
         offset="0.2978"
         style="stop-color:#E6E6E6"
         id="stop1255" /><stop
         offset="1"
         style="stop-color:#CECEDB"
         id="stop1256" /><a:midPointStop
         offset="0"
         style="stop-color:#FFFFFF"
         id="midPointStop1257" /><a:midPointStop
         offset="0.5"
         style="stop-color:#FFFFFF"
         id="midPointStop1258" /><a:midPointStop
         offset="0.2978"
         style="stop-color:#E6E6E6"
         id="midPointStop1259" /><a:midPointStop
         offset="0.5"
         style="stop-color:#E6E6E6"
         id="midPointStop1260" /><a:midPointStop
         offset="1"
         style="stop-color:#CECEDB"
         id="midPointStop1261" /></linearGradient><polygon
       style="fill:url(#XMLID_14_)"
       points="23.954,40.118 44.119,23.313 26.629,19.815 26.32,19.991 3.203,33.201 "
       id="polygon1262" /><linearGradient
       id="XMLID_15_"
       gradientUnits="userSpaceOnUse"
       x1="8.0707998"
       y1="29.255899"
       x2="41.179699"
       y2="29.255899"><stop
         offset="0"
         style="stop-color:#B1E1FF"
         id="stop1264" /><stop
         offset="0.5618"
         style="stop-color:#0035ED"
         id="stop1265" /><stop
         offset="1"
         style="stop-color:#00008D"
         id="stop1266" /><a:midPointStop
         offset="0"
         style="stop-color:#B1E1FF"
         id="midPointStop1267" /><a:midPointStop
         offset="0.5"
         style="stop-color:#B1E1FF"
         id="midPointStop1268" /><a:midPointStop
         offset="0.5618"
         style="stop-color:#0035ED"
         id="midPointStop1269" /><a:midPointStop
         offset="0.5"
         style="stop-color:#0035ED"
         id="midPointStop1270" /><a:midPointStop
         offset="1"
         style="stop-color:#00008D"
         id="midPointStop1271" /></linearGradient><path
       style="fill:url(#XMLID_15_)"
       d="m 8.071,32.1 c 3.397,1.094 15.57,5.013 16.5,5.312 C 25.355,36.781 38.438,26.253 41.18,24.046 38.005,23.433 27.717,21.226 27.076,21.102 26.973,21.158 11.429,30.247 8.071,32.1 z"
       id="path1272"
       inkscape:connector-curvature="0" /><linearGradient
       id="XMLID_16_"
       gradientUnits="userSpaceOnUse"
       x1="14.1387"
       y1="33.012699"
       x2="45.476898"
       y2="23.3606"><stop
         offset="0"
         style="stop-color:#DEFFFF"
         id="stop1274" /><stop
         offset="0.2978"
         style="stop-color:#57ADFF"
         id="stop1275" /><stop
         offset="1"
         style="stop-color:#00008D"
         id="stop1276" /><a:midPointStop
         offset="0"
         style="stop-color:#DEFFFF"
         id="midPointStop1277" /><a:midPointStop
         offset="0.5"
         style="stop-color:#DEFFFF"
         id="midPointStop1278" /><a:midPointStop
         offset="0.2978"
         style="stop-color:#57ADFF"
         id="midPointStop1279" /><a:midPointStop
         offset="0.5"
         style="stop-color:#57ADFF"
         id="midPointStop1280" /><a:midPointStop
         offset="1"
         style="stop-color:#00008D"
         id="midPointStop1281" /></linearGradient><path
       style="fill:url(#XMLID_16_)"
       d="M 24.732,37.197 C 25.48,36.597 37.529,26.934 40.836,24.282 37.218,23.566 28.002,21.596 27.4,21.481 27.3,21.535 12.886,29.934 8.942,32.133 c 3.959,1.269 14.914,4.784 15.79,5.064 z"
       id="path1282"
       inkscape:connector-curvature="0" /><path
       style="fill:#ffffff"
       d="m 3.363,33.254 -0.124,0.05 -0.036,3.936 20.739,6.914 c 0,-1.398 0,-2.695 0,-4.04 L 3.363,33.254 z"
       id="path1283"
       inkscape:connector-curvature="0" /><linearGradient
       id="XMLID_17_"
       gradientUnits="userSpaceOnUse"
       x1="13.3833"
       y1="35.137699"
       x2="13.3833"
       y2="42.824299"><stop
         offset="0"
         style="stop-color:#DDDDE8"
         id="stop1285" /><stop
         offset="1"
         style="stop-color:#F0F0F0"
         id="stop1286" /><a:midPointStop
         offset="0"
         style="stop-color:#DDDDE8"
         id="midPointStop1287" /><a:midPointStop
         offset="0.5"
         style="stop-color:#DDDDE8"
         id="midPointStop1288" /><a:midPointStop
         offset="1"
         style="stop-color:#F0F0F0"
         id="midPointStop1289" /></linearGradient><path
       style="fill:url(#XMLID_17_)"
       d="m 3.204,37.294 c 0.256,0.086 19.873,6.625 20.358,6.786 0,-0.443 0,-3.4 0,-3.639 -0.255,-0.086 -20.081,-6.693 -20.325,-6.775 -0.002,0.3 -0.03,3.383 -0.033,3.628 z"
       id="path1290"
       inkscape:connector-curvature="0" /><linearGradient
       id="XMLID_18_"
       gradientUnits="userSpaceOnUse"
       x1="11.7476"
       y1="37.691399"
       x2="16.6852"
       y2="36.170601"><stop
         offset="0"
         style="stop-color:#FFFFFF"
         id="stop1292" /><stop
         offset="0.4831"
         style="stop-color:#CECEDB"
         id="stop1293" /><stop
         offset="1"
         style="stop-color:#A2A2A2"
         id="stop1294" /><a:midPointStop
         offset="0"
         style="stop-color:#FFFFFF"
         id="midPointStop1295" /><a:midPointStop
         offset="0.5"
         style="stop-color:#FFFFFF"
         id="midPointStop1296" /><a:midPointStop
         offset="0.4831"
         style="stop-color:#CECEDB"
         id="midPointStop1297" /><a:midPointStop
         offset="0.5"
         style="stop-color:#CECEDB"
         id="midPointStop1298" /><a:midPointStop
         offset="1"
         style="stop-color:#A2A2A2"
         id="midPointStop1299" /></linearGradient><path
       style="fill:url(#XMLID_18_)"
       d="m 10.701,36.154 c -0.041,0.147 -0.055,0.297 -0.04,0.448 0.121,1.21 2.078,2.006 4.37,1.777 0.523,-0.053 1.018,-0.154 1.469,-0.293 -1.875,-0.624 -3.904,-1.301 -5.799,-1.932 z"
       id="path1300"
       inkscape:connector-curvature="0" /><polyline
       style="fill:#ffffff"
       points="23.942,44.154 23.954,44.158 44.119,27.354 44.119,23.313 23.954,40.118 23.942,40.114 "
       id="polyline1301" /><linearGradient
       id="XMLID_19_"
       gradientUnits="userSpaceOnUse"
       x1="24.3223"
       y1="33.724602"
       x2="44.119099"
       y2="33.724602"><stop
         offset="0"
         style="stop-color:#FFFFFF"
         id="stop1303" /><stop
         offset="0.5843"
         style="stop-color:#E6E6E6"
         id="stop1304" /><stop
         offset="1"
         style="stop-color:#BDBDCF"
         id="stop1305" /><a:midPointStop
         offset="0"
         style="stop-color:#FFFFFF"
         id="midPointStop1306" /><a:midPointStop
         offset="0.5"
         style="stop-color:#FFFFFF"
         id="midPointStop1307" /><a:midPointStop
         offset="0.5843"
         style="stop-color:#E6E6E6"
         id="midPointStop1308" /><a:midPointStop
         offset="0.5"
         style="stop-color:#E6E6E6"
         id="midPointStop1309" /><a:midPointStop
         offset="1"
         style="stop-color:#BDBDCF"
         id="midPointStop1310" /></linearGradient><path
       style="fill:url(#XMLID_19_)"
       d="m 24.322,40.201 c 0,0.176 0,2.925 0,3.546 0.58,-0.483 19.663,-16.387 19.797,-16.498 0,-0.153 0,-2.905 0,-3.546 -0.601,0.502 -19.686,16.406 -19.797,16.498 z"
       id="path1311"
       inkscape:connector-curvature="0" /><linearGradient
       id="XMLID_20_"
       gradientUnits="userSpaceOnUse"
       x1="34.977501"
       y1="23.872601"
       x2="34.506802"
       y2="18.6222"><stop
         offset="0"
         style="stop-color:#B5B5B5"
         id="stop1313" /><stop
         offset="1"
         style="stop-color:#FFFFFF"
         id="stop1314" /><a:midPointStop
         offset="0"
         style="stop-color:#B5B5B5"
         id="midPointStop1315" /><a:midPointStop
         offset="0.5"
         style="stop-color:#B5B5B5"
         id="midPointStop1316" /><a:midPointStop
         offset="1"
         style="stop-color:#FFFFFF"
         id="midPointStop1317" /></linearGradient><line
       style="fill:url(#XMLID_20_)"
       x1="26.059"
       y1="20.195"
       x2="43.549"
       y2="23.693001"
       id="line1318" /><path
       style="fill:#999999"
       d="M 27.165,19.849"
       id="path1319"
       inkscape:connector-curvature="0" /><linearGradient
       id="XMLID_21_"
       gradientUnits="userSpaceOnUse"
       x1="17.691401"
       y1="13.7417"
       x2="47.538101"
       y2="13.7417"><stop
         offset="0"
         style="stop-color:#FFFFFF"
         id="stop1321" /><stop
         offset="1"
         style="stop-color:#585868"
         id="stop1322" /><a:midPointStop
         offset="0"
         style="stop-color:#FFFFFF"
         id="midPointStop1323" /><a:midPointStop
         offset="0.5"
         style="stop-color:#FFFFFF"
         id="midPointStop1324" /><a:midPointStop
         offset="1"
         style="stop-color:#585868"
         id="midPointStop1325" /></linearGradient><polygon
       style="fill:url(#XMLID_21_)"
       points="13.914,3.723 13.897,3.722 13.905,3.732 13.888,3.73 13.896,3.74 13.879,3.739 13.888,3.749 13.871,3.748 13.879,3.758 13.862,3.756 13.871,3.767 13.854,3.765 13.862,3.775 13.845,3.773 13.853,3.784 13.836,3.782 13.845,3.792 13.828,3.791 13.836,3.801 13.819,3.799 13.827,3.81 13.81,3.808 13.818,3.818 13.802,3.816 13.81,3.827 13.793,3.825 13.801,3.836 13.784,3.834 13.792,3.844 13.775,3.843 13.784,3.853 13.767,3.851 13.775,3.862 13.758,3.86 13.767,3.87 13.75,3.869 13.758,3.879 13.741,3.877 13.75,3.888 13.732,3.886 13.741,3.896 13.724,3.895 13.732,3.905 13.715,3.903 13.723,3.914 13.707,3.912 13.715,3.922 13.698,3.92 13.706,3.931 13.689,3.929 13.697,3.939 13.68,3.938 13.688,3.948 13.672,3.946 13.68,3.957 13.663,3.955 13.671,3.965 13.654,3.964 13.663,3.974 13.646,3.973 13.654,3.983 13.637,3.981 13.646,3.992 13.628,3.99 13.637,4 13.62,3.998 13.628,4.009 13.611,4.007 13.619,4.018 13.603,4.016 13.611,4.026 13.594,4.024 13.602,4.035 13.585,4.033 13.594,4.043 13.577,4.042 13.585,4.052 13.568,4.05 13.576,4.061 13.56,4.059 13.567,4.069 13.551,4.068 13.559,4.078 13.542,4.076 13.55,4.087 13.533,4.085 13.542,4.095 13.525,4.094 13.533,4.104 13.516,4.103 13.524,4.112 13.507,4.111 13.516,4.121 13.499,4.12 13.507,4.13 13.49,4.128 13.499,4.139 13.481,4.137 13.49,4.147 13.473,4.146 13.489,4.166 13.456,4.163 13.464,4.173 13.447,4.171 13.455,4.182 13.438,4.18 13.446,4.19 13.43,4.188 13.438,4.199 13.421,4.197 13.429,4.208 13.412,4.206 13.429,4.227 13.395,4.223 13.403,4.234 13.386,4.232 13.395,4.242 13.377,4.241 26.098,20.204 43.674,23.805 43.665,23.793 43.683,23.796 43.674,23.784 43.691,23.788 43.674,23.764 43.709,23.771 43.7,23.758 43.718,23.762 43.709,23.75 43.727,23.753 43.718,23.741 43.734,23.745 43.727,23.732 43.743,23.736 43.734,23.724 43.752,23.727 43.734,23.703 43.77,23.71 43.761,23.698 43.778,23.701 43.77,23.689 43.786,23.692 43.78,23.685 43.948,23.719 43.867,23.605 43.873,23.606 43.864,23.594 43.882,23.597 43.873,23.585 43.891,23.589 43.882,23.577 43.899,23.58 43.891,23.568 43.908,23.571 43.899,23.559 43.916,23.563 43.908,23.551 43.925,23.554 43.917,23.542 43.934,23.545 43.925,23.533 43.942,23.537 43.934,23.524 43.951,23.528 43.942,23.516 43.96,23.52 43.951,23.507 43.969,23.511 43.96,23.499 43.977,23.502 43.968,23.49 43.985,23.494 43.977,23.481 43.994,23.485 43.985,23.473 44.003,23.477 43.994,23.464 44.012,23.468 44.003,23.456 44.021,23.459 44.012,23.447 44.029,23.45 44.021,23.438 44.037,23.442 44.029,23.43 44.046,23.433 44.037,23.421 44.055,23.424 44.046,23.412 44.063,23.416 44.055,23.404 44.072,23.407 44.063,23.395 44.081,23.398 44.072,23.386 44.09,23.39 44.081,23.377 44.099,23.381 44.09,23.369 44.106,23.373 44.099,23.36 44.115,23.364 44.106,23.352 44.124,23.355 44.115,23.343 44.133,23.347 44.124,23.334 44.142,23.338 44.133,23.326 44.15,23.329 44.142,23.317 44.159,23.32 44.15,23.308 44.167,23.312 44.159,23.3 44.176,23.303 44.167,23.291 44.185,23.294 44.176,23.282 44.193,23.286 44.185,23.273 44.202,23.277 44.193,23.265 44.211,23.269 44.202,23.256 44.219,23.26 44.211,23.248 44.229,23.251 44.22,23.239 44.236,23.243 31.648,5.513 13.94,3.678 13.948,3.688 13.932,3.687 13.939,3.697 13.923,3.695 13.931,3.706 13.914,3.704 13.922,3.714 13.905,3.713 "
       id="polygon1326" /><linearGradient
       id="XMLID_22_"
       gradientUnits="userSpaceOnUse"
       x1="28.5518"
       y1="26.262699"
       x2="28.5518"
       y2="6.2620001"><stop
         offset="0"
         style="stop-color:#7D7D99"
         id="stop1328" /><stop
         offset="1"
         style="stop-color:#F0F0F0"
         id="stop1329" /><a:midPointStop
         offset="0"
         style="stop-color:#7D7D99"
         id="midPointStop1330" /><a:midPointStop
         offset="0.5"
         style="stop-color:#7D7D99"
         id="midPointStop1331" /><a:midPointStop
         offset="1"
         style="stop-color:#F0F0F0"
         id="midPointStop1332" /></linearGradient><polygon
       style="fill:url(#XMLID_22_)"
       points="43.7,23.779 26.124,20.178 13.403,4.215 31.112,6.05 "
       id="polygon1333" /><polyline
       id="_x3C_Slice_x3E_"
       style="fill:none"
       points="0,48 0,0 48,0 48,48 " /></g></svg>