<svg id="svg32" fill="none" height="256" viewBox="0 0 256 256" width="256" xmlns="http://www.w3.org/2000/svg" xmlns:xlink="http://www.w3.org/1999/xlink">
  <linearGradient id="linearGradient2005" gradientTransform="matrix(1 0 0 1.0000012 -4.53183 1.465437)" gradientUnits="userSpaceOnUse" x1="210.9417" x2="213.85234" y1="13.610421" y2="237.32562">
    <stop id="stop4366" offset="0" stop-color="#37a6e6"/>
    <stop id="stop4368" offset="1" stop-color="#1a7fd4"/>
  </linearGradient>
  <linearGradient id="linearGradient2013" gradientTransform="matrix(1 0 0 1.0000012 -4.53183 1.465437)" gradientUnits="userSpaceOnUse" x1="168.35844" x2="188.44292" y1="225.86478" y2="228.56027">
    <stop id="stop2007" offset="0" stop-color="#1a7fd4"/>
    <stop id="stop2009" offset="1" stop-color="#1463a5"/>
  </linearGradient>
  <linearGradient id="linearGradient2021" gradientTransform="matrix(1 0 0 1.0000012 -4.53183 1.465437)" gradientUnits="userSpaceOnUse" x1="31.737936" x2="187.67358" y1="175.86949" y2="47.414349">
    <stop id="stop2015" offset="0" stop-color="#1a7fd4"/>
    <stop id="stop2023" offset=".26053268" stop-color="#1463a5"/>
    <stop id="stop2025" offset=".4880434" stop-color="#1463a5"/>
    <stop id="stop2182" offset=".80978" stop-color="#1a7ed2"/>
    <stop id="stop2017" offset="1" stop-color="#1465a8"/>
  </linearGradient>
  <filter id="filter2048" color-interpolation-filters="sRGB" height="1.024059" width="1.023942" x="-.011971" y="-.012029">
    <feGaussianBlur id="feGaussianBlur2050" stdDeviation="1.1372356"/>
  </filter>
  <filter id="filter2074" color-interpolation-filters="sRGB" height="1.096234" width="1.095767" x="-.047884" y="-.048117">
    <feGaussianBlur id="feGaussianBlur2076" stdDeviation="4.5489422"/>
  </filter>
  <path id="path2052" d="m182.02214 13.1099c-.25773-.0071-.51515-.0083-.75147.006-.47263.02738-.96832.09171-1.40751.145123-3.92652.496501-5.17314 1.633127-6.70551 2.932298.0879-.03215.13194-.04774.21272-.07753-.98333.741477-2.05974 1.656356-3.3637 2.846814-1.89311 1.7283-14.64954 13.3629-28.34885 25.855906-13.69942 12.493007-32.71879 29.838504-42.26485 38.545297-9.496937 8.662091-17.30282 15.710083-17.478482 15.782719-.000906.000377-.05317.04771-.05367.04771-.0971 0-9.096712-6.767963-19.999263-15.039206-10.902557-8.27128-20.243696-15.250448-20.756695-15.510399-1.405963-.712458-3.075088-1.009934-4.717519-.908516-1.642432.101378-3.258168.601713-4.556493 1.481059-1.106622.749417-14.230492 12.665539-14.862274 13.494532-2.529472 3.319138-2.632413 8.074561-.244525 11.305746.492744.666594 7.473681 7.164957 18.021205 16.774847l17.218053 15.68729-.550675.57056c-.302406.31374-8.099825 7.45786-17.327394 15.87616-12.694994 11.58179-16.964164 15.58468-17.546072 16.45267-1.136232 1.69471-1.514172 3.03559-1.500939 5.3179.01252 2.16804.396675 3.49573 1.492986 5.14692.733681 1.10492 14.014142 13.31665 15.462651 14.21817 2.686628 1.67224 6.335414 1.84784 9.114973.43934.514729-.26082 7.348223-5.33912 15.186317-11.28586 22.696663-17.21991 25.126713-19.05257 25.428486-19.17424.001-.0004.01101-.007.01193-.008.237465-.0911 26.44878 23.70982 82.71266 75.10657 4.58696 4.19022 8.85187 7.97777 9.47877 8.41718.0231.0162.0522.0297.0756.0457 1.11399.89149 2.3864 1.65353 4.92825 2.09337.13468.0301.27246.0742.40554.0994.54689.10339 1.16092.15468 1.79318.17892.0477.003.0938.0112.14115.0139.33497.0194.70661.01 1.06557-.008.11942-.004.23442-.013.35386-.0199.026-.002.056-.002.0815-.004 1.37934-.10667 1.77489-.14605 2.58241-.38766.0796-.0197.17109-.0286.24851-.0497.0137-.004.0301-.006.0437-.01.024-.007.13265-.0543.23061-.0974.0198-.006.0294-.009.0497-.0159.005-.002.12486-.0593.13121-.0616.004-.002.0232-.0102.0278-.0119 1.59879-.60693 9.96376-4.53416 23.51205-11.05128 29.44105-14.16195 27.11968-12.96346 29.22756-15.07698 1.94176-1.94707 2.9888-3.71246 3.73743-6.29798l.43736-1.51087v-78.81022c0-74.479656-.0193-78.880908-.33398-80.048857-.18312-.679735-.73089-2.048169-1.21864-3.041637-.74894-1.525615-1.15523-2.074192-2.61422-3.528697-1.48444-1.479852-2.02172-1.871945-3.81894-2.785186-5.29824-2.692087-47.72914-22.990916-48.77753-23.335124-.0298-.01018-.063-.01658-.0934-.02584-.0122-.0051-.20895-.09884-.21669-.101388-1.33251-.438157-1.46322-.42978-3.15496-.560615-.23374-.01598-.49175-.03044-.74946-.03777zm3.58038 62.075246v102.857164l-.97413-.74948c-.73204-.56289-16.02604-12.16655-33.98681-25.78633-15.41108-11.68634-26.55079-20.18851-29.93329-22.82221-.55961-.43573-2.72356-2.08519-2.72356-2.09734 0-.18267-.17193-.0499 38.098-29.084536 15.99396-12.134253 28.91688-21.903173 29.51979-22.317268z" fill="#000" filter="url(#filter2074)" opacity=".1" stroke-width=".190136"/>
  <path id="path2042" d="m182.02214 13.1099c-.25773-.0071-.51515-.0083-.75147.006-.47263.02738-.96832.09171-1.40751.145123-3.92652.496501-5.17314 1.633127-6.70551 2.932298.0879-.03215.13194-.04774.21272-.07753-.98333.741477-2.05974 1.656356-3.3637 2.846814-1.89311 1.7283-14.64954 13.3629-28.34885 25.855906-13.69942 12.493007-32.71879 29.838504-42.26485 38.545297-9.496937 8.662091-17.30282 15.710083-17.478482 15.782719-.000906.000377-.05317.04771-.05367.04771-.0971 0-9.096712-6.767963-19.999263-15.039206-10.902557-8.27128-20.243696-15.250448-20.756695-15.510399-1.405963-.712458-3.075088-1.009934-4.717519-.908516-1.642432.101378-3.258168.601713-4.556493 1.481059-1.106622.749417-14.230492 12.665539-14.862274 13.494532-2.529472 3.319138-2.632413 8.074561-.244525 11.305746.492744.666594 7.473681 7.164957 18.021205 16.774847l17.218053 15.68729-.550675.57056c-.302406.31374-8.099825 7.45786-17.327394 15.87616-12.694994 11.58179-16.964164 15.58468-17.546072 16.45267-1.136232 1.69471-1.514172 3.03559-1.500939 5.3179.01252 2.16804.396675 3.49573 1.492986 5.14692.733681 1.10492 14.014142 13.31665 15.462651 14.21817 2.686628 1.67224 6.335414 1.84784 9.114973.43934.514729-.26082 7.348223-5.33912 15.186317-11.28586 22.696663-17.21991 25.126713-19.05257 25.428486-19.17424.001-.0004.01101-.007.01193-.008.237465-.0911 26.44878 23.70982 82.71266 75.10657 4.58696 4.19022 8.85187 7.97777 9.47877 8.41718.0231.0162.0522.0297.0756.0457 1.11399.89149 2.3864 1.65353 4.92825 2.09337.13468.0301.27246.0742.40554.0994.54689.10339 1.16092.15468 1.79318.17892.0477.003.0938.0112.14115.0139.33497.0194.70661.01 1.06557-.008.11942-.004.23442-.013.35386-.0199.026-.002.056-.002.0815-.004 1.37934-.10667 1.77489-.14605 2.58241-.38766.0796-.0197.17109-.0286.24851-.0497.0137-.004.0301-.006.0437-.01.024-.007.13265-.0543.23061-.0974.0198-.006.0294-.009.0497-.0159.005-.002.12486-.0593.13121-.0616.004-.002.0232-.0102.0278-.0119 1.59879-.60693 9.96376-4.53416 23.51205-11.05128 29.44105-14.16195 27.11968-12.96346 29.22756-15.07698 1.94176-1.94707 2.9888-3.71246 3.73743-6.29798l.43736-1.51087v-78.81022c0-74.479656-.0193-78.880908-.33398-80.048857-.18312-.679735-.73089-2.048169-1.21864-3.041637-.74894-1.525615-1.15523-2.074192-2.61422-3.528697-1.48444-1.479852-2.02172-1.871945-3.81894-2.785186-5.29824-2.692087-47.72914-22.990916-48.77753-23.335124-.0298-.01018-.063-.01658-.0934-.02584-.0122-.0051-.20895-.09884-.21669-.101388-1.33251-.438157-1.46322-.42978-3.15496-.560615-.23374-.01598-.49175-.03044-.74946-.03777zm3.58038 62.075246v102.857164l-.97413-.74948c-.73204-.56289-16.02604-12.16655-33.98681-25.78633-15.41108-11.68634-26.55079-20.18851-29.93329-22.82221-.55961-.43573-2.72356-2.08519-2.72356-2.09734 0-.18267-.17193-.0499 38.098-29.084536 15.99396-12.134253 28.91688-21.903173 29.51979-22.317268z" fill="#000" filter="url(#filter2048)" opacity=".1" stroke-width=".190136"/>
  <path id="path2027" d="m182.02214 13.1099c-.25773-.0071-.51515-.0083-.75147.006-.47263.02738-.96832.09171-1.40751.145123-3.92652.496501-5.17314 1.633127-6.70551 2.932298.0879-.03215.13194-.04774.21272-.07753-.98333.741477-2.05974 1.656356-3.3637 2.846814-1.89311 1.7283-14.64954 13.3629-28.34885 25.855906-13.69942 12.493007-32.71879 29.838504-42.26485 38.545297-9.496937 8.662091-17.30282 15.710083-17.478482 15.782719-.000906.000377-.05317.04771-.05367.04771-.0971 0-9.096712-6.767963-19.999263-15.039206-10.902557-8.27128-20.243696-15.250448-20.756695-15.510399-1.405963-.712458-3.075088-1.009934-4.717519-.908516-1.642432.101378-3.258168.601713-4.556493 1.481059-1.106622.749417-14.230492 12.665539-14.862274 13.494532-2.529472 3.319138-2.632413 8.074561-.244525 11.305746.492744.666594 7.473681 7.164957 18.021205 16.774847l17.218053 15.68729-.550675.57056c-.302406.31374-8.099825 7.45786-17.327394 15.87616-12.694994 11.58179-16.964164 15.58468-17.546072 16.45267-1.136232 1.69471-1.514172 3.03559-1.500939 5.3179.01252 2.16804.396675 3.49573 1.492986 5.14692.733681 1.10492 14.014142 13.31665 15.462651 14.21817 2.686628 1.67224 6.335414 1.84784 9.114973.43934.514729-.26082 7.348223-5.33912 15.186317-11.28586 22.696663-17.21991 25.126713-19.05257 25.428486-19.17424.001-.0004.01101-.007.01193-.008.237465-.0911 26.44878 23.70982 82.71266 75.10657 4.58696 4.19022 8.85187 7.97777 9.47877 8.41718.0231.0162.0522.0297.0756.0457 1.11399.89149 2.3864 1.65353 4.92825 2.09337.13468.0301.27246.0742.40554.0994.54689.10339 1.16092.15468 1.79318.17892.0477.003.0938.0112.14115.0139.33497.0194.70661.01 1.06557-.008.11942-.004.23442-.013.35386-.0199.026-.002.056-.002.0815-.004 1.37934-.10667 1.77489-.14605 2.58241-.38766.0796-.0197.17109-.0286.24851-.0497.0137-.004.0301-.006.0437-.01.024-.007.13265-.0543.23061-.0974.0198-.006.0294-.009.0497-.0159.005-.002.12486-.0593.13121-.0616.004-.002.0232-.0102.0278-.0119 1.59879-.60693 9.96376-4.53416 23.51205-11.05128 29.44105-14.16195 27.11968-12.96346 29.22756-15.07698 1.94176-1.94707 2.9888-3.71246 3.73743-6.29798l.43736-1.51087v-78.81022c0-74.479656-.0193-78.880908-.33398-80.048857-.18312-.679735-.73089-2.048169-1.21864-3.041637-.74894-1.525615-1.15523-2.074192-2.61422-3.528697-1.48444-1.479852-2.02172-1.871945-3.81894-2.785186-5.29824-2.692087-47.72914-22.990916-48.77753-23.335124-.0298-.01018-.063-.01658-.0934-.02584-.0122-.0051-.20895-.09884-.21669-.101388-1.33251-.438157-1.46322-.42978-3.15496-.560615-.23374-.01598-.49175-.03044-.74946-.03777zm3.58038 62.075246v102.857164l-.97413-.74948c-.73204-.56289-16.02604-12.16655-33.98681-25.78633-15.41108-11.68634-26.55079-20.18851-29.93329-22.82221-.55961-.43573-2.72356-2.08519-2.72356-2.09734 0-.18267-.17193-.0499 38.098-29.084536 15.99396-12.134253 28.91688-21.903173 29.51979-22.317268z" fill="#000" opacity=".1" stroke-width=".190136"/>
  <g stroke-width=".186801">
    <path id="path1475" d="m176.70357 16.949361c-1.45053.001-2.8723.379161-4.10742 1.091802h-.002c-.96662.72874-2.02467 1.628442-3.30664 2.798833-1.8599 1.697982-14.39256 13.128516-27.85156 25.402371-13.4591 12.273856-32.14484 29.315127-41.52344 37.869187-9.330342 8.510141-16.999302 15.434519-17.171882 15.50588l38.087892 29.037146.0254-.0176c-.5498-.42808-2.67578-2.0486-2.67578-2.06054 0-.17946-.16891-.0491 37.42969-28.574258 15.7134-11.921395 28.40962-21.518977 29.00195-21.925808v-51.810614c-.021-4.043455-3.58583-7.315859-7.90625-7.316419zm-123.388672 109.521629-.54101.56055c-.2971.30823-7.95774 7.32704-17.02344 15.59767-12.4723 11.37862-16.66658 15.31132-17.23828 16.16409-1.1163 1.66498-1.48761 2.98234-1.47461 5.22461.0123 2.13001.38971 3.43441 1.46679 5.05664.72081 1.08553 13.76831 13.08308 15.19141 13.96878 2.6395 1.64291 6.22428 1.81543 8.95508.43164.5057-.25625 7.21932-5.24549 14.91992-11.08791 22.29852-16.91784 24.68594-18.71837 24.98242-18.83791z" fill="url(#linearGradient2021)"/>
    <path id="path1504" d="m38.012168 68.758025c-1.61362.0996-3.20101.591161-4.47656 1.455082-1.08721.736271-13.98087 12.443376-14.60157 13.257827-2.4851 3.260914-2.58623 7.932929-.24023 11.107433.4841.654901 7.34258 7.039223 17.70508 16.480493l16.91601 15.41213 29.23828 27.07816c.00099-.00039.0108-.007.0117-.008.2333-.0895 25.984822 23.294 81.261722 73.78915 4.5065 4.11672 8.6966 7.83785 9.3125 8.26955 1.4431 1.01143 3.46995 1.85047 5.31445 2.19921 1.8317.34629 4.34932.23137 6.19922-.28125.045-.0125.34458-.15048.43164-.18359l-.0801-61.30281-.0449 1.36718-1.30664-1.00586c-.7192-.55302-15.74492-11.95315-33.39062-25.33401-15.14074-11.48134-26.08505-19.83441-29.40821-22.42191l-.0254.0176-38.087892-29.037146c-.00089.00037-.0522.0469-.0527.0469-.0954 0-8.93714-6.649259-19.64844-14.775409s-19.88858-14.982908-20.39258-15.238299c-1.3813-.69996-3.02114-.992221-4.63476-.892581z" fill="url(#linearGradient2013)"/>
    <path id="path1513" d="m181.09225 15.089989c-.2532-.007-.50612-.008-.73829.006-.46434.0269-.95133.0901-1.38281.14258-3.85764.487791-5.0824 1.604482-6.58789 2.880864.088-.0322.13049-.0477.21289-.0781 1.23512-.712641 2.65689-1.090792 4.10742-1.091802 4.32042.00055 7.88524 3.272964 7.90625 7.316419v51.810614c.009-.007-.002.00073 0 0v152.742386c-.021 4.04345-3.58583 7.31586-7.90625 7.31641-1.45053-.001-2.8723-.37917-4.10742-1.09179-.0824-.0304-.12489-.0459-.21289-.0781 1.50549 1.27638 2.73025 2.39307 6.58789 2.88086.43148.0525.91847.11568 1.38281.14258.46433.0269 1.01531.0003 1.47461-.0312 1.4972-.11579 1.78891-.1367 2.78125-.45117v.0215c.0134-.004.0296-.006.043-.01.0236-.007.19137-.0835.22656-.0957.0194-.006.0289-.009.0488-.0156.005-.002.12267-.0583.12891-.0606 1.53693-.57919 9.77815-4.44799 23.12695-10.86915 28.9246-13.91352 26.64395-12.73608 28.71485-14.81252 1.9077-1.91292 2.93637-3.64735 3.67187-6.18751l.42969-1.48438v-77.42783c0-73.173024-.019-77.497169-.32812-78.64463-.1799-.667811-.71807-2.012243-1.19727-2.988284-.7358-1.498852-1.13496-2.037813-2.56836-3.466804-1.4584-1.453892-1.98625-1.839113-3.75195-2.736334-5.2053-2.644863-46.89188-22.587638-47.92188-22.925808-.0293-.01-.0619-.0163-.0918-.0254-.012-.005-.20528-.0971-.21289-.0996-1.30913-.430471-1.43756-.422241-3.09961-.550781-.22965-.0157-.48313-.0299-.73632-.0371z" fill="url(#linearGradient2005)"/>
    <path id="path2078" d="m181.0923 15.090028c-.2532-.007-.50611-.0081-.73828.0059-.46434.0269-.95134.0901-1.38282.142578-3.85764.487791-5.0824 1.604478-6.58789 2.88086.088-.0322.13049-.04772.21289-.07813 1.23512-.712641 2.6569-1.090787 4.10742-1.091797.76378.000097 1.50198.10804 2.20313.298828.0232-.003.0411-.0068.0644-.0098.43148-.05248.91848-.115678 1.38282-.142578.23217-.014.48508-.01286.73828-.0059.25319.0072.50668.02141.73632.03711 1.66206.12854 1.79048.12031 3.09961.550781.008.0025.20089.09461.21289.09961.0299.0091.0625.01539.0918.02539 1.03.33817 42.71658 20.280921 47.92188 22.925784 1.7657.897221 2.29355 1.282436 3.75195 2.736328 1.4334 1.428991 1.83256 1.967945 2.56836 3.466797.4792.976041 1.01736 2.32047 1.19727 2.988281.23184.860596.30047 3.508615.32031 35.648437-.0186-33.573678-.0849-36.774498-.32031-37.648437-.17991-.667811-.71807-2.01224-1.19727-2.988281-.7358-1.498852-1.13496-2.037806-2.56836-3.466797-1.4584-1.453892-1.98625-1.839107-3.75195-2.736328-5.2053-2.644863-46.89188-22.587614-47.92188-22.925784-.0293-.01-.0619-.01629-.0918-.02539-.012-.005-.20528-.09711-.21289-.09961-1.30913-.430471-1.43755-.422241-3.09961-.550781-.22964-.0157-.48313-.02991-.73632-.03711z" fill="#fff" opacity=".3"/>
    <path id="path2119" d="m176.70312 16.949219c-1.45052.001-2.8723.379156-4.10742 1.091797h-.002c-.96662.72874-2.02467 1.628437-3.30664 2.798828-1.8599 1.697982-14.39256 13.128489-27.85156 25.402344-13.4591 12.273856-32.14484 29.31508-41.523441 37.86914-9.330342 8.510141-16.999295 15.434498-17.171875 15.50586l1.210938.921872c1.635924-1.420082 7.726966-6.917583 15.960937-14.427732 9.378601-8.55406 28.064341-25.595284 41.523441-37.86914 13.459-12.273855 25.99166-23.704362 27.85156-25.402344 1.28197-1.170391 2.34002-2.070088 3.30664-2.798828h.002c1.23512-.712641 2.6569-1.090797 4.10742-1.091797 4.32043.00056 7.88526 3.272951 7.90626 7.316406v-2c-.021-4.043455-3.58583-7.315846-7.90626-7.316406zm-123.388667 109.521481-.541015.56055c-.297101.30823-7.957738 7.32703-17.023438 15.59766-12.4723 11.37862-16.666581 15.31129-17.238281 16.16406-1.1163 1.66498-1.48761 2.98234-1.47461 5.22461.0018.31894.03144.58924.05078.875.114847-1.58666.51309-2.74123 1.423828-4.09961.5717-.85277 4.765981-4.78544 17.238281-16.16406 9.0657-8.27063 18.717979-16.7028 18.717979-16.7028s-.284119-.57552-1.153526-1.45541zm66.097657 1.05664c-.006.005-.0254.0188-.0312.0234l1.44726 1.10352.0254-.0176c-.29611-.23055-.80927-.62463-1.44141-1.10938z" fill="#fff" opacity=".3"/>
    <path id="path2128" d="m38.011719 68.757812c-1.61362.0996-3.201013.591158-4.476563 1.455079-1.08721.736271-13.980862 12.443361-14.601562 13.257812-1.493286 1.95947-2.118958 4.427971-1.876953 6.775391.179715-1.698328.804965-3.368743 1.876953-4.775391.6207-.814451 13.514352-12.521541 14.601562-13.257812 1.27555-.863921 2.862943-1.355479 4.476563-1.455079 1.61362-.099639 3.253465.192619 4.634765.892579.504.255391 9.681278 7.112131 20.392578 15.238281s19.553038 14.775388 19.648438 14.775388c.0005 0 .051844-.0465.052734-.04687l38.087886 29.03711.0254-.01758c3.32316 2.5875 14.26746 10.94053 29.4082 22.42187 17.6457 13.38086 32.67142 24.78097 33.39062 25.33399l1.30664 1.00586.04493-1.36719.07812 59.30469c.00049-.00019.00148-.00177.00195-.00196l-.08007-61.30273-.04493 1.36719-1.30664-1.00586c-.7192-.55302-15.74492-11.95313-33.39062-25.33399-15.14074-11.48134-26.08504-19.83437-29.4082-22.42187l-.0254.01758-38.087886-29.037112c-.00089.00037-.052234.046874-.052734.046874-.0954 0-8.937138-6.64924-19.648438-14.77539s-19.888578-14.98289-20.392578-15.238281c-1.3813-.69996-3.021145-.992218-4.634765-.892579z" fill="#fff" opacity=".3"/>
    <path id="path2137" d="m241 201.99219-.42969 1.48437c-.7355 2.54016-1.76417 4.27458-3.67187 6.1875-2.0709 2.07644.20975.89898-28.71485 14.8125-13.3488 6.42116-21.59002 10.28995-23.12695 10.86914-.006.002-.12391.0585-.12891.0606-.0199.007-.0294.01-.0488.0156-.0352.0122-.20297.0887-.22657.0957-.0134.004-.0296.006-.043.01v-.0215c-.99234.31447-1.28406.33538-2.78126.45117-.4593.0315-1.01027.0581-1.4746.0312-.46434-.0269-.95134-.0901-1.38282-.14258-.0213-.003-.0375-.007-.0586-.01-.70288.19181-1.44308.29873-2.20899.29883-1.45052-.001-2.8723-.37918-4.10742-1.0918-.0824-.0304-.12489-.0459-.21289-.0781 1.50549 1.27638 2.73025 2.39307 6.58789 2.88086.43148.0525.91848.11568 1.38282.14258.46433.0269 1.0153.00025 1.4746-.0312 1.4972-.11579 1.78892-.1367 2.78126-.45117v.0215c.0134-.004.0296-.006.043-.01.0236-.007.19138-.0835.22657-.0957.0194-.006.0289-.009.0488-.0156.005-.002.12267-.0582.12891-.0606 1.53693-.57919 9.77815-4.44798 23.12695-10.86914 28.9246-13.91352 26.64395-12.73606 28.71485-14.8125 1.9077-1.91292 2.93637-3.64734 3.67187-6.1875l.4297-1.48416z" fill="#000" opacity=".2"/>
    <path id="path2146" d="m17.056641 88.246094c-.236904 2.238763.302703 4.526901 1.636718 6.332031.4841.654901 7.342578 7.039195 17.705079 16.480465l16.916015 15.41211 29.238281 27.07813c.00099-.00039.010819-.00681.011719-.00781.2333-.0895 25.984817 23.29391 81.261717 73.78906 4.5065 4.11672 8.6966 7.83783 9.3125 8.26953 1.4431 1.01143 3.46996 1.85048 5.31445 2.19922 1.83171.34629 4.34932.23137 6.19922-.28125.045-.0125.34458-.15049.43164-.1836l-.00195-1.99804c-.08888.03406-.38493.16921-.42969.18164-1.8499.51262-4.36751.62754-6.19922.28125-1.84449-.34874-3.87135-1.18779-5.31445-2.19922-.6159-.4317-4.806-4.15281-9.3125-8.26953-55.2769-50.49515-81.028417-73.87856-81.261717-73.78906-.0009.001-.010729.00742-.011719.00781l-29.238281-27.07813-16.916015-15.41211c-10.362501-9.441266-17.220979-15.825564-17.705079-16.480465-.936298-1.266958-1.475983-2.772917-1.636718-4.332031z" fill="#000" opacity=".2"/>
    <path id="path2155" d="m184.60938 74.076172c-.59234.406831-13.28856 10.004386-29.00196 21.925781-37.5986 28.525157-38.71081 29.412197-38.67154 29.587307 0 0 1.23438.98383 1.23438.98385 2.21463-1.74335 10.80016-8.3623 37.43716-28.571157 15.7134-11.921395 28.40962-21.51895 29.00196-21.925781zm-103.283208 78.337888c-2.025379 1.49336-7.588286 5.70636-23.75586 17.97266-7.700599 5.84242-14.414221 10.83164-14.919921 11.08789-2.7308 1.38379-6.315579 1.21127-8.955079-.43164-1.423099-.8857-14.470596-12.88322-15.191406-13.96875-.915801-1.37932-1.30621-2.559-1.416015-4.18164-.02592.35812-.05318.71209-.05078 1.125.0123 2.13001.389717 3.43441 1.466797 5.05664.72081 1.08553 13.768307 13.08305 15.191406 13.96875 2.6395 1.64291 6.224279 1.81543 8.955079.43164.5057-.25625 7.219322-5.24547 14.919921-11.08789 22.29852-16.91784 24.685942-18.71835 24.982422-18.83789z" fill="#000" opacity=".2"/>
  </g>
</svg>
