/* XPM */
static char *cublock[] = {
/* columns rows colors chars-per-pixel */
"32 32 14 1 ",
"  c black",
". c #3657C0",
"X c #4873FF",
"o c #C01C80",
"O c #FF25AA",
"+ c #C05195",
"@ c #C06B9F",
"# c #FF6BC6",
"$ c #368AC0",
"% c #5195C0",
"& c #48B8FF",
"* c #6BC6FF",
"= c #FF8ED4",
"- c None",
/* pixels */
"--------------------------------",
"--------        ----------------",
"------- .XXXXX  -----         --",
"------ X.XXXX & ---- oOOOOOO  --",
"-----        && --- OoOOOOO # --",
"----- **%*** && --         ## --",
"----- **%*** && -- ==@==== ## --",
"----- **%*** && -- ==@==== ## --",
"----- **%*** && -- ==@==== ## --",
"----- **%*** && -- ==@==== ## --",
"----- **%*** && -- ==@@@@@ ++ --",
"----- **%*** && -- =@===== # ---",
"----- **%*** && -- @======  ----",
"----- **%*** && --         -----",
"----- **%*** && ----------------",
"----- **%*** && ----------------",
"----- **%*** &&         --------",
"----- **%*** & XXXXXXX  --------",
"----- **%***  XXXXXXX & --------",
"-----                && --------",
"---- XXX.XXX ******* && --------",
"--- XXXX.XX  ******* && --------",
"--         & ******* && --------",
"-- *****%* & ******* && --------",
"-- *****%% $ %%%%%%% $$ --------",
"-- ****%** & ******* & ---------",
"-- ***%*** & *******  ----------",
"-- **%**** &         -----------",
"-- *%***** & -------------------",
"-- %******  --------------------",
"--         ---------------------",
"--------------------------------"
};
