/* XPM */
static char * dataloader_xpm[] = {
"48 48 256 2",
"  	c None",
". 	c #A7DEB7",
"+ 	c #A1BEAB",
"@ 	c #B1B1B1",
"# 	c #CCCBAC",
"$ 	c #FAFAFA",
"% 	c #A0CAB1",
"& 	c #FF9A99",
"* 	c #EB9F99",
"= 	c #A6DBB6",
"- 	c #FFFAF9",
"; 	c #DBDBDB",
"> 	c #A5D6B5",
", 	c #A59A99",
"' 	c #A6DDB8",
") 	c #FFDCD9",
"! 	c #ABE0B7",
"~ 	c #AEE0B6",
"{ 	c #EAEAEA",
"] 	c #FFA19A",
"^ 	c #A1C3AF",
"/ 	c #9AA09D",
"( 	c #9A9A9A",
"_ 	c #D5D5D5",
": 	c #FFB2AD",
"< 	c #FFBAB5",
"[ 	c #ACE0B7",
"} 	c #BBBBBB",
"| 	c #B0E3B7",
"1 	c #A1A1A1",
"2 	c #9EB1A4",
"3 	c #C2CAAE",
"4 	c #C2C2C2",
"5 	c #A1C2AE",
"6 	c #A5A5A5",
"7 	c #F5F5F5",
"8 	c #FFC2BD",
"9 	c #ACD5B1",
"0 	c #9DACA2",
"a 	c #FFCDCA",
"b 	c #E4E4E4",
"c 	c #B7DDB4",
"d 	c #B79B99",
"e 	c #FFD5D2",
"f 	c #C49C99",
"g 	c #F1F1F1",
"h 	c #FF9C99",
"i 	c #DDBCA6",
"j 	c #FFF5F5",
"k 	c #D4C3A9",
"l 	c #B1E0B6",
"m 	c #A0B3A4",
"n 	c #A9A9A9",
"o 	c #AACCAD",
"p 	c #9D9D9D",
"q 	c #A5D6B6",
"r 	c #FFA49E",
"s 	c #B4B4B4",
"t 	c #DB9D99",
"u 	c #ADE6B8",
"v 	c #B3E6B8",
"w 	c #CDCDCD",
"x 	c #A0BBA9",
"y 	c #EDEDED",
"z 	c #FFBEB9",
"A 	c #9A9D9B",
"B 	c #A9E2B8",
"C 	c #E0E0E0",
"D 	c #A3E2B9",
"E 	c #A1CBB2",
"F 	c #B2E3B7",
"G 	c #FFEDEC",
"H 	c #BED7B2",
"I 	c #A4BAA6",
"J 	c #FDFDFD",
"K 	c #BBDAB3",
"L 	c #A0BFAC",
"M 	c #FFB6B1",
"N 	c #F1AC9E",
"O 	c #FFC5C1",
"P 	c #9DABA1",
"Q 	c #FFDFDD",
"R 	c #F39F99",
"S 	c #FFD1CE",
"T 	c #A4CFB3",
"U 	c #E6B5A3",
"V 	c #A4D0B3",
"W 	c #FFFCFC",
"X 	c #AAE5B9",
"Y 	c #FFCAC6",
"Z 	c #9EB4A5",
"` 	c #9CA59E",
" .	c #A6CAAD",
"..	c #AEAEAE",
"+.	c #FFEAE9",
"@.	c #FFD9D6",
"#.	c #FFF2F1",
"$.	c #FFAEA8",
"%.	c #FCA29A",
"&.	c #A1CAB1",
"*.	c #FFA29B",
"=.	c #B1E2B7",
"-.	c #C8C8C8",
";.	c #FFABA6",
">.	c #FFE6E4",
",.	c #EBB0A0",
"'.	c #A4D1B4",
").	c #A7DFB8",
"!.	c #FFA6A0",
"~.	c #C5C5C5",
"{.	c #A1C1AB",
"].	c #A6BFA8",
"^.	c #AFE4B7",
"/.	c #AFD9B3",
"(.	c #FFA9A3",
"_.	c #A1AFA2",
":.	c #A0C3AE",
"<.	c #FFA8A2",
"[.	c #FFE2E0",
"}.	c #A9DBB5",
"|.	c #EBE4E3",
"1.	c #9BA49E",
"2.	c #E0B8A4",
"3.	c #FFECEA",
"4.	c #A2C3AE",
"5.	c #FFE4E2",
"6.	c #B3E0B6",
"7.	c #C6D1AE",
"8.	c #F5A89D",
"9.	c #FFFEFE",
"0.	c #9BA29D",
"a.	c #C1D3B0",
"b.	c #FFE9E7",
"c.	c #A5DAB7",
"d.	c #A8C5AB",
"e.	c #9A9F9C",
"f.	c #FAA49B",
"g.	c #ACE8B9",
"h.	c #A8D6B2",
"i.	c #A1C2AB",
"j.	c #A4D4B6",
"k.	c #AEE1B7",
"l.	c #B8D1B1",
"m.	c #A1C1AE",
"n.	c #FFF0EF",
"o.	c #ACE1B7",
"p.	c #A7E0B8",
"q.	c #A3CAB0",
"r.	c #B0DDB5",
"s.	c #A4D2B3",
"t.	c #A9DFB7",
"u.	c #EAEEEE",
"v.	c #A7C8AC",
"w.	c #9EA89F",
"x.	c #FA9F99",
"y.	c #FD9E9A",
"z.	c #A3CCB1",
"A.	c #FF9F9B",
"B.	c #9BA9A1",
"C.	c #A6DAB6",
"D.	c #A5D1B1",
"E.	c #9F9999",
"F.	c #9EB0A3",
"G.	c #B4E8B9",
"H.	c #9DAFA3",
"I.	c #A3D1B3",
"J.	c #A7C4AA",
"K.	c #FDA099",
"L.	c #9FB7A7",
"M.	c #9CA79F",
"N.	c #A2DFB8",
"O.	c #A2CFB4",
"P.	c #FF9F99",
"Q.	c #A4D2B4",
"R.	c #A3CEB3",
"S.	c #A5D9B6",
"T.	c #A5D5B5",
"U.	c #A5D4B5",
"V.	c #A3CFB3",
"W.	c #A0C9B1",
"X.	c #A4D5B5",
"Y.	c #A3CDB3",
"Z.	c #A2CDB2",
"`.	c #A5D7B6",
" +	c #FF9D99",
".+	c #A6DCB7",
"++	c #A1C9B1",
"@+	c #A0C6B0",
"#+	c #A0C7B0",
"$+	c #A7DDB7",
"%+	c #A0C8B1",
"&+	c #A2CDB3",
"*+	c #A4D3B5",
"=+	c #A4D3B4",
"-+	c #A5D3B4",
";+	c #A1C8B1",
">+	c #A7DCB7",
",+	c #A0C7B1",
"'+	c #A6D9B6",
")+	c #A4D4B5",
"!+	c #A5D3B5",
"~+	c #FFF4F3",
"{+	c #FFF8F7",
"]+	c #A6DCB6",
"^+	c #A6DDB7",
"/+	c #A2CEB3",
"(+	c #9FB9A8",
"_+	c #A1C1AD",
":+	c #FFFBFB",
"<+	c #A5D9B7",
"[+	c #A5DDB7",
"}+	c #B1E1B7",
"|+	c #A1C7B1",
"1+	c #A7D9B5",
"2+	c #A0C5AF",
"3+	c #A1C7B0",
"4+	c #A5D8B6",
"5+	c #A3D3B5",
"6+	c #B4DFB5",
"7+	c #A5D2B4",
"8+	c #FFFDFD",
"9+	c #ACE3B8",
"0+	c #A3C9B0",
"a+	c #A7DBB6",
"b+	c #ABDDB5",
"c+	c #A5D8B7",
"d+	c #BDCFAF",
"e+	c #FF9D9B",
"f+	c #AEADA1",
"g+	c #F7A69C",
"h+	c #ACD0AF",
"i+	c #EAB1AD",
"j+	c #A5D7B5",
"k+	c #F0D4D2",
"l+	c #A9A1A0",
"m+	c #B2E1B6",
"n+	c #C3A19F",
"o+	c #9BA09C",
"p+	c #A2C1AD",
"q+	c #EAB6B3",
"r+	c #EACBC8",
"s+	c #A4D2B5",
"t+	c #A3C3AA",
"u+	c #F0EFEF",
"v+	c #A5D4B4",
"w+	c #A0C8B0",
"x+	c #A2C8AF",
"y+	c #A3CDB1",
"z+	c #B8E2B6",
"A+	c #C3C9C9",
"B+	c #A8DDB7",
"C+	c #CFCFCF",
"D+	c #B2E2B6",
"E+	c #FFA099",
"F+	c #999999",
"G+	c #FFFFFF",
"                                                r                                               ",
"                                            E+E+E+r                                             ",
"                                        E+E+E+E+E+E+                                            ",
"                                  #.E+E+E+E+E+E+E+E+)                                           ",
"                              8+E+E+E+E+E+E+E+E+E+E+K.F+F+}                                     ",
"                          @.E+E+E+& (.< Y Q $.E+E+E+E+7.d.` F+F+F+C                             ",
"                      8 E+E+P.O G+G+G+G+G+G+< E+E+E+E+& D+D+v /.F+F+F+$                         ",
"                  E+E+E+M G+G+G+G+G+G+G+G+G+;.E+E+E+E+E+^.D+D+D+D+D+_.F+F+                      ",
"              ;.E+E+P.W G+G+G+G+G+G+G+G+G+G+$.E+E+E+E+E+,.D+D+D+D+D+D+F ( F+C                   ",
"          E+E+E+E+ +G+G+G+G+G+G+G+G+G+G+G+G+*.E+E+E+E+E+E+6.D+D+D+D+D+D+D+o F+s                 ",
"      E+E+E+E+E+E+G+G+G+G+G+G+G+G+G+G+G+G+G+*.E+E+E+E+E+E+%.D+D+D+D+D+D+D+=.=.F+n               ",
"- E+E+E+E+E+E+E+Y G+G+G+G+G+G+G+G+G+G+G+G+G+& E+E+E+E+E+E+E+| D+D+D+D+D+=.}+k.9+F+s             ",
"< E+E+E+E+E+E+P.G+G+G+G+G+G+G+G+G+S h E+P.& P.E+E+E+E+E+E+E+7.D+D+D+D+D+}+k.k.k.b+F+b           ",
"  E+E+E+E+E+E+8 G+G+G+G+G+G+G+G+E+E+E+E+E+E+E+E+E+E+E+E+E+E+P.^.D+D+=.}+k.k.k.! ! x F+          ",
"  E+E+E+E+E+E+G G+G+G+G+G+G+G+& E+E+E+E+E+E+E+E+E+E+E+E+E+E+E+k D+=.}+k.k.k.o.! t.t.F+6         ",
"  8+E+E+E+E+E+G+G+G+G+G+G+G+G+P.E+E+E+E+E+E+E+E+E+E+E+E+E+E+E+P.}+}+k.k.k.! ! t.. $+^+F+b       ",
"    E+E+E+E+E+G+G+G+G+G+G+G+G+: E+E+E+E+E+P.P.P.P.P.E+E+E+E+E+E+~ k.k.k.o.! t.. . .+.+F+F+      ",
"      E+E+E+E+G G+G+G+G+G+G+G+G+G+- G+G+G+G+G+G+G+G+G+n.E+E+E+E+E+0.k.! ! t.. $+.+= = . F+      ",
"      E+E+E+E+O G+G+G+G+G+G+G+G+G+G+G+G+G+G+G+G+G+G+G+G+G+h E+E+E+F+! ! t.. . .+.+= '+4+A 4     ",
"      k+E+E+E+P.G+G+G+G+G+G+G+G+G+G+G+G+G+G+G+G+G+G+G+G+G+G+E+E+E+E+F+B . $+>+= = S.4+`.`.F+    ",
"      ( E+E+E+E+#.G+G+G+G+G+G+G+G+G+G+G+G+G+G+G+G+G+G+G+G+G+8 E+E+E+F+o+. >+.+= S.4+`.j+> F+J   ",
"      F+_.E+E+E+h G+G+G+G+G+G+G+G+G+G+G+G+G+G+G+G+G+G+G+G+G+G+P.E+E+* F+'+= = S.4+`.> T.X.F+s   ",
"      F+9 E+E+E+E+#.G+G+G+G+G+G+G+G+G+G+G+G+G+G+G+G+G+G+G+G+G+a E+E+E+F+` = S.4+`.j+T.X.!+F+p   ",
"      F+v 2.E+E+E+E+8 G+G+G+G+G+G+G+G+G+G+G+G+G+G+G+G+G+G+G+G+G+E+E+E+d F+S.4+`.j+T.X.*+Q.M.F+  ",
"      F+v g.P.E+E+E+E+< G+G+G+G+G+G+G+n.Y z Y G+7 G+G+G+G+G+G+G+E+E+E+t F+4+`.> T.X.*+Q.'.Z F+  ",
"      F+v D+i E+E+E+E+E+E+E+E+E+E+E+E+E+E+E+E+E+F+s G+G+G+G+G+G+P.E+E+* F+`.j+T.X.*+Q.'.V L.F+  ",
"      F+v D+| E+E+E+E+E+E+E+E+E+E+E+E+E+E+E+E+E+F+F+7 G+G+G+G+G+P.E+E+* F+> T.X.!+Q.'.V T Z F+  ",
"      F+G.D+D+y.E+E+E+E+E+E+E+E+E+E+E+E+E+E+E+E+F+H.F+s G+G+G+G+E+E+E+t F+T.X.=+-+'.V V.R.0 F+  ",
"      F+D+D+D+K E+E+E+E+E+E+E+E+E+E+E+E+E+E+E+P.F+Z 0 F+$ G+G+G+E+E+E+, F+X.U.Q.'.V T R.&+1.F+  ",
"      F+o D+D+D+%.E+E+E+E+E+E+P.E+E+E+E+E+E+M G+F+m . C.F+s G+[.E+E+E+F+Z =+Q.'.V V.R.Z.E F+1   ",
"      F+P D+D+D+6+E+E+E+E+E+P.G+[.z ;.$.S G+G+G+F+m $+>+0 F+$ P.E+E+f F+T.Q.'.V V R.&+E E F+4   ",
"      n F+D+D+D+D+ +E+E+E+E+P.G+G+G+G+G+G+G+G+G+F+Z .+]+C.> F+f E+E+F+Z Q.'.V V.R.Z.E E E F+    ",
"      g F+D+D+D+D+2.E+E+E+E+P.G+G+G+G+G+G+G+G+G+F+Z ]+= '+S.P F+K.d F+*+'.V V R.&+E E &.2+F+    ",
"        F+v.D+D+D+| P.E+E+E+P.G+G+G+G+G+G+G+G+G+F+2 C.'+4+`.> s.F+F+*+'.V V.R.Z.E E &.W.F+_     ",
"        w F+D+D+D+D+# E+E+E+P.G+G+G+G+G+G+G+G+G+F+2 S.S.`.> T.X.B.:.'.V T R.&+E E &.W.2+F+      ",
"          F+].D+D+D+D+P.E+E+ +G+G+G+G+G+G+G+G+G+F+2 4+`.> T.T.*+Q.'.V V.R.Z.E E &.W.%+F+F+      ",
"          1 F+D+D+D+D+] E+E+ +G+G+G+G+G+G+G+W z F+2 `.j+T.X.*+Q.'.V V.R.&+E E &.W.%+W.F+$       ",
"            F+m D+D+=.^.E+E+E+ +& & & & P.E+E+E+F+2 > T.U.*+Q.'.V V.Y.Z.E E &.++%+W.F+C+        ",
"            $ F+r.=.}+k.8.E+E+E+E+E+E+E+E+E+E+E+F+F.T.X.*+Q.'.V V.R.Z.E E &.W.%+#+( F+          ",
"              s F+v k.k.B P.E+E+E+E+E+E+E+E+    F+F.U.*+Q.'.V V.Y.Z.E E &.++%+#+Z F+            ",
"                F+F+u k.! N E+E+E+E+E+E+:+      F+F.*+Q.'.V V.R.Z.E E &.W.%+#+(+F+g             ",
"                  F+F+o.! p.E+E+P.* 1           F+H.Q.'.V V.Y.Z.E E &.W.%+#+@+5 F+4             ",
"                    1 F+T . h %.N.i.1           F+H.'.V V.R.Z.E E &.++%+#+@+2+^ _+F+4           ",
"                      C+F+F+).= C.{.1           F+H.V V.R.Z.E E &.W.%+#+@+2+^ ^ 5 x F+4         ",
"                          F+F+0.C.{.1           F+H.V.R.Z.E E &.++%+#+@+2+^ ^ _+_+_+x F+4       ",
"                              F+F+F+1           F+0 Y.Z.E E &.++%+#+@+2+^ 5 p+_+_+_+_+x F+4     ",
"                                $ 1 1           F+0 ++;+3+#+2+2+:.:.m._+L L + + + + + + (+F+4   ",
"                                                F+F+F+F+F+F+F+F+F+F+F+F+F+F+F+F+F+F+F+F+F+F+F+4 "};
