<?xml version="1.0" encoding="UTF-8" standalone="no"?>
<!-- Created with Inkscape (http://www.inkscape.org/) -->

<svg
   xmlns:dc="http://purl.org/dc/elements/1.1/"
   xmlns:cc="http://creativecommons.org/ns#"
   xmlns:rdf="http://www.w3.org/1999/02/22-rdf-syntax-ns#"
   xmlns:svg="http://www.w3.org/2000/svg"
   xmlns="http://www.w3.org/2000/svg"
   xmlns:xlink="http://www.w3.org/1999/xlink"
   xmlns:sodipodi="http://sodipodi.sourceforge.net/DTD/sodipodi-0.dtd"
   xmlns:inkscape="http://www.inkscape.org/namespaces/inkscape"
   width="256"
   height="256"
   viewBox="0 0 256 256"
   id="svg2"
   version="1.1"
   inkscape:version="0.91 r13725"
   sodipodi:docname="daydreamer.svg">
  <defs
     id="defs4">
    <linearGradient
       inkscape:collect="always"
       id="linearGradient5857">
      <stop
         style="stop-color:#cccccc;stop-opacity:1;"
         offset="0"
         id="stop5859" />
      <stop
         style="stop-color:#cccccc;stop-opacity:0;"
         offset="1"
         id="stop5861" />
    </linearGradient>
    <linearGradient
       inkscape:collect="always"
       id="linearGradient5817">
      <stop
         style="stop-color:#f9f9f9;stop-opacity:1;"
         offset="0"
         id="stop5819" />
      <stop
         style="stop-color:#d7e749;stop-opacity:1"
         offset="1"
         id="stop5821" />
    </linearGradient>
    <radialGradient
       inkscape:collect="always"
       xlink:href="#linearGradient5817"
       id="radialGradient5823"
       cx="531.02161"
       cy="694.86108"
       fx="531.02161"
       fy="694.86108"
       r="160.58614"
       gradientTransform="matrix(1.3409322,0.00379856,3.0891777e-4,1.7132893,-584.02169,-268.1564)"
       gradientUnits="userSpaceOnUse" />
    <linearGradient
       inkscape:collect="always"
       xlink:href="#linearGradient5857"
       id="linearGradient5863"
       x1="25.742573"
       y1="946.83002"
       x2="46.410889"
       y2="947.20129"
       gradientUnits="userSpaceOnUse"
       gradientTransform="matrix(1,0,0,0.95418872,-0.75758937,39.181214)" />
    <linearGradient
       inkscape:collect="always"
       xlink:href="#linearGradient5857"
       id="linearGradient5867"
       gradientUnits="userSpaceOnUse"
       gradientTransform="matrix(1,0,0,0.95418872,-258.83794,40.34634)"
       x1="25.742573"
       y1="946.83002"
       x2="46.410889"
       y2="947.20129" />
  </defs>
  <sodipodi:namedview
     id="base"
     pagecolor="#ffffff"
     bordercolor="#666666"
     borderopacity="1.0"
     inkscape:pageopacity="0"
     inkscape:pageshadow="2"
     inkscape:zoom="4.04"
     inkscape:cx="258.79833"
     inkscape:cy="84.138053"
     inkscape:document-units="px"
     inkscape:current-layer="layer1"
     showgrid="false"
     units="px"
     inkscape:window-width="1920"
     inkscape:window-height="1015"
     inkscape:window-x="0"
     inkscape:window-y="33"
     inkscape:window-maximized="1" />
  <metadata
     id="metadata7">
    <rdf:RDF>
      <cc:Work
         rdf:about="">
        <dc:format>image/svg+xml</dc:format>
        <dc:type
           rdf:resource="http://purl.org/dc/dcmitype/StillImage" />
        <dc:title />
      </cc:Work>
    </rdf:RDF>
  </metadata>
  <g
     inkscape:label="Layer 1"
     inkscape:groupmode="layer"
     id="layer1"
     transform="translate(0,-796.36219)">
    <rect
       style="opacity:1;fill:url(#radialGradient5823);fill-opacity:1;fill-rule:evenodd;stroke:#000000;stroke-width:1.40114677;stroke-miterlimit:4;stroke-dasharray:none;stroke-opacity:0"
       id="rect3562"
       width="255.98309"
       height="255.97253"
       x="0.017606331"
       y="796.37268"
       rx="8.364707"
       ry="8.364707"
       inkscape:transform-center-x="1.4541616"
       inkscape:transform-center-y="-5.0395898" />
    <path
       style="opacity:1;fill:#f2f2f2;fill-opacity:1;fill-rule:evenodd;stroke:none;stroke-width:1.45899999;stroke-miterlimit:4;stroke-dasharray:none;stroke-opacity:1"
       id="path5825"
       sodipodi:type="arc"
       sodipodi:cx="128.78468"
       sodipodi:cy="942.2016"
       sodipodi:rx="104.0799"
       sodipodi:ry="98.698891"
       sodipodi:start="2.5973253"
       sodipodi:end="0.50081582"
       d="m 39.743611,993.30704 a 104.0799,98.698891 0 0 1 20.451115,-125.34003 104.0799,98.698891 0 0 1 133.714784,-2.7553 104.0799,98.698891 0 0 1 26.17314,124.37931"
       sodipodi:open="true" />
    <path
       sodipodi:open="true"
       transform="matrix(-0.99999994,-3.5822546e-4,1.357938e-4,-0.99999999,0,0)"
       d="m -87.958329,-962.9959 a 89.006966,28.687412 0 0 1 -119.965981,-12.23261 89.006966,28.687412 0 0 1 37.86131,-38.67509 89.006966,28.687412 0 0 1 120.024168,12.1732 89.006966,28.687412 0 0 1 -37.676867,38.69377"
       sodipodi:end="1.0891145"
       sodipodi:start="1.092188"
       sodipodi:ry="28.687412"
       sodipodi:rx="89.006966"
       sodipodi:cy="-988.4599"
       sodipodi:cx="-128.94998"
       sodipodi:type="arc"
       id="path5888"
       style="opacity:1;fill:#cccccc;fill-opacity:1;fill-rule:evenodd;stroke:none;stroke-width:1.45899999;stroke-miterlimit:4;stroke-dasharray:none;stroke-opacity:1" />
    <path
       style="opacity:1;fill:#f2f2f2;fill-opacity:1;fill-rule:evenodd;stroke:none;stroke-width:1.45899999;stroke-miterlimit:4;stroke-dasharray:none;stroke-opacity:1"
       id="path5845"
       sodipodi:type="arc"
       sodipodi:cx="-128.45764"
       sodipodi:cy="-986.4809"
       sodipodi:rx="90.98716"
       sodipodi:ry="28.687412"
       sodipodi:start="1.092188"
       sodipodi:end="1.0891145"
       d="m -86.554022,-961.0169 a 90.98716,28.687412 0 0 1 -122.634938,-12.23261 90.98716,28.687412 0 0 1 38.70363,-38.67509 90.98716,28.687412 0 0 1 122.694424,12.17322 90.98716,28.687412 0 0 1 -38.515087,38.69376"
       transform="matrix(-0.99999994,-3.5042923e-4,1.3881489e-4,-0.99999999,0,0)"
       sodipodi:open="true" />
    <g
       transform="matrix(0.79298967,0,0,0.79298967,-53.461315,388.77581)"
       id="g5829">
      <path
         inkscape:connector-curvature="0"
         id="path5831"
         d="m 342.79969,695.18558 c -0.12312,2.1e-4 -1.1588,3.23476 -2.30159,7.18789 -4.24083,14.67004 -14.92812,27.93934 -27.47461,34.1124 -5.00685,2.46345 -8.14066,3.06865 -15.75539,3.0427 -8.47392,-0.0289 -10.56207,-0.55465 -19.24327,-4.84513 -18.54776,-9.1668 -32.15004,-27.06028 -35.70884,-46.97416 -1.38727,-7.76271 -1.31877,-10.07061 0.53199,-17.92109 4.17152,-17.69471 15.72681,-31.97253 32.64159,-40.33227 17.68781,-8.74179 34.51025,-6.9289 47.96615,5.16912 8.0306,7.2202 13.55993,15.97373 17.1606,27.1671 6.57459,28.13847 0.24146,-23.27112 -0.93823,-25.88214 -8.38455,-16.69029 -31.33704,-37.69354 -53.21715,-48.69767 -4.98437,-2.50678 -9.0625,-5.03233 -9.0625,-5.61232 0,-2.59347 9.10675,-12.59505 15.18811,-16.68052 15.73252,-10.5691 35.11773,-12.51644 52.93689,-5.31775 6.70963,2.71058 10.53314,5.34004 16.39681,11.27621 8.91693,9.02713 13.3758,17.70391 15.38218,29.93302 1.26632,7.71834 1.1354,9.91634 -1.11044,18.64229 -3.14146,12.20581 -7.33124,19.65301 -15.2255,27.06287 l -6.07812,5.70518 c -14.27205,9.57083 -12.20038,-2.05482 -12.08868,42.96427 z m -34.29232,16.92616 c 11.61048,-5.92523 17.58622,-15.92401 17.58622,-29.42577 0,-19.0007 -13.49572,-32.53582 -32.37802,-32.47255 -19.64525,0.0659 -33.74713,15.31264 -32.3266,34.95119 1.71286,23.68001 26.14295,37.65165 47.1184,26.94713 z m -29.28559,-8.02534 c -13.77425,-6.25678 -18.23854,-23.89492 -9.20441,-36.36616 8.34305,-11.51725 24.71241,-13.09359 35.70873,-3.43869 5.50622,4.83452 7.92239,10.21982 7.92239,17.65789 0,7.25499 -1.73314,11.64922 -6.63916,16.83308 -7.37864,7.79649 -17.89481,9.80753 -27.78755,5.31388 z m -0.57329,-20.15043 c 0,-0.6875 -0.5625,-1.25 -1.25,-1.25 -0.6875,0 -1.25,0.5625 -1.25,1.25 0,0.6875 0.5625,1.25 1.25,1.25 0.6875,0 1.25,-0.5625 1.25,-1.25 z m 9.75,-6.5 c 4.08391,-4.08391 -0.10137,-10.50334 -5.51362,-8.45689 -3.58685,1.35623 -4.42165,4.1361 -2.1962,7.31339 2.05667,2.93631 5.41841,3.43491 7.70982,1.1435 z m -90.26134,90.97058 c -2.68748,-0.99699 -6.06248,-3.04333 -7.5,-4.54743 l -2.61366,-2.73474 4.375,1.04829 c 2.40625,0.57656 7.8433,1.06855 12.08233,1.0933 6.58586,0.0385 8.48331,-0.50064 13.04041,-3.705 2.93321,-2.0625 5.11424,-4.3125 4.84674,-5 -0.26752,-0.6875 -2.44693,-1.924 -4.84315,-2.74779 -6.78757,-2.33345 -10.59194,-5.77753 -12.57163,-11.38105 -1.32004,-3.73636 -1.4838,-6.10995 -0.5959,-8.63676 l 1.2244,-3.4844 24.34214,-0.34057 c 27.55045,-0.38547 27.47466,-0.41079 27.47466,9.18403 0,4.51531 -0.6822,5.85696 -4.92916,9.69383 -2.71103,2.44926 -7.21103,5.06765 -10,5.81864 -2.78896,0.75098 -5.07084,1.88253 -5.07084,2.51456 0,1.97285 11.01324,7.71065 16.11284,8.39465 2.93877,0.39417 7.42087,-0.19775 11.33061,-1.49635 9.8267,-3.26391 10.40064,-0.3413 0.90924,4.63009 -9.6848,5.0727 -25.95616,2.75723 -32.02686,-4.55752 -0.89757,-1.0815 -2.61919,-1.96636 -3.82583,-1.96636 -1.20664,0 -2.92826,0.88486 -3.82582,1.96636 -5.10149,6.14692 -19.522,9.37538 -27.93552,6.25422 z m -89.66674,-113.84558 -6.38661,-5.61945 c -29.755333,-26.18113 -24.072526,-71.61236 11.12515,-88.94012 8.1635,-4.01888 9.10154,-4.19043 22.91326,-4.19043 13.32931,0 14.95955,0.2696 21.90128,3.62192 8.38823,4.05086 24.375,18.60467 24.375,22.19016 0,1.54202 -2.52161,3.54083 -7.8125,6.19275 -11.68444,5.85652 -23.16902,14.83837 -35.50593,27.76844 -17.31156,6.08538 -47.156424,66.09845 -16.17419,41.41676 6.30775,-11.24863 18.73235,-26.65712 28.87684,-30.48502 27.17713,-10.25498 62.29998,13.30271 68.35187,45.84515 4.2736,22.9802 -12.01578,51.0686 -36.31607,62.62119 -8.36474,3.97667 -10.70428,4.53524 -18.92002,4.51718 -8.25204,-0.0181 -10.32142,-0.52884 -17.27616,-4.26349 -9.62536,-5.16875 -16.71797,-12.90323 -22.15544,-24.16049 l -4.09864,-8.48546 c -0.67202,-39.69687 -10.4171,-30.12612 -12.89784,-48.02909 z m 68.49665,60.01233 c 14.56536,-4.32546 22.93253,-14.80399 23.90361,-29.9354 0.64468,-10.04546 -1.48592,-16.71634 -7.67881,-24.04224 -8.72564,-10.32203 -26.46333,-13.56864 -39.2686,-7.1875 -11.64564,5.80326 -17.70232,15.85294 -17.74732,29.44757 -0.0486,14.68223 8.37948,26.25614 22.72875,31.21245 8.12625,2.80685 10.12348,2.86271 18.06237,0.50512 z m -13.94357,-9.88793 c -12.22588,-5.38832 -17.96077,-21.3203 -11.92981,-33.14196 8.53832,-16.73649 31.71973,-18.27567 42.14971,-2.79861 7.92116,11.75422 2.89266,29.51007 -10.10392,35.67736 -5.09167,2.41615 -14.9387,2.545 -20.11598,0.26321 z m 23.125,-20.7494 c 0,-0.6875 -0.5625,-1.25 -1.25,-1.25 -0.6875,0 -1.25,0.5625 -1.25,1.25 0,0.6875 0.5625,1.25 1.25,1.25 0.6875,0 1.25,-0.5625 1.25,-1.25 z m -4.78593,-7.06874 c 3.07685,-2.7845 2.87705,-4.98631 -0.66294,-7.3058 -3.64724,-2.38976 -6.83168,-1.31005 -7.8265,2.65365 -1.43781,5.7287 4.00445,8.71102 8.48944,4.65215 z"
         style="fill:#d4d4d3"
         sodipodi:nodetypes="cssssssssccssssssssccsssssssssssssssssssssscssscssscsssssssssssscssssssccssssssccsssssssssssssssssssss" />
      <path
         inkscape:connector-curvature="0"
         id="path5833"
         d="m 209.52974,765.56569 c 6.65224,-1.96166 17.60148,-10.01265 15.76348,-11.5909 -0.56085,-0.48158 -3.6756,-1.85275 -6.92168,-3.04702 -6.69856,-2.4645 -12.5359,-8.54644 -11.9749,-12.47669 0.32573,-2.28195 1.56389,-2.77825 9.12685,-3.65832 4.8125,-0.56003 15.64063,-0.644 24.0625,-0.18664 16.05981,0.87216 16.05651,0.8707 15.40313,6.82985 -0.32373,2.95244 -7.72544,8.69465 -13.21563,10.2526 -2.75,0.78036 -5.5625,1.92131 -6.25,2.53544 -2.02379,1.80778 6.74734,8.23237 14.375,10.52925 7.67156,2.31011 6.56858,3.63923 -1.95885,2.36047 -3.46686,-0.51989 -7.66742,-2.44695 -11.18269,-5.13021 -3.09655,-2.36365 -6.24715,-4.29755 -7.00133,-4.29755 -0.75418,0 -3.13994,1.49149 -5.30168,3.31443 -5.284,4.45582 -10.99309,6.70652 -16.7028,6.58473 l -4.72765,-0.10087 6.50625,-1.91861 z m -53.44305,-28.3322 c -15.2331,-4.1084 -28.11459,-18.87517 -33.07361,-37.91415 -2.40663,-9.23966 -2.38368,-25.36521 0.0494,-34.70643 4.43079,-17.01097 17.18519,-32.68444 30.4348,-37.40036 14.77204,-5.2578 33.45299,0.15858 47.82776,13.86724 24.46,23.32657 24.55558,54.04464 0.2465,79.22448 -8.95253,9.2732 -16.51209,13.8948 -27.34176,16.71556 -8.61142,2.24299 -10.53477,2.26564 -18.14309,0.21366 z m 24.11792,-22.03557 c 7.17133,-2.68314 15.31567,-10.09804 19.23466,-17.51195 3.46726,-6.55935 3.25042,-23.86495 -0.38374,-30.625 -6.19815,-11.52944 -17.17892,-18.06052 -30.40704,-18.08534 -31.722,-0.0595 -45.86513,38.58224 -21.85632,59.71564 9.89783,8.71241 21.48571,10.96901 33.41244,6.50665 z m -14.98562,-11.40835 c -9.69199,-2.79903 -16.3856,-14.64389 -14.68478,-25.98581 1.08923,-7.26348 8.78898,-15.44334 16.48847,-17.51659 16.59646,-4.46896 32.29265,10.99591 27.86172,27.45112 -3.48279,12.93411 -16.35059,19.89657 -29.66541,16.05128 z m 10.68992,-16.19735 c -0.24636,-0.73906 -0.98229,-1.34375 -1.63542,-1.34375 -0.65312,0 -1.38906,0.60469 -1.63542,1.34375 -0.24635,0.73906 0.48959,1.34375 1.63542,1.34375 1.14583,0 1.88177,-0.60469 1.63542,-1.34375 z m 12.51402,-3.35652 c 0.32484,-2.27689 -0.20038,-2.79973 -2.8125,-2.79973 -2.28127,0 -3.21194,0.66401 -3.21194,2.29166 0,4.84503 5.34142,5.29549 6.02444,0.50806 z m -5.81037,-6.11847 c 4.95099,-4.48057 0.86873,-12.25602 -6.01802,-11.46246 -7.31354,0.84275 -6.97012,13.5312 0.36623,13.5312 1.85123,0 4.39454,-0.93093 5.65179,-2.06874 z m 104.78593,58.87523 c -20.71491,-5.72436 -39.91942,-27.11423 -43.98837,-48.99399 -4.01625,-21.59634 9.98976,-46.37349 32.50625,-57.50474 8.71253,-4.30714 10.33003,-4.68276 20.16473,-4.68276 12.94177,0 19.19317,2.60792 28.45655,11.8713 11.17235,11.17236 16.57137,25.63749 16.596,44.46432 0.0474,36.16483 -25.81467,62.56142 -53.73516,54.84587 z m 20.88356,-22.86954 c 25.69992,-13.11113 25.54665,-49.98265 -0.25856,-62.20281 -22.16692,-10.49724 -48.125,6.09751 -48.125,30.76586 0,14.04324 10.5022,28.9491 23.26903,33.02591 7.77616,2.48316 18.45712,1.80739 25.11453,-1.58896 z m -27.12463,-10.8549 c -9.40439,-4.2361 -13.9375,-11.1336 -13.9375,-21.20705 0,-7.6821 2.24396,-12.73525 7.69051,-17.31822 14.6161,-12.29864 37.48806,-1.61653 37.48806,17.50842 0,6.63796 -4.48906,15.06121 -9.95411,18.6778 -5.99438,3.96689 -15.38281,4.99851 -21.28696,2.33905 z m 8.50148,-15.6758 c -0.24635,-0.73906 -0.98228,-1.34375 -1.63541,-1.34375 -0.65312,0 -1.38906,0.60469 -1.63541,1.34375 -0.24636,0.73906 0.48957,1.34375 1.63541,1.34375 1.14584,0 1.88178,-0.60469 1.63541,-1.34375 z m -10.10808,-1.30858 c 1.92032,-1.92032 0.5844,-4.84767 -2.21229,-4.84767 -2.75584,0 -4.16888,1.94917 -3.21504,4.43486 0.83011,2.16324 3.47568,2.36446 5.42733,0.41281 z m 10.09767,-7.59767 c 0.825,-0.825 1.5,-3.24375 1.5,-5.375 0,-4.67711 -1.94664,-6.875 -6.08907,-6.875 -6.50887,0 -9.82143,6.79081 -5.59219,11.46407 2.34929,2.59594 7.93971,3.02748 10.18126,0.78593 z m -184.31161,-28.8125 c -4.88043,-3.61471 -13.641225,-13.75355 -16.25992,-18.81755 -2.760176,-5.33759 -5.329765,-16.51515 -5.383941,-23.41983 -0.117085,-14.92224 9.345198,-33.42927 20.873461,-40.82584 13.9168,-8.92906 16.1288,-9.62128 30.95701,-9.68769 12.97713,-0.0581 14.23109,0.16626 22.30893,3.99206 5.74143,2.71924 10.98786,6.53595 15.9375,11.59435 4.05821,4.14738 7.37857,8.03802 7.37857,8.64586 0,0.60785 -4.11542,3.36385 -9.14538,6.12445 -22.7208,12.4699 -46.45526,36.6036 -55.94799,56.8891 -2.14075,4.57468 -4.57372,8.31759 -5.4066,8.31759 -0.83288,0 -3.22312,-1.26563 -5.31164,-2.8125 z m 244.88782,0 c -0.67643,-0.85938 -2.70901,-4.55179 -4.51683,-8.20537 -9.38757,-18.97214 -36.5955,-45.08296 -57.99688,-55.65824 -4.29687,-2.12326 -7.8125,-4.52265 -7.8125,-5.33199 0,-2.77939 11.0082,-13.71293 17.06456,-16.94884 11.01489,-5.88522 18.48184,-7.64349 29.91225,-7.04355 9.14249,0.47986 11.74095,1.19522 20.99135,5.77898 10.68157,5.29292 16.48097,10.71711 22.9709,21.48471 3.78365,6.27756 6.99675,21.47354 5.97754,28.27012 -2.15846,14.39367 -9.81112,29.03276 -18.5282,35.44337 -5.77742,4.24876 -6.33721,4.40227 -8.06219,2.21081 z"
         style="fill:#a0a09f" />
      <path
         inkscape:connector-curvature="0"
         id="path5835"
         d="m 220.52349,750.70816 c -6.74485,-2.70415 -11.875,-6.69569 -11.875,-9.23941 0,-1.54028 22.79646,-2.74057 34.30891,-1.80645 5.8801,0.47711 10.69109,1.27591 10.69109,1.77512 0,2.5755 -7.3606,7.64055 -14.41555,9.91978 -9.60391,3.10269 -9.32777,3.11227 -18.70945,-0.64904 z m -71.53822,-18.00465 c -11.87436,-6.0047 -20.67385,-17.84154 -24.67064,-33.18624 -2.17299,-8.34266 -2.47799,-26.00408 -0.59046,-34.19158 3.39101,-14.70918 14.82857,-29.96273 26.89279,-35.8652 6.13377,-3.00098 7.85268,-3.27927 17.11261,-2.77055 13.12135,0.72086 21.88029,4.72296 32.90247,15.03367 5.84439,5.46715 9.29876,10.08327 12.70869,16.98278 4.42996,8.96341 4.68276,10.12459 4.68276,21.50899 0,11.6357 -0.17521,12.38767 -5.29299,22.71575 -4.0383,8.14964 -7.199,12.46468 -13.33368,18.20338 -10.98352,10.27453 -19.82532,14.3385 -32.62333,14.99468 -9.25786,0.47468 -10.57799,0.22044 -17.78822,-3.42568 z m 29.71918,-14.9238 c 25.68069,-9.7579 33.19555,-40.75528 14.42997,-59.52086 -14.25701,-14.257 -34.71485,-14.257 -48.97185,0 -18.64389,18.64389 -11.31717,49.53022 14.10573,59.46376 7.73012,3.02041 12.60153,3.03402 20.43615,0.0571 z m -11.15246,-13.84634 c -11.93549,-2.81796 -19.54088,-15.83411 -16.29898,-27.89469 1.77979,-6.62117 9.46409,-14.174 15.58997,-15.32322 16.02131,-3.00562 28.05551,6.15039 28.05551,21.34551 0,10.74496 -6.10083,19.0773 -15.97632,21.81999 -5.20204,1.44475 -5.46773,1.44597 -11.37018,0.0524 z m 9.61203,-16.57804 c 0.49748,-2.58322 -3.11102,-4.32387 -5.01553,-2.41936 -1.90451,1.90451 -0.16386,5.51301 2.41937,5.01553 1.19731,-0.23058 2.36558,-1.39886 2.59616,-2.59617 z m 11.48447,-3.31029 c 0,-2.30166 -2.85192,-5.59048 -3.92087,-4.52153 -0.31122,0.31121 -0.33562,-1.40627 -0.0542,-3.81661 0.61657,-5.28128 -2.42065,-9.27093 -7.05771,-9.27093 -7.46486,0 -10.4313,8.93362 -4.51241,13.58942 1.76263,1.38649 4.00789,2.2127 4.98946,1.83604 1.03684,-0.39787 2.13231,0.28614 2.61427,1.63235 1.57295,4.39358 3.039,5.47797 5.57275,4.12194 1.30281,-0.69724 2.36874,-2.30404 2.36874,-3.57068 z m 97.5,51.28047 c -25.05835,-8.15877 -44.13502,-34.96205 -42.1063,-59.16057 1.48739,-17.74156 13.66933,-34.98144 31.25419,-44.23092 7.71676,-4.05895 10.38945,-4.79651 19.03685,-5.25345 13.17589,-0.69623 20.2296,2.18147 29.71019,12.12087 11.58458,12.14524 15.85507,23.62863 15.85507,42.63453 0,18.6635 -5.21749,32.85656 -16.04134,43.63699 -8.11316,8.08061 -13.87001,10.58335 -25.20866,10.95923 -5.15625,0.17093 -10.78125,-0.14707 -12.5,-0.70668 z m 17.86479,-17.64954 c 9.43675,-3.53074 16.3104,-9.88279 20.99792,-19.40451 3.62593,-7.36528 3.91702,-8.84138 3.37907,-17.13503 -0.66527,-10.25647 -2.94185,-15.63894 -9.567,-22.61887 -9.35738,-9.85849 -23.38913,-13.28634 -36.52589,-8.923 -9.357,3.1079 -18.98089,12.82632 -21.67058,21.88345 -4.74857,15.99021 0.43743,31.58756 13.65989,41.08321 10.87631,7.81077 18.85271,9.18319 29.72659,5.11475 z m -20.62559,-13.72551 c -18.77671,-5.66012 -21.6879,-32.6179 -4.47096,-41.40133 6.5771,-3.3554 18.00055,-2.88352 23.18606,0.95775 11.94511,8.8486 13.2472,24.02171 2.94548,34.32344 -6.19275,6.19275 -14.05259,8.41352 -21.66058,6.12014 z m 7.52633,-16.59513 c 0.49748,-2.58322 -3.11102,-4.32387 -5.01553,-2.41936 -1.90451,1.90451 -0.16386,5.51301 2.41936,5.01553 1.19732,-0.23058 2.36559,-1.39886 2.59617,-2.59617 z m -8.51553,-4.08185 c 0,-0.83875 1.50301,-1.52501 3.34001,-1.52501 6.03564,0 8.93514,-8.22664 4.59125,-13.02657 -5.08532,-5.61923 -13.62551,-0.88984 -12.70052,7.03331 0.34512,2.95633 0.005,4.43076 -1.0225,4.43076 -2.74878,0 -3.50015,5.26228 -1.01125,7.08221 1.89865,1.38833 2.61145,1.32364 4.52819,-0.41098 1.25115,-1.13229 2.27482,-2.74495 2.27482,-3.58372 z M 105.38203,648.62347 c -5.497058,-4.12041 -12.28936,-12.09387 -15.20002,-17.84325 -3.705558,-7.31952 -5.754366,-19.4234 -4.877406,-28.81457 3.202589,-34.29579 42.374886,-54.67852 73.968886,-38.48864 6.33387,3.2457 19.375,14.90042 19.375,17.31523 0,0.72417 -3.30678,3.13458 -7.3484,5.35648 -20.01876,11.00536 -51.968,43.50924 -56.45418,57.4342 -1.58657,4.92466 -3.39797,7.85305 -4.85763,7.85305 -0.46975,0 -2.54256,-1.26563 -4.60625,-2.8125 z m 242.15635,-6.25 c -4.20466,-9.37057 -16.19951,-24.61649 -26.08385,-33.15361 -14.73363,-12.72544 -24.49123,-19.98426 -31.61629,-23.5198 -4.03357,-2.0015 -7.35761,-4.36201 -7.38676,-5.24557 -0.18475,-5.6008 12.07755,-15.23789 25.1783,-19.78792 7.76285,-2.69612 10.68989,-3.08818 19.38209,-2.5961 8.76277,0.49606 11.76211,1.31713 20.81076,5.69693 10.97651,5.31294 18.03846,12.19447 23.26287,22.66857 7.6215,15.27987 5.48595,37.17438 -5.058,51.85655 -3.60425,5.01883 -11.73173,11.89345 -14.06097,11.89345 -0.50743,0 -2.50009,-3.51563 -4.42815,-7.8125 z"
         style="fill:#4c9ccf" />
      <path
         inkscape:connector-curvature="0"
         id="path5837"
         d="m 220.52349,750.70816 c -6.74485,-2.70415 -11.875,-6.69569 -11.875,-9.23941 0,-1.54028 22.79646,-2.74057 34.30891,-1.80645 5.8801,0.47711 10.69109,1.27591 10.69109,1.77512 0,2.5755 -7.3606,7.64055 -14.41555,9.91978 -9.60391,3.10269 -9.32777,3.11227 -18.70945,-0.64904 z m -71.53822,-18.00465 c -11.87436,-6.0047 -20.67385,-17.84154 -24.67064,-33.18624 -2.17299,-8.34266 -2.47799,-26.00408 -0.59046,-34.19158 3.39101,-14.70918 14.82857,-29.96273 26.89279,-35.8652 6.13377,-3.00098 7.85268,-3.27927 17.11261,-2.77055 13.12135,0.72086 21.88029,4.72296 32.90247,15.03367 5.84439,5.46715 9.29876,10.08327 12.70869,16.98278 4.42996,8.96341 4.68276,10.12459 4.68276,21.50899 0,11.6357 -0.17521,12.38767 -5.29299,22.71575 -4.0383,8.14964 -7.199,12.46468 -13.33368,18.20338 -10.98352,10.27453 -19.82532,14.3385 -32.62333,14.99468 -9.25786,0.47468 -10.57799,0.22044 -17.78822,-3.42568 z m 29.71918,-14.9238 c 25.68069,-9.7579 33.19555,-40.75528 14.42997,-59.52086 -14.25701,-14.257 -34.71485,-14.257 -48.97185,0 -18.64389,18.64389 -11.31717,49.53022 14.10573,59.46376 7.73012,3.02041 12.60153,3.03402 20.43615,0.0571 z m -10.98276,-23.20283 c -8.30486,-3.60994 -10.19295,-16.36216 -3.23315,-21.83675 4.368,-3.43586 5.40995,-3.22302 5.40995,1.10511 0,4.03636 5.1715,9.17613 8.10148,8.05179 2.03293,-0.78011 6.30866,7.45955 4.98353,9.60364 -0.87836,1.42121 -8.3336,4.9814 -10.23236,4.88637 -0.53771,-0.0269 -2.80096,-0.84148 -5.02945,-1.81016 z m 9.44233,-7.22155 c 0.49748,-2.58322 -3.11102,-4.32387 -5.01553,-2.41936 -1.90451,1.90451 -0.16386,5.51301 2.41937,5.01553 1.19731,-0.23058 2.36558,-1.39886 2.59616,-2.59617 z m 108.98447,47.97018 c -25.05835,-8.15877 -44.13502,-34.96205 -42.1063,-59.16057 1.48739,-17.74156 13.66933,-34.98144 31.25419,-44.23092 7.71676,-4.05895 10.38945,-4.79651 19.03685,-5.25345 13.17589,-0.69623 20.2296,2.18147 29.71019,12.12087 11.58458,12.14524 15.85507,23.62863 15.85507,42.63453 0,18.6635 -5.21749,32.85656 -16.04134,43.63699 -8.11316,8.08061 -13.87001,10.58335 -25.20866,10.95923 -5.15625,0.17093 -10.78125,-0.14707 -12.5,-0.70668 z m 17.86479,-17.64954 c 9.43675,-3.53074 16.3104,-9.88279 20.99792,-19.40451 3.62593,-7.36528 3.91702,-8.84138 3.37907,-17.13503 -0.66527,-10.25647 -2.94185,-15.63894 -9.567,-22.61887 -9.35738,-9.85849 -23.38913,-13.28634 -36.52589,-8.923 -9.357,3.1079 -18.98089,12.82632 -21.67058,21.88345 -4.74857,15.99021 0.43743,31.58756 13.65989,41.08321 10.87631,7.81077 18.85271,9.18319 29.72659,5.11475 z m -20.07145,-23.11165 c -4.9939,-2.17021 -6.25843,-4.99009 -3.56994,-7.96084 1.11463,-1.23165 2.0266,-2.82789 2.0266,-3.54719 0,-0.7193 1.50301,-1.30782 3.34001,-1.30782 3.98935,0 6.65999,-3.2286 6.65999,-8.05141 0,-4.66157 2.67096,-4.52935 6.76389,0.33482 5.67909,6.74922 3.17035,17.24229 -4.93176,20.62756 -5.11504,2.1372 -5.15282,2.13685 -10.28879,-0.0951 z m 6.97219,-7.20899 c 0.49748,-2.58322 -3.11102,-4.32387 -5.01553,-2.41936 -1.90451,1.90451 -0.16386,5.51301 2.41936,5.01553 1.19732,-0.23058 2.36559,-1.39886 2.59617,-2.59617 z M 105.38203,648.62347 c -5.497058,-4.12041 -12.28936,-12.09387 -15.20002,-17.84325 -3.705558,-7.31952 -5.754366,-19.4234 -4.877406,-28.81457 3.202589,-34.29579 42.374886,-54.67852 73.968886,-38.48864 6.33387,3.2457 19.375,14.90042 19.375,17.31523 0,0.72417 -3.30678,3.13458 -7.3484,5.35648 -20.01876,11.00536 -51.968,43.50924 -56.45418,57.4342 -1.58657,4.92466 -3.39797,7.85305 -4.85763,7.85305 -0.46975,0 -2.54256,-1.26563 -4.60625,-2.8125 z m 242.15635,-6.25 c -4.20466,-9.37057 -16.19951,-24.61649 -26.08385,-33.15361 -14.73363,-12.72544 -24.49123,-19.98426 -31.61629,-23.5198 -4.03357,-2.0015 -7.35761,-4.36201 -7.38676,-5.24557 -0.18475,-5.6008 12.07755,-15.23789 25.1783,-19.78792 7.76285,-2.69612 10.68989,-3.08818 19.38209,-2.5961 8.76277,0.49606 11.76211,1.31713 20.81076,5.69693 10.97651,5.31294 18.03846,12.19447 23.26287,22.66857 7.6215,15.27987 5.48595,37.17438 -5.058,51.85655 -3.60425,5.01883 -11.73173,11.89345 -14.06097,11.89345 -0.50743,0 -2.50009,-3.51563 -4.42815,-7.8125 z"
         style="fill:#696969" />
      <path
         inkscape:connector-curvature="0"
         id="path5839"
         d="m 222.855,750.80843 c -7.35581,-2.32034 -10.45651,-4.18595 -10.45651,-6.29144 0,-1.52664 3.11683,-1.83102 18.75,-1.83102 10.3125,0 18.75,0.47532 18.75,1.05626 0,2.2789 -5.06401,5.43765 -11.4368,7.13389 -7.84257,2.08744 -8.78764,2.08334 -15.60669,-0.0676 z m -75.27249,-20.4609 c -18.75993,-9.99838 -29.21407,-38.53696 -23.30206,-63.6119 3.88604,-16.48206 14.0904,-30.61266 26.53068,-36.73862 4.65127,-2.29042 8.02388,-2.93604 15.33736,-2.93604 8.20298,0 10.56495,0.56827 18.89342,4.54559 22.16821,10.58659 35.41124,33.21868 32.30337,55.20585 -1.59225,11.26471 -7.45439,22.36263 -16.69164,31.5999 -11.79322,11.79321 -17.89066,14.25944 -35.13015,14.20906 -10.74996,-0.0314 -14.66441,-0.52754 -17.94098,-2.27384 z m 34.77189,-9.32091 c 8.87783,-4.31992 19.54118,-20.31325 21.59372,-32.38714 1.65567,-9.73942 -0.77204,-19.35082 -6.92562,-27.4187 -21.06303,-27.61548 -64.0027,-12.7495 -63.80645,22.09019 0.0553,9.80877 2.6219,16.87307 9.03208,24.85937 2.1452,2.67267 3.90036,5.57992 3.90036,6.46057 0,2.20056 8.05896,6.99141 14.9382,8.88039 6.96171,1.91162 13.89836,1.10122 21.26771,-2.48468 z m -17.55206,-29.4945 c -4.55469,-4.55469 -5.012,-11.78239 -1.06312,-16.80257 4.33439,-5.51029 5.81584,-4.26968 6.0177,5.03941 0.18069,8.33289 1.49489,11.66701 4.59875,11.66701 0.90808,0 2.43232,-1.1154 3.38719,-2.47867 1.48542,-2.12074 2.05989,-2.24194 3.97805,-0.83936 2.10418,1.53863 2.02992,1.80608 -1.20883,4.35368 -5.03005,3.95664 -11.18148,3.58876 -15.70974,-0.9395 z m 111.34615,37.85629 c -9.78461,-4.88605 -21.16199,-16.68293 -26.35567,-27.32744 -4.03413,-8.26796 -4.26933,-9.47451 -4.26933,-21.90129 0,-12.39362 0.24141,-13.64166 4.19043,-21.66325 11.0339,-22.41302 38.1116,-36.68656 57.42627,-30.27125 12.67411,4.20966 23.54406,15.96534 29.2652,31.64988 3.91231,10.72558 3.90579,31.64825 -0.0134,43.00913 -3.52913,10.23019 -10.788,20.60532 -17.83839,25.49645 -5.05455,3.50653 -6.01873,3.69829 -20.4176,4.0606 -14.36345,0.36142 -15.45329,0.2101 -21.98753,-3.05283 z m 32.2029,-8.6456 c 3.61785,-1.61295 6.96016,-3.94495 7.42739,-5.18224 0.46721,-1.23728 3.19955,-5.6938 6.07185,-9.90339 8.88889,-13.02737 10.21384,-26.36704 3.85491,-38.81127 -9.07662,-17.76268 -29.77356,-24.89627 -47.28405,-16.29733 -21.78082,10.69599 -26.89804,37.4704 -10.966,57.37659 2.03115,2.53781 3.693,5.11164 3.693,5.71961 0,3.23813 8.88068,8.702 16.62068,10.22595 6.83018,1.34482 12.4735,0.48719 20.58222,-3.12792 z m -25.67476,-27.50272 c -1.52798,-1.07023 -2.77814,-2.71086 -2.77814,-3.64583 0,-2.75628 2.91755,-2.9196 5.05265,-0.28285 1.35771,1.6767 2.79245,2.1835 4.57748,1.61695 3.0936,-0.98186 4.07981,-4.0899 4.10281,-12.92989 0.0189,-7.25651 0.84039,-7.91824 4.6555,-3.75 3.75994,4.10796 4.45325,7.70004 2.42371,12.55738 -3.24895,7.77583 -11.77541,10.81793 -18.03401,6.43424 z M 101.54925,644.6839 C 87.238157,631.817 81.644626,609.5156 88.123069,591.15374 93.18568,576.80477 108.42664,563.92122 123.4741,561.27066 c 9.41076,-1.65767 10.94453,-1.13186 12.08595,4.14335 1.74824,8.0797 4.75064,13.25549 8.81307,15.19273 5.71664,2.72608 13.02537,9.46697 13.02537,12.01339 0,1.19634 -4.35937,5.87405 -9.6875,10.3949 -17.25014,14.63653 -34.0625,34.07248 -34.0625,39.378 0,3.87784 -2.15214,7.79294 -4.28379,7.79294 -0.9327,0 -4.44966,-2.47592 -7.81545,-5.50207 z m 248.39322,1.83424 c -0.71169,-1.32979 -1.29398,-3.7686 -1.29398,-5.41956 0,-4.14983 -17.2905,-24.47266 -29.49066,-34.66261 -5.35031,-4.46875 -11.45056,-9.62611 -13.5561,-11.4608 l -3.82824,-3.3358 3.125,-3.36756 c 1.71875,-1.85215 5.95661,-4.97679 9.41746,-6.94362 6.0418,-3.43362 6.38992,-3.93178 8.73857,-12.50546 l 2.44607,-8.92939 7.14373,0.64777 c 11.33325,1.02767 23.57445,7.34378 30.55757,15.76685 7.87763,9.50202 10.57553,16.05995 11.3689,27.63499 1.11404,16.25351 -5.71771,33.69264 -16.38705,41.83055 -4.97657,3.79581 -6.53307,3.93645 -8.24127,0.74464 z"
         style="fill:#505050" />
      <path
         inkscape:connector-curvature="0"
         id="path5841"
         d="m 222.39849,749.98159 c -2.40625,-0.67589 -5.19866,-2.03141 -6.20536,-3.01226 -1.58751,-1.54676 0.40254,-1.77809 15,-1.74361 15.11984,0.0358 16.58215,0.22746 14.3881,1.88659 -5.3257,4.02728 -14.85938,5.20726 -23.18274,2.86928 z m -86.65512,-31.48338 c -7.76645,-8.30503 -12.09488,-21.56858 -12.09488,-37.06224 0,-22.83749 10.58203,-42.70835 27.02919,-50.75519 6.06626,-2.96794 7.81159,-3.24848 17.05189,-2.74084 12.88545,0.7079 21.72015,4.64792 32.22052,14.36941 19.24958,17.82171 22.65063,43.63819 8.61061,65.36082 -4.95893,7.67245 -13.56596,15.0158 -17.59976,15.0158 -3.08964,0 -3.03165,-0.14725 2.39665,-6.08573 6.68636,-7.31478 12.08674,-24.74158 11.25546,-36.321 -0.99945,-13.92215 -7.59471,-23.83958 -19.96429,-30.02073 -24.02529,-12.00558 -52.19614,5.31063 -52.23806,32.10998 -0.007,4.36824 1.03838,10.97587 2.37273,15 1.31172,3.95587 2.69718,8.61382 3.0788,10.35101 0.38162,1.73718 2.72776,5.53468 5.21366,8.43888 3.09276,3.61321 3.99534,5.44416 2.8587,5.79911 -3.74317,1.16893 -6.84901,0.11463 -10.19122,-3.45928 z m 179.15512,3.40176 c 0,-0.4323 1.95448,-2.94936 4.34328,-5.59349 2.3888,-2.64411 4.69866,-6.36854 5.13302,-8.2765 0.43438,-1.90795 1.91806,-6.66992 3.29711,-10.58216 3.36864,-9.55656 2.78853,-23.0314 -1.33508,-31.01185 -6.52405,-12.62599 -16.58734,-19.01174 -31.19025,-19.79205 -8.23945,-0.44029 -9.90387,-0.10525 -17.11703,3.4458 -12.44289,6.12561 -19.36,16.38677 -20.34719,30.18392 -0.49565,6.9275 0.0451,10.12702 3.4115,20.18245 2.73607,8.17277 5.15488,13.05577 7.65259,15.44873 4.35016,4.16771 4.58619,5.53115 0.95754,5.53115 -6.72643,0 -18.24239,-14.26174 -22.60503,-27.99478 -7.13776,-22.46875 5.45793,-48.77641 29.12377,-60.82867 10.67705,-5.43748 25.16638,-6.5959 33.94271,-2.71372 11.42149,5.05227 21.01611,16.61113 25.88581,31.18523 3.0997,9.27681 3.51371,27.42354 0.85359,37.4142 -2.17723,8.17708 -7.88584,18.71487 -11.81095,21.80235 -2.81749,2.21624 -10.19539,3.37364 -10.19539,1.59939 z M 165.43938,691.0557 c -4.4877,-3.86017 -4.92791,-12.03827 -0.8666,-16.09958 3.69969,-3.69969 4.87386,-2.10185 2.35544,3.20534 -2.22317,4.68499 -1.44199,8.88136 2.2189,11.91963 2.44498,2.02916 8.5937,2.2029 9.24095,0.26113 0.25782,-0.77344 1.40625,-1.38754 2.55209,-1.36466 1.66295,0.0332 1.48787,0.53765 -0.86765,2.5 -4.01775,3.34712 -10.4676,3.16117 -14.63313,-0.42186 z m 117.51249,1.10747 c -3.39547,-2.48283 -1.41924,-3.85217 2.16762,-1.50196 3.65599,2.3955 8.11894,0.57307 10.95041,-4.47156 1.6877,-3.00684 1.65538,-3.78938 -0.32828,-7.94918 -2.65618,-5.57005 -1.77352,-7.04045 1.97568,-3.29124 4.17018,4.17018 3.80897,12.09064 -0.72942,15.9944 -3.95656,3.40329 -10.29625,3.95413 -14.03601,1.21954 z M 101.6782,643.73529 c -4.245644,-4.01535 -8.346036,-9.5492 -10.861109,-14.65803 -3.777575,-7.67335 -4.040572,-9.06327 -4.042035,-21.36183 -0.0018,-15.02112 1.72127,-19.90416 10.706653,-30.34196 6.100611,-7.08673 9.177081,-7.59135 11.082531,-1.81778 l 1.35963,4.11971 11.54981,-0.48828 c 13.29952,-0.56225 21.90045,1.8942 29.98731,8.56448 5.58325,4.60522 5.84793,6.79346 1.25544,10.37947 -1.88763,1.47394 -8.66407,7.32052 -15.05875,12.9924 -6.39468,5.67187 -11.87992,10.3125 -12.18943,10.3125 -0.3095,0 -4.01112,-2.53855 -8.22581,-5.64123 -4.21469,-3.10268 -9.13814,-5.96216 -10.94101,-6.35441 -1.80287,-0.39224 -3.98106,-0.92978 -4.84044,-1.19453 -2.219276,-0.6837 -2.038282,9.88428 0.30439,17.77292 1.02679,3.45758 3.89156,8.93813 6.36615,12.17901 3.39088,4.44089 4.31082,6.64334 3.7343,8.94037 -0.42073,1.67633 -1.35042,3.04787 -2.06598,3.04787 -0.71556,0 -4.3703,-2.9028 -8.12165,-6.45068 z m 249.66179,3.64218 c -2.3151,-2.3151 -1.67702,-6.38657 1.72315,-10.99525 1.74056,-2.3592 3.99056,-7.07057 5,-10.46972 1.77905,-5.99068 2.56021,-19.47653 1.12818,-19.47653 -1.26317,0 -5.99837,2.71705 -14.55264,8.35029 l -8.38481,5.52165 -12.63404,-10.71046 c -6.94873,-5.89075 -14.00369,-11.60788 -15.67769,-12.70473 -4.41159,-2.89058 -3.76521,-6.16837 2.0466,-10.37843 8.3026,-6.01437 16.12881,-7.99812 28.72126,-7.28013 10.62602,0.60587 10.97584,0.53779 12.31262,-2.39612 0.75673,-1.66084 1.37587,-3.83699 1.37587,-4.83589 0,-5.08726 8.48828,1.37501 15.67523,11.93382 10.24856,15.05683 7.83478,41.11865 -5.18698,56.00449 -6.73196,7.69564 -9.50321,9.48055 -11.54675,7.43701 z"
         style="fill:#2f2f2f" />
      <path
         inkscape:connector-curvature="0"
         id="path5843"
         d="m 224.27349,748.93597 c -1.68897,-0.72578 0.54133,-1.07429 6.875,-1.07429 6.33368,0 8.56398,0.34851 6.875,1.07429 -1.375,0.59086 -4.46875,1.07429 -6.875,1.07429 -2.40625,0 -5.5,-0.48343 -6.875,-1.07429 z m 26.43134,-50.20405 c -5.68685,-8.77303 -5.80295,-27.17336 -0.24559,-38.92066 9.00429,-19.03351 32.72961,-34.07008 50.01821,-31.70042 23.80793,3.26324 41.42693,32.33143 36.9778,61.00672 -2.18407,14.07671 -3.72502,14.6715 -3.76875,1.45469 -0.0209,-6.3188 -0.60051,-11.83638 -1.28801,-12.26128 -0.6875,-0.4249 -1.25,-1.89975 -1.25,-3.27746 0,-4.64889 -6.74306,-16.31908 -12.20939,-21.13074 -6.94543,-6.11361 -14.69346,-8.7168 -25.94433,-8.7168 -7.6317,0 -10.14373,0.60162 -16.96244,4.0625 -13.93174,7.07112 -21.16375,20.36746 -21.81348,40.1049 -0.19992,6.07332 -0.64635,11.32525 -0.99205,11.67095 -0.3457,0.34571 -1.48058,-0.68588 -2.52197,-2.2924 z m -124.32741,-2.55319 c -3.74009,-10.58767 -1.38796,-32.6895 4.75763,-44.70514 6.27596,-12.27053 19.26765,-21.9749 31.33161,-23.4037 17.44431,-2.06602 41.07986,13.1818 49.74603,32.09229 4.3009,9.38501 5.14396,24.31171 1.86639,33.0448 -3.53391,9.41609 -5.14766,8.68081 -5.78715,-2.63682 -1.10833,-19.61512 -6.68999,-31.39854 -18.82364,-39.73852 l -7.30449,-5.02067 -13.32015,0 c -12.27187,0 -13.77918,0.26984 -19.15271,3.42869 -12.84283,7.54971 -19.55544,20.49437 -20.9091,40.32131 -0.76122,11.1495 -0.78269,11.20862 -2.40442,6.61776 z m -24.16198,-53.15995 c -3.479273,-3.25445 -7.940294,-9.11518 -9.91338,-13.02384 -6.102627,-12.08923 -6.862958,-31.22685 -1.64177,-41.32351 4.342769,-8.39799 7.871304,-0.41071 7.018782,15.8879 -0.761031,14.54945 2.319453,26.12282 9.044258,33.97924 4.23689,4.94986 5.87241,10.3974 3.12161,10.3974 -0.71695,0 -4.15023,-2.66274 -7.6295,-5.91719 z m 249.05464,2.39439 c -0.96693,-1.80672 -0.3308,-3.57409 2.94455,-8.18093 6.04894,-8.50797 8.64737,-19.33532 7.89435,-32.89474 -0.59438,-10.70248 1.33755,-20.40153 4.06372,-20.40153 0.55153,0 2.31858,2.67187 3.92678,5.9375 2.45896,4.99318 2.91622,7.82615 2.87509,17.8125 -0.0589,14.28389 -2.99535,22.96617 -10.74542,31.77071 -6.64485,7.54894 -9.32671,9.00659 -10.95907,5.95649 z M 125.52349,604.5412 c -4.125,-2.99033 -10.73308,-7.0217 -14.68463,-8.9586 -3.95155,-1.9369 -7.18592,-4.22476 -7.1875,-5.08413 -0.005,-2.97155 4.92674,-6.4722 12.0272,-8.53636 11.91595,-3.46406 25.64119,-0.53132 35.15743,7.51227 3.71445,3.13963 5.42504,6.96159 3.1158,6.96159 -0.52068,0 -4.49405,3.09375 -8.82969,6.875 -4.33565,3.78125 -8.83151,6.82824 -9.9908,6.7711 -1.1593,-0.0572 -5.48281,-2.55054 -9.60781,-5.54087 z m 190.81941,-2.16888 c -5.52642,-4.29624 -10.08097,-8.48585 -10.12122,-9.31024 -0.0935,-1.91506 6.88101,-7.25335 12.5968,-9.64155 6.94457,-2.90163 16.41975,-3.70228 23.55551,-1.99044 6.46219,1.55026 13.7745,6.44674 13.7745,9.22371 0,0.82257 -3.51562,3.22929 -7.8125,5.34825 -4.29687,2.11896 -10.34375,5.78005 -13.4375,8.13576 -3.09375,2.3557 -6.27357,4.67972 -7.06627,5.16448 -0.82185,0.50258 -5.75964,-2.47573 -11.48932,-6.92997 z"
         style="fill:#0a0a0a" />
    </g>
    <path
       style="opacity:1;fill:url(#linearGradient5863);fill-opacity:1;fill-rule:evenodd;stroke:none;stroke-width:1.45899999;stroke-miterlimit:4;stroke-dasharray:none;stroke-opacity:1"
       id="path5847"
       sodipodi:type="arc"
       sodipodi:cx="44.044388"
       sodipodi:cy="942.71838"
       sodipodi:rx="19.059406"
       sodipodi:ry="47.709438"
       sodipodi:start="1.6115656"
       sodipodi:end="4.6745765"
       d="M 43.267565,990.38818 A 19.059406,47.709438 0 0 1 24.985002,942.64785 19.059406,47.709438 0 0 1 43.323876,895.04305"
       sodipodi:open="true" />
    <path
       sodipodi:open="true"
       d="m -214.81279,991.55334 a 19.059406,47.709438 0 0 1 -18.27933,-48.55099 19.059406,47.709438 0 0 1 18.98321,-46.82789"
       sodipodi:end="4.7085618"
       sodipodi:start="1.6115656"
       sodipodi:ry="47.709438"
       sodipodi:rx="19.059406"
       sodipodi:cy="943.88354"
       sodipodi:cx="-214.03596"
       sodipodi:type="arc"
       id="path5865"
       style="opacity:1;fill:url(#linearGradient5867);fill-opacity:1;fill-rule:evenodd;stroke:none;stroke-width:1.45899999;stroke-miterlimit:4;stroke-dasharray:none;stroke-opacity:1"
       transform="scale(-1,1)" />
  </g>
</svg>
