/* XPM */
static char *digger[] = {
  /* columns rows colors chars-per-pixel */
  "47 34 7 1 ",
  "  c #040404",
  ". c #FA4F4F",
  "X c #04AF04",
  "o c #4FFA4F",
  "O c #AFAF04",
  "+ c #FAFAFA",
  "@ c None",
  /* pixels */
  "@@@@@@@@@@@@@@@@@@@@@@@@@@@@@@@@@@@@@@@@@@@@@@@",
  "@@@@@@@@@@@@@@@@@@@@@@@@@@@@@@@@@@@@@@@@@@@@@@@",
  "@@@@@@@@@@@@@@@@@@@@@@@@@@@@@@@@@@@@@@@@@@@@@@@",
  "@@@@@@@@@@@@@@@@@@@@@@@@@@@@@@@@@@@@@@@@@@@@@@@",
  "@@@@@@@@@@@@@@@@@@@@@@@@@@@@@@@@@@@@@@@@@@@@@@@",
  "@@@@@@@@@@@@@@@@@@@@@@@@@@@@@@@@@@@@@@@@@@@@@@@",
  "@@@@@@@@@@@@@@@@@@@@@@@@  @@@@@@@@@@@@@@@@@@@@@",
  "@@@@@@@@@@@@@@@@@@@@@@  @o  @@@@@@@@@@@@@@@@@@@",
  "@@@@@@@@@@@@@@@@@@@@@ @@oo@o @@@@@@@@@@@@@@@@@@",
  "@@@@@@@@@@@@@@@@@@@@@ @oOOoO @@@@@@   @@@@@@@@@",
  "@@@@@@@@@@@@@@@@@@@@ @oO  @oO @@@@ @oo @@@@@@@@",
  "@@@@@@@@@@@@@@@@@@@@ @oO  @oO @@@ @@oo @@@@@@@@",
  "@@@@@@@@@@@@@@@@@@@@ @oO  @oO @@ @@oXX @@@@@@@@",
  "@@@@@@@@@@@@@@@@@   ooooooooo   @@oXX @@@@@@@@@",
  "@@@@@@@@@@@@@@@  ooo.o.o.o.o...@@oXX @@@@@@@@@@",
  "@@@@@@@@@@@@@@ oo.o...o...o....@oXX @@@@@@@@@@@",
  "@@@@@@@@@@@@@ oo.o..o...o.. .  ooXX @@@@@@@@@@@",
  "@@@@@@@@@@@@ oo............... oXX @@@@@@@@@@@@",
  "@@@@@@@@@@@+oo..o..o....... .  oXX @@@@@@@@@@@@",
  "@@@@@@@@@@++o.o............... ooXo @@@@@@@@@@@",
  "@@@@@@@@@@++..  ..... ... ...  XoXo @@@@@@@@@@@",
  "@@@@@@@@@@++  oO  . ... ... .. XXoXo @@@@@@@@@@",
  "@@@@@@@@@@@+ooOOoO .......  .   ooooo @@@@@@@@@",
  "@@@@@@@@@@@+oO  OO . . .  oO  @@ ooooo @@@@@@@@",
  "@@@@@@@@@@++O    oO     ooOOoO @@ ooXo @@@@@@@@",
  "@@@@@@@@@@++O    oO     oO  OO @@@ ooX @@@@@@@@",
  "@@@@@@@@@@@+oO  oO @@@ oO    oO @@@   @@@@@@@@@",
  "@@@@@@@@@@@+OOooOO @@@ OO    oO @@@@@@@@@@@@@@@",
  "@@@@@@@@@@@@  OO  @@@@@ oO  oO @@@@@@@@@@@@@@@@",
  "@@@@@@@@@@@@@@  @@@@@@@ OOooOO @@@@@@@@@@@@@@@@",
  "@@@@@@@@@@@@@@@@@@@@@@@@  OO  @@@@@@@@@@@@@@@@@",
  "@@@@@@@@@@@@@@@@@@@@@@@@@@  @@@@@@@@@@@@@@@@@@@",
  "@@@@@@@@@@@@@@@@@@@@@@@@@@@@@@@@@@@@@@@@@@@@@@@",
  "@@@@@@@@@@@@@@@@@@@@@@@@@@@@@@@@@@@@@@@@@@@@@@@"
};
