/* XPM */
static char *lms[] = {
/* columns rows colors chars-per-pixel */
"32 32 236 2",
"   c #2D2D0A",
".  c #2F2F0C",
"X  c #32320F",
"o  c #32330F",
"O  c #333410",
"+  c #343411",
"@  c #343511",
"#  c #353512",
"$  c #363713",
"%  c #363714",
"&  c #373714",
"*  c #373814",
"=  c #373815",
"-  c #383915",
";  c #383916",
":  c #393916",
">  c #393A16",
",  c #393A17",
"<  c #3A3A17",
"1  c #3A3B17",
"2  c #3B3B18",
"3  c #3B3C18",
"4  c #3C3C19",
"5  c #3C3D19",
"6  c #3D3D1A",
"7  c #3D3E1A",
"8  c #3E3E1B",
"9  c #3E3F1B",
"0  c #3F3F1C",
"q  c #3F401C",
"w  c #40401D",
"e  c #40411D",
"r  c #41411E",
"t  c #41421E",
"y  c #43431D",
"u  c #42421F",
"i  c #42431F",
"p  c #4F511E",
"a  c #55561F",
"s  c #56581F",
"d  c #434320",
"f  c #434420",
"g  c #444421",
"h  c #444521",
"j  c #454522",
"k  c #454622",
"l  c #464623",
"z  c #464723",
"x  c #474724",
"c  c #474824",
"v  c #484825",
"b  c #484925",
"n  c #484926",
"m  c #494926",
"M  c #494A26",
"N  c #4A4A27",
"B  c #4A4B27",
"V  c #4E4E25",
"C  c #4A4B28",
"Z  c #4B4B28",
"A  c #4B4C28",
"S  c #4B4C29",
"D  c #4C4C29",
"F  c #4C4D29",
"G  c #4C4D2A",
"H  c #4D4D2A",
"J  c #4D4E2A",
"K  c #4D4E2B",
"L  c #4E4E2B",
"P  c #4E4F2B",
"I  c #4E4F2C",
"U  c #4F4F2C",
"Y  c #4F502C",
"T  c #4F502D",
"R  c #525423",
"E  c #50502C",
"W  c #50502D",
"Q  c #50512C",
"!  c #50512D",
"~  c #50512E",
"^  c #51512E",
"/  c #51522D",
"(  c #51522E",
")  c #51522F",
"_  c #52522E",
"`  c #52522F",
"'  c #52532F",
"]  c #56572B",
"[  c #54542D",
"{  c #56562D",
"}  c #57572E",
"|  c #5A5B26",
" . c #5B5B2A",
".. c #5A5A2C",
"X. c #5C5D2B",
"o. c #5C5E2B",
"O. c #5E5F2B",
"+. c #5C5D2C",
"@. c #535330",
"#. c #535430",
"$. c #545431",
"%. c #545531",
"&. c #555532",
"*. c #555632",
"=. c #565633",
"-. c #565733",
";. c #575734",
":. c #575834",
">. c #585835",
",. c #585935",
"<. c #595936",
"1. c #595A36",
"2. c #5A5A37",
"3. c #5A5B37",
"4. c #5B5B38",
"5. c #5B5C38",
"6. c #5C5C39",
"7. c #5C5D39",
"8. c #5D5D3A",
"9. c #5D5E3A",
"0. c #5D5E3B",
"q. c #5E5E3B",
"w. c #5E5F3B",
"e. c #5E602A",
"r. c #5F612A",
"t. c #5F6037",
"y. c #5F603C",
"u. c #62641A",
"i. c #6D711C",
"p. c #71751C",
"a. c #767A1C",
"s. c #767A1D",
"d. c #616229",
"f. c #61632A",
"g. c #62632A",
"h. c #62642A",
"j. c #63642A",
"k. c #63642D",
"l. c #646529",
"z. c #646628",
"x. c #65672A",
"c. c #666828",
"v. c #676928",
"b. c #676A28",
"n. c #6C6E27",
"m. c #6D6F27",
"M. c #686A28",
"N. c #696B29",
"B. c #6A6D2C",
"V. c #6C6F2B",
"C. c #636336",
"Z. c #636435",
"A. c #646537",
"S. c #60603D",
"D. c #60613E",
"F. c #6B6D30",
"G. c #6E7125",
"H. c #6E7027",
"J. c #6E7226",
"K. c #6D7028",
"L. c #707323",
"P. c #717325",
"I. c #707326",
"U. c #737620",
"Y. c #717426",
"T. c #727525",
"R. c #727624",
"E. c #737625",
"W. c #737725",
"Q. c #747725",
"!. c #747727",
"~. c #747820",
"^. c #757921",
"/. c #757923",
"(. c #767A23",
"). c #777A22",
"_. c #757824",
"`. c #747826",
"'. c #757827",
"]. c #767924",
"[. c #767A27",
"{. c #777A29",
"}. c #777A2A",
"|. c #76792C",
" X c #76782E",
".X c #777B2D",
"XX c #7B7F22",
"oX c #787C24",
"OX c #797C24",
"+X c #797C27",
"@X c #7C7F21",
"#X c #7C7F28",
"$X c #727531",
"%X c #7C8022",
"&X c #7D8122",
"*X c #7D8123",
"=X c #7E8122",
"-X c #7D8125",
";X c #7D8029",
":X c #7E8129",
">X c #7E8229",
",X c #80851C",
"<X c #84891F",
"1X c #878D1F",
"2X c #898D1E",
"3X c #898E1F",
"4X c #8A8F1F",
"5X c #8B901F",
"6X c #8C921E",
"7X c #8C921F",
"8X c #8D921E",
"9X c #8D931E",
"0X c #8E941D",
"qX c #8F951D",
"wX c #90951D",
"eX c #90951F",
"rX c #91961C",
"tX c #91961D",
"yX c #92981D",
"uX c #93991C",
"iX c #93991D",
"pX c #949A1C",
"aX c #969C1C",
"sX c #808421",
"dX c #808422",
"fX c #828621",
"gX c #808427",
"hX c #828727",
"jX c #838820",
"kX c #848820",
"lX c #848920",
"zX c #858A20",
"xX c #858924",
"cX c #888D22",
"vX c #8C9122",
"bX c #8E9420",
/* pixels */
"O = < 3 9 9 r d h v F W F v C Z F F W >.<.@.F A M A M x 0 < < = ",
"= < 2 9 9 r r f v I @.I Z F _ 4.4._ I _ :.:.&.T I F C v h g 0 < ",
"< 9 9 9 r r h c F @.F C F W @.w.4._ _ I T @.@._ C F M x h r r r ",
"< 9 9 9 r d h F I F M C F F _ >.=.W _ @._ I <.4.&.F C v h d r 9 ",
"9 q 9 r r i M F C c M C I I _ I @._ _ I I F T =.&.I M h h d r r ",
"9 0 9 r r M A A h M F I I I @.@.@.W @.T @.I F C _ F M r h r r r ",
"1 9 9 r v M M h x M A I _ @.@._ _ T @._ W I I x M F F x r 9 q 9 ",
"1 2 w h x v h h c A I @.=.<.w.w.4.4.=.=._ I I M v v F M h 9 2 9 ",
"< 9 d h M i i h Z _ <.w.y.y.y.y.y.S.y.y.w.<._ T M h C Z M g 2 9 ",
"2 r h v M F E F &.<.<.<.<.&.&.@.@.{ >.w.y.y.w.&.W W I Z C v r 1 ",
"r h h R U.J.*XH.=.=.&.OXJ.r._ _ _ _ !.m.V.A.#X#XB.x.W I F M v w ",
"h h v V ^.qX<Xk.@._ _ ^.aX5X_ _ _ x.wX!.f.*XcX#XaX'.@._ I C M h ",
"h w w h | aXW.' _ _ _ f.qXaXM._ _ ,X<XV.f.2X!.5.|.-X@.W M g h v ",
"9 9 9 9 a wX!._ _ I T ..*XwX<XY +.uX<Xm.] 0XrX#XA.F.@.v h r w g ",
"< 9 9 9 a uX!._ T T T _ J.OXaX .dX!.2X*XT x.cX0XbXZ._ M h r w 9 ",
"< < 9 9 a 0X!._ ) _ @.@.I.+.aX+.<X{ 0X<Xf.....}.aXhX&.Z h r r 9 ",
"< 4 4 0 r a.!.@.T r.5Xl.!._ <XJ.!.W 0X<X!.dX=.w.vXxX_ C h r r 9 ",
"3 4 4 0 i.,X<X!.OX5X%Xb.2Xf.v.aX .x.rX0Xf.aXgX$XwX!.F M g r w 9 ",
"< < 9 1 u.a.p.s.%X*Xl.{ ^.W._ I._ ^.-X}.t.|..X#XN.E M h r 9 9 2 ",
"< 4 1 1 9 9 w r M Y &.' &.&.=.=.=.<.5.w.w.w.5.@.F F M r 0 9 2 1 ",
"< 4 < 4 9 9 9 w r i F ' @.&.4.4.<.4.5.5.<._ F A F C h r 9 2 9 < ",
"< > 3 4 < 9 9 w r r i F @.=.=.=.<.<.5.:.F F A M M M h r w 9 1 < ",
"< > > 3 3 9 9 9 r r i M I @.&.<.<.<.<.@.A A M M M v g r w 9 2 2 ",
"4 9 9 9 9 r q r i f c A I @._ =.:.5.:.&.T Y F M M h h g r w w 0 ",
"w r r i i i h h h v Z F _ _ @.=.&.&.@._ _ _ _ F I F Z M v h h h ",
"4 0 r r r i i w h M M M I Z C x x F I I F F F F M g h v g g g r ",
"< 4 0 9 w i r w h h h c c c M C M f M A C M M M h r h h h h g r ",
"$ < > 4 w r w w 0 1 h d 0 d x x x x r d c c c M r w h h g g r r ",
"o $ > 3 9 r w 9 r 9 9 r h h h r 2 r r 0 < h h h 9 < i r r r r r ",
"X o O < 4 9 9 w r 9 r d h h h h 9 % O % $ 9 h h h 9 r r r r r r ",
". X O < > 4 w w r f d d h x f d 0 < 9 9 i h h h r r r r r w 9 9 ",
"  . o o $ > 4 9 r r r d r d d r 9 9 q 0 r i r i r i r r r 9 9 9 "
};
