/* XPM */
static char * dudestar_xpm[] = {
"48 48 210 2",
"  	c #1311CD",
". 	c #2322CC",
"+ 	c #4546C7",
"@ 	c #4344C8",
"# 	c #3838CA",
"$ 	c #1B1ACD",
"% 	c #110FCD",
"& 	c #8B8DB1",
"* 	c #F0F424",
"= 	c #F0F425",
"- 	c #EEF22D",
"; 	c #EAEE3F",
"> 	c #DEE15F",
", 	c #C9CC80",
"' 	c #A7A9A0",
") 	c #6668BF",
"! 	c #1816CD",
"~ 	c #B1B498",
"{ 	c #F3F700",
"] 	c #F2F612",
"^ 	c #D7DA6C",
"/ 	c #8A8DB1",
"( 	c #1A19CD",
"_ 	c #CED279",
": 	c #F3F707",
"< 	c #CACE7E",
"[ 	c #4747C7",
"} 	c #E6EA4B",
"| 	c #DDE161",
"1 	c #4D4EC6",
"2 	c #585AC3",
"3 	c #F1F518",
"4 	c #D2D673",
"5 	c #2323CC",
"6 	c #8C8FB0",
"7 	c #D7DB6B",
"8 	c #C6C984",
"9 	c #C7CB82",
"0 	c #D0D376",
"a 	c #E1E557",
"b 	c #F3F702",
"c 	c #9DA0A6",
"d 	c #B1B497",
"e 	c #7C7EB8",
"f 	c #1210CD",
"g 	c #1917CD",
"h 	c #5E5FC2",
"i 	c #B5B895",
"j 	c #E1E558",
"k 	c #2626CC",
"l 	c #CED278",
"m 	c #EFF327",
"n 	c #4242C8",
"o 	c #7779BA",
"p 	c #EBEF3D",
"q 	c #F3F701",
"r 	c #7C7EB7",
"s 	c #2121CC",
"t 	c #E6EA4D",
"u 	c #DFE25D",
"v 	c #1513CD",
"w 	c #979AAA",
"x 	c #5758C4",
"y 	c #F2F611",
"z 	c #C5C884",
"A 	c #2726CC",
"B 	c #E3E752",
"C 	c #CDD07B",
"D 	c #8D8FB0",
"E 	c #A6A8A0",
"F 	c #C2C588",
"G 	c #DCE062",
"H 	c #B2B597",
"I 	c #AAAC9E",
"J 	c #E3E753",
"K 	c #1918CD",
"L 	c #CFD278",
"M 	c #EFF328",
"N 	c #9EA1A6",
"O 	c #E5E84F",
"P 	c #1B19CD",
"Q 	c #1E1DCC",
"R 	c #DFE35D",
"S 	c #A0A2A5",
"T 	c #E2E557",
"U 	c #5859C3",
"V 	c #A9AB9E",
"W 	c #DBDF65",
"X 	c #1412CD",
"Y 	c #8D90AF",
"Z 	c #A6A9A0",
"` 	c #B6B993",
" .	c #D1D475",
"..	c #7D7FB7",
"+.	c #C7CA82",
"@.	c #C1C489",
"#.	c #4040C8",
"$.	c #DBDE65",
"%.	c #A9AC9E",
"&.	c #1C1BCC",
"*.	c #E7EB4A",
"=.	c #1716CD",
"-.	c #EDF133",
";.	c #8587B4",
">.	c #5A5BC3",
",.	c #F2F616",
"'.	c #F0F423",
").	c #494AC7",
"!.	c #8E90AF",
"~.	c #B3B696",
"{.	c #1F1ECC",
"].	c #E0E45A",
"^.	c #CFD377",
"/.	c #4243C8",
"(.	c #8385B5",
"_.	c #F3F706",
":.	c #F2F60C",
"<.	c #7375BB",
"[.	c #1514CD",
"}.	c #D0D476",
"|.	c #595AC3",
"1.	c #F2F60F",
"2.	c #8688B3",
"3.	c #F2F610",
"4.	c #4849C7",
"5.	c #E3E754",
"6.	c #3131CA",
"7.	c #3434CA",
"8.	c #D2D574",
"9.	c #F3F705",
"0.	c #9395AC",
"a.	c #4A4AC7",
"b.	c #CCD07B",
"c.	c #1F1FCC",
"d.	c #E7EB49",
"e.	c #DFE35C",
"f.	c #9092AE",
"g.	c #E5E850",
"h.	c #4F50C5",
"i.	c #1715CD",
"j.	c #C5C984",
"k.	c #2423CC",
"l.	c #6264C1",
"m.	c #A2A5A3",
"n.	c #F3F703",
"o.	c #ECF037",
"p.	c #7476BB",
"q.	c #ABAD9D",
"r.	c #8F91AF",
"s.	c #DADE66",
"t.	c #E0E45B",
"u.	c #EBEE3D",
"v.	c #ECF036",
"w.	c #8284B5",
"x.	c #4445C8",
"y.	c #EDF134",
"z.	c #8285B5",
"A.	c #E4E851",
"B.	c #7577BA",
"C.	c #A8AB9F",
"D.	c #C8CB81",
"E.	c #4A4BC7",
"F.	c #DDE160",
"G.	c #EEF230",
"H.	c #4F50C6",
"I.	c #E7EB48",
"J.	c #D3D771",
"K.	c #7E80B7",
"L.	c #7F81B6",
"M.	c #BBBE8F",
"N.	c #C4C786",
"O.	c #CDD17A",
"P.	c #F3F708",
"Q.	c #DEE25E",
"R.	c #CCCF7C",
"S.	c #B8BB92",
"T.	c #5C5DC2",
"U.	c #F2F614",
"V.	c #F2F60D",
"W.	c #E4E852",
"X.	c #BABD90",
"Y.	c #7172BC",
"Z.	c #2D2DCB",
"`.	c #C0C38A",
" +	c #F3F709",
".+	c #5354C5",
"++	c #8486B4",
"@+	c #E5E94E",
"#+	c #CED179",
"$+	c #6A6BBE",
"%+	c #F0F420",
"&+	c #F3F704",
"*+	c #C3C686",
"=+	c #3535CA",
"-+	c #A0A3A4",
";+	c #C1C488",
">+	c #1D1CCC",
",+	c #ACAF9C",
"'+	c #C6C983",
")+	c #EFF32B",
"!+	c #3232CA",
"~+	c #1413CD",
"{+	c #6D6FBD",
"]+	c #F2F613",
"^+	c #6667BF",
"/+	c #7173BC",
"(+	c #B0B398",
"_+	c #3636CA",
":+	c #8F92AE",
"<+	c #1817CD",
"                                                                                                ",
"                                                                                                ",
"                                                                                                ",
"                                                                                                ",
"                      . + + + + + + + + + + @ # $ %                                             ",
"                      & * * * * * * * * * * = - ; > , ' ) !                                     ",
"                      ~ { { { { { { { { { { { { { { { { ] ^ / (                                 ",
"                      _ { { { { { { { { { { { { { { { { { { : < [                               ",
"                    $ } { { { { { { { { { { { { { { { { { { { { | 1                             ",
"                    2 3 { { { { { { { { { { { { { { { { { { { { { 4 5                           ",
"                    6 { { { { { { 7 8 8 8 9 0 a 3 { { { { { { { { b c                           ",
"                    d { { { { { { e         f g h i - { { { { { { { j k                         ",
"                  f l { { { { { m n                 o p { { { { { { q r                         ",
"                  s t { { { { { u v                   w { { { { { { { ~                         ",
"                  x y { { { { { z                     A B { { { { { { C                         ",
"                  D { { { { { { E                       F { { { { { { G v                       ",
"                  H { { { { { { r                       I { { { { { { J K                       ",
"                  L { { { { { M @                       N { { { { { { O P                       ",
"                Q } { { { { { R f                       S { { { { { { T !                       ",
"                U y { { { { { z                         V { { { { { { W X                       ",
"                Y { { { { { { Z                         ` { { { { { {  .                        ",
"                H { { { { { b ..                        +.{ { { { { { @.                        ",
"                L { { { { { * #.                      f $.{ { { { { { %.                        ",
"              &.*.{ { { { { u =.                      # -.{ { { { { { ;.                        ",
"              >.,.{ { { { { z                         e { { { { { { '.).                        ",
"              !.{ { { { { { Z                         ~.{ { { { { { $.v                         ",
"              H { { { { { { r                       {.].{ { { { { { ~.                          ",
"            f ^.{ { { { { m /.                      (._.{ { { { { :.<.                          ",
"            . } { { { { { u [.                    v }.{ { { { { { | $                           ",
"            |.1.{ { { { { z                       2.3.{ { { { { q N                             ",
"            !.{ { { { { { Z                     4.J { { { { { { 5.6.                            ",
"            ~.{ { { { { { ..                  7.8.{ { { { { { 9.0.                              ",
"            ^.{ { { { { M @                 a.8.{ { { { { { { b.$                               ",
"          c.d.{ { { { { e.f             {.f.g.{ { { { { { { O h.              i.                ",
"          >.3.{ { { { { j.f f f % k.l.m.$.n.{ { { { { { { o.p.                q.s               ",
"          r.{ { { { { { d.s.s.$.t.u.y { { { { { { { { { v.w.                x.y.z.              ",
"          ~.{ { { { { { { { { { { { { { { { { { { { { A.B.                  C.{ D.f             ",
"          0 { { { { { { { { { { { { { { { { { { { ] z E.                  . F.{ G.H.            ",
"        Q I.{ { { { { { { { { { { { { { { { { 3.J.K.[.            L.M.N.O.^ P.{ { Q.R.N.S.w i.  ",
"        T.U.{ { { { { { { { { { { { { { V.W.X.Y.=.                Z.`. +{ { { { { { { { ^ .+    ",
"        ++@+@+@+@+@+@+@+@+@+g.j s.#+M.c $+{.                        K C.%+{ { { { { &+*+=+      ",
"                              f % f                                     -+{ { { { { ;+>+        ",
"                                                                        ,+{ { { { { '+          ",
"                                                                      X 0 { 3 8.)+{ @+>+        ",
"                                                                      !+p e.++~+{+^ ]+^+        ",
"                                                                      /+(+_+      . m.:+        ",
"                                                                      <+              $         ",
"                                                                                                "};
