<svg width="192px" height="192px" viewBox="0 0 192 192" xmlns="http://www.w3.org/2000/svg"><defs><linearGradient x1="0%" y1="50%" y2="50%" id="a"><stop stop-color="#EC4239" offset="0%"/><stop stop-color="#A61E30" offset="100%"/></linearGradient></defs><path d="M166.618 128L224 185.382h-20.247a13.09 13.09 0 0 1-9.251-3.84L141.09 128l53.454-53.585a13.09 13.09 0 0 1 9.251-3.797H224L166.618 128zM61.455 74.415a13.09 13.09 0 0 0-9.251-3.797H32L89.382 128 32 185.382h20.247a13.09 13.09 0 0 0 9.251-3.84L114.91 128 61.455 74.415zM128 141.09l-53.585 53.454a13.09 13.09 0 0 0-3.797 9.251V224L128 166.618 185.382 224v-20.204a13.09 13.09 0 0 0-3.797-9.25L128 141.09zm0-26.182l53.585-53.454a13.09 13.09 0 0 0 3.797-9.251V32L128 89.382 70.618 32v20.204a13.09 13.09 0 0 0 3.797 9.25L128 114.91z" transform="translate(-32 -32)" fill="url(#a)" fill-rule="nonzero"/></svg>