<?xml version="1.0" encoding="UTF-8" standalone="no"?>
<!-- Generator: Adobe Illustrator 12.0.0, SVG Export Plug-In . SVG Version: 6.00 Build 51448)  -->

<svg
   xmlns:dc="http://purl.org/dc/elements/1.1/"
   xmlns:cc="http://creativecommons.org/ns#"
   xmlns:rdf="http://www.w3.org/1999/02/22-rdf-syntax-ns#"
   xmlns:svg="http://www.w3.org/2000/svg"
   xmlns="http://www.w3.org/2000/svg"
   xmlns:sodipodi="http://sodipodi.sourceforge.net/DTD/sodipodi-0.dtd"
   xmlns:inkscape="http://www.inkscape.org/namespaces/inkscape"
   height="128"
   id="Layer_1"
   inkscape:version="0.48.1 r9760"
   sodipodi:docname="factor.svg"
   sodipodi:version="0.32"
   space="preserve"
   style="overflow:visible"
   version="1.1"
   viewBox="0 0 128.00001 128"
   width="128"
   inkscape:output_extension="org.inkscape.output.svg.inkscape"
   inkscape:export-filename="/Users/andrew/Downloads/factor.png"
   inkscape:export-xdpi="90"
   inkscape:export-ydpi="90">
  <metadata
     id="metadata3">
    <rdf:RDF>
      <cc:Work
         rdf:about="">
        <dc:title></dc:title>
        <dc:description />
        <dc:subject>
          <rdf:Bag>
            <rdf:li>animal</rdf:li>
            <rdf:li>dinosaur</rdf:li>
          </rdf:Bag>
        </dc:subject>
        <dc:publisher>
          <cc:Agent
             rdf:about="http://www.openclipart.org/">
            <dc:title>Open Clip Art Library</dc:title>
          </cc:Agent>
        </dc:publisher>
        <dc:creator>
          <cc:Agent>
            <dc:title>Architetto Francesco Rollandin</dc:title>
          </cc:Agent>
        </dc:creator>
        <dc:rights>
          <cc:Agent>
            <dc:title>Architetto Francesco Rollandin</dc:title>
          </cc:Agent>
        </dc:rights>
        <dc:date />
        <dc:format>image/svg+xml</dc:format>
        <dc:type
           rdf:resource="http://purl.org/dc/dcmitype/StillImage" />
        <cc:license
           rdf:resource="http://web.resource.org/cc/PublicDomain" />
        <dc:language>en</dc:language>
      </cc:Work>
      <cc:License
         rdf:about="http://web.resource.org/cc/PublicDomain">
        <cc:permits
           rdf:resource="http://web.resource.org/cc/Reproduction" />
        <cc:permits
           rdf:resource="http://web.resource.org/cc/Distribution" />
        <cc:permits
           rdf:resource="http://web.resource.org/cc/DerivativeWorks" />
      </cc:License>
    </rdf:RDF>
  </metadata>
  <defs
     id="defs454" />
  <sodipodi:namedview
     bordercolor="#666666"
     borderopacity="1.0"
     id="base"
     inkscape:current-layer="Layer_1"
     inkscape:cx="64"
     inkscape:cy="64"
     inkscape:pageopacity="0.0"
     inkscape:pageshadow="2"
     inkscape:window-height="671"
     inkscape:window-width="1280"
     inkscape:window-x="0"
     inkscape:window-y="0"
     inkscape:zoom="3.5390625"
     pagecolor="#ffffff"
     showgrid="false"
     inkscape:window-maximized="1" />
  <g
     id="g4108"
     transform="matrix(1.0084612,0,0,0.99434059,-0.65178004,1.4052029)">
    <path
       inkscape:connector-curvature="0"
       style="fill:#bfbfbf;fill-rule:evenodd;stroke:#000000;stroke-width:0;stroke-linecap:square;stroke-miterlimit:10"
       id="path7"
       d="m 90.556419,78.329985 c -0.685957,0.441169 -1.132197,1.035389 -2.58755,0 0.850531,0 1.741629,-0.07699 2.58755,0" />
    <path
       inkscape:connector-curvature="0"
       style="fill:#bfbfbf;fill-rule:evenodd;stroke:#000000;stroke-width:0;stroke-linecap:square;stroke-miterlimit:10"
       id="path9"
       d="m 46.571755,93.190995 c 0.938119,0.378475 1.697374,-0.359113 1.293544,1.293084 -0.472517,-0.470673 -0.872658,-0.728368 -1.293544,-1.293084" />
    <path
       inkscape:connector-curvature="0"
       style="fill:#7fcc66;fill-rule:evenodd;stroke:#000000;stroke-width:0;stroke-linecap:square;stroke-miterlimit:10"
       id="path11"
       d="m 84.087774,65.40883 c -0.356347,0.399219 -0.950105,0.149822 -0.646311,1.292161 -0.100497,-0.68319 0.225425,-0.821027 0.646311,-1.292161" />
    <path
       inkscape:connector-curvature="0"
       style="fill:#bfbfbf;fill-rule:evenodd;stroke:#000000;stroke-width:0;stroke-linecap:square;stroke-miterlimit:10"
       id="path13"
       d="m 83.441463,66.700991 c -0.487269,-0.397375 -1.106843,-0.168723 -1.293545,-1.292161 0.423191,0.42273 0.830247,0.913687 1.293545,1.292161" />
    <path
       inkscape:connector-curvature="0"
       style="fill:#7fcc66;fill-rule:evenodd;stroke:#000000;stroke-width:0;stroke-linecap:square;stroke-miterlimit:10"
       id="path15"
       d="m 84.087774,66.05468 c -0.518616,0.382163 -0.575779,0.751879 -1.293544,0.645851 1.580281,-0.03135 1.429537,-0.833014 1.293544,-0.645851" />
    <path
       inkscape:connector-curvature="0"
       style="fill:#98e57f;fill-rule:evenodd;stroke:#000000;stroke-width:0;stroke-linecap:square;stroke-miterlimit:10"
       id="path17"
       d="m 93.143969,65.40883 c -0.262305,0.662907 -0.260922,1.121594 -1.293545,1.292161 -0.272446,-0.271524 -1.019715,-1.019254 -1.294005,-1.292161 0.841772,0 1.752693,-0.100957 2.58755,0" />
    <path
       inkscape:connector-curvature="0"
       style="fill:#bfbfbf;fill-rule:evenodd;stroke:#000000;stroke-width:0;stroke-linecap:square;stroke-miterlimit:10"
       id="path19"
       d="m 90.556419,65.40883 c 0.0673,-0.403829 0,-0.881878 0,-1.292162 0.323617,1.236382 -0.01199,1.36546 0,1.292162" />
    <path
       inkscape:connector-curvature="0"
       style="fill:#7fcc66;fill-rule:evenodd;stroke:#000000;stroke-width:0;stroke-linecap:square;stroke-miterlimit:10"
       id="path21"
       d="m 84.087774,58.301711 c 0.126312,4.139711 0.388156,5.55127 -1.293544,9.046053 2.440032,-0.830247 2.623507,-2.374572 3.234322,-4.523257 0.970389,-3.416876 1.079644,-7.010772 3.234783,-10.337754 -3.594818,0.517694 -3.844676,2.99184 -5.175561,5.814958" />
    <path
       inkscape:connector-curvature="0"
       style="fill:#bfbfbf;fill-rule:evenodd;stroke:#000000;stroke-width:0;stroke-linecap:square;stroke-miterlimit:10"
       id="path23"
       d="m 91.850424,65.40883 c 0,-0.431028 0,-0.861134 0,-1.292162 0,0.431028 0,0.861134 0,1.292162" />
    <path
       inkscape:connector-curvature="0"
       style="fill:#87e169;fill-opacity:1;fill-rule:evenodd;stroke:#000000;stroke-width:0;stroke-linecap:square;stroke-miterlimit:10"
       id="path25"
       d="M 68.563395,42.149921 C 63.338047,41.558929 56.913657,44.418926 51.746855,45.380556 45.615196,46.521973 39.656408,46.156867 33.635848,44.734245 28.156493,43.439317 22.60845,40.207761 17.081613,39.517655 13.758319,39.102762 2.1947863,37.985316 0.64677394,40.858221 c 10.39122906,0 20.30348606,0.667056 29.43113506,6.137652 4.343931,2.603224 9.344315,3.526592 13.260906,6.461269 2.822657,2.115494 9.859244,2.458472 11.642823,5.491802 0.624184,1.061665 -0.308403,9.691442 -0.970388,9.691442 -2.417905,0 -4.792016,9.867542 -6.935631,11.294313 -2.816663,1.875317 -7.454707,16.251364 0.144291,14.549841 -2.314643,-4.967193 -2.762727,-4.844108 1.293545,-9.692364 2.469075,-2.951734 5.051093,-6.670099 7.762189,-10.336371 1.308296,-1.769289 4.528328,-5.917298 4.528328,-7.430736 0,-1.355317 4.521413,-6.138574 5.497334,-5.814036 1.460424,0.485886 5.556802,0.366028 6.145028,1.614857 0.90124,1.912657 -2.869677,9.325875 -4.204711,10.660909 -4.875917,4.874533 4.007867,2.907018 5.821872,2.907018 5.037725,0 9.551762,-3.421946 13.259984,-1.292162 0.817801,0.470212 2.815281,2.9356 2.587551,4.522796 0.215744,0 0.431488,0 0.646772,0 0,-3.342194 -0.133688,-5.24471 -3.234784,-6.460808 -2.131167,-0.835779 -12.431581,1.77897 -13.583139,-0.64585 -0.337908,-0.711772 3.432549,-5.466447 4.191803,-6.604637 2.319253,-3.476805 2.789004,-4.238364 0.335603,-6.31744 1.955068,-0.927516 3.691165,-2.307267 5.175561,-3.876485 -0.693794,3.82762 1.327197,4.461485 4.527406,5.169569 1.749005,0.387233 5.533752,0.156737 5.1751,2.583401 -0.200993,1.359005 -1.199963,2.061097 -2.587089,1.938012 0,0.215283 0,0.431028 0,0.64585 0.574857,-0.152588 3.233861,-0.711772 3.233861,-0.969467 0,-0.218049 2.694501,-3.552868 0.969928,-3.552868 -1.500069,0 -8.085345,-4.358222 -8.085345,-4.845952 0,-4.222229 6.041766,-4.212548 7.439034,-8.39928 1.536487,-4.606697 7.805979,-7.44641 11.965979,-8.076126 3.10017,-0.46929 6.14226,-1.292622 9.37935,-1.292622 1.15386,0 4.60347,-2.264395 6.7918,-2.584323 1.64021,-0.240177 4.62191,0.735283 5.1751,-0.645851 0.74358,-1.85826 -1.57659,-1.948614 -2.58755,-2.584323 -2.14915,-1.351629 -9.59279,-3.601272 -10.99651,-1.2917 -4.7828,-2.036204 -13.23601,5.052937 -18.070902,6.662722 -4.344392,1.446594 -8.272046,3.675031 -12.76119,3.675031 -4.81737,-0.0014 -9.632435,-0.0014 -14.448423,-0.0014" />
    <path
       inkscape:connector-curvature="0"
       style="fill:#57b639;fill-opacity:1;fill-rule:evenodd"
       id="path27"
       d="m 67.270312,57.009549 c 3.099712,-0.915992 14.971649,-0.374326 16.171151,-3.229712 0.564254,2.780706 -3.554251,4.959816 -5.821873,5.814035 5.725064,3.119536 -3.50723,13.240623 -4.527406,7.106659 -0.776772,0.63202 -1.42631,0.783687 -1.940317,1.938933 0.320851,-1.669253 1.911275,-5.148823 0.646773,-6.461269 -0.844538,-0.876807 -5.246554,-0.989289 -6.468645,-1.2917 0.861134,-0.808581 2.156522,-2.211841 1.940317,-3.876946" />
    <path
       inkscape:connector-curvature="0"
       style="fill:#009919;fill-rule:evenodd"
       id="path29"
       d="m 1.2935462,40.85776 c -1.86194812,-1.027552 1.7342533,-1.292623 2.8876562,-1.292623 2.7281527,0 5.4120503,-0.64585 8.1088556,-0.64585 5.742582,0 10.831937,2.86645 16.171151,4.523257 11.313213,3.510457 20.087281,1.83982 31.394502,0.227269 5.17049,-0.737588 9.554988,-1.519431 14.854095,-1.519431 2.900103,0 5.838008,0.138759 8.732118,0 3.043932,-0.145673 4.290456,-0.998048 7.115417,-1.938473 5.663291,-1.885919 17.966259,-10.663675 23.285649,-8.398819 1.69875,-2.794075 12.48736,0.61819 13.58406,3.230173 -3.81656,0.39922 -6.98496,-1.292161 -10.67244,-1.292161 -1.5457,0 -5.20091,3.364783 -7.43903,3.876484 -5.15804,1.17968 -8.34488,0.759255 -12.936828,4.199641 -2.648401,1.984111 -6.043148,3.778754 -7.114495,6.783963 -1.317977,-1.429537 -3.908754,-1.167693 -5.821872,-0.646311 -0.487269,0.132766 -1.619005,0.992517 -2.587089,1.292623 -1.378829,0.42734 -1.483935,-0.144752 -1.940317,1.292622 -2.695884,-1.566452 -8.88655,2.727692 -10.350201,4.522796 0.06684,-0.406595 -0.110638,-0.896169 0,-1.2917 0.06592,3.727584 -5.336447,12.541297 -9.702045,11.628993 0.547198,-0.72929 2.611522,-2.561735 1.617161,-3.552868 -1.74209,-1.738402 -0.788758,-4.85425 0.324078,-6.138114 -1.178297,-0.763864 -0.997588,-3.066982 -2.588011,-3.230634 -1.730565,-0.177943 -2.684359,3.48879 -3.233862,4.522796 C 54.393412,54.864552 51.926642,55.335225 50.453771,55.073381 48.418029,54.711963 44.132644,53.281043 42.368887,51.520052 40.860981,50.013529 36.487086,48.354879 34.259571,47.798461 30.318547,46.814703 27.021069,44.332259 23.287492,42.797616 15.662678,39.661485 9.089388,40.943965 1.2935462,40.85776" />
    <path
       inkscape:connector-curvature="0"
       style="fill:none;stroke:#009919;stroke-width:0.3449145;stroke-linecap:square;stroke-miterlimit:10"
       id="path31"
       d="m 66.62354,42.795772 c 10.003534,0 19.519799,1.873473 28.460285,-3.230635" />
    <path
       inkscape:connector-curvature="0"
       style="fill:none;stroke:#0a9e23;stroke-width:0.3449145;stroke-linecap:square;stroke-miterlimit:10"
       id="path33"
       d="m 67.270312,42.795772 c 9.82974,0 19.019162,1.790494 27.813974,-3.230635" />
    <path
       inkscape:connector-curvature="0"
       style="fill:none;stroke:#14a32d;stroke-width:0.3449145;stroke-linecap:square;stroke-miterlimit:10"
       id="path35"
       d="m 67.270312,42.795772 c 10.088357,0 18.544339,1.400033 27.813974,-3.230635" />
    <path
       inkscape:connector-curvature="0"
       style="fill:none;stroke:#1ea838;stroke-width:0.3449145;stroke-linecap:square;stroke-miterlimit:10"
       id="path37"
       d="m 67.270312,42.795772 c 9.728783,0 18.446609,1.748083 27.167202,-3.230635" />
    <path
       inkscape:connector-curvature="0"
       style="fill:none;stroke:#28ad42;stroke-width:0.3449145;stroke-linecap:square;stroke-miterlimit:10"
       id="path39"
       d="m 67.270312,42.795772 c 9.626442,0 17.873135,1.706132 26.519968,-3.230635" />
    <path
       inkscape:connector-curvature="0"
       style="fill:none;stroke:#32b24c;stroke-width:0.3449145;stroke-linecap:square;stroke-miterlimit:10"
       id="path41"
       d="m 67.917084,42.795772 c 9.451726,0 17.371114,1.623154 25.873196,-3.230635" />
    <path
       inkscape:connector-curvature="0"
       style="fill:#007200;fill-rule:evenodd"
       id="path43"
       d="m 72.444951,52.487214 c 0.25078,-0.525531 -0.0461,-0.875885 0.646772,-1.292162 -0.669361,0.595603 -1.340104,1.2728 -1.940317,1.938012 0.420886,-0.939963 0.347589,-1.184289 0.646773,-2.583862 -0.127695,1.42124 -0.407978,1.452587 -1.293545,2.583862 -0.0028,-0.623722 -0.08667,-1.321204 0,-1.938012 -0.596524,1.294006 -1.053367,2.552976 -1.9417,3.876946 1.655424,-0.140141 2.335849,-1.408792 3.882017,-2.584784" />
    <path
       inkscape:connector-curvature="0"
       style="fill:none;stroke:#009919;stroke-width:0;stroke-linecap:square;stroke-miterlimit:10"
       id="path45"
       d="m 61.449361,65.40883 c -0.78507,-0.152589 -1.026169,-1.29585 -1.294466,0 -0.215745,-0.215745 -0.431489,-0.431028 -0.646773,-0.646311 2.587551,-1.800637 1.627303,-4.680917 1.294928,-8.39882 -0.135993,-1.520814 -0.163191,-2.746132 -1.941239,-4.522796 -1.819076,-1.816771 -3.569464,2.506415 -3.880634,3.876485 -0.897091,-0.75234 -1.71904,-0.972233 -2.587089,-1.937551 -0.391382,0.954254 -0.823793,0.745424 -1.294005,1.2917 C 50.483275,52.830192 40.87896,49.678849 37.516021,47.963957 32.333084,45.320627 25.713695,42.594318 20.100191,41.19244 13.975446,39.663329 8.7943529,40.211449 2.5875518,40.211449" />
    <path
       inkscape:connector-curvature="0"
       style="fill:none;stroke:#009919;stroke-width:0;stroke-linecap:square;stroke-miterlimit:10"
       id="path47"
       d="m 127.42613,35.042802 c -3.62479,0.344822 -6.40918,-1.292161 -9.70251,-1.292161 -1.98181,0 -5.76932,2.117798 -7.90556,3.541343 -1.42216,0.947339 -4.25357,0.308865 -6.00166,0.658297 -2.63733,0.526914 -4.472545,2.072161 -6.815769,3.24262 -3.841449,1.919111 -5.824177,4.545846 -7.737296,7.418289 -0.921984,-1.140495 -2.241806,-1.787728 -3.881555,-0.969467 -2.230742,1.113758 -3.385989,0.914148 -5.820951,1.615318 -3.392443,0.977303 -9.376585,3.315457 -10.996973,5.814957 0,-0.349432 -0.118936,-0.966701 0,-1.2917" />
    <path
       inkscape:connector-curvature="0"
       style="fill:none;stroke:#15a328;stroke-width:0;stroke-linecap:square;stroke-miterlimit:10"
       id="path49"
       d="m 127.42613,35.042802 c -7.16705,0.681808 -10.61804,-2.407302 -16.6741,1.626842 -4.08808,2.723082 -10.0985,0.562872 -14.230831,4.690136 -2.649784,2.64748 -5.860135,4.495598 -7.257864,7.250949 -1.326736,-1.438757 -3.442691,-1.188899 -5.1751,-0.323155 -1.010034,0.504786 -4.273399,0.714999 -4.851023,1.292161 -2.163437,2.16021 -8.276195,2.552054 -10.673356,5.492263 0,-0.378014 -0.101418,-0.930282 0,-1.2917" />
    <path
       inkscape:connector-curvature="0"
       style="fill:none;stroke:#2bae36;stroke-width:0;stroke-linecap:square;stroke-miterlimit:10"
       id="path51"
       d="m 127.42613,35.042802 c -3.34865,0.308865 -6.5189,-1.292161 -9.70251,-1.292161 -2.23166,0 -4.7012,2.642408 -7.43903,3.553329 -2.54883,0.848687 -4.95936,0.366028 -7.57964,1.412941 -2.68712,1.073651 -3.781059,1.520814 -6.183751,3.12138 -2.999677,1.998401 -5.931589,4.15769 -7.257864,6.771977 -2.864606,-2.000246 -6.9218,0.63156 -9.702506,1.291701 -3.210812,0.762481 -8.739954,2.400848 -10.996973,5.169107 0,-0.378014 -0.101418,-0.930282 0,-1.2917" />
    <path
       inkscape:connector-curvature="0"
       style="fill:none;stroke:#41b945;stroke-width:0;stroke-linecap:square;stroke-miterlimit:10"
       id="path53"
       d="m 127.42613,35.042802 c -2.40546,0.213901 -6.32851,0.07007 -8.4085,-0.969006 -2.08415,-1.040921 -5.04603,1.549857 -7.11588,2.584323 -4.42368,2.211381 -10.83286,0.806737 -14.374205,4.343009 -2.549287,2.5456 -7.480523,4.559215 -8.264671,8.255913 -1.45397,-2.133473 -5.823255,-1.894679 -6.468644,0.64585 -2.729075,-2.284678 -12.284064,4.9612 -12.936368,3.877407 -0.400141,0.561488 -1.12897,0.704396 -1.294928,1.937551 0,-0.635709 -0.06085,-1.30507 0,-1.937551" />
    <path
       inkscape:connector-curvature="0"
       style="fill:none;stroke:#57c454;stroke-width:0;stroke-linecap:square;stroke-miterlimit:10"
       id="path55"
       d="m 127.42613,35.042802 c -2.33124,0 -5.38808,0.146135 -7.11588,0 -0.95103,-0.08067 -2.23766,-0.64585 -3.55702,-0.64585 -1.37883,0 -0.68503,1.292161 -1.94078,1.292161 -1.79741,0 -2.12748,1.415708 -3.55794,1.938473 -2.17311,0.79429 -4.13556,0.308865 -6.32712,0.746808 -5.032649,1.005424 -7.212221,2.558969 -11.137571,5.714 -2.260245,1.816771 -3.468967,3.909215 -5.174178,4.522796 -0.449468,0.161809 -2.022373,-0.928899 -3.234783,-0.323155 -1.951842,0.975459 -2.047728,0.969467 -3.557478,0.969467 -3.175316,0 -11.907894,3.454215 -13.260907,6.460808 0,-0.349894 -0.118936,-0.966701 0,-1.291701" />
    <path
       inkscape:connector-curvature="0"
       style="fill:none;stroke:#6dcf62;stroke-width:0;stroke-linecap:square;stroke-miterlimit:10"
       id="path57"
       d="m 127.42613,35.042802 c -2.58709,0 -5.1751,0 -7.76219,0 -3.02734,0 -3.00291,-0.182553 -5.82188,1.291701 -3.70499,1.938473 -8.28956,1.244679 -12.14807,2.786238 -2.528539,1.010495 -3.891232,2.510103 -6.107222,3.986201 -0.98468,0.655992 -3.13521,3.564853 -4.060421,3.564853 -1.528651,0 -0.52968,2.281913 -1.617161,2.584324 -1.063049,0.295957 -2.210459,-1.252978 -1.940778,-1.292623 -2.620281,0.384468 -4.553222,1.938473 -7.114956,1.938473 -3.459748,0 -6.05283,2.487976 -9.055734,3.877407 -1.730566,0.800743 -2.91255,0.673048 -3.881556,1.937551 0.674893,-0.404752 0.444858,-0.7339 0.646311,-1.291701" />
    <path
       inkscape:connector-curvature="0"
       style="fill:none;stroke:#83da71;stroke-width:0;stroke-linecap:square;stroke-miterlimit:10"
       id="path59"
       d="m 127.42613,35.042802 c -1.94032,0 -9.85556,-1.139112 -10.67244,-0.323155 -3.02641,3.023648 -9.55821,4.199179 -14.04874,4.199179 -4.40893,0 -9.191265,6.040844 -12.148531,8.399281 -1.112375,0.88741 -0.56656,3.31223 -2.911167,0.969006 -0.828864,-0.828404 -4.503895,1.40326 -4.850561,2.261628 -1.330885,-1.115601 -4.41308,-0.260461 -5.175101,0 -2.945741,1.007729 -5.101802,3.046699 -7.761267,4.522796 0,-0.215283 0,-0.430567 0,-0.64585 -0.680425,0.742198 -1.260814,0.87819 -1.941239,1.291701 0.679042,-0.407057 0.435638,-0.73851 0.646311,-1.291701" />
    <path
       inkscape:connector-curvature="0"
       style="fill:none;stroke:#98e57f;stroke-width:0;stroke-linecap:square;stroke-miterlimit:10"
       id="path61"
       d="m 126.77935,35.042802 c -2.70233,0 -5.75041,-0.438865 -8.4085,0 -2.98262,0.491879 -4.12449,1.501452 -7.11587,2.584323 -4.80308,1.738864 -9.71219,1.52819 -14.230377,4.522796 -3.654287,2.421593 -5.232264,5.06354 -7.761268,7.752509 -1.253899,-1.789572 -5.16127,-1.594573 -6.468644,0.646772 -5.051555,-3.052691 -9.730166,5.168186 -14.55399,5.168186 -0.745425,0 0.136914,-0.375248 0.323155,-0.645851" />
    <path
       inkscape:connector-curvature="0"
       style="fill:none;stroke:#15a328;stroke-width:0;stroke-linecap:square;stroke-miterlimit:10"
       id="path63"
       d="m 61.449361,65.40883 c -0.638474,0.04887 -1.300459,0 -1.941239,0 1.764679,-1.65358 1.734715,-6.104922 1.294928,-9.045131 -0.20422,-1.364999 -0.538439,-3.498932 -1.941239,-4.19918 -2.696805,-1.346558 -2.962798,2.656238 -3.880634,4.19918 -1.002197,-1.30507 -1.481629,-1.311523 -2.587089,-1.938012 1.261736,0.714999 -3.133365,-0.64585 -2.264394,-0.64585 -2.323863,0 -4.026768,-1.219325 -6.790879,-2.584785 C 37.754815,48.436013 31.740709,46.202044 25.87412,43.442083 18.648065,40.042264 11.174456,40.211449 3.2343241,40.211449" />
    <path
       inkscape:connector-curvature="0"
       style="fill:none;stroke:#2bae36;stroke-width:0;stroke-linecap:square;stroke-miterlimit:10"
       id="path65"
       d="m 61.449361,65.40883 c -2.709252,0.09727 -1.211488,-0.628333 -1.294466,-1.292162 -0.163192,-1.307835 0,-4.544923 0,-6.137652 0,-1.164006 0.647694,-1.445211 0.647694,-2.583862 0,-0.318085 -1.294928,-0.605744 -1.294928,-2.261168 0,-1.465033 -3.233861,-0.368333 -3.233861,0.323156 0,1.23546 -1.126665,2.275458 -1.293545,3.553329 -0.327304,-0.858829 -0.738048,-1.123899 -1.294005,-1.938012 0,0.215284 0,0.430567 0,0.645851 -1.404644,-0.561028 -2.653933,-0.525532 -3.234783,-1.937551 0,0.215283 0,0.430566 0,0.64585 C 48.233632,53.269057 46.661648,52.969412 44.630516,51.842286 41.676938,50.202997 38.575381,48.405588 34.92801,47.31949 29.543158,45.715697 24.506356,43.011977 19.140404,41.00205 14.753601,39.359074 8.5163745,40.21237 3.8801743,40.21237" />
    <path
       inkscape:connector-curvature="0"
       style="fill:none;stroke:#41b945;stroke-width:0;stroke-linecap:square;stroke-miterlimit:10"
       id="path67"
       d="m 61.449361,65.40883 c -0.46468,0.195922 -0.849609,-0.184858 -0.646311,0.64585 -0.482659,-0.103723 -1.325353,-0.480354 -1.941239,-0.64585 0.927978,-1.783119 1.293545,-2.663153 1.293545,-4.198719 0,-2.625351 -0.806737,-3.313613 0.647694,-5.492262 -2.407302,-0.671666 -0.07791,-3.078046 -2.588011,-3.230635 -2.339536,-0.142447 -2.346912,3.069287 -3.233862,4.522796 -0.6878,-1.093474 -1.30553,-1.527268 -2.587089,-1.938012 -0.287659,0.298723 -4.248505,-0.604361 -5.821872,-1.2917 -0.411205,-0.179787 -1.372835,-0.992978 -1.940317,-1.293084 -1.236843,-0.653226 -0.201915,-1.292162 -1.940317,-1.292162 -0.563333,0 -1.857338,-0.561949 -2.264855,-0.969466 C 38.488254,48.287574 34.697514,47.871759 32.200318,46.87371 29.362449,45.74013 26.814544,43.932118 23.933342,42.795311 17.690583,40.332689 11.816619,40.210988 5.1751019,40.210988" />
    <path
       inkscape:connector-curvature="0"
       style="fill:none;stroke:#57c454;stroke-width:0;stroke-linecap:square;stroke-miterlimit:10"
       id="path69"
       d="m 61.449361,65.40883 c -1.115601,0.263227 -1.335956,-0.09035 -1.941239,0.64585 -0.431488,-0.215283 -0.862055,-0.431028 -1.293544,-0.64585 3.35418,-2.041735 1.160779,-13.695161 -0.502943,-12.586474 -1.608402,1.071807 -0.748651,3.498932 -2.084146,4.187193 -0.900779,0.464219 -1.272339,-1.292161 -2.263934,-1.292161 -2.539146,0 -2.604607,-1.181985 -4.204711,-1.937551 -2.181877,-1.030318 -3.217727,0.01429 -4.851023,-1.615779 C 42.218143,50.077607 37.70134,49.002112 34.928932,47.963957 24.653873,44.117898 16.367074,40.211449 5.1751019,40.211449" />
    <path
       inkscape:connector-curvature="0"
       style="fill:none;stroke:#6dcf62;stroke-width:0;stroke-linecap:square;stroke-miterlimit:10"
       id="path71"
       d="m 60.80305,66.05468 c -0.851914,0.06408 -1.733792,0 -2.588011,0 0,-0.215283 0,-0.431028 0,-0.64585 1.739785,-1.098084 1.549395,-5.489958 1.293544,-8.399281 -0.124468,-1.413863 -0.215744,-4.215775 -1.940316,-3.876485 -1.815388,0.356808 -1.177836,3.20989 -2.586629,4.522796 -0.684112,-3.461591 -6.944388,-1.421239 -9.056194,-4.522796 0,0.215745 0,0.431489 0,0.646773 C 42.580483,50.156437 35.834782,48.325836 31.189823,46.470342 22.504727,43.001374 15.794061,40.260314 6.4686465,40.85776" />
    <path
       inkscape:connector-curvature="0"
       style="fill:none;stroke:#83da71;stroke-width:0;stroke-linecap:square;stroke-miterlimit:10"
       id="path73"
       d="m 60.80305,66.05468 c -0.75234,0.73851 -1.815388,0.585 -3.235244,0 1.744856,-2.4995 2.577408,-6.706978 1.940316,-9.690981 -1.294466,-6.062972 -2.660386,-0.261383 -4.526945,1.938012 C 54.791249,56.722351 53.78398,56.163167 52.394088,55.717849 51.408487,57.085613 41.01357,51.327357 38.786055,50.214522 28.221493,44.93662 18.586753,40.85776 6.4686465,40.85776" />
    <path
       inkscape:connector-curvature="0"
       style="fill:none;stroke:#98e57f;stroke-width:0;stroke-linecap:square;stroke-miterlimit:10"
       id="path75"
       d="m 60.80305,66.700991 c -1.371452,0.271525 -2.859536,0.123085 -3.882017,-0.64585 4.490527,-2.329855 1.766062,-8.743642 1.294006,-12.274843 -1.958296,0.700708 -2.132551,2.902408 -2.586628,4.521874 -0.91968,-1.143722 -2.075849,-1.96014 -3.234323,-2.583862 -0.03135,0.420425 -0.01521,0.870814 0,1.292161 -1.106381,-0.959325 -1.532799,-0.899396 -1.941238,-1.938012 0,0.215284 0,0.430567 0,0.645851 C 39.165913,50.161047 23.028414,40.85776 7.762191,40.85776" />
    <path
       inkscape:connector-curvature="0"
       style="fill:#007200;fill-rule:evenodd"
       id="path77"
       d="m 86.675324,44.733784 c 0.376631,0.282588 2.064785,2.181415 2.588011,1.938472 1.064893,-0.494644 0.623723,-3.18223 0,-3.876484 0.126773,0.835779 -0.05347,1.739785 0,2.584323 -0.592375,-0.673049 -1.414785,-1.214254 -1.941239,-1.938473 0.801205,0.78046 0.946418,1.246062 1.941239,1.938473 -1.069502,-0.08067 -1.672941,-0.308865 -2.588011,-0.646311" />
    <path
       inkscape:connector-curvature="0"
       style="fill:#7fd866;fill-rule:evenodd"
       id="path79"
       d="m 44.631438,52.487214 c 0.408439,0.387234 1.014183,0.05993 0.646311,1.293084 0.298723,-1.124361 -0.23695,-0.905389 -0.646311,-1.293084" />
    <path
       inkscape:connector-curvature="0"
       style="fill:#7fd866;fill-rule:evenodd"
       id="path81"
       d="m 45.924983,52.487214 c 0.256311,0.653687 0.42273,1.267729 0.646772,1.938934 0.01567,-0.780921 -0.336986,-1.229006 -0.646772,-1.938934" />
    <path
       inkscape:connector-curvature="0"
       style="fill:#7fd866;fill-rule:evenodd"
       id="path83"
       d="m 46.571755,53.133064 c 0.384467,0.6689 0.432411,1.389431 1.293544,1.938934 -0.10695,-1.182445 -0.73436,-1.478402 -1.293544,-1.938934" />
    <path
       inkscape:connector-curvature="0"
       style="fill:#7fd866;fill-rule:evenodd"
       id="path85"
       d="m 47.865299,53.779837 c 0.410745,0.61819 0.435638,1.390814 1.294006,1.937551 -0.21344,-0.848687 -0.770779,-1.400495 -1.294006,-1.937551" />
    <path
       inkscape:connector-curvature="0"
       style="fill:#7fd866;fill-rule:evenodd"
       id="path87"
       d="m 49.159305,53.779837 c 0.760637,1.248367 1.370991,2.603684 1.940778,3.229712 -0.821489,-0.758332 -0.455922,-2.619819 -1.940778,-3.229712" />
    <path
       inkscape:connector-curvature="0"
       style="fill:#7fd866;fill-rule:evenodd"
       id="path89"
       d="m 51.100083,55.071998 c 0.07238,1.305531 0.0032,2.245494 1.294005,2.583862 -0.484503,-0.609892 -2.094749,-3.338967 -1.294005,-2.583862" />
    <path
       inkscape:connector-curvature="0"
       style="fill:#7fd866;fill-rule:evenodd"
       id="path91"
       d="m 51.746855,55.071998 c 0.46468,1.242375 0.797978,2.672834 1.940317,3.229713 -0.716382,-1.019254 -1.392658,-2.618437 -1.940317,-3.229713" />
    <path
       inkscape:connector-curvature="0"
       style="fill:#7fd866;fill-rule:evenodd"
       id="path93"
       d="m 53.040861,55.071998 c 0.540744,1.289857 0.898935,2.695884 1.940316,3.876485 -1.294005,-1.176453 -1.276948,-3.098791 -1.940316,-3.876485" />
    <path
       inkscape:connector-curvature="0"
       style="fill:#7fd866;fill-rule:evenodd"
       id="path95"
       d="m 53.687172,55.071998 c 0.664751,1.182907 0.886027,2.417444 1.294005,3.876485 0.244787,-1.470105 -0.173794,-2.887656 -1.294005,-3.876485" />
    <path
       inkscape:connector-curvature="0"
       style="fill:#007200;fill-rule:evenodd"
       id="path97"
       d="m 53.687172,53.133064 c -0.06408,0.852836 0,1.728722 0,2.584324 0.215744,0 0.431489,0 0.646772,0 0,-1.007269 0.218972,-2.256558 0,-3.230635 0.224964,0.91968 -0.273368,0.351737 -0.646772,0.646311" />
    <path
       inkscape:connector-curvature="0"
       style="fill:#007200;fill-rule:evenodd"
       id="path99"
       d="m 52.393627,52.487214 c 0.24156,1.146488 0.671205,2.226132 1.293545,3.230635 -0.09589,-1.367304 -0.627872,-2.737834 -1.293545,-3.230635" />
    <path
       inkscape:connector-curvature="0"
       style="fill:#007200;fill-rule:evenodd"
       id="path101"
       d="m 51.746855,52.487214 c -0.07007,0.847304 0,1.731948 0,2.584784 0.215744,0 0.431489,0 0.646772,0 -0.07745,-1.020176 -0.264148,-1.730565 -0.646772,-2.584784" />
    <path
       inkscape:connector-curvature="0"
       style="fill:#007200;fill-rule:evenodd"
       id="path103"
       d="m 50.452389,52.487214 c 0.0051,1.125282 -0.159965,1.755459 0.647233,2.584784 0.259077,-1.30092 -0.281667,-2.062019 -0.647233,-2.584784" />
    <path
       inkscape:connector-curvature="0"
       style="fill:#007200;fill-rule:evenodd"
       id="path105"
       d="m 49.159305,52.487214 c 0.283049,0.880495 -0.234645,1.284325 0.646772,1.938934 -0.22773,-0.68273 -0.411666,-1.260353 -0.646772,-1.938934" />
    <path
       inkscape:connector-curvature="0"
       style="fill:#007200;fill-rule:evenodd"
       id="path107"
       d="m 47.865299,52.487214 c 0.123085,0.591914 0,1.325353 0,1.938934 0.215745,0 0.431489,0 0.646773,0 -0.486808,-1.533722 -0.559645,-1.976274 -0.646773,-1.938934" />
    <path
       inkscape:connector-curvature="0"
       style="fill:#007200;fill-rule:evenodd"
       id="path109"
       d="m 46.571755,51.841364 c 0.131383,1.076878 -0.418581,1.695991 0.646772,1.938934 -0.828864,-0.652766 -0.511701,-1.041843 -0.646772,-1.938934" />
    <path
       inkscape:connector-curvature="0"
       style="fill:#007200;fill-rule:evenodd"
       id="path111"
       d="m 45.27821,51.195052 c 0.258617,0.650461 0.423652,1.268651 0.646773,1.938012 -0.02812,-1.197197 -0.232341,-1.165388 -0.646773,-1.938012" />
    <path
       inkscape:connector-curvature="0"
       style="fill:#007200;fill-rule:evenodd"
       id="path113"
       d="m 44.631438,50.549202 c 0.130922,1.076417 -0.41812,1.69553 0.646311,1.938012 -0.828403,-0.652304 -0.511701,-1.041382 -0.646311,-1.938012" />
    <path
       inkscape:connector-curvature="0"
       style="fill:#59d859;fill-rule:evenodd"
       id="path115"
       d="M 0.64631294,40.211449 C 9.8108411,36.441914 19.779801,40.748505 28.460748,43.442083 c 9.742613,3.023188 18.630545,3.101557 28.459824,0.64585 1.60241,3.137975 6.646127,3.061451 3.882017,-0.64585 0.972694,0.675354 1.39358,1.865175 1.940317,3.230173 0.708545,-0.874502 0.93397,-0.43702 1.293544,-1.2917 1.989182,1.637445 3.450989,0.03411 1.940317,-1.938473 0.274291,-0.798439 0.768474,0.217127 0,-1.292162 0.72468,0.815035 0.858368,2.662692 2.586628,2.583863 0,0.215283 0,0.431027 0,0.646311 -0.399219,0.0816 -0.885105,-0.01475 -1.293544,0 0,0.215283 0,0.430567 0,0.64585 1.699679,0.234645 3.929499,-0.08667 4.528328,-1.292161 0.828864,0.465602 1.092552,0.348049 1.940317,0.646311 -0.248014,-1.84858 -2.119643,-2.059714 -3.880634,-3.230635 3.013046,0.401064 4.122194,3.922123 7.114495,3.230635 -0.298723,-1.494076 -0.347588,-1.736558 -0.646311,-3.230635 0.215744,0 0.431028,0 0.646311,0 -0.196383,1.854112 0.457765,4.750988 2.588011,5.168647 2.348756,0.460531 1.940317,-3.098791 1.940317,-5.168647 0.273368,0.681808 1.007729,3.876485 1.6167,3.876485 2.085991,0 3.337124,-0.726063 0.969928,-1.292161 0.945956,-0.304255 1.519892,-0.437021 1.940778,-0.645851 -0.50156,2.167125 1.020176,2.511026 2.58755,1.292623 -0.786453,-1.174609 -0.568404,-2.072622 0,-3.230635 0.215744,0 0.431489,0 0.646772,0 -0.125851,0.836241 0.06546,1.742091 0,2.583863 1.595495,-1.829218 4.089003,-2.542834 3.880634,-5.168647 0.161808,0.565638 0.454538,0.778155 0.646311,1.292623 1.302765,-1.497764 3.986662,-1.606559 3.234323,-3.230635 0.514928,0.282589 0.73897,-0.256772 0.646772,0.645851 1.731487,-0.445319 3.653827,-1.124361 5.175097,-1.938473 -0.46975,-0.475744 -0.69794,-0.909538 -1.294,-1.291701 1.72411,1.071346 5.45861,1.299999 5.82187,-1.292161 1.14188,0.986523 2.16298,0.340673 1.29401,-1.292623 0.33744,0.543049 0.53659,0.113404 0.64631,1.292623 0.88234,-0.881418 1.11606,-0.56656 1.294,-1.938473 0.44302,2.888117 1.84075,1.43092 3.88064,1.2917 -1.92234,0.02904 -2.90748,1.702445 -0.64678,1.938473 -1.17829,-0.182553 -1.5706,-0.254929 -2.58709,-0.64585 -1.24421,0.951488 -1.55723,2.300813 -3.88063,3.230173 -1.30553,0.522305 -6.10769,-1.803402 -5.82187,1.292162 -1.14511,-1.042304 -4.096379,0.142447 -3.881096,2.584323 -2.304501,-1.715352 -3.439003,-0.206524 -3.881095,1.938934 0,-0.215283 0,-0.431028 0,-0.646311 -0.90124,1.520352 -4.783256,2.497195 -4.526945,5.168185 -0.733439,-2.516096 -5.124852,-1.077339 -5.821872,0.646311 -0.929361,-0.2139 -0.236489,0.02674 -0.646772,-0.646311 -1.424006,0.263688 -0.367411,0.925212 -1.293545,0 -1.229006,1.601948 -4.846874,1.248828 -7.115878,1.938473 0.12078,-0.03688 -2.878897,0.430567 -3.233862,0.646772 -1.059821,0.646311 -1.57982,2.145459 -2.588011,3.230635 -0.0028,-0.430567 0.01291,-0.862517 0,-1.293084 -0.569325,2.552515 -3.740031,5.80205 -3.233861,8.400203 0.08021,-0.41351 -0.09266,-0.88234 0,-1.293084 -0.851453,0.80812 -1.2728,2.262551 -1.940317,3.230635 0.215745,0 0.431489,0 0.646772,0 -1.39865,0.413049 -1.113296,0.489113 -1.940316,1.292161 0.416737,-0.584077 0.46929,-0.112482 0.646772,-1.292161 -0.91507,0.871736 -1.076878,0.351737 -1.294006,1.937551 -0.313014,-0.897552 -0.449928,-1.542481 -0.646311,-1.937551 3.040706,-0.634326 1.391736,-3.977903 -1.294928,-3.876485 3.76262,1.292162 3.235245,-0.04656 3.235245,-3.876485 -0.584999,0.198688 -1.437835,0.333298 -1.940317,0.645851 1.44014,-0.564255 2.303118,-5.168186 0.323156,-5.168186 -3.752017,0 -5.380242,1.650814 -6.145029,5.168186 -0.05117,-1.433226 0.03872,-2.081381 0.646773,-3.230635 -1.06351,0.670744 -1.30968,0.806737 -1.940778,1.938934 0.189007,-2.107196 -1.766984,-2.466309 -2.587089,-1.292623 -0.635709,-0.392765 -2.095671,-0.767091 -3.234784,-1.2917 -0.79475,1.273261 -2.068011,0.0078 -3.233861,-1.292162 C 43.876793,51.817853 34.169677,45.875201 31.187979,45.279138 26.307914,44.303678 22.269621,41.896837 17.439343,40.689959 13.86112,39.796555 7.8188931,41.119142 5.1737189,39.565137 4.321344,40.39815 2.1085807,40.837015 0.64631294,40.211449" />
    <path
       inkscape:connector-curvature="0"
       style="fill:none;stroke:#59d859;stroke-width:0.3449145;stroke-linecap:square;stroke-miterlimit:10"
       id="path117"
       d="m 28.460748,44.087933 c 4.697512,1.010957 8.769458,2.620281 13.594665,3.102479 4.722405,0.471595 9.016088,-2.041735 13.572076,-1.809856" />
    <path
       inkscape:connector-curvature="0"
       style="fill:none;stroke:#5fdb5f;stroke-width:0.3449145;stroke-linecap:square;stroke-miterlimit:10"
       id="path119"
       d="m 29.10752,44.733784 c 4.296449,1.125743 8.284494,1.938472 12.721545,1.938472 2.29943,0 4.599782,0 6.899212,0 2.177728,0 3.956237,-1.524501 6.2529,-1.2917" />
    <path
       inkscape:connector-curvature="0"
       style="fill:none;stroke:#66dd66;stroke-width:0.3449145;stroke-linecap:square;stroke-miterlimit:10"
       id="path121"
       d="m 29.10752,44.733784 c 4.296449,1.125743 8.284494,1.938472 12.721545,1.938472 4.328719,0 8.399742,-1.242374 12.50534,-1.2917" />
    <path
       inkscape:connector-curvature="0"
       style="fill:none;stroke:#6cdf6c;stroke-width:0.3449145;stroke-linecap:square;stroke-miterlimit:10"
       id="path123"
       d="m 29.10752,44.733784 c 4.296449,1.125743 8.284494,1.938472 12.721545,1.938472 4.077017,0 8.076587,-1.337799 11.858568,-1.2917" />
    <path
       inkscape:connector-curvature="0"
       style="fill:none;stroke:#73e173;stroke-width:0.3449145;stroke-linecap:square;stroke-miterlimit:10"
       id="path125"
       d="m 29.754293,44.733784 c 4.147548,1.036771 7.788926,1.938472 12.074311,1.938472 4.077017,0 8.076587,-1.337799 11.858568,-1.2917" />
    <path
       inkscape:connector-curvature="0"
       style="fill:none;stroke:#79e379;stroke-width:0.3449145;stroke-linecap:square;stroke-miterlimit:10"
       id="path127"
       d="m 30.400604,44.733784 c 8.16694,2.899181 14.4936,0.556417 22.639796,0.646311" />
    <path
       inkscape:connector-curvature="0"
       style="fill:none;stroke:#7fe57f;stroke-width:0.3449145;stroke-linecap:square;stroke-miterlimit:10"
       id="path129"
       d="m 30.400604,44.733784 c 5.613043,1.31936 16.899519,4.713185 21.993023,0.646311" />
    <path
       inkscape:connector-curvature="0"
       style="fill:none;stroke:#59d859;stroke-width:1.03478956;stroke-linecap:square;stroke-miterlimit:10"
       id="path131"
       d="m 67.270312,50.549202 c 0.261382,2.333544 -0.56656,4.282619 -1.293545,6.460347" />
    <path
       inkscape:connector-curvature="0"
       style="fill:none;stroke:#68df63;stroke-width:1.03478956;stroke-linecap:square;stroke-miterlimit:10"
       id="path133"
       d="m 67.270312,50.549202 c 0.261382,2.333544 -0.56656,4.282619 -1.293545,6.460347" />
    <path
       inkscape:connector-curvature="0"
       style="fill:none;stroke:#77e56e;stroke-width:0.68987507;stroke-linecap:square;stroke-miterlimit:10"
       id="path135"
       d="m 67.270312,50.549202 c 0.261382,2.333544 -0.56656,4.282619 -1.293545,6.460347" />
    <path
       inkscape:connector-curvature="0"
       style="fill:none;stroke:#85eb79;stroke-width:0.3449145;stroke-linecap:square;stroke-miterlimit:10"
       id="path137"
       d="m 67.270312,50.549202 c 0.145673,1.945849 -0.131383,3.937336 -0.646311,5.814497" />
    <path
       inkscape:connector-curvature="0"
       style="fill:none;stroke:#94f283;stroke-width:0.3449145;stroke-linecap:square;stroke-miterlimit:10"
       id="path139"
       d="m 67.270312,50.549202 c 0.713155,1.67248 -0.327766,3.732194 -0.646311,5.814497" />
    <path
       inkscape:connector-curvature="0"
       style="fill:none;stroke:#a3f88e;stroke-width:0.3449145;stroke-linecap:square;stroke-miterlimit:10"
       id="path141"
       d="m 67.270312,50.549202 c 0.710389,1.447055 -0.42273,3.229713 -0.646311,5.168186" />
    <path
       inkscape:connector-curvature="0"
       style="fill:none;stroke:#b2ff99;stroke-width:0.3449145;stroke-linecap:square;stroke-miterlimit:10"
       id="path143"
       d="m 67.270312,51.195052 c 1.104998,0.984219 0.272907,2.779323 -0.646311,4.522797" />
    <path
       inkscape:connector-curvature="0"
       style="fill:#009919;fill-rule:evenodd"
       id="path145"
       d="m 109.96143,35.042802 c -0.45315,-0.211134 -0.8533,0.198688 -0.64677,-0.64585 -1.57613,0.460992 -3.51184,0.819644 -3.88156,1.938012 1.70107,1.164927 4.57627,0.759715 4.52833,-1.292162" />
    <path
       inkscape:connector-curvature="0"
       style="fill:#009919;fill-rule:evenodd"
       id="path147"
       d="m 73.738957,49.90243 c -1.660956,2.050494 -2.357515,-4.948292 2.587089,-1.291701 -0.767553,0.383546 -1.78819,1.121134 -2.587089,1.291701" />
    <path
       inkscape:connector-curvature="0"
       style="fill:#009919;fill-rule:evenodd"
       id="path149"
       d="m 62.096134,55.071998 c 0.152588,-0.988367 0.779538,-1.494998 0.646772,-2.584784 1.331807,1.207339 2.038969,2.897337 -0.646772,2.584784" />
    <path
       inkscape:connector-curvature="0"
       style="fill:#009919;fill-rule:evenodd"
       id="path151"
       d="m 63.389678,55.071998 c -0.723758,0.660141 -1.046914,1.317516 0,2.583862 0.795673,-1.080566 0.485425,-1.562764 0,-2.583862" />
    <path
       inkscape:connector-curvature="0"
       style="fill:#009919;fill-rule:evenodd"
       id="path153"
       d="m 62.742906,59.594333 c -0.118936,0.508936 0.121702,0.834396 -0.646772,0.646312 0.215744,0.215744 0.431488,0.431027 0.646772,0.646311 0,-0.391844 -0.08897,-0.912304 0,-1.292623" />
    <path
       inkscape:connector-curvature="0"
       style="fill:#009919;fill-rule:evenodd"
       id="path155"
       d="m 62.742906,61.532806 c 0.07099,0.399681 0,0.885105 0,1.292162 0.502942,-0.959786 0.01383,-1.215176 0,-1.292162" />
    <path
       inkscape:connector-curvature="0"
       style="fill:#009919;fill-rule:evenodd"
       id="path157"
       d="m 63.389678,61.532806 c 0.08989,-0.378936 0,-0.90124 0,-1.292161 1.10085,0.667516 0.159503,0.620495 0,1.292161" />
    <path
       inkscape:connector-curvature="0"
       style="fill:#009919;fill-rule:evenodd"
       id="path159"
       d="m 63.389678,59.594333 c -0.271063,-0.730212 -0.662446,-1.145105 -0.646311,-1.938473 1.649891,0.283972 1.674785,1.055673 0.646311,1.938473" />
    <path
       inkscape:connector-curvature="0"
       style="fill:#009919;fill-rule:evenodd"
       id="path161"
       d="m 62.742906,52.487214 c -0.13461,-0.760176 -0.708545,-0.508475 0,-1.292162 0,0.407518 -0.07099,0.892021 0,1.292162" />
    <path
       inkscape:connector-curvature="0"
       style="fill:#009919;fill-rule:evenodd"
       id="path163"
       d="m 64.03645,51.841364 c 0,0.430567 0,0.861133 0,1.2917 0,-0.430567 0,-0.861133 0,-1.2917" />
    <path
       inkscape:connector-curvature="0"
       style="fill:#009919;fill-rule:evenodd"
       id="path165"
       d="m 65.329995,58.301711 c -0.132305,0.793368 0.373865,1.320743 -0.646311,1.292622 1.030318,0.08621 0.514467,-0.500176 0.646311,-1.292622" />
    <path
       inkscape:connector-curvature="0"
       style="fill:#009919;fill-rule:evenodd"
       id="path167"
       d="m 69.858323,51.841364 c -0.34851,0.162269 -0.152589,0.949183 -1.294928,0.64585 0,-0.215283 0,-0.430567 0,-0.64585 0.318085,0 1.01234,0.131844 1.294928,0" />
    <path
       inkscape:connector-curvature="0"
       style="fill:#009919;fill-rule:evenodd"
       id="path169"
       d="m 53.040861,52.487214 c 0.416276,-0.477127 0.747729,-0.604822 0.646311,-1.292162 0.373865,1.254822 -0.301028,0.896631 -0.646311,1.292162" />
    <path
       inkscape:connector-curvature="0"
       style="fill:none;stroke:#009919;stroke-width:0;stroke-linecap:square;stroke-miterlimit:10"
       id="path171"
       d="m 120.31025,33.104329 c 0.43149,-0.215283 0.86252,-0.430567 1.294,-0.64585 -1.30368,-1.218403 -3.36201,-2.061097 -3.88063,0" />
    <path
       inkscape:connector-curvature="0"
       style="fill:none;stroke:#008e0f;stroke-width:0;stroke-linecap:square;stroke-miterlimit:10"
       id="path173"
       d="m 120.31025,33.104329 c 0.8934,-1.808473 -2.02975,-2.859996 -2.58663,-0.64585" />
    <path
       inkscape:connector-curvature="0"
       style="fill:none;stroke:#008405;stroke-width:0;stroke-linecap:square;stroke-miterlimit:10"
       id="path175"
       d="m 120.31025,33.104329 c 1.0967,-1.548473 -1.64021,-2.287444 -2.58663,-0.64585" />
    <path
       inkscape:connector-curvature="0"
       style="fill:none;stroke:#007a00;stroke-width:0;stroke-linecap:square;stroke-miterlimit:10"
       id="path177"
       d="m 120.31025,33.104329 c 0.7445,-0.919679 -1.80663,-1.928792 -2.58663,-0.64585" />
    <path
       inkscape:connector-curvature="0"
       style="fill:none;stroke:#007000;stroke-width:0;stroke-linecap:square;stroke-miterlimit:10"
       id="path179"
       d="m 119.66394,33.104329 c 1.45351,-1.198119 -1.23177,-1.7467 -1.94032,-0.64585" />
    <path
       inkscape:connector-curvature="0"
       style="fill:none;stroke:#006500;stroke-width:0;stroke-linecap:square;stroke-miterlimit:10"
       id="path181"
       d="m 117.72362,32.458479 c 0.71961,-1.117445 2.07032,-0.882339 2.58663,0.64585 -0.98699,0.120319 -1.72918,-0.15351 -2.58663,-0.64585" />
    <path
       inkscape:connector-curvature="0"
       style="fill:#b2d88c;fill-rule:evenodd;stroke:#000000;stroke-width:0;stroke-linecap:square;stroke-miterlimit:10"
       id="path183"
       d="m 120.31025,32.458479 c -0.7422,-0.914148 -1.73979,-0.740354 -2.58663,0 1.22855,1.02202 1.89883,0.714999 2.58663,0" />
    <path
       inkscape:connector-curvature="0"
       style="fill:#8cb265;fill-rule:evenodd"
       id="path185"
       d="m 118.37039,32.458479 c 0.64401,-0.02535 1.29539,0 1.93986,0 0,-0.215283 0,-0.430567 0,-0.64585 -1.28433,-0.307021 -1.46457,0.326843 -1.93986,0.64585" />
    <path
       inkscape:connector-curvature="0"
       style="fill-rule:evenodd"
       id="path187"
       d="m 119.66394,31.812629 c 0.34251,0.943651 -0.27014,1.64482 1.29354,1.2917 -0.47344,-0.472517 -0.73298,-0.879112 -1.29354,-1.2917" />
    <path
       inkscape:connector-curvature="0"
       style="fill-rule:evenodd"
       id="path189"
       d="m 118.37039,31.812629 c -0.13,0.28812 0,0.969928 0,1.2917 -1.26773,-1.080105 -0.20237,-0.843155 0,-1.2917" />
    <path
       inkscape:connector-curvature="0"
       style="fill:#595959;fill-rule:evenodd"
       id="path191"
       d="m 120.31025,32.458479 c -0.18855,0.468829 0.17932,0.847765 -0.64631,0.64585 0.82563,0.201915 0.45776,-0.177021 0.64631,-0.64585" />
    <path
       inkscape:connector-curvature="0"
       style="fill:#595959;fill-rule:evenodd"
       id="path193"
       d="m 118.37039,31.812629 c 0,0.430567 0,0.861133 0,1.2917 0,-0.430567 0,-0.861133 0,-1.2917" />
    <path
       inkscape:connector-curvature="0"
       style="fill-rule:evenodd"
       id="path195"
       d="m 119.01763,31.812629 c 0.13138,0.281205 0,0.975921 0,1.2917 0.21574,0 0.43102,0 0.64631,0 0.30379,-1.143261 -0.48312,-0.942729 -0.64631,-1.2917" />
    <path
       inkscape:connector-curvature="0"
       style="fill:#e5e5e5;fill-rule:evenodd"
       id="path197"
       d="m 119.66394,31.812629 c 0,0.709006 0,0.709006 0,0" />
    <path
       inkscape:connector-curvature="0"
       style="fill:#009919;fill-rule:evenodd"
       id="path199"
       d="m 126.13258,33.750641 c 0.0129,0.05855 -0.23142,0.839467 1.29355,1.292161 -0.43149,-0.430567 -0.86206,-0.861595 -1.29355,-1.292161" />
    <path
       inkscape:connector-curvature="0"
       style="fill:#008506;fill-rule:evenodd"
       id="path201"
       d="m 125.48489,33.750641 c 0.76064,0.61819 0.95517,1.194431 1.94124,1.292161 -0.86482,-0.675354 -1.31153,-0.913226 -1.94124,-1.292161" />
    <path
       inkscape:connector-curvature="0"
       style="fill:#007200;fill-rule:evenodd"
       id="path203"
       d="m 125.48489,33.750641 c 0.45638,0.395531 0.86712,0.864821 1.29446,1.292161 -0.3923,-0.866204 -0.8639,-0.919219 -1.29446,-1.292161" />
    <path
       inkscape:connector-curvature="0"
       style="fill:#005f00;fill-rule:evenodd"
       id="path205"
       d="m 125.48489,33.750641 c 0.74681,0.736204 1.11099,0.412127 1.29446,1.292161 -0.39414,-0.871275 -0.80397,-0.939502 -1.29446,-1.292161" />
    <path
       inkscape:connector-curvature="0"
       style="fill:#004c00;fill-rule:evenodd"
       id="path207"
       d="m 126.13258,34.396952 c -0.0871,-0.522765 0.0954,-0.827942 -0.64769,-0.64585 0.37478,0.272446 1.29446,0.732516 1.29446,0.969006 0,0.718226 -0.41212,-0.100497 -0.64677,-0.323156" />
    <path
       inkscape:connector-curvature="0"
       style="fill:#007200;fill-rule:evenodd"
       id="path209"
       d="m 117.72362,31.166317 c -0.37986,0.493723 -0.35681,0.713617 -0.64677,1.292162 -0.3061,-1.152481 0.33791,-0.891098 0.64677,-1.292162" />
    <path
       inkscape:connector-curvature="0"
       style="fill:#007200;fill-rule:evenodd"
       id="path211"
       d="m 121.60425,31.812629 c 0.083,0.755566 0.7233,0.491879 0,1.2917 0.7233,-0.799821 0.083,-0.536134 0,-1.2917" />
    <path
       inkscape:connector-curvature="0"
       style="fill:#007200;fill-rule:evenodd"
       id="path213"
       d="m 120.95748,33.104329 c -0.90124,0.501099 -1.10915,0.951028 -2.58663,0 1.60241,1.437374 3.83961,0.184397 5.82095,0.646312 -1.18475,-0.04841 -2.11595,-0.373404 -3.23432,-0.646312" />
    <path
       inkscape:connector-curvature="0"
       style="fill:#007200;fill-rule:evenodd"
       id="path215"
       d="m 125.48489,33.750641 c 0,0.709467 0,0.709467 0,0" />
    <path
       inkscape:connector-curvature="0"
       style="fill:#007200;fill-rule:evenodd"
       id="path217"
       d="m 115.78238,31.166317 c 0,0.430567 0,0.861595 0,1.292162 0,-0.431028 0,-0.861595 0,-1.292162" />
    <path
       inkscape:connector-curvature="0"
       style="fill:#007200;fill-rule:evenodd"
       id="path219"
       d="m 113.84206,31.166317 c 0,0.430567 0,0.861595 0,1.292162 0,-0.431028 0,-0.861595 0,-1.292162" />
    <path
       inkscape:connector-curvature="0"
       style="fill:#007200;fill-rule:evenodd"
       id="path221"
       d="m 111.90175,31.812629 c 0.13138,0.580389 0.007,0.908155 0.64677,1.2917 -1.05752,0.08897 -0.46929,-0.507552 -0.64677,-1.2917" />
    <path
       inkscape:connector-curvature="0"
       style="fill:#007200;fill-rule:evenodd"
       id="path223"
       d="m 109.96143,32.458479 c 0.15489,0.290425 1.09209,0.64585 0.32316,0.64585 -0.68135,0 -0.10419,-0.236028 -0.32316,-0.64585" />
    <path
       inkscape:connector-curvature="0"
       style="fill:#32bf32;fill-rule:evenodd"
       id="path225"
       d="m 87.968869,46.026406 c 0.317162,0.674432 0.619573,1.075495 1.294466,1.938012 -0.121702,-1.427232 -0.443935,-2.362586 -1.294466,-1.938012" />
    <path
       inkscape:connector-curvature="0"
       style="fill:#32bf32;fill-rule:evenodd"
       id="path227"
       d="m 87.968869,44.733784 c 0.520921,0.84546 1.190743,0.899396 1.294466,1.938472 0.215745,0 0.431028,0 0.646312,0 -0.143369,-1.219324 -0.911843,-1.603331 -1.940778,-1.938472" />
    <path
       inkscape:connector-curvature="0"
       style="fill:#32bf32;fill-rule:evenodd"
       id="path229"
       d="m 89.263335,44.087933 c 0.349894,0.758794 0.873581,0.923368 0.646312,1.938473 0.215744,0 0.431488,0 0.646772,0 -0.206064,-1.369608 -0.448085,-2.515635 -1.293084,-1.938473" />
    <path
       inkscape:connector-curvature="0"
       style="fill:#32bf32;fill-rule:evenodd"
       id="path231"
       d="m 82.794691,48.610729 c 0.406134,-0.671666 0.106028,-1.348402 1.293544,-1.292161 -0.825637,0.171028 -0.642162,0.528758 -1.293544,1.292161" />
    <path
       inkscape:connector-curvature="0"
       style="fill:#32bf32;fill-rule:evenodd"
       id="path233"
       d="m 68.563395,52.487214 c -0.432871,-2.579713 -1.900671,-4.597938 -4.526945,-4.522796 2.537763,-0.707162 5.048789,2.012693 4.526945,4.522796" />
    <path
       inkscape:connector-curvature="0"
       style="fill:#32bf32;fill-rule:evenodd"
       id="path235"
       d="m 68.563395,46.672256 c 1.865636,1.294928 1.294928,3.769996 1.294928,5.814958 0,-2.121948 0.343439,-4.151236 -1.294928,-5.814958" />
    <path
       inkscape:connector-curvature="0"
       style="fill:#32bf32;fill-rule:evenodd"
       id="path237"
       d="m 69.858323,51.195052 c 0.348049,-0.544892 1.005424,-1.11514 0.646772,-2.584323 0.861595,1.571523 0.494645,1.930636 -0.646772,2.584323" />
    <path
       inkscape:connector-curvature="0"
       style="fill:#32bf32;fill-rule:evenodd"
       id="path239"
       d="m 66.62354,47.964418 c -1.027552,-2.393933 -5.704781,-0.750957 -7.76219,0 1.680778,-0.615886 8.925273,-2.323401 7.76219,0" />
    <path
       inkscape:connector-curvature="0"
       style="fill:#32bf32;fill-rule:evenodd"
       id="path241"
       d="m 53.687172,53.779837 c 0.254007,-2.770564 2.084607,-4.684605 3.233861,-7.107581 -0.694715,2.199856 -1.819537,5.853681 -3.233861,7.107581" />
    <path
       inkscape:connector-curvature="0"
       style="fill:#32bf32;fill-rule:evenodd"
       id="path243"
       d="m 52.393627,52.487214 c 0.633865,-0.741737 1.10085,-3.054074 1.940317,-3.876485 -0.697942,1.389892 -0.178865,4.908647 -1.940317,3.876485" />
    <path
       inkscape:connector-curvature="0"
       style="fill:#32bf32;fill-rule:evenodd"
       id="path245"
       d="m 50.452389,52.487214 c 0.628332,-1.737941 0.462836,-3.62801 1.294466,-5.168646 -0.500638,1.772515 -0.244326,4.375278 -1.294466,5.168646" />
    <path
       inkscape:connector-curvature="0"
       style="fill:#32bf32;fill-rule:evenodd"
       id="path247"
       d="m 51.746855,52.487214 c -0.02443,-1.750388 0.372943,-3.760315 1.294006,-4.522796 -0.848687,0.895708 -0.530603,2.825883 -1.294006,4.522796" />
    <path
       inkscape:connector-curvature="0"
       style="fill:#32bf32;fill-rule:evenodd"
       id="path249"
       d="m 49.159305,52.487214 c -0.274752,-1.388048 -0.08298,-2.702798 0.646772,-3.230173 -0.68319,0.54351 -0.90124,1.837515 -0.646772,3.230173" />
    <path
       inkscape:connector-curvature="0"
       style="fill:#009919;fill-rule:evenodd"
       id="path251"
       d="m 49.159305,52.487214 c 0,-0.64585 0,-1.291701 0,-1.938012 0,0.646311 0,1.291701 0,1.938012" />
    <path
       inkscape:connector-curvature="0"
       style="fill:#32bf32;fill-rule:evenodd"
       id="path253"
       d="m 47.865299,52.487214 c 0,-1.076878 0,-2.153295 0,-3.230173 0,1.076417 0,2.153295 0,3.230173" />
    <path
       inkscape:connector-curvature="0"
       style="fill:#32bf32;fill-rule:evenodd"
       id="path255"
       d="m 46.571755,51.841364 c 0,-0.861595 0,-1.72319 0,-2.584323 0,0.861133 0,1.722728 0,2.584323" />
    <path
       inkscape:connector-curvature="0"
       style="fill:#32bf32;fill-rule:evenodd"
       id="path257"
       d="m 45.27821,51.195052 c 0,-0.431027 0,-0.861594 0,-1.292622 0,0.431028 0,0.861595 0,1.292622" />
    <path
       inkscape:connector-curvature="0"
       style="fill:#57b639;fill-opacity:1;fill-rule:evenodd"
       id="path259"
       d="m 87.322096,53.779837 c 1.132198,-1.164928 3.032869,-2.936061 4.528328,-4.523257 3.584216,-3.805031 6.109993,-9.585415 11.642826,-10.337754 0,0.215283 0,0.430567 0,0.64585 -0.40107,0.09082 -0.90355,-0.124929 -1.29401,0 1.52635,0.750957 10.5807,-0.235567 12.2896,-1.938012 -0.21575,-0.215283 -0.43149,-0.430567 -0.64678,-0.64585 0.66429,0.532446 1.39451,0.908155 1.94032,1.291701 0,-0.215284 0,-0.430567 0,-0.645851 -0.57117,-0.251701 -0.71361,-0.197304 -1.29354,-0.64585 0.8768,0.359574 1.65634,0.366028 2.58755,0.64585 -0.50156,-0.415815 -0.61958,-0.601595 -1.29447,-1.292622 0.94688,1.093935 2.02099,1.814466 2.58801,0 -0.40291,-0.07238 -0.904,0.119858 -1.294,0 0.35588,-0.101419 1.01925,0.0733 0.64677,-0.645851 0.96393,0.593759 8.13744,0.963935 9.7025,0 0,0.215284 0,0.430567 0,0.645851 -8.37761,0 -12.73537,3.230634 -20.3754,3.230634 -5.1313,0 -6.91442,4.347619 -10.349275,5.492263 -1.954608,0.651382 -2.569571,3.858506 -3.880634,5.168647 -1.833827,1.834288 -3.634463,2.247337 -5.497795,3.554251" />
    <path
       inkscape:connector-curvature="0"
       style="fill:#268c26;fill-rule:evenodd"
       id="path261"
       d="m 54.333944,55.071998 c -0.475283,0.474361 -0.472517,0.471595 0,0" />
    <path
       inkscape:connector-curvature="0"
       style="fill:#268c26;fill-rule:evenodd"
       id="path263"
       d="m 53.687172,55.071998 c -0.474361,0.4739 -0.472517,0.472056 0,0" />
    <path
       inkscape:connector-curvature="0"
       style="fill:#268c26;fill-rule:evenodd"
       id="path265"
       d="m 52.393627,55.071998 c -0.475283,0.474361 -0.472517,0.471595 0,0" />
    <path
       inkscape:connector-curvature="0"
       style="fill:#268c26;fill-rule:evenodd"
       id="path267"
       d="m 51.100083,55.071998 c -0.09681,-0.369255 0,-0.908155 0,-1.2917 -0.972694,1.163544 -0.06131,1.058438 0,1.2917" />
    <path
       inkscape:connector-curvature="0"
       style="fill:#268c26;fill-rule:evenodd"
       id="path269"
       d="m 49.806077,54.425687 c -0.32546,-0.324539 0.302872,-0.878191 -0.646772,-0.64585 0.397375,0.664751 1.308757,1.306452 0.646772,0.64585" />
    <path
       inkscape:connector-curvature="0"
       style="fill:#268c26;fill-rule:evenodd"
       id="path271"
       d="m 48.512072,53.779837 c -0.475283,0.474361 -0.472518,0.471595 0,0" />
    <path
       inkscape:connector-curvature="0"
       style="fill:#268c26;fill-rule:evenodd"
       id="path273"
       d="m 47.218988,53.779837 c -0.325461,-0.325461 0.303333,-0.879113 -0.646772,-0.646773 -0.232801,0.950567 0.321311,0.321312 0.646772,0.646773" />
    <path
       inkscape:connector-curvature="0"
       style="fill:#268c26;fill-rule:evenodd"
       id="path275"
       d="m 45.924983,52.487214 c 0,0.709006 0,0.709006 0,0" />
    <path
       inkscape:connector-curvature="0"
       style="fill:#268c26;fill-rule:evenodd"
       id="path277"
       d="m 44.631438,52.487214 c 0.709928,0 0.709928,0 0,0" />
    <path
       inkscape:connector-curvature="0"
       style="fill:none;stroke:#7fcc66;stroke-width:0;stroke-linecap:square;stroke-miterlimit:10"
       id="path279"
       d="m 78.265902,59.594333 c -1.093935,2.512409 -8.263749,1.938473 -10.996051,1.938473" />
    <path
       inkscape:connector-curvature="0"
       style="fill:none;stroke:#6ebd55;stroke-width:0;stroke-linecap:square;stroke-miterlimit:10"
       id="path281"
       d="m 78.265902,59.594333 c -1.719041,2.237657 -7.897261,1.938473 -10.996051,1.938473" />
    <path
       inkscape:connector-curvature="0"
       style="fill:none;stroke:#5dae44;stroke-width:0;stroke-linecap:square;stroke-miterlimit:10"
       id="path283"
       d="m 78.265902,59.594333 c -3.032869,2.200778 -7.291978,1.938473 -10.996051,1.938473" />
    <path
       inkscape:connector-curvature="0"
       style="fill:none;stroke:#4c9f32;stroke-width:0;stroke-linecap:square;stroke-miterlimit:10"
       id="path285"
       d="m 78.265902,59.594333 c -3.424252,1.851346 -6.976659,1.938473 -10.996051,1.938473" />
    <path
       inkscape:connector-curvature="0"
       style="fill:none;stroke:#3b9022;stroke-width:0;stroke-linecap:square;stroke-miterlimit:10"
       id="path287"
       d="m 77.61959,59.594333 c -2.929145,2.061558 -6.653041,1.938473 -10.349278,1.938473" />
    <path
       inkscape:connector-curvature="0"
       style="fill:none;stroke:#2a8111;stroke-width:0;stroke-linecap:square;stroke-miterlimit:10"
       id="path289"
       d="m 77.61959,59.594333 c -2.452018,1.927409 -7.043963,1.467339 -10.349278,1.938473" />
    <path
       inkscape:connector-curvature="0"
       style="fill:none;stroke:#197200;stroke-width:0;stroke-linecap:square;stroke-miterlimit:10"
       id="path291"
       d="m 77.61959,59.594333 c -3.415953,1.037694 -6.712048,1.293084 -10.349278,1.293084" />
    <path
       inkscape:connector-curvature="0"
       style="fill:#75ef75;fill-rule:evenodd"
       id="path293"
       d="m 71.151867,42.149921 c -0.08113,-0.134609 -0.53429,0.564716 1.293545,0.645851 -0.716382,0.105567 -0.776311,-0.262766 -1.293545,-0.645851" />
    <path
       inkscape:connector-curvature="0"
       style="fill:#75ef75;fill-rule:evenodd"
       id="path295"
       d="m 76.326046,42.795772 c 0.32546,0.32546 0.878651,-0.303333 0.646311,0.646311 -0.949644,0.23234 -0.321312,-0.321312 -0.646311,-0.646311" />
    <path
       inkscape:connector-curvature="0"
       style="fill:#75ef75;fill-rule:evenodd"
       id="path297"
       d="m 81.501146,42.795772 c 0.325461,0.32546 0.878651,-0.303333 0.646772,0.646311 -0.950105,0.23234 -0.321311,-0.321312 -0.646772,-0.646311" />
    <path
       inkscape:connector-curvature="0"
       style="fill:#75ef75;fill-rule:evenodd"
       id="path299"
       d="m 93.143969,40.211449 c 0.154893,0.290425 1.091169,0.64585 0.323156,0.64585 -0.681347,4.61e-4 -0.105107,-0.236028 -0.323156,-0.64585" />
    <path
       inkscape:connector-curvature="0"
       style="fill:#7fcc66;fill-rule:evenodd"
       id="path301"
       d="m 84.087774,53.779837 c 0.0074,-1.267268 0.107872,-2.209076 0.646772,-3.230635 -0.291347,1.552161 -0.284893,1.070885 -1.293544,1.938012 0,-1.292162 0,-2.584323 0,-3.876485 0,1.076878 0,2.153757 0,3.230635 -0.325,-0.89663 -0.417659,-0.718687 -0.646772,-1.938934 0.152588,1.282481 0.323155,1.970742 0.646772,2.584323 -0.215745,0 -0.431489,0 -0.646772,0 -0.05486,1.169077 0.597907,0.911843 1.293544,1.293084" />
    <path
       inkscape:connector-curvature="0"
       style="fill:#7fcc66;fill-rule:evenodd"
       id="path303"
       d="m 89.263335,51.195052 c -0.133687,-0.900779 0.176099,-1.327658 -0.646772,-1.938472 0.215744,0.431027 0.431489,0.861594 0.646772,1.292622 -0.709467,0.03227 -0.701169,0.336986 -1.294466,0.64585 0,-0.215283 0,-0.430566 0,-0.64585 -0.03919,0.610815 -0.07284,1.330885 0,1.938012 0.215744,0 0.431489,0 0.647233,0 -0.111099,-0.756488 0.325,-0.724219 0.647233,-1.292162" />
    <path
       inkscape:connector-curvature="0"
       style="fill:#57b639;fill-opacity:1;fill-rule:evenodd"
       id="path305"
       d="m 87.968869,53.133064 c -1.359467,1.961984 -3.268436,2.724926 -3.881095,5.168647 0.594219,-0.951028 0.26922,-0.119397 1.294006,-0.645851 -0.215745,0 -0.431489,0 -0.646773,0 0,0.215284 0,0.431028 0,0.645851 0.64539,-0.346667 0.648156,-0.299184 1.294006,-0.645851 0,0.215284 0,0.431028 0,0.645851 -0.215745,0 -0.431489,0 -0.646772,0 0.537056,-0.381702 0.807658,-0.419503 1.293544,-1.292162 -0.215744,0 -0.431028,0 -0.646311,0 1.04046,-1.18014 1.39819,-2.586167 1.939395,-3.876485" />
    <path
       inkscape:connector-curvature="0"
       style="fill:#77d15e;fill-rule:evenodd"
       id="path307"
       d="m 89.909647,60.886956 c 1.985033,0.135532 2.901025,0.305638 3.880633,1.937551 -0.928899,-1.326736 -2.59677,-1.424928 -3.880633,-1.937551" />
    <path
       inkscape:connector-curvature="0"
       style="fill:#77d15e;fill-rule:evenodd"
       id="path309"
       d="m 73.738957,71.223327 c -0.646773,0 -1.293545,0 -1.940317,0 0.61312,-0.0945 1.318438,0 1.940317,0 -0.661063,0.699786 -1.818615,1.207339 -3.233862,1.293083 0.683191,-0.26507 1.852728,-0.438865 2.586628,-0.64585 -0.26046,1.205495 -0.757871,1.772515 -1.940317,2.584323 1.125283,-0.992056 2.285601,-2.130246 2.587551,-3.231556" />
    <path
       inkscape:connector-curvature="0"
       style="fill:#77d15e;fill-rule:evenodd"
       id="path311"
       d="m 67.917084,75.746584 c 0.927978,0.273829 0.629255,0.615885 1.941239,0.64585 0,0.215283 0,0.431028 0,0.64585 -1.316133,0.192695 -1.25436,-0.357269 -1.941239,-1.2917" />
    <path
       inkscape:connector-curvature="0"
       style="fill:#77d15e;fill-rule:evenodd"
       id="path313"
       d="m 74.385268,73.809033 c -0.280744,0.389999 0.259539,0.867587 -0.646311,0.64585 0,0.215283 0,0.430567 0,0.645389 1.244679,-0.452233 2.50411,-0.665212 3.880633,-0.645389 -1.355317,0.313936 -2.224288,-0.0816 -3.234322,-0.64585" />
    <path
       inkscape:connector-curvature="0"
       style="fill:#77d15e;fill-rule:evenodd"
       id="path315"
       d="m 86.028552,73.809033 c -0.09635,-0.676737 0,-0.735283 0,0 -1.122977,-0.835779 -2.054182,-0.39922 -2.587089,0.64585 0.54812,-1.007729 1.294927,-0.49234 2.587089,-0.64585" />
    <path
       inkscape:connector-curvature="0"
       style="fill:#77d15e;fill-rule:evenodd"
       id="path317"
       d="m 89.263335,77.038745 c -0.472517,-0.89202 -0.559644,-1.750388 -1.294466,-2.583401 1.508367,0.567482 2.368578,3.206663 2.58755,4.522796 -0.215745,0 -0.431489,0 -0.646772,0 0.231879,-1.036772 -0.368794,-1.16585 -0.646312,-1.939395" />
    <path
       inkscape:connector-curvature="0"
       style="fill:none;stroke:#000000;stroke-width:0;stroke-linecap:square;stroke-miterlimit:10"
       id="path319"
       d="m 87.968869,74.454883 c 0.668439,0.758793 1.103154,1.623154 1.294466,2.583401" />
    <path
       inkscape:connector-curvature="0"
       style="fill:#77d15e;fill-rule:evenodd"
       id="path321"
       d="m 58.214578,69.931626 c -0.897091,-0.13461 -1.287091,0.182092 -1.940317,-0.645389 0.930744,0.583155 1.926948,0.675814 1.940317,0.645389" />
    <path
       inkscape:connector-curvature="0"
       style="fill:#77d15e;fill-rule:evenodd"
       id="path323"
       d="m 58.214578,71.223327 c -1.415247,0.38124 -1.965211,0.867587 -3.233862,0 1.024325,0.919679 2.209998,0.919679 3.233862,0" />
    <path
       inkscape:connector-curvature="0"
       style="fill:#77d15e;fill-rule:evenodd"
       id="path325"
       d="m 56.921033,72.51641 c -0.646311,0 -1.293544,0 -1.939856,0 0.646312,0 1.293084,0 1.939856,0" />
    <path
       inkscape:connector-curvature="0"
       style="fill:#77d15e;fill-rule:evenodd"
       id="path327"
       d="m 60.154895,67.347764 c -1.202729,-0.416276 -1.855495,-0.386773 -3.234323,0 1.201807,-0.949183 2.564962,-0.948262 3.234323,0" />
    <path
       inkscape:connector-curvature="0"
       style="fill:#77d15e;fill-rule:evenodd"
       id="path329"
       d="m 54.333944,71.223327 c -0.923368,0.974998 -1.880849,2.673294 -3.234322,4.523257 1.151098,-1.575672 1.416168,-4.056272 3.234322,-4.523257" />
    <path
       inkscape:connector-curvature="0"
       style="fill:#77d15e;fill-rule:evenodd"
       id="path331"
       d="m 50.452389,80.268919 c -0.390461,0.279361 -1.051985,0.957942 -1.940317,1.292622 0.566098,-0.160425 0.779538,-0.45546 1.294005,-0.64585 -0.75741,1.090247 -0.401524,0.754644 -1.940778,1.292161 0.720531,0.449007 0.173795,-0.02351 0.646773,0.64539 1.311062,-0.587765 1.924182,-1.19858 1.940317,-2.584323" />
    <path
       inkscape:connector-curvature="0"
       style="fill:#77d15e;fill-rule:evenodd"
       id="path333"
       d="m 46.571755,81.561541 c -0.08252,0.388156 0,0.893403 0,1.291701 -0.215745,0 -0.431489,0 -0.646772,0 0.215744,-0.430567 0.431488,-0.861134 0.646772,-1.291701" />
    <path
       inkscape:connector-curvature="0"
       style="fill:#77d15e;fill-rule:evenodd"
       id="path335"
       d="m 46.571755,87.376499 c -0.431489,0 -0.862517,0 -1.294006,0 0.431489,0 0.862978,0 1.294006,0" />
    <path
       inkscape:connector-curvature="0"
       style="fill:#77d15e;fill-rule:evenodd"
       id="path337"
       d="m 45.27821,88.669121 c -0.380779,0.08851 -0.900779,0 -1.293544,0 0.215744,0.215284 0.431489,0.430567 0.646772,0.64539 -0.187163,-0.767553 0.138298,-0.526915 0.646772,-0.64539" />
    <path
       inkscape:connector-curvature="0"
       style="fill:#77d15e;fill-rule:evenodd"
       id="path339"
       d="m 45.27821,94.483618 c -0.451772,-1.061204 -0.467907,-1.660033 -1.293544,-2.584323 0.215744,0 0.431489,0 0.646772,0 0.590531,1.211027 0.782304,1.617161 0.646772,2.584323" />
    <path
       inkscape:connector-curvature="0"
       style="fill:#77d15e;fill-rule:evenodd"
       id="path341"
       d="m 54.981177,66.05468 c 2.371345,-1.613012 2.487976,-7.578253 3.880634,-10.337292 -0.591914,3.215421 -1.567835,10.376938 -4.527406,12.276226 0.895708,-0.704396 0.376631,-1.051984 0.646772,-1.938934" />
    <path
       inkscape:connector-curvature="0"
       style="fill:#bfbfbf;fill-rule:evenodd;stroke:#000000;stroke-width:0;stroke-linecap:square;stroke-miterlimit:10"
       id="path343"
       d="m 82.794691,66.700991 c -0.792907,-0.131843 -1.37929,0.384007 -1.293545,-0.64585 -0.02812,1.019254 0.500177,0.514007 1.293545,0.64585" />
    <path
       inkscape:connector-curvature="0"
       style="fill:#bfbfbf;fill-rule:evenodd;stroke:#000000;stroke-width:0;stroke-linecap:square;stroke-miterlimit:10"
       id="path345"
       d="m 83.441463,67.347764 c -0.91046,0.305638 -1.022942,1.223013 -1.940317,0 0.891559,0.879112 0.852375,0.121702 1.940317,0" />
    <path
       inkscape:connector-curvature="0"
       style="fill:#59a53f;fill-rule:evenodd"
       id="path347"
       d="m 127.42613,35.042802 c -3.44961,0 -6.89968,0 -10.34928,0 3.38691,0 7.14031,0.955637 10.34928,0.64585 -0.21575,0 -0.43149,0 -0.64678,0 0.66015,0.161809 0.66522,-0.09035 0.64678,-0.64585" />
    <path
       inkscape:connector-curvature="0"
       style="fill:none;stroke:#000000;stroke-width:0;stroke-linecap:square;stroke-miterlimit:10"
       id="path349"
       d="m 127.42613,35.042802 c -0.91185,1.131275 -7.45794,0 -10.34928,0" />
    <path
       inkscape:connector-curvature="0"
       style="fill:none;stroke:#000000;stroke-width:0;stroke-linecap:square;stroke-miterlimit:10"
       id="path351"
       d="m 117.72362,35.042802 c 0.21575,0 0.43149,0 0.64677,0" />
    <path
       inkscape:connector-curvature="0"
       style="fill:none;stroke:#003200;stroke-width:0;stroke-linecap:square;stroke-miterlimit:10"
       id="path353"
       d="m 115.78238,31.166317 c 0,0.215284 0,0.431028 0,0.646312" />
    <path
       inkscape:connector-curvature="0"
       style="fill:none;stroke:#003200;stroke-width:0;stroke-linecap:square;stroke-miterlimit:10"
       id="path355"
       d="m 117.72362,31.166317 c -0.21574,0.215284 -0.43149,0.431028 -0.64677,0.646312" />
    <path
       inkscape:connector-curvature="0"
       style="fill:none;stroke:#003200;stroke-width:0;stroke-linecap:square;stroke-miterlimit:10"
       id="path357"
       d="m 121.60425,31.812629 c 0.56057,0.400141 0.88419,0.746346 0,0.64585" />
    <path
       inkscape:connector-curvature="0"
       style="fill:none;stroke:#003200;stroke-width:0;stroke-linecap:square;stroke-miterlimit:10"
       id="path359"
       d="M 113.84206,31.812629" />
    <path
       inkscape:connector-curvature="0"
       style="fill:none;stroke:#003200;stroke-width:0;stroke-linecap:square;stroke-miterlimit:10"
       id="path361"
       d="m 111.90175,31.812629 c 0,0.430567 0,0.861133 0,1.2917" />
    <path
       inkscape:connector-curvature="0"
       style="fill:none;stroke:#003200;stroke-width:0;stroke-linecap:square;stroke-miterlimit:10"
       id="path363"
       d="m 109.96143,32.458479 c 0,0.215283 0,0.430567 0,0.64585" />
    <path
       inkscape:connector-curvature="0"
       style="fill:none;stroke:#003200;stroke-width:0;stroke-linecap:square;stroke-miterlimit:10"
       id="path365"
       d="M 89.263335,47.964418 C 88.510074,46.951157 87.861919,45.872896 87.322096,44.734245" />
    <path
       inkscape:connector-curvature="0"
       style="fill:none;stroke:#003200;stroke-width:0;stroke-linecap:square;stroke-miterlimit:10"
       id="path367"
       d="m 89.263335,47.318568 c 0.317163,-1.624076 -0.491879,-3.036557 -1.941239,-3.876485" />
    <path
       inkscape:connector-curvature="0"
       style="fill:none;stroke:#003200;stroke-width:0;stroke-linecap:square;stroke-miterlimit:10"
       id="path369"
       d="m 89.909647,46.672256 c 0.06454,-1.122516 -0.155816,-2.207692 -0.646312,-3.230173" />
    <path
       inkscape:connector-curvature="0"
       style="fill:none;stroke:#003200;stroke-width:0;stroke-linecap:square;stroke-miterlimit:10"
       id="path371"
       d="m 87.968869,52.487214 c 0.941346,-0.128617 1.369147,-0.910921 1.294466,-1.938012" />
    <path
       inkscape:connector-curvature="0"
       style="fill:none;stroke:#003200;stroke-width:0;stroke-linecap:square;stroke-miterlimit:10"
       id="path373"
       d="m 87.968869,51.841364 c 0.561027,-0.400603 0.884644,-0.746808 0,-0.646312" />
    <path
       inkscape:connector-curvature="0"
       style="fill:none;stroke:#003200;stroke-width:0;stroke-linecap:square;stroke-miterlimit:10"
       id="path375"
       d="m 83.441463,53.779837 c 0.499716,-0.300567 0.72929,-0.730673 0.646311,-1.293084" />
    <path
       inkscape:connector-curvature="0"
       style="fill:none;stroke:#003200;stroke-width:0;stroke-linecap:square;stroke-miterlimit:10"
       id="path377"
       d="M 83.441463,52.487214 C 83.010896,51.915123 82.7804,51.248067 82.794691,50.549202" />
    <path
       inkscape:connector-curvature="0"
       style="fill:none;stroke:#003200;stroke-width:0;stroke-linecap:square;stroke-miterlimit:10"
       id="path379"
       d="m 82.794691,52.487214 c 0.215744,0.215283 0.431488,0.430567 0.646772,0.64585" />
    <path
       inkscape:connector-curvature="0"
       style="fill:none;stroke:#003200;stroke-width:0;stroke-linecap:square;stroke-miterlimit:10"
       id="path381"
       d="m 86.028552,57.009549 c -0.127695,0.61312 -0.540744,0.951949 -1.294006,1.292162" />
    <path
       inkscape:connector-curvature="0"
       style="fill:none;stroke:#003200;stroke-width:0;stroke-linecap:square;stroke-miterlimit:10"
       id="path383"
       d="m 86.028552,57.009549 c -0.562411,-0.08298 -0.992978,0.146135 -1.294006,0.64585" />
    <path
       inkscape:connector-curvature="0"
       style="fill:none;stroke:#003200;stroke-width:0;stroke-linecap:square;stroke-miterlimit:10"
       id="path385"
       d="m 86.028552,57.009549 c 0,0.215284 0,0.431028 0,0.64585" />
    <path
       inkscape:connector-curvature="0"
       style="fill:none;stroke:#003200;stroke-width:0;stroke-linecap:square;stroke-miterlimit:10"
       id="path387"
       d="m 69.210629,47.964418 c 0.717304,0.872198 0.914147,2.023295 0.647694,3.230634" />
    <path
       inkscape:connector-curvature="0"
       style="fill:none;stroke:#003200;stroke-width:0;stroke-linecap:square;stroke-miterlimit:10"
       id="path389"
       d="m 70.505095,49.25658 c 0.08528,2.00255 -0.231879,4.480845 -1.9417,5.169107" />
    <path
       inkscape:connector-curvature="0"
       style="fill:none;stroke:#003200;stroke-width:0;stroke-linecap:square;stroke-miterlimit:10"
       id="path391"
       d="m 71.79864,51.195052 c -0.06546,1.549396 -1.160318,2.629501 -2.588011,3.230635" />
    <path
       inkscape:connector-curvature="0"
       style="fill:none;stroke:#003200;stroke-width:0;stroke-linecap:square;stroke-miterlimit:10"
       id="path393"
       d="m 72.444951,51.841364 c -0.106489,1.012339 -0.851453,1.683544 -1.939856,1.938934" />
    <path
       inkscape:connector-curvature="0"
       style="fill:none;stroke:#003200;stroke-width:0;stroke-linecap:square;stroke-miterlimit:10"
       id="path395"
       d="m 65.329995,47.964418 c 2.486132,0.374787 3.716981,3.187301 3.233861,5.81588" />
    <path
       inkscape:connector-curvature="0"
       style="fill:none;stroke:#003200;stroke-width:0;stroke-linecap:square;stroke-miterlimit:10"
       id="path397"
       d="m 66.62354,47.964418 c -2.183721,-2.065707 -4.637123,-0.825176 -7.115879,0" />
    <path
       inkscape:connector-curvature="0"
       style="fill:none;stroke:#000000;stroke-width:0;stroke-linecap:square;stroke-miterlimit:10"
       id="path399"
       d="M 68.563395,42.149921 C 63.338047,41.558929 56.913657,44.418926 51.746855,45.380556 45.615196,46.521973 39.656408,46.156867 33.635848,44.734245 28.156493,43.439317 22.60845,40.207761 17.081613,39.517655 13.758319,39.102762 2.1947863,37.985316 0.64677394,40.858221 c 10.39122906,0 20.30348606,0.667056 29.43113506,6.137652 4.343931,2.603224 9.344315,3.526592 13.260906,6.461269 2.822657,2.115494 9.859244,2.458472 11.642823,5.491802 0.624184,1.061665 -0.308403,9.691442 -0.970388,9.691442 -2.417905,0 -4.792016,9.867542 -6.935631,11.294313 -2.816663,1.875317 -7.454707,16.251364 0.144291,14.549841 -2.314643,-4.967193 -2.762727,-4.844108 1.293545,-9.692364 2.469075,-2.951734 5.051093,-6.670099 7.762189,-10.336371 1.308296,-1.769289 4.528328,-5.917298 4.528328,-7.430736 0,-1.355317 4.521413,-6.138574 5.497334,-5.814036 1.460424,0.485886 5.556802,0.366028 6.145028,1.614857 0.90124,1.912657 -2.869677,9.325875 -4.204711,10.660909 -4.875917,4.874533 4.007867,2.907018 5.821872,2.907018 5.037725,0 9.551762,-3.421946 13.259984,-1.292162 0.817801,0.470212 2.815281,2.9356 2.587551,4.522796 0.215744,0 0.431488,0 0.646772,0 0,-3.342194 -0.133688,-5.24471 -3.234784,-6.460808 -2.131167,-0.835779 -12.431581,1.77897 -13.583139,-0.64585 -0.337908,-0.711772 3.432549,-5.466447 4.191803,-6.604637 2.319253,-3.476805 2.789004,-4.238364 0.335603,-6.31744 1.955068,-0.927516 3.691165,-2.307267 5.175561,-3.876485 -0.693794,3.82762 1.327197,4.461485 4.527406,5.169569 1.749005,0.387233 5.533752,0.156737 5.1751,2.583401 -0.200993,1.359005 -1.199963,2.061097 -2.587089,1.938012 0,0.215283 0,0.431028 0,0.64585 0.574857,-0.152588 3.233861,-0.711772 3.233861,-0.969467 0,-0.218049 2.694501,-3.552868 0.969928,-3.552868 -1.500069,0 -8.085345,-4.358222 -8.085345,-4.845952 0,-4.222229 6.041766,-4.212548 7.439034,-8.39928 1.536487,-4.606697 7.805979,-7.44641 11.965979,-8.076126 3.10017,-0.46929 6.14226,-1.292622 9.37935,-1.292622 1.15386,0 4.60347,-2.264395 6.7918,-2.584323 1.64021,-0.240177 4.62191,0.735283 5.1751,-0.645851 0.74358,-1.85826 -1.57659,-1.948614 -2.58755,-2.584323 -2.14915,-1.351629 -9.59279,-3.601272 -10.99651,-1.2917 -4.7828,-2.036204 -13.23601,5.052937 -18.070902,6.662722 -4.344392,1.446594 -8.272046,3.675031 -12.76119,3.675031 -4.81737,-0.0014 -9.632435,-0.0014 -14.448423,-0.0014" />
    <path
       inkscape:connector-curvature="0"
       style="fill:#bfbfbf;fill-rule:evenodd;stroke:#000000;stroke-width:0;stroke-linecap:square;stroke-miterlimit:10"
       id="path401"
       d="m 44.631438,93.838229 c 0.647233,0.428723 1.349786,0.08759 1.293545,1.2917 -1.203652,0.05716 -0.864361,-0.64585 -1.293545,-1.2917" />
    <path
       inkscape:connector-curvature="0"
       style="fill:#bfbfbf;fill-rule:evenodd;stroke:#000000;stroke-width:0;stroke-linecap:square;stroke-miterlimit:10"
       id="path403"
       d="m 46.571755,93.838229 c 0.937658,0.378474 1.696913,-0.359574 1.293544,1.2917 -0.472517,-0.472517 -0.871736,-0.726985 -1.293544,-1.2917" />
    <path
       inkscape:connector-curvature="0"
       style="fill:#bfbfbf;fill-rule:evenodd;stroke:#000000;stroke-width:0;stroke-linecap:square;stroke-miterlimit:10"
       id="path405"
       d="m 90.556419,78.977679 c -0.685496,0.438865 -1.134041,1.032162 -2.58755,0 1.237303,0.619574 1.347941,0.136454 2.58755,0" />
    <path
       inkscape:connector-curvature="0"
       style="fill:#bfbfbf;fill-rule:evenodd;stroke:#000000;stroke-width:0;stroke-linecap:square;stroke-miterlimit:10"
       id="path407"
       d="m 88.616102,76.392434 c 0.252624,1.056133 1.412942,1.353934 -0.647233,1.937551 0.215744,0 0.431489,0 0.647233,0 0,-0.590531 -0.13461,-1.36546 0,-1.937551" />
    <path
       inkscape:connector-curvature="0"
       style="fill:#bfbfbf;fill-rule:evenodd;stroke:#000000;stroke-width:0;stroke-linecap:square;stroke-miterlimit:10"
       id="path409"
       d="m 90.556419,66.05468 c -0.630177,-0.304716 -1.116985,-0.228652 -1.293545,-1.292622 0,0.215744 0,0.431027 0,0.646311 1.124361,-0.297801 0.90585,0.238794 1.293545,0.646311" />
    <path
       inkscape:connector-curvature="0"
       style="fill:none;stroke:#000000;stroke-width:0;stroke-linecap:square;stroke-miterlimit:10"
       id="path411"
       d="m 89.909647,78.329985 c 0.08298,-0.56195 -0.146596,-0.991595 -0.646312,-1.291701" />
    <path
       inkscape:connector-curvature="0"
       style="fill:none;stroke:#000000;stroke-width:0;stroke-linecap:square;stroke-miterlimit:10"
       id="path413"
       d="m 89.909647,77.684134 c 0.215744,0 0.431488,0 0.646772,0" />
    <path
       inkscape:connector-curvature="0"
       style="fill:none;stroke:#000000;stroke-width:0;stroke-linecap:square;stroke-miterlimit:10"
       id="path415"
       d="m 89.909647,78.329985 c 0.215744,0 0.431488,0 0.646772,0" />
    <path
       inkscape:connector-curvature="0"
       style="fill:none;stroke:#000000;stroke-width:0;stroke-linecap:square;stroke-miterlimit:10"
       id="path417"
       d="M 90.556419,78.329985" />
    <path
       inkscape:connector-curvature="0"
       style="fill:none;stroke:#000000;stroke-width:0;stroke-linecap:square;stroke-miterlimit:10"
       id="path419"
       d="m 88.616102,75.746584 c -0.216205,0 -0.43195,0 -0.647233,0" />
    <path
       inkscape:connector-curvature="0"
       style="fill:none;stroke:#000000;stroke-width:0;stroke-linecap:square;stroke-miterlimit:10"
       id="path421"
       d="m 88.616102,75.746584 c -0.216205,0 -0.43195,0 -0.647233,0" />
    <path
       inkscape:connector-curvature="0"
       style="fill:none;stroke:#000000;stroke-width:0;stroke-linecap:square;stroke-miterlimit:10"
       id="path423"
       d="m 45.27821,94.483618 c 0.20422,-0.769396 0.12078,-1.314289 -0.646311,-1.293084" />
    <path
       inkscape:connector-curvature="0"
       style="fill:none;stroke:#000000;stroke-width:0;stroke-linecap:square;stroke-miterlimit:10"
       id="path425"
       d="m 46.571755,93.838229 c 0.0212,-0.768014 -0.523687,-0.851914 -1.294006,-0.647234" />
    <path
       inkscape:connector-curvature="0"
       style="fill:none;stroke:#000000;stroke-width:0;stroke-linecap:square;stroke-miterlimit:10"
       id="path427"
       d="m 44.631438,93.190995 c -0.215744,0 -0.431489,0 -0.646772,0" />
    <path
       inkscape:connector-curvature="0"
       style="fill:none;stroke:#000000;stroke-width:0;stroke-linecap:square;stroke-miterlimit:10"
       id="path429"
       d="m 44.631438,93.190995 c -0.215744,0 -0.431489,0 -0.646772,0" />
    <path
       inkscape:connector-curvature="0"
       style="fill:none;stroke:#000000;stroke-width:0;stroke-linecap:square;stroke-miterlimit:10"
       id="path431"
       d="m 45.924983,93.190995 c -0.215745,0 -0.431489,0 -0.646773,0" />
    <path
       inkscape:connector-curvature="0"
       style="fill:none;stroke:#000000;stroke-width:0;stroke-linecap:square;stroke-miterlimit:10"
       id="path433"
       d="m 46.571755,93.190995 c -0.431489,0 -0.862517,0 -1.294006,0" />
    <path
       inkscape:connector-curvature="0"
       style="fill:none;stroke:#000000;stroke-width:0;stroke-linecap:square;stroke-miterlimit:10"
       id="path435"
       d="m 46.571755,93.190995 c -0.215745,0 -0.431489,0 -0.646772,0" />
    <path
       inkscape:connector-curvature="0"
       style="fill:none;stroke:#000000;stroke-width:0;stroke-linecap:square;stroke-miterlimit:10"
       id="path437"
       d="M 45.924983,93.190995" />
    <path
       inkscape:connector-curvature="0"
       style="fill:none;stroke:#003200;stroke-width:0;stroke-linecap:square;stroke-miterlimit:10"
       id="path439"
       d="m 54.981177,58.948022 c 0,-1.076878 0,-2.153756 0,-3.230634" />
    <path
       inkscape:connector-curvature="0"
       style="fill:none;stroke:#003200;stroke-width:0;stroke-linecap:square;stroke-miterlimit:10"
       id="path441"
       d="m 65.329995,60.886956 c 1.945388,-1.422623 1.672019,-3.999109 3.233861,-5.815419" />
    <path
       inkscape:connector-curvature="0"
       style="fill:none;stroke:#003200;stroke-width:0;stroke-linecap:square;stroke-miterlimit:10"
       id="path443"
       d="m 83.441463,55.717849 c 0,-1.507446 0,-3.015352 0,-4.522797" />
    <path
       inkscape:connector-curvature="0"
       style="fill:none;stroke:#003200;stroke-width:0;stroke-linecap:square;stroke-miterlimit:10"
       id="path445"
       d="m 87.322096,53.779837 c 0.767553,0.02121 0.851453,-0.523227 0.646773,-1.293084" />
    <path
       inkscape:connector-curvature="0"
       style="fill:#d8d8d8;fill-rule:evenodd"
       id="path449"
       d="m 33.635848,88.669121 c 0.709928,0 0.709928,0 0,0" />
    <path
       inkscape:connector-curvature="0"
       style="fill:#d8d8d8;fill-rule:evenodd"
       id="path451"
       d="m 32.341843,91.899295 c 0.709928,0 0.709928,0 0,0" />
  </g>
</svg>
