<?xml version="1.0" encoding="UTF-8" standalone="no"?>
<svg
   xmlns:dc="http://purl.org/dc/elements/1.1/"
   xmlns:cc="http://creativecommons.org/ns#"
   xmlns:rdf="http://www.w3.org/1999/02/22-rdf-syntax-ns#"
   xmlns:svg="http://www.w3.org/2000/svg"
   xmlns="http://www.w3.org/2000/svg"
   xmlns:sodipodi="http://sodipodi.sourceforge.net/DTD/sodipodi-0.dtd"
   xmlns:inkscape="http://www.inkscape.org/namespaces/inkscape"
   inkscape:version="1.0 (4035a4fb49, 2020-05-01)"
   sodipodi:docname="Fazua_polygon_blue.svg"
   viewBox="0 0 1558.1737 1558.1736"
   height="1558.1737"
   width="1558.1737"
   xml:space="preserve"
   id="svg2"
   version="1.1"><metadata
     id="metadata8"><rdf:RDF><cc:Work
         rdf:about=""><dc:format>image/svg+xml</dc:format><dc:type
           rdf:resource="http://purl.org/dc/dcmitype/StillImage" /><dc:title></dc:title></cc:Work></rdf:RDF></metadata><defs
     id="defs6" /><sodipodi:namedview
     lock-margins="false"
     fit-margin-top="0"
     units="in"
     inkscape:current-layer="g10"
     inkscape:window-maximized="1"
     inkscape:window-y="0"
     inkscape:window-x="0"
     inkscape:cy="1070.8006"
     inkscape:cx="-794.87216"
     inkscape:zoom="0.22982888"
     showgrid="false"
     id="namedview4"
     inkscape:window-height="1016"
     inkscape:window-width="1920"
     inkscape:pageshadow="2"
     inkscape:pageopacity="0"
     guidetolerance="10"
     gridtolerance="10"
     objecttolerance="10"
     borderopacity="1"
     bordercolor="#666666"
     pagecolor="#ffffff"
     inkscape:document-rotation="0"><inkscape:grid
       type="xygrid"
       id="grid9"
       originx="-0.00027950369"
       originy="-3.4919997e-06" /></sodipodi:namedview><g
     style="display:inline"
     transform="matrix(1.3333333,0,0,-1.3333333,-2.7950371e-4,1403.1733)"
     inkscape:label="ink_ext_XXXXXX"
     inkscape:groupmode="layer"
     id="g10"><g
       transform="matrix(0.1,0,0,0.1,0,-64.5)"
       id="g12"><path
         id="path14"
         style="fill:#284291;fill-opacity:1;fill-rule:nonzero;stroke:none"
         d="M 11134.4,3903.82 8966.56,5155.44 C 8377.73,5495.43 8011.9,6129 8011.9,6808.95 v 2501.86 c 0,523.4 -360.38,966.59 -876.3,1077.79 -374.08,80.6 -760.03,126.1 -1148.66,135.2 h -289.09 c -387.06,-9.1 -773.02,-54.6 -1147.09,-135.2 -515.99,-111.2 -876.37,-554.39 -876.37,-1077.79 V 6808.95 c 0,-679.99 -365.77,-1313.55 -954.6,-1653.51 L 551.941,3903.82 C 110.152,3648.78 -101.941,3115.45 47.6367,2635.68 163.844,2263.17 316.797,1901.04 503.055,1557.76 L 656.332,1292.4 C 862.008,955.492 1101.76,637.09 1369.11,346 1577.24,119.301 1870.75,0 2168.54,0 c 189.18,0 380.12,48.1016 552.03,147.398 L 4888.54,1399.06 c 588.91,339.94 1320.5,340 1909.27,0 L 8965.79,147.398 C 9408.61,-108.301 9976.93,-24.5977 10317.3,346 c 267.2,291.02 507.1,609.492 713.7,948.02 l 153,265.14 c 185.4,341.62 338.4,703.81 454.7,1076.52 149.5,479.77 -62.5,1013.1 -504.3,1268.14" /></g></g></svg>
