<?xml version="1.0" encoding="UTF-8" standalone="no"?>
<!-- Created with Inkscape (http://www.inkscape.org/) -->

<svg
   xmlns:dc="http://purl.org/dc/elements/1.1/"
   xmlns:cc="http://creativecommons.org/ns#"
   xmlns:rdf="http://www.w3.org/1999/02/22-rdf-syntax-ns#"
   xmlns:svg="http://www.w3.org/2000/svg"
   xmlns="http://www.w3.org/2000/svg"
   xmlns:sodipodi="http://sodipodi.sourceforge.net/DTD/sodipodi-0.dtd"
   xmlns:inkscape="http://www.inkscape.org/namespaces/inkscape"
   width="67.287163mm"
   height="67.244446mm"
   viewBox="0 0 67.287163 67.244446"
   version="1.1"
   id="svg8"
   inkscape:version="0.92.2 5c3e80d, 2017-08-06"
   sodipodi:docname="fibre.svg">
  <defs
     id="defs2" />
  <sodipodi:namedview
     id="base"
     pagecolor="#ffffff"
     bordercolor="#666666"
     borderopacity="1.0"
     inkscape:pageopacity="0.0"
     inkscape:pageshadow="2"
     inkscape:zoom="0.98994949"
     inkscape:cx="65.362731"
     inkscape:cy="140.06061"
     inkscape:document-units="mm"
     inkscape:current-layer="layer1"
     showgrid="false"
     inkscape:window-width="1280"
     inkscape:window-height="725"
     inkscape:window-x="0"
     inkscape:window-y="0"
     inkscape:window-maximized="1"
     fit-margin-top="0"
     fit-margin-left="0"
     fit-margin-right="0"
     fit-margin-bottom="0" />
  <metadata
     id="metadata5">
    <rdf:RDF>
      <cc:Work
         rdf:about="">
        <dc:format>image/svg+xml</dc:format>
        <dc:type
           rdf:resource="http://purl.org/dc/dcmitype/StillImage" />
        <dc:title />
      </cc:Work>
    </rdf:RDF>
  </metadata>
  <g
     inkscape:label="Layer 1"
     inkscape:groupmode="layer"
     id="layer1"
     transform="translate(-71.356418,-114.87777)">
    <circle
       style="fill:#0053a0;fill-opacity:1;stroke-width:0.26961145"
       id="path814"
       cx="105"
       cy="148.5"
       r="33.5" />
    <circle
       style="fill:#0053a0;fill-opacity:1;stroke-width:0.44147167"
       id="path820"
       cx="105"
       cy="148.5"
       r="33.5" />
    <circle
       style="fill:#dde5f1;fill-opacity:1;stroke-width:0.23588209"
       id="path3791"
       cx="105"
       cy="148.5"
       r="28.5" />
    <path
       inkscape:connector-curvature="0"
       id="path3774"
       d="m 71.843711,155.40319 c -0.324862,17.81268 -0.162431,8.90634 0,0 z m 7.491785,5.88267 c 1.12103,-2.96106 4.395165,-8.37459 6.175495,-11.03649 6.70821,-10.02995 15.472429,-14.91155 26.771559,-14.91155 2.72543,0 2.57015,0.22366 3.52531,-0.79797 2.36239,-2.4658 6.47158,-0.76726 6.47651,2.67707 0.003,2.00987 -1.81462,3.94174 -3.70838,3.94174 -1.18703,0 -2.96187,-1.10363 -3.51038,-2.18282 l -0.50429,-0.99218 -3.08292,4e-5 c -9.15202,0.067 -17.632689,4.41131 -24.075049,13.95146 -1.72048,2.54776 -1.68665,2.64241 0.51389,1.43813 1.07658,-0.58917 3.02898,-1.39589 4.33866,-1.79271 2.22081,-0.67286 2.72299,-0.72293 7.453171,-0.74305 4.785548,-0.0204 5.106718,0.28079 5.688538,-0.58383 0.94985,-0.86609 1.67337,-1.15755 2.87351,-1.15755 2.15932,0 3.79438,1.69833 3.761,3.90651 -0.0204,1.34877 -0.56692,2.25418 -1.91415,3.1711 -1.72924,1.17691 -4.1377,0.50058 -5.24295,-1.4723 -0.46883,-1.70768 -1.23424,-1.47126 -6.202858,-1.30359 -4.327531,0.14603 -5.970051,0.51773 -9.135551,2.06736 -3.07074,1.50323 -6.685722,5.77091 -8.317462,9.03046 z"
       style="fill:#0053a0;fill-opacity:1;stroke-width:0.26458332"
       sodipodi:nodetypes="cccssccsccccccccsccccccc" />
  </g>
</svg>
