<?xml version="1.0" encoding="UTF-8" standalone="no"?>
<svg
   xmlns:dc="http://purl.org/dc/elements/1.1/"
   xmlns:cc="http://creativecommons.org/ns#"
   xmlns:rdf="http://www.w3.org/1999/02/22-rdf-syntax-ns#"
   xmlns:svg="http://www.w3.org/2000/svg"
   xmlns="http://www.w3.org/2000/svg"
   xmlns:xlink="http://www.w3.org/1999/xlink"
   xmlns:sodipodi="http://sodipodi.sourceforge.net/DTD/sodipodi-0.dtd"
   xmlns:inkscape="http://www.inkscape.org/namespaces/inkscape"
   viewBox="0 0 64 64"
   id="svg2"
   version="1.1"
   inkscape:version="0.91 r13725"
   sodipodi:docname="x-ofr.svg"
   width="64"
   height="64">
  <metadata
     id="metadata84">
    <rdf:RDF>
      <cc:Work
         rdf:about="">
        <dc:format>image/svg+xml</dc:format>
        <dc:type
           rdf:resource="http://purl.org/dc/dcmitype/StillImage" />
        <dc:title />
      </cc:Work>
    </rdf:RDF>
  </metadata>
  <sodipodi:namedview
     pagecolor="#ffffff"
     bordercolor="#666666"
     borderopacity="1"
     objecttolerance="10"
     gridtolerance="10"
     guidetolerance="10"
     inkscape:pageopacity="0"
     inkscape:pageshadow="2"
     inkscape:window-width="1366"
     inkscape:window-height="704"
     id="namedview82"
     showgrid="true"
     inkscape:showpageshadow="false"
     inkscape:zoom="4.64"
     inkscape:cx="38.687358"
     inkscape:cy="34.018519"
     inkscape:window-x="0"
     inkscape:window-y="35"
     inkscape:window-maximized="1"
     inkscape:current-layer="svg2"
     showguides="true">
    <inkscape:grid
       type="xygrid"
       id="grid3413" />
    <sodipodi:guide
       position="0,64"
       orientation="64,0"
       id="guide3482" />
    <sodipodi:guide
       position="0,0"
       orientation="0,64"
       id="guide3484" />
    <sodipodi:guide
       position="64,0"
       orientation="-64,0"
       id="guide3486" />
    <sodipodi:guide
       position="64,64"
       orientation="0,-64"
       id="guide3488" />
    <sodipodi:guide
       position="10,61"
       orientation="58,0"
       id="guide3492" />
    <sodipodi:guide
       position="10,3"
       orientation="0,44"
       id="guide3494" />
    <sodipodi:guide
       position="54,3"
       orientation="-58,0"
       id="guide3496" />
    <sodipodi:guide
       position="54,61"
       orientation="0,-44"
       id="guide3498" />
    <sodipodi:guide
       position="54,47"
       orientation="-14,0"
       id="guide4310" />
    <sodipodi:guide
       position="54,61"
       orientation="0,-14"
       id="guide4312" />
    <sodipodi:guide
       position="21,43"
       orientation="22,0"
       id="guide4250" />
    <sodipodi:guide
       position="21,21"
       orientation="0,22"
       id="guide4252" />
    <sodipodi:guide
       position="43,21"
       orientation="-22,0"
       id="guide4254" />
    <sodipodi:guide
       position="5,45"
       orientation="0,-22"
       id="guide4256" />
  </sodipodi:namedview>
  <defs
     id="defs4">
    <linearGradient
       inkscape:collect="always"
       xlink:href="#linearGradient4300"
       id="linearGradient4306"
       x1="32"
       y1="61"
       x2="32"
       y2="3"
       gradientUnits="userSpaceOnUse" />
    <linearGradient
       gradientTransform="matrix(1,0,0,-1,-14,78)"
       inkscape:collect="always"
       xlink:href="#linearGradient4410"
       id="linearGradient4427"
       x1="54"
       y1="31"
       x2="40"
       y2="17"
       gradientUnits="userSpaceOnUse" />
    <linearGradient
       inkscape:collect="always"
       id="linearGradient4410">
      <stop
         style="stop-color:#383e51;stop-opacity:1"
         offset="0"
         id="stop4412" />
      <stop
         style="stop-color:#655c6f;stop-opacity:0"
         offset="1"
         id="stop4414" />
    </linearGradient>
    <linearGradient
       inkscape:collect="always"
       xlink:href="#linearGradient4351"
       id="linearGradient4357"
       x1="47"
       y1="61"
       x2="47"
       y2="47"
       gradientUnits="userSpaceOnUse" />
    <linearGradient
       id="linearGradient4351"
       inkscape:collect="always">
      <stop
         id="stop4353"
         offset="0"
         style="stop-color:#036b53;stop-opacity:1" />
      <stop
         id="stop4355"
         offset="1"
         style="stop-color:#036b53;stop-opacity:1" />
    </linearGradient>
    <linearGradient
       id="linearGradient4300"
       inkscape:collect="always">
      <stop
         id="stop4302"
         offset="0"
         style="stop-color:#26c281;stop-opacity:1" />
      <stop
         id="stop4304"
         offset="1"
         style="stop-color:#3fc380;stop-opacity:1" />
    </linearGradient>
    <filter
       style="color-interpolation-filters:sRGB;"
       inkscape:label="Blur"
       id="filter4312">
      <feGaussianBlur
         stdDeviation="15 15"
         result="fbSourceGraphic"
         id="feGaussianBlur4314" />
      <feColorMatrix
         result="fbSourceGraphicAlpha"
         in="fbSourceGraphic"
         values="0 0 0 -1 0 0 0 0 -1 0 0 0 0 -1 0 0 0 0 1 0"
         id="feColorMatrix4211" />
      <feGaussianBlur
         id="feGaussianBlur4213"
         stdDeviation="0.01 0.01"
         result="fbSourceGraphic"
         in="fbSourceGraphic" />
      <feColorMatrix
         result="fbSourceGraphicAlpha"
         in="fbSourceGraphic"
         values="0 0 0 -1 0 0 0 0 -1 0 0 0 0 -1 0 0 0 0 1 0"
         id="feColorMatrix4215" />
      <feGaussianBlur
         id="feGaussianBlur4217"
         stdDeviation="0.01 0.01"
         result="blur"
         in="fbSourceGraphic" />
    </filter>
    <radialGradient
       inkscape:collect="always"
       xlink:href="#linearGradient4432"
       id="radialGradient4438"
       cx="311.95319"
       cy="686.32617"
       fx="311.95319"
       fy="686.32617"
       r="142.591"
       gradientTransform="matrix(0.99979606,-0.02019508,0.01557957,0.77129675,-10.629049,163.26493)"
       gradientUnits="userSpaceOnUse" />
    <linearGradient
       inkscape:collect="always"
       id="linearGradient4432">
      <stop
         style="stop-color:#59a800;stop-opacity:1"
         offset="0"
         id="stop4434" />
      <stop
         style="stop-color:#8ae104;stop-opacity:1"
         offset="1"
         id="stop4436" />
    </linearGradient>
    <radialGradient
       inkscape:collect="always"
       xlink:href="#linearGradient4341"
       id="radialGradient4347"
       cx="282.2915"
       cy="621.1571"
       fx="282.2915"
       fy="621.1571"
       r="120.31631"
       gradientTransform="matrix(1.0000048,5.0198636e-8,-4.5172298e-8,0.89987534,-10.186262,59.060135)"
       gradientUnits="userSpaceOnUse" />
    <linearGradient
       inkscape:collect="always"
       id="linearGradient4341">
      <stop
         style="stop-color:#bfffbe;stop-opacity:1"
         offset="0"
         id="stop4343" />
      <stop
         style="stop-color:#89e000;stop-opacity:1"
         offset="1"
         id="stop4345" />
    </linearGradient>
    <radialGradient
       inkscape:collect="always"
       xlink:href="#linearGradient4341"
       id="radialGradient4367"
       cx="282.2915"
       cy="621.1571"
       fx="282.2915"
       fy="621.1571"
       r="120.31631"
       gradientTransform="matrix(1.0000048,0,0,0.89987535,-10.18629,59.060148)"
       gradientUnits="userSpaceOnUse" />
  </defs>
  <path
     style="fill:url(#linearGradient4306);fill-opacity:1.0;stroke:none"
     d="M 10 3 L 10 61 L 40 61 L 54 47 L 54 17 L 54 3 L 40 3 L 10 3 z "
     id="rect3500" />
  <rect
     style="opacity:1;fill:#2e3132;fill-opacity:0.29411765;stroke:none"
     id="rect4169"
     width="30"
     height="1"
     x="10"
     y="60" />
  <rect
     style="opacity:1;fill:#ffffff;fill-opacity:0.40983605;stroke:none"
     id="rect4236"
     width="44"
     height="1"
     x="10"
     y="3" />
  <path
     style="fill:url(#linearGradient4357);fill-opacity:1.0;fill-rule:evenodd;stroke:none;stroke-width:1px;stroke-linecap:butt;stroke-linejoin:miter;stroke-opacity:1"
     d="M 54,47 40,61 40,47 Z"
     id="path4314"
     inkscape:connector-curvature="0" />
  <path
     inkscape:connector-curvature="0"
     id="path4320"
     d="M 26,61 40,47 40,61 Z"
     style="opacity:0.2;fill:url(#linearGradient4427);fill-opacity:1;fill-rule:evenodd;stroke:none;stroke-width:1px;stroke-linecap:butt;stroke-linejoin:miter;stroke-opacity:1" />
  <path
     style="color:#000000;text-decoration:none;text-decoration-line:none;text-decoration-style:solid;text-decoration-color:#000000;clip-rule:nonzero;display:inline;overflow:visible;visibility:visible;opacity:1;isolation:auto;mix-blend-mode:normal;color-interpolation:sRGB;color-interpolation-filters:linearRGB;solid-color:#000000;solid-opacity:1;fill:#036b53;fill-opacity:1;fill-rule:nonzero;stroke:none;stroke-width:1;stroke-linecap:butt;stroke-linejoin:miter;stroke-miterlimit:4;stroke-dasharray:none;stroke-dashoffset:0;stroke-opacity:1;color-rendering:auto;image-rendering:auto;shape-rendering:auto;text-rendering:auto;enable-background:accumulate"
     d="m 37.536448,16.622709 4.229546,8.716978 c -0.557465,-0.203036 -1.201684,-0.215461 -1.800668,0.01537 -1.181469,0.455298 -1.721326,1.669493 -1.210442,2.722411 0.510884,1.052918 1.87332,1.534037 3.054789,1.07874 1.160664,-0.447282 1.696396,-1.62635 1.230735,-2.666029 l 0.006,-0.0023 -0.02624,-0.05409 -3.556956,-7.330788 8.530459,-3.287346 2.12172,4.372806 c -0.557466,-0.203035 -1.201683,-0.21546 -1.800669,0.01537 -1.181469,0.455297 -1.721326,1.669494 -1.210441,2.722411 0.510885,1.052918 1.87332,1.534037 3.054788,1.078739 1.181469,-0.455297 1.721326,-1.669492 1.210442,-2.722411 l -4.083887,-8.416834 -0.609319,0.23481 -8.530458,3.287345 -0.609318,0.23481 z m 1.136274,0.851232 8.530459,-3.287345 0.526956,1.086043 -8.530458,3.287346 -0.526957,-1.086044 z"
     id="rect4204"
     inkscape:connector-curvature="0" />
  <g
     id="g4341"
     transform="matrix(1.06911,0,0,1.1068002,59.843749,23.590798)">
    <path
       inkscape:connector-curvature="0"
       id="path4395-93"
       d="m -33.906048,-0.25532021 a 3.7062097,3.7062097 0 0 0 -3.707031,3.70507801 3.7062097,3.7062097 0 0 0 0.630859,2.064453 c -0.01274,0.010671 -0.02634,0.020576 -0.03906,0.03125 -0.869994,0.729909 -1.7485,1.483839 -2.408203,2.408203 -0.858574,1.20302 -1.174179,2.7235192 -1.945312,3.9843752 -0.402858,0.6587 -1.111421,1.133637 -1.390625,1.853516 -0.347826,0.89682 -0.556667,1.950631 -0.277344,2.871093 0.127467,0.420045 0.833984,1.019532 0.833984,1.019532 0,0 -0.005,0.259338 -0.01172,0.416015 -0.267085,0.09975 -0.532108,0.205198 -0.791016,0.322266 -0.910214,0.411563 -1.972959,0.775152 -2.53125,1.603515 -0.175775,0.260807 -0.282171,0.633937 -0.169922,0.927735 0.114473,0.299615 0.472888,0.448358 0.759766,0.591797 0.860634,0.430318 1.85223,0.524157 2.785156,0.759765 1.204093,0.30409 2.393652,0.715446 3.628906,0.84375 2.602756,0.270344 5.246556,0.115909 7.847657,-0.169921 0.285161,-0.03134 0.418566,-0.361173 0.591797,-0.589844 0.221477,-0.292361 0.273529,-0.324521 0.167968,-0.675782 -0.08336,-0.277369 -0.421875,-0.759765 -0.421875,-0.759765 0,0 1.11838,0.860657 1.771485,1.097656 0.747935,0.27141 1.567932,0.359967 2.363281,0.337891 0.860302,-0.02388 1.724782,-0.210654 2.533203,-0.50586 0.60314,-0.220245 1.398021,-0.356549 1.6875,-0.929687 0.191918,-0.379978 0.06486,-0.91053 -0.169922,-1.265625 -0.486931,-0.736454 -1.463403,-1.00761 -2.277344,-1.34961 -0.698969,-0.293691 -1.446783,-0.461649 -2.193359,-0.605468 0.186372,-0.132827 0.467746,-0.337339 0.644531,-0.511719 0.703963,-0.694386 1.436698,-1.418841 1.851563,-2.316406 0.409159,-0.88522 0.5226,-1.896482 0.55664,-2.871094 0.04453,-1.274892 0.147248,-2.6804842 -0.46289,-3.8007812 -0.115373,-0.211839 -0.556641,-0.462891 -0.556641,-0.462891 0,0 -0.09933,-1.283265 -0.371094,-1.851562 -0.221015,-0.46217 -0.546998,-0.875188 -0.916015,-1.240235 a 2.5480189,2.5480189 0 0 0 0.603515,-1.642578 2.5480189,2.5480189 0 0 0 -2.548828,-2.54882801 2.5480189,2.5480189 0 0 0 -2.490234,2.01757801 3.7062097,3.7062097 0 0 0 -3.578125,-2.75781201 z m 8.914062,0.017578 c -0.0831,0.021172 -0.160603,0.063469 -0.214843,0.121094 -0.173171,0.18398 -0.133072,0.493494 -0.138672,0.746093 -0.0099,0.44368201 -0.09686,0.97441501 0.183594,1.31836001 0.07211,0.088427 0.212483,0.146344 0.322265,0.115234 0.165117,-0.046786 0.260106,-0.242379 0.322266,-0.402344 0.17338,-0.446223 0.223447,-0.97277101 0.09375,-1.43359301 -0.05063,-0.179907 -0.149107,-0.391722 -0.324219,-0.457032 -0.07415,-0.027655 -0.161045,-0.028984 -0.244141,-0.007812 z m 2.6875,0.986328 c -0.28257,-0.078613 -0.532916,0.25939501 -0.759765,0.44531201 -0.462362,0.378935 -0.981662,0.779569 -1.195313,1.337891 -0.06031,0.157612 -0.109898,0.37779 0,0.505859 0.108052,0.12592 0.331543,0.115729 0.492188,0.074219 0.570441,-0.14741 1.040455,-0.612123 1.398437,-1.080078 0.173981,-0.227429 0.342855,-0.507003 0.328125,-0.792969 -0.0096,-0.185656 -0.08457,-0.44040401 -0.263672,-0.49023401 z m 0.564453,2.45898401 c -0.210335,-0.00172 -0.436853,0.10116 -0.640624,0.164063 -0.474169,0.146372 -1.073174,0.234552 -1.337891,0.654297 -0.06614,0.104857 -0.07524,0.271653 -0.0039,0.373046 0.110764,0.157454 0.352549,0.182154 0.544921,0.189454 0.537471,0.020447 1.114424,-0.111666 1.560547,-0.41211 0.170566,-0.11487 0.365794,-0.288569 0.371094,-0.49414 0.0045,-0.173787 -0.132138,-0.363024 -0.291015,-0.433594 -0.06497,-0.028857 -0.133014,-0.040441 -0.203126,-0.041016 z"
       style="fill:#808080;fill-rule:evenodd;stroke:none;stroke-width:1px;stroke-linecap:butt;stroke-linejoin:miter;stroke-opacity:1" />
    <g
       transform="matrix(-0.0759773,0,0,0.0759773,-9.7955082,-32.56008)"
       id="g4678"
       style="display:inline">
      <path
         style="fill:#000000;fill-rule:evenodd;stroke:none;stroke-width:1px;stroke-linecap:butt;stroke-linejoin:miter;stroke-opacity:1"
         d="m 432.08314,662.4877 c 11.98008,5.41693 25.97448,10.20155 33.3226,21.10432 2.31352,3.43269 3.69892,8.35138 2.22151,12.21829 -1.50667,3.94349 -6.22094,5.88736 -9.99678,7.77528 -11.32751,5.66376 -24.37586,6.89575 -36.65487,9.99678 -15.84807,4.00238 -31.50421,9.41882 -47.7624,11.10753 -34.25702,3.55822 -69.06484,1.54054 -103.30008,-2.2215 -3.75324,-0.41244 -5.49526,-4.76555 -7.77528,-7.77528 -2.91505,-3.848 -3.61089,-4.2628 -2.22151,-8.88603 1.09711,-3.65068 5.55377,-9.99678 5.55377,-9.99678 0,0 -14.72976,11.32047 -23.32582,14.4398 -9.84418,3.57225 -20.63285,4.73357 -31.1011,4.44301 -11.32315,-0.31429 -22.68232,-2.77907 -33.32261,-6.66452 -7.93842,-2.89883 -18.405,-4.67474 -22.21507,-12.21829 -2.52599,-5.0012 -0.86866,-11.9876 2.22151,-16.6613 6.40889,-9.69308 19.27738,-13.27072 29.99034,-17.77206 10.59815,-4.4531 22.01555,-6.81208 33.32261,-8.88603 14.27737,-2.61877 28.81957,-3.76744 43.31939,-4.44301 40.68518,-1.89559 81.89231,-4.85131 122.18289,1.11075 15.64676,2.31535 31.12859,6.81235 45.5409,13.32904 z"
         id="path4395"
         inkscape:connector-curvature="0"
         sodipodi:nodetypes="ssssssssscssssssssss" />
      <path
         style="fill:url(#radialGradient4438);fill-opacity:1;fill-rule:evenodd;stroke:none;stroke-width:0.72388011px;stroke-linecap:butt;stroke-linejoin:miter;stroke-opacity:1"
         d="m 407.92644,666.11674 c 9.70948,3.50228 21.88582,4.81313 31.44994,10.31259 5.8504,3.36404 15.86458,6.74494 15.1295,13.45342 -0.70616,6.44455 -13.9279,8.24943 -16.9881,9.47006 -9.18059,3.66186 -24.19889,5.56915 -34.15063,7.57409 -12.84437,2.58771 -34.41918,7.20044 -47.59593,8.29226 -27.76423,2.30053 -48.19959,3.21753 -75.94617,0.78521 -3.04187,-0.26666 -2.96935,-9.47007 -2.96935,-9.47007 -3.43017,0.073 2.90854,-13.73819 0.42104,-15.74198 0,0 -4.73586,-6.61302 -9.93865,-6.46334 -8.49607,0.24443 -11.938,9.54068 -18.90483,11.55746 -7.97839,2.30961 -12.27925,8.61421 -20.76342,8.42635 -9.17707,-0.2032 -21.71557,1.53547 -30.33919,-0.97663 -6.43384,-1.87422 -19.35968,-5.24393 -22.44762,-10.12115 -2.04724,-3.23349 -7.36855,-9.97201 -4.86406,-12.99375 5.1942,-6.267 31.17425,-11.91236 39.85676,-14.82267 8.58947,-2.87912 17.84291,-4.4043 27.00692,-5.74519 11.57136,-1.69315 23.35735,-2.43581 35.10898,-2.87261 32.97406,-1.22557 66.37113,-3.13657 99.02535,0.71816 12.68121,1.49697 25.22874,4.40447 36.90946,8.61779 z"
         id="path4395-9"
         inkscape:connector-curvature="0"
         sodipodi:nodetypes="ssssssssssssssssssss" />
      <path
         style="fill:#000000;fill-rule:evenodd;stroke:#000000;stroke-width:1px;stroke-linecap:butt;stroke-linejoin:miter;stroke-opacity:1"
         d="m 212.98583,475.9491 c -7.35979,6.04593 -14.18353,13.35851 -18.29268,21.95122 -3.57695,7.47982 -4.87805,24.39025 -4.87805,24.39025 0,0 -5.79855,3.30936 -7.31707,6.09756 -8.03053,14.74515 -6.68369,33.22009 -6.09756,50 0.44808,12.82767 1.93179,26.15376 7.31707,37.80488 5.46038,11.81359 15.1248,21.34842 24.39024,30.4878 3.29971,3.25482 10.97561,8.53659 10.97561,8.53659 0,0 -12.6559,4.86181 -18.29268,8.53658 -3.61989,2.3599 -8.53356,4.39194 -9.7561,8.53659 -1.67452,5.67697 0.15279,13.5089 4.87805,17.07317 5.84158,4.40631 14.69463,0.93883 21.95122,0 7.92052,-1.02473 18.29467,0.22769 23.17073,-6.09756 3.72278,-4.8292 0,-18.29269 0,-18.29269 l 14.63415,0 c 0,0 1.14169,14.8353 6.09756,19.5122 3.6569,3.45104 9.64364,3.04418 14.63415,3.65854 10.89338,1.34104 22.19032,2.27845 32.92683,0 3.91638,-0.83111 8.79399,-1.52106 10.9756,-4.87805 2.21509,-3.4085 0,-12.19512 0,-12.19512 l 15.85366,1.21951 c 0,0 -3.64679,12.02908 0,15.85366 5.89765,6.18517 17.06945,0.90079 25.60976,1.21951 15.03568,0.56112 31.00302,6.41973 45.12195,1.21951 5.13193,-1.89017 9.74604,-6.08568 12.19512,-10.97561 4.02137,-8.02922 2.43903,-26.82927 2.43903,-26.82927 0,0 9.29792,-7.88607 10.97561,-13.41463 3.6764,-12.11496 0.91954,-26.00109 -3.65854,-37.80488 -3.67483,-9.47492 -12.99034,-15.72055 -18.29268,-24.39024 -10.14952,-16.59517 -14.30936,-36.6051 -25.60976,-52.43903 -8.68289,-12.16632 -20.2566,-22.10039 -31.70732,-31.70732 -7.60269,-6.37851 -15.45889,-12.74681 -24.39024,-17.07317 -7.63901,-3.70035 -16.13168,-5.35667 -24.39024,-7.31707 -6.82762,-1.62073 -13.75765,-2.88032 -20.73171,-3.65854 -8.49354,-0.94777 -17.07529,-1.66827 -25.60976,-1.21951 -10.6787,0.5615 -21.57707,1.45343 -31.70731,4.87805 -4.82522,1.63121 -9.47887,4.08391 -13.41464,7.31707 z"
         id="path4307"
         inkscape:connector-curvature="0"
         sodipodi:nodetypes="sscsssscsssssccssssccsssscsssssssssss" />
      <path
         style="opacity:1;fill:url(#radialGradient4347);fill-opacity:1;fill-rule:evenodd;stroke:url(#radialGradient4367)"
         d="m 394.69315,624.72959 c 0,0 -3.8324,-0.47796 -5.62993,-1.13699 -3.21733,-1.17956 -7.18927,-7.86629 -10.50798,-8.71997 -2.36213,-0.60761 -7.77787,2.85979 -9.57271,4.51128 -3.60211,3.31442 1.26356,9.15664 2.53989,13.88227 1.29381,4.79037 7.38404,7.36882 8.53658,12.19512 0.66765,2.7958 -0.15047,5.86836 -1.21951,8.53658 -1.30055,3.24604 -3.2847,6.45909 -6.09756,8.53659 -2.06805,1.52741 -4.7934,1.94821 -7.31707,2.43902 -6.3969,1.24409 -14.76369,-3.24364 -19.5122,1.21952 -2.38807,2.24456 -3.24927,7.18296 -1.21951,9.75609 2.27979,2.8901 7.31556,0.82688 10.97561,1.21952 11.78391,1.26416 23.51796,3.95223 35.36585,3.65853 5.34508,-0.1325 11.72097,0.95338 15.85366,-2.43902 3.67765,-3.01887 5.04325,-8.6595 4.87805,-13.41464 -0.139,-4.00119 -2.38322,-7.84437 -4.87805,-10.97561 -3.79968,-4.76893 -13.77059,-4.93951 -14.63415,-10.97561 -0.42083,-2.9415 2.42525,-6.58542 5.34569,-7.13368 5.93659,-1.11449 9.49925,10.9259 15.38602,9.57271 6.88216,-1.582 10.31295,-12.00159 11.29521,-17.92263 1.61868,-9.75732 -3.88387,-18.04826 -7.63667,-27.19932 -5.09222,-12.4172 -18.3384,-20.4062 -23.17073,-32.92683 -5.72117,-14.82363 -6.87968,-24.22312 -14.84441,-35.73591 -6.38,-9.22211 -18.21627,-19.03319 -26.61901,-26.45921 -8.71175,-7.69911 -18.19532,-14.5608 -28.04878,-20.73171 -8.16733,-5.11494 -16.43881,-10.45461 -25.60975,-13.41463 -8.20639,-2.6487 -16.98729,-3.54204 -25.60976,-3.65854 -10.63826,-0.14373 -21.4747,0.74534 -31.70732,3.65854 -7.34563,2.09128 -14.65626,5.12785 -20.73171,9.75609 -5.96253,4.54221 -10.87192,10.59018 -14.63414,17.07317 -3.0332,5.22675 -5.56081,11.05394 -6.09756,17.07317 -0.21962,2.4629 -0.1598,11.45501 -0.1598,11.45501 0,0 -9.79378,5.53118 -12.72498,10.81581 -4.40894,7.94884 -3.11989,21.88539 -3.49873,30.9672 -0.52766,12.6495 1.17545,22.78975 4.34818,35.04626 2.55489,9.86975 7.69233,14.89411 13.57444,23.22119 4.81226,6.81253 12.4419,12.58683 18.98234,17.76283 3.44793,2.72864 7.52733,7.31707 7.52733,7.31707 0,0 0.24951,5.32808 -1.21951,7.31707 -4.32017,5.84934 -10.33227,5.28096 -16.06392,9.7561 -2.95402,2.30643 -10.76535,8.53659 -10.76535,8.53659 0,0 2.04918,3.03854 3.65853,3.65853 7.59606,2.92632 17.45392,3.04087 24.39025,-1.21951 2.79263,-1.71527 4.26352,-5.31737 4.87805,-8.53658 0.53898,-2.82344 -1.74148,-5.70996 -1.21952,-8.53659 0.75998,-4.11564 6.09757,-10.97561 6.09757,-10.97561 l 28.04878,3.65854 c 0,0 -1.45973,15.93102 3.65853,20.7317 8.05458,7.5548 22.68254,7.78235 32.92683,3.65854 2.94522,-1.18559 4.66009,-4.48623 6.09756,-7.31707 2.27656,-4.48329 3.65854,-14.63415 3.65854,-14.63415 0,0 16.29372,2.062 24.39024,1.21951 7.94365,-0.82658 15.69753,-3.28048 23.17074,-6.09756 2.55164,-0.96186 6.17761,-1.1811 7.31707,-3.65853 1.40071,-3.04544 -0.62866,-6.93488 -2.43903,-9.7561 -1.40574,-2.19065 -4.97002,-2.53205 -6.09756,-4.87805 -2.99358,-6.22852 -2.64456,-14.34718 0,-20.73171 1.97999,-4.78011 6.09332,-9.263 10.97561,-10.97561 6.94709,-2.43691 10.901,1.31196 17.43994,4.69467 4.34765,2.24912 9.00422,8.71997 9.00422,8.71997 0,0 2.41866,7.2537 -0.8344,8.53658 z"
         id="path4309"
         inkscape:connector-curvature="0"
         sodipodi:nodetypes="sssssssssssssssasaassssssssaasscssssscsscasssccssscsssssssscs" />
      <path
         style="fill:#000000;fill-rule:evenodd;stroke:#000000;stroke-width:1px;stroke-linecap:butt;stroke-linejoin:miter;stroke-opacity:1"
         d="m 277.03314,655.50165 21.05264,0.75188 0,6.76691 -3.7594,3.7594 -9.02256,-0.75188 -9.02256,-2.25564 z"
         id="path4311"
         inkscape:connector-curvature="0" />
      <path
         style="fill:#808080;fill-rule:evenodd;stroke:none;stroke-width:1px;stroke-linecap:butt;stroke-linejoin:miter;stroke-opacity:1"
         d="m 211.54644,516.30558 c 7.28332,0.17575 21.80451,-1.50375 21.80451,-1.50375 0,0 17.07227,0.6343 25.56391,1.50375 10.33113,1.05778 20.67401,2.32806 30.82707,4.51128 7.13526,1.53429 14.14667,3.65417 21.05263,6.01503 2.819,0.9637 7.19419,1.67787 10.79638,1.28065 4.76453,-0.52539 9.11838,-6.54755 13.56791,-4.76473 7.99727,3.20432 12.17531,14.42936 11.72593,23.03296 -0.31788,6.08586 3.21838,10.29557 -9.9467,15.33987 -10.70442,4.10148 -9.22155,-1.55404 -9.22155,-1.55404 10.79952,-16.10231 11.38283,-9.66585 10.79952,-16.10231 -0.39338,-4.34066 -4.78417,-9.84824 -9.11664,-9.37295 -3.67334,0.40299 -4.51347,9.09944 -5.8229,9.43379 -5.8734,1.49971 -10.14913,-6.8016 -15.78946,-9.02256 -8.1453,-3.20732 -16.9617,-4.39191 -25.56392,-6.01503 -8.70734,-1.64296 -17.49936,-2.8719 -26.31578,-3.7594 -8.49311,-0.85496 -17.02801,-1.45608 -25.56391,-1.50376 -10.53808,-0.0589 -32.33083,3.75939 -32.33083,3.75939 -1.83902,-6.67422 -3.5874,-9.15042 -0.75188,-12.03007 2.83552,-2.87965 9.99693,0.64839 14.28571,0.75188 z"
         id="path4316"
         inkscape:connector-curvature="0"
         sodipodi:nodetypes="scsssaaassaasssssszs" />
      <path
         style="fill:#000000;fill-rule:evenodd;stroke:#000000;stroke-width:0.89969367px;stroke-linecap:butt;stroke-linejoin:miter;stroke-opacity:1"
         d="m 191.68145,417.00404 c -2.3048,0.85964 -3.57874,3.6685 -4.24518,6.0364 -1.70705,6.06525 -1.06918,12.99063 1.21291,18.86373 0.8181,2.10544 2.07194,4.66605 4.24518,5.28185 1.44493,0.40943 3.29612,-0.34518 4.24519,-1.5091 3.69127,-4.52694 2.55581,-11.51496 2.42582,-17.35463 -0.074,-3.32466 0.45991,-7.38764 -1.81937,-9.80915 -1.4278,-1.51689 -4.11273,-2.23709 -6.06455,-1.5091 z"
         id="path4318"
         inkscape:connector-curvature="0"
         sodipodi:nodetypes="ssssssss" />
      <path
         style="display:inline;fill:#000000;fill-rule:evenodd;stroke:#000000;stroke-width:1.10083508px;stroke-linecap:butt;stroke-linejoin:miter;stroke-opacity:1"
         d="m 156.05589,436.3438 c -0.19384,3.76384 2.03679,7.45249 4.3267,10.44587 4.7117,6.15915 10.90695,12.27615 18.415,14.21634 2.11438,0.54639 5.05415,0.66745 6.47631,-0.98984 1.44646,-1.68561 0.78882,-4.589 -0.005,-6.66346 -2.81203,-7.34853 -9.65912,-12.59895 -15.74465,-17.58642 -2.98575,-2.44701 -6.25842,-6.91443 -9.97756,-5.87975 -2.35729,0.65581 -3.36496,4.01369 -3.4908,6.45726 z"
         id="path4318-8"
         inkscape:connector-curvature="0"
         sodipodi:nodetypes="ssssssss" />
      <path
         style="display:inline;fill:#000000;fill-rule:evenodd;stroke:#000000;stroke-width:0.99521405px;stroke-linecap:butt;stroke-linejoin:miter;stroke-opacity:1"
         d="m 145.6071,468.50265 c 0.07,2.70569 2.62772,4.98333 4.87268,6.49522 5.87179,3.95439 13.45948,5.69209 20.53357,5.42296 2.53199,-0.0963 5.7229,-0.42138 7.18075,-2.4938 0.93878,-1.33453 0.81918,-3.51456 -0.0512,-4.89467 -3.48415,-5.5246 -11.35198,-6.70103 -17.59289,-8.62756 -3.576,-1.10389 -7.69282,-3.11808 -11.11309,-1.59883 -2.09111,0.92885 -3.88901,3.40932 -3.82982,5.69668 z"
         id="path4318-1"
         inkscape:connector-curvature="0"
         sodipodi:nodetypes="ssssssss" />
      <circle
         style="fill:#000000;fill-rule:nonzero;stroke:none;stroke-width:0.76800001;stroke-miterlimit:4;stroke-dasharray:none"
         id="path4227"
         cx="312.23892"
         cy="465.45172"
         r="48.780487" />
      <circle
         style="fill:#000000;fill-rule:nonzero;stroke:none;stroke-width:0.76800001;stroke-miterlimit:4;stroke-dasharray:none"
         id="path4227-0"
         cx="232.36087"
         cy="459.9639"
         r="33.536583" />
      <circle
         style="fill:#ffffff;fill-rule:nonzero;stroke:none;stroke-width:0.76800001;stroke-miterlimit:4;stroke-dasharray:none"
         id="path4227-0-6"
         cx="232.97063"
         cy="459.35416"
         r="22.560974" />
      <circle
         style="fill:#ffffff;fill-rule:nonzero;stroke:none;stroke-width:0.76800001;stroke-miterlimit:4;stroke-dasharray:none"
         id="path4227-0-6-0"
         cx="313.01941"
         cy="466.23218"
         r="35.975609" />
      <circle
         style="display:inline;fill:#000000;fill-rule:nonzero;stroke:none;stroke-width:0.76800001;stroke-miterlimit:4;stroke-dasharray:none"
         id="path4274-7"
         cx="292.11697"
         cy="458.74438"
         r="11.585366" />
      <circle
         style="display:inline;fill:#000000;fill-rule:nonzero;stroke:none;stroke-width:0.76800001;stroke-miterlimit:4;stroke-dasharray:none"
         id="path4274-7-0"
         cx="241.50719"
         cy="459.35413"
         r="11.585366" />
    </g>
  </g>
</svg>
