/* XPM */
static char * fv_xpm[] = {
"48 48 172 2",
"  	c None",
". 	c #E5E5E5",
"+ 	c #A8A8A8",
"@ 	c #424242",
"# 	c #000000",
"$ 	c #050505",
"% 	c #545454",
"& 	c #E4E4E4",
"* 	c #030303",
"= 	c #191919",
"- 	c #222222",
"; 	c #242424",
"> 	c #181818",
", 	c #141414",
"' 	c #595959",
") 	c #DBDBDB",
"! 	c #ECECEC",
"~ 	c #A6A6A6",
"{ 	c #090909",
"] 	c #4A4A4A",
"^ 	c #B9B9B9",
"/ 	c #E3E3E3",
"( 	c #B3B3B3",
"_ 	c #9F9F9F",
": 	c #868686",
"< 	c #0E0E0E",
"[ 	c #444444",
"} 	c #A4A4A4",
"| 	c #2A2A2A",
"1 	c #D8D8D8",
"2 	c #E2E2E2",
"3 	c #3E3E3E",
"4 	c #161616",
"5 	c #454545",
"6 	c #8D8D8D",
"7 	c #151515",
"8 	c #898989",
"9 	c #DEDEDE",
"0 	c #CDCDCD",
"a 	c #B6B6B6",
"b 	c #2D2D2D",
"c 	c #848484",
"d 	c #1F1F1F",
"e 	c #636363",
"f 	c #EAEAEA",
"g 	c #BEBEBE",
"h 	c #333333",
"i 	c #505050",
"j 	c #EBEBEB",
"k 	c #2E2E2E",
"l 	c #7C7C7C",
"m 	c #A0A0A0",
"n 	c #A1A1A1",
"o 	c #AAAAAA",
"p 	c #D5D5D5",
"q 	c #C4C4C4",
"r 	c #E7E7E7",
"s 	c #CACACA",
"t 	c #DDDDDD",
"u 	c #D3D3D3",
"v 	c #B1B1B1",
"w 	c #626262",
"x 	c #8B8B8B",
"y 	c #9A9A9A",
"z 	c #323232",
"A 	c #3B3B3B",
"B 	c #B5B5B5",
"C 	c #696969",
"D 	c #111111",
"E 	c #4C4C4C",
"F 	c #CCCCCC",
"G 	c #C0C0C0",
"H 	c #3C3C3C",
"I 	c #B8B8B8",
"J 	c #767676",
"K 	c #656565",
"L 	c #272727",
"M 	c #717171",
"N 	c #262626",
"O 	c #2C2C2C",
"P 	c #858585",
"Q 	c #E0E0E0",
"R 	c #535353",
"S 	c #B0B0B0",
"T 	c #DADADA",
"U 	c #555555",
"V 	c #DFDFDF",
"W 	c #1C1C1C",
"X 	c #9C9C9C",
"Y 	c #959595",
"Z 	c #1D1D1D",
"` 	c #D7D7D7",
" .	c #9E9E9E",
"..	c #3D3D3D",
"+.	c #CFCFCF",
"@.	c #434343",
"#.	c #AEAEAE",
"$.	c #DCDCDC",
"%.	c #585858",
"&.	c #9B9B9B",
"*.	c #989898",
"=.	c #BBBBBB",
"-.	c #252525",
";.	c #797979",
">.	c #909090",
",.	c #101010",
"'.	c #737373",
").	c #343434",
"!.	c #8F8F8F",
"~.	c #B2B2B2",
"{.	c #282828",
"].	c #0A0A0A",
"^.	c #040404",
"/.	c #676767",
"(.	c #BDBDBD",
"_.	c #A2A2A2",
":.	c #464646",
"<.	c #A3A3A3",
"[.	c #727272",
"}.	c #303030",
"|.	c #0F0F0F",
"1.	c #828282",
"2.	c #020202",
"3.	c #B4B4B4",
"4.	c #AFAFAF",
"5.	c #787878",
"6.	c #7D7D7D",
"7.	c #C2C2C2",
"8.	c #4D4D4D",
"9.	c #080808",
"0.	c #5A5A5A",
"a.	c #C9C9C9",
"b.	c #5C5C5C",
"c.	c #7E7E7E",
"d.	c #414141",
"e.	c #666666",
"f.	c #010101",
"g.	c #353535",
"h.	c #575757",
"i.	c #969696",
"j.	c #949494",
"k.	c #C7C7C7",
"l.	c #212121",
"m.	c #515151",
"n.	c #A9A9A9",
"o.	c #BFBFBF",
"p.	c #D0D0D0",
"q.	c #9D9D9D",
"r.	c #5E5E5E",
"s.	c #CBCBCB",
"t.	c #131313",
"u.	c #ABABAB",
"v.	c #E8E8E8",
"w.	c #1B1B1B",
"x.	c #747474",
"y.	c #C1C1C1",
"z.	c #4F4F4F",
"A.	c #D6D6D6",
"B.	c #E1E1E1",
"C.	c #474747",
"D.	c #888888",
"E.	c #0B0B0B",
"F.	c #939393",
"G.	c #CECECE",
"H.	c #BABABA",
"I.	c #3F3F3F",
"J.	c #E6E6E6",
"K.	c #757575",
"L.	c #ACACAC",
"M.	c #5B5B5B",
"N.	c #2F2F2F",
"O.	c #4E4E4E",
"                                                                                                ",
"                                                . + @ # # # $ % &                               ",
"                                              + * = - ; > , ' )                                 ",
"                                          ! ~ { ] ^ /   ( _ /                                   ",
"                                          : < [                                                 ",
"                                        } | , 1                                                 ",
"                                      2 3 4 5                                                   ",
"                                      6 7 # 8                                                   ",
"                                    9 ] # # 0                                                   ",
"                                    a b # # 9                                                   ",
"                                    c { # d /                                                   ",
"                                  ! e # # ] f                                                   ",
"                                  g h # # i j                                                   ",
"                                  ^ k # # l                                                     ",
"                                  m , # # n                                                     ",
"                                  6 # # # o         p q q 1                 r s t               ",
"                              u v w # # # x v v v y z # # A B             ) C D E F             ",
"                            G [ # # # # # # # # # # # # # # H u         . e # # # +             ",
"                            I J K L # # D w J M # $ N O # # # P         Q R # # < S             ",
"                                T U # # ] V     > W X Y Z # # - `          .# # ..F             ",
"                                +.@.# # U /     #.#.  $.%.# # # &.        *.# # l               ",
"                                =.-.# # ;.              >.,.# # @.      j '.# ).G               ",
"                                B W # # !.              ~.{.# # ]..     F > # M                 ",
"                                ~ ^.# # !.                /.# # # (.    _.# :.p                 ",
"                                <.# # # S                 [.# # # w   2 }.|.1.                  ",
"                                1.# # 2.3.                4.{.# # |   5.* '                     ",
"                                6.# # d 7.                r 8.# # # 0 9.b q                     ",
"                              Q 0.# # k a.                  b.# # # N k c.                      ",
"                              p d.# # U $.                  e.^.# # f.k &                       ",
"                              +.g.# # h.t                   i.= # # 9.j.                        ",
"                              k.l.# # c.                    g | # # m.                  n.      ",
"                              o.|.# # !.                    +.z # ] p.                  n.      ",
"                              I # # # q.                      P r.s.                            ",
"                              _ # # t.u.                      v.Q                               ",
"                              j.# # w.v                                                         ",
"                              x.# # z y.                                                        ",
"                            2 8.# # z.A.                                                        ",
"                            B.C.# # D.                                                          ",
"                            A.d # E.F.                                                          ",
"                            G.# # ] p                                                           ",
"                            + # E.x.                                                            ",
"                          j h $ C.s.                                                            ",
"                          H.# - o                                                               ",
"                        a.I.7 !.                                                                ",
"          f G G J.  r K...b L.                                                                  ",
"        ) M.N.N.@ O.@ { K k.                                                                    ",
"      j C 9.# # # # 0.I J.                                                                      ",
"        / 1 1 1 1 1 f                                                                           "};
