<?xml version="1.0" ?><!DOCTYPE svg  PUBLIC '-//W3C//DTD SVG 1.0//EN'  'http://www.w3.org/TR/2001/REC-SVG-20010904/DTD/svg10.dtd'><svg enable-background="new 0 0 24 32" height="32" overflow="visible" viewBox="0 0 24 32" width="24" xml:space="preserve" xmlns="http://www.w3.org/2000/svg" xmlns:xlink="http://www.w3.org/1999/xlink"><g><g id="Layer_2"><g id="Green_x5F_pacman_ghost"><path d="M12,0C5.373,0,0,5.373,0,12v20l3-3l3,3l3-3l3,3l3-3l3,3l3-3l3,3V12        C24,5.373,18.627,0,12,0z" fill="#34B67A" id="Body"/><path d="M21.325,11.125C20.775,10.444,19.943,10,19,10        c-1.657,0-3,1.343-3,3s1.343,3,3,3c0.943,0,1.775-0.445,2.325-1.125C20.555,14.597,20,13.866,20,13        S20.554,11.403,21.325,11.125z" fill="#E6E6E6" id="Right_x5F_eye"/><path d="M13.325,11.125C12.775,10.444,11.943,10,11,10        c-1.657,0-3,1.343-3,3s1.343,3,3,3c0.943,0,1.775-0.445,2.325-1.125C12.555,14.597,12,13.866,12,13        S12.554,11.403,13.325,11.125z" fill="#E6E6E6" id="Left_x5F_eye"/><path d="M22,13c0-0.713-0.26-1.36-0.675-1.875        C20.554,11.403,20,12.134,20,13s0.555,1.597,1.325,1.875C21.74,14.36,22,13.713,22,13z" fill="#25374B" id="Right_x5F_eyeball"/><path d="M14,13c0-0.713-0.26-1.36-0.675-1.875        C12.554,11.403,12,12.134,12,13s0.555,1.597,1.325,1.875C13.74,14.36,14,13.713,14,13z" fill="#25374B" id="Left_x5F_eyeball"/></g></g></g></svg>