<?xml version="1.0" encoding="UTF-8"?>
<svg xmlns="http://www.w3.org/2000/svg" xmlns:xlink="http://www.w3.org/1999/xlink" viewBox="0 0 48 48" version="1.1" width="50px" height="50px">
<g id="surface1">
<path style=" fill:#F44336;" d="M 37 24 L 30.0625 24 C 26.714844 24 24 21.285156 24 17.9375 L 24 0.574219 C 24 0.355469 24.261719 0.238281 24.421875 0.390625 L 37 12 Z "/>
<path style=" fill:#AD1457;" d="M 37 24 L 30.0625 24 C 28.628906 24 27.308594 23.5 26.269531 22.667969 L 37 12 Z "/>
<path style=" fill:#8BC34A;" d="M 11 24 L 17.9375 24 C 21.285156 24 24 26.714844 24 30.0625 L 24 47.425781 C 24 47.644531 23.738281 47.757813 23.578125 47.609375 L 11 36 Z "/>
<path style=" fill:#009688;" d="M 11 24 L 17.9375 24 C 19.371094 24 20.691406 24.5 21.730469 25.332031 L 11 36 Z "/>
<path style=" fill:#FFC107;" d="M 24 11 L 24 17.9375 C 24 21.285156 21.285156 24 17.9375 24 L 0.574219 24 C 0.355469 24 0.238281 23.738281 0.390625 23.578125 L 12 11 Z "/>
<path style=" fill:#FF9800;" d="M 24 11 L 24 17.9375 C 24 19.371094 23.5 20.691406 22.667969 21.730469 L 12 11 Z "/>
<path style=" fill:#448AFF;" d="M 24 37 L 24 30.0625 C 24 26.714844 26.714844 24 30.0625 24 L 47.425781 24 C 47.644531 24 47.757813 24.261719 47.609375 24.421875 L 36 37 Z "/>
<path style=" fill:#1565C0;" d="M 24 37 L 24 30.0625 C 24 28.628906 24.5 27.308594 25.332031 26.269531 L 36 37 Z "/>
</g>
</svg>
