<?xml version="1.0" encoding="UTF-8"?>
<!DOCTYPE svg PUBLIC "-//W3C//DTD SVG 1.1//EN" "http://www.w3.org/Graphics/SVG/1.1/DTD/svg11.dtd">
<svg xmlns="http://www.w3.org/2000/svg" version="1.1" width="48px" height="48px" style="shape-rendering:geometricPrecision; text-rendering:geometricPrecision; image-rendering:optimizeQuality; fill-rule:evenodd; clip-rule:evenodd" xmlns:xlink="http://www.w3.org/1999/xlink">
<g><path style="opacity:1" fill="#e94f10" d="M -0.5,-0.5 C 15.5,-0.5 31.5,-0.5 47.5,-0.5C 47.5,15.5 47.5,31.5 47.5,47.5C 31.5,47.5 15.5,47.5 -0.5,47.5C -0.5,31.5 -0.5,15.5 -0.5,-0.5 Z"/></g>
<g><path style="opacity:1" fill="#f7a383" d="M 22.5,3.5 C 26.35,3.70072 27.35,5.53406 25.5,9C 21.5369,9.11766 20.5369,7.28433 22.5,3.5 Z"/></g>
<g><path style="opacity:1" fill="#f9c4ad" d="M 31.5,3.5 C 32.7479,4.3339 33.4146,5.66723 33.5,7.5C 33.1667,8.83333 32.8333,10.1667 32.5,11.5C 31.52,8.91355 31.1866,6.24688 31.5,3.5 Z"/></g>
<g><path style="opacity:1" fill="#f4aa89" d="M 42.5,4.5 C 41.8333,15.1667 41.1667,25.8333 40.5,36.5C 40.1679,25.4798 40.5012,14.4798 41.5,3.5C 42.1067,3.62358 42.44,3.95691 42.5,4.5 Z"/></g>
<g><path style="opacity:1" fill="#fbdcce" d="M 42.5,4.5 C 42.5,17.1667 42.5,29.8333 42.5,42.5C 41.209,42.7373 40.209,42.404 39.5,41.5C 40.4345,40.4324 40.7678,39.099 40.5,37.5C 39.5,37.5 38.5,37.5 37.5,37.5C 37.5,37.1667 37.5,36.8333 37.5,36.5C 38.5,36.5 39.5,36.5 40.5,36.5C 41.1667,25.8333 41.8333,15.1667 42.5,4.5 Z"/></g>
<g><path style="opacity:1" fill="#f8af90" d="M 15.5,12.5 C 14.2353,11.4855 13.5687,9.98552 13.5,8C 13.8333,6.5 14.1667,5 14.5,3.5C 15.4841,6.42814 15.8174,9.42814 15.5,12.5 Z"/></g>
<g><path style="opacity:1" fill="#fff4ef" d="M 22.5,13.5 C 23.5,13.5 24.5,13.5 25.5,13.5C 27.1172,14.038 28.7839,14.3713 30.5,14.5C 36.8677,20.4338 38.201,27.4338 34.5,35.5C 33.5,35.8333 32.8333,36.5 32.5,37.5C 30.2543,38.4552 27.921,39.1218 25.5,39.5C 24.8485,40.0906 24.1818,40.7573 23.5,41.5C 22.8182,40.7573 22.1515,40.0906 21.5,39.5C 19.6916,39.5086 18.0249,39.0086 16.5,38C 14.9625,36.2927 13.2959,34.7927 11.5,33.5C 11.0074,31.1944 10.6741,28.861 10.5,26.5C 11.5,26.5 12.5,26.5 13.5,26.5C 14.1501,34.4497 14.8168,34.4497 15.5,26.5C 15.1667,24.5 14.8333,22.5 14.5,20.5C 13.5481,22.0453 13.2148,23.712 13.5,25.5C 12.5,25.5 11.5,25.5 10.5,25.5C 10.8782,23.079 11.5448,20.7457 12.5,18.5C 13.8333,17.8333 14.8333,16.8333 15.5,15.5C 17.7457,14.5448 20.079,13.8782 22.5,13.5 Z"/></g>
<g><path style="opacity:1" fill="#f9c8b3" d="M 4.5,3.5 C 6.60395,3.2011 8.60395,3.53443 10.5,4.5C 9.31116,5.42869 7.97782,5.76202 6.5,5.5C 6.5,8.83333 6.5,12.1667 6.5,15.5C 10.5,16.1667 10.5,16.8333 6.5,17.5C 6.83137,26.1922 6.49804,34.8589 5.5,43.5C 4.50083,30.1833 4.1675,16.85 4.5,3.5 Z"/></g>
<g><path style="opacity:1" fill="#eb5826" d="M 30.5,14.5 C 38.8819,19.7461 40.5485,26.7461 35.5,35.5C 35.1667,35.5 34.8333,35.5 34.5,35.5C 38.201,27.4338 36.8677,20.4338 30.5,14.5 Z"/></g>
<g><path style="opacity:1" fill="#fbd4c4" d="M 36.5,36.5 C 35.8333,36.5 35.5,36.1667 35.5,35.5C 40.5485,26.7461 38.8819,19.7461 30.5,14.5C 29.0045,12.655 27.3379,12.3217 25.5,13.5C 24.5,13.5 23.5,13.5 22.5,13.5C 19.7151,12.1153 17.3817,12.782 15.5,15.5C 14.7611,15.631 14.0944,15.4643 13.5,15C 14.3805,14.2917 15.0472,13.4584 15.5,12.5C 23.895,8.77244 31.0617,10.4391 37,17.5C 40.4204,23.9491 40.2537,30.2824 36.5,36.5 Z"/></g>
<g><path style="opacity:1" fill="#e95324" d="M 22.5,13.5 C 20.079,13.8782 17.7457,14.5448 15.5,15.5C 17.3817,12.782 19.7151,12.1153 22.5,13.5 Z"/></g>
<g><path style="opacity:1" fill="#e74414" d="M 25.5,13.5 C 27.3379,12.3217 29.0045,12.655 30.5,14.5C 28.7839,14.3713 27.1172,14.038 25.5,13.5 Z"/></g>
<g><path style="opacity:1" fill="#e8450e" d="M 12.5,18.5 C 11.5448,20.7457 10.8782,23.079 10.5,25.5C 11.5,25.5 12.5,25.5 13.5,25.5C 14.8333,25.8333 14.8333,26.1667 13.5,26.5C 12.5,26.5 11.5,26.5 10.5,26.5C 10.6741,28.861 11.0074,31.1944 11.5,33.5C 9.98274,31.5379 9.31608,29.2046 9.5,26.5C 9.07284,23.1743 10.0728,20.5076 12.5,18.5 Z"/></g>
<g><path style="opacity:1" fill="#f18454" d="M 13.5,26.5 C 14.8333,26.1667 14.8333,25.8333 13.5,25.5C 13.2148,23.712 13.5481,22.0453 14.5,20.5C 14.8333,22.5 15.1667,24.5 15.5,26.5C 14.8168,34.4497 14.1501,34.4497 13.5,26.5 Z"/></g>
<g><path style="opacity:1" fill="#ee6937" d="M 20.5,22.5 C 21.3019,23.9516 21.8019,25.6183 22,27.5C 22.8113,26.0403 23.6446,25.707 24.5,26.5C 23.9394,28.4259 23.7727,30.4259 24,32.5C 22.6107,28.7279 21.6107,28.7279 21,32.5C 20.5017,29.1832 20.335,25.8499 20.5,22.5 Z"/></g>
<g><path style="opacity:1" fill="#eb632a" d="M 32.5,25.5 C 33.552,25.3505 34.552,25.5172 35.5,26C 33.9262,27.8259 33.0929,29.9925 33,32.5C 32.5034,30.1902 32.3367,27.8568 32.5,25.5 Z"/></g>
<g><path style="opacity:1" fill="#ec6230" d="M 30.5,26.5 C 30.5,27.5 30.5,28.5 30.5,29.5C 29.325,29.281 28.325,29.6143 27.5,30.5C 28.2739,31.7112 29.1072,31.7112 30,30.5C 30.4643,31.0944 30.631,31.7611 30.5,32.5C 24.3708,31.9147 24.0374,30.2481 29.5,27.5C 28.3966,27.0024 27.3966,26.6691 26.5,26.5C 27.9584,25.218 29.2918,25.218 30.5,26.5 Z"/></g>
<g><path style="opacity:1" fill="#f9b08f" d="M 30.5,26.5 C 31.8333,28.5 31.8333,30.5 30.5,32.5C 30.631,31.7611 30.4643,31.0944 30,30.5C 29.1072,31.7112 28.2739,31.7112 27.5,30.5C 28.325,29.6143 29.325,29.281 30.5,29.5C 30.5,28.5 30.5,27.5 30.5,26.5 Z"/></g>
<g><path style="opacity:1" fill="#fbd2c0" d="M 12.5,18.5 C 10.0728,20.5076 9.07284,23.1743 9.5,26.5C 9.31608,29.2046 9.98274,31.5379 11.5,33.5C 12.4151,35.7541 13.7484,37.7541 15.5,39.5C 11.6213,37.7945 9.12126,34.7945 8,30.5C 6.59764,25.025 7.93098,20.3583 12,16.5C 12.4643,17.0944 12.631,17.7611 12.5,18.5 Z"/></g>
<g><path style="opacity:1" fill="#e84a1d" d="M 11.5,33.5 C 13.2959,34.7927 14.9625,36.2927 16.5,38C 18.0249,39.0086 19.6916,39.5086 21.5,39.5C 19.6531,40.5729 17.6531,40.5729 15.5,39.5C 13.7484,37.7541 12.4151,35.7541 11.5,33.5 Z"/></g>
<g><path style="opacity:1" fill="#ea5223" d="M 32.5,37.5 C 30.7838,39.4474 28.6171,40.7807 26,41.5C 25.5357,40.9056 25.369,40.2389 25.5,39.5C 27.921,39.1218 30.2543,38.4552 32.5,37.5 Z"/></g>
<g><path style="opacity:1" fill="#f9b9a1" d="M 34.5,35.5 C 34.8333,35.5 35.1667,35.5 35.5,35.5C 35.5,36.1667 35.8333,36.5 36.5,36.5C 36.8333,36.5 37.1667,36.5 37.5,36.5C 37.5,36.8333 37.5,37.1667 37.5,37.5C 35.8522,39.8722 36.5189,41.2056 39.5,41.5C 40.209,42.404 41.209,42.7373 42.5,42.5C 37.9128,44.4542 35.4128,42.7876 35,37.5C 29.656,42.6537 23.4893,43.8203 16.5,41C 15.944,40.6174 15.6107,40.1174 15.5,39.5C 17.6531,40.5729 19.6531,40.5729 21.5,39.5C 22.1515,40.0906 22.8182,40.7573 23.5,41.5C 24.1818,40.7573 24.8485,40.0906 25.5,39.5C 25.369,40.2389 25.5357,40.9056 26,41.5C 28.6171,40.7807 30.7838,39.4474 32.5,37.5C 32.8333,36.5 33.5,35.8333 34.5,35.5 Z"/></g>
<g><path style="opacity:1" fill="#e73f0d" d="M 37.5,37.5 C 38.5,37.5 39.5,37.5 40.5,37.5C 40.7678,39.099 40.4345,40.4324 39.5,41.5C 36.5189,41.2056 35.8522,39.8722 37.5,37.5 Z"/></g>
</svg>
