<?xml version="1.0" encoding="UTF-8" standalone="no"?>
<svg
   viewBox="0 -0.5 42 42"
   shape-rendering="crispEdges"
   version="1.1"
   id="svg2"
   width="42"
   height="42"
   xmlns="http://www.w3.org/2000/svg"
   xmlns:svg="http://www.w3.org/2000/svg">
  <defs
     id="defs2" />
  <metadata
     id="metadata1">Made with Pixels to Svg https://codepen.io/shshaw/pen/XbxvNj</metadata>
  <g
     id="g2"
     transform="translate(0,3)">
    <path
       stroke="#56595b"
       d="M 14,0 H 27 M 11,1 H 29 M 11,2 h 4 m 11,0 h 4 M 10,3 h 5 m 13,0 h 5 M 10,4 h 4 m 15,0 h 6 M 9,5 h 4 m 19,0 h 4 M 8,6 h 3 m 23,0 h 3 M 7,7 h 3 m 25,0 h 3 M 6,8 h 3 m 27,0 h 3 M 6,9 h 2 m 29,0 h 2 M 5,10 h 3 m 29,0 h 3 M 4,11 h 3 m 31,0 h 2 M 3,12 h 3 m 32,0 h 3 M 3,13 h 2 m 34,0 h 2 M 2,14 h 3 m 29,0 h 4 m 1,0 h 3 M 2,15 h 2 m 29,0 h 5 m 2,0 h 2 M 1,16 h 3 m 29,0 h 4 m 3,0 h 2 M 1,17 h 2 m 4,0 h 2 m 31,0 h 2 M 0,18 h 3 m 2,0 h 5 m 30,0 h 2 M 0,19 h 2 m 3,0 h 5 m 30,0 h 2 M 0,20 h 2 m 4,0 h 2 m 32,0 h 2 M 0,21 h 2 m 20,0 h 10 m 8,0 h 2 M 0,22 h 3 m 16,0 h 14 m 6,0 h 3 M 1,23 h 2 m 14,0 h 6 m 8,0 h 3 m 5,0 h 2 M 1,24 h 3 m 11,0 h 5 m 11,0 h 3 m 5,0 h 2 M 2,25 h 3 m 10,0 h 4 m 12,0 h 2 m 5,0 h 3 M 3,26 h 2 m 10,0 h 2 m 11,0 h 5 m 5,0 h 2 M 3,27 h 3 m 9,0 h 7 m 1,0 h 9 m 5,0 h 3 M 4,28 h 3 m 9,0 h 13 m 7,0 h 3 M 5,29 h 3 m 13,0 h 4 m 10,0 h 3 M 6,30 h 4 m 23,0 h 4 M 7,31 h 5 m 19,0 h 5 M 9,32 h 5 m 14,0 h 6 m -23,1 h 6 m 8,0 h 7 m -19,1 h 16 m -13,1 h 10"
       id="path1" />
    <path
       stroke="#ffffff"
       d="M 15,2 H 26 M 15,3 H 28 M 14,4 H 29 M 13,5 H 32 M 11,6 H 34 M 10,7 H 35 M 9,8 H 36 M 8,9 H 37 M 8,10 H 37 M 7,11 H 38 M 6,12 H 38 M 5,13 H 39 M 5,14 h 29 m 4,0 h 1 M 4,15 h 29 m 5,0 h 2 M 4,16 h 29 m 4,0 h 3 M 3,17 h 4 m 2,0 H 40 M 3,18 h 2 m 5,0 H 40 M 2,19 h 3 m 5,0 H 40 M 2,20 h 4 m 2,0 H 40 M 2,21 h 20 m 10,0 h 8 M 3,22 h 16 m 14,0 h 6 M 3,23 h 14 m 6,0 h 8 m 3,0 h 5 M 4,24 h 11 m 5,0 h 11 m 3,0 h 5 M 5,25 h 10 m 4,0 h 12 m 2,0 h 5 M 5,26 h 10 m 2,0 h 11 m 5,0 h 5 M 6,27 h 9 m 7,0 h 1 m 9,0 h 5 M 7,28 h 9 m 13,0 h 7 M 8,29 h 13 m 4,0 h 10 m -25,1 h 23 m -21,1 h 19 m -17,1 h 14 m -11,1 h 8"
       id="path2" />
  </g>
</svg>
