<?xml version="1.0" encoding="UTF-8"?>
<svg width="512" height="512" version="1.1" xmlns="http://www.w3.org/2000/svg">
	<path d="m424.09 495.41h-336.17c-5.183 0-9.3996-4.2165-9.3996-9.3996v-460.03c0-5.183 4.2165-9.3996 9.3996-9.3996h248.26l97.313 97.313v372.11c0 5.183-4.2165 9.3996-9.3996 9.3996z" fill="#f9f9f9"/>
	<path d="m352.76 28.316 68.997 68.997h-59.598c-5.183 0-9.3996-4.2165-9.3996-9.3996z" fill="#ccc"/>
	<path d="m447.64 99.743-97.313-97.313c-1.5548-1.5559-3.6647-2.4295-5.8642-2.4295h-256.55c-14.329 0-25.987 11.658-25.987 25.987v460.03c0 14.329 11.658 25.987 25.987 25.987h336.17c14.329 0 25.987-11.658 25.987-25.987v-380.41c0-2.1995-0.87361-4.3094-2.4295-5.8642zm-94.884-71.427 68.997 68.997h-59.598c-5.183 0-9.3996-4.2165-9.3996-9.3996zm71.326 467.09h-336.17c-5.183 0-9.3996-4.2165-9.3996-9.3996v-460.03c0-5.183 4.2165-9.3996 9.3996-9.3996h248.26v71.326c0 14.329 11.658 25.987 25.987 25.987h71.326v372.11c0 5.183-4.2165 9.3996-9.3996 9.3996z"/>
	<g fill="#f8b0b0">
		<path d="m149.84 389.25h-17.693c-9.4515 0-17.14 7.6888-17.14 17.14v17.693c0 9.4515 7.6888 17.14 17.14 17.14h17.693c9.4515 0 17.14-7.6888 17.14-17.14v-17.693c0-9.4515-7.6888-17.14-17.14-17.14zm0.55291 34.834c0 0.30521-0.2477 0.55291-0.55291 0.55291h-17.693c-0.30521 0-0.55291-0.2477-0.55291-0.55291v-17.693c0-0.30521 0.2477-0.55291 0.55291-0.55291h17.693c0.30521 0 0.55291 0.2477 0.55291 0.55291z"/>
		<path d="m149.84 309.63h-17.693c-9.4515 0-17.14 7.6888-17.14 17.14v17.693c0 9.4516 7.6888 17.14 17.14 17.14h17.693c9.4515 0 17.14-7.6888 17.14-17.14v-17.693c0-9.4515-7.6888-17.14-17.14-17.14zm0.55291 34.834c0 0.30521-0.2477 0.55292-0.55291 0.55292h-17.693c-0.30521 0-0.55291-0.24771-0.55291-0.55292v-17.693c0-0.30521 0.2477-0.55292 0.55291-0.55292h17.693c0.30521 0 0.55291 0.24771 0.55291 0.55292z"/>
		<path d="m149.84 230.01h-17.693c-9.4515 0-17.14 7.6888-17.14 17.14v17.693c0 9.4515 7.6888 17.14 17.14 17.14h17.693c9.4515 0 17.14-7.6888 17.14-17.14v-17.693c0-9.4515-7.6888-17.14-17.14-17.14zm0.55291 34.834c0 0.30521-0.2477 0.55291-0.55291 0.55291h-17.693c-0.30521 0-0.55291-0.2477-0.55291-0.55291v-17.693c0-0.30521 0.2477-0.55291 0.55291-0.55291h17.693c0.30521 0 0.55291 0.2477 0.55291 0.55291z"/>
		<path d="m149.84 150.39h-17.693c-9.4515 0-17.14 7.6888-17.14 17.14v17.693c0 9.4516 7.6888 17.14 17.14 17.14h17.693c9.4515 0 17.14-7.6888 17.14-17.14v-17.693c0-9.4516-7.6888-17.14-17.14-17.14zm0.55291 34.834c0 0.30521-0.2477 0.55292-0.55291 0.55292h-17.693c-0.30521 0-0.55291-0.24771-0.55291-0.55292v-17.693c0-0.30521 0.2477-0.55292 0.55291-0.55292h17.693c0.30521 0 0.55291 0.24771 0.55291 0.55292z"/>
		<path d="m149.84 70.773h-17.693c-9.4515 0-17.14 7.6888-17.14 17.14v17.693c0 9.4515 7.6888 17.14 17.14 17.14h17.693c9.4515 0 17.14-7.6888 17.14-17.14v-17.693c0-9.4515-7.6888-17.14-17.14-17.14zm0.55291 34.834c0 0.30521-0.2477 0.55291-0.55291 0.55291h-17.693c-0.30521 0-0.55291-0.2477-0.55291-0.55291v-17.693c0-0.30521 0.2477-0.55292 0.55291-0.55292h17.693c0.30521 0 0.55291 0.24771 0.55291 0.55292z"/>
	</g>
	<g fill="#b0fcf8">
		<path d="m309.08 424.64h-115.01c-4.5804 0-8.2938 3.7134-8.2938 8.2937 0 4.5804 3.7134 8.2937 8.2938 8.2937h115.01c4.5804 0 8.2937-3.7134 8.2937-8.2937 0-4.5804-3.7134-8.2937-8.2937-8.2937z"/>
		<path d="m388.7 345.02h-194.63c-4.5804 0-8.2938 3.7134-8.2938 8.2937 0 4.5804 3.7134 8.2937 8.2938 8.2937h194.63c4.5804 0 8.2938-3.7134 8.2938-8.2937 0-4.5804-3.7134-8.2937-8.2938-8.2937z"/>
		<path d="m194.08 281.99h115.01c4.5804 0 8.2937-3.7134 8.2937-8.2937 0-4.5804-3.7134-8.2937-8.2937-8.2937h-115.01c-4.5804 0-8.2938 3.7134-8.2938 8.2937 0 4.5804 3.7134 8.2937 8.2938 8.2937z"/>
		<path d="m388.7 185.78h-194.63c-4.5804 0-8.2938 3.7134-8.2938 8.2937 0 4.5804 3.7134 8.2937 8.2938 8.2937h194.63c4.5804 0 8.2938-3.7134 8.2938-8.2937 0-4.5804-3.7134-8.2937-8.2938-8.2937z"/>
		<path d="m194.08 122.75h115.01c4.5804 0 8.2937-3.7134 8.2937-8.2937 0-4.5804-3.7134-8.2937-8.2937-8.2937h-115.01c-4.5804 0-8.2938 3.7134-8.2938 8.2937 0 4.5804 3.7134 8.2937 8.2938 8.2937z"/>
	</g>
	<path d="m194.08 405.84h79.62c4.5803 0 8.2937-3.7134 8.2937-8.2937 0-4.5804-3.7134-8.2937-8.2937-8.2937h-79.62c-4.5804 0-8.2937 3.7134-8.2937 8.2937 0 4.5804 3.7134 8.2937 8.2937 8.2937z"/>
	<path d="m194.08 326.22h115.01c4.5804 0 8.2938-3.7134 8.2938-8.2937 0-4.5804-3.7134-8.2937-8.2938-8.2937h-115.01c-4.5804 0-8.2937 3.7134-8.2937 8.2937 0 4.5804 3.7134 8.2937 8.2937 8.2937z"/>
	<path d="m194.08 246.6h79.62c4.5803 0 8.2937-3.7134 8.2937-8.2937 0-4.5804-3.7134-8.2937-8.2937-8.2937h-79.62c-4.5804 0-8.2937 3.7134-8.2937 8.2937 0 4.5804 3.7134 8.2937 8.2937 8.2937z"/>
	<path d="m194.08 166.98h115.01c4.5804 0 8.2938-3.7134 8.2938-8.2937 0-4.5804-3.7134-8.2937-8.2938-8.2937h-115.01c-4.5804 0-8.2937 3.7134-8.2937 8.2937 0 4.5804 3.7134 8.2937 8.2937 8.2937z"/>
	<path d="m194.08 87.361h79.62c4.5803 0 8.2937-3.7134 8.2937-8.2937 0-4.5804-3.7134-8.2937-8.2937-8.2937h-79.62c-4.5804 0-8.2937 3.7134-8.2937 8.2937 0 4.5804 3.7134 8.2937 8.2937 8.2937z"/>
</svg>
