<?xml version="1.0" encoding="UTF-8" standalone="no"?>
<svg
   width="64pt"
   height="64pt"
   viewBox="0 0 64 64"
   version="1.1"
   id="svg21"
   sodipodi:docname="icon.svg"
   inkscape:version="1.1 (c4e8f9ed74, 2021-05-24)"
   xmlns:inkscape="http://www.inkscape.org/namespaces/inkscape"
   xmlns:sodipodi="http://sodipodi.sourceforge.net/DTD/sodipodi-0.dtd"
   xmlns="http://www.w3.org/2000/svg"
   xmlns:svg="http://www.w3.org/2000/svg">
  <defs
     id="defs25" />
  <sodipodi:namedview
     id="namedview23"
     pagecolor="#ffffff"
     bordercolor="#666666"
     borderopacity="1.0"
     inkscape:pageshadow="2"
     inkscape:pageopacity="0.0"
     inkscape:pagecheckerboard="0"
     inkscape:document-units="pt"
     showgrid="false"
     inkscape:zoom="90.509668"
     inkscape:cx="37.106533"
     inkscape:cy="36.874514"
     inkscape:window-width="1405"
     inkscape:window-height="914"
     inkscape:window-x="574"
     inkscape:window-y="53"
     inkscape:window-maximized="0"
     inkscape:current-layer="surface1" />
  <g
     id="surface1">
    <path
       style="fill:#000000;fill-opacity:1;fill-rule:nonzero;stroke:none"
       d="m 10.023438,4.210938 c 3.609374,7.710937 7.292968,16.164062 7.875,18.097656 0.09766,0.324218 0.191406,0.59375 0.199218,0.601562 0.02344,0.01172 2.105469,-0.324218 2.425782,-0.398437 0.15625,-0.03125 0.203124,0.02734 0.535156,0.640625 0.78125,1.460937 1.015625,2.613281 0.714844,3.519531 -0.332032,1.015625 -1.910157,3.246094 -3.289063,4.640625 -0.699219,0.714844 -1.109375,1.230469 -1.570313,1.976562 -0.816406,1.308594 -1.242187,1.863282 -1.949218,2.53125 -1.054688,1.007813 -1.332032,1.324219 -1.59375,1.792969 -0.511719,0.957031 -0.125,1.824219 1.125,2.472657 0.65625,0.34375 1.160156,0.441406 2.367187,0.488281 1.296875,0.04687 1.824219,-0.02734 2.871094,-0.410157 0.457031,-0.15625 0.820313,-0.257812 0.851563,-0.222656 0.05078,0.07813 -0.3125,0.785156 -0.6875,1.320313 -0.246094,0.359375 -0.3125,0.402343 -0.972657,0.695312 -0.917969,0.398438 -1.519531,0.90625 -1.90625,1.605469 -0.453125,0.808594 -0.351562,1.34375 0.386719,1.953125 0.195312,0.164063 0.230469,0.242187 0.230469,0.5 0,0.398437 0.222656,1.097656 0.46875,1.476563 0.113281,0.164062 0.359375,0.414062 0.550781,0.554687 0.746094,0.542969 0.914062,0.734375 0.914062,1.019531 0,0.546875 -0.242187,0.773438 -1.152343,1.050782 -1.992188,0.621093 -3.175781,1.824218 -3.578125,3.65625 -0.140625,0.644531 -0.121094,0.757812 0.230468,1.183593 0.707032,0.851563 2.589844,1.722657 4.507813,2.085938 1.230469,0.238281 2.054687,0.300781 3.65625,0.265625 1.390625,-0.02734 1.546875,-0.04687 2.007813,-0.199219 0.714843,-0.238281 1.234374,-0.535156 2.0625,-1.164063 1.175781,-0.902343 2.128906,-1.339843 3.855468,-1.757812 1.496094,-0.355469 1.339844,-0.363281 1.398438,0.07422 0.148437,1.082031 0.675781,2.199219 1.441406,3.082031 0.859375,0.984375 1.101562,1.75 1.027344,3.164062 l -0.04297,0.847657 h 4.457031 l -3.519531,-0.246094 c 0.03125,-0.136719 0.05078,-0.652344 0.05078,-1.140625 0,-1.324219 -0.238281,-1.957031 -1.109375,-2.96875 -0.742187,-0.867188 -1.332031,-2.164062 -1.390625,-3.070312 l -0.01953,-0.316407 0.554687,-0.171875 c 7.40625,-2.269531 9.214844,-2.894531 10.523438,-3.617187 0.691406,-0.382813 0.921875,-0.613281 1.324219,-1.335938 l 0.320312,-0.574219 0.02344,-1.898437 c 0.03516,-2.625 -0.132813,-3.726563 -0.609375,-4.132813 -0.292969,-0.242187 -1.265625,-0.71875 -1.074219,-0.519531 0.203125,0.203125 0.410156,0.671875 0.558594,1.28125 0.113281,0.484375 0.136719,0.867188 0.136719,2.675781 0,1.878907 -0.01563,2.15625 -0.144532,2.480469 -0.273437,0.742188 -0.972656,1.335938 -2.203125,1.886719 -1.175781,0.519531 -4.769531,1.65625 -9.96875,3.140625 -1.964843,0.558594 -3.625,1.109375 -4.316406,1.417969 -0.589844,0.265625 -1.871094,0.972656 -2.679687,1.488281 -0.386719,0.246094 -0.871094,0.503906 -1.078126,0.5625 -0.566406,0.179687 -2.136718,0.207031 -3.5,0.06641 -2.335937,-0.230469 -4.078124,-0.824219 -5.1875,-1.75 -0.386718,-0.332031 -0.429687,-0.398437 -0.429687,-0.628906 0,-0.726563 0.421875,-1.527344 1.101563,-2.097656 0.492187,-0.410157 0.757812,-0.546875 2.113281,-1.101563 0.730469,-0.300781 1.277343,-0.703125 1.480469,-1.097656 0.164062,-0.320312 0.179687,-0.828125 0.03125,-1.191406 -0.0625,-0.140625 -0.08984,-0.269532 -0.08203,-0.285156 0.01172,-0.01172 0.273438,-0.05078 0.5625,-0.08594 0.300782,-0.03906 0.707032,-0.125 0.910156,-0.199219 0.402344,-0.136719 1.210938,-0.574219 1.160157,-0.625 -0.02344,-0.01563 -0.199219,0 -0.402344,0.03906 -0.199219,0.03906 -0.847656,0.08594 -1.441406,0.105468 -1.519531,0.05859 -2.085938,-0.101562 -2.347657,-0.660156 -0.238281,-0.511718 -0.101562,-0.894531 0.402344,-1.113281 0.320313,-0.136719 0.46875,-0.152344 2.242188,-0.191406 2.054687,-0.03906 2.292968,-0.07813 2.976562,-0.480469 l 0.28125,-0.167969 0.08203,0.292969 c 0.04687,0.15625 0.08203,0.414062 0.08203,0.574219 l 0.0078,0.285156 0.125,-0.199219 c 0.09766,-0.152344 0.128907,-0.355468 0.128907,-0.859375 0,-0.636719 -0.01563,-0.695312 -0.277344,-1.15625 -0.148438,-0.273437 -0.371094,-0.582031 -0.496094,-0.6875 l -0.226562,-0.191406 -0.296876,0.21875 c -0.171874,0.109375 -0.304687,0.230469 -0.304687,0.25 0,0.01953 0.15625,0.183594 0.351563,0.355469 0.320312,0.292968 0.339843,0.324218 0.257812,0.484375 -0.175781,0.34375 -0.480469,0.394531 -2.207031,0.371093 -0.859375,-0.0078 -2.0625,0.01953 -2.664063,0.0625 -0.796875,0.0625 -1.140625,0.06641 -1.230468,0.01563 -0.320313,-0.179688 0.06641,-1.144532 0.648437,-1.625 0.492187,-0.410157 0.96875,-0.542969 1.90625,-0.53125 0.488281,0 0.914063,0.05469 1.25,0.140624 0.273437,0.06641 0.496094,0.105469 0.496094,0.07031 0,-0.113281 -0.660157,-0.546875 -1.113281,-0.738281 -0.269532,-0.113282 -0.5,-0.210938 -0.515626,-0.21875 -0.01562,-0.01563 0.09766,-0.191406 0.238282,-0.402344 0.527344,-0.773438 0.738281,-1.765625 0.453125,-2.128906 -0.109375,-0.140625 -0.164063,-0.152344 -0.542969,-0.121094 -0.230469,0.01563 -0.78125,0.140625 -1.21875,0.273438 -1.027344,0.300781 -2.105469,0.453124 -2.984375,0.421874 -0.582031,-0.01953 -0.746094,-0.05859 -1.183594,-0.25 -0.28125,-0.121093 -0.675781,-0.359374 -0.878906,-0.53125 -0.34375,-0.285156 -0.363281,-0.324218 -0.363281,-0.632812 0,-0.53125 0.3125,-1 1.375,-2.050781 0.921875,-0.914063 1.160156,-1.222657 2.195312,-2.851563 0.449219,-0.710937 0.699219,-1.015625 1.707032,-2.113281 0.675781,-0.726563 2.1875,-2.769531 2.609374,-3.523437 0.871094,-1.542969 0.878907,-2.039063 0.08203,-4.179688 -0.296875,-0.792969 -0.535156,-1.460938 -0.535156,-1.488281 0,-0.08594 3.117187,-1.082031 4.308593,-1.375 2.835938,-0.699219 8.820313,-1.957031 10.769531,-2.261719 0.59375,-0.08984 1.167969,-0.117188 2.902344,-0.117188 1.925782,0 2.253906,0.01953 3.050782,0.152344 1.792968,0.304688 3.222656,0.707032 4.984374,1.414063 1.757813,0.707031 2.53125,1.433593 3.609376,3.378906 0.929687,1.683594 1.480468,3.351563 1.71875,5.195313 0.128906,1.039062 0.05469,3.539062 -0.148438,4.515624 -0.503906,2.53125 -1.5625,5.039063 -3.214844,7.652344 l -0.304687,0.488282 0.3125,-0.226563 c 0.386719,-0.277344 1.199219,-1.117187 1.699219,-1.757813 l 0.363281,-0.484374 0.04297,0.253906 c 0.09766,0.515625 0.65625,5.101562 0.902343,7.417968 0.394531,3.621094 0.667969,6.960938 0.863281,10.414063 0.05078,0.796875 -14.078125,4.480468 -14.066406,4.527344 0.02344,0.05078 14.378906,-2.910157 14.742188,-2.910157 0.515625,0 0.527344,-0.0039 0.492187,-0.144531 -0.203125,-0.714843 -0.492187,-3.761719 -0.757812,-8.019531 -0.269531,-4.171875 -0.613281,-7.722656 -1.089844,-11.257812 l -0.222656,-1.675782 0.214843,-0.507812 c 2.011719,-4.660156 1.9375,-9.289063 -0.214843,-13.296875 -1.25,-2.332031 -2.902344,-3.789063 -7.703125,-6.769531 -3.214844,-1.996094 -6.210938,-3.582032 -10.894532,-5.75 C 30.332031,9.320312 22.289062,6.328125 16.796875,4.621094 14.324219,3.855469 10.796875,2.933594 9.59375,2.75 L 9.316406,2.710938 Z m 2.5625,0.179687 c 6.324218,1.691406 15.128906,4.792969 21.3125,7.511719 4.746093,2.085937 8.328124,3.972656 11.757812,6.199218 1.496094,0.972657 1.496094,0.972657 0.890625,0.734376 -2.097656,-0.839844 -4.382813,-1.25 -6.902344,-1.25 -1.148437,0 -2.667969,0.08594 -3.515625,0.207031 -3.726562,0.5 -12.152344,2.511719 -16.71875,3.984375 -0.582031,0.1875 -0.730468,0.210937 -0.730468,0.132812 0,-0.507812 -2.5,-6.320312 -5.9375,-13.8125 -1,-2.179687 -1.832032,-4.003906 -1.855469,-4.050781 -0.02344,-0.039063 -0.0078,-0.078125 0.03125,-0.078125 0.04297,0 0.789062,0.191406 1.667969,0.421875 z"
       id="path2"
       sodipodi:nodetypes="ccccccccccccccccccsccsccccccccccccccscccccccccccsccccccccscccccccccccccccccccsccccsccccccccscccccccccscccccsccsccccccccccccccsccccccccccccccccsccsccsc" />
    <path
       style=" stroke:none;fill-rule:nonzero;fill:rgb(0%,0%,0%);fill-opacity:1;"
       d="M 43.675781 22.328125 C 43.273438 22.652344 43.097656 22.976562 43.015625 23.578125 C 42.835938 24.839844 42.648438 25.070312 41.710938 25.261719 C 41.511719 25.300781 41.25 25.363281 41.136719 25.402344 C 40.894531 25.480469 40.507812 25.976562 40.4375 26.300781 C 40.386719 26.550781 40.511719 27.285156 40.664062 27.601562 C 40.757812 27.800781 40.757812 27.796875 40.847656 27.34375 C 41.027344 26.453125 41.339844 26.050781 41.851562 26.050781 C 42.269531 26.050781 42.925781 25.882812 43.101562 25.738281 C 43.363281 25.535156 43.535156 25.089844 43.601562 24.441406 C 43.707031 23.476562 44.09375 22.960938 44.753906 22.894531 L 45.097656 22.855469 L 44.925781 22.589844 C 44.570312 22.023438 44.167969 21.9375 43.675781 22.328125 Z M 43.675781 22.328125 "
       id="path4" />
    <path
       style=" stroke:none;fill-rule:nonzero;fill:rgb(0%,0%,0%);fill-opacity:1;"
       d="M 27.90625 22.949219 C 26.902344 23.082031 25.785156 23.285156 25.199219 23.445312 C 24.386719 23.675781 23.144531 24.199219 23.144531 24.3125 C 23.144531 24.363281 23.210938 24.523438 23.292969 24.660156 C 23.488281 24.992188 23.710938 25.003906 24.320312 24.734375 C 25.191406 24.34375 26.472656 24.027344 27.90625 23.855469 C 28.679688 23.761719 33.363281 23.734375 33.734375 23.820312 C 33.867188 23.855469 33.925781 23.847656 33.90625 23.808594 C 33.832031 23.703125 32.117188 23.234375 31.253906 23.074219 C 30.355469 22.914062 28.644531 22.847656 27.90625 22.949219 Z M 27.90625 22.949219 "
       id="path6" />
    <path
       style=" stroke:none;fill-rule:nonzero;fill:rgb(0%,0%,0%);fill-opacity:1;"
       d="M 26.402344 25.164062 C 25.527344 25.347656 24.640625 25.859375 23.703125 26.710938 C 23.113281 27.253906 23.105469 27.253906 23.367188 27.214844 C 23.949219 27.113281 24.335938 27.085938 24.335938 27.152344 C 24.335938 27.195312 24.117188 27.351562 23.851562 27.503906 C 23.582031 27.65625 23.367188 27.800781 23.367188 27.816406 C 23.367188 27.914062 23.949219 28.527344 24.335938 28.847656 C 24.730469 29.171875 25.710938 29.792969 26.1875 30.011719 C 26.351562 30.089844 26.34375 30.074219 26.128906 29.792969 C 25.859375 29.453125 25.875 29.449219 26.390625 29.585938 C 27.132812 29.785156 28.226562 29.84375 29.425781 29.757812 C 31.710938 29.585938 32.707031 29.152344 33.316406 28.054688 L 33.59375 27.558594 L 33.375 27.398438 C 32.683594 26.902344 31.480469 26.40625 30.46875 26.207031 C 29.597656 26.035156 27.882812 26.050781 26.910156 26.242188 C 26.5 26.3125 26.160156 26.367188 26.136719 26.347656 C 26.03125 26.253906 26.246094 25.949219 26.589844 25.71875 C 27.042969 25.414062 27.503906 25.257812 27.914062 25.257812 C 28.234375 25.257812 28.300781 25.164062 28.039062 25.097656 C 27.75 25.03125 26.851562 25.066406 26.402344 25.164062 Z M 26.984375 27.121094 C 26.976562 27.65625 27.46875 28.011719 28.277344 28.078125 C 29.015625 28.140625 29.542969 27.753906 29.542969 27.167969 C 29.542969 26.84375 29.542969 26.84375 29.753906 26.882812 C 30.332031 27.007812 30.371094 27.074219 30.207031 27.675781 C 30.148438 27.886719 30.035156 28.039062 29.789062 28.226562 C 28.660156 29.117188 26.703125 28.695312 26.308594 27.484375 C 26.238281 27.273438 26.203125 27.082031 26.226562 27.0625 C 26.246094 27.042969 26.425781 26.980469 26.621094 26.933594 C 26.820312 26.890625 26.976562 26.847656 26.984375 26.847656 C 26.984375 26.84375 26.992188 26.96875 26.984375 27.121094 Z M 31.820312 27.550781 L 32.519531 27.855469 L 32.171875 28.078125 C 31.546875 28.476562 30.726562 28.785156 29.953125 28.917969 C 29.761719 28.953125 29.773438 28.9375 30.042969 28.820312 C 30.628906 28.5625 30.957031 28.085938 30.957031 27.484375 C 30.957031 27.351562 30.996094 27.238281 31.039062 27.238281 C 31.078125 27.238281 31.433594 27.378906 31.820312 27.550781 Z M 25.554688 27.578125 C 25.644531 28.058594 25.988281 28.507812 26.457031 28.753906 C 26.851562 28.957031 25.546875 28.632812 25.003906 28.398438 C 24.59375 28.210938 24.273438 27.925781 24.378906 27.835938 C 24.460938 27.761719 25.382812 27.3125 25.457031 27.304688 C 25.488281 27.304688 25.527344 27.425781 25.554688 27.578125 Z M 25.554688 27.578125 "
       id="path8" />
    <path
       style=" stroke:none;fill-rule:nonzero;fill:rgb(0%,0%,0%);fill-opacity:1;"
       d="M 43.148438 31.539062 C 42.039062 31.703125 40.96875 32.316406 40.667969 32.953125 C 40.394531 33.527344 40.476562 34.414062 40.839844 34.875 C 41.078125 35.1875 41.59375 35.4375 41.996094 35.4375 L 42.277344 35.4375 L 42.046875 35.140625 C 41.273438 34.140625 41.25 33.316406 41.980469 32.851562 C 42.457031 32.554688 43.097656 32.382812 43.878906 32.351562 C 44.703125 32.3125 45.015625 32.398438 45.402344 32.773438 C 45.917969 33.257812 46.027344 33.8125 46.027344 35.800781 C 46.027344 37.375 45.921875 38.347656 45.722656 38.691406 C 45.476562 39.109375 44.703125 39.273438 44.078125 39.042969 C 43.929688 38.988281 43.796875 38.957031 43.773438 38.96875 C 43.691406 39.046875 44.117188 39.570312 44.351562 39.683594 C 44.710938 39.847656 45.425781 39.847656 45.738281 39.675781 C 46.554688 39.234375 46.90625 38.035156 46.914062 35.703125 C 46.921875 34.140625 46.824219 33.527344 46.46875 32.804688 C 45.953125 31.773438 44.71875 31.304688 43.148438 31.539062 Z M 43.148438 31.539062 "
       id="path10" />
    <path
       style=" stroke:none;fill-rule:nonzero;fill:rgb(0%,0%,0%);fill-opacity:1;"
       d="M 43.117188 33.710938 C 42.738281 33.917969 42.621094 34.378906 42.835938 34.828125 L 42.953125 35.074219 L 43.058594 34.804688 C 43.183594 34.480469 43.414062 34.246094 43.609375 34.246094 C 43.808594 34.246094 44.109375 34.597656 44.167969 34.902344 C 44.226562 35.207031 44.160156 35.953125 44.039062 36.296875 C 43.9375 36.609375 43.699219 36.828125 43.46875 36.828125 C 43.363281 36.828125 43.140625 36.746094 42.976562 36.660156 C 42.589844 36.449219 42.234375 36.441406 42.113281 36.640625 C 41.980469 36.867188 42.015625 37.367188 42.210938 37.9375 L 42.382812 38.445312 L 42.433594 38.070312 C 42.507812 37.535156 42.589844 37.421875 42.910156 37.421875 C 43.050781 37.421875 43.296875 37.480469 43.460938 37.554688 C 44.0625 37.832031 44.554688 37.625 44.769531 37.003906 C 44.957031 36.46875 44.992188 35.234375 44.84375 34.710938 C 44.589844 33.824219 43.78125 33.355469 43.117188 33.710938 Z M 43.117188 33.710938 "
       id="path12" />
    <path
       style=" stroke:none;fill-rule:nonzero;fill:rgb(0%,0%,0%);fill-opacity:1;"
       d="M 20.347656 36.390625 C 19.726562 36.59375 19.386719 36.792969 19.207031 37.050781 C 19.007812 37.328125 19 37.519531 19.183594 37.453125 C 19.683594 37.261719 20.054688 37.15625 20.554688 37.058594 C 21.039062 36.953125 21.179688 36.945312 21.433594 37.019531 C 21.691406 37.085938 21.761719 37.144531 21.886719 37.410156 C 21.96875 37.574219 22.074219 37.859375 22.109375 38.035156 C 22.214844 38.453125 22.398438 38.558594 23.128906 38.597656 L 23.703125 38.625 L 23.351562 38.414062 C 22.914062 38.15625 22.71875 37.878906 22.617188 37.382812 C 22.414062 36.390625 21.523438 36 20.347656 36.390625 Z M 20.347656 36.390625 "
       id="path14" />
    <path
       style=" stroke:none;fill-rule:nonzero;fill:rgb(0%,0%,0%);fill-opacity:1;"
       d="M 37.582031 36.542969 C 37.378906 36.609375 37.136719 36.847656 37.136719 36.972656 C 37.136719 37.042969 37.394531 37.328125 37.714844 37.605469 C 38.304688 38.117188 39.175781 39.199219 39.589844 39.925781 C 39.976562 40.609375 40.140625 41.222656 40.140625 41.949219 C 40.148438 42.589844 40.132812 42.625 39.835938 43.171875 C 39.316406 44.125 38.625 44.699219 37.214844 45.363281 C 36.433594 45.726562 35.648438 46.359375 35.394531 46.828125 C 35.199219 47.1875 35.027344 47.734375 35.117188 47.734375 C 35.140625 47.734375 35.273438 47.582031 35.414062 47.398438 C 35.878906 46.796875 36.570312 46.300781 37.507812 45.902344 C 38.609375 45.433594 39.0625 45.152344 39.703125 44.554688 C 40.789062 43.542969 41.101562 42.988281 41.109375 42.050781 C 41.117188 41.699219 41.0625 41.300781 40.976562 40.992188 C 40.699219 40.054688 39.449219 38.097656 38.414062 37.003906 C 37.953125 36.523438 37.839844 36.457031 37.582031 36.542969 Z M 37.582031 36.542969 "
       id="path16" />
    <path
       style=" stroke:none;fill-rule:nonzero;fill:rgb(0%,0%,0%);fill-opacity:1;"
       d="M 43.882812 53.269531 C 43.871094 53.296875 43.824219 53.574219 43.796875 53.882812 C 43.691406 55.023438 43.199219 56.246094 42.53125 57.058594 C 42.105469 57.574219 41.144531 58.328125 40.238281 58.863281 C 38.890625 59.65625 38.339844 60.304688 38.546875 60.851562 C 38.667969 61.183594 38.882812 61.355469 39.179688 61.355469 L 39.441406 61.355469 L 39.398438 61.003906 C 39.332031 60.457031 39.554688 60.152344 40.3125 59.734375 C 41.609375 59.035156 42.515625 58.328125 43.265625 57.433594 C 44.09375 56.449219 44.464844 55.503906 44.613281 53.976562 C 44.660156 53.527344 44.652344 53.5 44.480469 53.402344 C 44.242188 53.269531 43.9375 53.195312 43.882812 53.269531 Z M 43.882812 53.269531 "
       id="path18" />
    <path
       style="fill:#ffccaa;stroke-width:0.0625"
       d="m 52.565767,81.378815 c -0.08217,-0.777828 0.201876,-1.13607 1.465483,-1.848316 2.318607,-1.30691 3.960829,-2.893886 4.760512,-4.600365 0.395452,-0.843872 0.738752,-2.401715 0.739312,-3.354884 l 1.87e-4,-0.299751 -0.328125,-0.152764 c -0.180469,-0.08402 -0.417808,-0.153039 -0.52742,-0.153375 -0.187322,-5.62e-4 -0.201442,0.01535 -0.235027,0.265015 -0.28902,2.148601 -0.578357,3.046784 -1.37535,4.269479 -0.60996,0.935761 -1.7014,1.868616 -3.502828,2.993871 -1.252478,0.782355 -1.819996,1.26538 -2.093781,1.782054 -0.220951,0.416969 -0.182848,0.856995 0.107514,1.241634 l 0.157708,0.208913 -0.39822,-0.03815 c -0.53209,-0.05097 -3.030713,-0.223447 -3.235815,-0.223362 l -0.162406,6.2e-5 0.01828,-1.233637 c 0.0306,-2.065 -0.191747,-2.732698 -1.407155,-4.225566 -0.492552,-0.604995 -0.858534,-1.161202 -1.15786,-1.759681 -0.422073,-0.843899 -0.73551,-1.906961 -0.733707,-2.488461 l 8.13e-4,-0.261539 0.952314,-0.29171 c 7.988189,-2.446916 11.372653,-3.578838 12.982299,-4.341881 1.511381,-0.716463 1.960566,-1.105325 2.609764,-2.259292 l 0.3767,-0.669612 0.03999,-1.84375 c 0.04316,-1.989933 -0.02865,-3.981044 -0.172448,-4.78125 -0.124396,-0.692252 -0.314658,-1.15982 -0.579871,-1.425034 -0.225841,-0.22584 -1.488666,-0.911267 -1.555597,-0.844335 -0.01961,0.01961 0.05197,0.165495 0.159072,0.324187 0.1071,0.158692 0.277166,0.514417 0.377923,0.790499 0.337706,0.925337 0.373328,1.32758 0.373462,4.217183 6.2e-5,1.474752 -0.02704,2.768 -0.06185,2.951343 -0.230118,1.211692 -1.453304,2.283534 -3.534639,3.097301 -1.848929,0.722899 -5.623806,1.905958 -11.8125,3.702078 -3.12322,0.90644 -5.424689,1.639244 -6.402531,2.038612 -0.735738,0.300488 -2.078717,1.022463 -3.617275,1.944619 -1.403088,0.840961 -1.682678,0.959592 -2.484377,1.054142 -0.793249,0.09355 -3.416887,0.0352 -4.402067,-0.09791 -3.093601,-0.41798 -5.324808,-1.260245 -6.593384,-2.488957 -0.316423,-0.306479 -0.344116,-0.355853 -0.344116,-0.613509 0,-0.93341 0.663376,-2.110448 1.617859,-2.870594 0.468868,-0.373405 0.932512,-0.615965 2.277099,-1.191289 1.110897,-0.475332 1.65315,-0.801352 2.064763,-1.241399 0.468745,-0.501126 0.593225,-1.183623 0.355305,-1.948061 -0.06736,-0.216431 -0.11658,-0.397661 -0.109375,-0.402733 0.0072,-0.0051 0.332667,-0.05739 0.72325,-0.116261 0.912854,-0.137592 1.333996,-0.273533 2.097596,-0.677088 0.704702,-0.372427 0.838667,-0.526079 0.403702,-0.463021 -1.384092,0.200652 -3.974765,0.212919 -4.481203,0.02122 -0.522407,-0.197745 -0.793699,-0.500749 -0.95646,-1.068264 -0.11143,-0.388535 0.136188,-0.819856 0.606825,-1.057018 0.336668,-0.169652 0.938163,-0.224956 3.150639,-0.289682 1.185937,-0.03469 2.339062,-0.09137 2.5625,-0.125941 0.271354,-0.04199 0.607305,-0.164661 1.011742,-0.369446 l 0.605493,-0.306587 0.07203,0.196724 c 0.03962,0.108198 0.08745,0.442818 0.106302,0.743599 0.01885,0.300781 0.05598,0.546875 0.08253,0.546875 0.02654,0 0.114045,-0.133594 0.194455,-0.296875 C 33.485968,60.778494 33.5,60.666019 33.5,59.875 c 0,-0.872086 -7e-4,-0.876353 -0.211081,-1.28125 -0.293785,-0.565423 -0.673184,-1.093395 -0.922188,-1.28332 l -0.21045,-0.160518 -0.406265,0.289905 c -0.223447,0.159448 -0.406266,0.323405 -0.406266,0.36435 0,0.04094 0.182812,0.255632 0.40625,0.477083 0.223437,0.221451 0.40625,0.448877 0.40625,0.505391 0,0.173577 -0.243583,0.423985 -0.487218,0.500866 -0.15084,0.0476 -1.189944,0.09005 -2.981532,0.121797 -1.5125,0.0268 -3.168986,0.06967 -3.681081,0.09526 -0.864321,0.0432 -0.937143,0.03824 -1.015625,-0.06909 -0.179845,-0.245953 -0.03158,-0.774099 0.4006,-1.427028 0.32716,-0.494265 0.832979,-0.900172 1.37398,-1.102586 0.682081,-0.2552 2.26899,-0.272675 3.285379,-0.03618 0.481798,0.112106 0.730497,0.126103 0.730497,0.04112 0,-0.158414 -0.851769,-0.711299 -1.590697,-1.032524 -0.263294,-0.114458 -0.492839,-0.222229 -0.5101,-0.23949 -0.01726,-0.01726 0.07047,-0.190602 0.194951,-0.385202 0.56159,-0.877907 0.888335,-1.857135 0.828269,-2.482257 -0.07848,-0.816805 -0.509212,-0.866189 -2.609923,-0.299233 -1.719174,0.463983 -3.485149,0.661077 -4.498242,0.502032 -0.743757,-0.116762 -1.66745,-0.575726 -2.26434,-1.125105 L 19,51.544214 19.0059,51.147107 c 0.0104,-0.696256 0.313966,-1.149309 1.773658,-2.647107 1.228029,-1.260087 1.417644,-1.499456 2.596837,-3.278218 1.008052,-1.520605 1.339429,-1.950638 2.434496,-3.159282 1.469103,-1.621474 3.316894,-4.167933 3.974207,-5.476894 0.869012,-1.730535 0.836337,-2.247428 -0.349876,-5.534765 -0.408258,-1.131398 -0.514566,-1.489939 -0.453085,-1.528103 0.13978,-0.08677 2.844445,-0.967046 4.081186,-1.328293 1.409762,-0.411786 2.549217,-0.690221 5.530393,-1.351399 3.705312,-0.821779 7.387976,-1.574283 9.96875,-2.036985 0.90377,-0.162035 1.038176,-0.169106 3.735722,-0.196545 3.006814,-0.03058 3.637172,0.0025 5.09739,0.267848 2.440267,0.443376 5.501343,1.416426 7.221592,2.295588 1.443307,0.737627 2.29484,1.601229 3.387237,3.435247 1.304014,2.1893 2.104821,4.363812 2.53804,6.891801 0.123384,0.719992 0.138947,1.025978 0.136687,2.6875 -0.0018,1.314573 -0.0336,2.155213 -0.106424,2.8125 -0.363774,3.283226 -1.964814,7.354017 -4.436062,11.279097 -0.226502,0.359753 -0.401111,0.664807 -0.38802,0.677899 0.05123,0.05123 0.651853,-0.415104 1.147883,-0.891227 0.529956,-0.508687 1.366796,-1.447028 1.774827,-1.990097 0.181772,-0.241929 0.231501,-0.277883 0.259332,-0.1875 0.09038,0.293508 0.769888,5.831548 1.222883,9.966567 0.438325,4.0011 0.878317,9.148365 1.075025,12.576223 l 0.07853,1.368462 -0.212907,0.177742 c -0.800923,0.668641 -6.033973,2.333411 -16.041344,5.103173 L 52.605782,81.75763 Z M 47.250231,63.223844 c 0.608825,-0.753532 1.371678,-1.321244 2.460384,-1.83101 0.365412,-0.171097 0.903408,-0.422944 1.195548,-0.55966 0.773891,-0.362167 1.465021,-0.845827 2.179719,-1.525386 1.433239,-1.362773 1.817554,-2.150165 1.736509,-3.557788 -0.04832,-0.839122 -0.160406,-1.237277 -0.598248,-2.125 -0.724798,-1.469528 -1.976646,-3.255959 -3.032949,-4.328125 -0.683871,-0.694141 -0.819462,-0.755265 -1.218103,-0.54912 -0.189924,0.09821 -0.504341,0.438563 -0.504341,0.545939 0,0.03594 0.416028,0.490817 0.924506,1.010829 0.508479,0.520013 1.108726,1.184539 1.333883,1.476727 1.348337,1.749746 1.740337,2.699564 1.741124,4.21875 3.75e-4,0.702492 -0.01138,0.77488 -0.185426,1.142776 -0.676132,1.429218 -1.56473,2.246956 -3.516289,3.235891 -1.058861,0.536568 -1.623967,0.92711 -2.163727,1.495337 -0.355305,0.374044 -0.465965,0.543598 -0.626545,0.959996 -0.195367,0.5066 -0.247275,0.82225 -0.13522,0.82225 0.03289,0 0.217022,-0.194583 0.409175,-0.432406 z M 61.007035,52.921279 c 0.627696,-0.32676 1.093421,-1.131319 1.330112,-2.297824 0.329077,-1.621813 0.333528,-4.65769 0.0087,-5.92779 -0.279389,-1.092403 -0.849584,-1.861477 -1.693134,-2.283688 -0.744327,-0.372546 -1.265542,-0.466476 -2.364543,-0.426121 -1.110183,0.04077 -1.652694,0.170535 -2.556846,0.611599 -0.802095,0.391279 -1.42908,0.965698 -1.599112,1.465045 -0.235464,0.691506 -0.188135,1.555344 0.118026,2.154167 0.146548,0.286637 0.42718,0.583665 0.725403,0.76779 0.263147,0.162467 0.839384,0.30541 1.147765,0.284717 L 56.409139,47.25 56.088886,46.8125 c -1.128764,-1.542016 -1.042959,-2.521253 0.276194,-3.152027 0.734137,-0.351041 1.331732,-0.469116 2.38492,-0.471222 0.831387,-0.0017 0.892574,0.0069 1.227594,0.171403 0.385971,0.189546 0.78763,0.584153 0.981603,0.96437 0.238942,0.468365 0.330558,1.152557 0.36656,2.737476 0.0533,2.346332 -0.111373,4.048501 -0.439611,4.544144 -0.320613,0.484131 -1.201036,0.671145 -2.040806,0.433497 -0.254559,-0.07204 -0.474933,-0.118882 -0.489719,-0.104095 -0.08119,0.08119 0.09676,0.399491 0.383864,0.686591 0.39988,0.39988 0.622813,0.470489 1.416765,0.448724 0.462674,-0.01268 0.650493,-0.04582 0.850785,-0.150082 z M 31.593269,51.484375 c -2.5e-4,-0.02578 -0.119797,-0.114286 -0.265625,-0.196678 -0.68426,-0.386598 -0.960841,-0.736878 -1.140144,-1.443947 -0.181002,-0.713769 -0.499009,-1.128624 -1.0625,-1.386076 -0.258292,-0.11801 -0.415496,-0.142131 -0.90625,-0.139048 -0.500162,0.0031 -0.689448,0.0361 -1.200888,0.209078 -0.952917,0.322299 -1.489251,0.727014 -1.640919,1.238229 -0.06512,0.21951 0.0952,0.232756 0.636514,0.05259 0.692274,-0.230412 1.807229,-0.473558 2.174043,-0.474109 0.611822,-9.19e-4 0.929409,0.295584 1.166902,1.089429 0.180204,0.60235 0.272069,0.766299 0.493559,0.880835 0.271345,0.140319 1.746479,0.283747 1.745308,0.169697 z M 56.621287,50.71899 c 0.111093,-0.636353 0.228386,-0.784287 0.614854,-0.775471 0.145122,0.0033 0.487368,0.08336 0.760546,0.177894 0.556895,0.192709 0.848291,0.184027 1.204105,-0.03588 0.235541,-0.145573 0.475215,-0.524634 0.577812,-0.913855 0.24165,-0.916741 0.19637,-2.623813 -0.08595,-3.240488 -0.192712,-0.420938 -0.595502,-0.85689 -0.950479,-1.028731 -0.365844,-0.177102 -1.051588,-0.154882 -1.3183,0.04272 -0.312096,0.231222 -0.455123,0.50796 -0.455123,0.880604 0,0.318076 0.205366,0.955469 0.30785,0.955469 0.02335,0 0.0936,-0.142229 0.156112,-0.316064 0.140891,-0.391805 0.461874,-0.746436 0.675614,-0.746436 0.210565,0 0.459519,0.206832 0.627746,0.521533 0.113682,0.212664 0.138014,0.355963 0.134304,0.790967 -0.009,1.056935 -0.255119,1.761577 -0.686795,1.966421 -0.220844,0.104796 -0.346937,0.0806 -0.925733,-0.17762 -0.230992,-0.103055 -0.478504,-0.163801 -0.667411,-0.163801 -0.486107,0 -0.597045,0.195458 -0.543571,0.957706 0.02835,0.404066 0.391986,1.718025 0.457371,1.65264 0.01429,-0.01429 0.06697,-0.260716 0.11705,-0.547606 z M 35.09375,40.040046 c 0,-0.02954 -0.09816,-0.177194 -0.218143,-0.328125 -0.11998,-0.150932 -0.218417,-0.292978 -0.21875,-0.315659 -3.13e-4,-0.02268 0.161112,-0.0017 0.358768,0.04664 0.895121,0.218895 1.617981,0.291388 2.890625,0.289889 2.342434,-0.0028 4.134796,-0.314119 5.167316,-0.897642 0.641955,-0.362797 1.042992,-0.80954 1.576138,-1.755768 L 44.851481,36.721273 44.36324,36.402127 C 43.709126,35.974556 42.88192,35.586489 41.987689,35.287686 40.671659,34.84794 40.406881,34.8125 38.4375,34.8125 c -1.551501,0 -1.851278,0.01688 -2.642889,0.148778 -0.491089,0.08183 -0.908006,0.13366 -0.926483,0.115183 -0.06607,-0.06607 0.16355,-0.410025 0.395616,-0.592614 0.578778,-0.455385 1.344624,-0.765097 1.891904,-0.765097 0.159066,0 0.343805,-0.04009 0.410531,-0.08908 0.116627,-0.08563 0.114067,-0.09193 -0.06618,-0.162763 -0.129067,-0.05072 -0.489405,-0.0637 -1.15625,-0.04165 -0.803274,0.02656 -1.064833,0.06042 -1.53125,0.198182 -0.70908,0.209441 -1.589667,0.66863 -2.304544,1.201722 -0.644,0.480238 -1.652638,1.423806 -1.590162,1.487576 0.02354,0.02402 0.234473,0.01354 0.46875,-0.02329 0.624125,-0.09813 0.859587,-0.109312 0.894706,-0.0425 0.01719,0.03269 -0.221738,0.216796 -0.530946,0.409115 -0.309208,0.192318 -0.571722,0.399138 -0.583367,0.459599 -0.01372,0.07123 0.195185,0.330262 0.593447,0.735843 0.641479,0.65327 1.419214,1.226834 2.551115,1.881397 0.604457,0.349549 0.782251,0.419358 0.782251,0.307146 z m 19.377846,-3.430671 c 0.203112,-0.983629 0.502028,-1.565024 0.889497,-1.730084 0.110774,-0.04719 0.454532,-0.114982 0.763907,-0.15065 1.497387,-0.172637 1.791359,-0.490123 2.063583,-2.228641 0.200471,-1.280273 0.666694,-1.850579 1.591897,-1.947281 0.206674,-0.0216 0.37577,-0.0539 0.37577,-0.07178 0,-0.01788 -0.08681,-0.167779 -0.192907,-0.333119 -0.562304,-0.876275 -1.183534,-0.953456 -1.928127,-0.239547 -0.424584,0.407087 -0.59361,0.798614 -0.754616,1.747973 -0.251968,1.485701 -0.474906,1.731261 -1.8431,2.030117 -0.605897,0.132347 -0.747431,0.20226 -1.035724,0.511607 -0.477565,0.512439 -0.58248,0.835909 -0.489035,1.507759 0.08671,0.623416 0.288178,1.263017 0.397839,1.263017 0.05541,0 0.11365,-0.12999 0.161016,-0.359375 z M 32.625,32.936077 c 1.831367,-0.723376 3.584025,-1.059393 6.0625,-1.162296 1.64613,-0.06835 6.150883,-0.04163 6.390625,0.0379 0.103987,0.03449 0.140625,0.02227 0.140625,-0.04692 0,-0.113434 -0.784843,-0.37316 -2.210296,-0.731449 -1.439678,-0.361864 -2.103209,-0.44444 -3.883454,-0.483291 -1.386882,-0.03027 -1.667871,-0.01891 -2.5,0.101054 -2.156821,0.310937 -3.461838,0.641456 -4.833176,1.224091 -0.828354,0.35194 -0.979345,0.460485 -0.927561,0.666812 0.05729,0.228276 0.306274,0.570431 0.481363,0.661503 0.209026,0.108723 0.459885,0.05629 1.279374,-0.267399 z"
       id="path387"
       transform="scale(0.75)" />
    <path
       style="fill:#ffff00;stroke-width:0.0625"
       d="M 24.801514,28.692256 C 24.180118,26.738079 21.17028,19.844489 16.097858,8.757814 15.250545,6.9058617 14.569032,5.3788844 14.583385,5.3645312 c 0.03692,-0.036918 1.797527,0.4101832 3.635365,0.9231897 2.547331,0.7110511 5.486142,1.6219599 8.84375,2.7411926 12.932288,4.3108785 23.391816,8.8380855 31.09375,13.4583325 1.368465,0.820918 3.819751,2.383937 3.96875,2.530605 0.119907,0.118031 0.09407,0.110877 -0.96875,-0.268212 -3.973062,-1.417125 -9.078192,-1.714561 -14.40625,-0.839338 -5.220518,0.857558 -14.525864,3.113725 -20.460559,4.960851 -0.614245,0.191179 -1.162682,0.34747 -1.21875,0.347313 -0.07285,-1.88e-4 -0.149664,-0.150366 -0.269177,-0.526209 z"
       id="path1092"
       transform="scale(0.75)" />
    <path
       style="fill:#00ffff;stroke-width:0.0220971"
       d="m 37.388271,38.238182 c -1.004455,-0.123283 -1.832117,-0.631161 -2.187951,-1.342592 -0.0952,-0.190346 -0.195232,-0.509077 -0.21401,-0.681933 -0.01179,-0.108551 -0.0094,-0.115502 0.05127,-0.146641 0.07159,-0.03677 0.309654,-0.10567 0.638171,-0.184704 0.121534,-0.02924 0.238372,-0.05852 0.259641,-0.06506 0.0354,-0.01089 0.03867,0.01143 0.03867,0.263834 0,0.314669 0.03719,0.472234 0.154689,0.655336 0.276552,0.430969 0.98994,0.714733 1.789855,0.711951 0.49199,-0.0017 0.838938,-0.122927 1.125446,-0.393205 0.252089,-0.237808 0.353816,-0.493742 0.355058,-0.893284 7.14e-4,-0.229609 0.02837,-0.316381 0.104333,-0.327314 0.0643,-0.0093 0.489506,0.09441 0.623268,0.151954 0.258909,0.11138 0.298648,0.27404 0.180262,0.737853 -0.08533,0.334301 -0.150288,0.466222 -0.317693,0.645178 -0.381411,0.40773 -0.967625,0.712133 -1.61081,0.836444 -0.221202,0.04275 -0.761112,0.0603 -0.990194,0.03218 z"
       id="path1168"
       transform="scale(0.75)" />
    <path
       style="fill:#00ffff;stroke-width:0.0220971"
       d="m 37.344077,38.225844 c -0.489045,-0.09141 -0.750299,-0.173558 -1.083202,-0.340613 -0.409889,-0.205689 -0.798307,-0.555342 -0.990966,-0.892067 -0.118969,-0.207931 -0.247212,-0.578385 -0.262388,-0.757956 l -0.01154,-0.136597 0.08577,-0.03624 c 0.104823,-0.04429 0.848558,-0.238873 0.861924,-0.225506 0.0053,0.0053 0.01503,0.127789 0.02168,0.272261 0.0073,0.158687 0.0289,0.320832 0.05455,0.409577 0.158389,0.548038 0.92351,0.930469 1.865563,0.932466 0.480334,10e-4 0.772403,-0.08203 1.063228,-0.302331 0.314001,-0.237855 0.430791,-0.484844 0.461127,-0.975203 0.0082,-0.133298 0.02448,-0.26008 0.03607,-0.281737 0.02999,-0.05603 0.12121,-0.05006 0.417267,0.02732 0.26628,0.06959 0.408123,0.14503 0.45799,0.243574 0.07084,0.139999 -0.01016,0.631816 -0.152717,0.927166 -0.171454,0.355228 -0.719874,0.761717 -1.310691,0.971482 -0.361518,0.128355 -0.531489,0.156087 -1.016466,0.16584 -0.243068,0.0049 -0.466801,0.0042 -0.497184,-0.0014 z"
       id="path1244"
       transform="scale(0.75)" />
    <path
       style="fill:#ffffff;stroke-width:0.0110485"
       d="m 35.199942,38.404416 c -0.400291,-0.06241 -1.308821,-0.324462 -1.76705,-0.509682 -0.40907,-0.165351 -0.82194,-0.455089 -0.922686,-0.647511 -0.0467,-0.08921 -0.03725,-0.108015 0.09421,-0.187402 0.195223,-0.117893 1.016031,-0.521792 1.253283,-0.61671 l 0.08783,-0.03514 0.01974,0.02438 c 0.02684,0.03314 0.06665,0.164396 0.102271,0.337198 0.09073,0.440102 0.293293,0.812644 0.618984,1.138406 0.179286,0.179326 0.318047,0.282457 0.600016,0.44595 0.117264,0.06799 0.09792,0.07927 -0.0866,0.05051 z"
       id="path1283"
       transform="scale(0.75)" />
    <path
       style="fill:#ffffff;stroke-width:0.0110485"
       d="m 39.779395,38.566373 c 0.0033,-0.0053 0.09181,-0.04816 0.196764,-0.09527 0.487315,-0.218736 0.778696,-0.44505 0.999432,-0.776254 0.189043,-0.28365 0.282123,-0.584575 0.30252,-0.978039 0.0056,-0.1082 0.01593,-0.220147 0.02293,-0.24877 0.0178,-0.07278 0.04943,-0.132074 0.07474,-0.140107 0.02417,-0.0077 0.258649,0.07651 0.537717,0.193051 0.240042,0.100244 1.411403,0.609531 1.420791,0.617734 0.0084,0.0073 -0.462874,0.309718 -0.680864,0.436889 -0.76395,0.445674 -1.780124,0.811444 -2.701607,0.97244 -0.180223,0.03149 -0.180575,0.03152 -0.172417,0.01832 z"
       id="path1359"
       transform="scale(0.75)" />
  </g>
</svg>
