/* XPM */
static char *imview_icon_xpm[] = {
/* columns rows colors chars-per-pixel */
"32 32 256 2",
"   c #010101",
".  c #080504",
"X  c #0A0B04",
"o  c #0C0B0A",
"O  c #050506",
"+  c #01021C",
"@  c #100D0B",
"#  c #12140D",
"$  c #14190C",
"%  c #18110A",
"&  c #131313",
"*  c #1A1C11",
"=  c #1B1919",
"-  c #181318",
";  c #110F15",
":  c #181C22",
">  c #04042B",
",  c #1A2212",
"<  c #192514",
"1  c #1B2913",
"2  c #1A242B",
"3  c #201B0D",
"4  c #201E11",
"5  c #201818",
"6  c #36151B",
"7  c #2E1110",
"8  c #251B20",
"9  c #232112",
"0  c #242A14",
"q  c #2B2B13",
"w  c #292617",
"e  c #2B3616",
"r  c #2D3919",
"t  c #263716",
"y  c #312C14",
"u  c #323D1A",
"i  c #373816",
"p  c #28280B",
"a  c #2A2628",
"s  c #333333",
"d  c #393737",
"f  c #342C2A",
"g  c #1C1B7B",
"h  c #0B0C6F",
"j  c #39374A",
"k  c #3D3762",
"l  c #252070",
"z  c #14145B",
"x  c #2E4618",
"c  c #33421B",
"v  c #38481A",
"b  c #3B5718",
"n  c #354D20",
"m  c #3A5921",
"M  c #387C15",
"N  c #4A1529",
"B  c #433417",
"V  c #5D3217",
"C  c #443522",
"Z  c #493728",
"A  c #4D3035",
"S  c #6D2216",
"D  c #62383E",
"F  c #6D2C36",
"G  c #583754",
"H  c #573C44",
"J  c #623745",
"K  c #6A3468",
"L  c #464A1A",
"P  c #47551A",
"I  c #564C1A",
"U  c #57571B",
"Y  c #54480F",
"T  c #465721",
"R  c #54452E",
"E  c #594A3C",
"W  c #4B5022",
"Q  c #477416",
"!  c #566515",
"~  c #4F7018",
"^  c #466525",
"/  c #566723",
"(  c #567427",
")  c #4B7228",
"_  c #615018",
"`  c #6A563A",
"'  c #775936",
"]  c #735233",
"[  c #677C2B",
"{  c #434344",
"}  c #4B4B4B",
"|  c #574648",
" . c #5C4C59",
".. c #5A5A5A",
"X. c #555252",
"o. c #554A51",
"O. c #5C6077",
"+. c #624546",
"@. c #645D5C",
"#. c #76594F",
"$. c #775459",
"%. c #764552",
"&. c #6E566A",
"*. c #786952",
"=. c #6C6C6C",
"-. c #646464",
";. c #756764",
":. c #737373",
">. c #79797A",
",. c #706C76",
"<. c #52507E",
"1. c #0C119C",
"2. c #05088B",
"3. c #0C12B5",
"4. c #1517A8",
"5. c #1419B6",
"6. c #080CA2",
"7. c #1E228F",
"8. c #1B20B6",
"9. c #2F2B90",
"0. c #2525A9",
"q. c #2527B8",
"w. c #0F17C2",
"e. c #1A20C4",
"r. c #272AC3",
"t. c #44319C",
"y. c #483C8D",
"u. c #463CA2",
"i. c #4037B6",
"p. c #5C5184",
"a. c #554693",
"s. c #544EB3",
"d. c #725D88",
"f. c #69538E",
"g. c #645BB3",
"h. c #796A98",
"j. c #6C6592",
"k. c #6269B7",
"l. c #6F6AA2",
"z. c #5E862E",
"x. c #648717",
"c. c #678F32",
"v. c #788572",
"b. c #7E8483",
"n. c #801E31",
"m. c #953226",
"M. c #853010",
"N. c #8C3A54",
"B. c #B93558",
"V. c #82572E",
"C. c #8C683B",
"Z. c #AF4420",
"A. c #8B5758",
"S. c #895E42",
"D. c #865265",
"F. c #8C7455",
"G. c #947549",
"H. c #977A56",
"J. c #846D48",
"K. c #8A6366",
"L. c #8B7668",
"P. c #936667",
"I. c #947578",
"U. c #93756F",
"Y. c #A74C5D",
"T. c #A74874",
"R. c #AB4F6B",
"E. c #A77B49",
"W. c #AD7E4A",
"Q. c #B96C78",
"!. c #A96F6C",
"~. c #CC4D1D",
"^. c #C0546F",
"/. c #C3787E",
"(. c #CC4D5D",
"). c #945C84",
"_. c #8B7696",
"`. c #8A78AE",
"'. c #A87F8A",
"]. c #8D79D0",
"[. c #CB7E8F",
"{. c #9D8262",
"}. c #82817B",
"|. c #AB8358",
" X c #B8834C",
".X c #B88755",
"XX c #A88768",
"oX c #A48775",
"OX c #BC926C",
"+X c #BA9474",
"@X c #B38E6B",
"#X c #BDB476",
"$X c #C78E56",
"%X c #CA9057",
"&X c #C08446",
"*X c #C89467",
"=X c #C59876",
"-X c #D49F72",
";X c #828482",
":X c #898A89",
">X c #988987",
",X c #988D9B",
"<X c #96938A",
"1X c #969796",
"2X c #928CAD",
"3X c #9FA39E",
"4X c #9EB4BB",
"5X c #AA8D96",
"6X c #AC998E",
"7X c #A39B96",
"8X c #B69887",
"9X c #B89A9A",
"0X c #B2878F",
"qX c #AB9ABB",
"wX c #A7A799",
"eX c #B1A29D",
"rX c #B7A898",
"tX c #AAAAA9",
"yX c #A7AAA4",
"uX c #BBA7A7",
"iX c #B3B3AB",
"pX c #BABBBB",
"aX c #B5B4B2",
"sX c #ADB0A9",
"dX c #ADB1CF",
"fX c #BAC294",
"gX c #BDC0BD",
"hX c #9FC9F0",
"jX c #AAC5D6",
"kX c #B0D0DE",
"lX c #B7DCE6",
"zX c #C39D86",
"xX c #C69599",
"cX c #D6838F",
"vX c #C19CA2",
"bX c #C6A496",
"nX c #C8A4AA",
"mX c #C8B9B6",
"MX c #D1A7A4",
"NX c #D0B4B3",
"BX c #CFB7C7",
"VX c #C5C1BC",
"CX c #DFDEA3",
"ZX c #D6D099",
"AX c #C8C8C6",
"SX c #D1D2CD",
"DX c #DCDCDC",
"FX c #D8D6D0",
"GX c #D0C2C1",
"HX c #DEE1DE",
"JX c #E5C2C3",
"KX c #F9CBCB",
"LX c #E0E1DC",
"PX c #E9E8E7",
"IX c #FEFEFE",
"UX c #F2F2F2",
/* pixels */
"            f ' ' G.G.H.G.J.F.;.N 6 % ; O o o ; 7Xl.D.K.Y.b.[.(.",
"        o ` ' C.H.XX{.G.E.F.nX).F 6 8 - = # ; 1X!.T.K.K.Y.nXuX7X",
"a   @.% oXL.wX{.G.E @   w >XBXI.; : 5 6 6 mXI.T.^.B.}.eXI.6XVXsX",
"..O =.F.rX@XwXXXE   } :.& o 6X!.; 8 N N.MXPXuX<X}.I.7XsXaX>XrX<X",
"  @ J.XX X|.|.8X@ } IXIXAX  $.0XK J G :XuXBXAXFXGXeX9XsX6XA.%.9X",
"  ` {.G.E.|.|.8X  :.IXIXUX  | 5XN - - H !./.K.A s 9XcXN.N @.@.Q.",
"Z XX XE. X|.bXzXa = SXUX=.  L.rX% : : @.mXT.A.F f !.cX'.J F J @.",
"|.+XW. X.X|.OXOXF.o       E nX9XJ J $.&.).vXxX>X..yXuX5X:X=.=.b.",
"+X@X%X%X=XbX=X8X8X|.#.R 5XBXNXxXGX,X_.,.>XxXaXLXAX3X'.| SXiXSXyX",
"OX.X.XOXzXzXOXI.| w O O ;.8XU.d O O A d J 9XPXAXs   o a BXwXuXpX",
"|. XE.=XMX`     O d :.s O O   = =.-.. 7 MXJXMXo = :...  X.>XQ.:X",
"|.C.XXMXbX. { pXUXIXIX{   { AXIXIXIX1X  I.mXpX  aXIXIXX.+.xX%.uX",
"|. XMXNX*X@ s 1XPXIXIX;   f =.;XPXIXPX  =.AXyX  :XIXIX>.| LX{ o.",
"$XOX-X*X%XV.%   tXIXDX  Z = ;   >.IXIX= A sXsX& =.IXIX} | PXD.$.",
"%X*X%X X*X&X'   DXIXtX  =XKXKXZ d IXIXs 8 1XxX5 d IXPXO X.wXY.D.",
"B C B C Z B 3 @ IXIX:.  R E } 5 & IXIX} 5 DX9X. ..IX>.   .pXnXnX",
"# # # & # & O d IXIX{ O $ $ $ o   IXIX-.. ,XH   AXPX; 2 qXdXqXa.",
"# & # < t < O =.IXIX# @ y y y #   HXIX>.  <.  X.IX..O h 4.6.6.6.",
"< < < < < &   1XIXDX  $ 0 0 0 , . jXIX<X  - . DXaX  z 6.8.3.6.4.",
"< $ * $ , $   SXIXtX  0 r w , $   tXIXtX    ;XPX- + 0.4.q.4.5.3.",
"< < n r t $ O UXIX>.  t 0 0 t 0   :XIXVX  s IX}   7.0.5.q.8.5.3.",
"n x t * , X f IXIX{ X c v v v e   :.IXDXo DX;X  j h.s.q.r.e.w.w.",
"1 0 n u 0 O ..IXIX& p v t 0 U Y . ..IXUXtXpXO > g.p.h.l.g h 1.3.",
"= , T / t   >.IXIX&     O   q x.X { IXIXDX& + 2.e.s.p.k d.a.h f.",
"q n ( x r   =.IXIXHXtXpXUX  p ~ X } IXUXs $ k l q.q.g p.d.#.S Z.",
"e e Q t u $ & AXIXPXpX=.=   L !   >.IX{   *.*.#XZXh.k <.] S C.pX",
"r m M c b e O           7 B P U         ;.oX#.<X4Xv.v.fXCXwXlXhX",
"i m Q u L P ~ e y q Y M.~.V y _ p * a | &...G I.=X*.:.jXjXkXjXlX",
"c P P W ( / Q / / P x.P I i c I _ 5 s.s.`.f.p.@XA._._.2XdX`.O.dX",
"c b x ( z.P b ( c.( ! B q T L i 3 - 4.4.r.&.S J 2X].t.l z g s.l.",
"^ ) [ ^ n m ) z.I q 9 4 4 4 w w 5 - 4.4.t.m.P._.h.g.a.a.f.j.j.k.",
"r x u r m v P u w 4 4 4 * 4 * y i - 0.9.m.D.t.a.!.H.P.d.l.k.s.s."
};
