/* XPM */
static char * 32x_xpm[] = {
"32 32 257 2",
"  	c None",
". 	c #484256",
"+ 	c #7A8E9E",
"@ 	c #92AABA",
"# 	c #B6C6CE",
"$ 	c #C6D2D6",
"% 	c #DEE2E2",
"& 	c #76628E",
"* 	c #E2E6E6",
"= 	c #BA8E9A",
"- 	c #CEAEBA",
"; 	c #9E6E8A",
"> 	c #E6EAEA",
", 	c #6E7282",
"' 	c #F0C2C4",
") 	c #46566A",
"! 	c #B28A9B",
"~ 	c #B6AEB6",
"{ 	c #927292",
"] 	c #F2D2CE",
"^ 	c #969AA2",
"/ 	c #526276",
"( 	c #EAEEEE",
"_ 	c #EAC2C6",
": 	c #6E7A8A",
"< 	c #EEF2F2",
"[ 	c #CEC2C2",
"} 	c #DED6DA",
"| 	c #A2BAC7",
"1 	c #7A5E6E",
"2 	c #A69EAA",
"3 	c #9AB2C2",
"4 	c #868A96",
"5 	c #BE9EC4",
"6 	c #62768A",
"7 	c #B2B2BA",
"8 	c #7E7A8E",
"9 	c #B692A2",
"0 	c #727682",
"a 	c #9E768E",
"b 	c #F6F6F6",
"c 	c #9272A2",
"d 	c #C6A2AE",
"e 	c #825E72",
"f 	c #9E82B6",
"g 	c #DEBAD2",
"h 	c #A6AAB2",
"i 	c #4E5E72",
"j 	c #82627E",
"k 	c #BACAD2",
"l 	c #9A8286",
"m 	c #8A929E",
"n 	c #566A7E",
"o 	c #807E8C",
"p 	c #C8BEC6",
"q 	c #EAD6D2",
"r 	c #A27A96",
"s 	c #8A767A",
"t 	c #9EA2AA",
"u 	c #FADECF",
"v 	c #F2E2DA",
"w 	c #8A6682",
"x 	c #CEAACE",
"y 	c #F6FAFA",
"z 	c #7A7682",
"A 	c #AE8EAA",
"B 	c #CECED5",
"C 	c #BE9EAA",
"D 	c #5A5272",
"E 	c #BABEC6",
"F 	c #B69AC6",
"G 	c #D6BEC6",
"H 	c #626274",
"I 	c #AE7E8E",
"J 	c #5A466E",
"K 	c #8E8692",
"L 	c #EECAC0",
"M 	c #9A929A",
"N 	c #C6AAB2",
"O 	c #827292",
"P 	c #BAC6D2",
"Q 	c #DACAD2",
"R 	c #7E6A92",
"S 	c #9E7EAE",
"T 	c #7E828F",
"U 	c #CAD2D6",
"V 	c #927AAA",
"W 	c #FEFEFE",
"X 	c #E6DAD6",
"Y 	c #A88294",
"Z 	c #8A6A92",
"` 	c #C2B6B6",
" .	c #767A86",
"..	c #C6CACE",
"+.	c #AA8AB6",
"@.	c #607282",
"#.	c #726A82",
"$.	c #CEA6D2",
"%.	c #666A7A",
"&.	c #F2DAD2",
"*.	c #D2D6DA",
"=.	c #625A62",
"-.	c #DADEE1",
";.	c #B6BABF",
">.	c #A88EC2",
",.	c #D6B2C2",
"'.	c #A8BAC6",
").	c #8A7A96",
"!.	c #AAAEB6",
"~.	c #7E8692",
"{.	c #E6E2E2",
"].	c #767E8E",
"^.	c #7E92A4",
"/.	c #CAAACA",
"(.	c #9296A1",
"_.	c #9AA6AE",
":.	c #E8BEC8",
"<.	c #FACEC6",
"[.	c #BEC2C6",
"}.	c #9A9EA8",
"|.	c #B6929E",
"1.	c #92929E",
"2.	c #8E7296",
"3.	c #5E5672",
"4.	c #8E6E8E",
"5.	c #AE8EBA",
"6.	c #FAD2C6",
"7.	c #8A8E99",
"8.	c #C6CED6",
"9.	c #C2C6CB",
"0.	c #E6E6E6",
"a.	c #987290",
"b.	c #6A5E66",
"c.	c #8E6EA2",
"d.	c #866E92",
"e.	c #6A6676",
"f.	c #BE96A2",
"g.	c #D2B6AE",
"h.	c #6E8296",
"i.	c #A6A6B2",
"j.	c #EEDED2",
"k.	c #B28692",
"l.	c #EECACE",
"m.	c #828692",
"n.	c #5A6A7E",
"o.	c #D6B2CC",
"p.	c #D2DADE",
"q.	c #828291",
"r.	c #D6C2C9",
"s.	c #A2A6AF",
"t.	c #E2DEE2",
"u.	c #5A4A76",
"v.	c #9A7EB2",
"w.	c #926A92",
"x.	c #C6A2CE",
"y.	c #AEBECA",
"z.	c #687686",
"A.	c #AEAAAE",
"B.	c #EFC6C5",
"C.	c #828A92",
"D.	c #A2A2AD",
"E.	c #866A9A",
"F.	c #FAD6C6",
"G.	c #5E6E80",
"H.	c #D6C6CE",
"I.	c #DEDEE1",
"J.	c #8E72A2",
"K.	c #826E96",
"L.	c #4E465E",
"M.	c #AA7E8A",
"N.	c #C69EAA",
"O.	c #D2D2D6",
"P.	c #FADACE",
"Q.	c #AEAEB8",
"R.	c #AA8698",
"S.	c #A8BECA",
"T.	c #9A7692",
"U.	c #957AAF",
"V.	c #EEC6CE",
"W.	c #B2B6BC",
"X.	c #7A828E",
"Y.	c #726E8A",
"Z.	c #B092C4",
"`.	c #E6C2D2",
" +	c #8A668E",
".+	c #DAB6CE",
"++	c #8E6E97",
"@+	c #BABAC2",
"#+	c #C2C2CA",
"$+	c #BB929F",
"%+	c #929EAA",
"&+	c #DEDAD6",
"*+	c #C2A2CA",
"=+	c #9376A7",
"-+	c #E2BECE",
";+	c #967EB6",
">+	c #F6DED6",
",+	c #E2E2E4",
"'+	c #8E8E9A",
")+	c #96AEBE",
"!+	c #CEB2BA",
"~+	c #C8A6B2",
"{+	c #9E86B2",
"]+	c #66667A",
"^+	c #CAAEB8",
"/+	c #DACED2",
"(+	c #626E80",
"_+	c #625A72",
":+	c #6A7A8E",
"<+	c #AEB2BA",
"[+	c #BEBEC5",
"}+	c #B6B6BE",
"|+	c #E6E6EA",
"1+	c #EEEEF0",
"2+	c #8A8A96",
"3+	c #FAFAFA",
"4+	c #7A7A8A",
"5+	c #DAB2D0",
"6+	c #D6DADC",
"7+	c #E2DADE",
"8+	c #A88ABE",
"9+	c #F6D6CE",
"0+	c #DCDADE",
"a+	c #A2728A",
"b+	c #9A868A",
"c+	c #EEDAD2",
"d+	c #A67E92",
"e+	c #B28292",
"f+	c #564A66",
"g+	c #9E969A",
"h+	c #766E7E",
"i+	c #F2CECA",
"j+	c #8A76A2",
"k+	c #868692",
"l+	c #9E9EAA",
"m+	c #866E99",
"n+	c #CACAD2",
"o+	c #7A7E8C",
"p+	c #96929A",
"q+	c #CACED4",
"r+	c #B68A9A",
"s+	c #F2F2F3",
"t+	c #8E929D",
"u+	c #EAE2DE",
"v+	c #C6C6CE",
"w+	c #868292",
"x+	c #926E92",
"y+	c #9E7696",
"z+	c #8A869A",
"A+	c #8E7A9E",
"B+	c #828A9A",
"C+	c #EAEAEE",
"D+	c #C29EC6",
"E+	c #E2BAD2",
"F+	c #AAAAB2",
"G+	c #D6D6D8",
"H+	c #5E6A7C",
"                                                                ",
"                                                                ",
"                              |+|+                              ",
"                              q+q+                              ",
"                          [.s.e.e.F+#+                          ",
"                          h m.. . 2+!.                          ",
"                      v+t+_+L.! |.w+k+4 #+                      ",
"                    ( }+q._+f+r+$+1.'+m.}+>                     ",
"                  -.1.Y.u.& K.Y ! /+p t+4 o+*.                  ",
"                6+[+K ).m+m+m+d+R.r.p W.}.C.W...                ",
"                }.p+s A $.S c.T.r - G |+[+(.T  .                ",
"            ..E T M g.,.5++.U.{ T.N.!+t.G+..t 7.s.!.            ",
"            h }., g+P.l.E+5.v.2.{ $+~+t.,+0.7 ^  .4+            ",
"        ..}+H+@.'.9.>+] ' 5 >.m+d.e+f.Q 0+|+-.6+t ^ m.s.        ",
"        ;.D./ G.# q+v ] B.D+Z.m+d.I $+H.} |+* * !.t , 1.        ",
"    O.Q.H+) @ 3 | P {.&.6.o.x.c ++a R.^+H.0.0.* * % s.(.%.!.    ",
"    n+t (+i @ 3 | # I.c+F..+x =+J.a.Y d r.{.,+* * % t (., <+    ",
"    ;.o+z.@.)+3 3 y.p.X u `.g f U.x+y+= !+7+,+0.* I.t+7.q.@+    ",
"    -.[.B+: + ^.3 S.$ &+>+V.:.8+f Z a.k.~+/+t.|+[.;.m.(.#+I.    ",
"        l+o+G.6 3 | k G+v i+' Z.8+R 4.M.C r.7+|+t (.o+}.        ",
"        |+I.~.].:+^.S.U u+9+<.*+F E.++a+9 ^+~ !.m.m.-.|+        ",
"            7.T n h.'.8.{.9+6./.5 E.++; ! N 2 ^ 4+o             ",
"              C+7.X.n._.p.j.u g o.V =+w.w e h+0 |+              ",
"                D.m (+%+9.q u -+5+;+=+ +j 1 o 2+                ",
"                  -.(.~.z.[ v B.:.>.V J 3.]+B                   ",
"                  C+[+t ~.A.` B._ {+j+D 8 D.,+                  ",
"                      q+}.q.z L L A+O H Q.                      ",
"                      ( 0+i.1.b+l #.z+9.,+                      ",
"                          E D.b.=.H '+                          ",
"                              @+@+|+                            ",
"                              B B                               ",
"                                                                "};
