<?xml version="1.0" encoding="UTF-8" standalone="no"?>
<svg
   xmlns:dc="http://purl.org/dc/elements/1.1/"
   xmlns:cc="http://creativecommons.org/ns#"
   xmlns:rdf="http://www.w3.org/1999/02/22-rdf-syntax-ns#"
   xmlns:svg="http://www.w3.org/2000/svg"
   xmlns="http://www.w3.org/2000/svg"
   xmlns:sodipodi="http://sodipodi.sourceforge.net/DTD/sodipodi-0.dtd"
   xmlns:inkscape="http://www.inkscape.org/namespaces/inkscape"
   viewBox="0 0 50 50"
   version="1.1"
   id="svg4"
   sodipodi:docname="lichesslogo_white.svg"
   inkscape:version="0.92.3 (2405546, 2018-03-11)">
  <metadata
     id="metadata10">
    <rdf:RDF>
      <cc:Work
         rdf:about="">
        <dc:format>image/svg+xml</dc:format>
        <dc:type
           rdf:resource="http://purl.org/dc/dcmitype/StillImage" />
        <dc:title></dc:title>
      </cc:Work>
    </rdf:RDF>
  </metadata>
  <defs
     id="defs8" />
  <sodipodi:namedview
     pagecolor="#ffffff"
     bordercolor="#666666"
     borderopacity="1"
     objecttolerance="10"
     gridtolerance="10"
     guidetolerance="10"
     inkscape:pageopacity="0"
     inkscape:pageshadow="2"
     inkscape:window-width="738"
     inkscape:window-height="480"
     id="namedview6"
     showgrid="false"
     inkscape:zoom="4.72"
     inkscape:cx="25"
     inkscape:cy="25"
     inkscape:window-x="253"
     inkscape:window-y="197"
     inkscape:window-maximized="0"
     inkscape:current-layer="svg4" />
  <path
     fill="#000000"
     stroke="#000000"
     stroke-linejoin="round"
     d="M38.956.5c-3.53.418-6.452.902-9.286 2.984C5.534 1.786-.692 18.533.68 29.364 3.493 50.214 31.918 55.785 41.329 41.7c-7.444 7.696-19.276 8.752-28.323 3.084C3.959 39.116-.506 27.392 4.683 17.567 9.873 7.742 18.996 4.535 29.03 6.405c2.43-1.418 5.225-3.22 7.655-3.187l-1.694 4.86 12.752 21.37c-.439 5.654-5.459 6.112-5.459 6.112-.574-1.47-1.634-2.942-4.842-6.036-3.207-3.094-17.465-10.177-15.788-16.207-2.001 6.967 10.311 14.152 14.04 17.663 3.73 3.51 5.426 6.04 5.795 6.756 0 0 9.392-2.504 7.838-8.927L37.4 7.171z"
     id="path2"
     style="fill:#ffffff;stroke:#ffffff;stroke-opacity:0.99607843" />
</svg>
