/* XPM */
static char * lockjaw_xpm[] = {
"48 48 16 1",
" 	c None",
".	c #8CC1F9",
"+	c #6CA9FA",
"@	c #5690FD",
"#	c #1679FF",
"$	c #1564FC",
"%	c #0955BE",
"&	c #0057D5",
"*	c #1A59AB",
"=	c #EBC08F",
"-	c #F7B24F",
";	c #F6BD72",
">	c #FFAA00",
",	c #E09500",
"'	c #C3860E",
")	c #A66F00",
"                                   .            ",
"                                 ..+@           ",
"                               ..+##@           ",
"                             ..+#$$$@@          ",
"                           ..+#$$$$$#@          ",
"                           %#$$$$$$$$@@         ",
"                           &&$$$$$$$$#@         ",
"                            &$$$$$$$$$@@        ",
"                            &&$$$$$$$$#@        ",
"                             &$$$$$$$&%*@       ",
"                           .+&&$$$$&%**.+       ",
"                          @#$$&$$&%**..+@@      ",
"                          &$$$&&%**..+#$#@      ",
"                           &$$$%*..+#$$$$@@     ",
"                           &$$$*.+#$$$$$$#@     ",
"     ==-                    &$&%&$$$$$$$$$@@    ",
"   ==;--                   +&%*.&&$$$$$$$$#@    ",
" ==;>>>--                +#$@++#$&$$$$$$$$$@@   ",
"=;>>>>>>-  =;            &$$#&$$$&&$$$$$$$$#@   ",
">>>>>>>>--;>>-            $&*+&$$$&$$$$$$&%**+  ",
">>>>>>>>>->>>-            %+##&$$$&&$$$&%**..+  ",
">>>>>>>>>-->>>-  --        $$$@&$$&&$&%**..+#@@ ",
",>>>>>>>>>->>>- >>>        &$&*&&%*&%**..+#$$#@ ",
"'>>>>>>>>,'->>,->>>-        *+#@*.+#*..+#$$$$$@@",
"',>>>>>,)));,));,,'-       +#$$.@#$.@@#$$$$$$$#@",
" '>>>,)));=;-;;--->>-    +#$#.+@@..+@&$$$$$$$$$@",
" ',,)));=;>>->>>-,>>>  --*$.+#$..+##@%&$$$$$$$$#",
"  '));=;>>>>-->>>->,'->>>=@#$..+#$$$@@&$$$$$$$$$",
"  ';=;>>>>>>>->>>-'->>,=;-*..+#$$$$$#@%&$$$$$$$&",
"   ,,>>>>>>>>-->>>->>=;>>==%#$$$$$$$$@@&$$$$$&%*",
"   ',>>>>>>>>>->,)'-;>>==;-*&$$$$$$$$#@%&$$&%** ",
"    '>>>>>>>>>--);;-,==;>>-=&$$$$$$$$$@@&&%**   ",
"    ',>>>>>>>>>-;>>==;>>>>>-*&$$$$$$$$#@%**     ",
"     '>>>>>>>,))-;=;>>>>>>>-=&$$$$$$$&%*%       ",
"     ',>>>>,)));;,,>>>>>>>>>-*&$$$$&%**         ",
"      '>>,)));=;--'>>>>>>>>>-=&$$&%**           ",
"      ',)));=;>>>-,,>>>>>>>>>-*&%**             ",
"       ));=;>>>>>--'>>>>>>>>>-=%*               ",
"       ';;>>>>>>>>-,,>>>>>>,)))                 ",
"        '>>>>>>>>>--'>>>>,)))                   ",
"        ',>>>>>>>>>-,,>,)))                     ",
"         '>>>>>>>>>--')))                       ",
"         ',>>>>>>>>,-')                         ",
"          '>>>>>>,)))                           ",
"          ',>>>,)))                             ",
"           '>,)))                               ",
"           ''))                                 ",
"            )                                   "};
