<?xml version="1.0" encoding="UTF-8" standalone="no"?>
<!-- Generator: Adobe Illustrator 15.0.2, SVG Export Plug-In . SVG Version: 6.00 Build 0)  -->

<svg
   version="1.1"
   id="Layer_1"
   x="0px"
   y="0px"
   width="146.37401"
   height="146.37599"
   viewBox="0 0 146.37401 146.37599"
   enable-background="new 0 0 850.394 226.772"
   xml:space="preserve"
   sodipodi:docname="sononym-logo-full-black.svg"
   inkscape:version="1.2.2 (b0a8486541, 2022-12-01)"
   xmlns:inkscape="http://www.inkscape.org/namespaces/inkscape"
   xmlns:sodipodi="http://sodipodi.sourceforge.net/DTD/sodipodi-0.dtd"
   xmlns="http://www.w3.org/2000/svg"
   xmlns:svg="http://www.w3.org/2000/svg"><defs
   id="defs130" /><sodipodi:namedview
   id="namedview128"
   pagecolor="#ffffff"
   bordercolor="#000000"
   borderopacity="0.25"
   inkscape:showpageshadow="2"
   inkscape:pageopacity="0.0"
   inkscape:pagecheckerboard="0"
   inkscape:deskcolor="#d1d1d1"
   showgrid="false"
   showguides="false"
   inkscape:zoom="1.0406928"
   inkscape:cx="278.18006"
   inkscape:cy="86.0004"
   inkscape:window-width="1536"
   inkscape:window-height="936"
   inkscape:window-x="0"
   inkscape:window-y="0"
   inkscape:window-maximized="1"
   inkscape:current-layer="Layer_1" />


<g
   id="lines"
   transform="translate(-37.976001,-40.425)">
	<polygon
   points="102.337,77.441 92.44,77.441 119.201,145.028 129.098,145.028 "
   id="polygon106" />
	<polygon
   points="122.946,77.441 113.049,77.441 126.35,111.032 136.246,111.032 "
   id="polygon108" />
	<polygon
   points="143.879,77.441 133.983,77.441 147.284,111.032 157.18,111.032 "
   id="polygon110" />
	<polygon
   points="98.592,145.028 108.489,145.028 95.092,111.194 85.196,111.194 "
   id="polygon112" />
	<polygon
   points="77.335,145.028 87.231,145.028 73.834,111.194 63.938,111.194 "
   id="polygon114" />
</g>
<path
   d="m 73.186999,146.376 c -9.879,0 -19.464,-1.936 -28.489,-5.753 -8.716,-3.687 -16.542,-8.963 -23.262,-15.683 -6.72,-6.722 -11.9969999,-14.548 -15.6839999,-23.263 C 1.9349991,92.651 -9.3271137e-7,83.067 -9.3271137e-7,73.188 -9.3271137e-7,63.311 1.9359991,53.726 5.7519991,44.7 c 3.687,-8.716 8.9639999,-16.542 15.6839999,-23.264 6.72,-6.719 14.546,-11.9959998 23.262,-15.6819998 9.025,-3.818 18.609,-5.75400000283586 28.489,-5.75400000283586 9.878,0 19.463,1.93700000283586 28.488001,5.75400000283586 8.716,3.686 16.542,8.9629998 23.262,15.6819998 6.721,6.722 11.998,14.548 15.684,23.264 3.817,9.025 5.753,18.61 5.753,28.488 0,9.879 -1.936,19.463 -5.753,28.489 -3.686,8.714 -8.963,16.541 -15.684,23.263 -6.72,6.72 -14.546,11.996 -23.262,15.683 -9.025001,3.817 -18.609001,5.753 -28.488001,5.753 z m 0,-139.8829998 c -36.776,0 -66.6959999,29.9189998 -66.6959999,66.6949998 0,36.776 29.9199999,66.696 66.6959999,66.696 36.776001,0 66.695001,-29.92 66.695001,-66.696 0,-36.776 -29.919,-66.6949998 -66.695001,-66.6949998 z"
   id="path117" />

</svg>
