<svg version="1.0" viewBox="0 0 128 128" xmlns="http://www.w3.org/2000/svg">
 <path d="m12.507 57.203-.1555 36.582 31.546 17.925 71.829-41.217-.219-37.085-31.973-17.39z" fill="#00a6ee" stroke-width="10.5" style="paint-order:markers stroke fill"/>
 <path transform="matrix(.1 0 0 -.1 0 128)" d="m470 944c-184-106-343-203-352-215-16-19-18-45-18-209 0-142 3-190 13-198 38-32 312-182 332-182 29 0 681 372 713 407 21 23 22 31 22 212 0 143-3 191-13 199-44 37-309.55 181.09-331.55 180.09-16 0-174.45-83.09-365.45-194.09zm529.59 63.65c46.003-25.995 101.37-48.934 98.373-52.934-2-4-68.96-35.716-119.96-64.716-358-205-537-313-558-335-24-26-17.072-33.382-20.072-181.38-2-85 1.429-165.59-1.571-165.59s-73.357 41.968-139.36 79.968l-118 67-1 166c0 146 2 168 18 181 17 16 147 92 502 296l175 101 41.308-22.73c22-13 78.279-42.62 123.28-68.62zm140.41-248.65c1.76-52.835 1.1-161.03-.21-168.72-1.9-5.852-198.79-124.28-374.79-225.28l-320-184-3 157c-2 139 0 159 16 181 10 14 90 66 178 117 87 50 233 135 324 187 91 53 168 96 173 96 4 1 4.07-72.049 7-160z"/>
</svg>
