<svg xmlns="http://www.w3.org/2000/svg" version="1" width="538.15" height="539.02" viewBox="0 0 0 0 400 382"><path d="M173.97 30.84v27.47H115.6v36.62H78.97v32.05H62.95v41.2H33.2v214.04h29.76v21.74h3.43v35.49h36.63v22.89h38.91v18.3h32.05v24.05H367.4v-21.75h37.77v-22.9h27.47v-24.03h33.2v-32.05h4.57v-22.89h24.04v-38.91h21.74V200.23h-21.74v-45.78H470.4v-27.47H454.4V90.36h-49.22V56.02H367.4V30.84H173.97z" fill="#fff"/><path d="M269.07 0A269.07 269.51 0 0 0 0 269.51a269.07 269.51 0 0 0 269.07 269.51 269.07 269.51 0 0 0 269.08-269.51A269.07 269.51 0 0 0 269.07 0zm1.05 44.58a225.04 225.4 0 0 1 225.04 225.4 225.04 225.4 0 0 1-225.04 225.4A225.04 225.4 0 0 1 45.1 269.98a225.04 225.4 0 0 1 225.03-225.4zM129.3 132.63v273.88l22.46.72h21.74l.72-.72v-3.62a3210.4 3210.4 0 0 1-.72-92.74 7144.6 7144.6 0 0 1-1.45-93.47c0-2.9.72-2.9 2.9-.72a117.37 117.37 0 0 0 8.7 10.86 760.76 760.76 0 0 0 29.7 36.96c2.9 2.9 2.9-.73 2.9 44.92l.72 97.8h46.37v-71l.72-70.28.73-1.44a3216.2 3216.2 0 0 1 41.3-47.82V406.5H351a4010.28 4010.28 0 0 0 .72-141.29 616.58 616.58 0 0 1 64.48-.72v-44.92h-31.87l-32.6-.72V176.1l31.87-.73h32.6v-42.75H306.1l-.73.73a312.27 312.27 0 0 0-22.46 28.26 1154.9 1154.9 0 0 0-37.67 48.54c-5.8 7.97-5.08 7.25-7.25 4.35a994.06 994.06 0 0 0-28.26-37.68 1807.7 1807.7 0 0 0-32.6-44.2z" fill="#040404" fill-rule="evenodd"/></svg>
