/* XPM */
static char * microscope_xpm[] = {
"20 20 7 1",
" 	c None",
".	c #C3D100",
"+	c #D1C700",
"@	c #D1B500",
"#	c #D1A900",
"$	c #CB8E00",
"%	c #C57700",
"          %%        ",
"          %.        ",
"          %.        ",
"          %.        ",
"          %$        ",
"          %$        ",
"         #%$        ",
"        $%%$        ",
"       %%%%$        ",
"      $%  %$        ",
"      %%  %%        ",
"      %%  %%        ",
"      %%            ",
"      %%%%$@@..     ",
"       %%%$$$$      ",
"        %%          ",
"        %% +        ",
"        %% $$       ",
"     %%%@@@@@..     ",
"    %%%%%%%%$$+.    "};
