<svg width="117" height="101" viewBox="0 0 117 101" fill="none" xmlns="http://www.w3.org/2000/svg">
<path d="M58.4421 9.54929L62.9331 14.1358L58.4425 18.7219L53.9515 14.1354L58.4421 9.54929Z" fill="url(#paint0_linear)"/>
<path fill-rule="evenodd" clip-rule="evenodd" d="M58.4332 0.376587L66.3313 8.44267H77.5015V19.8506L85.3999 27.917L77.5015 35.9834V47.3907H66.3319L58.4332 55.4574L50.5345 47.3907H39.3649V35.9834L31.4666 27.917L39.3649 19.8506V8.44267H50.5352L58.4332 0.376587ZM51.1766 10.0241H40.9424L58.4424 27.8964L75.9423 10.0241H65.6898L58.4332 2.61312L51.1766 10.0241ZM33.6565 27.917L39.395 22.0564L39.395 33.7776L33.6565 27.917ZM51.174 45.8092L51.1745 33.1483L58.4405 40.4757H58.4445L76.9758 21.5502L83.2099 27.917L75.953 35.3283V35.3467L65.7084 45.8092H65.6905L58.4332 53.2209L51.174 45.8092Z" fill="url(#paint1_linear)"/>
<path d="M11.5491 69.7606C12.41 70.1022 13.1684 70.5873 13.8243 71.2159C14.4939 71.8445 15.0131 72.596 15.3821 73.4706C15.751 74.3451 15.9355 75.3154 15.9355 76.3812C15.9355 77.4334 15.751 78.3968 15.3821 79.2713C15.0131 80.1459 14.4939 80.8974 13.8243 81.526C13.1684 82.1546 12.41 82.6465 11.5491 83.0018C10.7019 83.3434 9.78633 83.5143 8.80246 83.5143C7.81859 83.5143 6.88938 83.3434 6.01483 83.0018C5.16761 82.6465 4.40921 82.1546 3.73964 81.526C3.08372 80.8974 2.56446 80.1459 2.18184 79.2713C1.81289 78.3968 1.62842 77.4334 1.62842 76.3812C1.62842 75.3154 1.81289 74.3451 2.18184 73.4706C2.56446 72.596 3.08372 71.8445 3.73964 71.2159C4.40921 70.5873 5.16761 70.1022 6.01483 69.7606C6.88938 69.4053 7.81859 69.2277 8.80246 69.2277C9.78633 69.2277 10.7019 69.4053 11.5491 69.7606ZM6.58876 72.4867C5.96017 72.883 5.46141 73.4159 5.09246 74.0855C4.72351 74.7551 4.53903 75.5135 4.53903 76.3607C4.53903 77.2079 4.72351 77.9732 5.09246 78.6564C5.46141 79.326 5.96017 79.8589 6.58876 80.2552C7.24467 80.6378 7.98257 80.8291 8.80246 80.8291C9.62235 80.8291 10.3466 80.6378 10.9752 80.2552C11.6174 79.8589 12.123 79.326 12.492 78.6564C12.8609 77.9732 13.0454 77.2079 13.0454 76.3607C13.0454 75.5135 12.8609 74.7551 12.492 74.0855C12.123 73.4159 11.6174 72.883 10.9752 72.4867C10.3466 72.0904 9.62235 71.8923 8.80246 71.8923C7.98257 71.8923 7.24467 72.0904 6.58876 72.4867ZM10.6882 76.3607L8.80246 78.2465L6.91671 76.3607L8.80246 74.475L10.6882 76.3607Z" fill="#32363F"/>
<path d="M31.1748 69.3711V83.2068H30.15L22.0125 74.8234V83.1043H19.1634V69.2687H20.1883L28.3257 77.775V69.3711H31.1748Z" fill="#32363F"/>
<path d="M46.2297 75.0284V77.3036H40.142V80.5422H47.0086V83.1043H37.2928V77.3036H34.5667V75.0284H37.2928V69.2482H47.0086V71.8103H40.142V75.0284H46.2297Z" fill="#32363F"/>
<path d="M68.9596 69.2687V83.1043H66.1105V74.7414L62.585 78.5949H61.7651L58.1986 74.7414V83.1043H55.3495V69.2687H56.3128L62.1751 75.3768L67.9963 69.2687H68.9596Z" fill="#32363F"/>
<path d="M82.4977 69.7606C83.3586 70.1022 84.117 70.5873 84.7729 71.2159C85.4425 71.8445 85.9617 72.596 86.3307 73.4706C86.6996 74.3451 86.8841 75.3154 86.8841 76.3812C86.8841 77.4334 86.6996 78.3968 86.3307 79.2713C85.9617 80.1459 85.4425 80.8974 84.7729 81.526C84.117 82.1546 83.3586 82.6465 82.4977 83.0018C81.6505 83.3434 80.7349 83.5143 79.751 83.5143C78.7672 83.5143 77.838 83.3434 76.9634 83.0018C76.1162 82.6465 75.3578 82.1546 74.6882 81.526C74.0323 80.8974 73.513 80.1459 73.1304 79.2713C72.7615 78.3968 72.577 77.4334 72.577 76.3812C72.577 75.3154 72.7615 74.3451 73.1304 73.4706C73.513 72.596 74.0323 71.8445 74.6882 71.2159C75.3578 70.5873 76.1162 70.1022 76.9634 69.7606C77.838 69.4053 78.7672 69.2277 79.751 69.2277C80.7349 69.2277 81.6505 69.4053 82.4977 69.7606ZM77.5373 72.4867C76.9088 72.883 76.41 73.4159 76.041 74.0855C75.6721 74.7551 75.4876 75.5135 75.4876 76.3607C75.4876 77.2079 75.6721 77.9732 76.041 78.6564C76.41 79.326 76.9088 79.8589 77.5373 80.2552C78.1933 80.6378 78.9312 80.8291 79.751 80.8291C80.5709 80.8291 81.2952 80.6378 81.9238 80.2552C82.566 79.8589 83.0716 79.326 83.4406 78.6564C83.8095 77.9732 83.994 77.2079 83.994 76.3607C83.994 75.5135 83.8095 74.7551 83.4406 74.0855C83.0716 73.4159 82.566 72.883 81.9238 72.4867C81.2952 72.0904 80.5709 71.8923 79.751 71.8923C78.9312 71.8923 78.1933 72.0904 77.5373 72.4867ZM81.6368 76.3607L79.751 78.2465L77.8653 76.3607L79.751 74.475L81.6368 76.3607Z" fill="#32363F"/>
<path d="M95.6873 69.3711C96.3295 69.3711 96.9581 69.46 97.573 69.6376C98.1879 69.8152 98.7414 70.0885 99.2333 70.4575C99.7389 70.8264 100.135 71.2911 100.422 71.8513C100.723 72.3979 100.873 73.0538 100.873 73.819C100.873 74.6253 100.668 75.3222 100.258 75.9098C99.8619 76.4837 99.3358 76.9346 98.6799 77.2626C98.0239 77.5769 97.3134 77.7614 96.5481 77.816L101.488 83.1043H97.737L92.9611 77.4881V83.1043H90.112V69.3711H95.6873ZM92.9611 72.0358V75.4998C93.2891 75.6091 93.6512 75.698 94.0475 75.7663C94.4574 75.8209 94.8674 75.8483 95.2773 75.8483C96.0972 75.8483 96.7463 75.6843 97.2246 75.3563C97.7165 75.0147 97.9625 74.5365 97.9625 73.9215C97.9625 73.252 97.7028 72.7737 97.1836 72.4867C96.678 72.1861 96.0562 72.0358 95.3183 72.0358H92.9611Z" fill="#32363F"/>
<path d="M114.452 75.0284V77.3036H108.364V80.5422H115.231V83.1043H105.515V77.3036H102.789V75.0284H105.515V69.2482H115.231V71.8103H108.364V75.0284H114.452Z" fill="#32363F"/>
<path d="M101.188 88.1617C101.783 88.1617 102.272 88.2474 102.655 88.4189C103.049 88.5903 103.392 88.7719 103.684 88.9635V90.3705C103.402 90.1587 103.059 89.962 102.655 89.7804C102.252 89.5888 101.813 89.493 101.339 89.493C101.037 89.493 100.719 89.5485 100.386 89.6594C100.063 89.7603 99.791 89.9267 99.5691 90.1587C99.3472 90.3906 99.2363 90.6881 99.2363 91.0512C99.2363 91.4547 99.3825 91.7623 99.675 91.9741C99.9675 92.1859 100.321 92.3876 100.734 92.5792L102.126 93.2146C102.822 93.5272 103.346 93.8752 103.699 94.2585C104.052 94.6417 104.229 95.151 104.229 95.7864C104.229 96.3411 104.067 96.8303 103.745 97.2539C103.422 97.6674 102.998 97.9952 102.474 98.2372C101.949 98.4793 101.374 98.6003 100.749 98.6003C100.164 98.6003 99.6246 98.4994 99.1304 98.2977C98.6362 98.096 98.2076 97.8691 97.8445 97.617V96.21C98.2378 96.4823 98.6866 96.7294 99.1909 96.9513C99.7053 97.1631 100.285 97.269 100.931 97.269C101.435 97.269 101.879 97.1429 102.262 96.8908C102.645 96.6387 102.837 96.2907 102.837 95.8469C102.837 95.5948 102.756 95.378 102.595 95.1964C102.444 95.0149 102.257 94.8585 102.035 94.7274C101.813 94.5963 101.596 94.4854 101.385 94.3946L99.7053 93.6382C98.9791 93.3154 98.4849 92.9372 98.2227 92.5036C97.9605 92.0699 97.8294 91.5706 97.8294 91.0058C97.8294 90.4713 97.9806 89.9922 98.2832 89.5686C98.5959 89.135 99.0094 88.7921 99.5237 88.5399C100.038 88.2878 100.593 88.1617 101.188 88.1617Z" fill="#32363F"/>
<path d="M24.5952 88.2827V94.44C24.5952 95.3174 24.4086 96.0739 24.0354 96.7093C23.6723 97.3346 23.1781 97.8136 22.5528 98.1465C21.9275 98.4793 21.2165 98.6457 20.4197 98.6457C19.633 98.6457 18.922 98.4793 18.2866 98.1465C17.6613 97.8136 17.1621 97.3346 16.7889 96.7093C16.4258 96.0739 16.2443 95.3174 16.2443 94.44V88.2827H17.6058V94.3946C17.6058 95.0804 17.7319 95.6351 17.984 96.0587C18.2463 96.4823 18.5892 96.7899 19.0128 96.9816C19.4465 97.1631 19.9154 97.2539 20.4197 97.2539C20.924 97.2438 21.3879 97.148 21.8115 96.9664C22.2452 96.7748 22.5881 96.4722 22.8403 96.0587C23.1025 95.6351 23.2336 95.0804 23.2336 94.3946V88.2827H24.5952Z" fill="#32363F"/>
<path d="M11.0534 88.313V98.449H9.69186V91.1117L6.56028 94.4551H6.1972L2.98997 91.1117V98.449H1.62842V88.313H2.05201L6.37874 92.9574L10.6298 88.313H11.0534Z" fill="#32363F"/>
<path d="M31.1476 97.1631V88.313H29.786V98.449H36.73V97.1631H31.1476Z" fill="#32363F"/>
<path d="M48.5622 88.313V89.5989H45.0675V98.4036H43.706V89.5989H40.2113V88.313H48.5622Z" fill="#32363F"/>
<path d="M57.4595 98.449V97.1631H55.75V89.5989H57.4595V88.313H52.6789V89.5989H54.3884V97.1631H52.6789V98.449H57.4595Z" fill="#32363F"/>
<path d="M71.44 88.313L66.7048 98.449H66.024L61.2888 88.313H62.9227L66.3417 96.1495L69.8061 88.313H71.44Z" fill="#32363F"/>
<path fill-rule="evenodd" clip-rule="evenodd" d="M92.6688 88.6458C92.1342 88.4239 91.5745 88.313 90.9895 88.313H87.1015V98.449H88.4631V94.2131L92.82 98.449H94.9078L90.1877 94.2131C90.4903 94.2332 90.7323 94.2433 90.9139 94.2433C91.4988 94.2433 92.0636 94.1374 92.6082 93.9256C93.1629 93.7037 93.6168 93.376 93.9698 92.9423C94.3329 92.5086 94.5144 91.9791 94.5144 91.3538C94.5144 90.6579 94.3379 90.0881 93.9849 89.6443C93.642 89.1904 93.2033 88.8576 92.6688 88.6458ZM88.4631 92.8515V89.5989H90.7626C91.4181 89.5989 91.9728 89.7502 92.4267 90.0528C92.8906 90.3553 93.1226 90.789 93.1226 91.3538C93.1226 91.8984 92.9108 92.3321 92.4872 92.6548C92.0737 92.9776 91.4837 93.139 90.7172 93.139C90.3339 93.139 89.9456 93.1137 89.5523 93.0633C89.159 93.0129 88.7959 92.9423 88.4631 92.8515Z" fill="#32363F"/>
<path d="M81.5627 92.4582V93.7441H76.6308V97.0118H82.2132V98.2977H75.2693V93.7441H73.5455V92.4582H75.2693V88.1617H82.2132V89.4476H76.6308V92.4582H81.5627Z" fill="#32363F"/>
<path d="M114.643 93.7441V92.4582H109.712V89.4476H115.294V88.1617H108.35V92.4582H106.626V93.7441H108.35V98.2977H115.294V97.0118H109.712V93.7441H114.643Z" fill="#32363F"/>
<defs>
<linearGradient id="paint0_linear" x1="58.4332" y1="1.19858" x2="58.4332" y2="54.5581" gradientUnits="userSpaceOnUse">
<stop stop-color="#628CF8"/>
<stop offset="1" stop-color="#FFA5F6"/>
</linearGradient>
<linearGradient id="paint1_linear" x1="58.4332" y1="1.19858" x2="58.4332" y2="54.5581" gradientUnits="userSpaceOnUse">
<stop stop-color="#628CF8"/>
<stop offset="1" stop-color="#FFA5F6"/>
</linearGradient>
</defs>
</svg>
