<svg height="274" xmlns="http://www.w3.org/2000/svg" viewBox="0 0 274 274" width="274"><path fill="#a3b7d6" d="m225.06 272.51-88-50.8v-166.28l88 50.81z"/><path d="m137.06 55.43-88.01 50.81v166.27l88.01-50.8z" fill="#c8d4e6"/><path d="m137.06 0-136.01 78.52 24 13.86 112.01-64.66 112 64.66v166.28l24-13.86v-166.28z" fill="#5d779b"/><path d="m25.05 92.38-24-13.86v166.28l24 13.86z" fill="#334866"/><path d="m25.05 92.38v166.28l24 13.85v-166.27z" fill="#a3b7d6"/><path fill="#edf1f7" d="m25.05 92.38 112.01-64.66 112 64.66v166.28l-24 13.85v-166.27l-88-50.81-88.01 50.81z"/><path d="m137.06 92.37 56 32.34v64.66l-56 32.34-56-32.34v-64.66z" fill="#ffb3cc"/><path d="m137.06 221.71v-64.67l-56-32.33v64.66z" fill="#f21860"/><path d="m137.06 157.04 56-32.33v64.66l-56 32.34z" fill="#fa8aae"/></svg>