<?xml version="1.0" encoding="UTF-8" standalone="no"?>
<!-- Created with Inkscape (http://www.inkscape.org/) -->

<svg
   xmlns:dc="http://purl.org/dc/elements/1.1/"
   xmlns:cc="http://creativecommons.org/ns#"
   xmlns:rdf="http://www.w3.org/1999/02/22-rdf-syntax-ns#"
   xmlns:svg="http://www.w3.org/2000/svg"
   xmlns="http://www.w3.org/2000/svg"
   xmlns:sodipodi="http://sodipodi.sourceforge.net/DTD/sodipodi-0.dtd"
   xmlns:inkscape="http://www.inkscape.org/namespaces/inkscape"
   id="svg2985"
   version="1.1"
   inkscape:version="0.48.1 r9760"
   width="57"
   height="57"
   sodipodi:docname="logo.png">
  <metadata
     id="metadata2991">
    <rdf:RDF>
      <cc:Work
         rdf:about="">
        <dc:format>image/svg+xml</dc:format>
        <dc:type
           rdf:resource="http://purl.org/dc/dcmitype/StillImage" />
        <dc:title></dc:title>
      </cc:Work>
    </rdf:RDF>
  </metadata>
  <defs
     id="defs2989" />
  <sodipodi:namedview
     pagecolor="#ffffff"
     bordercolor="#666666"
     borderopacity="1"
     objecttolerance="10"
     gridtolerance="10"
     guidetolerance="10"
     inkscape:pageopacity="0"
     inkscape:pageshadow="2"
     inkscape:window-width="826"
     inkscape:window-height="575"
     id="namedview2987"
     showgrid="false"
     inkscape:zoom="5"
     inkscape:cx="28.5"
     inkscape:cy="28.5"
     inkscape:window-x="27"
     inkscape:window-y="38"
     inkscape:window-maximized="0"
     inkscape:current-layer="svg2985" />
  <g
     id="g2995"
     transform="translate(0.2,0.2)">
    <path
       style="fill:#fbfdfb"
       d="M 0,28.5 0,0 28.5,0 57,0 57,28.5 57,57 28.5,57 0,57 0,28.5 z"
       id="path3011"
       inkscape:connector-curvature="0" />
    <path
       style="fill:#cae5fd"
       d="M 1.2,55.8 C 0.41512194,55.015122 0,50.871632 0,43.822343 L 0,33.044686 4.081499,37.47259 c 6.263885,6.795513 11.44309,8.885111 20.570484,8.29935 L 32.149659,45.290768 26.356133,51.145384 20.562607,57 11.481303,57 C 5.7514008,57 1.9571472,56.557147 1.2,55.8 z m 32.195768,-4.776074 c 4.785999,-5.01762 5.536586,-6.281806 4.680001,-7.882351 -1.445486,-2.700915 -3.573118,-3.259952 -8.384371,-2.203 C 17.947166,43.518586 4.5593979,34.189471 2.4981913,21.989295 1.2858403,14.813451 6.4301946,6.8073333 14.390575,3.4812742 27.351737,-1.9342451 44.153598,14.286815 40.823009,29 c -1.037239,4.582097 -0.275358,7.687542 2.212725,9.019124 1.737981,0.930139 2.826318,0.300238 7.988192,-4.623356 L 57,27.695559 57,41.14778 C 57,50.277284 56.614394,54.985606 55.8,55.8 54.985606,56.614394 50.277284,57 41.14778,57 l -13.452221,0 5.700209,-5.976074 z M 45.761457,25.089879 C 46.427773,15.777229 44.49275,10.669976 37.995472,4.592534 L 33.085682,0 43.842841,0 C 50.876187,0 55.015405,0.41540482 55.8,1.2 56.557147,1.9571472 57,5.7514008 57,11.481303 l 0,9.081304 -5.873146,5.811863 -5.873146,5.811862 0.507749,-7.096453 z"
       id="path3009"
       inkscape:connector-curvature="0" />
    <path
       style="fill:#b0d8fd"
       d="M 1.5714286,55.428571 C 0.34969176,54.206835 0,51.602899 0,43.727126 l 0,-10.130017 4.0345183,4.198732 c 2.2189851,2.309302 5.8890815,5.144859 8.1557697,6.301237 4.404368,2.246941 12.289595,2.963081 17.306924,1.571824 2.634812,-0.730609 2.212425,-0.09582 -3.493347,5.25 L 19.513308,57 11.328082,57 C 5.2203019,57 2.7440219,56.601165 1.5714286,55.428571 z M 33.281303,51.221003 C 36.426587,48.042554 39,44.918071 39,44.277707 39,41.48054 34.857116,40.128343 28.038526,40.699989 19.553137,41.411374 15.492832,40.08727 10.253992,34.900283 5.0443914,29.742247 3,25.415856 3,19.549211 3,10.010749 10.090403,2.8333333 19.513227,2.8333333 c 5.423499,0 10.223915,2.2385395 14.97462,6.982994 5.399855,5.3927497 6.799103,9.3677767 6.156997,17.4909847 -0.610846,7.72775 -0.232114,9.308023 2.593161,10.820064 1.731153,0.926486 2.799947,0.282895 7.882351,-4.746476 L 57,27.562607 57,40.709875 C 57,51.328603 56.697776,54.159367 55.428571,55.428571 54.159367,56.697776 51.328603,57 40.709875,57 l -13.147268,0 5.718696,-5.778997 z M 45.694429,29.5 C 48.072778,20.3037 45.247453,11.194696 37.795841,4.0345183 L 33.597109,0 43.727126,0 C 56.67533,0 57,0.27815138 57,11.371125 l 0,8.228268 -6.040716,6.450303 C 45.580575,31.793106 45.003596,32.171228 45.694429,29.5 z"
       id="path3007"
       inkscape:connector-curvature="0" />
    <path
       style="fill:#91c8fd"
       d="M 1.6549876,55.171259 C 0.35288974,53.732457 0,51.260766 0,43.579483 l 0,-9.763035 4.25,4.364323 c 6.254636,6.422883 10.801542,8.343657 19.40773,8.198513 l 7.15773,-0.120716 -5.65773,5.334253 -5.65773,5.334253 -8.095012,0.03646 C 4.8022875,56.993278 3.0048788,56.662872 1.6549876,55.171259 z M 33.281303,51.221003 C 36.426587,48.042554 39,44.962298 39,44.37599 39,43.789682 38.176283,42.564522 37.169518,41.653412 35.660704,40.287954 34.028637,40.107618 27.882085,40.627192 21.539311,41.163353 19.833069,40.952559 16.462567,39.216396 2.0006983,31.767014 -1.4746893,14.803006 9.7128627,6.2698441 16.91671,0.77520154 27.343116,2.4034769 34.638047,10.162371 c 5.558233,5.911741 6.701569,9.291747 5.990105,17.708353 -0.520531,6.157872 -0.340632,7.789501 1.02526,9.298794 C 42.564522,38.176283 43.789682,39 44.37599,39 c 0.586308,0 3.666564,-2.573413 6.845013,-5.718697 L 57,27.562607 57,40.709875 C 57,51.328603 56.697776,54.159367 55.428571,55.428571 54.159367,56.697776 51.328603,57 40.709875,57 l -13.147268,0 5.718696,-5.778997 z M 46.312595,26.277461 C 47.859276,18.717096 45.183355,11.022776 38.868046,4.8714731 L 33.86669,0 43.861916,0 C 56.63082,0 57,0.31541667 57,11.224805 l 0,8.081948 -5.246378,5.596624 c -2.885508,3.078142 -5.51008,5.72148 -5.832383,5.874084 -0.322303,0.152604 -0.146193,-1.872396 0.391356,-4.5 z"
       id="path3005"
       inkscape:connector-curvature="0" />
    <path
       style="fill:#7fc1fe"
       d="M 1.6549876,55.171259 C 0.35174857,53.731196 0,51.257496 0,43.532423 l 0,-9.810096 4.25,4.513487 c 6.287477,6.67728 9.864365,8.242709 18.75,8.205956 L 30.5,46.41075 24.909587,51.705376 19.319174,57 11.314575,57 C 4.8298405,57 2.995736,56.65277 1.6549876,55.171259 z M 33.281303,51.221003 C 36.426587,48.042554 39,44.962298 39,44.37599 39,43.789682 38.142347,42.53381 37.094104,41.585163 35.502868,40.145114 34.054007,39.972112 28.318346,40.53729 20.343445,41.323116 16.464928,40.103133 10.618358,34.969776 0.23082049,25.849397 0.68689692,11.784033 11.57711,5.4019426 19.031762,1.0332255 28.350818,3.0797817 34.883673,10.520292 c 5.221263,5.94669 6.442567,9.791455 5.653617,17.798054 -0.565178,5.735661 -0.392176,7.184522 1.047873,8.775758 C 42.53381,38.142347 43.789682,39 44.37599,39 c 0.586308,0 3.666564,-2.573413 6.845013,-5.718697 L 57,27.562607 57,40.626316 C 57,57.618012 57.62457,57 40.452563,57 l -12.889956,0 5.718696,-5.778997 z M 46.44177,23 C 46.478523,14.114365 44.913094,10.537477 38.235814,4.25 L 33.722327,0 43.706176,0 C 56.431452,0 57,0.49133088 57,11.488328 l 0,7.830846 -5.294625,5.590413 L 46.410749,30.5 46.44177,23 z"
       id="path3003"
       inkscape:connector-curvature="0" />
    <path
       style="fill:#6fb7fd"
       d="M 1.6549876,55.171259 C 0.34961989,53.728844 0,51.251311 0,43.443415 l 0,-9.899103 3.0736204,3.728835 C 4.7641117,39.324006 8.2516117,42.239035 10.82362,43.750991 14.758209,46.063938 16.645106,46.5 22.718945,46.5 l 7.218946,0 -5.184786,5.25 L 19.56832,57 11.439148,57 C 4.8337292,57 2.9997598,56.657216 1.6549876,55.171259 z M 33.854943,51.559861 C 39.101713,46.012175 39.69612,44.647717 38.019561,42 37.284785,40.8396 34.931593,40.5 27.625611,40.5 18.729,40.5 17.93144,40.324456 13.868665,37.472073 0.61017154,28.163584 -0.51009681,12.485518 11.57711,5.4019426 19.031762,1.0332255 28.350818,3.0797817 34.883673,10.520292 c 5.221263,5.94669 6.442567,9.791455 5.653617,17.798054 -0.565178,5.735661 -0.392176,7.184522 1.047873,8.775758 2.586411,2.857952 4.020213,2.392342 9.974698,-3.239161 L 57,28.709886 57,41.199955 C 57,57.46796 57.473106,57 41.026202,57 l -12.316316,0 5.145057,-5.440139 z M 46.470301,22.718945 C 46.434612,14.044202 44.164438,9.0085248 37.854493,3.6074464 L 33.640003,0 43.665014,0 C 56.461823,0 57,0.46867679 57,11.612901 l 0,7.955419 -5.25,5.184785 -5.25,5.184786 -0.0297,-7.218946 z"
       id="path3001"
       inkscape:connector-curvature="0" />
    <path
       style="fill:#4ba6fd"
       d="M 2,55 C 0.28136349,53.281363 0,51.666667 0,43.522343 l 0,-9.477657 4.0229504,4.364386 C 9.5535125,44.409023 16.61677,47.340436 24.21828,46.790592 L 30.068843,46.367401 24.818582,51.6837 19.56832,57 11.78416,57 C 5.3333333,57 3.657424,56.657424 2,55 z m 31.78416,-3.281445 c 5.880532,-5.954498 6.595545,-8.93178 2.642444,-11.003019 C 34.44487,39.677201 32.591285,39.59593 28.364559,40.362051 21.715259,41.567281 17.439918,40.31675 11.34414,35.383605 1.9315564,27.766261 0.44588932,16.506833 7.8136184,8.626839 15.487155,0.41977477 27.602926,1.6168646 35.315474,11.34414 c 5.117641,6.454507 5.908108,9.090886 5.150333,17.17747 -0.556229,5.93579 -0.387671,7.413669 1.00432,8.80566 2.678974,2.678974 4.63166,2.003887 10.248428,-3.54311 L 57,28.56832 57,40.78416 C 57,51.666667 56.781704,53.218296 55,55 c -1.781704,1.781704 -3.333333,2 -14.21584,2 l -12.21584,0 5.21584,-5.281445 z M 46.790592,24.21828 C 47.340436,16.61677 44.409023,9.5535125 38.409072,4.0229504 L 34.044686,0 43.522343,0 C 56.041289,0 57,0.83824679 57,11.78416 l 0,7.78416 -5.3163,5.250262 -5.316299,5.250261 0.423191,-5.850563 z"
       id="path2999"
       inkscape:connector-curvature="0" />
    <path
       style="fill:#3e9efe"
       d="M 3.6932135,56.299738 C 1.0248965,55.608199 0,51.844584 0,42.737554 l 0,-8.132247 4.1295913,4.170874 c 6.2677967,6.330455 11.6041507,8.53744 19.4370347,8.038679 L 30.033613,46.403073 24.800967,51.701537 19.56832,57 12.53416,56.883999 C 8.6653721,56.820198 4.6869461,56.557281 3.6932135,56.299738 z M 33.75,51.788142 c 5.78891,-5.900314 6.562609,-8.881981 2.923476,-11.266433 -1.950718,-1.27816 -3.24236,-1.340472 -7.996234,-0.385757 -4.798217,0.963619 -6.344699,0.88086 -10.061012,-0.538413 C 10.645935,36.553655 3.0785851,26.903011 3.021962,19.710162 2.9686262,12.934898 10.354179,4.4658941 17.298795,3.3389382 26.10411,1.9100322 37.383536,10.283193 40.064258,20.238636 c 0.676146,2.511014 0.693589,5.559111 0.05165,9.026329 -0.765505,4.134644 -0.664509,5.707979 0.480479,7.485035 2.29619,3.563754 5.329468,2.754899 11.122164,-2.96584 L 57,28.56832 57,40.593031 c 0,16.369898 0.527826,15.82323 -15.667305,16.226557 L 28.5,57.139175 33.75,51.788142 z M 46.5,22.142568 c 0,-6.789086 -0.346895,-8.314332 -2.699272,-11.86831 -1.4846,-2.2429375 -4.1846,-5.5009352 -6,-7.239995 L 34.5,-0.12766399 l 9.831656,0.313832 C 56.471626,0.57368268 57,1.0653857 57,11.97529 l 0,7.59303 -5.25,5.182245 -5.25,5.182245 0,-7.790242 z"
       id="path2997"
       inkscape:connector-curvature="0" />
  </g>
</svg>
