<?xml version="1.0" encoding="UTF-8" standalone="no"?>
<!-- Created with Inkscape (http://www.inkscape.org/) -->

<svg
   xmlns:dc="http://purl.org/dc/elements/1.1/"
   xmlns:cc="http://creativecommons.org/ns#"
   xmlns:rdf="http://www.w3.org/1999/02/22-rdf-syntax-ns#"
   xmlns:svg="http://www.w3.org/2000/svg"
   xmlns="http://www.w3.org/2000/svg"
   xmlns:sodipodi="http://sodipodi.sourceforge.net/DTD/sodipodi-0.dtd"
   xmlns:inkscape="http://www.inkscape.org/namespaces/inkscape"
   width="8.0488453mm"
   height="8.6110849mm"
   viewBox="0 0 28.519529 30.511718"
   id="svg2"
   version="1.1"
   inkscape:version="0.91 r13725"
   sodipodi:docname="onyx.svg">
  <defs
     id="defs4" />
  <sodipodi:namedview
     id="base"
     pagecolor="#ffffff"
     bordercolor="#666666"
     borderopacity="1.0"
     inkscape:pageopacity="0.0"
     inkscape:pageshadow="2"
     inkscape:zoom="2.8"
     inkscape:cx="32.54129"
     inkscape:cy="-25.30465"
     inkscape:document-units="px"
     inkscape:current-layer="layer1"
     showgrid="false"
     fit-margin-top="0"
     fit-margin-left="0"
     fit-margin-right="0"
     fit-margin-bottom="0"
     inkscape:window-width="1600"
     inkscape:window-height="841"
     inkscape:window-x="0"
     inkscape:window-y="27"
     inkscape:window-maximized="1" />
  <metadata
     id="metadata7">
    <rdf:RDF>
      <cc:Work
         rdf:about="">
        <dc:format>image/svg+xml</dc:format>
        <dc:type
           rdf:resource="http://purl.org/dc/dcmitype/StillImage" />
        <dc:title />
      </cc:Work>
    </rdf:RDF>
  </metadata>
  <g
     inkscape:label="Layer 1"
     inkscape:groupmode="layer"
     id="layer1"
     transform="translate(-41.023437,-310.79184)">
    <g
       style="font-style:normal;font-weight:normal;font-size:40px;line-height:125%;font-family:sans-serif;letter-spacing:0px;word-spacing:0px;fill:#000000;fill-opacity:1;stroke:#ffffff;stroke-width:1px;stroke-linecap:butt;stroke-linejoin:miter;stroke-opacity:1"
       id="flowRoot3336">
      <path
         d="m 69.042969,337.327 0,3.47656 -11.71875,0 0,-3.47656 q 3.457031,-1.89453 5.390625,-5.13672 1.933593,-3.24219 1.933593,-7.1875 0,-4.6875 -2.578125,-7.51953 -2.578125,-2.83203 -6.796875,-2.83203 -4.21875,0 -6.816406,2.85156 -2.578125,2.83203 -2.578125,7.5 0,3.94531 1.933594,7.1875 1.953125,3.24219 5.429687,5.13672 l 0,3.47656 -11.71875,0 0,-3.47656 6.230469,0 q -3.085937,-2.71485 -4.511719,-5.625 -1.40625,-2.91016 -1.40625,-6.50391 0,-6.21094 3.75,-10.05859 3.730469,-3.84766 9.6875,-3.84766 5.917969,0 9.6875,3.84766 3.75,3.82812 3.75,9.86328 0,3.78906 -1.386718,6.67969 -1.386719,2.89062 -4.53125,5.64453 l 6.25,0 z"
         style=""
         id="path4165" />
    </g>
  </g>
</svg>
