<?xml version="1.0" encoding="UTF-8" standalone="no"?>
<svg
   width="36"
   height="36"
   viewBox="0 0 38 38"
   aria-hidden="true"
   role="img"
   class="iconify iconify--twemoji"
   preserveAspectRatio="xMidYMid"
   version="1.1"
   id="svg26"
   sodipodi:docname="plainotepad.svg"
   inkscape:version="1.2.1 (9c6d41e410, 2022-07-14, custom)"
   xmlns:inkscape="http://www.inkscape.org/namespaces/inkscape"
   xmlns:sodipodi="http://sodipodi.sourceforge.net/DTD/sodipodi-0.dtd"
   xmlns="http://www.w3.org/2000/svg"
   xmlns:svg="http://www.w3.org/2000/svg">
  <defs
     id="defs30" />
  <sodipodi:namedview
     id="namedview28"
     pagecolor="#ffffff"
     bordercolor="#000000"
     borderopacity="0.25"
     inkscape:showpageshadow="2"
     inkscape:pageopacity="0.0"
     inkscape:pagecheckerboard="0"
     inkscape:deskcolor="#d1d1d1"
     showgrid="false"
     inkscape:zoom="10.791666"
     inkscape:cx="14.038611"
     inkscape:cy="16.030889"
     inkscape:window-width="1920"
     inkscape:window-height="949"
     inkscape:window-x="0"
     inkscape:window-y="30"
     inkscape:window-maximized="1"
     inkscape:current-layer="svg26" />
  <path
     fill="#66757f"
     d="m 29.815,4.6725283 h 1.996 v 2.391 h -1.996 z"
     id="path2" />
  <path
     fill="#55ACEE"
     d="M 31,4.6725283 H 11 a 4,4 0 0 0 -4,4 V 32.672528 a 4,4 0 0 0 4,4 h 20 a 4,4 0 0 0 4,-4 V 8.6725283 a 4,4 0 0 0 -4,-4 z"
     id="path4"
     style="fill:#b2b2b2;fill-opacity:1" />
  <path
     fill="#CCD6DD"
     d="M 29,4.6725283 H 9 a 4,4 0 0 0 -4,4 V 32.672528 a 4,4 0 0 0 4,4 h 20 a 4,4 0 0 0 4,-4 V 8.6725283 a 4,4 0 0 0 -4,-4 z"
     id="path6"
     style="fill:#ececec" />
  <path
     fill="#99AAB5"
     d="m 30,15.672528 a 1,1 0 0 1 -1,1 H 9 a 1,1 0 1 1 0,-2 h 20 a 1,1 0 0 1 1,1 z m 0,5 a 1,1 0 0 1 -1,1 H 9 a 1,1 0 1 1 0,-2 h 20 a 1,1 0 0 1 1,1 z m 0,5 a 1,1 0 0 1 -1,1 H 9 a 1,1 0 1 1 0,-2 h 20 a 1,1 0 0 1 1,1 z m -8,5 a 1,1 0 0 1 -1,1 H 9 a 1,1 0 1 1 0,-2 h 12 a 1,1 0 0 1 1,1 z"
     id="path8"
     style="fill:#bdbdbd;fill-opacity:1" />
  <path
     fill="#292F33"
     d="m 9.836,9.4035278 c -0.702,0 -1.271,-0.6659995 -1.271,-1.4889995 0,-0.822 0.569,-1.489 1.271,-1.489 0.701,0 1.27,0.667 1.27,1.489 0,0.822 -0.569,1.4889995 -1.27,1.4889995 z"
     id="path10"
     style="fill:#c1c1c1;fill-opacity:1" />
  <path
     fill="#66757F"
     d="m 10.543,7.7555283 c -0.055,-0.48 -0.374,-0.792 -0.729,-1.017 -0.485,-0.307 -1,-1.008 -1,-1.877 0,-1.104 0.671,-2.095 1.5,-2.095 0.829,0 1.5,0.905 1.5,1.905 h 1.996 c -0.021,-2 -1.575,-3.82099999 -3.496,-3.82099999 -1.934,0 -3.5,1.81899999 -3.5,4.00499999 0,1.853 1.045,3.371 2.569,3.926 0.76,0.276 1.224,-0.447 1.16,-1.026 z"
     id="path12"
     style="fill:#68ace1;fill-opacity:1" />
  <path
     fill="#292F33"
     d="m 15.836,9.4035278 c -0.702,0 -1.271,-0.6659995 -1.271,-1.4889995 0,-0.822 0.569,-1.489 1.271,-1.489 0.701,0 1.27,0.667 1.27,1.489 0,0.822 -0.569,1.4889995 -1.27,1.4889995 z"
     id="path14"
     style="fill:#c1c1c1;fill-opacity:1" />
  <path
     fill="#66757F"
     d="m 16.543,7.7555283 c -0.055,-0.48 -0.374,-0.792 -0.729,-1.017 -0.485,-0.307 -1,-1.008 -1,-1.877 0,-1.104 0.671,-2.095 1.5,-2.095 0.829,0 1.5,0.905 1.5,1.905 h 1.996 c -0.02,-2 -1.575,-3.82099999 -3.496,-3.82099999 -1.934,0 -3.5,1.81899999 -3.5,4.00499999 0,1.853 1.045,3.371 2.569,3.926 0.76,0.276 1.224,-0.447 1.16,-1.026 z"
     id="path16"
     style="fill:#68ace1;fill-opacity:1" />
  <path
     fill="#292F33"
     d="m 21.836,9.4035278 c -0.702,0 -1.271,-0.6659995 -1.271,-1.4889995 0,-0.822 0.569,-1.489 1.271,-1.489 0.701,0 1.271,0.667 1.271,1.489 -10e-4,0.822 -0.57,1.4889995 -1.271,1.4889995 z"
     id="path18"
     style="fill:#c1c1c1;fill-opacity:1" />
  <path
     fill="#66757F"
     d="m 22.543,7.7555283 c -0.055,-0.48 -0.374,-0.792 -0.728,-1.017 -0.485,-0.307 -1,-1.008 -1,-1.877 0,-1.104 0.671,-2.095 1.5,-2.095 0.829,0 1.5,0.905 1.5,1.905 h 1.996 c -0.02,-2 -1.575,-3.82099999 -3.496,-3.82099999 -1.934,0 -3.5,1.81899999 -3.5,4.00499999 0,1.853 1.045,3.371 2.569,3.926 0.759,0.276 1.223,-0.447 1.159,-1.026 z"
     id="path20"
     style="fill:#68ace1;fill-opacity:1" />
  <path
     fill="#292F33"
     d="m 27.836,9.4035278 c -0.702,0 -1.271,-0.6659995 -1.271,-1.4889995 0,-0.822 0.569,-1.489 1.271,-1.489 0.701,0 1.271,0.667 1.271,1.489 -10e-4,0.822 -0.57,1.4889995 -1.271,1.4889995 z"
     id="path22"
     style="fill:#c1c1c1;fill-opacity:1" />
  <path
     fill="#66757F"
     d="m 28.543,7.7555283 c -0.055,-0.48 -0.374,-0.792 -0.728,-1.017 -0.485,-0.307 -1,-1.008 -1,-1.877 0,-1.104 0.671,-2.095 1.5,-2.095 0.829,0 1.5,0.905 1.5,1.905 h 1.996 c -0.02,-2 -1.575,-3.82099999 -3.496,-3.82099999 -1.934,0 -3.5,1.81899999 -3.5,4.00499999 0,1.853 1.045,3.371 2.569,3.926 0.759,0.276 1.223,-0.447 1.159,-1.026 z"
     id="path24"
     style="fill:#68ace1;fill-opacity:1" />
</svg>
