<?xml version="1.0" encoding="UTF-8" standalone="no"?>
<!-- Created with Inkscape (http://www.inkscape.org/) -->

<svg
   xmlns:dc="http://purl.org/dc/elements/1.1/"
   xmlns:cc="http://creativecommons.org/ns#"
   xmlns:rdf="http://www.w3.org/1999/02/22-rdf-syntax-ns#"
   xmlns:svg="http://www.w3.org/2000/svg"
   xmlns="http://www.w3.org/2000/svg"
   xmlns:sodipodi="http://sodipodi.sourceforge.net/DTD/sodipodi-0.dtd"
   xmlns:inkscape="http://www.inkscape.org/namespaces/inkscape"
   width="48"
   height="48"
   viewBox="0 0 12.7 12.7"
   version="1.1"
   id="svg8"
   inkscape:version="0.92.2 2405546, 2018-03-11"
   sodipodi:docname="polibeepsync.svg">
  <defs
     id="defs2" />
  <sodipodi:namedview
     id="base"
     pagecolor="#ffffff"
     bordercolor="#666666"
     borderopacity="1.0"
     inkscape:pageopacity="0.0"
     inkscape:pageshadow="2"
     inkscape:zoom="8.0871259"
     inkscape:cx="22.283935"
     inkscape:cy="25.637954"
     inkscape:document-units="mm"
     inkscape:current-layer="layer1"
     showgrid="false"
     units="px"
     inkscape:window-width="2560"
     inkscape:window-height="1311"
     inkscape:window-x="0"
     inkscape:window-y="55"
     inkscape:window-maximized="1" />
  <metadata
     id="metadata5">
    <rdf:RDF>
      <cc:Work
         rdf:about="">
        <dc:format>image/svg+xml</dc:format>
        <dc:type
           rdf:resource="http://purl.org/dc/dcmitype/StillImage" />
        <dc:title></dc:title>
      </cc:Work>
    </rdf:RDF>
  </metadata>
  <g
     inkscape:label="Layer 1"
     inkscape:groupmode="layer"
     id="layer1"
     transform="translate(0,-284.29998)">
    <g
       id="g4549"
       transform="matrix(2.7456451,0,0,2.7456451,-433.69559,-199.06116)">
      <path
         inkscape:connector-curvature="0"
         id="circle3734"
         transform="scale(0.26458333)"
         d="m 607.78711,666.39258 a 5.6571394,5.6571394 0 0 0 -5.6582,5.6582 5.6571394,5.6571394 0 0 0 5.6582,5.65625 5.6571394,5.6571394 0 0 0 5.65625,-5.65625 5.6571394,5.6571394 0 0 0 -5.65625,-5.6582 z m 0,2.04101 a 3.6168597,3.6168597 0 0 1 3.61719,3.61719 3.6168597,3.6168597 0 0 1 -3.61719,3.61719 3.6168597,3.6168597 0 0 1 -3.61719,-3.61719 3.6168597,3.6168597 0 0 1 3.61719,-3.61719 z"
         style="opacity:1;fill:#80c1c2;fill-opacity:1;fill-rule:nonzero;stroke:none;stroke-width:0;stroke-linecap:round;stroke-miterlimit:4;stroke-dasharray:none;stroke-opacity:1" />
      <path
         inkscape:connector-curvature="0"
         id="path3728"
         d="m 159.69795,179.67006 a 0.73203415,0.73203415 0 0 1 -0.73204,0.73203 0.73203415,0.73203415 0 0 1 -0.73203,-0.73203 0.73203415,0.73203415 0 0 1 0.73203,-0.73203 0.73203415,0.73203415 0 0 1 0.73204,0.73203 z"
         style="opacity:1;fill:#e47358;fill-opacity:1;fill-rule:nonzero;stroke:none;stroke-width:0;stroke-linecap:round;stroke-miterlimit:4;stroke-dasharray:none;stroke-opacity:1" />
      <path
         inkscape:connector-curvature="0"
         id="path3730"
         d="m 161.3215,177.81339 a 0.51119703,0.51119703 0 0 1 -0.5112,0.51119 0.51119703,0.51119703 0 0 1 -0.51119,-0.51119 0.51119703,0.51119703 0 0 1 0.51119,-0.5112 0.51119703,0.51119703 0 0 1 0.5112,0.5112 z"
         style="opacity:1;fill:#80c1c2;fill-opacity:1;fill-rule:nonzero;stroke:none;stroke-width:0;stroke-linecap:round;stroke-miterlimit:4;stroke-dasharray:none;stroke-opacity:1" />
    </g>
  </g>
</svg>
