/* XPM */
static const char *const main_icon_0[] = {
/* columns rows colors chars-per-pixel */
"16 16 8 1",
"  c #000000",
". c #FFFF00",
"X c #000080",
"o c #0000FF",
"O c #808080",
"+ c #C0C0C0",
"@ c #FFFFFF",
"# c None",
/* pixels */
"#######       ##",
"###### @@@@@+O #",
"###### @ooXX+O #",
"###### @oX.X+O #",
"###### OX.Xo+O #",
"###### ..OO++O #",
"##    ..... OOO ",
"# @O..... OOOOO ",
"# @oXX..  OOOO #",
"# @oX.XOO     ##",
"# @X.Xo+O ######",
"# +OO+++O ######",
"# OOOOOOOO #####",
" @@@@@OOOO #####",
" +OOOOOOO ######",
"#        #######"
};

/* XPM */
static const char *const main_icon_1[] = {
/* columns rows colors chars-per-pixel */
"32 32 8 1",
"  c #000000",
". c #FFFF00",
"X c #000080",
"o c #0000FF",
"O c #808080",
"+ c #C0C0C0",
"@ c #FFFFFF",
"# c None",
/* pixels */
"################            ####",
"############### +++++++++++O ###",
"############## @@@@@@@@@@+OO ###",
"############## @XXXXXXXXX+OO ###",
"############## @Xoooooooo+OO ###",
"############## @Xoooo  oo+OO ###",
"############## @Xooo . oo+OO ###",
"############## @Xo  . ooo+OO ###",
"############## @X .. oooo+OO ###",
"############## @ .. ooooo+OO ###",
"##############  .. @@@@@@+OO   #",
"############# ... OOOOOOOOO +@O ",
"############ ...           +@OO ",
"##########  ......... @@@@@@+OO ",
"#####     .........  +++++++OOO ",
"#### +++++     ... ++O    O+OO #",
"### @@@@@@@@@ ... OOOOOOOOOOO ##",
"### @XXXXXXX ..              ###",
"### @Xooooo .. OO ##############",
"### @Xoooo .. +OO ##############",
"### @Xooo .  o+OO ##############",
"### @Xoo . ooo+OO ##############",
"### @Xoo  oooo+OO ##############",
"### @Xoooooooo+OO ##############",
"### @@@@@@@@@@+OO   ############",
"##  +OOOOOOOOOOO +@O ###########",
"# +             +@OO ###########",
" @@@@@@@@@@@@@@@@+OO ###########",
" @+++++++++++++++OOO ###########",
" @++++++++O    O+OO ############",
" +OOOOOOOOOOOOOOOO #############",
"#                 ##############"
};

/* XPM */
static const char *const main_icon_2[] = {
/* columns rows colors chars-per-pixel */
"48 48 8 1",
"  c #000000",
". c #FFFF00",
"X c #000080",
"o c #0000FF",
"O c #808080",
"+ c #C0C0C0",
"@ c #FFFFFF",
"# c None",
/* pixels */
"#########################                  #####",
"######################## +++++++++++++++++O ####",
"####################### +++++++++++++++++OO ####",
"###################### @@@@@@@@@@@@@@@@+OOO ####",
"###################### @OOOOOOOOOOOOOO+OOOO ####",
"###################### @OXXXXXXXXXXXXX@OOOO ####",
"###################### @OXoooooooooooo@OOOO ####",
"###################### @OXoooooooooooo@OOOO ####",
"###################### @OXooooooo  ooo@OOOO ####",
"###################### @OXoooooo . ooo@OOOO ####",
"###################### @OXooooo . oooo@OOOO ####",
"###################### @OXooo  . ooooo@OOOO ####",
"###################### @OXoo .. oooooo@OOOO ####",
"###################### @OXo .. ooooooo@OOOO ####",
"###################### @+  .. @@@@@@@@@OOOO    #",
"#####################  @ ... ++++++++++OOO +@@O ",
"#################### +  ..  OOOOOOOOOOOOO +@@OO ",
"################### +  ..                +@@OOO ",
"################## @ ...       @@@@@@@@@@@@+OOO ",
"##################  ........... @@@@@@@@@@+OOOO ",
"################## ..........  ++O       +OOOO #",
"################  .......... OOOOOOOOOOOOOOOO ##",
"############### ........... OOOOOOOOOOOOOOOO ###",
"################       ...                  ####",
"#######               ..  ######################",
"###### ++++++++++++  .. O ######################",
"##### ++++++++++++ ... OO ######################",
"#### @@@@@@@@@@@@ ..  OOO ######################",
"#### @OOOOOOOOOO .. +OOOO ######################",
"#### @OXXXXXXXX .. X@OOOO ######################",
"#### @OXoooooo .  oo@OOOO ######################",
"#### @OXooooo . oooo@OOOO ######################",
"#### @OXoooo . ooooo@OOOO ######################",
"#### @OXoooo  oooooo@OOOO ######################",
"#### @OXoooooooooooo@OOOO ######################",
"#### @OXoooooooooooo@OOOO ######################",
"#### @OXoooooooooooo@OOOO ######################",
"#### @OXoooooooooooo@OOOO ######################",
"#### @+@@@@@@@@@@@@@@OOOO    ###################",
"###  @+++++++++++++++OOO +@@O ##################",
"## + +OOOOOOOOOOOOOOOOO +@@OO ##################",
"# ++                   +@@OOO ##################",
" @@@@@@@@@@@@@@@@@@@@@@@@+OOO ##################",
" @@@@@@@@@@@@@@@@@@@@@@@+OOOO ##################",
" @@++++++++++++O       +OOOO ###################",
" ++OOOOOOOOOOOOOOOOOOOOOOOO ####################",
" ++OOOOOOOOOOOOOOOOOOOOOOO #####################",
"#                         ######################"
};

const char *const *const main_icon[] = {
    main_icon_0,
    main_icon_1,
    main_icon_2,
};
const int n_main_icon = 3;
