/* XPM */
static char * guitune_logo_xpm[]={
"32 32 16 1",
"f c #808080",
"k c #ffa858",
"g c #a0a0a0",
"e c #c3c3c3",
"b c #00ff00",
". c None",
"i c #c05800",
"# c #000000",
"j c #ff8000",
"m c #400000",
"n c #800000",
"l c #ffdca8",
"d c #585858",
"a c #ffffff",
"c c #ff0000",
"h c #00c0c0",
"................................",
"................................",
"................................",
"................................",
".....................#######....",
"#################..##aaaaaaa##..",
"##b#####b#####b####aaabbbbbaaa##",
"##b#####b#####b###aaccbbbddccaa#",
"#b#b###b#b###b#b#.#accaaadacca#.",
"#b#b###b#b###b#b#.#aaaaaedaaaa#.",
"#b#b###b#b###b#b#..#aaaafgaaa#..",
"hhhbhhbhhbhhbhhbh###aaaadgaaa#..",
"####b#b###b#b####iii#a#####a#...",
"####b#b###b#b####iji##iiii###...",
"####b#b###b#b####ijiiiijjii#....",
"#####b#####b########jjjjjji#....",
"#####b#####b######k#kikjkii#####",
"#################l#l#ljlklmlmlml",
"#iijijjjnmmjlil#l#l#l#lilnlnlnln",
"#iiijjjjnmmlilil#l#l#lilklnlnlnl",
"#iijjjjjnmmjlil#k#k#k#kjkii#####",
"#iiijjjjjmmjkkki#####ijjjji#....",
"#iijjjjjjmmjjjjki###ijjjjji#....",
".#iijjjjjmmjjjjjiiiijjjjjji#....",
".#ijijjjjjjjjjjjjjjjjjjjjj#.....",
".#iiijjjjjjjjjjjjjjjjjjjji#.....",
"..#ijijjjjjjjjjji###jjjjii#.....",
"...#iiijjjjijjii#nnn#iiin#......",
"....##iijjijji##.....####.......",
"......########..................",
"................................",
"................................"};
