<?xml version="1.0" encoding="UTF-8" standalone="no"?>
<!-- Created with Inkscape (http://www.inkscape.org/) -->

<svg
   xmlns:dc="http://purl.org/dc/elements/1.1/"
   xmlns:cc="http://creativecommons.org/ns#"
   xmlns:rdf="http://www.w3.org/1999/02/22-rdf-syntax-ns#"
   xmlns:svg="http://www.w3.org/2000/svg"
   xmlns="http://www.w3.org/2000/svg"
   xmlns:xlink="http://www.w3.org/1999/xlink"
   xmlns:sodipodi="http://sodipodi.sourceforge.net/DTD/sodipodi-0.dtd"
   xmlns:inkscape="http://www.inkscape.org/namespaces/inkscape"
   width="687.5"
   height="687.5"
   id="svg2"
   version="1.1"
   inkscape:version="0.48.1 r9760"
   sodipodi:docname="qvim.svg">
  <defs
     id="defs4">
    <inkscape:perspective
       sodipodi:type="inkscape:persp3d"
       inkscape:vp_x="1908.7451 : 2659.3422 : 1"
       inkscape:vp_y="21.75477 : -999.76334 : 0"
       inkscape:vp_z="-1331.2984 : 929.66577 : 1"
       inkscape:persp3d-origin="-307.9493 : 1636.999 : 1"
       id="perspective3059" />
    <inkscape:perspective
       sodipodi:type="inkscape:persp3d"
       inkscape:vp_x="1565.888 : 2065.0565 : 1"
       inkscape:vp_y="21.75477 : -999.76334 : 0"
       inkscape:vp_z="-1382.7269 : 803.95147 : 1"
       inkscape:persp3d-origin="-650.80644 : 1042.7133 : 1"
       id="perspective3015" />
    <linearGradient
       gradientUnits="userSpaceOnUse"
       gradientTransform="scale(0.99430811,1.0057245)"
       xlink:href="#linearGradient854"
       id="linearGradient857"
       x1="279.12204"
       y1="547.95782"
       x2="275.03989"
       y2="543.9057" />
    <linearGradient
       id="linearGradient854">
      <stop
         style="stop-color:#000000;stop-opacity:1.0000000;"
         offset="0.0000000"
         id="stop855" />
      <stop
         style="stop-color:#f5f5f5;stop-opacity:1.0000000;"
         offset="0.87778628"
         id="stop877" />
      <stop
         style="stop-color:#fff;stop-opacity:1;"
         offset="1"
         id="stop856" />
    </linearGradient>
    <linearGradient
       gradientUnits="userSpaceOnUse"
       gradientTransform="scale(0.36202645,2.7622291)"
       xlink:href="#linearGradient854"
       id="linearGradient863"
       x1="737.87024"
       y1="197.2177"
       x2="723.66583"
       y2="197.2661" />
    <linearGradient
       id="linearGradient4120">
      <stop
         style="stop-color:#000000;stop-opacity:1.0000000;"
         offset="0.0000000"
         id="stop4122" />
      <stop
         style="stop-color:#f5f5f5;stop-opacity:1.0000000;"
         offset="0.87778628"
         id="stop4124" />
      <stop
         style="stop-color:#fff;stop-opacity:1;"
         offset="1"
         id="stop4126" />
    </linearGradient>
    <linearGradient
       gradientUnits="userSpaceOnUse"
       gradientTransform="scale(1.0791131,0.92668693)"
       xlink:href="#linearGradient854"
       id="linearGradient875"
       x1="247.91669"
       y1="577.09601"
       x2="247.84926"
       y2="571.18286" />
    <linearGradient
       id="linearGradient4129">
      <stop
         style="stop-color:#000000;stop-opacity:1.0000000;"
         offset="0.0000000"
         id="stop4131" />
      <stop
         style="stop-color:#f5f5f5;stop-opacity:1.0000000;"
         offset="0.87778628"
         id="stop4133" />
      <stop
         style="stop-color:#fff;stop-opacity:1;"
         offset="1"
         id="stop4135" />
    </linearGradient>
    <linearGradient
       gradientUnits="userSpaceOnUse"
       gradientTransform="scale(0.87258438,1.146021)"
       xlink:href="#linearGradient854"
       id="linearGradient904"
       x1="432.77563"
       y1="444.33771"
       x2="431.5174"
       y2="448.10916" />
    <linearGradient
       id="linearGradient4138">
      <stop
         style="stop-color:#000000;stop-opacity:1.0000000;"
         offset="0.0000000"
         id="stop4140" />
      <stop
         style="stop-color:#f5f5f5;stop-opacity:1.0000000;"
         offset="0.87778628"
         id="stop4142" />
      <stop
         style="stop-color:#fff;stop-opacity:1;"
         offset="1"
         id="stop4144" />
    </linearGradient>
    <linearGradient
       gradientUnits="userSpaceOnUse"
       gradientTransform="scale(1.4389649,0.69494398)"
       xlink:href="#linearGradient854"
       id="linearGradient881"
       x1="196.80382"
       y1="764.65295"
       x2="192.15778"
       y2="763.52991" />
    <linearGradient
       id="linearGradient4147">
      <stop
         style="stop-color:#000000;stop-opacity:1.0000000;"
         offset="0.0000000"
         id="stop4149" />
      <stop
         style="stop-color:#f5f5f5;stop-opacity:1.0000000;"
         offset="0.87778628"
         id="stop4151" />
      <stop
         style="stop-color:#fff;stop-opacity:1;"
         offset="1"
         id="stop4153" />
    </linearGradient>
    <linearGradient
       gradientUnits="userSpaceOnUse"
       gradientTransform="scale(1.3075687,0.76477816)"
       xlink:href="#linearGradient854"
       id="linearGradient907"
       x1="195.59776"
       y1="696.40906"
       x2="193.063"
       y2="694.71436" />
    <linearGradient
       id="linearGradient4156">
      <stop
         style="stop-color:#000000;stop-opacity:1.0000000;"
         offset="0.0000000"
         id="stop4158" />
      <stop
         style="stop-color:#f5f5f5;stop-opacity:1.0000000;"
         offset="0.87778628"
         id="stop4160" />
      <stop
         style="stop-color:#fff;stop-opacity:1;"
         offset="1"
         id="stop4162" />
    </linearGradient>
    <linearGradient
       gradientUnits="userSpaceOnUse"
       gradientTransform="scale(0.50060994,1.9975632)"
       xlink:href="#linearGradient854"
       id="linearGradient908"
       x1="508.58997"
       y1="267.27991"
       x2="508.45602"
       y2="269.14072" />
    <linearGradient
       id="linearGradient4165">
      <stop
         style="stop-color:#000000;stop-opacity:1.0000000;"
         offset="0.0000000"
         id="stop4167" />
      <stop
         style="stop-color:#f5f5f5;stop-opacity:1.0000000;"
         offset="0.87778628"
         id="stop4169" />
      <stop
         style="stop-color:#fff;stop-opacity:1;"
         offset="1"
         id="stop4171" />
    </linearGradient>
  </defs>
  <sodipodi:namedview
     id="base"
     pagecolor="#ffffff"
     bordercolor="#666666"
     borderopacity="1.0"
     inkscape:pageopacity="0.0"
     inkscape:pageshadow="2"
     inkscape:zoom="0.49497476"
     inkscape:cx="556.77646"
     inkscape:cy="429.67391"
     inkscape:document-units="px"
     inkscape:current-layer="layer1"
     showgrid="false"
     objecttolerance="10000"
     guidetolerance="10000"
     inkscape:window-width="1280"
     inkscape:window-height="755"
     inkscape:window-x="0"
     inkscape:window-y="26"
     inkscape:window-maximized="1"
     fit-margin-top="0"
     fit-margin-left="0"
     fit-margin-right="0"
     fit-margin-bottom="0"
     inkscape:snap-center="true" />
  <metadata
     id="metadata7">
    <rdf:RDF>
      <cc:Work
         rdf:about="">
        <dc:format>image/svg+xml</dc:format>
        <dc:type
           rdf:resource="http://purl.org/dc/dcmitype/StillImage" />
        <dc:title />
        <cc:license
           rdf:resource="http://www.gnu.org/licenses/gpl.html" />
        <dc:date>2011-06-27</dc:date>
        <dc:creator>
          <cc:Agent>
            <dc:title>Jekyll Wu &lt;adaptee@gmail.com&gt;</dc:title>
          </cc:Agent>
        </dc:creator>
      </cc:Work>
    </rdf:RDF>
  </metadata>
  <g
     inkscape:label="Layer 1"
     inkscape:groupmode="layer"
     id="layer1"
     transform="translate(-15.534375,-237.4466)">
    <g
       id="g3941"
       transform="matrix(0.3409032,0,0,0.45802184,771.42709,1514.9324)">
      <path
         id="path3914"
         d="m -1776.7188,-2728.6875 c -179.6485,-1.3736 -220.6273,202.1774 -228.0312,252.625 l 0,1083.9687 147.0938,83.7188 -0.625,1.625 1199.9062,-184.4375 -0.46875,-0.031 c 4.01259,-0.3442 7.87011,-1.531 11.21875,-2.9062 0.17413,-0.082 0.18899,-0.07 0.5,-0.2188 1.61077,-0.7762 5.01961,-2.4991 9.59375,-5.1874 0.55337,-0.3833 0.90625,-0.6876 0.90625,-0.6876 l -0.15625,0.2188 c 24.88772,-14.8067 81.95369,-57.1392 83.40625,-134.9688 l 0,125.5313 -0.4375,0.063 -0.25,2.125 0.71875,-0.094 0,-1091.8437 -1181.93745,-129.0625 -25.0626,-0.2812 6.2188,1.0937 c -7.7681,-0.7572 -15.291,-1.1631 -22.5938,-1.2187 l 0,-0.031 z"
         style="fill:#024c1c;fill-opacity:1;stroke-width:10;stroke-miterlimit:4"
         inkscape:connector-curvature="0" />
      <path
         id="rect3092"
         d="m -1633.5938,-2714.5312 c -176.1165,-1.3372 -216.304,196.7993 -223.5624,245.9062 l 0,1160.125 1319.9062,-201.4375 -0.4375,-0.031 c 3.9337,-0.3352 7.7172,-1.4738 11,-2.8124 0.1707,-0.079 0.16385,-0.073 0.46875,-0.2188 1.5791,-0.7556 4.92205,-2.4458 9.40625,-5.0625 0.5425,-0.3732 0.90625,-0.6563 0.90625,-0.6563 l -0.15625,0.2188 c 24.3984,-14.4133 80.326,-55.6449 81.75,-131.4062 l 0,122.2187 -0.40625,0.063 -0.25,2.0625 0.6875,-0.094 0,-1062.8438 -1158.68755,-125.625 -24.5624,-0.2812 6.0937,1.0624 c -7.6154,-0.7369 -14.997,-1.1331 -22.1563,-1.1874 z"
         style="fill:#5ba62d;fill-opacity:1;stroke-width:10;stroke-miterlimit:4"
         inkscape:connector-curvature="0" />
    </g>
    <g
       transform="matrix(0.60000314,0,0,0.58874734,169.76346,388.09267)"
       id="g4077">
      <rect
         transform="matrix(9.658169,9.658169,-9.658169,9.658169,-4673.626,-6841.97)"
         y="94.686943"
         x="614.47168"
         height="34.897972"
         width="34.897995"
         id="rect830"
         style="fill-rule:evenodd;stroke:#000000;stroke-width:0" />
      <rect
         transform="matrix(9.22721,9.22721,-9.22721,9.22721,2203.223,-7269.031)"
         y="495.15979"
         x="293.94159"
         height="35.989174"
         width="35.989174"
         id="rect827"
         style="fill:#00ff00;fill-rule:evenodd;stroke:#000000;stroke-width:0" />
      <path
         inkscape:connector-curvature="0"
         transform="matrix(13.65871,0,0,13.65871,-4673.626,-6841.97)"
         sodipodi:nodetypes="cccc"
         id="path829"
         d="m 391.86311,526.1426 -24.32894,24.34675 -24.31082,-24.33601 48.63976,-0.0107 z"
         style="fill:#000084;fill-rule:evenodd;stroke:#000000;stroke-width:0" />
      <rect
         transform="matrix(9.22721,9.22721,-9.22721,9.22721,2203.223,-7269.031)"
         y="496.32944"
         x="295.11124"
         height="33.649876"
         width="33.649876"
         id="rect826"
         style="fill:#008200;fill-rule:evenodd;stroke:#000000;stroke-width:0" />
      <path
         inkscape:connector-curvature="0"
         transform="matrix(13.65871,0,0,13.65871,-3345.564,-7154.425)"
         sodipodi:nodetypes="ccccccccccccccccccccccc"
         id="path844"
         d="m 258.65018,568.44721 c 0.64383,-0.0467 1.22404,-0.50696 1.70882,-0.99902 l 32.12033,-33.11004 c 0.55439,-0.56619 0.94973,-1.06876 0.89973,-1.88943 l 0,-1.89582 c 0.01,-1.78678 -0.32985,-2.23753 -2.06938,-2.24294 l -13.67588,0 c -1.35417,0.0163 -2.26299,0.92333 -2.24932,2.3393 l 0.0263,1.63043 c 0.099,1.60865 1.59768,2.00851 3.03272,2.05846 l -12.05637,11.9664 0,-12.23632 c 1.10515,0.0382 1.924,-0.59161 1.97941,-1.88943 l -0.005,-1.68313 c -0.0745,-1.61047 -0.81698,-2.04396 -2.51379,-2.09573 l -13.13604,0.09 c -1.38416,0.11357 -2.22755,0.57705 -2.40292,2.1857 l -0.0264,1.1433 c 0.0799,1.60319 0.66884,2.44294 2.33929,2.51924 l 0.68798,0.0263 0.0318,32.00401 c 0.14538,1.23057 0.86334,2.0476 2.24932,2.06938 l 3.05975,0.009 z"
         style="fill:#ffffff;fill-rule:evenodd;stroke:#000000;stroke-width:0.5" />
      <path
         inkscape:connector-curvature="0"
         sodipodi:nodetypes="ccccccccc"
         transform="matrix(13.65871,0,0,13.65871,-3345.564,-7154.425)"
         id="path853"
         d="m 292.50076,528.68029 -38.45115,38.71638 c 0.37202,0.44746 0.75894,0.8292 1.53676,0.84142 l 3.04769,0.0311 c 0.64072,-0.0465 1.19691,-0.50548 1.67934,-0.99516 l 31.96967,-32.96484 c 0.5517,-0.56343 0.95163,-1.04923 0.90187,-1.86593 l 0,-1.89703 c 0.006,-1.05467 -0.22712,-1.56181 -0.68418,-1.86594 z"
         style="fill:url(#linearGradient857);fill-opacity:0.75;fill-rule:evenodd;stroke-width:0.375" />
      <path
         inkscape:connector-curvature="0"
         transform="matrix(13.65871,0,0,13.65871,-3345.564,-7154.425)"
         sodipodi:nodetypes="ccccc"
         id="path865"
         d="m 263.92754,551.31147 2.32302,-4.58961 -0.0636,-12.85302 -2.31944,-0.73975 0.06,18.18238 z"
         style="fill:url(#linearGradient863);fill-opacity:0.75;fill-rule:evenodd;stroke-width:0.375" />
      <path
         inkscape:connector-curvature="0"
         transform="matrix(13.65871,0,0,13.65871,-3345.564,-7154.425)"
         id="path874"
         d="m 267.61568,528.97892 -5.1796,3.6651 3.87713,1.30247 0.0303,0 c 1.05465,0.0236 1.82481,-0.60254 1.87798,-1.84769 l 0,-1.63566 c -0.0341,-0.73659 -0.25425,-1.17467 -0.6058,-1.48422 z"
         style="fill:url(#linearGradient875);fill-opacity:0.75;fill-rule:evenodd;stroke-width:0.25" />
      <path
         inkscape:connector-curvature="0"
         transform="matrix(13.65871,0,0,13.65871,-4673.626,-6841.97)"
         id="path903"
         d="m 380.73325,507.58317 -1.09375,0.6875 0.8125,0.3125 0.28125,-1 z m -0.28125,1 -3.5,2.125 c -0.27222,-0.0196 -0.57352,-0.11125 -0.875,-0.15625 l -0.21875,0.15625 c 0.2597,0.0384 0.48545,0.14704 0.75,0.15625 l -2.65625,2.625 4.375,3 2.125,-7.90625 z"
         style="fill:url(#linearGradient904);fill-opacity:0.75;fill-rule:evenodd;stroke-width:0.125" />
      <path
         inkscape:connector-curvature="0"
         transform="matrix(13.65871,0,0,13.65871,-3345.564,-7154.425)"
         sodipodi:nodetypes="ccccc"
         id="path880"
         d="m 279.29593,530.98891 -3.62332,1.62444 c 0.26249,1.21469 1.4957,1.5041 3.1334,1.59207 l 3.52677,-2.14517 -3.03685,-1.07134 z"
         style="fill:url(#linearGradient881);fill-opacity:0.75;fill-rule:evenodd;stroke-width:0.375" />
      <path
         inkscape:connector-curvature="0"
         transform="matrix(13.65871,0,0,13.65871,-3345.564,-7154.425)"
         sodipodi:nodetypes="ccccc"
         id="path905"
         d="m 254.10688,531.0703 -3.49608,1.56082 c 0.26249,1.21469 0.98674,1.56772 2.87892,1.56026 l 3.39953,-3.67206 -2.78237,0.55098 z"
         style="fill:url(#linearGradient907);fill-opacity:0.75;fill-rule:evenodd;stroke-width:0.375" />
      <path
         inkscape:connector-curvature="0"
         transform="matrix(13.65871,0,0,13.65871,-3345.564,-7154.425)"
         sodipodi:nodetypes="cccsc"
         id="path906"
         d="m 255.58681,531.64464 -2.14728,2.59318 0.11205,2.52323 c -0.0244,0.3477 0.53169,4.79521 1.04773,3.03848 0.51604,-1.75674 0.63507,-8.34805 0.9875,-8.15489 z"
         style="fill:url(#linearGradient908);fill-opacity:0.75;fill-rule:evenodd;stroke-width:0.125" />
      <path
         inkscape:connector-curvature="0"
         transform="matrix(13.65871,0,0,13.65871,-3345.564,-7154.425)"
         sodipodi:nodetypes="ccccccccccccccccccccccccccc"
         id="path846"
         d="m 257.55115,567.38333 c 0.36992,-0.0326 0.87037,-0.48958 1.30556,-0.97916 l 31.77682,-32.30568 c 0.34815,-0.38079 0.72729,-0.82271 0.71641,-1.2035 l -0.0636,-2.5846 c 0,-0.33727 -0.26028,-0.58076 -0.68459,-0.559 l -12.92339,-0.0302 c -0.55486,-0.0218 -1.04445,0.3155 -0.97917,0.91388 l 0,1.35261 c 0.0218,0.81774 0.65206,0.93565 1.09813,0.91388 l 1.57495,0.002 c 0.41343,0.17408 0.57072,0.41591 0.59248,0.91638 -0.0511,1.03036 -0.0728,1.01264 -1.05719,2.00788 l -14.84184,15.25784 -0.0636,-17.864 1.71215,0 c 0.31551,-0.0326 0.72562,-0.38669 0.78002,-0.77836 l 0,-2.00704 c -0.0109,-0.38079 -0.25024,-0.66365 -0.71805,-0.65277 l -13.40553,0 c -0.48958,-0.0218 -0.81596,0.41343 -0.78333,0.91388 l -0.0318,1.48648 c -0.002,0.50047 0.3582,0.89722 0.81514,0.94073 l 2.11243,0 -0.0326,33.60627 c -0.0326,0.34815 0.0326,0.5331 0.29375,0.65278 l 2.80695,-1e-5 z"
         style="fill:#c6c3c6;fill-rule:evenodd;stroke-width:0.25" />
      <g
         style="fill:#575757"
         transform="matrix(13.65871,0,0,13.65871,-4672.139,-6838.184)"
         id="g1043">
        <path
           transform="matrix(1.05359,0,0,1.05359,-34.64671,-9.32383)"
           d="m 385.80394,513.51428 c 0,1.24227 -0.9265,2.24933 -2.06938,2.24933 -1.14289,0 -2.06938,-1.00706 -2.06938,-2.24933 0,-1.24226 0.92649,-2.24932 2.06938,-2.24932 1.14288,0 2.06938,1.00706 2.06938,2.24932 z"
           sodipodi:ry="2.2493234"
           sodipodi:rx="2.0693774"
           sodipodi:cy="513.51428"
           sodipodi:cx="383.73456"
           id="path1044"
           style="fill:#575757;fill-opacity:1;fill-rule:evenodd;stroke:none"
           sodipodi:type="arc" />
        <path
           inkscape:connector-curvature="0"
           transform="translate(46.57018,-30.91955)"
           sodipodi:nodetypes="cccccccccc"
           id="path1045"
           d="m 316.99474,575.20102 c 3.66639,-6.658 3.12656,-7.22032 3.10406,-7.9626 -0.0525,-0.9897 0.16495,-1.37209 1.25962,-1.3496 l 1.6645,-0.045 c 1.0122,-0.045 1.3496,0.3149 1.07968,1.07967 -0.43211,1.1664 -3.69534,6.46812 -3.07771,7.53909 l 0.65616,0.81748 c 0.27675,0.58074 -0.36899,1.41597 -0.72844,1.42413 l -3.10313,0.0263 c -0.75727,0.008 -1.19964,-0.77227 -0.85474,-1.52954 z"
           style="fill:#575757;fill-opacity:1;fill-rule:evenodd;stroke:none" />
        <path
           inkscape:connector-curvature="0"
           transform="translate(46.57018,-30.91955)"
           sodipodi:nodetypes="ccccccccccccccccccccccccccccccccccc"
           id="path1046"
           d="m 329.57316,565.57076 c -1.14371,-0.20702 -2.30993,-0.14412 -3.36367,-0.0137 -0.41237,-0.03 -0.57372,0.63885 -0.42376,1.10371 l 0.4375,0.875 c 0.0564,0.70593 0.41024,1.4494 -3.09375,7.8125 -0.3449,0.75727 0.11772,1.53875 0.875,1.53125 l 3.09375,-0.0313 c 0.35945,-0.008 0.99549,-0.82549 0.71875,-1.40625 l -0.65625,-0.8125 c -0.29839,-0.51741 0.33738,-2.04478 1.09375,-3.59375 1.09347,-1.43571 2.35599,-1.51696 3.15625,-1.53125 0.2387,0.0545 0.33558,0.32821 0.40625,0.625 -0.40459,1.11037 -0.92359,2.4128 -2.46875,5.21875 -0.3449,0.75727 0.0865,1.53875 0.84375,1.53125 l 3.125,-0.0313 c 0.35945,-0.008 0.9955,-0.82549 0.71875,-1.40625 l -0.65625,-0.8125 c -0.30271,-0.52491 0.35344,-2.08372 1.125,-3.65625 1.01122,-1.4492 2.23619,-1.46875 3,-1.46875 0.30491,0.0938 0.37486,0.47886 0.375,0.875 -0.42219,1.11415 -0.84281,2.29988 -2.3125,4.96875 -0.3449,0.75727 0.0865,1.53876 0.84375,1.53125 l 3.09375,-0.0313 c 0.35945,-0.008 1.02676,-0.82548 0.75,-1.40625 l -0.65625,-0.8125 c -0.61763,-1.07097 1.86561,-4.19173 2.59014,-6.14543 0.44987,-1.39458 -1.09375,-2.61453 -1.94849,-2.88445 l -2.35354,-0.0362 c -0.42449,0.0968 -0.51339,0.34137 -0.63015,0.78623 l -1.61023,-0.0137 c 0.0317,-0.41179 -0.0757,-0.68377 -0.37895,-0.71377 l -2.466,-0.0362 c -0.79551,-0.0163 -0.71683,0.26976 -0.81886,0.75875 l -2.40143,10e-4 c 0.13244,-0.2583 0.12992,-0.60658 -0.008,-0.7749 z"
           style="fill:#575757;fill-opacity:1;fill-rule:evenodd;stroke:none" />
      </g>
      <path
         inkscape:connector-curvature="0"
         transform="matrix(13.65871,0,0,13.65871,-4041.013,-7266.029)"
         sodipodi:nodetypes="ccccccccccccccccccccccccccccccccccc"
         id="path960"
         d="m 329.57316,565.57076 c -1.14371,-0.20702 -2.30993,-0.14412 -3.36367,-0.0137 -0.41237,-0.03 -0.57372,0.63885 -0.42376,1.10371 l 0.4375,0.875 c 0.0564,0.70593 0.41024,1.4494 -3.09375,7.8125 -0.3449,0.75727 0.11772,1.53875 0.875,1.53125 l 3.09375,-0.0313 c 0.35945,-0.008 0.99549,-0.82549 0.71875,-1.40625 l -0.65625,-0.8125 c -0.29839,-0.51741 0.33738,-2.04478 1.09375,-3.59375 1.09347,-1.43571 2.35599,-1.51696 3.15625,-1.53125 0.2387,0.0545 0.33558,0.32821 0.40625,0.625 -0.40459,1.11037 -0.92359,2.4128 -2.46875,5.21875 -0.3449,0.75727 0.0865,1.53875 0.84375,1.53125 l 3.125,-0.0313 c 0.35945,-0.008 0.9955,-0.82549 0.71875,-1.40625 l -0.65625,-0.8125 c -0.30271,-0.52491 0.35344,-2.08372 1.125,-3.65625 1.01122,-1.4492 2.23619,-1.46875 3,-1.46875 0.30491,0.0938 0.37486,0.47886 0.375,0.875 -0.42219,1.11415 -0.84281,2.29988 -2.3125,4.96875 -0.3449,0.75727 0.0865,1.53876 0.84375,1.53125 l 3.09375,-0.0313 c 0.35945,-0.008 1.02676,-0.82548 0.75,-1.40625 l -0.65625,-0.8125 c -0.61763,-1.07097 1.86561,-4.19173 2.59014,-6.14543 0.44987,-1.39458 -1.09375,-2.61453 -1.94849,-2.88445 l -2.35354,-0.0362 c -0.42449,0.0968 -0.51339,0.34137 -0.63015,0.78623 l -1.61023,-0.0137 c 0.0317,-0.41179 -0.0757,-0.68377 -0.37895,-0.71377 l -2.466,-0.0362 c -0.79551,-0.0163 -0.71683,0.26976 -0.81886,0.75875 l -2.40143,10e-4 c 0.13244,-0.2583 0.12992,-0.60658 -0.008,-0.7749 z"
         style="fill:#c6c3c6;fill-rule:evenodd;stroke:none" />
      <path
         inkscape:connector-curvature="0"
         sodipodi:nodetypes="cccccccccccccccccccccccccccccccccccccc"
         id="path934"
         d="m 437.6995,457.10784 c -7.73406,0.0839 -15.30364,0.73459 -22.5,1.625 -5.63244,-0.40922 -7.82951,8.71311 -5.78125,15.0625 l 5.96875,11.96875 c 0.7709,9.64209 5.60998,19.77576 -42.25,106.6875 -3.51348,7.71429 -2.29046,13.7835 1.72442,20.01177 4.46539,3.45347 9.68035,6.48022 15.18183,6.42573 l 42.25,-0.40625 c 4.90962,-0.11146 13.59241,-11.28632 9.8125,-19.21875 L 433.137,588.17034 c -4.07562,-7.06715 4.60646,-27.93682 14.9375,-49.09375 14.75871,-19.37797 30.82184,-23.41238 41.76948,-23.62907 -1.03404,8.79742 -10.66459,38.67841 -31.76948,77.00407 -3.55014,7.79478 -1.99704,14.8528 2.48619,20.56453 3.90919,3.40393 8.51944,5.92708 13.98256,5.87297 l 42.6875,-0.40625 c 4.90962,-0.11146 13.59255,-11.28632 9.8125,-19.21875 l -8.96875,-11.09375 c -4.13463,-7.16959 4.83649,-28.45877 15.375,-49.9375 13.58001,-19.4618 28.99407,-21.85313 39.45698,-21.86729 -2.24651,21.67662 -9.82041,39.63272 -29.89448,76.08604 -3.55015,7.79478 -2.45603,14.39381 2.48619,20.10552 3.90921,3.40395 8.51951,6.38616 13.98256,6.33198 l 42.25,-0.40625 c 4.90962,-0.11146 14.03018,-11.28618 10.25,-19.21875 L 603.012,588.17034 c -8.43603,-14.62807 21.83801,-54.0394 31.73416,-80.72442 4.57319,-14.54396 2.63927,-22.66071 -3.88634,-31.45131 -7.85863,-8.82611 -17.72206,-14.70559 -24.03532,-16.69927 l -32.15625,-0.46875 c -5.79799,1.32243 -6.99896,4.64254 -8.59375,10.71875 0,0 -19.19719,-0.87943 -21.66599,-1.16192 -0.49549,-3.20977 -2.5036,-8.48009 -5.49026,-8.77558 l -33.6875,-0.5 c -10.86564,-0.22319 -9.7939,3.69603 -11.1875,10.375 0,0 -28.79466,1.21635 -29.77355,0.0179 -1.18467,-0.21443 -2.15377,-9.38184 -3.1327,-10.58037 -7.8108,-1.41381 -15.70344,-1.89643 -23.4375,-1.8125 z"
         style="fill:none;stroke:#000000;stroke-width:5;stroke-opacity:1;stroke-dasharray:none" />
      <g
         id="g937">
        <path
           inkscape:connector-curvature="0"
           transform="matrix(13.65871,0,0,13.65871,-4041.013,-7266.029)"
           sodipodi:nodetypes="cccccccccc"
           id="path955"
           d="m 316.99474,575.20102 c 3.66639,-6.658 3.12656,-7.22032 3.10406,-7.9626 -0.0525,-0.9897 0.16495,-1.37209 1.25962,-1.3496 l 1.6645,-0.045 c 1.0122,-0.045 1.3496,0.3149 1.07968,1.07967 -0.43211,1.1664 -3.69534,6.46812 -3.07771,7.53909 l 0.65616,0.81748 c 0.27675,0.58074 -0.36899,1.41597 -0.72844,1.42413 l -3.10313,0.0263 c -0.75727,0.008 -1.19964,-0.77227 -0.85474,-1.52954 z"
           style="fill:#c6c3c6;fill-rule:evenodd;stroke:none" />
        <path
           inkscape:connector-curvature="0"
           sodipodi:nodetypes="ccccccccccc"
           id="path935"
           d="m 372.96653,462.63909 -22.75,0.625 c -14.95178,-0.30718 -17.90431,4.91946 -17.1875,18.4375 0.30732,10.13858 7.67192,17.81031 -42.40625,108.75 -9.0413,18.31475 6.5861,26.00152 16.65625,26.40625 l 42.375,-0.34375 c 4.90962,-0.11145 13.71754,-11.53659 9.9375,-19.46875 l -8.96875,-11.15625 c -8.43603,-14.62807 33.40636,-85.66021 39.30843,-101.59172 2.45556,-6.95738 1.60436,-10.95891 -0.35916,-14.84578 -3.30848,-4.91617 -6.99611,-7.23962 -16.60552,-6.8125 z"
           style="fill:none;stroke:#000000;stroke-width:5;stroke-opacity:1;stroke-dasharray:none" />
      </g>
      <g
         id="g940">
        <path
           transform="matrix(14.39068,0,0,14.39068,-5150.331,-6971.059)"
           d="m 385.80394,513.51428 c 0,1.24227 -0.9265,2.24933 -2.06938,2.24933 -1.14289,0 -2.06938,-1.00706 -2.06938,-2.24933 0,-1.24226 0.92649,-2.24932 2.06938,-2.24932 1.14288,0 2.06938,1.00706 2.06938,2.24932 z"
           sodipodi:ry="2.2493234"
           sodipodi:rx="2.0693774"
           sodipodi:cy="513.51428"
           sodipodi:cx="383.73456"
           id="path866"
           style="fill:#c6c3c6;fill-rule:evenodd;stroke:none"
           sodipodi:type="arc" />
        <path
           inkscape:connector-curvature="0"
           sodipodi:nodetypes="czzzzsz"
           id="path936"
           d="m 372.93976,388.6529 c -13.05961,0 -27.9452,15.60944 -27.9452,29.62093 1e-5,14.01149 0.90359,16.84127 6.07587,26.43953 4.71327,9.59826 12.41315,11.46672 25.46105,11.46672 13.04789,0 29.78125,-17.45596 29.78125,-31.45698 -1.83604,-13.54202 -4.30563,-18.79706 -10.20698,-25.45901 -6.25325,-7.05921 -10.10638,-10.61119 -23.16599,-10.61119 z"
           style="fill:none;stroke:#000000;stroke-width:5;stroke-opacity:1;stroke-dasharray:none" />
      </g>
    </g>
  </g>
</svg>
