/* XPM */
static const char *zdlicon[]={
"48 48 16 1",
". c None",
"# c #000000",
"h c #020202",
"g c #050505",
"k c #0c0c0c",
"i c #181919",
"a c #2e2e2e",
"d c #3f4040",
"j c #505659",
"f c #666b6d",
"e c #878a8b",
"l c #8a0a00",
"m c #b33300",
"b c #bec1c1",
"n c #e96a00",
"c c #edeeee",
".....................##############.............",
"..................####################..........",
"................########################........",
"...............###########################......",
"..............########abccccccccbd#########.....",
".............######aebbccccccccccccba#######....",
"............#####aebbbccccccccccccbbbea#####....",
"...........#####aebbbccccccccccccbbbbeef#####...",
"..........gh###aebbbccccbd####abbbbbeeefi####...",
"..........ggh#aebbbcccbd#######aebbeeeffj#####..",
"..........kgghebbbccccd#########aeeeeffjji####..",
".........kkkggebbccccb###########aeeffjjjd####..",
".........ikkkggh####dd#####..#####effjjjjj####..",
".........iikkkggh#########....####ffjjjjjj####..",
"..........iikkkggh#######.....####fjjjjjjj####..",
"............ikkkggh######....#####jjjjjjji####..",
"...................h####....#####ijjjjjjj#####..",
"........................########idjjjjjfi####...",
".......................########idjjjjjji#####...",
"......................h#######idjjjjjji#####....",
"......................gh#####idjjjjjji######....",
"......................ggh#jfjjjjjjjfi######.....",
"......................kgghfjjjjjjjff#######.....",
"......................kkggjjjjjjjffei#######....",
"......................kkkgjjjjjjffeeea#######...",
"......................kkkkghh##ijeeebbbba#####..",
".###############.###########hh##ifea##abbd#####.",
"#################################ai####acbd####.",
"##llllllmmmmmmm###mnnnnnnnnn########nn##ccb#####",
"##lllllllmmmmmm###mmnnnnnnnnnn######nn##cccd####",
"############mm####mm########nnn#####nn##cccb####",
".##########mmm####mm#########nnn####nn##cccc####",
".......###llm##i##mm##aa...###nn####nn##cccc####",
".......##lll##id##mm##aa....###nn###nn##cccc####",
"......###ll##ijj##mm##aaa....##nn###nn##cccb####",
".....###lll##jfj##mm##daa....##nn###nn##ccba####",
"....###lll##ifjj##mm##ddaaa..##nn###nn##cbb#####",
"....##lll##iffjj##mm##dddaaaa##nn###nn##bbe####.",
"...###ll##ifefjj##mm##jdddaaa##nn###nn##bba####.",
"..###lll##feeefj##lm##efdddak##nn###nn##beh####.",
".###lll###eeeeef##ll##bbbfda##mnn###nn##eahh##..",
".##lll###..eeeee##ll##bbccbd##mm####nn##agghh#..",
"###ll##########i##ll#########mmm####nn##########",
"##ll##############ll########mmm##a##nn##########",
"#llllllllllllll###llllllmmmmmm##ad##nnnnnnnnnnn#",
"#llllllllllllll###lllllllmmm###kaa##nnnnnnnnnnn#",
"################i#############kdddk#############",
"################.g##########idjdddak############"};
