<?xml version="1.0" encoding="UTF-8" standalone="no"?>
<!-- Created with Inkscape (http://www.inkscape.org/) -->

<svg
   version="1.1"
   id="svg2"
   xml:space="preserve"
   width="598.22498"
   height="591.54437"
   viewBox="0 0 598.22497 591.54436"
   sodipodi:docname="logo.svg"
   inkscape:export-filename="C:\Users\Guy_Teichman\Desktop\logo.png"
   inkscape:export-xdpi="450"
   inkscape:export-ydpi="450"
   inkscape:version="0.92.4 (5da689c313, 2019-01-14)"
   xmlns:inkscape="http://www.inkscape.org/namespaces/inkscape"
   xmlns:sodipodi="http://sodipodi.sourceforge.net/DTD/sodipodi-0.dtd"
   xmlns="http://www.w3.org/2000/svg"
   xmlns:svg="http://www.w3.org/2000/svg"
   xmlns:rdf="http://www.w3.org/1999/02/22-rdf-syntax-ns#"
   xmlns:cc="http://creativecommons.org/ns#"
   xmlns:dc="http://purl.org/dc/elements/1.1/"><metadata
     id="metadata8"><rdf:RDF><cc:Work
         rdf:about=""><dc:format>image/svg+xml</dc:format><dc:type
           rdf:resource="http://purl.org/dc/dcmitype/StillImage" /><dc:title /></cc:Work></rdf:RDF></metadata><defs
     id="defs6"><clipPath
       clipPathUnits="userSpaceOnUse"
       id="clipPath18"><path
         d="M 0,841.89 H 1190.55 V 0 H 0 Z"
         id="path16"
         inkscape:connector-curvature="0" /></clipPath></defs><sodipodi:namedview
     pagecolor="#ffffff"
     bordercolor="#666666"
     borderopacity="1"
     objecttolerance="10"
     gridtolerance="10"
     guidetolerance="10"
     inkscape:pageopacity="0"
     inkscape:pageshadow="2"
     inkscape:window-width="1920"
     inkscape:window-height="991"
     id="namedview4"
     showgrid="false"
     inkscape:zoom="0.67178646"
     inkscape:cx="793.70001"
     inkscape:cy="561.26001"
     inkscape:window-x="-9"
     inkscape:window-y="-9"
     inkscape:window-maximized="1"
     inkscape:current-layer="g10"
     inkscape:showpageshadow="2"
     inkscape:pagecheckerboard="0"
     inkscape:deskcolor="#d1d1d1" /><g
     id="g10"
     inkscape:groupmode="layer"
     inkscape:label="FINAL2"
     transform="matrix(1.3333333,0,0,-1.3333333,-492.50468,963.16288)"><g
       id="g12"><g
         id="g14"
         clip-path="url(#clipPath18)"><g
           id="g102"
           transform="translate(522.1821,644.4668)"
           inkscape:export-filename="..\..\..\Git\g102.svg"
           inkscape:export-xdpi="450"
           inkscape:export-ydpi="450"><path
             d="m 0,0 c 0,0 11.92,7.429 38.163,14.03 26.237,6.599 38.301,2.977 38.301,2.977 0,0 23.383,-25.571 34.835,-70.976 11.451,-45.409 -41.589,-77.758 -53.354,-108.939 -11.815,-31.33 0.858,-59.47 29.043,-81.73 29.724,-23.476 79.611,-33.619 79.611,-33.619 0,0 -18.414,-11.611 -33.329,-17.674 -19.134,-7.779 -36.925,-9.548 -36.925,-9.548 0,0 -64.038,38.49 -70.595,89.456 -7.698,59.859 86.016,95.405 46.761,165.335 C 48.076,-7.161 0,0 0,0"
             style="fill:#ed3a40;fill-opacity:1;fill-rule:nonzero;stroke:none"
             id="path104"
             inkscape:connector-curvature="0" /></g><g
           id="g106"
           transform="translate(596.5898,278.7139)"><path
             d="m 0,0 c -79.797,-0.004 -157.02,43.113 -196.697,118.496 -9.684,18.4 -16.725,37.951 -20.932,58.113 l 22.861,4.77 c 3.763,-18.032 10.067,-35.53 18.738,-52.006 50.981,-96.857 171.257,-134.18 268.11,-83.205 96.859,50.98 134.185,171.257 83.206,268.116 -50.978,96.856 -171.249,134.183 -268.107,83.205 -51.921,-27.326 -88.91,-75.902 -101.483,-133.272 l -22.813,4.999 c 14.05,64.113 55.39,118.4 113.419,148.94 C 4.554,475.131 138.977,433.413 195.955,325.161 252.93,216.907 211.213,82.479 102.96,25.502 70.088,8.199 34.795,0 0,0"
             style="fill:#231f20;fill-opacity:1;fill-rule:nonzero;stroke:none"
             id="path108"
             inkscape:connector-curvature="0" /></g><g
           id="g110"
           transform="translate(786.3115,358.2822)"><path
             d="m 0,0 c -2.683,-3.555 -6.838,-8.412 -12.574,-13.328 -5.715,-4.914 -13.079,-9.795 -21.594,-13.367 -4.252,-1.791 -8.779,-3.26 -13.457,-4.321 -4.557,-1.037 -9.56,-1.724 -14.292,-2.017 -9.603,-0.578 -19.208,0.691 -27.894,3.017 -8.7,2.319 -16.496,5.633 -22.906,8.93 -2.519,1.295 -4.827,2.588 -6.905,3.824 -0.397,0.233 0.519,-0.316 0.143,-0.088 -3.167,-2.197 -17.131,-9.211 -19.086,-10.058 0.296,-0.17 0.681,-0.479 1.12,-0.721 4.237,-2.324 10.342,-5.371 17.966,-8.281 7.619,-2.899 16.782,-5.647 26.898,-7.17 10.084,-1.537 21.149,-1.766 31.889,0.094 5.423,0.912 10.468,2.341 15.554,4.195 4.971,1.834 9.676,4.068 13.992,6.588 8.646,5.037 15.667,11.176 20.891,17.004 5.246,5.828 8.792,11.281 11.016,15.197 C 2.99,3.424 3.916,5.822 3.916,5.822 3.916,5.822 2.684,3.564 0,0"
             style="fill:#ed1c24;fill-opacity:1;fill-rule:nonzero;stroke:none"
             id="path112"
             inkscape:connector-curvature="0" /></g><g
           id="g114"
           transform="translate(781.3496,597.9829)"><path
             d="m 0,0 c -53.73,102.08 -180.486,141.42 -282.566,87.693 l -0.907,1.721 C -180.445,143.642 -52.51,103.938 1.722,0.906 Z"
             style="fill:#231f20;fill-opacity:1;fill-rule:nonzero;stroke:none"
             id="path116"
             inkscape:connector-curvature="0" /></g><g
           id="g118"
           transform="translate(527.5825,664.9648)"><path
             d="m 0,0 c 0,0 -18.982,7.576 -31.138,10.136 -12.137,2.577 -25.464,3.645 -38.66,2.19 -6.497,-0.725 -13.363,-2.012 -19.578,-3.738 -6.38,-1.771 -12.53,-4.082 -18.284,-6.823 -11.521,-5.468 -21.382,-12.661 -28.968,-19.798 -7.615,-7.133 -13.054,-14.103 -16.532,-19.179 -3.486,-5.088 -5.044,-8.291 -5.044,-8.291 0,0 1.11,3.38 3.915,8.956 2.806,5.565 7.329,13.344 14.179,21.762 6.823,8.404 16.099,17.375 27.703,24.946 5.789,3.788 12.137,7.214 18.874,10.105 6.906,2.935 13.762,5.276 21.205,6.941 14.711,3.366 30.022,3.909 44.094,2.573 14.103,-1.309 26.996,-4.38 37.761,-7.781 10.78,-3.405 28.73,-10.837 28.73,-10.837 0,0 -10.085,-1.946 -17.208,-3.87 C 13.412,5.228 0,0 0,0"
             style="fill:#ed1c24;fill-opacity:1;fill-rule:nonzero;stroke:none"
             id="path120"
             inkscape:connector-curvature="0" /></g><g
           id="g122"
           transform="translate(594.6934,594.8994)"><path
             d="m 0,0 c 26.34,-46.922 -7.184,-78.361 -29.772,-112.054 -5.693,-8.492 -10.661,-17.13 -13.81,-26.196 4.32,10.857 12.561,17.944 20.202,26.441 8.394,9.336 17.258,17.676 26.144,26.517 0.334,0.33 0.638,0.677 0.964,1.014 3.567,4.388 7.315,8.854 11.02,13.439 15.929,19.717 30.612,41.484 24.039,67.558 C 27.336,42.125 3.952,67.695 3.952,67.695 c 0,0 -12.063,3.625 -38.303,-2.976 -26.24,-6.601 -38.16,-14.031 -38.16,-14.031 0,0 48.074,-7.161 72.511,-50.688"
             style="fill:#97121f;fill-opacity:1;fill-rule:nonzero;stroke:none"
             id="path124"
             inkscape:connector-curvature="0" /></g><g
           id="g126"
           transform="translate(597.8848,633.0405)"><path
             d="m 0,0 c -72.958,0 -132.313,-59.356 -132.313,-132.315 0,-72.957 59.355,-132.314 132.313,-132.314 72.959,0 132.313,59.357 132.313,132.314 C 132.313,-59.356 72.959,0 0,0 m 0,-315.231 c -100.859,0 -182.915,82.055 -182.915,182.916 0,100.86 82.056,182.917 182.915,182.917 100.859,0 182.915,-82.057 182.915,-182.917 0,-100.861 -82.056,-182.916 -182.915,-182.916"
             style="fill:#231f20;fill-opacity:1;fill-rule:nonzero;stroke:none"
             id="path128"
             inkscape:connector-curvature="0" /></g></g></g></g></svg>
