/* XPM */
static char * sdlpal_xpm[] = {
"64 64 3 1",
" 	c None",
".	c #0000FF",
"+	c #FFFFFF",
"                                                                ",
"                                                                ",
"                                                                ",
"                                                                ",
"                                                                ",
"                                                                ",
"                                                          .     ",
"                                                        ......  ",
"                                                        .....   ",
"                                                         ...    ",
"                                                         ...    ",
"              .......................................... . .    ",
"             .....................+++++++++++++++++++ . .       ",
"            .....................++++++++++++++++++++.          ",
"            .....................++++++++++++++++++++.          ",
"            .....................++++++++++++++++++++.          ",
"           .....................++++++++++++++++++++ .          ",
"           ....................+++++++++++++++++++++.           ",
"          .....................+++++++++++++++++++++.           ",
"          .....................++++++++++++++++++++ .           ",
"         ......................++++++++++++++++++++.            ",
"         .....................++++++++++++++++++++ .            ",
"         .....................++++++++++++++++++++.             ",
"         .....................++++++++++++++++++++.             ",
"         .....................++++++++++++++++++++.             ",
"        ......................+++++++++++++++++++..             ",
"        ......................+++++++++++++++++++.              ",
"        .....................++++++++++++++++++++.              ",
"        .....................++++++++++++++++++++.              ",
"        .....................++++++++++++++++++++.              ",
"        .....................++++++++++++++++++++.              ",
"        ....................+++++++++++++++++++++.              ",
"        ....................++++++++++++++++++++ .              ",
"        ....................++++++++++++++++++++.               ",
"        ....................++++++++++++++++++++.               ",
"        ....................++++++++++++++++++++.               ",
"       .....................++++++++++++++++++++.               ",
"       .....................++++++++++++++++++++.               ",
"       .....................++++++++++++++++++++.               ",
"       .....................++++++++++++++++++++.               ",
"       .....................++++++++++++++++++++.               ",
"      ......................++++++++++++++++++++.               ",
"      ......................++++++++++++++++++++.               ",
"      .....................++++++++++++++++++++..               ",
"      .....................++++++++++++++++++++..               ",
"      .....................++++++++++++++++++++.                ",
"      .....................++++++++++++++++++++.                ",
"     ......................+++++++++++++++++++..                ",
"     ......................+++++++++++++++++++.                 ",
"     .....................+++++++++++++++++++ .                 ",
"     .....................+++++++++++++++++++.                  ",
"    .....................++++++++++++++++++++.                  ",
"    .....................+++++++++++++++++++ .                  ",
"   .....................+++++++++++++++++++ .                   ",
"  ......................+++++++++++++++++++.                    ",
"  .....................+++++++++++++++++++ .                    ",
" ..........................................                     ",
"                                                                ",
"                                                                ",
"                                                                ",
"                                                                ",
"                                                                ",
"                                                                ",
"                                                                "};
