/* XPM */
static char *seahorse_adventures[] = {
/* columns rows colors chars-per-pixel */
"32 32 4 1 ",
"  c black",
". c #A1005D",
"X c #FF8732",
"o c None",
/* pixels */
"oooooooooooooooooooooooooooooooo",
"oooooooooooooooooooooooooooooooo",
"oooooooooooooooooooooooooooooooo",
"ooooooooooooooo    ooooooooooooo",
"oooooooooooooo  ... oooooooooooo",
"ooooooooooo       .. ooooooooooo",
"oooooooo    ...... .. oooooooooo",
"ooooooo   ...... .... oooooooooo",
"ooooooo ....      ..  oooooooooo",
"oooooo  ...  .XXX.   ooooooooooo",
"oooooo ... .XXXXXXX oooooooooooo",
"oooooo ... .XXXX  X oooooooooooo",
"oooooo ... .XXXX  X oooooooooooo",
"oooooo .  .XXXXX  X. oooo  ooooo",
"oooooo    ..XXXXXXXX     . ooooo",
"oooooo .  .XXXXXXXXXXXXXXX ooooo",
"ooooooo    .X.XXXX..    .X ooooo",
"ooooooo    ..XX.X..ooooo  oooooo",
"oooooooo    ...... oooooo oooooo",
"ooooooooooo   ..X.. oooooooooooo",
"oooooooooooo ..X.XX. ooooooooooo",
"oooooooooooo   .XX.. ooooooooooo",
"ooooooooooooooo X.XX ooooooooooo",
"oooooooooo   oo XXX. ooooooooooo",
"oooooooo    ooo.X... ooooooooooo",
"oooooooo  .   .XXX.  ooooooooooo",
"oooooooooo ..XXX... oooooooooooo",
"ooooooooooo  ....  ooooooooooooo",
"ooooooooooo  ....  ooooooooooooo",
"ooooooooooooo    ooooooooooooooo",
"oooooooooooooooooooooooooooooooo",
"oooooooooooooooooooooooooooooooo"
};
