/* XPM */
static char * bombicon_xpm[] = {
"69 68 190 2",
"  	c None",
". 	c #482142",
"+ 	c #B72729",
"@ 	c #C51211",
"# 	c #71344B",
"$ 	c #020231",
"% 	c #A0333E",
"& 	c #D10A0A",
"* 	c #D20F0F",
"= 	c #D31411",
"- 	c #342E44",
"; 	c #311E46",
"> 	c #C61E1D",
", 	c #D41912",
"' 	c #E7770B",
") 	c #DC3D0F",
"! 	c #8C3645",
"~ 	c #060330",
"{ 	c #AA2E34",
"] 	c #D0060F",
"^ 	c #FFFE00",
"/ 	c #F2B506",
"( 	c #CE1613",
"_ 	c #562B49",
": 	c #FDEF00",
"< 	c #DA4B0E",
"[ 	c #BC1D1F",
"} 	c #28113A",
"| 	c #FFF100",
"1 	c #FFF900",
"2 	c #F9D203",
"3 	c #D93310",
"4 	c #A91B22",
"5 	c #1F133F",
"6 	c #1F0F2E",
"7 	c #0B0536",
"8 	c #0E0A3A",
"9 	c #8D2A39",
"0 	c #C42222",
"a 	c #150B2F",
"b 	c #D10B10",
"c 	c #E4690B",
"d 	c #FAEC00",
"e 	c #FFF500",
"f 	c #F6C605",
"g 	c #74273D",
"h 	c #A8252C",
"i 	c #6C1C34",
"j 	c #3C183B",
"k 	c #CA1813",
"l 	c #FEF000",
"m 	c #4A1636",
"n 	c #D01D1A",
"o 	c #121111",
"p 	c #47232B",
"q 	c #6D1416",
"r 	c #932114",
"s 	c #DF590D",
"t 	c #CC200F",
"u 	c #C31718",
"v 	c #F1AD06",
"w 	c #FDE801",
"x 	c #EA8909",
"y 	c #D62210",
"z 	c #CC1B1B",
"A 	c #EB9508",
"B 	c #EFA107",
"C 	c #896F2D",
"D 	c #D0780A",
"E 	c #7A6634",
"F 	c #585145",
"G 	c #42413E",
"H 	c #5A5227",
"I 	c #92580D",
"J 	c #D72910",
"K 	c #FCE201",
"L 	c #443B2B",
"M 	c #704A0C",
"N 	c #A0460E",
"O 	c #775E2F",
"P 	c #6B5336",
"Q 	c #AA9205",
"R 	c #473209",
"S 	c #837903",
"T 	c #000033",
"U 	c #090630",
"V 	c #38082B",
"W 	c #D9CE01",
"X 	c #6A650A",
"Y 	c #3D2902",
"Z 	c #392602",
"` 	c #2E1F02",
" .	c #322A15",
"..	c #2A1C02",
"+.	c #342202",
"@.	c #3C3803",
"#.	c #EFE200",
"$.	c #F8F400",
"%.	c #C5BA02",
"&.	c #191202",
"*.	c #958C02",
"=.	c #F3E500",
"-.	c #BDB408",
";.	c #E6D901",
">.	c #F7E900",
",.	c #130E33",
"'.	c #F3E800",
").	c #2B2505",
"!.	c #241902",
"~.	c #524E08",
"{.	c #1C1B1A",
"].	c #262626",
"^.	c #36332B",
"/.	c #4E4C23",
"(.	c #B6AC00",
"_.	c #3B2A09",
":.	c #201502",
"<.	c #110C02",
"[.	c #231C0C",
"}.	c #070501",
"|.	c #010100",
"1.	c #5C5701",
"2.	c #5E3E06",
"3.	c #A6700B",
"4.	c #322408",
"5.	c #484502",
"6.	c #575456",
"7.	c #919191",
"8.	c #D5D4D1",
"9.	c #320F35",
"0.	c #5F213C",
"a.	c #422D07",
"b.	c #999389",
"c.	c #5F5C5E",
"d.	c #726E6E",
"e.	c #FFFFFE",
"f.	c #ACA598",
"g.	c #C2BCAC",
"h.	c #4F4A4D",
"i.	c #9C9B99",
"j.	c #887D70",
"k.	c #2D2C30",
"l.	c #58433A",
"m.	c #B6AFA1",
"n.	c #A3998D",
"o.	c #422A36",
"p.	c #3E3015",
"q.	c #474347",
"r.	c #F3F3F1",
"s.	c #D1C4AB",
"t.	c #513C18",
"u.	c #2B2217",
"v.	c #5C4823",
"w.	c #8B7453",
"x.	c #5D4E30",
"y.	c #E5E2DB",
"z.	c #F8F7F5",
"A.	c #E1DBCC",
"B.	c #746452",
"C.	c #948870",
"D.	c #FFFFF2",
"E.	c #FFFFFA",
"F.	c #FEFCE5",
"G.	c #938D7F",
"H.	c #493614",
"I.	c #958656",
"J.	c #ABA200",
"K.	c #B09E7B",
"L.	c #61543F",
"M.	c #EDECE9",
"N.	c #56431F",
"O.	c #322E01",
"P.	c #E4BA0B",
"Q.	c #C5090C",
"R.	c #CD330F",
"S.	c #F6EF00",
"T.	c #6A584A",
"U.	c #E0D3B0",
"V.	c #DB8C08",
"W.	c #E18F13",
"X.	c #FBFBFA",
"Y.	c #FEFDDA",
"Z.	c #F1E1C1",
"`.	c #3A2436",
" +	c #C4150F",
".+	c #EBC303",
"++	c #F4E7C8",
"@+	c #9F3332",
"#+	c #C61E10",
"$+	c #8E202E",
"                                                                  . + @ @ # $                                                             ",
"                                                                  % & * * = -                                                             ",
"                                                                ; > , ' ) & !                                                             ",
"                                                              ~ { ] ) ^ / * ( _                                                           ",
"                                                              # & , / ^ : < ] [ }                                                         ",
"                                $ ~                         _ , ] ' ^ | 1 2 3 ] 4 5                       6 . 7                           ",
"                              8 9 0 # a                 } ! * b c d e | | ^ f 3 b 0 g 6               6 g > * h ;                         ",
"                            } { & b * [ i } 7 7 ~ a j i k & * c 1 e l | | | ^ 2 ) ] b > g j } 5 } m # > * b , = n ;                       ",
"                          o p q r s t b b ( u u @ u = b b 3 v e e | | | | | | 1 w x y b b = ( z ( = ] ] y A B , = .                       ",
"                          C D E F G H I < y , , , , J s A K ^ e | | | | | | | | e ^ 2 A s 3 y y y 3 s x 2 ^ B * k a                       ",
"                          L M N N C O P E Q f Q R S K | ^ e | | | | | | | | | | | | 1 ^ e w K K K w e ^ 1 ^ x ] { T                       ",
"                        U   V = , / W Q C F X Y Z ` W e | | | | | | | | | | | | | | | | e e e e e e | | | ^ x ] !                         ",
"                            V = , / 1 | Q  .o ..Z +.@.#.| | | | | | | | | | | | | | | | | | | | | | | | | ^ x ] {                         ",
"                            . = , f $.%.@...&.&.+.Z ..*.| | | | =.W %.-.-.-.%.W ;.>.| | | | | | | | | | | ^ A b > ,.                      ",
"                            _ = y K '.).R Z !.&.!.+.Z ).%.#.S ~. .{.{.{.{.{.{.].^./.X *.;.| | | | | | | | 1 / = , j                       ",
"                            9 ] c 1 | (._.M ..:.<...Y :.!.[.}.|.|.|.|.|.|.|.|.|.|.|.}.o ).X (.| | | | | | e w ) b g                       ",
"                          5 0 * / ^ | | 1.M 2.!.&.&.:.}.|.|.|.|.|.|.|.|.|.|.|.|.|.|.|.|.|.|.}.1.W | | | | | ^ A ] + ,.                    ",
"                          9 & 3 w e | | W @.3.2.4.&.|.|.|.|.|.|.|.|.|.|.|.|.|.|.|.|.|.|.|.|.|.|.&.S d | | | e K J ] !                     ",
"                        _ = = B 1 | | | | %.R M [.}.|.|.|.|.|.|.|.|.|.|.|.|.|.|.|.|.|.|.|.}.|.|.|.|.1.;.| | | 1 B = * #                   ",
"                      m ( ] ' ^ | | | | | | 5.|.|.}.|.|.|.|.|.|.|.|.|.|.|.|.|.|.|.|.<.|.<.!.:.&.}.|.|.@.>.| | | ^ x ] = 9 7               ",
"                  ,.g , b s w e | | | | | -.&.|.|.&.!.}.}.6.7.{.|.|.|.|.|.|.|.|.|.7.8.{.&.......!.&.|.|.1.#.| | e | ' * * 4 m a           ",
"          ~ ~ 9.0.0 b * s l e | | | | | ;.:.|.|.|.a.` &.&.[.b.8.c.|.|.|.|.|.|.}.d.e.f.:.!.....` ` ` :.}.|.S | | | e e A y ] = z 9 0._ . $ ",
"      c.9 + u ( b ] ) B e e | | | | | | X |.|.|.:.` !.:.:.&.<.F g.g.h.}.|.|.o i.e.j.}.!...` ` +.+.+.+.` <.}.Q | | | e e 2 ' 3 b ] b = , . ",
"  {.h.d.= , , y ) x w ^ e | | | | | | W <.|.|.<._...!...!.!.&.}.o j.8.{.|.|.d.e.i.|.<.:...` ` +.+.+.+.+...|.!.#.| | | | 1 ^ w B c s 3 & g ",
"  k.c.l.b J B w | ^ e | | | | | | | | X |.|.|.&.4.........!. .f.m.c.{.}.|.|.o G |.h.n.j._...+.+.+.Z Z +.+.:.|.*.| | | | | | e ^ ^ : s b h ",
"      o.* b s : 1 | | | | | | | | | %.o |.|.<.` ` ` 4.p. .4.f.e.e.e.d.|.|.|.|.|.q.r.e.e.s.t.` Z Z Z Z Z Z Z [.@.: | | | | | | e | s b & # ",
"        . @ ] ' ^ | | | | | | | | | S |.|.|.[.u.` 4.v.w.x.x.y.e.e.e.z.G |.|.|.|.i.e.e.e.e.g._.+.Z Z Z Z Z Z 4.o (.| | | | | | ^ x ] n 0.~ ",
"              = v 1 | | | | | | | >.@.|.|.<.4.+._.x.m.A.g.B.y.e.e.e.e.n.}.}.|.|.i.e.e.e.e.e.B...Z Z Y Z Z Z Y u.5.: | | | | 1 / , * #     ",
"              & 3 w e | | | | | | %.o |.|.:.4.Z t.C.D.E.F.w.f.e.e.e.e.G.}.<.|.|.c.e.e.e.e.e.j...Z Y Y Y Y Z Y H.{.;.| | | e l ) ] !       ",
"                * / 1 | | | | | | S o |.}. .Z Y v.I.F.E.A.x.x.r.e.e.8. .<.<.|.}.&.8.e.e.e.E.B.` Y Y Y Y Y Y Z t.^.J.| | | ^ / = > ;       ",
"                ] c ^ | | | | | | X }.|.:. .Z Y v.w.K.m.w.a.` L.b.b.L &.&.<.}.}.&.L m.M.y.G.Y Z Y Y Y Y Y Y Z t.l.S | | | ^ ' ] %         ",
"                * J K e | | | | l ~.|.|.[. .Z Y t.O w.O H._.+.!.:.&.&.:.&.<.<.}.:.&.:.p.p.` +.Z Y Y Y Y Y Y Y H.x.X | | e K 3 & #         ",
"                k , f $.: | | | d H.|.|. .H.Y a.H.v.x.t.H._.4.` ..!.!.:.&.<.<.}.:.!.....` +.Z Z Y Y Y Y Y Y Y H.x.~.| | 1 2 , = .         ",
"                ( k / e : l | | '. .|.}.t.M a.R t.v.v.t.t._.4.` ....!.:.&.&.<.<.:.....4.Z +.+.Z Y Y Y Y Y Y Y R N.~.| | 1 f , = V         ",
"              V ( ( / $.: l | | '.).|.&.3.D 2.a.t.v.v.N.H._.+.` ....!.:.&.<.<.<.:.....` ..+.N.a.Y Y Y Y Y Y Y R H.~.| | 1 f , , V         ",
"              . ( k f $.: : l | d O.|.:.P.f 2.R H.N.v.N.H.a._.!.:.&.&.&.<.<.|.}.:.:.&.H.w.g.s.a.Z Y Y Y Y Y Y R p.~.| | e 2 , = .         ",
"              # Q.R.K S.d : l | l 5.|.<.P.f M a.H.t.N.t._.T.A.f.C.B.F L  .u.{.[. .x.G.y.D.F.U.R Z Y Y Y Y Y Y R p.X | | e w ) & #         ",
"              { Q.V.$.>.d d : | | 1.|.|.3.W.I a.R t.t.H.+.L.g.M.e.e.e.e.z.r.M.M.M.X.e.D.Y.Z.s.H.Z Y Y Y Y Y a.H.[.*.| | | ^ x ] % T       ",
"            `. +k .+S.>.d : : l | *.|.|.Y I 2.Y a.a.R a._.` .. .L.G.m.A.r.e.e.e.e.e.D.Y.++U.s.R Z Y Y Y Y a.R H.&.-.| | | 1 f , = ;       ",
"            % Q.< =.'.>.d d : l | ;.&.|.&.R a.Y Z Y _._.Z +.` !.:.<.&.[. .G F c.j.f.U.Z.U.U.s.H.Z Y Y Y Y R t.p.&.;.| | | e e < ] % 8     ",
"          ! Q.R..+'.'.>.d d : l | | 5.|.|.!.Z +.+.+.+.+.+.` ` ..!.:.:.&.<.<.|.|.<.&.4.p.v.P E a.Z Y Y Y a.H.v. .@.: | | | | 1 2 J & ! 7   ",
"        @+ + +A S.#.=.>.d d : l | | *.|.|.}...` ` +.+.` ` ` ..!.!.:.:.&.&.<.}.<.:.:.!.....!...Z Z Y Z Y a.N.v.&.*.| | | | | | ^ B b & 9 7 ",
"        t #+V.#.#.#.=.>.d d : l | | ;.).|.|.&.` ` ` ` +.` ....!.:.:.&.&.&.<.|.|.<.!.....` +.+.+.Z Z Z Y H.v.p.O.'.| | | | | | e 1 ' = * % ",
"        #+< ;.#.'.'.'.>.d d : l | | | J.|.|.}.:.......` ....!.!.:.:.&.<.<.|.|.|.&.!.....` +.+.+.+.Z Z _.N.t.<.Q | | | | | | e ^ 1 e ' * [ ",
"        #+#+R.< D .+S.S.d d : l | | | d @.|.|.}.!.!...!.!.!.:.:.&.&.<.|.|.|.|.|.&.:.!.....` +.+.+.+.Z a.t.[.O.S.| | | | 1 1 K x s ) 3 & 9 ",
"        + #+ +@ Q.t s f $.: : l | | | | %.<.|.|.<.:.!.:.:.:.:.&.<.}.|.|.|.|.|.|.}.&.!.....` ` +.+.+.Z a.[.&.%.| | | e 1 2 c J ] b = = , . ",
"                4 k Q.( x $.e | | | | | | J.|.|.|.}.&.:.&.&.&.}.|.|.|.|.|.|.|.|.|.}.:.!...` ` ` ` +.Z [.|.*.| | | e 1 x , ] = [ g m V j $ ",
"                    $+* b c : e | | | | | | Q &.|.|.|.}.}.|.|.|.|.|.|.|.|.|.|.|.|.|.}.&.!.....` ` ..<.}.*.| | | e : ' = * h . 7           ",
"                      9 ( ] x ^ | | | | | | | J.<.|.|.|.|.|.|.|.|.|.|.|.|.|.|.|.|.|.|.|.:.......!.<.}.S | | | | ^ A ] = $+7               ",
"                        # & , v 1 | | | | | | | %.O.|.|.|.|.|.|.|.|.|.|.|.|.|.|.|.|.|.|.<.!.:.}.|.<.(.| | | | 1 / , & i                   ",
"                          ! ] ) d e | | | | | | | W 1.|.|.|.|.|.|.|.|.|.|.|.|.|.|.|.|.|.|.}.|.|.~.%.| | | | e w 3 & % $                   ",
"                          5 > * v ^ | | | | | | | | | *.).|.|.|.|.|.|.|.|.|.|.|.|.|.|.|.|.|.O.*.| | | | | | ^ v * 0 5                     ",
"                            9 ] s e e | | | | | | | | | #.J.1.!.|.|.|.|.|.|.|.|.|.|.|...1.J.=.| | | | | | e e s ] !                       ",
"                            _ = , 2 e | | | | | | | | | | | | #.J.X ~.@.!.&.!.O.5.1.Q =.| | | | | | | | | e 2 , = _                       ",
"                            ; , = / 1 | | | | | | | | | | | | | | | | d '.#.'.>.| | | | | | | | | | | | | 1 v = , ;                       ",
"                            5 > * B ^ | | | | | | | | | | | | | | | | | | | | | | | | | | | | | | | | | | ^ B * > 5                       ",
"                            ,.> * B 1 | | e e e e e e | | | | | | | | | | | | | | | | | | e e e e e e | | ^ A * u 7                       ",
"                            } n * v ^ ^ ^ : w K K K d e ^ e | | | | | | | | | | | | e ^ e : K K K w | ^ 1 ^ B * z 5                       ",
"                            . = , 2 e / ' < J y y y ) c B w ^ e | | | | | | | | e ^ K B c ) J y y 3 < ' / ^ f , , .                       ",
"                            ! & y v s * ] * = z z , * ] b ) / e e | | | | | | e e v ) b b * = z z = * b = c f y * g                       ",
"                            m z = = b = + 0.9.5 5 9.m $+n & * c e 1 | | | | 1 e c * & n $+m 9.5 } V 0.[ = b , = & #                       ",
"                              ; + , h . 7               j 9 = b c w e | | e w c b ( ! ;               7 _ 4 = > # 8                       ",
"                                8 9.7                       j [ ] c e e e e s ] u m                       7 _ }                           ",
"                                                              _ , * x 1 1 x b = m                                                         ",
"                                                                ! & y w K y & !                                                           ",
"                                                                ,.+ b A x & { 8                                                           ",
"                                                                  g & , = & #                                                             ",
"                                                                  ; + @ @ + 5                                                             "};
