<svg width="292" height="388" fill="none" xmlns="http://www.w3.org/2000/svg"><path d="M7.206 154.657L154.284 7.579c9.373-9.373 24.569-9.373 33.941 0l79.196 79.196c9.373 9.372 9.373 24.568 0 33.941L111.858 276.279c-4.686 4.687-12.284 4.687-16.97 0L7.205 188.598c-9.373-9.373-9.373-24.569 0-33.941z" fill="url(#paint0_linear)"/><path d="M23.892 266.971l155.564-155.564c4.686-4.686 12.284-4.686 16.97 0l87.682 87.681c9.372 9.373 9.372 24.569 0 33.941L137.029 380.108c-9.372 9.372-24.568 9.372-33.941 0l-79.196-79.196c-9.372-9.373-9.372-24.569 0-33.941z" fill="url(#paint1_linear)"/><path d="M196.426 111.407l40.152 40.151-124.72 124.721c-4.686 4.687-12.284 4.687-16.97 0l-40.152-40.152 124.72-124.72c4.686-4.686 12.284-4.686 16.97 0z" fill="url(#paint2_linear)"/><defs><linearGradient id="paint0_linear" x1="265.967" y1="4.396" x2="2.726" y2="272.408" gradientUnits="userSpaceOnUse"><stop offset=".001" stop-color="#FF79A3"/><stop offset="1" stop-color="#FFB3CC"/></linearGradient><linearGradient id="paint1_linear" x1="21.702" y1="387.137" x2="291.224" y2="112.73" gradientUnits="userSpaceOnUse"><stop stop-color="#68B9FF"/><stop offset="1" stop-color="#3A85FF"/></linearGradient><linearGradient id="paint2_linear" x1="233.848" y1="119.339" x2="65.504" y2="278.48" gradientUnits="userSpaceOnUse"><stop offset=".001" stop-color="#3C13AF"/><stop offset=".999" stop-color="#4A45C3"/></linearGradient></defs></svg>
