<?xml version="1.0" encoding="UTF-8"?>
<svg id="Capa_1" enable-background="new 0 0 63 63" version="1.1" viewBox="0 0 63 63" xml:space="preserve" xmlns="http://www.w3.org/2000/svg">
<path id="path698" d="m33.5 6.588c-0.2003-0.37191-0.34366-0.78115-0.36238-1.2032-0.018719-0.422 0.09519-0.85796 0.36238-1.1851 0.15682-0.19204 0.36198-0.34222 0.58674-0.4469 0.22476-0.10467 0.46886-0.16471 0.71543-0.19077 0.49313-0.052124 0.99001 0.02987 1.4763 0.12689 2.4201 0.48284 4.8276 1.3502 7.2845 1.1186 0.8674-0.08174 1.7166-0.29993 2.5814-0.40565 0.8648-0.10572 1.7735-0.091774 2.5663 0.26941 0.53258 0.24262 0.98974 0.63333 1.3568 1.0891 0.36709 0.4558 0.64757 0.97601 0.87932 1.5134 0.4635 1.0748 0.73888 2.2263 1.2468 3.2808 1.0427 2.1649 2.9661 3.744 4.6405 5.4674 1.3602 1.3999 2.586 2.9365 3.5814 4.6155 0.87997 1.4843 1.5905 3.1362 1.5817 4.8617-0.0044 0.86274-0.19435 1.7312-0.60562 2.4896-0.41126 0.75842-1.0501 1.4018-1.8327 1.7648-0.57029 0.26455-1.2092 0.37727-1.8362 0.33084-0.62695-0.046429-1.2407-0.25122-1.7737-0.58458-0.93433-0.58438-1.5822-1.5243-2.1604-2.4625-0.80499-1.3063-1.5327-2.6724-1.9929-4.1362-0.37384-1.1893-0.57025-2.4397-1.0871-3.5741-0.63464-1.3929-1.7144-2.5289-2.816-3.5917-0.9914-0.95644-2.0173-1.8776-3.085-2.7481-1.0308-0.84045-2.1103-1.6395-3.3182-2.1963-1.6099-0.74211-3.3961-1.0306-5.0224-1.7362-1.2024-0.52172-2.3456-1.3129-2.9671-2.4669z" fill="#0f0" stroke="#0f0" stroke-width="1px"/><g id="layer1"><path id="path2266" d="m29.5 6.588c0.16574-0.32579 0.30795-0.6655 0.39297-1.021 0.085019-0.3555 0.11171-0.72802 0.047073-1.0878-0.081416-0.45315-0.30769-0.87553-0.62151-1.2124-0.31382-0.33688-0.71279-0.58974-1.1427-0.75444-0.85987-0.3294-1.8194-0.30535-2.7232-0.12928-2.2639 0.44102-4.2361 1.7672-6.3054 2.786-1.0346 0.50942-2.1144 0.9489-3.2489 1.1562-1.1345 0.20727-2.3318 0.17261-3.4074-0.24338-0.86611-0.33497-1.6199-0.90019-2.3735-1.4428-0.75358-0.54265-1.536-1.0778-2.4274-1.3381-0.98495-0.28765-2.0661-0.21505-3.0154 0.17449-0.94928 0.38954-1.7635 1.0894-2.3168 1.9535-0.50476 0.78843-0.79335 1.703-0.91653 2.631-0.12318 0.92802-0.085428 1.8714 0.026792 2.8009 0.22444 1.8588 0.74461 3.678 0.87233 5.546 0.1144 1.6732-0.088433 3.3498-0.15474 5.0256s0.013048 3.3991 0.65721 4.9476c0.50931 1.2243 1.3484 2.2819 2.2421 3.2616 0.25444 0.27891 0.51757 0.55584 0.83472 0.76067s0.69722 0.33376 1.0719 0.28712c0.23337-0.02905 0.45589-0.12527 0.64744-0.26171 0.19155-0.13644 0.35306-0.31222 0.48764-0.50508 0.26916-0.38573 0.43014-0.83434 0.60514-1.2709 0.45457-1.1341 1.0208-2.2193 1.5469-3.3221 0.4316-0.90472 0.83647-1.8219 1.2474-2.7362 0.64128-1.4269 1.2984-2.8491 2.067-4.2117 0.76046-1.348 1.6438-2.6518 2.8181-3.66 1.0773-0.92493 2.3658-1.5718 3.6849-2.0974 1.8164-0.72376 3.7246-1.2391 5.443-2.1719 1.6461-0.8935 3.1117-2.1951 3.961-3.8644z" fill="#f0f" stroke="#f0f" stroke-width="1px"/><path id="path2402" d="m7.125 33.5c-0.37703-0.19527-0.77983-0.34561-1.1987-0.41532-0.41884-0.06971-0.85449-0.05705-1.2609 0.06578-0.54624 0.16509-1.0236 0.52646-1.3688 0.98086-0.34517 0.4544-0.5625 0.99823-0.67266 1.5581-0.22033 1.1198-0.021571 2.2758 0.20461 3.3945 0.47556 2.352 1.0865 4.7141 2.2879 6.7913s3.065 3.8629 5.3721 4.5226c1.4395 0.41157 2.9649 0.3697 4.4606 0.30555 1.4958-0.06415 3.0141-0.14536 4.4725 0.19273 0.72924 0.16904 1.4385 0.44426 2.0626 0.85769 0.62406 0.41343 1.1611 0.9688 1.5071 1.6327 0.34592 0.66386 0.49362 1.4382 0.3648 2.1756s-0.54405 1.4303-1.1633 1.8509c-0.43263 0.29378-0.94536 0.44868-1.4598 0.54263-0.51444 0.09395-1.0376 0.13097-1.5542 0.21219-0.5166 0.08122-1.034 0.20973-1.4872 0.47067s-0.83955 0.66786-0.98944 1.1689c-0.11061 0.3697-0.08627 0.77598 0.05498 1.1351 0.14124 0.35911 0.39669 0.67019 0.71373 0.89018 0.54037 0.37496 1.2292 0.47599 1.8861 0.44357 0.65692-0.03242 1.3011-0.18641 1.9526-0.27643 1.4897-0.20581 3.0093-0.07615 4.5013-0.26444 0.746-0.09414 1.4877-0.2698 2.1658-0.59478s1.2919-0.80576 1.7066-1.4329c0.42096-0.63654 0.62366-1.4116 0.58536-2.1738-0.038301-0.76218-0.31483-1.5083-0.76873-2.1218-0.5201-0.70297-1.2552-1.2214-2.0329-1.6211-0.77774-0.39974-1.6055-0.69113-2.4151-1.0217-1.9853-0.81069-3.8751-1.8656-5.5695-3.18-3.4212-2.654-5.9639-6.3004-7.9025-10.172-0.5629-1.1241-1.0817-2.2757-1.7708-3.3272-0.68908-1.0515-1.5679-2.0117-2.6843-2.5899z" fill="#f00" stroke="#f00" stroke-width="1px"/><path id="path2505" d="m33.5 55.412c-0.50917 0.7002-0.85185 1.5308-0.92055 2.3938-0.0687 0.86303 0.14696 1.7565 0.65391 2.4583 0.44319 0.61355 1.0919 1.0626 1.7988 1.3329 0.70697 0.27028 1.4711 0.36892 2.2279 0.36417 1.5137-0.0095 2.9933-0.42142 4.4956-0.6075 2.5807-0.31967 5.1944 0.0299 7.7942-0.02847 1.2999-0.02919 2.6054-0.16224 3.8538-0.52575 1.2484-0.36351 2.4417-0.96571 3.3914-1.8537 1.1967-1.1188 1.9589-2.6503 2.3316-4.2456 0.37272-1.5953 0.37539-3.2574 0.21678-4.8879-0.31722-3.2611-1.2703-6.4737-1.1424-9.7477 0.0449-1.1499 0.22323-2.2906 0.3008-3.4387 0.07757-1.1482 0.05092-2.3228-0.3026-3.4179-0.1279-0.39622-0.2988-0.78066-0.53268-1.1251s-0.53236-0.64854-0.8886-0.86405c-0.35624-0.21551-0.77167-0.33979-1.1878-0.32636-0.41614 0.01342-0.83104 0.16938-1.1344 0.45457-0.24505 0.23039-0.41128 0.53669-0.50511 0.85969s-0.11811 0.66294-0.10709 0.99912c0.02204 0.67234 0.1826 1.3354 0.18911 2.0081 0.0096 0.99816-0.32218 1.9746-0.79037 2.8562s-1.0711 1.6829-1.6504 2.4958c-2.121 2.9762-4.0294 6.2343-6.9999 8.3633-2.5703 1.8422-5.7235 2.6773-8.4564 4.2684-0.9989 0.58157-1.9558 1.2796-2.6355 2.2144z" fill="#ff0" stroke="#ff0" stroke-width="1px"/><path id="path2612" d="m17.983 62.574c-1.1323-0.36227-1.8467-1.3189-1.786-2.3917 0.03295-0.58231 0.24684-1.0438 0.68853-1.4855 0.59581-0.59581 1.2487-0.83733 2.9102-1.0766 0.65565-0.09442 1.3861-0.24432 1.6233-0.33311 0.57729-0.2161 1.1152-0.75012 1.3277-1.3182 0.17006-0.45453 0.21038-1.268 0.08459-1.7066-0.03906-0.13618-0.05804-0.26057-0.04219-0.27642 0.01585-0.01585 0.48606 0.12062 1.0449 0.30326 1.6945 0.5538 3.6211 0.97085 5.0477 1.0927l0.59692 0.05097-0.01894 2.6427-0.01894 2.6427-0.36124 0.27726c-0.50531 0.38784-1.4126 0.81362-2.0952 0.98326-0.80566 0.20022-1.6756 0.28772-3.6846 0.3706-1.0703 0.04415-2.0658 0.12705-2.6009 0.2166-1.0889 0.18219-2.1617 0.18539-2.7159 0.0081z" fill="#ff0" stroke="#ff0" stroke-width=".072248"/><path id="path2684" d="m19.687 48.184c0.64365-0.51932 1.103-1.2394 1.4182-2.004 0.31524-0.76459 0.49499-1.5773 0.65629-2.3885 0.1613-0.81115 0.30629-1.6281 0.55668-2.4164 0.25039-0.78822 0.61223-1.5533 1.1606-2.1724 0.90746-1.0244 2.2288-1.5571 3.4683-2.1372 0.61974-0.29006 1.2336-0.60195 1.7842-1.0081 0.55067-0.40618 1.0391-0.9126 1.3487-1.5228 0.39836-0.78493 0.47962-1.7059 0.33912-2.5749-0.1405-0.86895-0.49163-1.6919-0.91944-2.4612-1.0818-1.9453-2.6799-3.6005-4.5863-4.7496-1.9064-1.149-4.1165-1.7891-6.3419-1.836-1.5682-0.03309-3.1553 0.22935-4.5823 0.88052-1.427 0.65117-2.6874 1.7036-3.4806 3.0568-0.91659 1.5637-1.1707 3.4382-1.1026 5.2495 0.068154 1.8112 0.43716 3.5957 0.68426 5.3912 0.20115 1.4617 0.32204 2.9354 0.5953 4.3854 0.27326 1.4499 0.70668 2.8892 1.4841 4.1432 0.77741 1.254 1.9256 2.316 3.3224 2.7913 0.69839 0.23769 1.4508 0.32504 2.1818 0.22536 0.73096-0.09968 1.4389-0.38912 2.013-0.85237z" fill="#f00" stroke="#f00" stroke-width="1px"/><path id="path3387" d="m51.83 33.5c-0.70212-1.3473-1.852-2.4195-3.1255-3.248-1.2735-0.82848-2.6768-1.4332-4.0707-2.0376-2.2296-0.96665-4.5226-1.9587-6.9513-2.0407-1.2144-0.041-2.4488 0.15523-3.5472 0.67476-1.0984 0.51953-2.0536 1.3754-2.5947 2.4634-0.59954 1.2055-0.66311 2.6167-0.47067 3.9493s0.62477 2.6165 0.97902 3.9154c0.59518 2.1824 0.96758 4.5268 0.29356 6.6862-0.33701 1.0797-0.94102 2.0887-1.8016 2.8227-0.86053 0.73399-1.9857 1.1773-3.1158 1.131-0.47424-0.01942-0.94243-0.12221-1.4169-0.13592-0.23722-0.0069-0.47647 0.0089-0.70638 0.0677-0.22992 0.05881-0.45074 0.16197-0.63042 0.317-0.29206 0.252-0.45948 0.63274-0.48416 1.0177-0.02468 0.38497 0.08626 0.77193 0.27934 1.1059 0.38615 0.66792 1.0673 1.1065 1.7479 1.4697 2.471 1.3187 5.3073 1.9814 8.1 1.7673 2.3942-0.18355 4.7126-0.99975 6.8135-2.1626 2.1009-1.1628 3.9961-2.6666 5.7707-4.2843 1.9066-1.738 3.7186-3.6627 4.7954-6.007 0.53838-1.1722 0.88383-2.4409 0.93388-3.7299 0.050051-1.2889-0.202-2.5983-0.79812-3.7422z" fill="#ff0" stroke="#ff0" stroke-width="1px"/><path id="path3531" d="m47.811 29.127-0.63115-0.33599-0.0026-1.0837c-3e-3 -1.231-0.08135-1.5108-0.56331-2.011-0.55032-0.57109-1.3566-0.76768-2.1151-0.51573-0.57763 0.19186-1.1067 0.74729-1.2695 1.3327-0.09495 0.34152-0.15024 0.43692-0.23704 0.40904-0.8135-0.26125-1.9981-0.72277-2.0207-0.78726-0.01596-0.0456-0.17387-0.23777-0.35092-0.42705-0.6939-0.74183-1.8656-0.84697-2.6627-0.23894-0.2037 0.15537-0.31006 0.17924-0.79969 0.17949-1.0336 5.06e-4 -2.489 0.32172-3.2752 0.72277-0.15515 0.07915-0.29964 0.14391-0.32109 0.14391-0.02145 0-0.039-0.22758-0.039-0.50573v-0.50573l1.2101-4.33e-4c1.3573-4.34e-4 1.6158-0.04877 2.0557-0.38428 0.50018-0.3815 0.7261-0.81938 0.76444-1.4816 0.04121-0.71179-0.13396-1.1624-0.63348-1.6296-0.49589-0.46382-0.84868-0.54989-2.2539-0.54989h-1.1428v-1.9507h1.2153c1.3544 0 1.6762-0.06659 2.1302-0.44082 0.44354-0.36561 0.6481-0.79328 0.6851-1.4323 0.04077-0.70432-0.13613-1.1572-0.63388-1.6228-0.49589-0.46385-0.84868-0.54992-2.2539-0.54992h-1.1428v-4.837l0.19868 0.03249c0.10928 0.01787 0.5507 0.08448 0.98093 0.14802 3.2002 0.47263 6.3335 1.81 9.1157 3.8908 1.1329 0.8473 3.115 2.8281 3.9603 3.9578 1.812 2.4214 3.0352 5.0769 3.688 8.0062 0.16797 0.75372 0.40727 2.3266 0.40727 2.6769 0 0.13581-0.06074 0.14054-1.7159 0.13361l-1.7159-0.0072-0.63115-0.336z" fill="#0f0" stroke="#0f0" stroke-width=".072248"/><path id="path3968" d="m22.938 49.585c-0.72139-0.33515-1.3737-0.68487-2.0788-1.1145l-0.41843-0.25499 0.26677-0.32342c0.50631-0.61382 0.91852-1.4601 1.2181-2.5008 0.08073-0.28042 0.27272-1.122 0.42665-1.8702 0.47128-2.2907 0.8452-3.2343 1.6053-4.0507 0.34829-0.37413 1.2838-1.0529 1.4519-1.0534 0.02469-7.2e-5 0.03083 0.10907 0.01363 0.24253-0.07556 0.58648 0.23403 1.3282 0.72271 1.7315 0.48904 0.40359 0.67931 0.44609 2.0924 0.46735l1.2389 0.01864v1.9333l-1.1367 0.0012c-0.62518 6.87e-4 -1.2353 0.02401-1.3559 0.05182-0.80348 0.18534-1.4111 0.83875-1.5433 1.6596-0.1383 0.85876 0.32689 1.7452 1.1194 2.133l0.33662 0.16472 2.4522 0.05108-0.38315 0.13877c-0.80522 0.29164-1.1793 0.3314-2.1049 0.22367-0.86362-0.10051-1.2013-0.10144-1.6127-0.0044-0.46581 0.10982-0.77858 0.28753-1.0729 0.60959-0.34362 0.37598-0.48421 0.74218-0.49149 1.2802-3e-3 0.22478 0.01276 0.4949 0.0351 0.60027 0.03057 0.14416 0.02425 0.19083-0.02554 0.18857-0.03639-0.0017-0.37653-0.14719-0.75584-0.32342z" fill="#0ff" stroke="#0ff" stroke-width=".051087"/><path id="path4620" d="m28.83 36.624c0.14716-0.10234 0.3529-0.25802 0.45721-0.34597l0.18965-0.1599v0.69194h-0.91443z" fill="#0ff" stroke="#0ff" stroke-width=".036124"/><path id="path4737" d="m29.307 28.175c-0.25646-0.43415-1.0295-1.3489-1.693-2.0033l-0.67758-0.66829h2.5407v1.445c0 0.79472-0.0092 1.445-0.02055 1.445-0.0113 0-0.07858-0.09825-0.14952-0.21833z" fill="#f0f" stroke="#f0f" stroke-width=".072248"/><path id="path4850" d="m25.355 24.395c-0.8502-0.56575-2.3336-1.2162-3.4638-1.5187-1.4454-0.38693-1.8841-0.44084-3.5763-0.43946-1.3783 0.0011-1.6892 0.02301-2.3399 0.16471-1.2419 0.27042-2.3393 0.70776-3.3857 1.3493-0.16888 0.10353-0.30705 0.15797-0.30705 0.12098 0-0.31682 1.1361-2.6656 1.8459-3.8163 1.1086-1.7971 2.9032-3.8397 4.5119-5.1353 2.8382-2.2858 6.2562-3.8132 9.6575-4.3155 0.43024-0.06354 0.87166-0.13015 0.98094-0.14802l0.19868-0.03249v4.8253l-1.2824 0.02408c-1.1258 0.02114-1.3221 0.0428-1.6075 0.17738-0.43708 0.20609-0.78028 0.56053-0.99549 1.0281-0.15408 0.33476-0.17376 0.46275-0.14569 0.94766 0.03744 0.64676 0.24013 1.0724 0.68551 1.4395 0.45401 0.37423 0.77579 0.44082 2.1302 0.44082h1.2153v1.9507h-1.1428c-1.3842 0-1.7539 0.08747-2.2345 0.52863-0.45702 0.41956-0.66695 0.89568-0.66784 1.5147-4.34e-4 0.27561 0.04712 0.60446 0.10861 0.75163 0.06013 0.1439 0.09892 0.27204 0.0862 0.28476-0.01271 0.01272-0.13506-0.05137-0.27188-0.14242z" fill="#f0f" stroke="#f0f" stroke-width=".072248"/></g><g id="layer2"><g id="g96" enable-background="new 0 0 63 63">
	<path id="path94" d="M61,29.5h-5.051C55.211,17.352,45.582,7.57,33.5,6.588V2c0-1.104-0.896-2-2-2c-1.105,0-2,0.896-2,2   v4.588C17.416,7.57,7.787,17.351,7.049,29.5H2c-1.105,0-2,0.896-2,2c0,1.105,0.895,2,2,2h5.125   C8.314,45.184,17.75,54.457,29.5,55.412V61c0,1.105,0.895,2,2,2c1.104,0,2-0.895,2-2v-5.588   C45.248,54.457,54.684,45.183,55.873,33.5H61c1.104,0,2-0.895,2-2C63,30.396,62.104,29.5,61,29.5z M51.924,29.5h-4.758v-2.4   c0-1.104-0.896-2-2-2c-1.105,0-2,0.896-2,2v2.4h-2v-2.4c0-1.104-0.896-2-2-2c-1.105,0-2,0.896-2,2v2.4H33.5v-4h2.066   c1.104,0,2-0.895,2-2c0-1.104-0.896-2-2-2H33.5v-2h2.066c1.104,0,2-0.895,2-2c0-1.104-0.896-2-2-2H33.5v-4.898   C43.373,11.562,51.199,19.56,51.924,29.5z M29.5,10.601v4.898h-2.066c-1.105,0-2,0.896-2,2c0,1.105,0.895,2,2,2H29.5v2h-2.066   c-1.105,0-2,0.896-2,2c0,1.105,0.895,2,2,2H29.5v4h-3.668v-2.4c0-1.104-0.895-2-2-2c-1.104,0-2,0.896-2,2v2.4h-2v-2.4   c0-1.104-0.895-2-2-2c-1.104,0-2,0.896-2,2v2.4h-4.756C11.801,19.56,19.625,11.562,29.5,10.601z M11.168,33.5h4.664v1.732   c0,1.105,0.896,2,2,2c1.105,0,2-0.895,2-2V33.5h2v1.732c0,1.105,0.896,2,2,2c1.105,0,2-0.895,2-2V33.5H29.5v3.334h-2.066   c-1.105,0-2,0.895-2,2c0,1.104,0.895,2,2,2H29.5v2h-2.066c-1.105,0-2,0.895-2,2c0,1.104,0.895,2,2,2H29.5v4.564   C19.959,50.47,12.326,42.972,11.168,33.5z M33.5,51.398v-4.564h2.066c1.104,0,2-0.896,2-2c0-1.105-0.896-2-2-2H33.5v-2h2.066   c1.104,0,2-0.896,2-2c0-1.105-0.896-2-2-2H33.5V33.5h3.666v1.732c0,1.105,0.895,2,2,2c1.104,0,2-0.895,2-2V33.5h2v1.732   c0,1.105,0.895,2,2,2c1.104,0,2-0.895,2-2V33.5h4.664C50.672,42.972,43.041,50.47,33.5,51.398z" fill="#010002"/>
</g></g></svg>
