<?xml version="1.0" encoding="UTF-8" standalone="no"?>
<svg xmlns:rdf="http://www.w3.org/1999/02/22-rdf-syntax-ns#" xmlns="http://www.w3.org/2000/svg" xmlns:osb="http://www.openswatchbook.org/uri/2009/osb" height="200" width="200" version="1.1" xmlns:cc="http://creativecommons.org/ns#" xmlns:xlink="http://www.w3.org/1999/xlink" viewBox="0 0 200 200" xmlns:dc="http://purl.org/dc/elements/1.1/">
 <defs>
  <linearGradient id="a" y2="104" gradientUnits="userSpaceOnUse" x2="191" y1="104" x1="72.1">
   <stop offset="0"/>
  </linearGradient>
 </defs>
 <metadata>
  <rdf:RDF>
   <cc:Work rdf:about="">
    <dc:format>image/svg+xml</dc:format>
    <dc:type rdf:resource="http://purl.org/dc/dcmitype/StillImage"/>
    <dc:title/>
   </cc:Work>
  </rdf:RDF>
 </metadata>
 <g>
  <circle opacity=".887" cx="132" stroke="url(#a)" cy="104" r="59.5" stroke-width="4.3" fill="#fff68d"/>
 </g>
 <g font-size="40px" fill="#000000" font-family="Sans" display="none">
  <text style="word-spacing:0px;letter-spacing:0px" xml:space="preserve" y="117.2897" x="78.879631" line-height="125%"><tspan font-size="35px" y="117.2897" x="78.879631" font-family="Arial">JFLAP</tspan></text>
  <text style="word-spacing:0px;letter-spacing:0px" line-height="125%" y="117.2897" x="78.879631" xml:space="preserve"><tspan font-size="35px" y="117.2897" x="78.879631" font-family="Arial">JFLAP</tspan></text>
 </g>
 <g>
  <text style="word-spacing:0px;letter-spacing:0px" line-height="125%" font-size="40px" y="117.2897" x="78.879631" font-family="Sans" xml:space="preserve" fill="#000000"><tspan font-size="35px" y="117.2897" x="78.879631" font-family="Arial">JFLAP</tspan></text>
  <g>
   <path d="m79.9 110 2.99-0.41q0.12 2.87 1.08 3.93 0.957 1.06 2.65 1.06 1.25 0 2.15-0.564 0.906-0.581 1.25-1.56 0.342-0.991 0.342-3.14v-17.3h3.32v17.1q0 3.14-0.769 4.87-0.752 1.73-2.41 2.63-1.64 0.906-3.86 0.906-3.3 0-5.06-1.9-1.74-1.9-1.67-5.64z"/>
   <path d="m99.3 117v-25.1h16.9v2.96h-13.6v7.76h11.8v2.96h-11.8v11.4h-3.32z"/>
   <path d="m120 117v-25.1h3.32v22.1h12.3v2.96h-15.7z"/>
   <path d="m137 117 9.62-25.1h3.57l10.3 25.1h-3.78l-2.92-7.59h-10.5l-2.75 7.59h-3.52zm7.23-10.3h8.49l-2.61-6.94q-1.2-3.16-1.78-5.2-0.479 2.41-1.35 4.79l-2.75 7.35z"/>
   <path d="m163 117v-25.1h9.45q2.5 0 3.81 0.239 1.85 0.308 3.09 1.18 1.25 0.854 2 2.41 0.769 1.56 0.769 3.42 0 3.2-2.03 5.42-2.03 2.2-7.35 2.2h-6.43v10.2h-3.32zm3.32-13.1h6.48q3.21 0 4.56-1.2t1.35-3.37q0-1.57-0.803-2.68-0.786-1.13-2.08-1.49-0.837-0.222-3.09-0.222h-6.41v8.96z"/>
  </g>
 </g>
 <g>
  <path d="m70.4 105-58.6-58.9v118z" fill-rule="evenodd" stroke="#000" stroke-width="3.5" fill="#fff"/>
 </g>
</svg>
