<?xml version="1.0" encoding="UTF-8" standalone="no"?>
<!-- Generator: Adobe Illustrator 18.1.1, SVG Export Plug-In . SVG Version: 6.00 Build 0)  -->

<svg
   xmlns:dc="http://purl.org/dc/elements/1.1/"
   xmlns:cc="http://creativecommons.org/ns#"
   xmlns:rdf="http://www.w3.org/1999/02/22-rdf-syntax-ns#"
   xmlns:svg="http://www.w3.org/2000/svg"
   xmlns="http://www.w3.org/2000/svg"
   xmlns:sodipodi="http://sodipodi.sourceforge.net/DTD/sodipodi-0.dtd"
   xmlns:inkscape="http://www.inkscape.org/namespaces/inkscape"
   version="1.1"
   id="Layer_1"
   x="0px"
   y="0px"
   viewBox="0 0 117.3 117.3"
   enable-background="new 0 0 429 117.3"
   xml:space="preserve"
   inkscape:version="0.91 r13725"
   sodipodi:docname="logo-horizontal.svg"
   width="117.3"
   height="117.3"><metadata
     id="metadata3530"><rdf:RDF><cc:Work
         rdf:about=""><dc:format>image/svg+xml</dc:format><dc:type
           rdf:resource="http://purl.org/dc/dcmitype/StillImage" /><dc:title></dc:title></cc:Work></rdf:RDF></metadata><defs
     id="defs3528" /><sodipodi:namedview
     pagecolor="#ffffff"
     bordercolor="#666666"
     borderopacity="1"
     objecttolerance="10"
     gridtolerance="10"
     guidetolerance="10"
     inkscape:pageopacity="0"
     inkscape:pageshadow="2"
     inkscape:window-width="1920"
     inkscape:window-height="1025"
     id="namedview3526"
     showgrid="false"
     inkscape:zoom="4.039627"
     inkscape:cx="214.5"
     inkscape:cy="58.650002"
     inkscape:window-x="0"
     inkscape:window-y="27"
     inkscape:window-maximized="1"
     inkscape:current-layer="Layer_1" /><g
     id="g3473"
     transform="translate(0,-6.1035156e-6)"><linearGradient
       id="SVGID_1_"
       gradientUnits="userSpaceOnUse"
       x1="58.666"
       y1="117.332"
       x2="58.666"
       y2="-9.094947e-13"><stop
         offset="0"
         style="stop-color:#0882C8"
         id="stop3476" /><stop
         offset="1"
         style="stop-color:#26B6DB"
         id="stop3478" /></linearGradient><circle
       cx="58.700001"
       cy="58.700001"
       r="58.700001"
       id="circle3480"
       style="fill:url(#SVGID_1_)" /><g
       id="g3482"><circle
         stroke-miterlimit="10"
         cx="58.700001"
         cy="58.5"
         r="43.700001"
         id="circle3484"
         style="fill:none;stroke:#ffffff;stroke-width:6;stroke-miterlimit:10" /><g
         id="g3486"><path
           d="m 94.7,47.8 c 4.7,1.6 9.8,-0.9 11.4,-5.6 1.6,-4.7 -0.9,-9.8 -5.6,-11.4 -4.7,-1.6 -9.8,0.9 -11.4,5.6 -1.6,4.7 0.9,9.8 5.6,11.4 z"
           id="path3488"
           inkscape:connector-curvature="0"
           style="fill:#ffffff" /><line
           stroke-miterlimit="10"
           x1="97.599998"
           y1="39.400002"
           x2="67.5"
           y2="64.400002"
           id="line3490"
           style="fill:none;stroke:#ffffff;stroke-width:6;stroke-miterlimit:10" /></g><g
         id="g3492"><path
           d="m 77.6,91 c -0.4,4.9 3.2,9.3 8.2,9.8 5,0.4 9.3,-3.2 9.8,-8.2 C 96,87.7 92.4,83.3 87.4,82.8 82.4,82.4 78,86 77.6,91 Z"
           id="path3494"
           inkscape:connector-curvature="0"
           style="fill:#ffffff" /><line
           stroke-miterlimit="10"
           x1="86.5"
           y1="91.800003"
           x2="67.5"
           y2="64.400002"
           id="line3496"
           style="fill:none;stroke:#ffffff;stroke-width:6;stroke-miterlimit:10" /></g><path
         d="m 60,69.3 c 2.7,4.2 8.3,5.4 12.4,2.7 4.2,-2.7 5.4,-8.3 2.7,-12.4 -2.7,-4.2 -8.3,-5.4 -12.4,-2.7 -4.2,2.6 -5.4,8.2 -2.7,12.4 z"
         id="path3498"
         inkscape:connector-curvature="0"
         style="fill:#ffffff" /><g
         id="g3500"><path
           d="m 21.2,61.4 c -4.3,-2.5 -9.8,-1.1 -12.3,3.1 -2.5,4.3 -1.1,9.8 3.1,12.3 4.3,2.5 9.8,1.1 12.3,-3.1 2.5,-4.2 1.1,-9.7 -3.1,-12.3 z"
           id="path3502"
           inkscape:connector-curvature="0"
           style="fill:#ffffff" /><line
           stroke-miterlimit="10"
           x1="16.6"
           y1="69.099998"
           x2="67.5"
           y2="64.400002"
           id="line3504"
           style="fill:none;stroke:#ffffff;stroke-width:6;stroke-miterlimit:10" /></g></g></g></svg>