/* XPM */
static char *syndie[] = {
/* columns rows colors chars-per-pixel */
"32 32 74 1",
"  c #364B6B",
". c #21477D",
"X c #30507C",
"o c #434949",
"O c #265089",
"+ c #29538E",
"@ c #2B5792",
"# c #2D5995",
"$ c #2F5E9C",
"% c #30609E",
"& c #3465A4",
"* c #4B688F",
"= c #536A85",
"- c #536F91",
"; c #5C7390",
": c #4172AD",
"> c #507FB6",
", c #7F8482",
"< c #798C9E",
"1 c #5382B7",
"2 c #6489B4",
"3 c #6C93BF",
"4 c #6D95C0",
"5 c #808582",
"6 c #898B86",
"7 c #8D8F8A",
"8 c #8F908C",
"9 c #91938E",
"0 c #8B959C",
"q c #949691",
"w c #959992",
"e c #999B96",
"r c #9C9D99",
"t c #9CA196",
"y c #9EA19B",
"u c #A2A49E",
"i c #8497AA",
"p c #9FA6A4",
"a c #9BAEBD",
"s c #A4A6A2",
"d c #A6A9A3",
"f c #A9ACA6",
"g c #ACAEA9",
"h c #AFB1AB",
"j c #B0B2AD",
"k c #B2B9AC",
"l c #B4B6B2",
"z c #B7B9B3",
"x c #B9BCB6",
"c c #BCBDBA",
"v c #BEC2BA",
"b c #C1C3BD",
"n c #C3C9BE",
"m c #A7BDCE",
"M c #B9C0C1",
"N c #BDCBCE",
"B c #C4C6C2",
"V c #C6C9C3",
"C c #C9CCC6",
"Z c #C0CCCE",
"A c #CCCECA",
"S c #CBD1C6",
"D c #CED2CB",
"F c #D2D6CE",
"G c #D3D9CE",
"H c #D3D5D2",
"J c #D6DAD2",
"K c #D9DCD6",
"L c #DBDCDA",
"P c #DBE0D7",
"I c #DEE3DA",
"U c #E2E7DE",
"Y c #E3E3E2",
"T c None",
/* pixels */
"TTTTTTTTTTTTTTTTTTTTTTTTTTTTTTTT",
"TTTTTTTTTTTTTTTTTTTTTTTTduufTTTT",
"TTTTTTTTTTTTTTTTTTTTTTTu988qgTTT",
"TTTTTTTTTTTTTTTTTTTTTTf988889zTT",
"TTTTTTTTTTTTTTTTTTTTTzr888889rTT",
"TTTTTTTTTTTTTTTTTTTbvg88889qervT",
"TTTTTTTTTTTTTTTTTnbbvd888qerrslT",
"TT$$$$$$%%2amVnbVnnnzy88qrrsdfhT",
"T%&&&&&&&4CCCCCCCCCnj999rrsfgllA",
"T&&&&&&&&mFFFFFFFFFDdtreusfjlllA",
"&&&&&&&&:NFHJFGFFFGFuuteedjlcccA",
"&&&&&&&&1DGGFFFFFFGDhSn9oglccBAA",
"&&&&&&&&3FFFFGFFGJFChFF6osccBAAA",
"$&&&&&&&1HGFFFFFFFFDfFD9ogmBAHHH",
"#$&&&&&&&ZGFJFFFFFFFyhdy9zbAAHLL",
"TOOO@@@@%aGFFFFDFFDCeudglcBAHLLL",
"T.*iiii<X-xxzllzzzzzrydjlcBAHLYL",
"TT;GGGDw, =0sffuuuuuredjzcBAHYYT",
"TTTGGDu96TTTTTTTgu99q8djzcAAHLLT",
"TTTDGdvnwTTTTTTTTTTy68sglcBAHJJT",
"TTTjuvUSk6TTTTTTTTTTT9qglcBVAHTT",
"TTTTwIUDu6TTTTTTTTTTTT8ujlcBCDTT",
"TTTTTJUGwTTTTTTTTTTTTTT9slxcBTTT",
"TTTTTDUPyTTTTTTTTTTTTTTTeygxTTTT",
"TTTTTSUIfTTTTTTTTTTTTTTTTTTTTTTT",
"TTTTTvUUl6TTTTTTTTTTTTTTTTTTTTTT",
"TTTTTTPUn6TTTTTTTTTTTTTTTTTTTTTT",
"TTTTTTGUG7TTTTTTTTTTTTTTTTTTTTTT",
"TTTTTTSULeTTTTTTTTTTTTTTTTTTTTTT",
"TTTTTTvUV6TTTTTTTTTTTTTTTTTTTTTT",
"TTTTTTkv8TTTTTTTTTTTTTTTTTTTTTTT",
"TTTTTTTTTTTTTTTTTTTTTTTTTTTTTTTT"
};
