<?xml version="1.0" encoding="utf-8"?>
<!-- Generator: Adobe Illustrator 16.0.4, SVG Export Plug-In . SVG Version: 6.00 Build 0)  -->
<!DOCTYPE svg PUBLIC "-//W3C//DTD SVG 1.1//EN" "http://www.w3.org/Graphics/SVG/1.1/DTD/svg11.dtd">
<svg version="1.1" id="Ebene_1" xmlns="http://www.w3.org/2000/svg" xmlns:xlink="http://www.w3.org/1999/xlink" x="0px" y="0px"
	 width="250px" height="300px" viewBox="83.334 100 250 300" enable-background="new 83.334 100 250 300" xml:space="preserve">
<g>
	<path fill="#FFFFFF" d="M327.134,102.4c1.7,0,3,1.8,3,4v288.1l-5.378,3.409l-233.928-0.513l-4.894-2.896V106.4c0-2.2,1.4-4,3-4
		H327.134z"/>
	<g>
		<path fill="#17181D" d="M323.334,104c3.309,0,6,2.692,6,6.001V390c0,3.309-2.691,6-6,6h-230c-3.309,0-6.001-2.691-6.001-6V110
			c0-3.309,2.692-6,6.001-6H323.334 M323.334,100h-230c-5.5,0-10,4.5-10,10v279.999c0,5.501,4.5,10.001,10,10.001h230
			c5.5,0,10-4.5,10-10.001V110C333.334,104.5,328.834,100,323.334,100L323.334,100z"/>
	</g>
	<line fill="none" stroke="#17181D" stroke-width="5" stroke-miterlimit="10" x1="85.295" y1="148" x2="330.879" y2="148"/>
	<g>
		<rect x="90.418" y="116.1" fill="none" width="235.832" height="32"/>
		<path fill="#030304" d="M140.454,128.024h3.504c0.132,0.945,0.521,1.646,1.161,2.104c0.64,0.457,1.566,0.686,2.777,0.686
			c1.03,0,1.809-0.184,2.332-0.551c0.522-0.367,0.785-0.91,0.785-1.629c0-1.047-1.505-1.914-4.513-2.602
			c-0.039-0.008-0.075-0.016-0.104-0.023c-0.078-0.016-0.199-0.042-0.363-0.082c-1.61-0.352-2.758-0.746-3.445-1.184
			c-0.609-0.391-1.074-0.916-1.395-1.576c-0.319-0.66-0.48-1.439-0.48-2.337c0-1.68,0.57-2.966,1.711-3.862
			c1.141-0.895,2.789-1.341,4.945-1.341c2.015,0,3.591,0.476,4.729,1.43c1.139,0.954,1.736,2.297,1.799,4.031h-3.41
			c-0.062-0.836-0.383-1.472-0.961-1.91c-0.58-0.438-1.402-0.656-2.474-0.656c-0.93,0-1.646,0.182-2.149,0.544
			c-0.504,0.362-0.756,0.881-0.756,1.553c0,0.913,0.979,1.597,2.94,2.051c0.531,0.125,0.945,0.222,1.242,0.292
			c1.257,0.32,2.149,0.571,2.678,0.75c0.527,0.18,0.986,0.379,1.377,0.598c0.703,0.391,1.229,0.908,1.582,1.553
			c0.353,0.644,0.528,1.416,0.528,2.313c0,1.797-0.605,3.19-1.816,4.178s-2.918,1.483-5.121,1.483c-2.172,0-3.875-0.504-5.108-1.512
			C141.211,131.317,140.547,129.884,140.454,128.024z"/>
		<path fill="#030304" d="M157.471,138.465v-2.754c0.108,0.016,0.223,0.027,0.338,0.036c0.117,0.007,0.271,0.012,0.459,0.012
			c0.672,0,1.174-0.158,1.512-0.475c0.336-0.316,0.504-0.791,0.504-1.424c0-0.047-0.008-0.105-0.023-0.176
			c-0.015-0.07-0.031-0.129-0.047-0.176l-4.594-12.891h3.75l2.684,9.187l2.613-9.187h3.586l-5.238,15.023
			c-0.39,1.125-0.879,1.893-1.464,2.303c-0.585,0.41-1.464,0.615-2.637,0.615c-0.211,0-0.437-0.008-0.681-0.023
			C157.988,138.52,157.734,138.497,157.471,138.465z"/>
		<path fill="#030304" d="M169.143,129.208h3.397c0.03,0.648,0.267,1.131,0.704,1.447c0.438,0.316,1.094,0.475,1.968,0.475
			c0.664,0,1.179-0.111,1.541-0.334c0.363-0.223,0.545-0.537,0.545-0.943c0-0.578-0.68-1.011-2.039-1.301
			c-0.555-0.117-0.995-0.218-1.323-0.305c-1.656-0.422-2.808-0.921-3.451-1.5c-0.646-0.578-0.967-1.359-0.967-2.344
			c0-1.304,0.471-2.337,1.412-3.1c0.941-0.762,2.217-1.142,3.826-1.142c1.703,0,3.041,0.379,4.014,1.137
			c0.974,0.757,1.49,1.824,1.554,3.199h-3.316c-0.022-0.539-0.229-0.958-0.614-1.254c-0.388-0.297-0.925-0.445-1.613-0.445
			c-0.647,0-1.131,0.098-1.446,0.292c-0.315,0.196-0.476,0.488-0.476,0.879c0,0.508,0.849,0.957,2.543,1.347
			c0.392,0.086,0.699,0.157,0.927,0.211c1.694,0.398,2.854,0.879,3.475,1.441c0.621,0.562,0.933,1.355,0.933,2.379
			c0,1.445-0.51,2.547-1.529,3.305c-1.02,0.758-2.502,1.137-4.447,1.137c-1.758,0-3.133-0.395-4.125-1.184s-1.488-1.875-1.488-3.258
			L169.143,129.208L169.143,129.208z"/>
		<path fill="#030304" d="M188.618,133.45c-0.312,0.008-0.687,0.021-1.119,0.041c-0.435,0.02-0.709,0.03-0.826,0.03
			c-1.305,0-2.196-0.245-2.678-0.733c-0.481-0.488-0.722-1.451-0.722-2.888v-6.891h-1.688v-2.39h1.688v-3.481h3.375v3.481h1.97v2.39
			h-1.97v7.055c0,0.336,0.074,0.557,0.224,0.663c0.147,0.105,0.453,0.158,0.914,0.158h0.833L188.618,133.45L188.618,133.45z"/>
		<path fill="#030304" d="M198.438,129.489h3.398c-0.344,1.344-1.037,2.396-2.08,3.159c-1.043,0.762-2.314,1.142-3.814,1.142
			c-1.844,0-3.305-0.619-4.383-1.858c-1.078-1.237-1.617-2.916-1.617-5.033c0-2.086,0.531-3.73,1.594-4.934
			c1.062-1.203,2.515-1.805,4.359-1.805c1.953,0,3.461,0.591,4.523,1.775s1.594,2.869,1.594,5.057c0,0.243-0.002,0.424-0.007,0.545
			c-0.004,0.121-0.014,0.236-0.028,0.346h-8.509c0.048,1,0.291,1.753,0.732,2.262c0.44,0.508,1.075,0.762,1.903,0.762
			c0.586,0,1.066-0.115,1.441-0.345S198.219,129.974,198.438,129.489z M193.471,125.646h5.014c-0.03-0.859-0.26-1.514-0.686-1.963
			c-0.426-0.449-1.037-0.674-1.834-0.674c-0.742,0-1.326,0.227-1.752,0.68C193.788,124.141,193.54,124.794,193.471,125.646z"/>
		<path fill="#030304" d="M204.262,133.355v-12.738h3.235v1.407c0.476-0.586,1.008-1.027,1.594-1.324
			c0.587-0.297,1.234-0.445,1.945-0.445c0.804,0,1.491,0.15,2.062,0.451c0.569,0.3,1.066,0.775,1.488,1.424
			c0.445-0.625,0.973-1.094,1.582-1.406c0.609-0.313,1.289-0.469,2.039-0.469c1.281,0,2.297,0.375,3.047,1.125
			s1.125,1.773,1.125,3.07v8.906h-3.363v-8.203c0-0.617-0.166-1.096-0.498-1.436c-0.332-0.339-0.795-0.51-1.388-0.51
			c-0.663,0-1.19,0.216-1.583,0.65c-0.39,0.434-0.586,1.025-0.586,1.775v7.722h-3.328v-8.18c0-0.625-0.162-1.109-0.486-1.453
			c-0.323-0.344-0.778-0.515-1.364-0.515c-0.664,0-1.189,0.219-1.577,0.656c-0.387,0.438-0.58,1.036-0.58,1.792v7.699h-3.363
			V133.355z"/>
		<path fill="#030304" d="M229.657,133.355l-5.953-17.262h3.938l3.666,12.914l3.737-12.914h3.892l-5.883,17.262H229.657z"/>
		<path fill="#030304" d="M240.191,119.2v-3.105h3.412v3.105H240.191z M240.191,133.355v-12.738h3.412v12.738H240.191z"/>
		<path fill="#030304" d="M254.501,129.489h3.397c-0.344,1.344-1.037,2.396-2.08,3.159c-1.043,0.762-2.313,1.142-3.813,1.142
			c-1.845,0-3.305-0.619-4.383-1.858c-1.078-1.237-1.617-2.916-1.617-5.033c0-2.086,0.531-3.73,1.595-4.934
			c1.062-1.203,2.514-1.805,4.358-1.805c1.952,0,3.461,0.591,4.522,1.775c1.062,1.184,1.595,2.869,1.595,5.057
			c0,0.243-0.002,0.424-0.007,0.545c-0.006,0.121-0.014,0.236-0.028,0.346h-8.509c0.047,1,0.289,1.753,0.732,2.262
			c0.439,0.508,1.075,0.762,1.904,0.762c0.586,0,1.064-0.115,1.439-0.345C253.984,130.331,254.282,129.974,254.501,129.489z
			 M249.532,125.646h5.016c-0.03-0.859-0.261-1.514-0.687-1.963c-0.428-0.449-1.037-0.674-1.834-0.674
			c-0.743,0-1.328,0.227-1.754,0.68C249.85,124.142,249.604,124.794,249.532,125.646z"/>
		<path fill="#030304" d="M262.609,133.355l-3.608-12.738h3.457l2.086,8.824l1.759-8.824h3.48l1.852,8.824l2.086-8.824h3.305
			l-3.573,12.738h-3.41l-2.039-9.117l-1.968,9.117H262.609z"/>
	</g>
	<g>
		<g>
			<path fill="#005CA9" d="M188.584,340.486c-1.01,0-2.025-0.276-3.25-0.692l-40.12-13.791c-1.452-0.498-2.6-0.998-3.487-1.788
				c-1.353-1.211-1.775-2.924-1.16-4.698l0.143-0.425c0.617-1.798,1.992-2.827,3.773-2.827c1.099,0,2.178,0.382,3.318,0.778
				l0.445,0.158l40.566,13.938c1.561,0.525,3.176,1.07,3.939,2.62c0.465,0.947,0.492,2.03,0.081,3.229l-0.151,0.438
				C192.005,339.398,190.545,340.486,188.584,340.486z"/>
		</g>
		<path fill="#005CA9" d="M272.165,324.905"/>
		<path fill="#1D1D1B" d="M268.042,356.5c-0.058,0-3.882,0-5.896,0H145.241c-4.743,0-8.593,4.183-8.593,8.93
			c0,0.968,0.194,3.07,0.485,3.07h117.001C259.055,362.5,263.445,360.854,268.042,356.5z"/>
		<polyline fill="#1D1D1B" points="268.042,350.991 261.059,332.5 228.673,332.5 210.167,350.665 		"/>
		<g>
			<path fill="#005CA9" d="M228.307,191.391c0.336-0.918,0.498-2.709-2.177-4.334c-1.304-0.796-3.085-1.469-4.657-2.039
				c-2.111-0.758-4.312-1.5-6.017-1.5c-2.245,0-3.039,1.274-3.313,2.029l-14.129,39.117l16.168,5.838L228.307,191.391z"/>
			<path fill="#005CA9" d="M212.926,246.751l4.223-11.687l-29.109-10.516l-16.35,45.276l14.517,5.317
				c-0.654-2.231-0.991-4.744-0.821-7.345C186.139,256.26,196.803,243.645,212.926,246.751z"/>
			<polygon fill="#005CA9" points="231.703,181.996 215.534,176.156 214.368,179.391 230.534,185.23 			"/>
			<polygon fill="#005CA9" points="167.711,299.037 183.878,304.879 185.047,301.652 168.876,295.811 			"/>
			<polygon fill="#005CA9" points="165.372,305.513 181.544,311.346 182.711,308.117 166.538,302.275 			"/>
			
				<rect x="172.119" y="280.818" transform="matrix(0.9405 0.3397 -0.3397 0.9405 108.7043 -44.2382)" fill="#005CA9" width="17.189" height="15.127"/>
			<path fill="#1D1D1B" d="M276.755,272.127c-8.569-20.193-27.271-25.373-38.623-29.227c-5.11-1.732-9.29-2.981-11.948-3.793
				l-4.201,11.826c2.515,1.893,5.877,5.515,7.539,10.363c14.754,0.588,32.599,6.541,27.633,31.855
				c-2.805,14.29-17.801,28.549-24.944,34.549h32.45C275.357,314.801,284.271,291.02,276.755,272.127z"/>
		</g>
		<path fill="#005CA9" d="M225.605,268.938c0,9.666-7.83,17.494-17.494,17.494c-9.661,0-17.492-7.828-17.492-17.494
			c0-9.66,7.831-17.492,17.492-17.492C217.775,251.445,225.605,259.279,225.605,268.938z"/>
	</g>
</g>
</svg>
