/* XPM */
static char * tecnoballz_xpm[] = {
"32 32 407 2",
"  	c #000000",
". 	c #0E0E1B",
"+ 	c #2E2E4E",
"@ 	c #424262",
"# 	c #4B4B6B",
"$ 	c #626282",
"% 	c #5B5B7B",
"& 	c #4E4E6E",
"* 	c #7D7D9D",
"= 	c #5E5E7E",
"- 	c #464666",
"; 	c #8080A0",
"> 	c #8282A2",
", 	c #9F9FBF",
"' 	c #8686A6",
") 	c #12121F",
"! 	c #343454",
"~ 	c #404060",
"{ 	c #444464",
"] 	c #535372",
"^ 	c #676787",
"/ 	c #757594",
"( 	c #646483",
"_ 	c #8A8AA9",
": 	c #686886",
"< 	c #434363",
"[ 	c #5D5D7B",
"} 	c #7E7E9C",
"| 	c #9A9ABA",
"1 	c #ADADC7",
"2 	c #9393B2",
"3 	c #8F8FAF",
"4 	c #1A1A27",
"5 	c #3F3F5F",
"6 	c #494969",
"7 	c #61617F",
"8 	c #747492",
"9 	c #9494B2",
"0 	c #9090AD",
"a 	c #A8A8C8",
"b 	c #8989A6",
"c 	c #9393AF",
"d 	c #8787A4",
"e 	c #484868",
"f 	c #BEBEDE",
"g 	c #BEBECF",
"h 	c #AEAECC",
"i 	c #ACACCC",
"j 	c #626281",
"k 	c #414161",
"l 	c #4D4D6C",
"m 	c #6F6F8D",
"n 	c #8686A2",
"o 	c #8D8DA9",
"p 	c #ACACC9",
"q 	c #C2C2E2",
"r 	c #B2B2D2",
"s 	c #4A4A6A",
"t 	c #C0C0E0",
"u 	c #A7A7C7",
"v 	c #656583",
"w 	c #8B8BAB",
"x 	c #B8B8D8",
"y 	c #B9B9CE",
"z 	c #C1C1DF",
"A 	c #C0C0DD",
"B 	c #ADADCD",
"C 	c #8E8EAB",
"D 	c #8888A7",
"E 	c #717191",
"F 	c #4D4D6D",
"G 	c #191926",
"H 	c #3E3E5E",
"I 	c #565676",
"J 	c #8B8BAA",
"K 	c #A3A3C3",
"L 	c #AAAAC7",
"M 	c #BABAD9",
"N 	c #4C4C6C",
"O 	c #9595B4",
"P 	c #B9B9CD",
"Q 	c #ABABC9",
"R 	c #A3A3C2",
"S 	c #8888A5",
"T 	c #555574",
"U 	c #1B1B28",
"V 	c #4C4C6B",
"W 	c #AAAACA",
"X 	c #C2C2E1",
"Y 	c #B6B6D6",
"Z 	c #636381",
"` 	c #80809C",
" .	c #C3C3E2",
"..	c #A5A5C4",
"+.	c #666684",
"@.	c #A7A7C3",
"#.	c #6C6C8C",
"$.	c #6B6B89",
"%.	c #B9B9CC",
"&.	c #BDBDDD",
"*.	c #9595B5",
"=.	c #4C4C6A",
"-.	c #E0E0E2",
";.	c #DEDEE0",
">.	c #DADADC",
",.	c #A9A9C6",
"'.	c #B4B4C7",
").	c #C0C0DE",
"!.	c #C1C1E1",
"~.	c #80809B",
"{.	c #8C8CA9",
"].	c #C5C5E1",
"^.	c #CACAD1",
"/.	c #454565",
"(.	c #AEAEC8",
"_.	c #E2E2E2",
":.	c #D9D9DD",
"<.	c #C3C3DE",
"[.	c #6A6A89",
"}.	c #585877",
"|.	c #7E7E99",
"1.	c #8989A5",
"2.	c #8F8FAB",
"3.	c #9393B0",
"4.	c #ADADCA",
"5.	c #BEBECC",
"6.	c #8787A6",
"7.	c #E1E1E1",
"8.	c #CBCBE2",
"9.	c #C2C2CF",
"0.	c #8383A1",
"a.	c #595979",
"b.	c #22222E",
"c.	c #33334B",
"d.	c #1C1C27",
"e.	c #323241",
"f.	c #464664",
"g.	c #545472",
"h.	c #5C5C7A",
"i.	c #7A7A96",
"j.	c #686883",
"k.	c #6B6B8B",
"l.	c #686887",
"m.	c #76768B",
"n.	c #8A8A9F",
"o.	c #70708F",
"p.	c #616181",
"q.	c #797995",
"r.	c #31313F",
"s.	c #2C2C37",
"t.	c #2C2C45",
"u.	c #393959",
"v.	c #232330",
"w.	c #20202D",
"x.	c #373752",
"y.	c #252537",
"z.	c #2E2E44",
"A.	c #70708C",
"B.	c #9595A6",
"C.	c #777795",
"D.	c #303050",
"E.	c #1B1B29",
"F.	c #4A4A69",
"G.	c #9494A4",
"H.	c #8484A0",
"I.	c #272743",
"J.	c #08080F",
"K.	c #222238",
"L.	c #3B3B5B",
"M.	c #21212E",
"N.	c #50506F",
"O.	c #494968",
"P.	c #2C2C41",
"Q.	c #71718D",
"R.	c #9898AA",
"S.	c #2F2F4D",
"T.	c #151527",
"U.	c #32324F",
"V.	c #434362",
"W.	c #5B5B6A",
"X.	c #3F3F5E",
"Y.	c #9C9CAD",
"Z.	c #6C6C8A",
"`.	c #3C3C5C",
" +	c #181829",
".+	c #040407",
"++	c #2C2C42",
"@+	c #4F4F6F",
"#+	c #272734",
"$+	c #5C5C7B",
"%+	c #515170",
"&+	c #383852",
"*+	c #0F0F1D",
"=+	c #1A1A2E",
"-+	c #41415F",
";+	c #242438",
">+	c #131324",
",+	c #020203",
"'+	c #161626",
")+	c #242444",
"!+	c #26263B",
"~+	c #434361",
"{+	c #19192D",
"]+	c #050509",
"^+	c #090912",
"/+	c #393952",
"(+	c #525272",
"_+	c #5C5C7C",
":+	c #23232F",
"<+	c #545473",
"[+	c #5B5B79",
"}+	c #565675",
"|+	c #22223B",
"1+	c #07070E",
"2+	c #05050A",
"3+	c #141427",
"4+	c #010102",
"5+	c #0A0A13",
"6+	c #151520",
"7+	c #2C2C4C",
"8+	c #0D0D18",
"9+	c #17172C",
"0+	c #06060B",
"a+	c #21213A",
"b+	c #656585",
"c+	c #1E1E2B",
"d+	c #5E5E7C",
"e+	c #767693",
"f+	c #25253E",
"g+	c #0A0A0E",
"h+	c #10101A",
"i+	c #313150",
"j+	c #81819D",
"k+	c #BCBCDC",
"l+	c #232337",
"m+	c #484866",
"n+	c #A0A0C0",
"o+	c #A9A9C8",
"p+	c #6A6A8A",
"q+	c #1F1F2C",
"r+	c #353542",
"s+	c #80809F",
"t+	c #8A8AA7",
"u+	c #A2A2C2",
"v+	c #9191B0",
"w+	c #5E5E7D",
"x+	c #3D3D57",
"y+	c #0C0C0E",
"z+	c #16161D",
"A+	c #A5A5C5",
"B+	c #8989A9",
"C+	c #8888A8",
"D+	c #9393B3",
"E+	c #B9B9D9",
"F+	c #9595B2",
"G+	c #7E7E9A",
"H+	c #33333E",
"I+	c #9A9AB9",
"J+	c #84849F",
"K+	c #282834",
"L+	c #A0A0BE",
"M+	c #A5A5C2",
"N+	c #BFBFDF",
"O+	c #BCBCDB",
"P+	c #C1C1DC",
"Q+	c #DCDCDF",
"R+	c #D6D6DB",
"S+	c #9D9DB9",
"T+	c #9E9EB9",
"U+	c #A0A0BC",
"V+	c #B7B7CC",
"W+	c #BEBEDA",
"X+	c #ABABCA",
"Y+	c #787898",
"Z+	c #1C1C29",
"`+	c #5B5B7A",
" @	c #8D8DAC",
".@	c #AAAAC9",
"+@	c #BDBDDC",
"@@	c #C7C7E2",
"#@	c #DDDDE2",
"$@	c #DEDEE1",
"%@	c #B6B6D3",
"&@	c #727291",
"*@	c #B6B6D5",
"=@	c #9191AF",
"-@	c #60607F",
";@	c #1D1D2A",
">@	c #11111E",
",@	c #727292",
"'@	c #9898B8",
")@	c #AEAECE",
"!@	c #B9B9D8",
"~@	c #C4C4E2",
"{@	c #CECEE2",
"]@	c #A9A9C9",
"^@	c #9090B0",
"/@	c #A4A4C0",
"(@	c #DCDCDE",
"_@	c #CFCFE2",
":@	c #BBBBD2",
"<@	c #B1B1D1",
"[@	c #737392",
"}@	c #40405C",
"|@	c #10101B",
"1@	c #242437",
"2@	c #545474",
"3@	c #8484A4",
"4@	c #DFDFE1",
"5@	c #CBCBE1",
"6@	c #B3B3D1",
"7@	c #CBCBE0",
"8@	c #DFDFE2",
"9@	c #C1C1D3",
"0@	c #A7A7C5",
"a@	c #7D7D9C",
"b@	c #585878",
"c@	c #242435",
"d@	c #050508",
"e@	c #12121E",
"f@	c #ACACCB",
"g@	c #BDBDDA",
"h@	c #BABADA",
"i@	c #C0C0D7",
"j@	c #C1C1E0",
"k@	c #B5B5D5",
"l@	c #A4A4C2",
"m@	c #3A3A57",
"n@	c #12121C",
"o@	c #1E1E34",
"p@	c #555575",
"q@	c #BFBFDE",
"r@	c #9D9DBD",
"s@	c #A7A7C6",
"t@	c #A1A1C0",
"u@	c #1C1C30",
"v@	c #3F3F57",
"w@	c #9999B8",
"x@	c #A3A3C0",
"y@	c #B7B7D6",
"z@	c #B3B3D2",
"A@	c #767696",
"B@	c #A4A4C4",
"C@	c #BFBFDA",
"D@	c #A3A3C1",
"E@	c #9898B5",
"F@	c #3E3E56",
"G@	c #262630",
"H@	c #A2A2BF",
"I@	c #B8B8D7",
"J@	c #9A9AB6",
"K@	c #8787A7",
"L@	c #696988",
"M@	c #8181A0",
"N@	c #8181A1",
"O@	c #BABAD0",
"P@	c #B8B8D5",
"Q@	c #9B9BBA",
"R@	c #81819E",
"S@	c #25252E",
"T@	c #1C1C26",
"U@	c #646484",
"V@	c #9C9CB9",
"W@	c #9F9FBE",
"X@	c #8C8CAC",
"Y@	c #8585A5",
"Z@	c #8989A4",
"`@	c #A2A2BE",
" #	c #666685",
".#	c #1D1D27",
"+#	c #13131D",
"@#	c #9C9CB8",
"##	c #A1A1C1",
"$#	c #A2A2C1",
"%#	c #0B0B15",
"&#	c #343453",
"*#	c #8A8AAA",
"=#	c #A6A6C6",
"-#	c #010103",
";#	c #161621",
">#	c #B4B4D4",
",#	c #8888A4",
"'#	c #171722",
")#	c #11111A",
"!#	c #757595",
"~#	c #6B6B8A",
"{#	c #8C8CAB",
"]#	c #9B9BB6",
"^#	c #A6A6C2",
"/#	c #8D8DAD",
"(#	c #767695",
"_#	c #12121B",
":#	c #575777",
"<#	c #9191B1",
"[#	c #747494",
"}#	c #6E6E8D",
"|#	c #8A8AA8",
"1#	c #8C8CAA",
"2#	c #A6A6C4",
"3#	c #8888A6",
"4#	c #6F6F8E",
"5#	c #72728F",
"6#	c #9090AF",
"7#	c #9B9BBB",
"8#	c #7F7F9F",
"9#	c #9797B7",
"0#	c #6D6D8C",
"      . + @ @ # $ % & * = @ - ; @ ; > , ' > & % $ # @ @ + .     ",
"      ) ! ~ { ] ^ / ( _ : < [ } ~ } | 1 2 3 ( / ^ ] { ~ ! )     ",
"      4 5 5 6 7 8 9 0 a b - c d e d f g h i 0 9 / j 6 5 5 4     ",
"      4 k k l m n o p q r s t u v w x y z A B C D E F k k 4     ",
"      G H ~ I J K L y q r F M t n N O f q P A Q R S T ~ H G     ",
"      U @ V : S W q q X Y Z `  . ...+.x X q q P @.w #.F @ U     ",
"      G H s $.S W q A %.&.*.=.-.-.;.>.,.'.).q !.W S : 6 H G     ",
"      U ~ s $.~.{.B X ).].^./.(._._._.:.<.X q q W S [.N k U     ",
"      4 ~ < }.|.` 1.2.3.4.5., 6.7.7.8.9.4.3.2.2.1.0.a.@ 5 4     ",
"      b.l c.d.e.f.g.h.i.( j.k.l.m.n.o.j.p.q.h.f.r.s.t.u.& v.    ",
"      w.6 x.y.z.V A.B.C.~ D.k l E.F.< p.G.H.N I.J.  K.L.e w.    ",
"      M.N.O.x.P.s Q.R.% S.T.U.V.W.X.! = Y.Z.`. +.+  ++s @+w.    ",
"      #+$+%+&+*+=+z.-+;+>+,+'+/.q @ )+!+~+++{+]+  ^+/+(+_+#+    ",
"      :+<+[+}+|+1+2+3+  4+5+6+g.q g.7+8+9+.+    0+a+p.b+}.v.    ",
"      c+d+` e+6 f+g+  ,+h+i+<+j+k+j+& D.h+,+  g+l+m+n+o+p+q+    ",
"      r+s+t+u+v+w+x+y+z+& [.n+' A+B+C+l.& z+y+x+w+D+E+F+G+H+    ",
"      r+s+t+u+u+u+I+|.J+u+u+u+K q q q A+u+J+|.I+u+E+q F+s+r+    ",
"      K+Z.t+L+M+N+f O+P+Q+R+S+f T+!.U+R+Q+P+O+f V+W+q X+Y+K+    ",
"      Z+`+ @.@+@q q @@#@_.$@%@&@n+&@*@$@_.#@@@q ).!.p =@-@;@    ",
"      >@k ,@'@k+)@!@~@{@7.Q+]@^@E+^@/@(@_._@~@:@A <@2 [@}@|@    ",
"      2+1@2@3@E+a &.q @@4@5@Y Y q Y 6@7@8@9@z W+z 0@a@b@c@d@    ",
"        e@u.#.f@0@q t g@_@!.h@!.4.!.q q _@i@j@q k@l@l.m@n@      ",
"        1+o@p@L+/@q t h@q q@r@u+0 u+u+N+q q q q s@t@p@u@0+      ",
"          J.v@w@x@y@q t z@u A@* > * E B@N+C@j@E+D@E@F@J.        ",
"            G@> | H@I@k@J@K@L@; > M@L@N@h@O@P@u Q@R@S@          ",
"            T@U@B+t@V@t@u+W@X@Y@K@Z@X@B@N+f `@t@d  #.#          ",
"            +#F > n+t@@###U+q !.B@!.q q t u $#n+C+@++#          ",
"            %#&#l.*#u+u+=#!.q q !.q q q U+t@@#D l.! %#          ",
"            -#;#s L@' t@U+q q q q >#!.q A+u+,#L@l '#-#          ",
"              )#F !#~#{#]#^#q q q q@q ^#u+/#Z.(#& _#            ",
"              _#:#<#[#}#|#1#2#q q q B 3#w 4#5#6#:#_#            ",
"              _#b@7#8#,@k.&@J 9#9#9#^@0##.,@} Q@b@_#            "};
