/* XPM */
static char * th08_xpm[] = {
"32 32 679 2",
"  	c None",
". 	c #FDFDFD",
"+ 	c #E7E7E7",
"@ 	c #D4D4D4",
"# 	c #CFCFCF",
"$ 	c #ADADAD",
"% 	c #ACACAC",
"& 	c #ABABAB",
"* 	c #BCBCBC",
"= 	c #D0D0D0",
"- 	c #D1D1D1",
"; 	c #FAFAFA",
"> 	c #DFDFDF",
", 	c #D2CFCF",
"' 	c #B4B4B4",
") 	c #838383",
"! 	c #818181",
"~ 	c #626262",
"{ 	c #525252",
"] 	c #444444",
"^ 	c #454545",
"/ 	c #575757",
"( 	c #6A6A6A",
"_ 	c #6B6B6B",
": 	c #686868",
"< 	c #8D8D8D",
"[ 	c #CCCCCC",
"} 	c #B2AEAD",
"| 	c #DDE0E0",
"1 	c #7B7B7B",
"2 	c #0D0D0D",
"3 	c #000000",
"4 	c #ADAAAA",
"5 	c #B5B2B0",
"6 	c #010101",
"7 	c #717171",
"8 	c #5C5755",
"9 	c #BAB6B6",
"0 	c #F6F6F6",
"a 	c #242424",
"b 	c #4E4845",
"c 	c #CFCCCA",
"d 	c #BFB9B8",
"e 	c #D9A7A5",
"f 	c #D1CDCD",
"g 	c #E2E2E2",
"h 	c #2F2F2F",
"i 	c #A5908D",
"j 	c #DFDCDA",
"k 	c #040000",
"l 	c #FDCCCA",
"m 	c #C99B99",
"n 	c #F3F3F3",
"o 	c #474747",
"p 	c #D2B5B2",
"q 	c #D7D4D3",
"r 	c #8F8F8D",
"s 	c #F0BDBA",
"t 	c #FFE6E2",
"u 	c #FFEAE6",
"v 	c #FDD3D0",
"w 	c #ABA8A8",
"x 	c #684E49",
"y 	c #C2BFBD",
"z 	c #FDF6F4",
"A 	c #D39693",
"B 	c #B05B55",
"C 	c #F4BFB9",
"D 	c #FFF9F7",
"E 	c #C89B97",
"F 	c #FEFEFE",
"G 	c #BDBDBD",
"H 	c #050505",
"I 	c #342A27",
"J 	c #A9938F",
"K 	c #FFF9F4",
"L 	c #959290",
"M 	c #342E2C",
"N 	c #DCA6A6",
"O 	c #C08F8D",
"P 	c #FFFFFD",
"Q 	c #FFFAF7",
"R 	c #FDB8AD",
"S 	c #BB827B",
"T 	c #FBFBFB",
"U 	c #A4A4A4",
"V 	c #8F807C",
"W 	c #E6BDB8",
"X 	c #7B7976",
"Y 	c #6B3E3F",
"Z 	c #D6A5A6",
"` 	c #FFF7F6",
" .	c #FCC5BD",
"..	c #C98076",
"+.	c #7E3B31",
"@.	c #390400",
"#.	c #221212",
"$.	c #585858",
"%.	c #7C7C7C",
"&.	c #9C9C9C",
"*.	c #D7D7D7",
"=.	c #A0A0A0",
"-.	c #1B0702",
";.	c #FFF3EF",
">.	c #ECC9C6",
",.	c #D2928F",
"'.	c #AF9590",
").	c #AA7C7B",
"!.	c #AD6566",
"~.	c #C98F90",
"{.	c #AC6B69",
"].	c #65251E",
"^.	c #2A0000",
"/.	c #0F0000",
"(.	c #BBBBBB",
"_.	c #A3A3A3",
":.	c #351B17",
"<.	c #F0B5B3",
"[.	c #F4C5C5",
"}.	c #FFE7E6",
"|.	c #CD8F8C",
"1.	c #9C4946",
"2.	c #CA807F",
"3.	c #A85655",
"4.	c #613231",
"5.	c #CAADAD",
"6.	c #967873",
"7.	c #2A1511",
"8.	c #F3EFED",
"9.	c #FFFAF6",
"0.	c #FFF7F3",
"a.	c #E0D7D4",
"b.	c #493832",
"c.	c #BFBFBF",
"d.	c #A2A2A2",
"e.	c #93524F",
"f.	c #F7C0BD",
"g.	c #FFF3F1",
"h.	c #F0B2B0",
"i.	c #863E39",
"j.	c #220000",
"k.	c #020000",
"l.	c #D7BFBD",
"m.	c #BC8579",
"n.	c #BD7F63",
"o.	c #65321F",
"p.	c #BD938F",
"q.	c #99908C",
"r.	c #C4C4C4",
"s.	c #B8B8B8",
"t.	c #110000",
"u.	c #9B7E76",
"v.	c #E3C0BC",
"w.	c #BA6C6B",
"x.	c #AF5E5B",
"y.	c #763937",
"z.	c #0B0000",
"A.	c #221A18",
"B.	c #937175",
"C.	c #AF805C",
"D.	c #9D6900",
"E.	c #BC8300",
"F.	c #B87E00",
"G.	c #C0923B",
"H.	c #FFFFF0",
"I.	c #FFF6F7",
"J.	c #FDEAE6",
"K.	c #352721",
"L.	c #1B0400",
"M.	c #C6C6C6",
"N.	c #B2B2B2",
"O.	c #8D6C63",
"P.	c #FFE6E3",
"Q.	c #B27C79",
"R.	c #461B17",
"S.	c #2A0804",
"T.	c #2B0D05",
"U.	c #AC8982",
"V.	c #FAEAE9",
"W.	c #EAD9B3",
"X.	c #684500",
"Y.	c #BD9200",
"Z.	c #C59800",
"`.	c #A67100",
" +	c #DDB500",
".+	c #E3CA46",
"++	c #D3B8AF",
"@+	c #FFFAF9",
"#+	c #AD8880",
"$+	c #69463C",
"%+	c #C7A69B",
"&+	c #E9C7BA",
"*+	c #FCFAFA",
"=+	c #E5E5E5",
"-+	c #3C1C14",
";+	c #F0CCC5",
">+	c #DFA9A6",
",+	c #380B0A",
"'+	c #170000",
")+	c #613F38",
"!+	c #9C6954",
"~+	c #965C2E",
"{+	c #86510E",
"]+	c #C08F6F",
"^+	c #FFEFF0",
"/+	c #BD9C8B",
"(+	c #391F00",
"_+	c #88690A",
":+	c #CDA614",
"<+	c #512E00",
"[+	c #552C00",
"}+	c #C99C00",
"|+	c #D2A200",
"1+	c #DAB959",
"2+	c #F0CFC9",
"3+	c #E3BCB3",
"4+	c #BD8B7E",
"5+	c #F4D3C7",
"6+	c #606060",
"7+	c #59372E",
"8+	c #FFE2DA",
"9+	c #FFE9E6",
"0+	c #A66963",
"a+	c #0D0000",
"b+	c #543934",
"c+	c #9F6C4C",
"d+	c #884F01",
"e+	c #804800",
"f+	c #763F00",
"g+	c #734100",
"h+	c #A06834",
"i+	c #ECBFBA",
"j+	c #8D593E",
"k+	c #8B6C34",
"l+	c #D7B95E",
"m+	c #715200",
"n+	c #A3864C",
"o+	c #9B762F",
"p+	c #562B00",
"q+	c #955B00",
"r+	c #E3B800",
"s+	c #DDB390",
"t+	c #F7D4D0",
"u+	c #F0D7D2",
"v+	c #D9ADA6",
"w+	c #E9C2B9",
"x+	c #AFA7A4",
"y+	c #FFE4DF",
"z+	c #F1ADA8",
"A+	c #75372F",
"B+	c #544B44",
"C+	c #B5903C",
"D+	c #693B00",
"E+	c #754100",
"F+	c #794600",
"G+	c #8F6600",
"H+	c #A36E00",
"I+	c #8C5400",
"J+	c #A27846",
"K+	c #BF9069",
"L+	c #FADDAD",
"M+	c #C0A35B",
"N+	c #956E00",
"O+	c #B88B15",
"P+	c #997118",
"Q+	c #381100",
"R+	c #935B00",
"S+	c #EDC91A",
"T+	c #DDB582",
"U+	c #C67E72",
"V+	c #E4B6AC",
"W+	c #FFF0ED",
"X+	c #EEF0F0",
"Y+	c #CBC7C6",
"Z+	c #D49D93",
"`+	c #3E0B02",
" @	c #633F32",
".@	c #98796C",
"+@	c #C7A680",
"@@	c #6F4900",
"#@	c #714500",
"$@	c #885600",
"%@	c #8B5E00",
"&@	c #D0A800",
"*@	c #AC6900",
"=@	c #CF8800",
"-@	c #AD7E17",
";@	c #FFEAB6",
">@	c #FFF1BF",
",@	c #E6C998",
"'@	c #987924",
")@	c #553B00",
"!@	c #905100",
"~@	c #9B6C00",
"{@	c #DCBA0A",
"]@	c #BA854C",
"^@	c #D29589",
"/@	c #F1C7BC",
"(@	c #FFFDF9",
"_@	c #DFCBC5",
":@	c #8E8E8E",
"<@	c #693C2C",
"[@	c #82510E",
"}@	c #754C00",
"|@	c #A06E00",
"1@	c #8D5E00",
"2@	c #AF8000",
"3@	c #AA7800",
"4@	c #BC9800",
"5@	c #D6A300",
"6@	c #C38300",
"7@	c #824F00",
"8@	c #1B0000",
"9@	c #F1D7A6",
"0@	c #FFF3C0",
"a@	c #FFEAB9",
"b@	c #C5AF8B",
"c@	c #2E251B",
"d@	c #854B00",
"e@	c #A86B00",
"f@	c #A67E00",
"g@	c #9B7200",
"h@	c #C08C46",
"i@	c #F9DDDD",
"j@	c #FFF4EF",
"k@	c #F4C9BC",
"l@	c #F3C7BC",
"m@	c #FFF6EF",
"n@	c #9E9E9E",
"o@	c #131313",
"p@	c #6E4941",
"q@	c #92541A",
"r@	c #552A00",
"s@	c #9D7200",
"t@	c #ECC91C",
"u@	c #DDB000",
"v@	c #E3B900",
"w@	c #BF8900",
"x@	c #E0C228",
"y@	c #C99800",
"z@	c #AF7E05",
"A@	c #A08F6C",
"B@	c #321A00",
"C@	c #EDD2A0",
"D@	c #FFECB9",
"E@	c #E9D2A6",
"F@	c #41321A",
"G@	c #995900",
"H@	c #A66600",
"I@	c #906600",
"J@	c #956600",
"K@	c #E6C571",
"L@	c #ECC6C7",
"M@	c #E4BAAF",
"N@	c #E9C5BA",
"O@	c #E6E7E8",
"P@	c #D7D4D2",
"Q@	c #494949",
"R@	c #696161",
"S@	c #CD9875",
"T@	c #754200",
"U@	c #9C6B00",
"V@	c #E4C01E",
"W@	c #FFFFA2",
"X@	c #FFE63F",
"Y@	c #F9D311",
"Z@	c #F0D22B",
"`@	c #C79D00",
" #	c #B07F07",
".#	c #270B00",
"+#	c #EAD0A0",
"@#	c #FFEDBD",
"##	c #B37358",
"$#	c #AC342A",
"%#	c #D2716C",
"&#	c #D67B6E",
"*#	c #B68200",
"=#	c #D7B546",
"-#	c #E9C3C3",
";#	c #FFFDFA",
">#	c #FDE0D7",
",#	c #F3CABF",
"'#	c #A89E9C",
")#	c #F6F7F7",
"!#	c #B1B1B1",
"~#	c #464646",
"{#	c #F9ECEF",
"]#	c #A87824",
"^#	c #A27200",
"/#	c #D7AC00",
"(#	c #FFEF66",
"_#	c #FFFFA6",
":#	c #FFF161",
"<#	c #FFE22E",
"[#	c #EAC000",
"}#	c #E4BC00",
"|#	c #DCB20E",
"1#	c #DCBD88",
"2#	c #351B00",
"3#	c #523408",
"4#	c #FFE7B6",
"5#	c #FFEAB8",
"6#	c #C05B4C",
"7#	c #AF382F",
"8#	c #C76354",
"9#	c #C2820B",
"0#	c #EAC921",
"a#	c #C69F3E",
"b#	c #D9A099",
"c#	c #EFBDB2",
"d#	c #EFB09F",
"e#	c #D9A598",
"f#	c #B6B6B6",
"g#	c #878485",
"h#	c #B68815",
"i#	c #D6AD00",
"j#	c #FAE04C",
"k#	c #FFF369",
"l#	c #FFE649",
"m#	c #FFE34C",
"n#	c #FCE444",
"o#	c #ECC221",
"p#	c #DC8D4C",
"q#	c #DA7F72",
"r#	c #C6665B",
"s#	c #BA5144",
"t#	c #EF997C",
"u#	c #FFE4B5",
"v#	c #F6D9A9",
"w#	c #FFE3B2",
"x#	c #FFEFC6",
"y#	c #D2A348",
"z#	c #E4AC00",
"A#	c #F9D424",
"B#	c #FFEA5C",
"C#	c #D4BA55",
"D#	c #B9725F",
"E#	c #E09D8F",
"F#	c #C1A098",
"G#	c #C9C5C4",
"H#	c #353333",
"I#	c #82686C",
"J#	c #C9A246",
"K#	c #FFE932",
"L#	c #FFFFC5",
"M#	c #FFE22F",
"N#	c #DFB000",
"O#	c #E7C31F",
"P#	c #F1D337",
"Q#	c #B98600",
"R#	c #DD8D5B",
"S#	c #C3594E",
"T#	c #AF382E",
"U#	c #B33F35",
"V#	c #E97661",
"W#	c #FAC299",
"X#	c #F6D7A8",
"Y#	c #DCBD90",
"Z#	c #F7D9AA",
"`#	c #F3D9AF",
" $	c #906E00",
".$	c #E6B500",
"+$	c #E2B904",
"@$	c #BA8800",
"#$	c #F7D617",
"$$	c #D9AF7F",
"%$	c #A38381",
"&$	c #F7F7F7",
"*$	c #B9B9B9",
"=$	c #312F2F",
"-$	c #A29698",
";$	c #CCB092",
">$	c #FFEA75",
",$	c #FFF76F",
"'$	c #D4A500",
")$	c #C79600",
"!$	c #E4C01B",
"~$	c #CCA50D",
"{$	c #C5A00F",
"]$	c #FFE32E",
"^$	c #E09545",
"/$	c #D07F54",
"($	c #FCDCB5",
"_$	c #FFF3C2",
":$	c #BD9B62",
"<$	c #8C6622",
"[$	c #CCAA78",
"}$	c #FFE9BC",
"|$	c #96762A",
"1$	c #956200",
"2$	c #BA8300",
"3$	c #804B00",
"4$	c #B98200",
"5$	c #FCD40D",
"6$	c #FFF180",
"7$	c #B0B0AF",
"8$	c #ECE3E1",
"9$	c #F5DCD8",
"0$	c #BF998C",
"a$	c #DDB931",
"b$	c #D3A500",
"c$	c #B88900",
"d$	c #BC8F00",
"e$	c #EACD3E",
"f$	c #B68C00",
"g$	c #FFF495",
"h$	c #FFEA37",
"i$	c #E7B600",
"j$	c #CDA522",
"k$	c #FFEDBF",
"l$	c #FFF6C5",
"m$	c #FFF4C2",
"n$	c #FFFDCD",
"o$	c #FFFAC6",
"p$	c #99793C",
"q$	c #5B2B00",
"r$	c #985C00",
"s$	c #794200",
"t$	c #622A00",
"u$	c #C38C00",
"v$	c #FFE02E",
"w$	c #EFC927",
"x$	c #F7EAAC",
"y$	c #D6D6D8",
"z$	c #FFFEFD",
"A$	c #E3C1BB",
"B$	c #D4A8A2",
"C$	c #AD6F4C",
"D$	c #D4B217",
"E$	c #A27C00",
"F$	c #D4AF00",
"G$	c #A98907",
"H$	c #FCE986",
"I$	c #B38B01",
"J$	c #FFFFC3",
"K$	c #FFE634",
"L$	c #E3B300",
"M$	c #C79F34",
"N$	c #F0D4A2",
"O$	c #FFE6B2",
"P$	c #FADFA6",
"Q$	c #D3B275",
"R$	c #734C08",
"S$	c #380E00",
"T$	c #9F6800",
"U$	c #A26600",
"V$	c #885100",
"W$	c #451200",
"X$	c #9C6200",
"Y$	c #FFDA21",
"Z$	c #E2BA1E",
"`$	c #ECD06B",
" %	c #C2C3C5",
".%	c #FCE7E1",
"+%	c #BA7E72",
"@%	c #D2A65C",
"#%	c #C39D00",
"$%	c #AF9314",
"%%	c #E4C512",
"&%	c #AA8F27",
"*%	c #FFF9C0",
"=%	c #936300",
"-%	c #FFFFD4",
";%	c #FFEC4E",
">%	c #E4B800",
",%	c #AD8211",
"'%	c #967242",
")%	c #0E0000",
"!%	c #886938",
"~%	c #623500",
"{%	c #2E0000",
"]%	c #C2A018",
"^%	c #D7A000",
"/%	c #B07600",
"(%	c #865C00",
"_%	c #593400",
":%	c #733900",
"<%	c #DCAA00",
"[%	c #DCAD00",
"}%	c #B8A664",
"|%	c #F2F2F2",
"1%	c #F6E4E3",
"2%	c #FFF0A0",
"3%	c #B68D00",
"4%	c #927512",
"5%	c #F9DF4F",
"6%	c #9C7200",
"7%	c #FDEA98",
"8%	c #834E00",
"9%	c #E6D37B",
"0%	c #FFF17F",
"a%	c #E9BC00",
"b%	c #B58600",
"c%	c #AF8F51",
"d%	c #1A1201",
"e%	c #E2D2AD",
"f%	c #C5A67B",
"g%	c #865100",
"h%	c #FFFD7C",
"i%	c #DCA900",
"j%	c #B37800",
"k%	c #ECC67C",
"l%	c #BCA35F",
"m%	c #AC7200",
"n%	c #A57710",
"o%	c #DEDCD7",
"p%	c #EDC9C2",
"q%	c #CFA982",
"r%	c #D6AF11",
"s%	c #4B1C00",
"t%	c #AC8B07",
"u%	c #805200",
"v%	c #9F833F",
"w%	c #AC7C00",
"x%	c #B58200",
"y%	c #DABA41",
"z%	c #F0C70A",
"A%	c #C58C00",
"B%	c #C0960D",
"C%	c #F3DCB6",
"D%	c #EDD0C2",
"E%	c #C0907E",
"F%	c #8F6334",
"G%	c #D9C55F",
"H%	c #FFE014",
"I%	c #DDAC00",
"J%	c #DFA94B",
"K%	c #FFFFED",
"L%	c #986500",
"M%	c #9F907E",
"N%	c #F0DBD6",
"O%	c #E0AC9D",
"P%	c #B6715F",
"Q%	c #CFB0A9",
"R%	c #E7D0A8",
"S%	c #CC9B5F",
"T%	c #BC8639",
"U%	c #371100",
"V%	c #C59C00",
"W%	c #925900",
"X%	c #D4B32F",
"Y%	c #F9D321",
"Z%	c #CF9500",
"`%	c #D9A500",
" &	c #E0BA35",
".&	c #EFCDCA",
"+&	c #C09389",
"@&	c #986862",
"#&	c #58381C",
"$&	c #F7DC3E",
"%&	c #F7D015",
"&&	c #DDAD24",
"*&	c #FCD4C0",
"=&	c #FFF6F1",
"-&	c #A3987B",
";&	c #F8F8F8",
">&	c #F0D9D3",
",&	c #E9D6D0",
"'&	c #FCF6F4",
")&	c #FFF1EE",
"!&	c #F0E7E5",
"~&	c #CAC8C8",
"{&	c #EEE5C6",
"]&	c #EFE3C6",
"^&	c #FBF6DA",
"/&	c #FFFCE4",
"(&	c #F6EDD0",
"_&	c #FFF7D0",
":&	c #FFFCE2",
"<&	c #F2ECED",
"[&	c #F2E7E5",
"}&	c #FFF9F8",
"|&	c #E3DCD8",
"1&	c #E7DBB0",
"2&	c #F7EBB4",
"3&	c #F8EBB9",
"4&	c #F4E1D3",
"5&	c #F4DEDE",
"6&	c #CAC6C8",
"  . + @ # $ % & % % & $ * = = - .       ; > ,   '               ",
"  - ) ! ~ { ] ^ ^ ^ ^ ^ / ( _ : < [   [ }       | ;             ",
"  1 2 3 3 3 3 3 3 3 3 3 3 3 4 5 3 6 7 8           9             ",
"0 a 3 3 3 3 3 3 3 3 3 3 3 b   c 3 3 3 d         e f             ",
"g h 3 3 3 3 3 3 3 3 3 3 3 i   j 3 3 k         l m n             ",
"[ o 3 3 3 3 3 3 3 3 3 3 3 p   q 3 3 r   s t u v   w             ",
"= a 3 3 3 3 3 3 3 3 3 3 x     y 3 3 z A B C D     E F           ",
"G H 3 3 3 3 3 3 3 3 I J K     L 3 M N O P     Q R S T           ",
"U 3 3 3 3 3 3 3 3 V       W   X 3 Y Z   `  ...+.@.#.] o $.%.&.*.",
"=.3 3 3 3 3 3 3 -.;.      >.,.'.).!.~.{.].^.3 3 3 /.3 3 3 3 3 (.",
"_.3 3 3 3 3 3 3 3 :.<.[.}.|.1.2.3.4.5.6.k 3 7.8.9.0.a.b.3 3 3 c.",
"d.3 3 3 3 3 3 3 3 3 e.f.g.h.i.j.3 k.l.m.n.o.p.        q.3 3 3 r.",
"s.] 6 3 3 3 3 t.u.v.w.x.y.z.3 3 A.B.C.D.E.F.G.H.I.J.  K.3 3 L.M.",
"T N.3 3 3 3 O.u P.Q.R.S.3 T.U.V.  W.X.Y.Z.`. +.+++@+  #+$+%+&+*+",
"  =+2 3 -+;+  >+,+'+)+!+~+{+]+^+/+(+_+:+<+[+}+|+1+2+    3+4+5+  ",
"  F 6+7+8+9+0+a+b+c+d+e+f+g+h+i+j+k+l+m+n+o+p+q+r+s+t+u+v+w+    ",
"    x+y+z+A+3 B+C+D+E+F+G+H+I+J+K+L+M+N+O+P+Q+R+S+T+U+V+W+    X+",
"    Y+Z+`+ @.@+@@@#@$@%@&@*@=@-@;@>@,@'@)@!@R+~@{@]@^@/@    (@_@",
"    :@3 <@[@}@|@1@2@3@4@5@6@7@8@9@0@a@b@c@d@e@f@g@h@i@  j@k@l@m@",
"  n@o@p@q@r@s@t@u@v@w@x@y@z@A@B@C@0@D@E@F@G@H@I@J@K@L@j@M@N@  O@",
"P@Q@R@S@T@U@V@W@X@Y@5@Z@`@ #.#a++#0@a@@###$#%#&#*#=#-#;#>#,#'#)#",
"!#~#{#]#^#/#(#_#:#<#[#}#|#1#2#3#4#0@5#D@6#7#8#9#0#a#b#c#d#e#=   ",
"f#g#  h#i#j#k#l#m#n#o#p#q#r#s#t#u#>@v#w#x#y#z#A#B#C#D#E#F#G#    ",
"(.H#I#J#K#L#M#N#O#P#Q#R#S#T#U#V#W#X#Y#Z#`# $.$+$@$#$$$%$&$      ",
"*$=$-$;$>$,$'$)$!$~${$]$^$/$($_$:$<$[$}$|$1$2$3$4$5$6$7$        ",
"8$9$  0$a$b$c$d$e$f$g$h$i$j$k$l$m$n$o$p$q$r$s$t$u$v$w$x$y$      ",
"z$A$B$C$D$E$F$G$H$I$J$K$L$M$N$O$P$Q$R$S$T$U$V$W$X$Y$Z$`$ %      ",
"  .%+%@%#%$%%%&%*%=%-%;%>%,%'%)%!%~%{%]%^%/%(%_%:%<%[%}%|%      ",
"  P 1%2%3%4%5%6%7%8%9%0%a%b%c%d%e%f%g%h%i%j%k%  l%m%n%o%        ",
"    p%q%r%s%t%u%v%w%x%y%z%A%B%C%D%E%F%G%H%I%J%  K%L%M%          ",
"N%O%P%Q%R%S%T%U%3 V%W%X%Y%Z%`% &.&+&@&#&$&%&&&*&=&-&;&          ",
">&,&'&      )&!&~&{&]&^&/&(&_&:&<&[&}&|&1&2&3&4&5&6&            "};
