/* XPM */
static char * a_xpm[] = {
"32 32 68 1",
" 	c None",
".	c #000000",
"+	c #1F1F1F",
"@	c #7F7F7F",
"#	c #3F3F3F",
"$	c #FFFFFF",
"%	c #9F9F9F",
"&	c #5F5F5F",
"*	c #3F1F1F",
"=	c #5F3F3F",
"-	c #DFBFBF",
";	c #9F7F7F",
">	c #BF9F9F",
",	c #DFBFDF",
"'	c #BFBF9F",
")	c #9F9F7F",
"!	c #FFDFDF",
"~	c #1F0000",
"{	c #DFDFDF",
"]	c #FFFFDF",
"^	c #7F7F00",
"/	c #FFDFBF",
"(	c #BF7F7F",
"_	c #9F5F7F",
":	c #FFFFBF",
"<	c #FFDFFF",
"[	c #DFDF5F",
"}	c #9FBF00",
"|	c #BFBFBF",
"1	c #9F5F5F",
"2	c #BFBF5F",
"3	c #BFBF00",
"4	c #DFDF1F",
"5	c #DFBF9F",
"6	c #9F9F1F",
"7	c #5F5F00",
"8	c #9F9F00",
"9	c #DFDF00",
"0	c #FFFF00",
"a	c #FFFF5F",
"b	c #FFFF1F",
"c	c #FFFF7F",
"d	c #FFFF9F",
"e	c #DFDF3F",
"f	c #DFBF7F",
"g	c #FFFF3F",
"h	c #DFDFBF",
"i	c #FFDF9F",
"j	c #FFDF1F",
"k	c #DF9FBF",
"l	c #DFFF00",
"m	c #1F1F00",
"n	c #5F5F3F",
"o	c #DFDF9F",
"p	c #BF9F00",
"q	c #FF0000",
"r	c #FFDF7F",
"s	c #5F7F00",
"t	c #1F001F",
"u	c #3F3F1F",
"v	c #5F5F1F",
"w	c #3F3F00",
"x	c #FFBFBF",
"y	c #DFBF00",
"z	c #BF9F7F",
"A	c #9F7F00",
"B	c #BFBF7F",
"C	c #9F7F3F",
"            ...........         ",
"           .............        ",
"      .  ................+      ",
"     .....................      ",
"    .......................     ",
"     ...............@......     ",
"      ..# .........@$@.....     ",
"      ..    %.....@$$$@....#    ",
"            $$@..+$$$$@..+#&#+. ",
"           .%$$*.=-;*...++++....",
"          ..@$>&&;+.............",
"     .....#+$$,>>+.....#&%');=..",
".........#$$$!$>.....~{!$]^^/$-#",
".........&$!((_+....#-:/<[}}^/$|",
".........+_(1*.....&$234/4}}}5{+",
"..................&:6789933}44$&",
".................&]383^30334a4$$",
"................=]..337^0.^bb4$$",
"...............=<]98.777.0cd0d,/",
"..............;/:e877fff7^900gh!",
".............;i4j87k.fff.^^90l:$",
"...........m-3f838nk.]]].7^309o$",
"..........*k33!3887$.]]].88393/<",
".........+$36^a9pqq]]:/rq7990e$$",
".........633s^098qq:]]///789gd$$",
"&+t+.+uv883[83098/]/5nn[w^89f-!$",
"!x,!5^^883000ggy8f]]/:zw^894/o!!",
" $$]^83330000g:9A855BCw^8899!$$ ",
"    33da900b03b099A..w^88990!$  ",
"    30]:bbaca380099AA^899900!$  ",
"    a0ag09:$a3s9000eee899000    ",
"    cg00034a03300a00ee990000    "};
