<?xml version="1.0" encoding="UTF-8"?>
<svg inkscape:version="1.0.2 (e86c870879, 2021-01-15, custom)" sodipodi:docname="Apache_Tika_logo.svg" version="1.1" viewBox="0 0 362 129" xml:space="preserve" xmlns="http://www.w3.org/2000/svg" xmlns:cc="http://creativecommons.org/ns#" xmlns:dc="http://purl.org/dc/elements/1.1/" xmlns:inkscape="http://www.inkscape.org/namespaces/inkscape" xmlns:rdf="http://www.w3.org/1999/02/22-rdf-syntax-ns#" xmlns:sodipodi="http://sodipodi.sourceforge.net/DTD/sodipodi-0.dtd"><title>Apache  Tika logo</title><metadata><rdf:RDF><cc:Work rdf:about=""><dc:format>image/svg+xml</dc:format><dc:type rdf:resource="http://purl.org/dc/dcmitype/StillImage"/><dc:title>Apache  Tika logo</dc:title></cc:Work></rdf:RDF></metadata><defs><linearGradient id="cvfu" x1="-6874" x2="-6636" y1="2774" y2="2497" gradientTransform="matrix(.0235 -.0503 -.0503 -.0235 364 -272)" gradientUnits="userSpaceOnUse"><stop style="stop-color:#f59723" offset="0"/><stop style="stop-color:#f69822" offset=".312"/><stop style="stop-color:#e87726" offset=".838"/><stop style="stop-color:#e87726" offset="1"/></linearGradient><clipPath id="cvfp"><path d="m0 0h272v97h-272z"/></clipPath><clipPath id="cvfq"><path d="m0 0h272v97h-272z"/></clipPath><linearGradient id="cvfv" x1="-8631" x2="-6937" y1="2805" y2="2805" gradientTransform="matrix(.0235 -.0503 -.0503 -.0235 364 -272)" gradientUnits="userSpaceOnUse"><stop style="stop-color:#9c2063" offset="0"/><stop style="stop-color:#9c2063" offset=".323"/><stop style="stop-color:#c82037" offset=".63"/><stop style="stop-color:#cc2135" offset=".751"/><stop style="stop-color:#e87726" offset="1"/></linearGradient><linearGradient id="cvfw" x1="-8426" x2="-7417" y1="2635" y2="2635" gradientTransform="matrix(.0235 -.0503 -.0503 -.0235 364 -272)" gradientUnits="userSpaceOnUse"><stop style="stop-color:#282661" offset="0"/><stop style="stop-color:#662e8c" offset=".0955"/><stop style="stop-color:#9e2064" offset=".788"/><stop style="stop-color:#cc2032" offset=".949"/><stop style="stop-color:#cc2032" offset="1"/></linearGradient><linearGradient id="cvfx" x1="-8536" x2="-6842" y1="2821" y2="2821" gradientTransform="matrix(.0235 -.0503 -.0503 -.0235 364 -272)" gradientUnits="userSpaceOnUse"><stop style="stop-color:#9c2063" offset="0"/><stop style="stop-color:#9c2063" offset=".323"/><stop style="stop-color:#c82037" offset=".63"/><stop style="stop-color:#cc2135" offset=".751"/><stop style="stop-color:#e87726" offset="1"/></linearGradient><linearGradient id="cvfy" x1="-8412" x2="-7522" y1="2798" y2="2798" gradientTransform="matrix(.0235 -.0503 -.0503 -.0235 364 -272)" gradientUnits="userSpaceOnUse"><stop style="stop-color:#282661" offset="0"/><stop style="stop-color:#662e8c" offset=".0955"/><stop style="stop-color:#9e2064" offset=".788"/><stop style="stop-color:#cc2032" offset=".949"/><stop style="stop-color:#cc2032" offset="1"/></linearGradient><linearGradient id="cvfz" x1="-8536" x2="-6842" y1="2645" y2="2645" gradientTransform="matrix(.0235 -.0503 -.0503 -.0235 364 -272)" gradientUnits="userSpaceOnUse"><stop style="stop-color:#9c2063" offset="0"/><stop style="stop-color:#9c2063" offset=".323"/><stop style="stop-color:#c82037" offset=".63"/><stop style="stop-color:#cc2135" offset=".751"/><stop style="stop-color:#e87726" offset="1"/></linearGradient><linearGradient id="cvfaa" x1="-8641" x2="-6947" y1="2654" y2="2654" gradientTransform="matrix(.0235 -.0503 -.0503 -.0235 364 -272)" gradientUnits="userSpaceOnUse"><stop style="stop-color:#9c2063" offset="0"/><stop style="stop-color:#9c2063" offset=".323"/><stop style="stop-color:#c82037" offset=".63"/><stop style="stop-color:#cc2135" offset=".751"/><stop style="stop-color:#e87726" offset="1"/></linearGradient><clipPath id="cvfr"><path d="m0 0h272v97h-272z"/></clipPath><linearGradient id="cvfab" x1="-8536" x2="-6842" y1="2593" y2="2593" gradientTransform="matrix(.0235 -.0503 -.0503 -.0235 364 -272)" gradientUnits="userSpaceOnUse"><stop style="stop-color:#9c2063" offset="0"/><stop style="stop-color:#9c2063" offset=".323"/><stop style="stop-color:#c82037" offset=".63"/><stop style="stop-color:#cc2135" offset=".751"/><stop style="stop-color:#e87726" offset="1"/></linearGradient><clipPath id="cvfs"><path d="m0 0h272v97h-272z"/></clipPath><linearGradient id="cvfac" x1="-8536" x2="-6842" y1="2599" y2="2599" gradientTransform="matrix(.0235 -.0503 -.0503 -.0235 364 -272)" gradientUnits="userSpaceOnUse"><stop style="stop-color:#9c2063" offset="0"/><stop style="stop-color:#9c2063" offset=".323"/><stop style="stop-color:#c82037" offset=".63"/><stop style="stop-color:#cc2135" offset=".751"/><stop style="stop-color:#e87726" offset="1"/></linearGradient><clipPath id="cvft"><path d="m0 0h272v97h-272z"/></clipPath><linearGradient id="cvfad" x1="-7584" x2="-7210" y1="2601" y2="2601" gradientTransform="matrix(.0235 -.0503 -.0503 -.0235 364 -272)" gradientUnits="userSpaceOnUse"><stop style="stop-color:#9c2063" offset="0"/><stop style="stop-color:#9c2063" offset=".323"/><stop style="stop-color:#c82037" offset=".63"/><stop style="stop-color:#cc2135" offset=".751"/><stop style="stop-color:#e87726" offset="1"/></linearGradient></defs><sodipodi:namedview bordercolor="#666666" borderopacity="1" gridtolerance="10" guidetolerance="10" inkscape:current-layer="g5251" inkscape:cx="210.43229" inkscape:cy="152.97449" inkscape:document-rotation="0" inkscape:pageopacity="0" inkscape:pageshadow="2" inkscape:window-height="1014" inkscape:window-maximized="1" inkscape:window-width="1920" inkscape:window-x="0" inkscape:window-y="36" inkscape:zoom="1.758537" objecttolerance="10" pagecolor="#ffffff" showgrid="false"/><g transform="matrix(1.33 0 0 1.33 0 7.89e-6)" inkscape:groupmode="layer" inkscape:label="tika"><g transform="matrix(.988 0 0 .963 1.63 2.84)"><path d="m130 30.4-2.61-6.07h-11.8l-2.61 6.07h-6.66l12.1-28.1h6.07l12.1 28.1zm-8.47-19.7-3.54 8.15h7.03z"/><path d="m151 8.46c2.52 0 4.75 1.06 6.7 3.17 1.98 2.09 2.97 4.73 2.97 7.91 0 3.19-0.989 5.85-2.97 7.99-1.95 2.14-4.25 3.22-6.91 3.22-2.62 0-4.74-1.06-6.34-3.17v10.6h-6.02v-29.4h6.02v2.41c1.85-1.85 4.03-2.77 6.55-2.77zm-6.63 11.2c0 1.74 0.484 3.17 1.44 4.3 0.992 1.1 2.18 1.65 3.57 1.65 1.4 0 2.61-0.55 3.66-1.65 1.04-1.12 1.57-2.56 1.57-4.3 0-1.74-0.508-3.2-1.53-4.38-1.02-1.18-2.24-1.77-3.65-1.77-1.42 0-2.62 0.589-3.62 1.77-0.961 1.15-1.44 2.61-1.44 4.38z"/><path d="m184 30.4h-5.66v-2.61c-1.56 1.96-3.48 2.93-5.78 2.93-2.27 0-4.19-0.656-5.74-1.97-1.55-1.34-2.33-3.1-2.33-5.3 0-2.22 0.8-3.88 2.41-4.98 1.6-1.1 3.8-1.64 6.59-1.64h4.5v-0.122c0-2.3-1.22-3.45-3.65-3.45-1.05 0-2.16 0.211-3.34 0.641-1.15 0.402-2.13 0.91-2.93 1.53l-2.69-3.9c2.84-2.06 6.08-3.09 9.72-3.09 2.62 0 4.77 0.656 6.43 1.97 1.66 1.31 2.49 3.39 2.49 6.22zm-6.06-8.24v-1.04h-3.77c-2.41 0-3.62 0.75-3.62 2.25 0 0.777 0.281 1.38 0.844 1.81 0.59 0.402 1.42 0.602 2.49 0.602 1.07 0 2.01-0.321 2.81-0.961 0.832-0.672 1.25-1.56 1.25-2.65z"/><path d="m200 25.4c2.01 0 3.82-1 5.42-3.01l3.58 4.02c-2.78 2.89-5.8 4.34-9.04 4.34-3.24 0-5.98-1.02-8.24-3.05-2.22-2.06-3.33-4.74-3.33-8.04 0-3.32 1.12-6.01 3.37-8.07 2.28-2.09 4.97-3.13 8.07-3.13 1.55 0 3.12 0.32 4.7 0.965 1.6 0.64 3.01 1.59 4.21 2.85l-3.13 4.09c-0.696-0.828-1.55-1.47-2.57-1.93-0.988-0.457-1.98-0.683-2.97-0.683-1.58 0-2.94 0.523-4.09 1.57-1.12 1.02-1.69 2.45-1.69 4.3 0 1.82 0.563 3.24 1.69 4.26 1.15 1.02 2.49 1.52 4.02 1.52z"/><path d="m219 18.8v11.6h-6.02v-29.8h6.02v10.6c1.82-1.85 3.86-2.77 6.1-2.77 2.28 0 4.19 0.801 5.74 2.41 1.56 1.61 2.33 3.75 2.33 6.43v13.1h-6.02v-11.8c0-3.32-1.22-4.98-3.66-4.98-1.2 0-2.26 0.441-3.17 1.32-0.883 0.859-1.33 2.13-1.33 3.82z"/><path d="m257 27.3c-2.44 2.3-5.3 3.45-8.6 3.45-3.27 0-5.97-1-8.11-3.01-2.14-2.04-3.21-4.75-3.21-8.15 0-3.4 1.09-6.1 3.25-8.11 2.2-2.01 4.78-3.01 7.75-3.01 2.97 0 5.49 0.895 7.55 2.69 2.09 1.79 3.13 4.25 3.13 7.39v3.22h-15.7c0.187 1.18 0.801 2.14 1.85 2.89 1.04 0.75 2.22 1.12 3.53 1.12 2.12 0 3.86-0.711 5.22-2.13zm-4.34-9.84c-0.133-1.28-0.614-2.28-1.45-2.97-0.828-0.695-1.85-1.04-3.05-1.04-1.18 0-2.26 0.359-3.25 1.08-0.993 0.722-1.57 1.7-1.73 2.93z"/><path d="m132 48.4v47.5h-9.49v-47.5h-17.1v-8.69h43.6v8.69z" style="fill:#900000"/><path d="m166 96h-9.01v-42.8h9.01zm-8.44-51.3c-1.13-1.13-1.69-2.47-1.69-4.02s0.562-2.9 1.69-4.02c1.12-1.12 2.46-1.69 4.02-1.69 1.56 0 2.9 0.563 4.02 1.69 1.13 1.12 1.69 2.47 1.69 4.02s-0.562 2.9-1.69 4.02c-1.12 1.12-2.46 1.69-4.02 1.69-1.56 0-2.9-0.563-4.02-1.69z" style="fill:#900000"/><path d="m188 96h-9.01v-59.7h9.01v35.1l17.4-18.2h11.6l-16.2 17 17.5 25.8h-10.9l-12.7-18.7-6.52 6.6z" style="fill:#900000"/><path d="m260 96h-8.21v-5.71c-3.54 4.24-8.28 6.36-14.2 6.36-4.45 0-8.15-1.26-11.1-3.78-2.89-2.52-4.34-5.87-4.34-10.1 0-4.24 1.55-7.4 4.67-9.49 3.11-2.09 7.32-3.14 12.6-3.14h11.7v-1.61c0-5.68-3.17-8.53-9.5-8.53-3.97 0-8.1 1.45-12.4 4.34l-4.02-5.63c5.2-4.13 11.1-6.2 17.7-6.2 5.04 0 9.14 1.28 12.3 3.86 3.22 2.52 4.83 6.52 4.83 12zm-9.01-15.9v-3.62h-10.1c-6.49 0-9.74 2.04-9.74 6.11 0 2.09 0.805 3.7 2.41 4.83 1.61 1.07 3.83 1.61 6.68 1.61 2.9 0 5.42-0.805 7.56-2.42 2.14-1.61 3.22-3.78 3.22-6.52z" style="fill:#900000"/><text transform="translate(-.24 6.76)" style="fill:#000000;font-family:'DejaVu Sans';font-size:9.62px"><tspan x="0" y="0">0</tspan></text><path d="m2.81 0.387c-0.481 0-0.844 0.242-1.09 0.718-0.25 0.481-0.375 1.2-0.375 2.16 0 0.961 0.125 1.68 0.375 2.17 0.25 0.48 0.613 0.718 1.09 0.718 0.5 0 0.867-0.238 1.11-0.718 0.25-0.489 0.375-1.21 0.375-2.17 0-0.957-0.125-1.68-0.375-2.16-0.242-0.476-0.609-0.718-1.11-0.718zm0-0.75c0.789 0 1.39 0.312 1.8 0.937 0.415 0.617 0.625 1.51 0.625 2.69 0 1.18-0.21 2.08-0.625 2.7-0.406 0.625-1.01 0.937-1.8 0.937-0.782 0-1.38-0.312-1.8-0.937-0.407-0.625-0.61-1.52-0.61-2.7 0-1.18 0.203-2.07 0.61-2.69 0.414-0.625 1.02-0.937 1.8-0.937z" style="fill:none;stroke-width:.393;stroke:#000"/><text transform="translate(5.88 6.76)" style="fill:#000000;font-family:'DejaVu Sans';font-size:9.62px"><tspan x="0" y="0">0</tspan></text><path d="m8.93 0.387c-0.481 0-0.844 0.242-1.09 0.718-0.25 0.481-0.375 1.2-0.375 2.16 0 0.961 0.125 1.68 0.375 2.17 0.25 0.48 0.613 0.718 1.09 0.718 0.5 0 0.867-0.238 1.11-0.718 0.25-0.489 0.375-1.21 0.375-2.17 0-0.957-0.125-1.68-0.375-2.16-0.242-0.476-0.609-0.718-1.11-0.718zm0-0.75c0.789 0 1.39 0.312 1.8 0.937 0.414 0.617 0.625 1.51 0.625 2.69 0 1.18-0.211 2.08-0.625 2.7-0.407 0.625-1.01 0.937-1.8 0.937-0.782 0-1.38-0.312-1.8-0.937-0.406-0.625-0.61-1.52-0.61-2.7 0-1.18 0.204-2.07 0.61-2.69 0.414-0.625 1.02-0.937 1.8-0.937z" style="fill:none;stroke-width:.393;stroke:#000"/><text transform="translate(12,6.76)" style="fill:#000000;font-family:'DejaVu Sans';font-size:9.62px"><tspan x="0" y="0">1</tspan></text><path d="m13.2 5.96h1.55v-5.34l-1.67 0.344v-0.875l1.67-0.328h0.938v6.2h1.56v0.797h-4.05z" style="fill:none;stroke-width:.393;stroke:#000"/><text transform="translate(18.1 6.76)" style="fill:#000000;font-family:'DejaVu Sans';font-size:9.62px"><tspan x="0" y="0">0</tspan></text><path d="m21.2 0.387c-0.481 0-0.844 0.242-1.09 0.718-0.25 0.481-0.375 1.2-0.375 2.16 0 0.961 0.125 1.68 0.375 2.17 0.25 0.48 0.613 0.718 1.09 0.718 0.5 0 0.867-0.238 1.11-0.718 0.25-0.489 0.375-1.21 0.375-2.17 0-0.957-0.125-1.68-0.375-2.16-0.242-0.476-0.609-0.718-1.11-0.718zm0-0.75c0.789 0 1.39 0.312 1.8 0.937 0.414 0.617 0.625 1.51 0.625 2.69 0 1.18-0.211 2.08-0.625 2.7-0.407 0.625-1.01 0.937-1.8 0.937-0.781 0-1.38-0.312-1.8-0.937-0.406-0.625-0.609-1.52-0.609-2.7 0-1.18 0.203-2.07 0.609-2.69 0.414-0.625 1.02-0.937 1.8-0.937z" style="fill:none;stroke-width:.393;stroke:#000"/><text transform="translate(24.2 6.76)" style="fill:#000000;font-family:'DejaVu Sans';font-size:9.62px"><tspan x="0" y="0">1</tspan></text><path d="m25.4 5.96h1.55v-5.34l-1.67 0.344v-0.875l1.67-0.328h0.938v6.2h1.56v0.797h-4.05z" style="fill:none;stroke-width:.393;stroke:#000"/><text transform="translate(30.4 6.76)" style="fill:#000000;font-family:'DejaVu Sans';font-size:9.62px"><tspan x="0" y="0">1</tspan></text><path d="m31.6 5.96h1.55v-5.34l-1.67 0.344v-0.875l1.67-0.328h0.938v6.2h1.56v0.797h-4.05z" style="fill:none;stroke-width:.393;stroke:#000"/><text transform="translate(36.5 6.76)" style="fill:#000000;font-family:'DejaVu Sans';font-size:9.62px"><tspan x="0" y="0">1</tspan></text><path d="m37.7 5.96h1.55v-5.34l-1.67 0.344v-0.875l1.67-0.328h0.937v6.2h1.56v0.797h-4.05z" style="fill:none;stroke-width:.393;stroke:#000"/><text transform="translate(42.6 6.76)" style="fill:#000000;font-family:'DejaVu Sans';font-size:9.62px"><tspan x="0" y="0">1</tspan></text><path d="m43.8 5.96h1.55v-5.34l-1.67 0.344v-0.875l1.67-0.328h0.937v6.2h1.56v0.797h-4.05z" style="fill:none;stroke-width:.393;stroke:#000"/><text transform="translate(48.7 6.76)" style="fill:#000000;font-family:'DejaVu Sans';font-size:9.62px"><tspan x="0" y="0">0</tspan></text><path d="m51.8 0.387c-0.48 0-0.844 0.242-1.09 0.718-0.25 0.481-0.375 1.2-0.375 2.16 0 0.961 0.125 1.68 0.375 2.17 0.25 0.48 0.614 0.718 1.09 0.718 0.5 0 0.867-0.238 1.11-0.718 0.25-0.489 0.375-1.21 0.375-2.17 0-0.957-0.125-1.68-0.375-2.16-0.243-0.476-0.61-0.718-1.11-0.718zm0-0.75c0.789 0 1.39 0.312 1.8 0.937 0.414 0.617 0.625 1.51 0.625 2.69 0 1.18-0.211 2.08-0.625 2.7-0.406 0.625-1.01 0.937-1.8 0.937-0.781 0-1.38-0.312-1.8-0.937-0.406-0.625-0.609-1.52-0.609-2.7 0-1.18 0.203-2.07 0.609-2.69 0.414-0.625 1.02-0.937 1.8-0.937z" style="fill:none;stroke-width:.393;stroke:#000"/><text transform="translate(54.9 6.76)" style="fill:#000000;font-family:'DejaVu Sans';font-size:9.62px"><tspan x="0" y="0">0</tspan></text><path d="m57.9 0.387c-0.48 0-0.844 0.242-1.09 0.718-0.25 0.481-0.374 1.2-0.374 2.16 0 0.961 0.124 1.68 0.374 2.17 0.25 0.48 0.614 0.718 1.09 0.718 0.5 0 0.867-0.238 1.11-0.718 0.25-0.489 0.375-1.21 0.375-2.17 0-0.957-0.125-1.68-0.375-2.16-0.243-0.476-0.61-0.718-1.11-0.718zm0-0.75c0.789 0 1.39 0.312 1.8 0.937 0.414 0.617 0.625 1.51 0.625 2.69 0 1.18-0.211 2.08-0.625 2.7-0.406 0.625-1.01 0.937-1.8 0.937-0.781 0-1.38-0.312-1.8-0.937-0.406-0.625-0.609-1.52-0.609-2.7 0-1.18 0.203-2.07 0.609-2.69 0.414-0.625 1.02-0.937 1.8-0.937z" style="fill:none;stroke-width:.393;stroke:#000"/><text transform="translate(61 6.76)" style="fill:#000000;font-family:'DejaVu Sans';font-size:9.62px"><tspan x="0" y="0">0</tspan></text><path d="m64 0.387c-0.48 0-0.843 0.242-1.09 0.718-0.25 0.481-0.375 1.2-0.375 2.16 0 0.961 0.125 1.68 0.375 2.17 0.25 0.48 0.613 0.718 1.09 0.718 0.5 0 0.868-0.238 1.11-0.718 0.25-0.489 0.375-1.21 0.375-2.17 0-0.957-0.125-1.68-0.375-2.16-0.242-0.476-0.61-0.718-1.11-0.718zm0-0.75c0.789 0 1.39 0.312 1.8 0.937 0.414 0.617 0.625 1.51 0.625 2.69 0 1.18-0.211 2.08-0.625 2.7-0.406 0.625-1.01 0.937-1.8 0.937-0.781 0-1.38-0.312-1.8-0.937-0.406-0.625-0.609-1.52-0.609-2.7 0-1.18 0.203-2.07 0.609-2.69 0.415-0.625 1.02-0.937 1.8-0.937z" style="fill:none;stroke-width:.393;stroke:#000"/><text transform="translate(67.1,6.76)" style="fill:#000000;font-family:'DejaVu Sans';font-size:9.62px"><tspan x="0" y="0">0</tspan></text><path d="m70.2 0.387c-0.48 0-0.843 0.242-1.09 0.718-0.25 0.481-0.375 1.2-0.375 2.16 0 0.961 0.125 1.68 0.375 2.17 0.25 0.48 0.613 0.718 1.09 0.718 0.5 0 0.868-0.238 1.11-0.718 0.25-0.489 0.375-1.21 0.375-2.17 0-0.957-0.125-1.68-0.375-2.16-0.242-0.476-0.61-0.718-1.11-0.718zm0-0.75c0.79 0 1.39 0.312 1.8 0.937 0.414 0.617 0.625 1.51 0.625 2.69 0 1.18-0.211 2.08-0.625 2.7-0.406 0.625-1.01 0.937-1.8 0.937-0.781 0-1.38-0.312-1.8-0.937-0.407-0.625-0.61-1.52-0.61-2.7 0-1.18 0.203-2.07 0.61-2.69 0.414-0.625 1.02-0.937 1.8-0.937z" style="fill:none;stroke-width:.393;stroke:#000"/><text transform="translate(73.2 6.76)" style="fill:#000000;font-family:'DejaVu Sans';font-size:9.62px"><tspan x="0" y="0">1</tspan></text><path d="m74.4 5.96h1.55v-5.34l-1.67 0.344v-0.875l1.67-0.328h0.937v6.2h1.56v0.797h-4.05z" style="fill:none;stroke-width:.393;stroke:#000"/><text transform="translate(79.4 6.76)" style="fill:#000000;font-family:'DejaVu Sans';font-size:9.62px"><tspan x="0" y="0">1</tspan></text><path d="m80.5 5.96h1.55v-5.34l-1.67 0.344v-0.875l1.67-0.328h0.938v6.2h1.56v0.797h-4.05z" style="fill:none;stroke-width:.393;stroke:#000"/><text transform="translate(85.5 6.76)" style="fill:#000000;font-family:'DejaVu Sans';font-size:9.62px"><tspan x="0" y="0">0</tspan></text><path d="m88.5 0.387c-0.481 0-0.844 0.242-1.09 0.718-0.25 0.481-0.375 1.2-0.375 2.16 0 0.961 0.125 1.68 0.375 2.17 0.25 0.48 0.613 0.718 1.09 0.718 0.5 0 0.867-0.238 1.11-0.718 0.25-0.489 0.375-1.21 0.375-2.17 0-0.957-0.125-1.68-0.375-2.16-0.242-0.476-0.609-0.718-1.11-0.718zm0-0.75c0.789 0 1.39 0.312 1.8 0.937 0.415 0.617 0.626 1.51 0.626 2.69 0 1.18-0.211 2.08-0.626 2.7-0.406 0.625-1.01 0.937-1.8 0.937-0.782 0-1.38-0.312-1.8-0.937-0.407-0.625-0.61-1.52-0.61-2.7 0-1.18 0.203-2.07 0.61-2.69 0.414-0.625 1.02-0.937 1.8-0.937z" style="fill:none;stroke-width:.393;stroke:#000"/><text transform="translate(91.6 6.76)" style="fill:#000000;font-family:'DejaVu Sans';font-size:9.62px"><tspan x="0" y="0">0</tspan></text><path d="m94.6 0.387c-0.481 0-0.844 0.242-1.09 0.718-0.25 0.481-0.375 1.2-0.375 2.16 0 0.961 0.125 1.68 0.375 2.17 0.25 0.48 0.613 0.718 1.09 0.718 0.5 0 0.867-0.238 1.11-0.718 0.25-0.489 0.375-1.21 0.375-2.17 0-0.957-0.125-1.68-0.375-2.16-0.242-0.476-0.609-0.718-1.11-0.718zm0-0.75c0.789 0 1.39 0.312 1.8 0.937 0.414 0.617 0.625 1.51 0.625 2.69 0 1.18-0.211 2.08-0.625 2.7-0.407 0.625-1.01 0.937-1.8 0.937-0.782 0-1.38-0.312-1.8-0.937-0.406-0.625-0.61-1.52-0.61-2.7 0-1.18 0.204-2.07 0.61-2.69 0.414-0.625 1.02-0.937 1.8-0.937z" style="fill:none;stroke-width:.393;stroke:#000"/><text transform="translate(-.24 17.9)" style="fill:#000000;font-family:'DejaVu Sans';font-size:9.62px"><tspan x="0" y="0">1</tspan></text><path d="m0.949 17.1h1.55v-5.34l-1.67 0.344v-0.875l1.67-0.328h0.938v6.2h1.56v0.797h-4.05z" style="fill:none;stroke-width:.393;stroke:#000"/><text transform="translate(5.88 17.9)" style="fill:#000000;font-family:'DejaVu Sans';font-size:9.62px"><tspan x="0" y="0">1</tspan></text><path d="m7.07 17.1h1.55v-5.34l-1.67 0.344v-0.875l1.67-0.328h0.938v6.2h1.56v0.797h-4.05z" style="fill:none;stroke-width:.393;stroke:#000"/><text transform="translate(12 17.9)" style="fill:#000000;font-family:'DejaVu Sans';font-size:9.62px"><tspan x="0" y="0">0</tspan></text><path d="m15 11.5c-0.481 0-0.844 0.242-1.09 0.719-0.25 0.48-0.375 1.2-0.375 2.16 0 0.961 0.125 1.68 0.375 2.17 0.25 0.48 0.613 0.719 1.09 0.719 0.5 0 0.867-0.239 1.11-0.719 0.25-0.488 0.375-1.21 0.375-2.17 0-0.957-0.125-1.68-0.375-2.16-0.242-0.477-0.609-0.719-1.11-0.719zm0-0.75c0.789 0 1.39 0.313 1.8 0.938 0.414 0.617 0.625 1.51 0.625 2.69 0 1.18-0.211 2.08-0.625 2.7-0.407 0.625-1.01 0.938-1.8 0.938-0.781 0-1.38-0.313-1.8-0.938-0.406-0.625-0.609-1.52-0.609-2.7 0-1.18 0.203-2.07 0.609-2.69 0.414-0.625 1.02-0.938 1.8-0.938z" style="fill:none;stroke-width:.393;stroke:#000"/><text transform="translate(18.1 17.9)" style="fill:#000000;font-family:'DejaVu Sans';font-size:9.62px"><tspan x="0" y="0">0</tspan></text><path d="m21.2 11.5c-0.481 0-0.844 0.242-1.09 0.719-0.25 0.48-0.375 1.2-0.375 2.16 0 0.961 0.125 1.68 0.375 2.17 0.25 0.48 0.613 0.719 1.09 0.719 0.5 0 0.867-0.239 1.11-0.719 0.25-0.488 0.375-1.21 0.375-2.17 0-0.957-0.125-1.68-0.375-2.16-0.242-0.477-0.609-0.719-1.11-0.719zm0-0.75c0.789 0 1.39 0.313 1.8 0.938 0.414 0.617 0.625 1.51 0.625 2.69 0 1.18-0.211 2.08-0.625 2.7-0.407 0.625-1.01 0.938-1.8 0.938-0.781 0-1.38-0.313-1.8-0.938-0.406-0.625-0.609-1.52-0.609-2.7 0-1.18 0.203-2.07 0.609-2.69 0.414-0.625 1.02-0.938 1.8-0.938z" style="fill:none;stroke-width:.393;stroke:#000"/><text transform="translate(24.2 17.9)" style="fill:#000000;font-family:'DejaVu Sans';font-size:9.62px"><tspan x="0" y="0">0</tspan></text><path d="m27.3 11.5c-0.481 0-0.844 0.242-1.09 0.719-0.25 0.48-0.375 1.2-0.375 2.16 0 0.961 0.125 1.68 0.375 2.17 0.25 0.48 0.613 0.719 1.09 0.719 0.5 0 0.867-0.239 1.11-0.719 0.25-0.488 0.375-1.21 0.375-2.17 0-0.957-0.125-1.68-0.375-2.16-0.242-0.477-0.609-0.719-1.11-0.719zm0-0.75c0.789 0 1.39 0.313 1.8 0.938 0.414 0.617 0.625 1.51 0.625 2.69 0 1.18-0.211 2.08-0.625 2.7-0.406 0.625-1.01 0.938-1.8 0.938-0.781 0-1.38-0.313-1.8-0.938-0.406-0.625-0.609-1.52-0.609-2.7 0-1.18 0.203-2.07 0.609-2.69 0.414-0.625 1.02-0.938 1.8-0.938z" style="fill:none;stroke-width:.393;stroke:#000"/><text transform="translate(30.4 17.9)" style="fill:#000000;font-family:'DejaVu Sans';font-size:9.62px"><tspan x="0" y="0">0</tspan></text><path d="m33.4 11.5c-0.48 0-0.844 0.242-1.09 0.719-0.25 0.48-0.375 1.2-0.375 2.16 0 0.961 0.125 1.68 0.375 2.17 0.25 0.48 0.614 0.719 1.09 0.719 0.5 0 0.867-0.239 1.11-0.719 0.25-0.488 0.375-1.21 0.375-2.17 0-0.957-0.125-1.68-0.375-2.16-0.242-0.477-0.609-0.719-1.11-0.719zm0-0.75c0.789 0 1.39 0.313 1.8 0.938 0.414 0.617 0.625 1.51 0.625 2.69 0 1.18-0.211 2.08-0.625 2.7-0.406 0.625-1.01 0.938-1.8 0.938-0.781 0-1.38-0.313-1.8-0.938-0.406-0.625-0.609-1.52-0.609-2.7 0-1.18 0.203-2.07 0.609-2.69 0.414-0.625 1.02-0.938 1.8-0.938z" style="fill:none;stroke-width:.393;stroke:#000"/><text transform="translate(36.5 17.9)" style="fill:#000000;font-family:'DejaVu Sans';font-size:9.62px"><tspan x="0" y="0">1</tspan></text><path d="m37.7 17.1h1.55v-5.34l-1.67 0.344v-0.875l1.67-0.328h0.937v6.2h1.56v0.797h-4.05z" style="fill:none;stroke-width:.393;stroke:#000"/><text transform="translate(42.6 17.9)" style="fill:#000000;font-family:'DejaVu Sans';font-size:9.62px"><tspan x="0" y="0">0</tspan></text><path d="m45.7 11.5c-0.48 0-0.844 0.242-1.09 0.719-0.25 0.48-0.375 1.2-0.375 2.16 0 0.961 0.125 1.68 0.375 2.17 0.25 0.48 0.614 0.719 1.09 0.719 0.5 0 0.867-0.239 1.11-0.719 0.25-0.488 0.375-1.21 0.375-2.17 0-0.957-0.125-1.68-0.375-2.16-0.243-0.477-0.61-0.719-1.11-0.719zm0-0.75c0.789 0 1.39 0.313 1.8 0.938 0.414 0.617 0.625 1.51 0.625 2.69 0 1.18-0.211 2.08-0.625 2.7-0.406 0.625-1.01 0.938-1.8 0.938-0.781 0-1.38-0.313-1.8-0.938-0.406-0.625-0.609-1.52-0.609-2.7 0-1.18 0.203-2.07 0.609-2.69 0.414-0.625 1.02-0.938 1.8-0.938z" style="fill:none;stroke-width:.393;stroke:#000"/><text transform="translate(48.7 17.9)" style="fill:#000000;font-family:'DejaVu Sans';font-size:9.62px"><tspan x="0" y="0">1</tspan></text><path d="m49.9 17.1h1.55v-5.34l-1.67 0.344v-0.875l1.67-0.328h0.937v6.2h1.56v0.797h-4.05z" style="fill:none;stroke-width:.393;stroke:#000"/><text transform="translate(54.9 17.9)" style="fill:#000000;font-family:'DejaVu Sans';font-size:9.62px"><tspan x="0" y="0">1</tspan></text><path d="m56 17.1h1.55v-5.34l-1.67 0.344v-0.875l1.67-0.328h0.937v6.2h1.56v0.797h-4.05z" style="fill:none;stroke-width:.393;stroke:#000"/><text transform="translate(61 17.9)" style="fill:#000000;font-family:'DejaVu Sans';font-size:9.62px"><tspan x="0" y="0">1</tspan></text><path d="m62.2 17.1h1.55v-5.34l-1.67 0.344v-0.875l1.67-0.328h0.937v6.2h1.56v0.797h-4.05z" style="fill:none;stroke-width:.393;stroke:#000"/><text transform="translate(67.1 17.9)" style="fill:#000000;font-family:'DejaVu Sans';font-size:9.62px"><tspan x="0" y="0">1</tspan></text><path d="m68.3 17.1h1.55v-5.34l-1.67 0.344v-0.875l1.67-0.328h0.937v6.2h1.56v0.797h-4.05z" style="fill:none;stroke-width:.393;stroke:#000"/><text transform="translate(73.2 17.9)" style="fill:#000000;font-family:'DejaVu Sans';font-size:9.62px"><tspan x="0" y="0">0</tspan></text><path d="m76.3 11.5c-0.48 0-0.843 0.242-1.09 0.719-0.25 0.48-0.375 1.2-0.375 2.16 0 0.961 0.125 1.68 0.375 2.17 0.25 0.48 0.613 0.719 1.09 0.719 0.5 0 0.868-0.239 1.11-0.719 0.25-0.488 0.375-1.21 0.375-2.17 0-0.957-0.125-1.68-0.375-2.16-0.242-0.477-0.61-0.719-1.11-0.719zm0-0.75c0.789 0 1.39 0.313 1.8 0.938 0.414 0.617 0.625 1.51 0.625 2.69 0 1.18-0.211 2.08-0.625 2.7-0.406 0.625-1.01 0.938-1.8 0.938-0.781 0-1.38-0.313-1.8-0.938-0.407-0.625-0.61-1.52-0.61-2.7 0-1.18 0.203-2.07 0.61-2.69 0.414-0.625 1.02-0.938 1.8-0.938z" style="fill:none;stroke-width:.393;stroke:#000"/><text transform="translate(79.4 17.9)" style="fill:#000000;font-family:'DejaVu Sans';font-size:9.62px"><tspan x="0" y="0">1</tspan></text><path d="m80.5 17.1h1.55v-5.34l-1.67 0.344v-0.875l1.67-0.328h0.938v6.2h1.56v0.797h-4.05z" style="fill:none;stroke-width:.393;stroke:#000"/><text transform="translate(85.5 17.9)" style="fill:#000000;font-family:'DejaVu Sans';font-size:9.62px"><tspan x="0" y="0">1</tspan></text><path d="m86.7 17.1h1.55v-5.34l-1.67 0.344v-0.875l1.67-0.328h0.938v6.2h1.56v0.797h-4.05z" style="fill:none;stroke-width:.393;stroke:#000"/><text transform="translate(91.6 17.9)" style="fill:#000000;font-family:'DejaVu Sans';font-size:9.62px"><tspan x="0" y="0">0</tspan></text><path d="m94.6 11.5c-0.481 0-0.844 0.242-1.09 0.719-0.25 0.48-0.375 1.2-0.375 2.16 0 0.961 0.125 1.68 0.375 2.17 0.25 0.48 0.613 0.719 1.09 0.719 0.5 0 0.867-0.239 1.11-0.719 0.25-0.488 0.375-1.21 0.375-2.17 0-0.957-0.125-1.68-0.375-2.16-0.242-0.477-0.609-0.719-1.11-0.719zm0-0.75c0.789 0 1.39 0.313 1.8 0.938 0.414 0.617 0.625 1.51 0.625 2.69 0 1.18-0.211 2.08-0.625 2.7-0.407 0.625-1.01 0.938-1.8 0.938-0.782 0-1.38-0.313-1.8-0.938-0.406-0.625-0.61-1.52-0.61-2.7 0-1.18 0.204-2.07 0.61-2.69 0.414-0.625 1.02-0.938 1.8-0.938z" style="fill:none;stroke-width:.393;stroke:#000"/><text transform="translate(-.24 29.1)" style="fill:#000000;font-family:'DejaVu Sans';font-size:9.62px"><tspan x="0" y="0">0</tspan></text><path d="m2.81 22.7c-0.481 0-0.844 0.243-1.09 0.719-0.25 0.481-0.375 1.2-0.375 2.16 0 0.961 0.125 1.68 0.375 2.17 0.25 0.481 0.613 0.719 1.09 0.719 0.5 0 0.867-0.238 1.11-0.719 0.25-0.488 0.375-1.21 0.375-2.17 0-0.957-0.125-1.68-0.375-2.16-0.242-0.476-0.609-0.719-1.11-0.719zm0-0.75c0.789 0 1.39 0.313 1.8 0.938 0.415 0.617 0.625 1.51 0.625 2.69 0 1.18-0.21 2.08-0.625 2.7-0.406 0.625-1.01 0.937-1.8 0.937-0.782 0-1.38-0.312-1.8-0.937-0.407-0.625-0.61-1.52-0.61-2.7 0-1.18 0.203-2.07 0.61-2.69 0.414-0.625 1.02-0.938 1.8-0.938z" style="fill:none;stroke-width:.393;stroke:#000"/><text transform="translate(5.88 29.1)" style="fill:#000000;font-family:'DejaVu Sans';font-size:9.62px"><tspan x="0" y="0">1</tspan></text><path d="m7.07 28.3h1.55v-5.34l-1.67 0.344v-0.875l1.67-0.329h0.938v6.2h1.56v0.796h-4.05z" style="fill:none;stroke-width:.393;stroke:#000"/><text transform="translate(12 29.1)" style="fill:#000000;font-family:'DejaVu Sans';font-size:9.62px"><tspan x="0" y="0">1</tspan></text><path d="m13.2 28.3h1.55v-5.34l-1.67 0.344v-0.875l1.67-0.329h0.938v6.2h1.56v0.796h-4.05z" style="fill:none;stroke-width:.393;stroke:#000"/><text transform="translate(18.1 29.1)" style="fill:#000000;font-family:'DejaVu Sans';font-size:9.62px"><tspan x="0" y="0">0</tspan></text><path d="m21.2 22.7c-0.481 0-0.844 0.243-1.09 0.719-0.25 0.481-0.375 1.2-0.375 2.16 0 0.961 0.125 1.68 0.375 2.17 0.25 0.481 0.613 0.719 1.09 0.719 0.5 0 0.867-0.238 1.11-0.719 0.25-0.488 0.375-1.21 0.375-2.17 0-0.957-0.125-1.68-0.375-2.16-0.242-0.476-0.609-0.719-1.11-0.719zm0-0.75c0.789 0 1.39 0.313 1.8 0.938 0.414 0.617 0.625 1.51 0.625 2.69 0 1.18-0.211 2.08-0.625 2.7-0.407 0.625-1.01 0.937-1.8 0.937-0.781 0-1.38-0.312-1.8-0.937-0.406-0.625-0.609-1.52-0.609-2.7 0-1.18 0.203-2.07 0.609-2.69 0.414-0.625 1.02-0.938 1.8-0.938z" style="fill:none;stroke-width:.393;stroke:#000"/><text transform="translate(24.2 29.1)" style="fill:#000000;font-family:'DejaVu Sans';font-size:9.62px"><tspan x="0" y="0">0</tspan></text><path d="m27.3 22.7c-0.481 0-0.844 0.243-1.09 0.719-0.25 0.481-0.375 1.2-0.375 2.16 0 0.961 0.125 1.68 0.375 2.17 0.25 0.481 0.613 0.719 1.09 0.719 0.5 0 0.867-0.238 1.11-0.719 0.25-0.488 0.375-1.21 0.375-2.17 0-0.957-0.125-1.68-0.375-2.16-0.242-0.476-0.609-0.719-1.11-0.719zm0-0.75c0.789 0 1.39 0.313 1.8 0.938 0.414 0.617 0.625 1.51 0.625 2.69 0 1.18-0.211 2.08-0.625 2.7-0.406 0.625-1.01 0.937-1.8 0.937-0.781 0-1.38-0.312-1.8-0.937-0.406-0.625-0.609-1.52-0.609-2.7 0-1.18 0.203-2.07 0.609-2.69 0.414-0.625 1.02-0.938 1.8-0.938z" style="fill:none;stroke-width:.393;stroke:#000"/><text transform="translate(30.4 29.1)" style="fill:#000000;font-family:'DejaVu Sans';font-size:9.62px"><tspan x="0" y="0">0</tspan></text><path d="m33.4 22.7c-0.48 0-0.844 0.243-1.09 0.719-0.25 0.481-0.375 1.2-0.375 2.16 0 0.961 0.125 1.68 0.375 2.17 0.25 0.481 0.614 0.719 1.09 0.719 0.5 0 0.867-0.238 1.11-0.719 0.25-0.488 0.375-1.21 0.375-2.17 0-0.957-0.125-1.68-0.375-2.16-0.242-0.476-0.609-0.719-1.11-0.719zm0-0.75c0.789 0 1.39 0.313 1.8 0.938 0.414 0.617 0.625 1.51 0.625 2.69 0 1.18-0.211 2.08-0.625 2.7-0.406 0.625-1.01 0.937-1.8 0.937-0.781 0-1.38-0.312-1.8-0.937-0.406-0.625-0.609-1.52-0.609-2.7 0-1.18 0.203-2.07 0.609-2.69 0.414-0.625 1.02-0.938 1.8-0.938z" style="fill:none;stroke-width:.393;stroke:#000"/><text transform="translate(36.5 29.1)" style="fill:#000000;font-family:'DejaVu Sans';font-size:9.62px"><tspan x="0" y="0">1</tspan></text><path d="m37.7 28.3h1.55v-5.34l-1.67 0.344v-0.875l1.67-0.329h0.937v6.2h1.56v0.796h-4.05z" style="fill:none;stroke-width:.393;stroke:#000"/><text transform="translate(42.6 29.1)" style="fill:#000000;font-family:'DejaVu Sans';font-size:9.62px"><tspan x="0" y="0">0</tspan></text><path d="m45.7 22.7c-0.48 0-0.844 0.243-1.09 0.719-0.25 0.481-0.375 1.2-0.375 2.16 0 0.961 0.125 1.68 0.375 2.17 0.25 0.481 0.614 0.719 1.09 0.719 0.5 0 0.867-0.238 1.11-0.719 0.25-0.488 0.375-1.21 0.375-2.17 0-0.957-0.125-1.68-0.375-2.16-0.243-0.476-0.61-0.719-1.11-0.719zm0-0.75c0.789 0 1.39 0.313 1.8 0.938 0.414 0.617 0.625 1.51 0.625 2.69 0 1.18-0.211 2.08-0.625 2.7-0.406 0.625-1.01 0.937-1.8 0.937-0.781 0-1.38-0.312-1.8-0.937-0.406-0.625-0.609-1.52-0.609-2.7 0-1.18 0.203-2.07 0.609-2.69 0.414-0.625 1.02-0.938 1.8-0.938z" style="fill:none;stroke-width:.393;stroke:#000"/><text transform="translate(48.7 29.1)" style="fill:#000000;font-family:'DejaVu Sans';font-size:9.62px"><tspan x="0" y="0">1</tspan></text><path d="m49.9 28.3h1.55v-5.34l-1.67 0.344v-0.875l1.67-0.329h0.937v6.2h1.56v0.796h-4.05z" style="fill:none;stroke-width:.393;stroke:#000"/><text transform="translate(54.9 29.1)" style="fill:#000000;font-family:'DejaVu Sans';font-size:9.62px"><tspan x="0" y="0">0</tspan></text><path d="m57.9 22.7c-0.48 0-0.844 0.243-1.09 0.719-0.25 0.481-0.374 1.2-0.374 2.16 0 0.961 0.124 1.68 0.374 2.17 0.25 0.481 0.614 0.719 1.09 0.719 0.5 0 0.867-0.238 1.11-0.719 0.25-0.488 0.375-1.21 0.375-2.17 0-0.957-0.125-1.68-0.375-2.16-0.243-0.476-0.61-0.719-1.11-0.719zm0-0.75c0.789 0 1.39 0.313 1.8 0.938 0.414 0.617 0.625 1.51 0.625 2.69 0 1.18-0.211 2.08-0.625 2.7-0.406 0.625-1.01 0.937-1.8 0.937-0.781 0-1.38-0.312-1.8-0.937-0.406-0.625-0.609-1.52-0.609-2.7 0-1.18 0.203-2.07 0.609-2.69 0.414-0.625 1.02-0.938 1.8-0.938z" style="fill:none;stroke-width:.393;stroke:#000"/><text transform="translate(61 29.1)" style="fill:#000000;font-family:'DejaVu Sans';font-size:9.62px"><tspan x="0" y="0">1</tspan></text><path d="m62.2 28.3h1.55v-5.34l-1.67 0.344v-0.875l1.67-0.329h0.937v6.2h1.56v0.796h-4.05z" style="fill:none;stroke-width:.393;stroke:#000"/><text transform="translate(67.1 29.1)" style="fill:#000000;font-family:'DejaVu Sans';font-size:9.62px"><tspan x="0" y="0">0</tspan></text><path d="m70.2 22.7c-0.48 0-0.843 0.243-1.09 0.719-0.25 0.481-0.375 1.2-0.375 2.16 0 0.961 0.125 1.68 0.375 2.17 0.25 0.481 0.613 0.719 1.09 0.719 0.5 0 0.868-0.238 1.11-0.719 0.25-0.488 0.375-1.21 0.375-2.17 0-0.957-0.125-1.68-0.375-2.16-0.242-0.476-0.61-0.719-1.11-0.719zm0-0.75c0.79 0 1.39 0.313 1.8 0.938 0.414 0.617 0.625 1.51 0.625 2.69 0 1.18-0.211 2.08-0.625 2.7-0.406 0.625-1.01 0.937-1.8 0.937-0.781 0-1.38-0.312-1.8-0.937-0.407-0.625-0.61-1.52-0.61-2.7 0-1.18 0.203-2.07 0.61-2.69 0.414-0.625 1.02-0.938 1.8-0.938z" style="fill:none;stroke-width:.393;stroke:#000"/><text transform="translate(73.2 29.1)" style="fill:#000000;font-family:'DejaVu Sans';font-size:9.62px"><tspan x="0" y="0">0</tspan></text><path d="m76.3 22.7c-0.48 0-0.843 0.243-1.09 0.719-0.25 0.481-0.375 1.2-0.375 2.16 0 0.961 0.125 1.68 0.375 2.17 0.25 0.481 0.613 0.719 1.09 0.719 0.5 0 0.868-0.238 1.11-0.719 0.25-0.488 0.375-1.21 0.375-2.17 0-0.957-0.125-1.68-0.375-2.16-0.242-0.476-0.61-0.719-1.11-0.719zm0-0.75c0.789 0 1.39 0.313 1.8 0.938 0.414 0.617 0.625 1.51 0.625 2.69 0 1.18-0.211 2.08-0.625 2.7-0.406 0.625-1.01 0.937-1.8 0.937-0.781 0-1.38-0.312-1.8-0.937-0.407-0.625-0.61-1.52-0.61-2.7 0-1.18 0.203-2.07 0.61-2.69 0.414-0.625 1.02-0.938 1.8-0.938z" style="fill:none;stroke-width:.393;stroke:#000"/><text transform="translate(79.4 29.1)" style="fill:#000000;font-family:'DejaVu Sans';font-size:9.62px"><tspan x="0" y="0">1</tspan></text><path d="m80.5 28.3h1.55v-5.34l-1.67 0.344v-0.875l1.67-0.329h0.938v6.2h1.56v0.796h-4.05z" style="fill:none;stroke-width:.393;stroke:#000"/><text transform="translate(85.5 29.1)" style="fill:#000000;font-family:'DejaVu Sans';font-size:9.62px"><tspan x="0" y="0">0</tspan></text><path d="m88.5 22.7c-0.481 0-0.844 0.243-1.09 0.719-0.25 0.481-0.375 1.2-0.375 2.16 0 0.961 0.125 1.68 0.375 2.17 0.25 0.481 0.613 0.719 1.09 0.719 0.5 0 0.867-0.238 1.11-0.719 0.25-0.488 0.375-1.21 0.375-2.17 0-0.957-0.125-1.68-0.375-2.16-0.242-0.476-0.609-0.719-1.11-0.719zm0-0.75c0.789 0 1.39 0.313 1.8 0.938 0.415 0.617 0.626 1.51 0.626 2.69 0 1.18-0.211 2.08-0.626 2.7-0.406 0.625-1.01 0.937-1.8 0.937-0.782 0-1.38-0.312-1.8-0.937-0.407-0.625-0.61-1.52-0.61-2.7 0-1.18 0.203-2.07 0.61-2.69 0.414-0.625 1.02-0.938 1.8-0.938z" style="fill:none;stroke-width:.393;stroke:#000"/><text transform="translate(91.6 29.1)" style="fill:#000000;font-family:'DejaVu Sans';font-size:9.62px"><tspan x="0" y="0">0</tspan></text><path d="m94.6 22.7c-0.481 0-0.844 0.243-1.09 0.719-0.25 0.481-0.375 1.2-0.375 2.16 0 0.961 0.125 1.68 0.375 2.17 0.25 0.481 0.613 0.719 1.09 0.719 0.5 0 0.867-0.238 1.11-0.719 0.25-0.488 0.375-1.21 0.375-2.17 0-0.957-0.125-1.68-0.375-2.16-0.242-0.476-0.609-0.719-1.11-0.719zm0-0.75c0.789 0 1.39 0.313 1.8 0.938 0.414 0.617 0.625 1.51 0.625 2.69 0 1.18-0.211 2.08-0.625 2.7-0.407 0.625-1.01 0.937-1.8 0.937-0.782 0-1.38-0.312-1.8-0.937-0.406-0.625-0.61-1.52-0.61-2.7 0-1.18 0.204-2.07 0.61-2.69 0.414-0.625 1.02-0.938 1.8-0.938z" style="fill:none;stroke-width:.393;stroke:#000"/><text transform="translate(-.24 40.2)" style="fill:#000000;font-family:'DejaVu Sans';font-size:9.62px"><tspan x="0" y="0">1</tspan></text><path d="m0.949 39.4h1.55v-5.34l-1.67 0.344v-0.875l1.67-0.328h0.938v6.2h1.56v0.797h-4.05z" style="fill:none;stroke-width:.393;stroke:#000"/><text transform="translate(5.88 40.2)" style="fill:#000000;font-family:'DejaVu Sans';font-size:9.62px"><tspan x="0" y="0">1</tspan></text><path d="m7.07 39.4h1.55v-5.34l-1.67 0.344v-0.875l1.67-0.328h0.938v6.2h1.56v0.797h-4.05z" style="fill:none;stroke-width:.393;stroke:#000"/><text transform="translate(12 40.2)" style="fill:#000000;font-family:'DejaVu Sans';font-size:9.62px"><tspan x="0" y="0">1</tspan></text><path d="m13.2 39.4h1.55v-5.34l-1.67 0.344v-0.875l1.67-0.328h0.938v6.2h1.56v0.797h-4.05z" style="fill:none;stroke-width:.393;stroke:#000"/><text transform="translate(18.1 40.2)" style="fill:#000000;font-family:'DejaVu Sans';font-size:9.62px"><tspan x="0" y="0">0</tspan></text><path d="m21.2 33.8c-0.481 0-0.844 0.242-1.09 0.718-0.25 0.481-0.375 1.2-0.375 2.16 0 0.961 0.125 1.68 0.375 2.17 0.25 0.48 0.613 0.718 1.09 0.718 0.5 0 0.867-0.238 1.11-0.718 0.25-0.489 0.375-1.21 0.375-2.17 0-0.957-0.125-1.68-0.375-2.16-0.242-0.476-0.609-0.718-1.11-0.718zm0-0.75c0.789 0 1.39 0.312 1.8 0.937 0.414 0.617 0.625 1.51 0.625 2.69 0 1.18-0.211 2.08-0.625 2.7-0.407 0.625-1.01 0.937-1.8 0.937-0.781 0-1.38-0.312-1.8-0.937-0.406-0.625-0.609-1.52-0.609-2.7 0-1.18 0.203-2.07 0.609-2.69 0.414-0.625 1.02-0.937 1.8-0.937z" style="fill:none;stroke-width:.393;stroke:#000"/><text transform="translate(24.2 40.2)" style="fill:#000000;font-family:'DejaVu Sans';font-size:9.62px"><tspan x="0" y="0">0</tspan></text><path d="m27.3 33.8c-0.481 0-0.844 0.242-1.09 0.718-0.25 0.481-0.375 1.2-0.375 2.16 0 0.961 0.125 1.68 0.375 2.17 0.25 0.48 0.613 0.718 1.09 0.718 0.5 0 0.867-0.238 1.11-0.718 0.25-0.489 0.375-1.21 0.375-2.17 0-0.957-0.125-1.68-0.375-2.16-0.242-0.476-0.609-0.718-1.11-0.718zm0-0.75c0.789 0 1.39 0.312 1.8 0.937 0.414 0.617 0.625 1.51 0.625 2.69 0 1.18-0.211 2.08-0.625 2.7-0.406 0.625-1.01 0.937-1.8 0.937-0.781 0-1.38-0.312-1.8-0.937-0.406-0.625-0.609-1.52-0.609-2.7 0-1.18 0.203-2.07 0.609-2.69 0.414-0.625 1.02-0.937 1.8-0.937z" style="fill:none;stroke-width:.393;stroke:#000"/><text transform="translate(30.4 40.2)" style="fill:#000000;font-family:'DejaVu Sans';font-size:9.62px"><tspan x="0" y="0">0</tspan></text><path d="m33.4 33.8c-0.48 0-0.844 0.242-1.09 0.718-0.25 0.481-0.375 1.2-0.375 2.16 0 0.961 0.125 1.68 0.375 2.17 0.25 0.48 0.614 0.718 1.09 0.718 0.5 0 0.867-0.238 1.11-0.718 0.25-0.489 0.375-1.21 0.375-2.17 0-0.957-0.125-1.68-0.375-2.16-0.242-0.476-0.609-0.718-1.11-0.718zm0-0.75c0.789 0 1.39 0.312 1.8 0.937 0.414 0.617 0.625 1.51 0.625 2.69 0 1.18-0.211 2.08-0.625 2.7-0.406 0.625-1.01 0.937-1.8 0.937-0.781 0-1.38-0.312-1.8-0.937-0.406-0.625-0.609-1.52-0.609-2.7 0-1.18 0.203-2.07 0.609-2.69 0.414-0.625 1.02-0.937 1.8-0.937z" style="fill:none;stroke-width:.393;stroke:#000"/><text transform="translate(36.5 40.2)" style="fill:#000000;font-family:'DejaVu Sans';font-size:9.62px"><tspan x="0" y="0">0</tspan></text><path d="m39.5 33.8c-0.48 0-0.844 0.242-1.09 0.718-0.25 0.481-0.375 1.2-0.375 2.16 0 0.961 0.125 1.68 0.375 2.17 0.25 0.48 0.614 0.718 1.09 0.718 0.5 0 0.867-0.238 1.11-0.718 0.25-0.489 0.375-1.21 0.375-2.17 0-0.957-0.125-1.68-0.375-2.16-0.242-0.476-0.609-0.718-1.11-0.718zm0-0.75c0.789 0 1.39 0.312 1.8 0.937 0.414 0.617 0.625 1.51 0.625 2.69 0 1.18-0.211 2.08-0.625 2.7-0.406 0.625-1.01 0.937-1.8 0.937-0.781 0-1.38-0.312-1.8-0.937-0.406-0.625-0.609-1.52-0.609-2.7 0-1.18 0.203-2.07 0.609-2.69 0.414-0.625 1.02-0.937 1.8-0.937z" style="fill:none;stroke-width:.393;stroke:#000"/><text transform="translate(42.6 40.2)" style="fill:#000000;font-family:'DejaVu Sans';font-size:9.62px"><tspan x="0" y="0">1</tspan></text><path d="m43.8 39.4h1.55v-5.34l-1.67 0.344v-0.875l1.67-0.328h0.937v6.2h1.56v0.797h-4.05z" style="fill:none;stroke-width:.393;stroke:#000"/><text transform="translate(48.7 40.2)" style="fill:#000000;font-family:'DejaVu Sans';font-size:9.62px"><tspan x="0" y="0">1</tspan></text><path d="m49.9 39.4h1.55v-5.34l-1.67 0.344v-0.875l1.67-0.328h0.937v6.2h1.56v0.797h-4.05z" style="fill:none;stroke-width:.393;stroke:#000"/><text transform="translate(54.9 40.2)" style="fill:#000000;font-family:'DejaVu Sans';font-size:9.62px"><tspan x="0" y="0">1</tspan></text><path d="m56 39.4h1.55v-5.34l-1.67 0.344v-0.875l1.67-0.328h0.937v6.2h1.56v0.797h-4.05z" style="fill:none;stroke-width:.393;stroke:#000"/><text transform="translate(61 40.2)" style="fill:#000000;font-family:'DejaVu Sans';font-size:9.62px"><tspan x="0" y="0">0</tspan></text><path d="m64 33.8c-0.48 0-0.843 0.242-1.09 0.718-0.25 0.481-0.375 1.2-0.375 2.16 0 0.961 0.125 1.68 0.375 2.17 0.25 0.48 0.613 0.718 1.09 0.718 0.5 0 0.868-0.238 1.11-0.718 0.25-0.489 0.375-1.21 0.375-2.17 0-0.957-0.125-1.68-0.375-2.16-0.242-0.476-0.61-0.718-1.11-0.718zm0-0.75c0.789 0 1.39 0.312 1.8 0.937 0.414 0.617 0.625 1.51 0.625 2.69 0 1.18-0.211 2.08-0.625 2.7-0.406 0.625-1.01 0.937-1.8 0.937-0.781 0-1.38-0.312-1.8-0.937-0.406-0.625-0.609-1.52-0.609-2.7 0-1.18 0.203-2.07 0.609-2.69 0.415-0.625 1.02-0.937 1.8-0.937z" style="fill:none;stroke-width:.393;stroke:#000"/><text transform="translate(67.1 40.2)" style="fill:#000000;font-family:'DejaVu Sans';font-size:9.62px"><tspan x="0" y="0">1</tspan></text><path d="m68.3 39.4h1.55v-5.34l-1.67 0.344v-0.875l1.67-0.328h0.937v6.2h1.56v0.797h-4.05z" style="fill:none;stroke-width:.393;stroke:#000"/><text transform="translate(73.2 40.2)" style="fill:#000000;font-family:'DejaVu Sans';font-size:9.62px"><tspan x="0" y="0">1</tspan></text><path d="m74.4 39.4h1.55v-5.34l-1.67 0.344v-0.875l1.67-0.328h0.937v6.2h1.56v0.797h-4.05z" style="fill:none;stroke-width:.393;stroke:#000"/><text transform="translate(79.4 40.2)" style="fill:#000000;font-family:'DejaVu Sans';font-size:9.62px"><tspan x="0" y="0">0</tspan></text><path d="m82.4 33.8c-0.481 0-0.844 0.242-1.09 0.718-0.25 0.481-0.375 1.2-0.375 2.16 0 0.961 0.125 1.68 0.375 2.17 0.25 0.48 0.613 0.718 1.09 0.718 0.5 0 0.867-0.238 1.11-0.718 0.25-0.489 0.375-1.21 0.375-2.17 0-0.957-0.125-1.68-0.375-2.16-0.242-0.476-0.609-0.718-1.11-0.718zm0-0.75c0.789 0 1.39 0.312 1.8 0.937 0.414 0.617 0.625 1.51 0.625 2.69 0 1.18-0.211 2.08-0.625 2.7-0.406 0.625-1.01 0.937-1.8 0.937-0.782 0-1.38-0.312-1.8-0.937-0.407-0.625-0.61-1.52-0.61-2.7 0-1.18 0.203-2.07 0.61-2.69 0.414-0.625 1.02-0.937 1.8-0.937z" style="fill:none;stroke-width:.393;stroke:#000"/><text transform="translate(85.5 40.2)" style="fill:#000000;font-family:'DejaVu Sans';font-size:9.62px"><tspan x="0" y="0">1</tspan></text><path d="m86.7 39.4h1.55v-5.34l-1.67 0.344v-0.875l1.67-0.328h0.938v6.2h1.56v0.797h-4.05z" style="fill:none;stroke-width:.393;stroke:#000"/><text transform="translate(91.6 40.2)" style="fill:#000000;font-family:'DejaVu Sans';font-size:9.62px"><tspan x="0" y="0">1</tspan></text><path d="m92.8 39.4h1.55v-5.34l-1.67 0.344v-0.875l1.67-0.328h0.938v6.2h1.56v0.797h-4.05z" style="fill:none;stroke-width:.393;stroke:#000"/><text transform="translate(-.24 51.4)" style="fill:#000000;font-family:'DejaVu Sans';font-size:9.62px"><tspan x="0" y="0">1</tspan></text><path d="m0.949 50.6h1.55v-5.34l-1.67 0.344v-0.875l1.67-0.328h0.938v6.2h1.56v0.797h-4.05z" style="fill:none;stroke-width:.393;stroke:#000"/><text transform="translate(5.88 51.4)" style="fill:#000000;font-family:'DejaVu Sans';font-size:9.62px"><tspan x="0" y="0">1</tspan></text><path d="m7.07 50.6h1.55v-5.34l-1.67 0.344v-0.875l1.67-0.328h0.938v6.2h1.56v0.797h-4.05z" style="fill:none;stroke-width:.393;stroke:#000"/><text transform="translate(12 51.4)" style="fill:#000000;font-family:'DejaVu Sans';font-size:9.62px"><tspan x="0" y="0">0</tspan></text><path d="m15 45c-0.481 0-0.844 0.242-1.09 0.719-0.25 0.48-0.375 1.2-0.375 2.16 0 0.961 0.125 1.68 0.375 2.17 0.25 0.48 0.613 0.719 1.09 0.719 0.5 0 0.867-0.239 1.11-0.719 0.25-0.488 0.375-1.21 0.375-2.17 0-0.957-0.125-1.68-0.375-2.16-0.242-0.477-0.609-0.719-1.11-0.719zm0-0.75c0.789 0 1.39 0.312 1.8 0.938 0.414 0.617 0.625 1.51 0.625 2.69 0 1.18-0.211 2.08-0.625 2.7-0.407 0.625-1.01 0.938-1.8 0.938-0.781 0-1.38-0.313-1.8-0.938-0.406-0.625-0.609-1.52-0.609-2.7 0-1.18 0.203-2.07 0.609-2.69 0.414-0.626 1.02-0.938 1.8-0.938z" style="fill:none;stroke-width:.393;stroke:#000"/><text transform="translate(18.1 51.4)" style="fill:#000000;font-family:'DejaVu Sans';font-size:9.62px"><tspan x="0" y="0">0</tspan></text><path d="m21.2 45c-0.481 0-0.844 0.242-1.09 0.719-0.25 0.48-0.375 1.2-0.375 2.16 0 0.961 0.125 1.68 0.375 2.17 0.25 0.48 0.613 0.719 1.09 0.719 0.5 0 0.867-0.239 1.11-0.719 0.25-0.488 0.375-1.21 0.375-2.17 0-0.957-0.125-1.68-0.375-2.16-0.242-0.477-0.609-0.719-1.11-0.719zm0-0.75c0.789 0 1.39 0.312 1.8 0.938 0.414 0.617 0.625 1.51 0.625 2.69 0 1.18-0.211 2.08-0.625 2.7-0.407 0.625-1.01 0.938-1.8 0.938-0.781 0-1.38-0.313-1.8-0.938-0.406-0.625-0.609-1.52-0.609-2.7 0-1.18 0.203-2.07 0.609-2.69 0.414-0.626 1.02-0.938 1.8-0.938z" style="fill:none;stroke-width:.393;stroke:#000"/><text transform="translate(24.2 51.4)" style="fill:#000000;font-family:'DejaVu Sans';font-size:9.62px"><tspan x="0" y="0">0</tspan></text><path d="m27.3 45c-0.481 0-0.844 0.242-1.09 0.719-0.25 0.48-0.375 1.2-0.375 2.16 0 0.961 0.125 1.68 0.375 2.17 0.25 0.48 0.613 0.719 1.09 0.719 0.5 0 0.867-0.239 1.11-0.719 0.25-0.488 0.375-1.21 0.375-2.17 0-0.957-0.125-1.68-0.375-2.16-0.242-0.477-0.609-0.719-1.11-0.719zm0-0.75c0.789 0 1.39 0.312 1.8 0.938 0.414 0.617 0.625 1.51 0.625 2.69 0 1.18-0.211 2.08-0.625 2.7-0.406 0.625-1.01 0.938-1.8 0.938-0.781 0-1.38-0.313-1.8-0.938-0.406-0.625-0.609-1.52-0.609-2.7 0-1.18 0.203-2.07 0.609-2.69 0.414-0.626 1.02-0.938 1.8-0.938z" style="fill:none;stroke-width:.393;stroke:#000"/><text transform="translate(30.4 51.4)" style="fill:#000000;font-family:'DejaVu Sans';font-size:9.62px"><tspan x="0" y="0">0</tspan></text><path d="m33.4 45c-0.48 0-0.844 0.242-1.09 0.719-0.25 0.48-0.375 1.2-0.375 2.16 0 0.961 0.125 1.68 0.375 2.17 0.25 0.48 0.614 0.719 1.09 0.719 0.5 0 0.867-0.239 1.11-0.719 0.25-0.488 0.375-1.21 0.375-2.17 0-0.957-0.125-1.68-0.375-2.16-0.242-0.477-0.609-0.719-1.11-0.719zm0-0.75c0.789 0 1.39 0.312 1.8 0.938 0.414 0.617 0.625 1.51 0.625 2.69 0 1.18-0.211 2.08-0.625 2.7-0.406 0.625-1.01 0.938-1.8 0.938-0.781 0-1.38-0.313-1.8-0.938-0.406-0.625-0.609-1.52-0.609-2.7 0-1.18 0.203-2.07 0.609-2.69 0.414-0.626 1.02-0.938 1.8-0.938z" style="fill:none;stroke-width:.393;stroke:#000"/><text transform="translate(36.5 51.4)" style="fill:#000000;font-family:'DejaVu Sans';font-size:9.62px"><tspan x="0" y="0">1</tspan></text><path d="m37.7 50.6h1.55v-5.34l-1.67 0.344v-0.875l1.67-0.328h0.937v6.2h1.56v0.797h-4.05z" style="fill:none;stroke-width:.393;stroke:#000"/><text transform="translate(42.6 51.4)" style="fill:#000000;font-family:'DejaVu Sans';font-size:9.62px"><tspan x="0" y="0">0</tspan></text><path d="m45.7 45c-0.48 0-0.844 0.242-1.09 0.719-0.25 0.48-0.375 1.2-0.375 2.16 0 0.961 0.125 1.68 0.375 2.17 0.25 0.48 0.614 0.719 1.09 0.719 0.5 0 0.867-0.239 1.11-0.719 0.25-0.488 0.375-1.21 0.375-2.17 0-0.957-0.125-1.68-0.375-2.16-0.243-0.477-0.61-0.719-1.11-0.719zm0-0.75c0.789 0 1.39 0.312 1.8 0.938 0.414 0.617 0.625 1.51 0.625 2.69 0 1.18-0.211 2.08-0.625 2.7-0.406 0.625-1.01 0.938-1.8 0.938-0.781 0-1.38-0.313-1.8-0.938-0.406-0.625-0.609-1.52-0.609-2.7 0-1.18 0.203-2.07 0.609-2.69 0.414-0.626 1.02-0.938 1.8-0.938z" style="fill:none;stroke-width:.393;stroke:#000"/><text transform="translate(48.7 51.4)" style="fill:#000000;font-family:'DejaVu Sans';font-size:9.62px"><tspan x="0" y="0">0</tspan></text><path d="m51.8 45c-0.48 0-0.844 0.242-1.09 0.719-0.25 0.48-0.375 1.2-0.375 2.16 0 0.961 0.125 1.68 0.375 2.17 0.25 0.48 0.614 0.719 1.09 0.719 0.5 0 0.867-0.239 1.11-0.719 0.25-0.488 0.375-1.21 0.375-2.17 0-0.957-0.125-1.68-0.375-2.16-0.243-0.477-0.61-0.719-1.11-0.719zm0-0.75c0.789 0 1.39 0.312 1.8 0.938 0.414 0.617 0.625 1.51 0.625 2.69 0 1.18-0.211 2.08-0.625 2.7-0.406 0.625-1.01 0.938-1.8 0.938-0.781 0-1.38-0.313-1.8-0.938-0.406-0.625-0.609-1.52-0.609-2.7 0-1.18 0.203-2.07 0.609-2.69 0.414-0.626 1.02-0.938 1.8-0.938z" style="fill:none;stroke-width:.393;stroke:#000"/><text transform="translate(54.9 51.4)" style="fill:#000000;font-family:'DejaVu Sans';font-size:9.62px"><tspan x="0" y="0">0</tspan></text><path d="m57.9 45c-0.48 0-0.844 0.242-1.09 0.719-0.25 0.48-0.374 1.2-0.374 2.16 0 0.961 0.124 1.68 0.374 2.17 0.25 0.48 0.614 0.719 1.09 0.719 0.5 0 0.867-0.239 1.11-0.719 0.25-0.488 0.375-1.21 0.375-2.17 0-0.957-0.125-1.68-0.375-2.16-0.243-0.477-0.61-0.719-1.11-0.719zm0-0.75c0.789 0 1.39 0.312 1.8 0.938 0.414 0.617 0.625 1.51 0.625 2.69 0 1.18-0.211 2.08-0.625 2.7-0.406 0.625-1.01 0.938-1.8 0.938-0.781 0-1.38-0.313-1.8-0.938-0.406-0.625-0.609-1.52-0.609-2.7 0-1.18 0.203-2.07 0.609-2.69 0.414-0.626 1.02-0.938 1.8-0.938z" style="fill:none;stroke-width:.393;stroke:#000"/><text transform="translate(61 51.4)" style="fill:#000000;font-family:'DejaVu Sans';font-size:9.62px"><tspan x="0" y="0">1</tspan></text><path d="m62.2 50.6h1.55v-5.34l-1.67 0.344v-0.875l1.67-0.328h0.937v6.2h1.56v0.797h-4.05z" style="fill:none;stroke-width:.393;stroke:#000"/><text transform="translate(67.1 51.4)" style="fill:#000000;font-family:'DejaVu Sans';font-size:9.62px"><tspan x="0" y="0">0</tspan></text><path d="m70.2 45c-0.48 0-0.843 0.242-1.09 0.719-0.25 0.48-0.375 1.2-0.375 2.16 0 0.961 0.125 1.68 0.375 2.17 0.25 0.48 0.613 0.719 1.09 0.719 0.5 0 0.868-0.239 1.11-0.719 0.25-0.488 0.375-1.21 0.375-2.17 0-0.957-0.125-1.68-0.375-2.16-0.242-0.477-0.61-0.719-1.11-0.719zm0-0.75c0.79 0 1.39 0.312 1.8 0.938 0.414 0.617 0.625 1.51 0.625 2.69 0 1.18-0.211 2.08-0.625 2.7-0.406 0.625-1.01 0.938-1.8 0.938-0.781 0-1.38-0.313-1.8-0.938-0.407-0.625-0.61-1.52-0.61-2.7 0-1.18 0.203-2.07 0.61-2.69 0.414-0.626 1.02-0.938 1.8-0.938z" style="fill:none;stroke-width:.393;stroke:#000"/><text transform="translate(73.2 51.4)" style="fill:#000000;font-family:'DejaVu Sans';font-size:9.62px"><tspan x="0" y="0">1</tspan></text><path d="m74.4 50.6h1.55v-5.34l-1.67 0.344v-0.875l1.67-0.328h0.937v6.2h1.56v0.797h-4.05z" style="fill:none;stroke-width:.393;stroke:#000"/><text transform="translate(79.4 51.4)" style="fill:#000000;font-family:'DejaVu Sans';font-size:9.62px"><tspan x="0" y="0">1</tspan></text><path d="m80.5 50.6h1.55v-5.34l-1.67 0.344v-0.875l1.67-0.328h0.938v6.2h1.56v0.797h-4.05z" style="fill:none;stroke-width:.393;stroke:#000"/><text transform="translate(85.5 51.4)" style="fill:#000000;font-family:'DejaVu Sans';font-size:9.62px"><tspan x="0" y="0">0</tspan></text><path d="m88.5 45c-0.481 0-0.844 0.242-1.09 0.719-0.25 0.48-0.375 1.2-0.375 2.16 0 0.961 0.125 1.68 0.375 2.17 0.25 0.48 0.613 0.719 1.09 0.719 0.5 0 0.867-0.239 1.11-0.719 0.25-0.488 0.375-1.21 0.375-2.17 0-0.957-0.125-1.68-0.375-2.16-0.242-0.477-0.609-0.719-1.11-0.719zm0-0.75c0.789 0 1.39 0.312 1.8 0.938 0.415 0.617 0.626 1.51 0.626 2.69 0 1.18-0.211 2.08-0.626 2.7-0.406 0.625-1.01 0.938-1.8 0.938-0.782 0-1.38-0.313-1.8-0.938-0.407-0.625-0.61-1.52-0.61-2.7 0-1.18 0.203-2.07 0.61-2.69 0.414-0.626 1.02-0.938 1.8-0.938z" style="fill:none;stroke-width:.393;stroke:#000"/><text transform="translate(91.6 51.4)" style="fill:#000000;font-family:'DejaVu Sans';font-size:9.62px"><tspan x="0" y="0">1</tspan></text><path d="m92.8 50.6h1.55v-5.34l-1.67 0.344v-0.875l1.67-0.328h0.938v6.2h1.56v0.797h-4.05z" style="fill:none;stroke-width:.393;stroke:#000"/><text transform="translate(-.24 62.5)" style="fill:#000000;font-family:'DejaVu Sans';font-size:9.62px"><tspan x="0" y="0">0</tspan></text><path d="m2.81 56.2c-0.481 0-0.844 0.243-1.09 0.719-0.25 0.481-0.375 1.2-0.375 2.16 0 0.961 0.125 1.68 0.375 2.17 0.25 0.481 0.613 0.719 1.09 0.719 0.5 0 0.867-0.238 1.11-0.719 0.25-0.488 0.375-1.21 0.375-2.17 0-0.957-0.125-1.68-0.375-2.16-0.242-0.476-0.609-0.719-1.11-0.719zm0-0.75c0.789 0 1.39 0.313 1.8 0.938 0.415 0.617 0.625 1.51 0.625 2.69 0 1.18-0.21 2.08-0.625 2.7-0.406 0.625-1.01 0.938-1.8 0.938-0.782 0-1.38-0.313-1.8-0.938-0.407-0.625-0.61-1.52-0.61-2.7 0-1.18 0.203-2.07 0.61-2.69 0.414-0.625 1.02-0.938 1.8-0.938z" style="fill:none;stroke-width:.393;stroke:#000"/><text transform="translate(5.88 62.5)" style="fill:#000000;font-family:'DejaVu Sans';font-size:9.62px"><tspan x="0" y="0">1</tspan></text><path d="m7.07 61.7h1.55v-5.34l-1.67 0.343v-0.875l1.67-0.328h0.938v6.2h1.56v0.797h-4.05z" style="fill:none;stroke-width:.393;stroke:#000"/><text transform="translate(12 62.5)" style="fill:#000000;font-family:'DejaVu Sans';font-size:9.62px"><tspan x="0" y="0">1</tspan></text><path d="m13.2 61.7h1.55v-5.34l-1.67 0.343v-0.875l1.67-0.328h0.938v6.2h1.56v0.797h-4.05z" style="fill:none;stroke-width:.393;stroke:#000"/><text transform="translate(18.1 62.5)" style="fill:#000000;font-family:'DejaVu Sans';font-size:9.62px"><tspan x="0" y="0">0</tspan></text><path d="m21.2 56.2c-0.481 0-0.844 0.243-1.09 0.719-0.25 0.481-0.375 1.2-0.375 2.16 0 0.961 0.125 1.68 0.375 2.17 0.25 0.481 0.613 0.719 1.09 0.719 0.5 0 0.867-0.238 1.11-0.719 0.25-0.488 0.375-1.21 0.375-2.17 0-0.957-0.125-1.68-0.375-2.16-0.242-0.476-0.609-0.719-1.11-0.719zm0-0.75c0.789 0 1.39 0.313 1.8 0.938 0.414 0.617 0.625 1.51 0.625 2.69 0 1.18-0.211 2.08-0.625 2.7-0.407 0.625-1.01 0.938-1.8 0.938-0.781 0-1.38-0.313-1.8-0.938-0.406-0.625-0.609-1.52-0.609-2.7 0-1.18 0.203-2.07 0.609-2.69 0.414-0.625 1.02-0.938 1.8-0.938z" style="fill:none;stroke-width:.393;stroke:#000"/><text transform="translate(24.2 62.5)" style="fill:#000000;font-family:'DejaVu Sans';font-size:9.62px"><tspan x="0" y="0">0</tspan></text><path d="m27.3 56.2c-0.481 0-0.844 0.243-1.09 0.719-0.25 0.481-0.375 1.2-0.375 2.16 0 0.961 0.125 1.68 0.375 2.17 0.25 0.481 0.613 0.719 1.09 0.719 0.5 0 0.867-0.238 1.11-0.719 0.25-0.488 0.375-1.21 0.375-2.17 0-0.957-0.125-1.68-0.375-2.16-0.242-0.476-0.609-0.719-1.11-0.719zm0-0.75c0.789 0 1.39 0.313 1.8 0.938 0.414 0.617 0.625 1.51 0.625 2.69 0 1.18-0.211 2.08-0.625 2.7-0.406 0.625-1.01 0.938-1.8 0.938-0.781 0-1.38-0.313-1.8-0.938-0.406-0.625-0.609-1.52-0.609-2.7 0-1.18 0.203-2.07 0.609-2.69 0.414-0.625 1.02-0.938 1.8-0.938z" style="fill:none;stroke-width:.393;stroke:#000"/><text transform="translate(30.4 62.5)" style="fill:#000000;font-family:'DejaVu Sans';font-size:9.62px"><tspan x="0" y="0">0</tspan></text><path d="m33.4 56.2c-0.48 0-0.844 0.243-1.09 0.719-0.25 0.481-0.375 1.2-0.375 2.16 0 0.961 0.125 1.68 0.375 2.17 0.25 0.481 0.614 0.719 1.09 0.719 0.5 0 0.867-0.238 1.11-0.719 0.25-0.488 0.375-1.21 0.375-2.17 0-0.957-0.125-1.68-0.375-2.16-0.242-0.476-0.609-0.719-1.11-0.719zm0-0.75c0.789 0 1.39 0.313 1.8 0.938 0.414 0.617 0.625 1.51 0.625 2.69 0 1.18-0.211 2.08-0.625 2.7-0.406 0.625-1.01 0.938-1.8 0.938-0.781 0-1.38-0.313-1.8-0.938-0.406-0.625-0.609-1.52-0.609-2.7 0-1.18 0.203-2.07 0.609-2.69 0.414-0.625 1.02-0.938 1.8-0.938z" style="fill:none;stroke-width:.393;stroke:#000"/><text transform="translate(36.5 62.5)" style="fill:#000000;font-family:'DejaVu Sans';font-size:9.62px"><tspan x="0" y="0">1</tspan></text><path d="m37.7 61.7h1.55v-5.34l-1.67 0.343v-0.875l1.67-0.328h0.937v6.2h1.56v0.797h-4.05z" style="fill:none;stroke-width:.393;stroke:#000"/><text transform="translate(42.6 62.5)" style="fill:#000000;font-family:'DejaVu Sans';font-size:9.62px"><tspan x="0" y="0">1</tspan></text><path d="m43.8 61.7h1.55v-5.34l-1.67 0.343v-0.875l1.67-0.328h0.937v6.2h1.56v0.797h-4.05z" style="fill:none;stroke-width:.393;stroke:#000"/><text transform="translate(48.7 62.5)" style="fill:#000000;font-family:'DejaVu Sans';font-size:9.62px"><tspan x="0" y="0">1</tspan></text><path d="m49.9 61.7h1.55v-5.34l-1.67 0.343v-0.875l1.67-0.328h0.937v6.2h1.56v0.797h-4.05z" style="fill:none;stroke-width:.393;stroke:#000"/><text transform="translate(54.9 62.5)" style="fill:#000000;font-family:'DejaVu Sans';font-size:9.62px"><tspan x="0" y="0">1</tspan></text><path d="m56 61.7h1.55v-5.34l-1.67 0.343v-0.875l1.67-0.328h0.937v6.2h1.56v0.797h-4.05z" style="fill:none;stroke-width:.393;stroke:#000"/><text transform="translate(61 62.5)" style="fill:#000000;font-family:'DejaVu Sans';font-size:9.62px"><tspan x="0" y="0">0</tspan></text><path d="m64 56.2c-0.48 0-0.843 0.243-1.09 0.719-0.25 0.481-0.375 1.2-0.375 2.16 0 0.961 0.125 1.68 0.375 2.17 0.25 0.481 0.613 0.719 1.09 0.719 0.5 0 0.868-0.238 1.11-0.719 0.25-0.488 0.375-1.21 0.375-2.17 0-0.957-0.125-1.68-0.375-2.16-0.242-0.476-0.61-0.719-1.11-0.719zm0-0.75c0.789 0 1.39 0.313 1.8 0.938 0.414 0.617 0.625 1.51 0.625 2.69 0 1.18-0.211 2.08-0.625 2.7-0.406 0.625-1.01 0.938-1.8 0.938-0.781 0-1.38-0.313-1.8-0.938-0.406-0.625-0.609-1.52-0.609-2.7 0-1.18 0.203-2.07 0.609-2.69 0.415-0.625 1.02-0.938 1.8-0.938z" style="fill:none;stroke-width:.393;stroke:#000"/><text transform="translate(67.1 62.5)" style="fill:#000000;font-family:'DejaVu Sans';font-size:9.62px"><tspan x="0" y="0">1</tspan></text><path d="m68.3 61.7h1.55v-5.34l-1.67 0.343v-0.875l1.67-0.328h0.937v6.2h1.56v0.797h-4.05z" style="fill:none;stroke-width:.393;stroke:#000"/><text transform="translate(73.2 62.5)" style="fill:#000000;font-family:'DejaVu Sans';font-size:9.62px"><tspan x="0" y="0">0</tspan></text><path d="m76.3 56.2c-0.48 0-0.843 0.243-1.09 0.719-0.25 0.481-0.375 1.2-0.375 2.16 0 0.961 0.125 1.68 0.375 2.17 0.25 0.481 0.613 0.719 1.09 0.719 0.5 0 0.868-0.238 1.11-0.719 0.25-0.488 0.375-1.21 0.375-2.17 0-0.957-0.125-1.68-0.375-2.16-0.242-0.476-0.61-0.719-1.11-0.719zm0-0.75c0.789 0 1.39 0.313 1.8 0.938 0.414 0.617 0.625 1.51 0.625 2.69 0 1.18-0.211 2.08-0.625 2.7-0.406 0.625-1.01 0.938-1.8 0.938-0.781 0-1.38-0.313-1.8-0.938-0.407-0.625-0.61-1.52-0.61-2.7 0-1.18 0.203-2.07 0.61-2.69 0.414-0.625 1.02-0.938 1.8-0.938z" style="fill:none;stroke-width:.393;stroke:#000"/><text transform="translate(79.4 62.5)" style="fill:#000000;font-family:'DejaVu Sans';font-size:9.62px"><tspan x="0" y="0">1</tspan></text><path d="m80.5 61.7h1.55v-5.34l-1.67 0.343v-0.875l1.67-0.328h0.938v6.2h1.56v0.797h-4.05z" style="fill:none;stroke-width:.393;stroke:#000"/><text transform="translate(85.5 62.5)" style="fill:#000000;font-family:'DejaVu Sans';font-size:9.62px"><tspan x="0" y="0">0</tspan></text><path d="m88.5 56.2c-0.481 0-0.844 0.243-1.09 0.719-0.25 0.481-0.375 1.2-0.375 2.16 0 0.961 0.125 1.68 0.375 2.17 0.25 0.481 0.613 0.719 1.09 0.719 0.5 0 0.867-0.238 1.11-0.719 0.25-0.488 0.375-1.21 0.375-2.17 0-0.957-0.125-1.68-0.375-2.16-0.242-0.476-0.609-0.719-1.11-0.719zm0-0.75c0.789 0 1.39 0.313 1.8 0.938 0.415 0.617 0.626 1.51 0.626 2.69 0 1.18-0.211 2.08-0.626 2.7-0.406 0.625-1.01 0.938-1.8 0.938-0.782 0-1.38-0.313-1.8-0.938-0.407-0.625-0.61-1.52-0.61-2.7 0-1.18 0.203-2.07 0.61-2.69 0.414-0.625 1.02-0.938 1.8-0.938z" style="fill:none;stroke-width:.393;stroke:#000"/><text transform="translate(91.6 62.5)" style="fill:#000000;font-family:'DejaVu Sans';font-size:9.62px"><tspan x="0" y="0">0</tspan></text><path d="m94.6 56.2c-0.481 0-0.844 0.243-1.09 0.719-0.25 0.481-0.375 1.2-0.375 2.16 0 0.961 0.125 1.68 0.375 2.17 0.25 0.481 0.613 0.719 1.09 0.719 0.5 0 0.867-0.238 1.11-0.719 0.25-0.488 0.375-1.21 0.375-2.17 0-0.957-0.125-1.68-0.375-2.16-0.242-0.476-0.609-0.719-1.11-0.719zm0-0.75c0.789 0 1.39 0.313 1.8 0.938 0.414 0.617 0.625 1.51 0.625 2.69 0 1.18-0.211 2.08-0.625 2.7-0.407 0.625-1.01 0.938-1.8 0.938-0.782 0-1.38-0.313-1.8-0.938-0.406-0.625-0.61-1.52-0.61-2.7 0-1.18 0.204-2.07 0.61-2.69 0.414-0.625 1.02-0.938 1.8-0.938z" style="fill:none;stroke-width:.393;stroke:#000"/><text transform="translate(-.24 73.7)" style="fill:#000000;font-family:'DejaVu Sans';font-size:9.62px"><tspan x="0" y="0">1</tspan></text><path d="m0.949 72.9h1.55v-5.34l-1.67 0.344v-0.875l1.67-0.328h0.938v6.2h1.56v0.797h-4.05z" style="fill:none;stroke-width:.393;stroke:#000"/><text transform="translate(5.88 73.7)" style="fill:#000000;font-family:'DejaVu Sans';font-size:9.62px"><tspan x="0" y="0">0</tspan></text><path d="m8.93 67.3c-0.481 0-0.844 0.242-1.09 0.718-0.25 0.481-0.375 1.2-0.375 2.16 0 0.961 0.125 1.68 0.375 2.17 0.25 0.48 0.613 0.718 1.09 0.718 0.5 0 0.867-0.238 1.11-0.718 0.25-0.489 0.375-1.21 0.375-2.17 0-0.957-0.125-1.68-0.375-2.16-0.242-0.476-0.609-0.718-1.11-0.718zm0-0.75c0.789 0 1.39 0.312 1.8 0.937 0.414 0.617 0.625 1.51 0.625 2.69 0 1.18-0.211 2.08-0.625 2.7-0.407 0.625-1.01 0.937-1.8 0.937-0.782 0-1.38-0.312-1.8-0.937-0.406-0.625-0.61-1.52-0.61-2.7 0-1.18 0.204-2.07 0.61-2.69 0.414-0.625 1.02-0.937 1.8-0.937z" style="fill:none;stroke-width:.393;stroke:#000"/><text transform="translate(12 73.7)" style="fill:#000000;font-family:'DejaVu Sans';font-size:9.62px"><tspan x="0" y="0">1</tspan></text><path d="m13.2 72.9h1.55v-5.34l-1.67 0.344v-0.875l1.67-0.328h0.938v6.2h1.56v0.797h-4.05z" style="fill:none;stroke-width:.393;stroke:#000"/><text transform="translate(18.1 73.7)" style="fill:#000000;font-family:'DejaVu Sans';font-size:9.62px"><tspan x="0" y="0">1</tspan></text><path d="m19.3 72.9h1.55v-5.34l-1.67 0.344v-0.875l1.67-0.328h0.938v6.2h1.56v0.797h-4.05z" style="fill:none;stroke-width:.393;stroke:#000"/><text transform="translate(24.2 73.7)" style="fill:#000000;font-family:'DejaVu Sans';font-size:9.62px"><tspan x="0" y="0">1</tspan></text><path d="m25.4 72.9h1.55v-5.34l-1.67 0.344v-0.875l1.67-0.328h0.938v6.2h1.56v0.797h-4.05z" style="fill:none;stroke-width:.393;stroke:#000"/><text transform="translate(30.4 73.7)" style="fill:#000000;font-family:'DejaVu Sans';font-size:9.62px"><tspan x="0" y="0">1</tspan></text><path d="m31.6 72.9h1.55v-5.34l-1.67 0.344v-0.875l1.67-0.328h0.938v6.2h1.56v0.797h-4.05z" style="fill:none;stroke-width:.393;stroke:#000"/><text transform="translate(36.5 73.7)" style="fill:#000000;font-family:'DejaVu Sans';font-size:9.62px"><tspan x="0" y="0">0</tspan></text><path d="m39.5 67.3c-0.48 0-0.844 0.242-1.09 0.718-0.25 0.481-0.375 1.2-0.375 2.16 0 0.961 0.125 1.68 0.375 2.17 0.25 0.48 0.614 0.718 1.09 0.718 0.5 0 0.867-0.238 1.11-0.718 0.25-0.489 0.375-1.21 0.375-2.17 0-0.957-0.125-1.68-0.375-2.16-0.242-0.476-0.609-0.718-1.11-0.718zm0-0.75c0.789 0 1.39 0.312 1.8 0.937 0.414 0.617 0.625 1.51 0.625 2.69 0 1.18-0.211 2.08-0.625 2.7-0.406 0.625-1.01 0.937-1.8 0.937-0.781 0-1.38-0.312-1.8-0.937-0.406-0.625-0.609-1.52-0.609-2.7 0-1.18 0.203-2.07 0.609-2.69 0.414-0.625 1.02-0.937 1.8-0.937z" style="fill:none;stroke-width:.393;stroke:#000"/><text transform="translate(42.6 73.7)" style="fill:#000000;font-family:'DejaVu Sans';font-size:9.62px"><tspan x="0" y="0">1</tspan></text><path d="m43.8 72.9h1.55v-5.34l-1.67 0.344v-0.875l1.67-0.328h0.937v6.2h1.56v0.797h-4.05z" style="fill:none;stroke-width:.393;stroke:#000"/><text transform="translate(48.7 73.7)" style="fill:#000000;font-family:'DejaVu Sans';font-size:9.62px"><tspan x="0" y="0">1</tspan></text><path d="m49.9 72.9h1.55v-5.34l-1.67 0.344v-0.875l1.67-0.328h0.937v6.2h1.56v0.797h-4.05z" style="fill:none;stroke-width:.393;stroke:#000"/><text transform="translate(54.9 73.7)" style="fill:#000000;font-family:'DejaVu Sans';font-size:9.62px"><tspan x="0" y="0">1</tspan></text><path d="m56 72.9h1.55v-5.34l-1.67 0.344v-0.875l1.67-0.328h0.937v6.2h1.56v0.797h-4.05z" style="fill:none;stroke-width:.393;stroke:#000"/><text transform="translate(61 73.7)" style="fill:#000000;font-family:'DejaVu Sans';font-size:9.62px"><tspan x="0" y="0">0</tspan></text><path d="m64 67.3c-0.48 0-0.843 0.242-1.09 0.718-0.25 0.481-0.375 1.2-0.375 2.16 0 0.961 0.125 1.68 0.375 2.17 0.25 0.48 0.613 0.718 1.09 0.718 0.5 0 0.868-0.238 1.11-0.718 0.25-0.489 0.375-1.21 0.375-2.17 0-0.957-0.125-1.68-0.375-2.16-0.242-0.476-0.61-0.718-1.11-0.718zm0-0.75c0.789 0 1.39 0.312 1.8 0.937 0.414 0.617 0.625 1.51 0.625 2.69 0 1.18-0.211 2.08-0.625 2.7-0.406 0.625-1.01 0.937-1.8 0.937-0.781 0-1.38-0.312-1.8-0.937-0.406-0.625-0.609-1.52-0.609-2.7 0-1.18 0.203-2.07 0.609-2.69 0.415-0.625 1.02-0.937 1.8-0.937z" style="fill:none;stroke-width:.393;stroke:#000"/><text transform="translate(67.1 73.7)" style="fill:#000000;font-family:'DejaVu Sans';font-size:9.62px"><tspan x="0" y="0">1</tspan></text><path d="m68.3 72.9h1.55v-5.34l-1.67 0.344v-0.875l1.67-0.328h0.937v6.2h1.56v0.797h-4.05z" style="fill:none;stroke-width:.393;stroke:#000"/><text transform="translate(73.2 73.7)" style="fill:#000000;font-family:'DejaVu Sans';font-size:9.62px"><tspan x="0" y="0">0</tspan></text><path d="m76.3 67.3c-0.48 0-0.843 0.242-1.09 0.718-0.25 0.481-0.375 1.2-0.375 2.16 0 0.961 0.125 1.68 0.375 2.17 0.25 0.48 0.613 0.718 1.09 0.718 0.5 0 0.868-0.238 1.11-0.718 0.25-0.489 0.375-1.21 0.375-2.17 0-0.957-0.125-1.68-0.375-2.16-0.242-0.476-0.61-0.718-1.11-0.718zm0-0.75c0.789 0 1.39 0.312 1.8 0.937 0.414 0.617 0.625 1.51 0.625 2.69 0 1.18-0.211 2.08-0.625 2.7-0.406 0.625-1.01 0.937-1.8 0.937-0.781 0-1.38-0.312-1.8-0.937-0.407-0.625-0.61-1.52-0.61-2.7 0-1.18 0.203-2.07 0.61-2.69 0.414-0.625 1.02-0.937 1.8-0.937z" style="fill:none;stroke-width:.393;stroke:#000"/><text transform="translate(79.4 73.7)" style="fill:#000000;font-family:'DejaVu Sans';font-size:9.62px"><tspan x="0" y="0">1</tspan></text><path d="m80.5 72.9h1.55v-5.34l-1.67 0.344v-0.875l1.67-0.328h0.938v6.2h1.56v0.797h-4.05z" style="fill:none;stroke-width:.393;stroke:#000"/><text transform="translate(85.5 73.7)" style="fill:#000000;font-family:'DejaVu Sans';font-size:9.62px"><tspan x="0" y="0">0</tspan></text><path d="m88.5 67.3c-0.481 0-0.844 0.242-1.09 0.718-0.25 0.481-0.375 1.2-0.375 2.16 0 0.961 0.125 1.68 0.375 2.17 0.25 0.48 0.613 0.718 1.09 0.718 0.5 0 0.867-0.238 1.11-0.718 0.25-0.489 0.375-1.21 0.375-2.17 0-0.957-0.125-1.68-0.375-2.16-0.242-0.476-0.609-0.718-1.11-0.718zm0-0.75c0.789 0 1.39 0.312 1.8 0.937 0.415 0.617 0.626 1.51 0.626 2.69 0 1.18-0.211 2.08-0.626 2.7-0.406 0.625-1.01 0.937-1.8 0.937-0.782 0-1.38-0.312-1.8-0.937-0.407-0.625-0.61-1.52-0.61-2.7 0-1.18 0.203-2.07 0.61-2.69 0.414-0.625 1.02-0.937 1.8-0.937z" style="fill:none;stroke-width:.393;stroke:#000"/><text transform="translate(91.6 73.7)" style="fill:#000000;font-family:'DejaVu Sans';font-size:9.62px"><tspan x="0" y="0">1</tspan></text><path d="m92.8 72.9h1.55v-5.34l-1.67 0.344v-0.875l1.67-0.328h0.938v6.2h1.56v0.797h-4.05z" style="fill:none;stroke-width:.393;stroke:#000"/><text transform="translate(-.24 84.8)" style="fill:#000000;font-family:'DejaVu Sans';font-size:9.62px"><tspan x="0" y="0">0</tspan></text><path d="m2.81 78.5c-0.481 0-0.844 0.242-1.09 0.719-0.25 0.48-0.375 1.2-0.375 2.16 0 0.961 0.125 1.68 0.375 2.17 0.25 0.48 0.613 0.719 1.09 0.719 0.5 0 0.867-0.239 1.11-0.719 0.25-0.488 0.375-1.21 0.375-2.17 0-0.957-0.125-1.68-0.375-2.16-0.242-0.477-0.609-0.719-1.11-0.719zm0-0.75c0.789 0 1.39 0.313 1.8 0.938 0.415 0.617 0.625 1.51 0.625 2.69 0 1.18-0.21 2.08-0.625 2.7-0.406 0.625-1.01 0.938-1.8 0.938-0.782 0-1.38-0.313-1.8-0.938-0.407-0.625-0.61-1.52-0.61-2.7 0-1.18 0.203-2.07 0.61-2.69 0.414-0.625 1.02-0.938 1.8-0.938z" style="fill:none;stroke-width:.393;stroke:#000"/><text transform="translate(5.88 84.8)" style="fill:#000000;font-family:'DejaVu Sans';font-size:9.62px"><tspan x="0" y="0">1</tspan></text><path d="m7.07 84h1.55v-5.34l-1.67 0.344v-0.875l1.67-0.328h0.938v6.2h1.56v0.797h-4.05z" style="fill:none;stroke-width:.393;stroke:#000"/><text transform="translate(12 84.8)" style="fill:#000000;font-family:'DejaVu Sans';font-size:9.62px"><tspan x="0" y="0">0</tspan></text><path d="m15 78.5c-0.481 0-0.844 0.242-1.09 0.719-0.25 0.48-0.375 1.2-0.375 2.16 0 0.961 0.125 1.68 0.375 2.17 0.25 0.48 0.613 0.719 1.09 0.719 0.5 0 0.867-0.239 1.11-0.719 0.25-0.488 0.375-1.21 0.375-2.17 0-0.957-0.125-1.68-0.375-2.16-0.242-0.477-0.609-0.719-1.11-0.719zm0-0.75c0.789 0 1.39 0.313 1.8 0.938 0.414 0.617 0.625 1.51 0.625 2.69 0 1.18-0.211 2.08-0.625 2.7-0.407 0.625-1.01 0.938-1.8 0.938-0.781 0-1.38-0.313-1.8-0.938-0.406-0.625-0.609-1.52-0.609-2.7 0-1.18 0.203-2.07 0.609-2.69 0.414-0.625 1.02-0.938 1.8-0.938z" style="fill:none;stroke-width:.393;stroke:#000"/><text transform="translate(18.1 84.8)" style="fill:#000000;font-family:'DejaVu Sans';font-size:9.62px"><tspan x="0" y="0">1</tspan></text><path d="m19.3 84h1.55v-5.34l-1.67 0.344v-0.875l1.67-0.328h0.938v6.2h1.56v0.797h-4.05z" style="fill:none;stroke-width:.393;stroke:#000"/><text transform="translate(24.2 84.8)" style="fill:#000000;font-family:'DejaVu Sans';font-size:9.62px"><tspan x="0" y="0">0</tspan></text><path d="m27.3 78.5c-0.481 0-0.844 0.242-1.09 0.719-0.25 0.48-0.375 1.2-0.375 2.16 0 0.961 0.125 1.68 0.375 2.17 0.25 0.48 0.613 0.719 1.09 0.719 0.5 0 0.867-0.239 1.11-0.719 0.25-0.488 0.375-1.21 0.375-2.17 0-0.957-0.125-1.68-0.375-2.16-0.242-0.477-0.609-0.719-1.11-0.719zm0-0.75c0.789 0 1.39 0.313 1.8 0.938 0.414 0.617 0.625 1.51 0.625 2.69 0 1.18-0.211 2.08-0.625 2.7-0.406 0.625-1.01 0.938-1.8 0.938-0.781 0-1.38-0.313-1.8-0.938-0.406-0.625-0.609-1.52-0.609-2.7 0-1.18 0.203-2.07 0.609-2.69 0.414-0.625 1.02-0.938 1.8-0.938z" style="fill:none;stroke-width:.393;stroke:#000"/><text transform="translate(30.4 84.8)" style="fill:#000000;font-family:'DejaVu Sans';font-size:9.62px"><tspan x="0" y="0">1</tspan></text><path d="m31.6 84h1.55v-5.34l-1.67 0.344v-0.875l1.67-0.328h0.938v6.2h1.56v0.797h-4.05z" style="fill:none;stroke-width:.393;stroke:#000"/><text transform="translate(36.5 84.8)" style="fill:#000000;font-family:'DejaVu Sans';font-size:9.62px"><tspan x="0" y="0">0</tspan></text><path d="m39.5 78.5c-0.48 0-0.844 0.242-1.09 0.719-0.25 0.48-0.375 1.2-0.375 2.16 0 0.961 0.125 1.68 0.375 2.17 0.25 0.48 0.614 0.719 1.09 0.719 0.5 0 0.867-0.239 1.11-0.719 0.25-0.488 0.375-1.21 0.375-2.17 0-0.957-0.125-1.68-0.375-2.16-0.242-0.477-0.609-0.719-1.11-0.719zm0-0.75c0.789 0 1.39 0.313 1.8 0.938 0.414 0.617 0.625 1.51 0.625 2.69 0 1.18-0.211 2.08-0.625 2.7-0.406 0.625-1.01 0.938-1.8 0.938-0.781 0-1.38-0.313-1.8-0.938-0.406-0.625-0.609-1.52-0.609-2.7 0-1.18 0.203-2.07 0.609-2.69 0.414-0.625 1.02-0.938 1.8-0.938z" style="fill:none;stroke-width:.393;stroke:#000"/><text transform="translate(42.6 84.8)" style="fill:#000000;font-family:'DejaVu Sans';font-size:9.62px"><tspan x="0" y="0">1</tspan></text><path d="m43.8 84h1.55v-5.34l-1.67 0.344v-0.875l1.67-0.328h0.937v6.2h1.56v0.797h-4.05z" style="fill:none;stroke-width:.393;stroke:#000"/><text transform="translate(48.7 84.8)" style="fill:#000000;font-family:'DejaVu Sans';font-size:9.62px"><tspan x="0" y="0">0</tspan></text><path d="m51.8 78.5c-0.48 0-0.844 0.242-1.09 0.719-0.25 0.48-0.375 1.2-0.375 2.16 0 0.961 0.125 1.68 0.375 2.17 0.25 0.48 0.614 0.719 1.09 0.719 0.5 0 0.867-0.239 1.11-0.719 0.25-0.488 0.375-1.21 0.375-2.17 0-0.957-0.125-1.68-0.375-2.16-0.243-0.477-0.61-0.719-1.11-0.719zm0-0.75c0.789 0 1.39 0.313 1.8 0.938 0.414 0.617 0.625 1.51 0.625 2.69 0 1.18-0.211 2.08-0.625 2.7-0.406 0.625-1.01 0.938-1.8 0.938-0.781 0-1.38-0.313-1.8-0.938-0.406-0.625-0.609-1.52-0.609-2.7 0-1.18 0.203-2.07 0.609-2.69 0.414-0.625 1.02-0.938 1.8-0.938z" style="fill:none;stroke-width:.393;stroke:#000"/><text transform="translate(54.9 84.8)" style="fill:#000000;font-family:'DejaVu Sans';font-size:9.62px"><tspan x="0" y="0">0</tspan></text><path d="m57.9 78.5c-0.48 0-0.844 0.242-1.09 0.719-0.25 0.48-0.374 1.2-0.374 2.16 0 0.961 0.124 1.68 0.374 2.17 0.25 0.48 0.614 0.719 1.09 0.719 0.5 0 0.867-0.239 1.11-0.719 0.25-0.488 0.375-1.21 0.375-2.17 0-0.957-0.125-1.68-0.375-2.16-0.243-0.477-0.61-0.719-1.11-0.719zm0-0.75c0.789 0 1.39 0.313 1.8 0.938 0.414 0.617 0.625 1.51 0.625 2.69 0 1.18-0.211 2.08-0.625 2.7-0.406 0.625-1.01 0.938-1.8 0.938-0.781 0-1.38-0.313-1.8-0.938-0.406-0.625-0.609-1.52-0.609-2.7 0-1.18 0.203-2.07 0.609-2.69 0.414-0.625 1.02-0.938 1.8-0.938z" style="fill:none;stroke-width:.393;stroke:#000"/><text transform="translate(61 84.8)" style="fill:#000000;font-family:'DejaVu Sans';font-size:9.62px"><tspan x="0" y="0">0</tspan></text><path d="m64 78.5c-0.48 0-0.843 0.242-1.09 0.719-0.25 0.48-0.375 1.2-0.375 2.16 0 0.961 0.125 1.68 0.375 2.17 0.25 0.48 0.613 0.719 1.09 0.719 0.5 0 0.868-0.239 1.11-0.719 0.25-0.488 0.375-1.21 0.375-2.17 0-0.957-0.125-1.68-0.375-2.16-0.242-0.477-0.61-0.719-1.11-0.719zm0-0.75c0.789 0 1.39 0.313 1.8 0.938 0.414 0.617 0.625 1.51 0.625 2.69 0 1.18-0.211 2.08-0.625 2.7-0.406 0.625-1.01 0.938-1.8 0.938-0.781 0-1.38-0.313-1.8-0.938-0.406-0.625-0.609-1.52-0.609-2.7 0-1.18 0.203-2.07 0.609-2.69 0.415-0.625 1.02-0.938 1.8-0.938z" style="fill:none;stroke-width:.393;stroke:#000"/><text transform="translate(67.1 84.8)" style="fill:#000000;font-family:'DejaVu Sans';font-size:9.62px"><tspan x="0" y="0">1</tspan></text><path d="m68.3 84h1.55v-5.34l-1.67 0.344v-0.875l1.67-0.328h0.937v6.2h1.56v0.797h-4.05z" style="fill:none;stroke-width:.393;stroke:#000"/><text transform="translate(73.2 84.8)" style="fill:#000000;font-family:'DejaVu Sans';font-size:9.62px"><tspan x="0" y="0">1</tspan></text><path d="m74.4 84h1.55v-5.34l-1.67 0.344v-0.875l1.67-0.328h0.937v6.2h1.56v0.797h-4.05z" style="fill:none;stroke-width:.393;stroke:#000"/><text transform="translate(79.4 84.8)" style="fill:#000000;font-family:'DejaVu Sans';font-size:9.62px"><tspan x="0" y="0">0</tspan></text><path d="m82.4 78.5c-0.481 0-0.844 0.242-1.09 0.719-0.25 0.48-0.375 1.2-0.375 2.16 0 0.961 0.125 1.68 0.375 2.17 0.25 0.48 0.613 0.719 1.09 0.719 0.5 0 0.867-0.239 1.11-0.719 0.25-0.488 0.375-1.21 0.375-2.17 0-0.957-0.125-1.68-0.375-2.16-0.242-0.477-0.609-0.719-1.11-0.719zm0-0.75c0.789 0 1.39 0.313 1.8 0.938 0.414 0.617 0.625 1.51 0.625 2.69 0 1.18-0.211 2.08-0.625 2.7-0.406 0.625-1.01 0.938-1.8 0.938-0.782 0-1.38-0.313-1.8-0.938-0.407-0.625-0.61-1.52-0.61-2.7 0-1.18 0.203-2.07 0.61-2.69 0.414-0.625 1.02-0.938 1.8-0.938z" style="fill:none;stroke-width:.393;stroke:#000"/><text transform="translate(85.5 84.8)" style="fill:#000000;font-family:'DejaVu Sans';font-size:9.62px"><tspan x="0" y="0">1</tspan></text><path d="m86.7 84h1.55v-5.34l-1.67 0.344v-0.875l1.67-0.328h0.938v6.2h1.56v0.797h-4.05z" style="fill:none;stroke-width:.393;stroke:#000"/><text transform="translate(91.6 84.8)" style="fill:#000000;font-family:'DejaVu Sans';font-size:9.62px"><tspan x="0" y="0">0</tspan></text><path d="m94.6 78.5c-0.481 0-0.844 0.242-1.09 0.719-0.25 0.48-0.375 1.2-0.375 2.16 0 0.961 0.125 1.68 0.375 2.17 0.25 0.48 0.613 0.719 1.09 0.719 0.5 0 0.867-0.239 1.11-0.719 0.25-0.488 0.375-1.21 0.375-2.17 0-0.957-0.125-1.68-0.375-2.16-0.242-0.477-0.609-0.719-1.11-0.719zm0-0.75c0.789 0 1.39 0.313 1.8 0.938 0.414 0.617 0.625 1.51 0.625 2.69 0 1.18-0.211 2.08-0.625 2.7-0.407 0.625-1.01 0.938-1.8 0.938-0.782 0-1.38-0.313-1.8-0.938-0.406-0.625-0.61-1.52-0.61-2.7 0-1.18 0.204-2.07 0.61-2.69 0.414-0.625 1.02-0.938 1.8-0.938z" style="fill:none;stroke-width:.393;stroke:#000"/><text transform="translate(-.24 96)" style="fill:#000000;font-family:'DejaVu Sans';font-size:9.62px"><tspan x="0" y="0">0</tspan></text><path d="m2.81 89.6c-0.481 0-0.844 0.242-1.09 0.719-0.25 0.48-0.375 1.2-0.375 2.16 0 0.961 0.125 1.68 0.375 2.17 0.25 0.481 0.613 0.719 1.09 0.719 0.5 0 0.867-0.238 1.11-0.719 0.25-0.488 0.375-1.21 0.375-2.17 0-0.957-0.125-1.68-0.375-2.16-0.242-0.477-0.609-0.719-1.11-0.719zm0-0.75c0.789 0 1.39 0.313 1.8 0.938 0.415 0.617 0.625 1.51 0.625 2.69 0 1.18-0.21 2.08-0.625 2.7-0.406 0.625-1.01 0.938-1.8 0.938-0.782 0-1.38-0.313-1.8-0.938-0.407-0.625-0.61-1.52-0.61-2.7 0-1.18 0.203-2.07 0.61-2.69 0.414-0.625 1.02-0.938 1.8-0.938z" style="fill:none;stroke-width:.393;stroke:#000"/><text transform="translate(5.88 96)" style="fill:#000000;font-family:'DejaVu Sans';font-size:9.62px"><tspan x="0" y="0">1</tspan></text><path d="m7.07 95.2h1.55v-5.34l-1.67 0.343v-0.875l1.67-0.328h0.938v6.2h1.56v0.797h-4.05z" style="fill:none;stroke-width:.393;stroke:#000"/><text transform="translate(12 96)" style="fill:#000000;font-family:'DejaVu Sans';font-size:9.62px"><tspan x="0" y="0">1</tspan></text><path d="m13.2 95.2h1.55v-5.34l-1.67 0.343v-0.875l1.67-0.328h0.938v6.2h1.56v0.797h-4.05z" style="fill:none;stroke-width:.393;stroke:#000"/><text transform="translate(18.1 96)" style="fill:#000000;font-family:'DejaVu Sans';font-size:9.62px"><tspan x="0" y="0">1</tspan></text><path d="m19.3 95.2h1.55v-5.34l-1.67 0.343v-0.875l1.67-0.328h0.938v6.2h1.56v0.797h-4.05z" style="fill:none;stroke-width:.393;stroke:#000"/><text transform="translate(24.2 96)" style="fill:#000000;font-family:'DejaVu Sans';font-size:9.62px"><tspan x="0" y="0">0</tspan></text><path d="m27.3 89.6c-0.481 0-0.844 0.242-1.09 0.719-0.25 0.48-0.375 1.2-0.375 2.16 0 0.961 0.125 1.68 0.375 2.17 0.25 0.481 0.613 0.719 1.09 0.719 0.5 0 0.867-0.238 1.11-0.719 0.25-0.488 0.375-1.21 0.375-2.17 0-0.957-0.125-1.68-0.375-2.16-0.242-0.477-0.609-0.719-1.11-0.719zm0-0.75c0.789 0 1.39 0.313 1.8 0.938 0.414 0.617 0.625 1.51 0.625 2.69 0 1.18-0.211 2.08-0.625 2.7-0.406 0.625-1.01 0.938-1.8 0.938-0.781 0-1.38-0.313-1.8-0.938-0.406-0.625-0.609-1.52-0.609-2.7 0-1.18 0.203-2.07 0.609-2.69 0.414-0.625 1.02-0.938 1.8-0.938z" style="fill:none;stroke-width:.393;stroke:#000"/><text transform="translate(30.4 96)" style="fill:#000000;font-family:'DejaVu Sans';font-size:9.62px"><tspan x="0" y="0">0</tspan></text><path d="m33.4 89.6c-0.48 0-0.844 0.242-1.09 0.719-0.25 0.48-0.375 1.2-0.375 2.16 0 0.961 0.125 1.68 0.375 2.17 0.25 0.481 0.614 0.719 1.09 0.719 0.5 0 0.867-0.238 1.11-0.719 0.25-0.488 0.375-1.21 0.375-2.17 0-0.957-0.125-1.68-0.375-2.16-0.242-0.477-0.609-0.719-1.11-0.719zm0-0.75c0.789 0 1.39 0.313 1.8 0.938 0.414 0.617 0.625 1.51 0.625 2.69 0 1.18-0.211 2.08-0.625 2.7-0.406 0.625-1.01 0.938-1.8 0.938-0.781 0-1.38-0.313-1.8-0.938-0.406-0.625-0.609-1.52-0.609-2.7 0-1.18 0.203-2.07 0.609-2.69 0.414-0.625 1.02-0.938 1.8-0.938z" style="fill:none;stroke-width:.393;stroke:#000"/><text transform="translate(36.5 96)" style="fill:#000000;font-family:'DejaVu Sans';font-size:9.62px"><tspan x="0" y="0">0</tspan></text><path d="m39.5 89.6c-0.48 0-0.844 0.242-1.09 0.719-0.25 0.48-0.375 1.2-0.375 2.16 0 0.961 0.125 1.68 0.375 2.17 0.25 0.481 0.614 0.719 1.09 0.719 0.5 0 0.867-0.238 1.11-0.719 0.25-0.488 0.375-1.21 0.375-2.17 0-0.957-0.125-1.68-0.375-2.16-0.242-0.477-0.609-0.719-1.11-0.719zm0-0.75c0.789 0 1.39 0.313 1.8 0.938 0.414 0.617 0.625 1.51 0.625 2.69 0 1.18-0.211 2.08-0.625 2.7-0.406 0.625-1.01 0.938-1.8 0.938-0.781 0-1.38-0.313-1.8-0.938-0.406-0.625-0.609-1.52-0.609-2.7 0-1.18 0.203-2.07 0.609-2.69 0.414-0.625 1.02-0.938 1.8-0.938z" style="fill:none;stroke-width:.393;stroke:#000"/><text transform="translate(42.6 96)" style="fill:#000000;font-family:'DejaVu Sans';font-size:9.62px"><tspan x="0" y="0">0</tspan></text><path d="m45.7 89.6c-0.48 0-0.844 0.242-1.09 0.719-0.25 0.48-0.375 1.2-0.375 2.16 0 0.961 0.125 1.68 0.375 2.17 0.25 0.481 0.614 0.719 1.09 0.719 0.5 0 0.867-0.238 1.11-0.719 0.25-0.488 0.375-1.21 0.375-2.17 0-0.957-0.125-1.68-0.375-2.16-0.243-0.477-0.61-0.719-1.11-0.719zm0-0.75c0.789 0 1.39 0.313 1.8 0.938 0.414 0.617 0.625 1.51 0.625 2.69 0 1.18-0.211 2.08-0.625 2.7-0.406 0.625-1.01 0.938-1.8 0.938-0.781 0-1.38-0.313-1.8-0.938-0.406-0.625-0.609-1.52-0.609-2.7 0-1.18 0.203-2.07 0.609-2.69 0.414-0.625 1.02-0.938 1.8-0.938z" style="fill:none;stroke-width:.393;stroke:#000"/><text transform="translate(48.7 96)" style="fill:#000000;font-family:'DejaVu Sans';font-size:9.62px"><tspan x="0" y="0">0</tspan></text><path d="m51.8 89.6c-0.48 0-0.844 0.242-1.09 0.719-0.25 0.48-0.375 1.2-0.375 2.16 0 0.961 0.125 1.68 0.375 2.17 0.25 0.481 0.614 0.719 1.09 0.719 0.5 0 0.867-0.238 1.11-0.719 0.25-0.488 0.375-1.21 0.375-2.17 0-0.957-0.125-1.68-0.375-2.16-0.243-0.477-0.61-0.719-1.11-0.719zm0-0.75c0.789 0 1.39 0.313 1.8 0.938 0.414 0.617 0.625 1.51 0.625 2.69 0 1.18-0.211 2.08-0.625 2.7-0.406 0.625-1.01 0.938-1.8 0.938-0.781 0-1.38-0.313-1.8-0.938-0.406-0.625-0.609-1.52-0.609-2.7 0-1.18 0.203-2.07 0.609-2.69 0.414-0.625 1.02-0.938 1.8-0.938z" style="fill:none;stroke-width:.393;stroke:#000"/><text transform="translate(54.9 96)" style="fill:#000000;font-family:'DejaVu Sans';font-size:9.62px"><tspan x="0" y="0">0</tspan></text><path d="m57.9 89.6c-0.48 0-0.844 0.242-1.09 0.719-0.25 0.48-0.374 1.2-0.374 2.16 0 0.961 0.124 1.68 0.374 2.17 0.25 0.481 0.614 0.719 1.09 0.719 0.5 0 0.867-0.238 1.11-0.719 0.25-0.488 0.375-1.21 0.375-2.17 0-0.957-0.125-1.68-0.375-2.16-0.243-0.477-0.61-0.719-1.11-0.719zm0-0.75c0.789 0 1.39 0.313 1.8 0.938 0.414 0.617 0.625 1.51 0.625 2.69 0 1.18-0.211 2.08-0.625 2.7-0.406 0.625-1.01 0.938-1.8 0.938-0.781 0-1.38-0.313-1.8-0.938-0.406-0.625-0.609-1.52-0.609-2.7 0-1.18 0.203-2.07 0.609-2.69 0.414-0.625 1.02-0.938 1.8-0.938z" style="fill:none;stroke-width:.393;stroke:#000"/><text transform="translate(61 96)" style="fill:#000000;font-family:'DejaVu Sans';font-size:9.62px"><tspan x="0" y="0">0</tspan></text><path d="m64 89.6c-0.48 0-0.843 0.242-1.09 0.719-0.25 0.48-0.375 1.2-0.375 2.16 0 0.961 0.125 1.68 0.375 2.17 0.25 0.481 0.613 0.719 1.09 0.719 0.5 0 0.868-0.238 1.11-0.719 0.25-0.488 0.375-1.21 0.375-2.17 0-0.957-0.125-1.68-0.375-2.16-0.242-0.477-0.61-0.719-1.11-0.719zm0-0.75c0.789 0 1.39 0.313 1.8 0.938 0.414 0.617 0.625 1.51 0.625 2.69 0 1.18-0.211 2.08-0.625 2.7-0.406 0.625-1.01 0.938-1.8 0.938-0.781 0-1.38-0.313-1.8-0.938-0.406-0.625-0.609-1.52-0.609-2.7 0-1.18 0.203-2.07 0.609-2.69 0.415-0.625 1.02-0.938 1.8-0.938z" style="fill:none;stroke-width:.393;stroke:#000"/><text transform="translate(67.1 96)" style="fill:#000000;font-family:'DejaVu Sans';font-size:9.62px"><tspan x="0" y="0">1</tspan></text><path d="m68.3 95.2h1.55v-5.34l-1.67 0.343v-0.875l1.67-0.328h0.937v6.2h1.56v0.797h-4.05z" style="fill:none;stroke-width:.393;stroke:#000"/><text transform="translate(73.2 96)" style="fill:#000000;font-family:'DejaVu Sans';font-size:9.62px"><tspan x="0" y="0">1</tspan></text><path d="m74.4 95.2h1.55v-5.34l-1.67 0.343v-0.875l1.67-0.328h0.937v6.2h1.56v0.797h-4.05z" style="fill:none;stroke-width:.393;stroke:#000"/><text transform="translate(79.4 96)" style="fill:#000000;font-family:'DejaVu Sans';font-size:9.62px"><tspan x="0" y="0">0</tspan></text><path d="m82.4 89.6c-0.481 0-0.844 0.242-1.09 0.719-0.25 0.48-0.375 1.2-0.375 2.16 0 0.961 0.125 1.68 0.375 2.17 0.25 0.481 0.613 0.719 1.09 0.719 0.5 0 0.867-0.238 1.11-0.719 0.25-0.488 0.375-1.21 0.375-2.17 0-0.957-0.125-1.68-0.375-2.16-0.242-0.477-0.609-0.719-1.11-0.719zm0-0.75c0.789 0 1.39 0.313 1.8 0.938 0.414 0.617 0.625 1.51 0.625 2.69 0 1.18-0.211 2.08-0.625 2.7-0.406 0.625-1.01 0.938-1.8 0.938-0.782 0-1.38-0.313-1.8-0.938-0.407-0.625-0.61-1.52-0.61-2.7 0-1.18 0.203-2.07 0.61-2.69 0.414-0.625 1.02-0.938 1.8-0.938z" style="fill:none;stroke-width:.393;stroke:#000"/><text transform="translate(85.5 96)" style="fill:#000000;font-family:'DejaVu Sans';font-size:9.62px"><tspan x="0" y="0">1</tspan></text><path d="m86.7 95.2h1.55v-5.34l-1.67 0.343v-0.875l1.67-0.328h0.938v6.2h1.56v0.797h-4.05z" style="fill:none;stroke-width:.393;stroke:#000"/><text transform="translate(91.6 96)" style="fill:#000000;font-family:'DejaVu Sans';font-size:9.62px"><tspan x="0" y="0">0</tspan></text><path d="m94.6 89.6c-0.481 0-0.844 0.242-1.09 0.719-0.25 0.48-0.375 1.2-0.375 2.16 0 0.961 0.125 1.68 0.375 2.17 0.25 0.481 0.613 0.719 1.09 0.719 0.5 0 0.867-0.238 1.11-0.719 0.25-0.488 0.375-1.21 0.375-2.17 0-0.957-0.125-1.68-0.375-2.16-0.242-0.477-0.609-0.719-1.11-0.719zm0-0.75c0.789 0 1.39 0.313 1.8 0.938 0.414 0.617 0.625 1.51 0.625 2.69 0 1.18-0.211 2.08-0.625 2.7-0.407 0.625-1.01 0.938-1.8 0.938-0.782 0-1.38-0.313-1.8-0.938-0.406-0.625-0.61-1.52-0.61-2.7 0-1.18 0.204-2.07 0.61-2.69 0.414-0.625 1.02-0.938 1.8-0.938z" style="fill:none;stroke-width:.393;stroke:#000"/><path d="m67.5 1.67c-1.46 0.863-3.9 3.31-6.8 6.86l2.66 5.04c1.88-2.68 3.78-5.09 5.7-7.15 0.152-0.164 0.222-0.238 0.222-0.238-0.07 0.074-0.152 0.164-0.222 0.238-0.621 0.68-2.51 2.88-5.35 7.25 2.74-0.137 6.94-0.695 10.4-1.28 1.03-5.72-0.996-8.34-0.996-8.34s-2.57-4.16-5.59-2.38z" style="fill:url(#cvfu)"/><path d="m58.5 44c-0.339 0.058-0.687 0.125-1.05 0.183 0 0-4e-3 0-4e-3 4e-3 0.183-0.027 0.363-0.055 0.539-0.082 0.168-0.035 0.34-0.07 0.515-0.105z" style="fill:#bd202e"/><g clip-path="url(#cvfp)" opacity=".35"><path d="m58.5 44c-0.339 0.058-0.687 0.125-1.05 0.183 0 0-4e-3 0-4e-3 4e-3 0.183-0.027 0.363-0.055 0.539-0.082 0.168-0.035 0.34-0.07 0.515-0.105z" style="fill:#bd202e"/></g><path d="m59.4 39.6c-4e-3 0-4e-3 0-4e-3 8e-3 0.051-8e-3 0.113-0.015 0.164-0.027 0.231-0.031 0.449-0.07 0.668-0.125-0.273 0.051-0.543 0.098-0.828 0.144z" style="fill:#bd202e"/><g clip-path="url(#cvfq)" opacity=".35"><path d="m59.4 39.6c-4e-3 0-4e-3 0-4e-3 8e-3 0.051-8e-3 0.113-0.015 0.164-0.027 0.231-0.031 0.449-0.07 0.668-0.125-0.273 0.051-0.543 0.098-0.828 0.144z" style="fill:#bd202e"/></g><path d="m55.5 26.6c0.813-1.52 1.63-3 2.46-4.44 0.86-1.5 1.74-2.95 2.61-4.36 0.051-0.078 0.11-0.164 0.157-0.246 0.871-1.38 1.75-2.71 2.63-3.97l-2.66-5.04c-0.2 0.242-0.399 0.492-0.606 0.75-0.773 0.965-1.57 1.99-2.39 3.09-0.925 1.23-1.87 2.55-2.84 3.93-0.886 1.27-1.8 2.61-2.7 4-0.773 1.18-1.54 2.39-2.31 3.63-0.028 0.042-0.051 0.093-0.078 0.14l3.47 6.86c0.735-1.49 1.49-2.94 2.25-4.36z" style="fill:url(#cvfv)"/><path d="m39.7 65.2c-0.461 1.26-0.926 2.55-1.39 3.86-4e-3 0.015-8e-3 0.039-0.019 0.055-0.067 0.183-0.137 0.371-0.196 0.554-0.312 0.887-0.582 1.69-1.2 3.5 1.02 0.465 1.84 1.7 2.62 3.09-0.082-1.44-0.676-2.8-1.82-3.85 5.04 0.23 9.38-1.05 11.6-4.73 0.199-0.332 0.383-0.672 0.55-1.04-1.02 1.3-2.29 1.84-4.68 1.71-4e-3 0-8e-3 8e-3 -0.016 8e-3 8e-3 0 0.012-8e-3 0.016-8e-3 3.51-1.57 5.27-3.08 6.83-5.57 0.367-0.594 0.726-1.24 1.09-1.96-3.07 3.15-6.62 4.05-10.4 3.37l-2.81 0.309c-0.09 0.238-0.172 0.468-0.262 0.707z" style="fill:url(#cvfw)"/><path d="m41 58.9c0.606-1.57 1.23-3.15 1.87-4.75 0.617-1.54 1.24-3.08 1.89-4.63 0.649-1.54 1.31-3.1 1.98-4.66 0.679-1.59 1.38-3.16 2.1-4.73 0.707-1.56 1.42-3.1 2.15-4.62 0.257-0.551 0.531-1.1 0.793-1.65 0.461-0.946 0.925-1.89 1.39-2.81 0.028-0.051 0.051-0.105 0.078-0.152l-3.48-6.86c-0.055 0.094-0.114 0.192-0.172 0.278-0.809 1.32-1.62 2.67-2.4 4.05-0.801 1.39-1.59 2.82-2.35 4.26-0.645 1.22-1.28 2.44-1.9 3.68-0.122 0.25-0.243 0.504-0.368 0.75-0.754 1.56-1.44 3.06-2.06 4.51-0.7 1.64-1.32 3.2-1.85 4.69-0.355 0.977-0.676 1.92-0.972 2.82-0.243 0.774-0.469 1.55-0.696 2.32-0.519 1.82-0.969 3.63-1.34 5.43l3.49 6.89c0.46-1.24 0.937-2.48 1.42-3.75 0.149-0.363 0.278-0.719 0.418-1.07z" style="fill:url(#cvfx)"/><path d="m35.6 57.1c-0.437 2.2-0.75 4.4-0.906 6.58-8e-3 0.078-0.012 0.152-0.016 0.226-1.09-1.74-4-3.44-4-3.43 2.09 3.03 3.68 6.03 3.91 8.98-1.12 0.227-2.65-0.102-4.41-0.75 1.84 1.7 3.23 2.16 3.77 2.29-1.7 0.109-3.46 1.27-5.24 2.61 2.6-1.06 4.7-1.48 6.2-1.14-2.39 6.75-4.78 14.2-7.17 22.1 0.734-0.219 1.17-0.715 1.41-1.38 0.426-1.43 3.25-10.8 7.69-23.2 0.133-0.352 0.254-0.708 0.387-1.06 0.031-0.106 0.07-0.199 0.106-0.293 0.464-1.3 0.957-2.62 1.45-3.97 0.113-0.304 0.226-0.613 0.347-0.922 0-3e-3 4e-3 -0.011 4e-3 -0.015l-3.5-6.89c-8e-3 0.071-0.027 0.153-0.043 0.235z" style="fill:url(#cvfy)"/><path d="m53.8 31.5c-0.101 0.207-0.199 0.414-0.304 0.617-0.301 0.621-0.602 1.25-0.918 1.9-0.332 0.703-0.668 1.41-1.01 2.15-0.176 0.367-0.348 0.742-0.52 1.12-0.519 1.13-1.04 2.3-1.58 3.5-0.652 1.48-1.33 3.02-2 4.61-0.644 1.52-1.31 3.1-1.97 4.73-0.629 1.55-1.27 3.14-1.92 4.79-0.579 1.46-1.16 2.98-1.74 4.53-0.027 0.071-0.054 0.153-0.082 0.223-0.582 1.54-1.17 3.12-1.76 4.74-0.012 0.039-0.028 0.07-0.039 0.113l2.81-0.308c-0.055-8e-3 -0.113-0.016-0.168-0.027 3.36-0.415 7.82-2.93 10.7-6.02 1.33-1.43 2.53-3.11 3.64-5.08 0.828-1.46 1.61-3.1 2.36-4.89 0.649-1.58 1.27-3.28 1.87-5.13-0.773 0.407-1.65 0.711-2.62 0.915-0.175 0.039-0.347 0.07-0.523 0.101-0.18 0.035-0.359 0.063-0.543 0.082 0 0 8e-3 0 8e-3 -4e-3 3.13-1.21 5.1-3.53 6.54-6.38-0.82 0.559-2.16 1.3-3.77 1.64-0.215 0.051-0.437 0.09-0.664 0.125-0.054 8e-3 -0.113 0.015-0.168 0.027h0.012c1.09-0.453 2-0.965 2.8-1.57 0.176-0.129 0.344-0.258 0.492-0.399 0.246-0.211 0.473-0.433 0.699-0.66 0.141-0.152 0.274-0.301 0.41-0.461 0.313-0.371 0.606-0.769 0.875-1.2 0.082-0.137 0.168-0.266 0.243-0.406 0.109-0.199 0.207-0.399 0.304-0.59 0.438-0.875 0.789-1.66 1.06-2.35 0.14-0.347 0.258-0.66 0.367-0.961 0.043-0.121 0.082-0.234 0.121-0.347 0.113-0.328 0.199-0.621 0.27-0.879 0.105-0.391 0.171-0.699 0.203-0.918-0.106 0.078-0.227 0.164-0.367 0.246-0.946 0.566-2.57 1.07-3.88 1.32l2.58-0.281-2.58 0.281c-0.016 4e-3 -0.036 4e-3 -0.059 8e-3 -0.133 0.024-0.258 0.043-0.395 0.063 0.024-0.012 0.043-0.024 0.067-0.036l-8.82 0.969c0 0.02-0.016 0.059-0.032 0.09z" style="fill:url(#cvfz)"/><path d="m63.7 13.7c-0.781 1.2-1.64 2.57-2.57 4.12-0.047 0.078-0.102 0.168-0.145 0.246-0.797 1.34-1.64 2.81-2.54 4.42-0.766 1.39-1.57 2.89-2.4 4.49-0.722 1.4-1.47 2.88-2.24 4.46l8.82-0.969c2.57-1.18 3.71-2.25 4.83-3.8 0.293-0.426 0.593-0.872 0.886-1.34 0.907-1.41 1.79-2.97 2.59-4.52 0.766-1.5 1.44-2.98 1.96-4.32 0.328-0.852 0.594-1.64 0.778-2.34 0.16-0.61 0.285-1.2 0.382-1.75-3.42 0.59-7.63 1.15-10.4 1.28z" style="fill:url(#cvfaa)"/><path d="m58 44.1c-0.18 0.032-0.359 0.059-0.543 0.078 0.184-0.015 0.367-0.046 0.543-0.078z" style="fill:#bd202e"/><g clip-path="url(#cvfr)" opacity=".35"><path d="m58 44.1c-0.18 0.032-0.359 0.059-0.543 0.078 0.184-0.015 0.367-0.046 0.543-0.078z" style="fill:#bd202e"/></g><path d="m58 44.1c-0.18 0.032-0.359 0.059-0.543 0.078 0.184-0.015 0.367-0.046 0.543-0.078z" style="fill:url(#cvfab)"/><path d="m59.4 39.6c0.051-8e-3 0.113-0.015 0.164-0.027-0.051 4e-3 -0.105 0.019-0.164 0.027z" style="fill:#bd202e"/><g clip-path="url(#cvfs)" opacity=".35"><path d="m59.4 39.6c0.051-8e-3 0.113-0.015 0.164-0.027-0.051 4e-3 -0.105 0.019-0.164 0.027z" style="fill:#bd202e"/></g><path d="m59.4 39.6c0.051-8e-3 0.113-0.015 0.164-0.027-0.051 4e-3 -0.105 0.019-0.164 0.027z" style="fill:url(#cvfac)"/><path d="m59.4 39.6c4e-3 0 4e-3 -8e-3 0 0 4e-3 -8e-3 4e-3 0 0 0z" style="fill:#bd202e"/><g clip-path="url(#cvft)" opacity=".35"><path d="m59.4 39.6c4e-3 0 4e-3 -8e-3 0 0 4e-3 -8e-3 4e-3 0 0 0z" style="fill:#bd202e"/></g><path d="m59.4 39.6c4e-3 0 4e-3 -8e-3 0 0 4e-3 -8e-3 4e-3 0 0 0z" style="fill:url(#cvfad)"/><path d="m260 1.08v5.91h-1.18v-5.91h-2.12v-1.08h5.42v1.08z"/><path d="m264 6.99h-1.18v-6.99h1.84l2.11 4.39 2.11-4.39h1.83v6.99h-1.18v-5.46l-2.44 4.85h-0.66l-2.43-4.85z"/></g></g></svg>
