<svg xmlns="http://www.w3.org/2000/svg" xmlns:xlink="http://www.w3.org/1999/xlink" style="display:inline;enable-background:new" version="1.0" height="128" width="128"><defs><linearGradient id="a"><stop style="stop-color:#9a9996;stop-opacity:1" offset="0"/><stop style="stop-color:#77767b;stop-opacity:1" offset="1"/></linearGradient><linearGradient y2="812.882" x2="1662.99" y1="806.297" x1="1660.857" gradientTransform="rotate(-24.039 -1588.079 8612.105) scale(2.00313)" gradientUnits="userSpaceOnUse" id="b" xlink:href="#a"/></defs><g style="display:inline" transform="translate(0 -172)"><path d="M124 237a60 60 0 0 1-60 60 60 60 0 0 1-60-60 60 60 0 0 1 60-60 60 60 0 0 1 60 60Z" style="display:inline;opacity:1;fill:#deddda;fill-opacity:1;stroke:none;stroke-width:.01129822px;stroke-linecap:butt;stroke-linejoin:miter;stroke-miterlimit:4;stroke-dasharray:none;stroke-dashoffset:0;stroke-opacity:1;marker:none;marker-start:none;marker-mid:none;marker-end:none;paint-order:normal;enable-background:new"/><rect style="display:inline;opacity:1;fill:#d5d3cf;fill-opacity:1;stroke:none;stroke-width:.01129822px;stroke-linecap:butt;stroke-linejoin:miter;stroke-miterlimit:4;stroke-dasharray:none;stroke-dashoffset:0;stroke-opacity:1;marker:none;marker-start:none;marker-mid:none;marker-end:none;paint-order:normal;enable-background:new" width="112" height="114" x="8" y="179" rx="56" ry="56"/><path style="display:inline;opacity:1;fill:#f6f5f4;fill-opacity:1;stroke:none;stroke-width:.01129822px;stroke-linecap:butt;stroke-linejoin:miter;stroke-miterlimit:4;stroke-dasharray:none;stroke-dashoffset:0;stroke-opacity:1;marker:none;marker-start:none;marker-mid:none;marker-end:none;paint-order:normal;enable-background:new" d="M124 235a60 60 0 0 1-60 60 60 60 0 0 1-60-60 60 60 0 0 1 60-60 60 60 0 0 1 60 60Z"/><circle r="54" style="display:inline;opacity:1;fill:#3d3846;fill-opacity:1;stroke:none;stroke-width:.01129822px;stroke-linecap:butt;stroke-linejoin:miter;stroke-miterlimit:4;stroke-dasharray:none;stroke-dashoffset:0;stroke-opacity:1;marker:none;marker-start:none;marker-mid:none;marker-end:none;paint-order:normal;enable-background:new" cx="64" cy="235"/><path d="M90.035 207.992a1.002 1.002 0 0 0-.777.33l-21.975 23.665a6 6 0 0 0-5.582-.522l-14.22-15.801a2.003 2.003 0 0 0-1.604-.682 2.003 2.003 0 0 0-1.374 3.362l14.22 15.799a6 6 0 0 0-.21 5.305 6 6 0 0 0 2.404 2.7L49.058 272.64a1.002 1.002 0 1 0 1.867.725l11.858-30.49a6 6 0 0 0 3.653-.393 6 6 0 0 0 3.035-7.924 6 6 0 0 0-.725-1.204l21.98-23.67a1.002 1.002 0 0 0-.691-1.693z" style="color:#000;font-style:normal;font-variant:normal;font-weight:400;font-stretch:normal;font-size:medium;line-height:normal;font-family:sans-serif;font-variant-ligatures:normal;font-variant-position:normal;font-variant-caps:normal;font-variant-numeric:normal;font-variant-alternates:normal;font-feature-settings:normal;text-indent:0;text-align:start;text-decoration:none;text-decoration-line:none;text-decoration-style:solid;text-decoration-color:#000;letter-spacing:normal;word-spacing:normal;text-transform:none;writing-mode:lr-tb;direction:ltr;text-orientation:mixed;dominant-baseline:auto;baseline-shift:baseline;text-anchor:start;white-space:normal;shape-padding:0;clip-rule:nonzero;display:inline;overflow:visible;visibility:visible;opacity:.2;isolation:auto;mix-blend-mode:normal;color-interpolation:sRGB;color-interpolation-filters:linearRGB;solid-color:#000;solid-opacity:1;fill:#000;fill-opacity:1;fill-rule:evenodd;stroke:none;stroke-width:4.00625896;stroke-linecap:round;stroke-linejoin:miter;stroke-miterlimit:4;stroke-dasharray:none;stroke-dashoffset:0;stroke-opacity:1;color-rendering:auto;image-rendering:auto;shape-rendering:auto;text-rendering:auto;enable-background:new"/><path style="display:inline;fill:#c0bfbc;fill-rule:evenodd;stroke:url(#b);stroke-width:4.00625896;stroke-linecap:round;stroke-linejoin:miter;stroke-opacity:1;enable-background:new" d="m64 235-18-20"/><path d="m64 235 26-28" style="display:inline;fill:none;fill-rule:evenodd;stroke:#fff;stroke-width:2.00312948;stroke-linecap:round;stroke-linejoin:miter;stroke-opacity:1;enable-background:new"/><path style="display:inline;fill:none;fill-rule:evenodd;stroke:#ed333b;stroke-width:2.00312948;stroke-linecap:round;stroke-linejoin:miter;stroke-opacity:1;enable-background:new" d="m64 235-14 36"/><circle r="6" cy="240.689" cx="-37.28" style="color:#000;clip-rule:nonzero;display:inline;overflow:visible;visibility:visible;opacity:1;color-interpolation:sRGB;color-interpolation-filters:linearRGB;fill:#d5d3cf;fill-opacity:1;fill-rule:nonzero;stroke:none;stroke-width:7.77220678;stroke-linecap:round;stroke-linejoin:round;stroke-miterlimit:4;stroke-dasharray:none;stroke-dashoffset:0;stroke-opacity:1;marker:none;color-rendering:auto;image-rendering:auto;shape-rendering:auto;text-rendering:auto;enable-background:accumulate" transform="rotate(-24.04)"/><circle r="2.003" style="color:#000;clip-rule:nonzero;display:inline;overflow:visible;visibility:visible;opacity:1;color-interpolation:sRGB;color-interpolation-filters:linearRGB;fill:#131c1a;fill-opacity:1;fill-rule:nonzero;stroke:none;stroke-width:8.01251698;stroke-linecap:round;stroke-linejoin:round;stroke-miterlimit:4;stroke-dasharray:none;stroke-dashoffset:0;stroke-opacity:1;marker:none;color-rendering:auto;image-rendering:auto;shape-rendering:auto;text-rendering:auto;enable-background:accumulate" cx="64.029" cy="235"/><circle r="2" cy="235" cx="64.029" style="color:#000;clip-rule:nonzero;display:inline;overflow:visible;visibility:visible;opacity:1;color-interpolation:sRGB;color-interpolation-filters:linearRGB;fill:#131c1a;fill-opacity:1;fill-rule:nonzero;stroke:none;stroke-width:8.01251698;stroke-linecap:round;stroke-linejoin:round;stroke-miterlimit:4;stroke-dasharray:none;stroke-dashoffset:0;stroke-opacity:1;marker:none;color-rendering:auto;image-rendering:auto;shape-rendering:auto;text-rendering:auto;enable-background:accumulate"/><path d="M64 181a54 54 0 0 0-54 54 54 54 0 0 0 .042 1.17A54 54 0 0 1 64 183a54 54 0 0 1 53.959 52.828A54 54 0 0 0 118 235a54 54 0 0 0-54-54Z" style="display:inline;opacity:.1;fill:#000;fill-opacity:1;stroke:none;stroke-width:.01129822px;stroke-linecap:butt;stroke-linejoin:miter;stroke-miterlimit:4;stroke-dasharray:none;stroke-dashoffset:0;stroke-opacity:1;marker:none;marker-start:none;marker-mid:none;marker-end:none;paint-order:normal;enable-background:new"/></g></svg>