/* XPM */
static char * toppler_xpm[] = {
"32 32 179 2",
"  	c None",
". 	c #006000",
"+ 	c #005F00",
"@ 	c #005A00",
"# 	c #003A00",
"$ 	c #006500",
"% 	c #006400",
"& 	c #005200",
"* 	c #045C04",
"= 	c #177717",
"- 	c #1F7F1F",
"; 	c #086508",
"> 	c #007C00",
", 	c #006900",
"' 	c #096909",
") 	c #309030",
"! 	c #55B555",
"~ 	c #5EBE5E",
"{ 	c #40A040",
"] 	c #167616",
"^ 	c #008800",
"/ 	c #008700",
"( 	c #008200",
"_ 	c #349434",
": 	c #6DC66D",
"< 	c #A7DFA7",
"[ 	c #BEE7BE",
"} 	c #7DCE7D",
"| 	c #49A949",
"1 	c #137313",
"2 	c #008100",
"3 	c #005100",
"4 	c #005800",
"5 	c #0A660A",
"6 	c #90D790",
"7 	c #D5F0D5",
"8 	c #F8FCF8",
"9 	c #ECF8EC",
"0 	c #3D923D",
"a 	c #025202",
"b 	c #006200",
"c 	c #005500",
"d 	c #005D00",
"e 	c #599859",
"f 	c #A6C9A6",
"g 	c #166E16",
"h 	c #007800",
"i 	c #008400",
"j 	c #006D00",
"k 	c #007700",
"l 	c #007100",
"m 	c #2D7C2D",
"n 	c #C1DAC1",
"o 	c #DECAA6",
"p 	c #D4BC86",
"q 	c #C8AF63",
"r 	c #CCB46F",
"s 	c #DDC7A1",
"t 	c #DFDFC9",
"u 	c #68A268",
"v 	c #005600",
"w 	c #008000",
"x 	c #006B00",
"y 	c #007F00",
"z 	c #86B486",
"A 	c #F3F9F3",
"B 	c #C8A161",
"C 	c #B98F34",
"D 	c #A87C00",
"E 	c #AE8211",
"F 	c #C79E5C",
"G 	c #E5D8BD",
"H 	c #E4F0E4",
"I 	c #005C00",
"J 	c #007D00",
"K 	c #008900",
"L 	c #008D00",
"M 	c #00A000",
"N 	c #00A600",
"O 	c #657100",
"P 	c #C5AA59",
"Q 	c #F1F3EA",
"R 	c #303130",
"S 	c #2F2200",
"T 	c #008300",
"U 	c #008F00",
"V 	c #009B00",
"W 	c #00AB00",
"X 	c #00B700",
"Y 	c #00A800",
"Z 	c #5B6F00",
"` 	c #A57B00",
" .	c #A0873C",
"..	c #8A8C8A",
"+.	c #1A1A1A",
"@.	c #221900",
"#.	c #9B7A00",
"$.	c #009400",
"%.	c #00AC00",
"&.	c #00B500",
"*.	c #00B800",
"=.	c #00B000",
"-.	c #2D6800",
";.	c #967900",
">.	c #654A00",
",.	c #000000",
"'.	c #5E7000",
").	c #005900",
"!.	c #00AE00",
"~.	c #009900",
"{.	c #056800",
"].	c #6D7200",
"^.	c #947900",
"/.	c #226600",
"(.	c #005E00",
"_.	c #009500",
":.	c #00B100",
"<.	c #1B6500",
"[.	c #AE8313",
"}.	c #7C5D0A",
"|.	c #281E00",
"1.	c #4B3703",
"2.	c #AE8312",
"3.	c #5A7108",
"4.	c #076100",
"5.	c #006300",
"6.	c #006600",
"7.	c #008C00",
"8.	c #006800",
"9.	c #C09D5B",
"0.	c #BA9035",
"a.	c #C39D5A",
"b.	c #4C7824",
"c.	c #007B00",
"d.	c #009100",
"e.	c #00B300",
"f.	c #008500",
"g.	c #487723",
"h.	c #869953",
"i.	c #D8C995",
"j.	c #BDB97F",
"k.	c #1C700D",
"l.	c #009200",
"m.	c #009C00",
"n.	c #006A00",
"o.	c #EEF6EE",
"p.	c #B3D0B3",
"q.	c #009700",
"r.	c #00B200",
"s.	c #009F00",
"t.	c #006100",
"u.	c #00B400",
"v.	c #009800",
"w.	c #007900",
"x.	c #00A500",
"y.	c #007300",
"z.	c #008600",
"A.	c #00A100",
"B.	c #006F00",
"C.	c #006700",
"D.	c #004D00",
"E.	c #007500",
"F.	c #009D00",
"G.	c #008B00",
"H.	c #00AA00",
"I.	c #00AF00",
"J.	c #00A900",
"K.	c #007600",
"L.	c #009000",
"M.	c #006E00",
"N.	c #008E00",
"O.	c #007000",
"P.	c #004800",
"Q.	c #005B00",
"R.	c #009600",
"S.	c #009300",
"T.	c #00A400",
"U.	c #00A300",
"V.	c #005400",
"    . . +                         @ . . +                       ",
"    # $ % &                       * = - ; &                     ",
"      > > ,                     ' ) ! ~ { ]                     ",
"      ^ / (                   . _ : < [ } | 1                   ",
"      ^ / 2               3 4 5 6 7 8 8 9 < 0 a                 ",
"      > 2 b         c d . . . e 8 8 8 8 8 8 f g                 ",
"    # h i       d d j k l . m n o p q q r s t u v               ",
"    . w ^     . x > i ^ y . z A B C D D E F G H I               ",
"    . w w b x J ^ K L M N . O D D P Q R S D D D . .             ",
"    . w i k T ^ U V W X Y $ Z ` D  ...+.@.D D #.. .             ",
"    . w ^ ^ ^ $.%.&.*.*.=.J -.;.D >.,.,.@.D D '.. ).            ",
"    . w ^ ^ $.!.*.*.*.*.X ~.{.].D >.,.,.@.D ^./.. (.            ",
"    . w ^ _.=.*.*.*.*.*.*.:.y <.[.}.|.@.1.2.3.4.5.6.%           ",
"    . w 7.Y *.*.*.*.*.*.*.*.V 8.9.0.D D 2.a.b.6.h ( c.x         ",
"    . w d.&.*.*.*.*.*.*.*.*.e.f.g.h.i.i.j.b.k.> l.M m.i n.      ",
"    . w _.*.*.*.*.*.*.*.*.*.*.:.> e o.8 p.6.> q.r.X &.M J 4     ",
"    4 s.*.*.*.*.*.*.*.*.*.*.*.*.:.f.8.t.$ w V u.*.v.w.N x.4     ",
"    v y.:.*.*.*.*.*.*.*.*.*.*.*.*.e.V z.^ A.r.*.*.V B.h ^       ",
"      (.d.*.*.*.*.*.*.*.*.*.*.*.*.*.*.*.*.*.*.*.*.x.f.C.        ",
"      D.E.*.*.*.*.*.*.F.G.w H.*.*.*.*./ m.*.*.*.*.v.C.          ",
"        B.A.N N I.&.*.J./ B.K.H.*.*.*.m.B.( s.N x.^             ",
"          . . . i M u.*.~.y C./ *.*.*.*.L.8.. . 4               ",
"            . . j ^ M &.W z.M.C.*.e.V z.x c                     ",
"              . 5.h N.=.!.^ O.. H.f.8.&                         ",
"              P.. T *.*.!.^ O.. . v                             ",
"                . T *.*.W k x .                                 ",
"                . T *.*.N .                                     ",
"              Q.J R.*.F.^ . .                                   ",
"            P.Q.S.T.*.J.z.n.M.O.                                ",
"              d u.*.*.*.U.^ x.I..                               ",
"                w T T T y O.> w                                 ",
"                  V.. . . . V.                                  "};
