/* XPM */
static char * triptych_xpm[] = {
"32 32 9 1",
" 	c None",
".	c #800000",
"+	c #008000",
"@	c #FF0000",
"#	c #00FF00",
"$	c #000080",
"%	c #800080",
"&	c #0000FF",
"*	c #FF00FF",
"  ............    ++++++++++++  ",
" ..............  ++++++++++++++ ",
"..@@@@@@@@@@@@..++############++",
"..@@@@@@@@@@@@..++############++",
"..@@@@@@@@@@@@..++############++",
"..@@@@@@@@@@@@..++############++",
"..@@@@@@@@@@@@..++############++",
"..@@@@@@@@@@@@..++############++",
"..@@@@@@@@@@@@..++############++",
"..@@@@@@@@@@@@..++############++",
"..@@@@@@@@@@@@..++############++",
"..@@@@@@@@@@@@..++############++",
"..@@@@@@@@@@@@..++############++",
"..@@@@@@@@@@@@..++############++",
" ..............  ++++++++++++++ ",
"  ............    ++++++++++++  ",
"  $$$$$$$$$$$$    %%%%%%%%%%%%  ",
" $$$$$$$$$$$$$$  %%%%%%%%%%%%%% ",
"$$&&&&&&&&&&&&$$%%************%%",
"$$&&&&&&&&&&&&$$%%************%%",
"$$&&&&&&&&&&&&$$%%************%%",
"$$&&&&&&&&&&&&$$%%************%%",
"$$&&&&&&&&&&&&$$%%************%%",
"$$&&&&&&&&&&&&$$%%************%%",
"$$&&&&&&&&&&&&$$%%************%%",
"$$&&&&&&&&&&&&$$%%************%%",
"$$&&&&&&&&&&&&$$%%************%%",
"$$&&&&&&&&&&&&$$%%************%%",
"$$&&&&&&&&&&&&$$%%************%%",
"$$&&&&&&&&&&&&$$%%************%%",
" $$$$$$$$$$$$$$  %%%%%%%%%%%%%% ",
"  $$$$$$$$$$$$    %%%%%%%%%%%%  "};
