<?xml version="1.0" encoding="UTF-8" standalone="no"?>
<svg
   xmlns:dc="http://purl.org/dc/elements/1.1/"
   xmlns:cc="http://creativecommons.org/ns#"
   xmlns:rdf="http://www.w3.org/1999/02/22-rdf-syntax-ns#"
   xmlns:svg="http://www.w3.org/2000/svg"
   xmlns="http://www.w3.org/2000/svg"
   xmlns:sodipodi="http://sodipodi.sourceforge.net/DTD/sodipodi-0.dtd"
   xmlns:inkscape="http://www.inkscape.org/namespaces/inkscape"
   viewBox="0 0 48 48"
   version="1.1"
   id="svg33894"
   sodipodi:docname="usbmaker.svg"
   inkscape:version="0.92.1 r">
  <metadata
     id="metadata33898">
    <rdf:RDF>
      <cc:Work
         rdf:about="">
        <dc:format>image/svg+xml</dc:format>
        <dc:type
           rdf:resource="http://purl.org/dc/dcmitype/StillImage" />
        <dc:title></dc:title>
      </cc:Work>
    </rdf:RDF>
  </metadata>
  <sodipodi:namedview
     pagecolor="#ffffff"
     bordercolor="#666666"
     borderopacity="1"
     objecttolerance="10"
     gridtolerance="10"
     guidetolerance="10"
     inkscape:pageopacity="0"
     inkscape:pageshadow="2"
     inkscape:window-width="1920"
     inkscape:window-height="1011"
     id="namedview33896"
     showgrid="false"
     inkscape:zoom="7.465116"
     inkscape:cx="-2.5823494"
     inkscape:cy="17.923556"
     inkscape:window-x="0"
     inkscape:window-y="0"
     inkscape:window-maximized="1"
     inkscape:current-layer="svg33894">
    <inkscape:grid
       type="xygrid"
       id="grid33953" />
  </sodipodi:namedview>
  <defs
     id="defs33848">
    <linearGradient
       id="linearGradient3764"
       x1="1"
       x2="47"
       gradientUnits="userSpaceOnUse"
       gradientTransform="matrix(0,-1,1,0,-1.5e-6,47.999998)">
      <stop
         style="stop-color:#d3d3d3;stop-opacity:1"
         id="stop33843" />
      <stop
         offset="1"
         style="stop-color:#ddd;stop-opacity:1"
         id="stop33845" />
    </linearGradient>
  </defs>
  <g
     id="g33856">
    <path
       d="m 36.31 5 c 5.859 4.062 9.688 10.831 9.688 18.5 c 0 12.426 -10.07 22.5 -22.5 22.5 c -7.669 0 -14.438 -3.828 -18.5 -9.688 c 1.037 1.822 2.306 3.499 3.781 4.969 c 4.085 3.712 9.514 5.969 15.469 5.969 c 12.703 0 23 -10.298 23 -23 c 0 -5.954 -2.256 -11.384 -5.969 -15.469 c -1.469 -1.475 -3.147 -2.744 -4.969 -3.781 z m 4.969 3.781 c 3.854 4.113 6.219 9.637 6.219 15.719 c 0 12.703 -10.297 23 -23 23 c -6.081 0 -11.606 -2.364 -15.719 -6.219 c 4.16 4.144 9.883 6.719 16.219 6.719 c 12.703 0 23 -10.298 23 -23 c 0 -6.335 -2.575 -12.06 -6.719 -16.219 z"
       style="opacity:0.05"
       id="path33850" />
    <path
       d="m 41.28 8.781 c 3.712 4.085 5.969 9.514 5.969 15.469 c 0 12.703 -10.297 23 -23 23 c -5.954 0 -11.384 -2.256 -15.469 -5.969 c 4.113 3.854 9.637 6.219 15.719 6.219 c 12.703 0 23 -10.298 23 -23 c 0 -6.081 -2.364 -11.606 -6.219 -15.719 z"
       style="opacity:0.1"
       id="path33852" />
    <path
       d="m 31.25 2.375 c 8.615 3.154 14.75 11.417 14.75 21.13 c 0 12.426 -10.07 22.5 -22.5 22.5 c -9.708 0 -17.971 -6.135 -21.12 -14.75 a 23 23 0 0 0 44.875 -7 a 23 23 0 0 0 -16 -21.875 z"
       style="opacity:0.2"
       id="path33854" />
  </g>
  <g
     id="g33860">
    <path
       d="m 24 1 c 12.703 0 23 10.297 23 23 c 0 12.703 -10.297 23 -23 23 -12.703 0 -23 -10.297 -23 -23 0 -12.703 10.297 -23 23 -23 z"
       style="fill:url(#linearGradient3764);fill-opacity:1"
       id="path33858" />
  </g>
  <g
     id="g33892">
    <path
       d="m 40.03 7.531 c 3.712 4.084 5.969 9.514 5.969 15.469 0 12.703 -10.297 23 -23 23 c -5.954 0 -11.384 -2.256 -15.469 -5.969 4.178 4.291 10.01 6.969 16.469 6.969 c 12.703 0 23 -10.298 23 -23 0 -6.462 -2.677 -12.291 -6.969 -16.469 z"
       style="opacity:0.1"
       id="path33890" />
  </g>
  <path
     id="path1334"
     d="m 37.873843,9.076969 -5.023265,1.345405 1.311803,1.311803 -16.27602,16.276022 -0.179082,-6.517333 c 0.05352,-0.485888 0.254749,-0.990423 0.609349,-1.361824 1.468483,-1.468484 2.340156,-2.340919 2.660545,-2.662526 0.837498,0.40233 1.869415,0.265314 2.564231,-0.429503 0.87899,-0.878991 0.879055,-2.3056 -2.54e-4,-3.184908 -0.879691,-0.879691 -2.305982,-0.879436 -3.185036,-3.82e-4 -0.694817,0.694817 -0.832088,1.726479 -0.430267,2.563467 l -2.630797,2.629907 c -0.712891,0.712891 -1.068764,1.851022 -1.085692,2.784997 -6.36e-4,-0.0266 -0.0017,-0.0546 -5.23e-4,10e-4 0.0013,0.02138 0.189646,6.914316 0.189646,6.914316 -0.05327,0.484998 -0.255259,0.988387 -0.609349,1.359788 l -1.841222,1.841221 c -1.460401,-0.972286 -3.450921,-0.814587 -4.7393691,0.473861 -1.468993,1.468993 -1.468993,3.850514 -4.455e-4,5.319062 1.4689936,1.468993 3.8505786,1.469057 5.3195716,6.3e-5 C 15.816369,36.452703 15.973305,34.46142 15,33 l 1.808956,-1.808956 c 0.0047,-0.0047 0.0095,-0.009 0.014,-0.014 l 4.001085,-4.001086 c 0.371274,-0.352818 0.874409,-0.554173 1.359406,-0.606931 0,0 6.891915,0.188883 6.913743,0.189965 0.0553,0.0016 0.02711,1.27e-4 5.09e-4,0 0.933911,-0.01699 2.072106,-0.373438 2.785124,-1.086456 l 2.534321,-2.535466 1.067681,1.067682 3.185163,-3.185163 -3.184844,-3.184844 -3.185162,3.185163 1.066282,1.066282 c 0,0 -0.668846,0.666441 -2.567152,2.564747 -0.3714,0.354727 -0.876126,0.556528 -1.361887,0.609922 l -6.518668,-0.178988 12.295745,-12.295745 1.313904,1.313903 z"
     inkscape:connector-curvature="0"
     style="stroke-width:0.09;fill:#201f1f"
     inkscape:transform-center-x="-15.279541"
     inkscape:transform-center-y="-14.878946" />
</svg>
