<svg width="244" height="249" viewBox="0 0 244 249" fill="none" xmlns="http://www.w3.org/2000/svg">
<rect width="244" height="249" rx="48" fill="url(#paint0_linear)"/>
<path fill-rule="evenodd" clip-rule="evenodd" d="M76.478 72H151.623C157.526 72 162.565 74.087 166.739 78.2611C170.913 82.4352 173 87.4737 173 93.3767V170.142C173 171.93 172.368 173.457 171.103 174.722C169.838 175.987 168.311 176.62 166.522 176.62C164.733 176.62 163.206 175.987 161.941 174.722C160.677 173.457 160.044 171.93 160.044 170.142V93.3767C160.044 91.0514 159.222 89.0666 157.578 87.4223C155.933 85.7781 153.949 84.956 151.623 84.956H76.478C74.6891 84.9559 73.1623 84.3235 71.8974 83.0586C70.6325 81.7937 70 80.2668 70 78.478C70 76.6891 70.6325 75.1622 71.8974 73.8973C73.1623 72.6325 74.6891 72 76.478 72ZM114.699 98.8838H114.698C112.909 98.8838 111.382 99.5162 110.117 100.781C108.853 102.046 108.22 103.572 108.22 105.361V122.205C108.22 123.994 108.853 125.521 110.117 126.785C111.382 128.05 112.909 128.683 114.698 128.683H114.699C116.488 128.683 118.014 128.05 119.279 126.785C120.544 125.521 121.176 123.994 121.176 122.205V105.361C121.176 103.572 120.544 102.046 119.279 100.781C118.014 99.5162 116.488 98.8838 114.699 98.8838ZM139.315 98.8838H139.314C137.525 98.8838 135.998 99.5162 134.734 100.781C133.469 102.046 132.837 103.572 132.837 105.361V122.205C132.837 123.994 133.469 125.521 134.734 126.785C135.998 128.05 137.525 128.683 139.314 128.683H139.315C141.104 128.683 142.631 128.05 143.895 126.785C145.16 125.521 145.793 123.994 145.792 122.205V105.361C145.793 103.572 145.16 102.046 143.895 100.781C142.631 99.5162 141.104 98.8838 139.315 98.8838ZM91.3767 176.619H115.346C117.135 176.619 118.662 175.987 119.927 174.722C121.191 173.457 121.824 171.93 121.824 170.141C121.824 168.352 121.191 166.826 119.927 165.561C118.662 164.296 117.135 163.663 115.346 163.663H91.3767C89.0514 163.663 87.0666 162.841 85.4224 161.197C83.7781 159.553 82.956 157.568 82.956 155.243V129.006C82.956 127.217 82.3236 125.69 81.0586 124.425C79.7938 123.161 78.2669 122.528 76.478 122.528C74.6891 122.528 73.1623 123.161 71.8974 124.425C70.6325 125.69 70 127.217 70 129.006V155.243C70 161.146 72.087 166.184 76.2612 170.358C80.4352 174.532 85.4738 176.619 91.3767 176.619ZM132.837 170.141C132.837 166.564 135.737 163.663 139.314 163.663C142.892 163.663 145.792 166.564 145.792 170.141C145.792 173.719 142.892 176.619 139.314 176.619C135.737 176.619 132.837 173.719 132.837 170.141Z" fill="white"/>
<defs>
<linearGradient id="paint0_linear" x1="122" y1="0" x2="122" y2="249" gradientUnits="userSpaceOnUse">
<stop stop-color="#BE58CB"/>
<stop offset="1" stop-color="#F10E5A"/>
</linearGradient>
</defs>
</svg>
