<svg xmlns="http://www.w3.org/2000/svg" viewBox="0 0 110 110" height="110" width="110"><path d="m86.5 24.8c1.8 4.8 2.6 9.7 2.6 14.7 0 4.4-0.7 8.4-2 12-2.3 6.1-5.9 11.3-10.8 15.4-5.1 4.2-10.9 6.7-17.2 7.3v8.8c0 0.3-0.3 1.7-0.8 4.1-1 4.7-2 10.1-2.8 16.1-2.8-12.6-4.4-19.3-4.7-20.1v-9c-6.2-0.6-11.8-3-16.8-7.2-8.7-7.2-13-16.3-13-27.5 0-4.7 0.8-9.2 2.3-13.7 1.4-4.2 3.6-8 6.5-11.4 3.1-3.7 6.7-6.3 10.6-7.7-4.2 2.4-7.6 5.5-10.3 9.3-3.7 5.1-5.5 11-5.5 17.5 0 2.4 0.2 4.8 0.7 7.1 1 4.9 3.3 9.4 7.1 13.7 3.9 4.4 8.2 7.1 12.9 8.3 2.4 0.9 4.3 1.3 5.6 1.4v-8.9c0-0.9 0-1.9-0.1-3.1-0.4-1.9-1.5-3-3.2-3.2-0.1-0.1-0.3-0.2-0.4-0.2h15.5c0.4 0 0.6 0.1 0.5 0.2-2.1 0.3-3.3 1.4-3.7 3.2-0.2 0.9-0.3 2-0.3 3.2v8.8c2.9-0.6 4.9-1.1 6-1.4 4.6-1.2 8.8-3.8 12.6-7.9 5.4-5.8 8-12.8 8-21.1 0-5.6-1.4-10.8-4.3-15.5-2.8-4.7-6.7-8.5-11.7-11.3 7.8 3 13.4 9 16.8 18z"/></svg>