/* XPM */
static char *dummy[]={
"32 32 83 2",
"Qt c #000000",
".j c #b80000",
".i c #b80101",
".1 c #b80303",
".2 c #b90404",
".c c #b90707",
"#p c #bb0d0d",
".y c #bb0e0e",
".w c #bc0f0f",
".A c #bd1313",
".R c #be1717",
".P c #be1818",
".T c #bf1a1a",
".V c #bf1b1b",
".n c #c12222",
".8 c #c12323",
".p c #c22424",
".d c #c22525",
"#l c #c32b2b",
"#f c #c42d2d",
"#g c #c42e2e",
".o c #c53030",
".b c #c73636",
".f c #c73939",
".F c #c83c3c",
".s c #c83d3d",
"#k c #ca4141",
".K c #ca4444",
".N c #cb4545",
".Y c #cc4b4b",
".X c #cd4c4c",
".3 c #ce5050",
".4 c #ce5151",
"#b c #d15b5b",
"#c c #d15c5c",
".u c #d46767",
".t c #d46868",
"#o c #d66f6f",
".E c #d87373",
".G c #d87474",
".M c #d87575",
".L c #d87676",
".W c #db7f7f",
".Z c #db8080",
".9 c #de8a8a",
"#. c #de8b8b",
"#i c #e29898",
"#h c #e29999",
".C c #e4a0a0",
".B c #e4a1a1",
".v c #e5a2a2",
".e c #e5a3a3",
".h c #e5a4a4",
".m c #e6a7a7",
".O c #e8adad",
".S c #e8aeae",
".U c #e8afaf",
".l c #e9b1b1",
".k c #e9b2b2",
".a c #eab5b5",
".g c #eab7b7",
".5 c #ebb9b9",
".6 c #ebbaba",
"#d c #eec4c4",
"#e c #eec5c5",
".r c #f0caca",
".q c #f0cbcb",
".J c #f4d8d8",
".I c #f4d9d9",
".H c #f4dbdb",
".0 c #f7e4e4",
"#q c #f7e5e5",
"## c #f9ebeb",
"#a c #f9ecec",
".x c #fcf5f5",
"#n c #fcf6f6",
".z c #fcf7f7",
".D c #fdf8f8",
"#m c #fdfafa",
".Q c #fdfbfb",
"#j c #fefdfd",
".7 c #fefefe",
".# c #ffffff",
"QtQtQtQtQtQtQtQtQtQtQtQtQtQtQtQtQtQtQtQtQtQtQtQtQtQtQtQtQtQtQtQt",
"Qt.#.#.#.#.#.#.#.#.#.#.#.#.#.#.#.#.#.#.#.#.#.#.#.#.#.#.#.#.#.#Qt",
"Qt.#.#.#.#.#.#.#.#.#.#.#.#.#.#.#.#.#.#.#.#.#.#.#.#.#.#.#.#.#.#Qt",
"Qt.#.#.#.#.#.#.#.#.#.#.#.#.#.#.#.#.#.#.#.#.#.#.#.#.#.#.#.#.#.#Qt",
"Qt.#.#.#.#.#.a.b.c.d.e.#.#.#.#.#.#.#.#.#.#.e.d.c.f.g.#.#.#.#.#Qt",
"Qt.#.#.#.#.h.i.j.j.j.j.k.#.#.#.#.#.#.#.#.l.j.j.j.j.i.m.#.#.#.#Qt",
"Qt.#.#.#.#.n.j.j.j.j.j.o.#.#.#.#.#.#.#.#.o.j.j.j.j.j.p.#.#.#.#Qt",
"Qt.#.#.#.#.c.j.j.j.j.j.j.q.#.#.#.#.#.#.r.j.j.j.j.j.j.c.#.#.#.#Qt",
"Qt.#.#.#.#.s.j.j.j.j.j.j.t.#.#.#.#.#.#.u.j.j.j.j.j.j.s.#.#.#.#Qt",
"Qt.#.#.#.#.v.j.j.j.j.j.j.w.x.#.#.#.#.x.y.j.j.j.j.j.j.e.#.#.#.#Qt",
"Qt.#.#.#.#.z.A.j.j.j.j.j.j.B.#.#.#.#.C.j.j.j.j.j.j.A.D.#.#.#.#Qt",
"Qt.#.#.#.#.#.E.j.j.j.j.j.j.s.#.#.#.#.F.j.j.j.j.j.j.G.#.#.#.#.#Qt",
"Qt.#.#.#.#.#.H.i.j.j.j.j.j.j.I.#.#.J.j.j.j.j.j.j.i.H.#.#.#.#.#Qt",
"Qt.#.#.#.#.#.#.K.j.j.j.j.j.j.L.#.#.M.j.j.j.j.j.j.N.#.#.#.#.#.#Qt",
"Qt.#.#.#.#.#.#.O.j.j.j.j.j.j.P.Q.Q.R.j.j.j.j.j.j.S.#.#.#.#.#.#Qt",
"Qt.#.#.#.#.#.#.Q.T.j.j.j.j.j.j.U.S.j.j.j.j.j.j.V.Q.#.#.#.#.#.#Qt",
"Qt.#.#.#.#.#.#.#.W.j.j.j.j.j.j.X.Y.j.j.j.j.j.j.Z.#.#.#.#.#.#.#Qt",
"Qt.#.#.#.#.#.#.#.0.1.j.j.j.j.j.1.1.j.j.j.j.j.2.0.#.#.#.#.#.#.#Qt",
"Qt.#.#.#.#.#.#.#.#.3.j.j.j.j.j.j.j.j.j.j.j.j.4.#.#.#.#.#.#.#.#Qt",
"Qt.#.#.#.#.#.#.#.#.5.j.j.j.j.j.j.j.j.j.j.j.j.6.#.#.#.#.#.#.#.#Qt",
"Qt.#.#.#.#.#.#.#.#.7.8.j.j.j.j.j.j.j.j.j.j.p.7.#.#.#.#.#.#.#.#Qt",
"Qt.#.#.#.#.#.#.#.#.#.9.j.j.j.j.j.j.j.j.j.j#..#.#.#.#.#.#.#.#.#Qt",
"Qt.#.#.#.#.#.#.#.#.###.c.j.j.j.j.j.j.j.j.c#a.#.#.#.#.#.#.#.#.#Qt",
"Qt.#.#.#.#.#.#.#.#.#.##b.j.j.j.j.j.j.j.j#c.#.#.#.#.#.#.#.#.#.#Qt",
"Qt.#.#.#.#.#.#.#.#.#.##d.j.j.j.j.j.j.j.j#e.#.#.#.#.#.#.#.#.#.#Qt",
"Qt.#.#.#.#.#.#.#.#.#.#.##f.j.j.j.j.j.j#g.#.#.#.#.#.#.#.#.#.#.#Qt",
"Qt.#.#.#.#.#.#.#.#.#.#.##h.j.j.j.j.j.j#i.#.#.#.#.#.#.#.#.#.#.#Qt",
"Qt.#.#.#.#.#.#.#.#.#.#.##j#k.j.j.j.j#l#m.#.#.#.#.#.#.#.#.#.#.#Qt",
"Qt.#.#.#.#.#.#.#.#.#.#.#.##n#o.R#p.3#q.#.#.#.#.#.#.#.#.#.#.#.#Qt",
"Qt.#.#.#.#.#.#.#.#.#.#.#.#.#.#.#.#.#.#.#.#.#.#.#.#.#.#.#.#.#.#Qt",
"Qt.#.#.#.#.#.#.#.#.#.#.#.#.#.#.#.#.#.#.#.#.#.#.#.#.#.#.#.#.#.#Qt",
"QtQtQtQtQtQtQtQtQtQtQtQtQtQtQtQtQtQtQtQtQtQtQtQtQtQtQtQtQtQtQtQt"};
