<?xml version="1.0" ?><!DOCTYPE svg  PUBLIC '-//W3C//DTD SVG 1.1//EN'  'http://www.w3.org/Graphics/SVG/1.1/DTD/svg11.dtd'><svg height="512px" style="shape-rendering:geometricPrecision; text-rendering:geometricPrecision; image-rendering:optimizeQuality; fill-rule:evenodd; clip-rule:evenodd" version="1.1" viewBox="0 0 512 512" width="512px" xml:space="preserve" xmlns="http://www.w3.org/2000/svg" xmlns:xlink="http://www.w3.org/1999/xlink" xmlns:xodm="http://www.corel.com/coreldraw/odm/2003"><defs><style type="text/css">
   <![CDATA[
    .fil1 {fill:white;fill-rule:nonzero}
    .fil0 {fill:url(#id0)}
   ]]>
  </style><linearGradient gradientUnits="userSpaceOnUse" id="id0" x1="67.83" x2="474.19" y1="82.42" y2="389.98"><stop offset="0" style="stop-opacity:1; stop-color:#3CAF41"/><stop offset="1" style="stop-opacity:1; stop-color:#58C72C"/></linearGradient></defs><g id="Layer_x0020_1"><g id="_1639466895600"><path class="fil0" d="M256 0c141.39,0 256,114.61 256,256 0,141.39 -114.61,256 -256,256 -141.39,0 -256,-114.61 -256,-256 0,-141.39 114.61,-256 256,-256z"/><path class="fil1" d="M252.94 180.03c-7.62,0.14 -14.05,6.62 -13.92,14.03 0.14,7.67 6.45,13.67 14.29,13.58 7.85,-0.1 13.8,-6.16 13.73,-14 -0.07,-7.69 -6.35,-13.75 -14.1,-13.61zm-87.82 0c-7.76,-0.23 -14.15,5.71 -14.38,13.37 -0.23,7.76 5.7,13.98 13.53,14.17 7.76,0.2 14.26,-5.74 14.55,-13.3 0.29,-7.53 -6.28,-14.02 -13.7,-14.24zm46.94 138.89c-12.07,-1.5 -23.06,-3.14 -34.11,-4.07 -3.81,-0.32 -8.34,0.13 -11.58,1.96 -10.73,6.05 -21.02,12.89 -33.21,20.51 2.24,-10.12 3.68,-18.98 6.25,-27.5 1.88,-6.27 1.01,-9.75 -4.76,-13.83 -74.81,-52.82 -51.21,-149.98 32.47,-177.32 65.21,-21.3 147.03,16.17 153.76,88.16 -62.85,3.28 -114.46,45.54 -108.82,112.09z"/><path class="fil1" d="M350.7 268.57c-6.04,-0.04 -11.17,4.9 -11.42,11 -0.26,6.53 4.81,11.88 11.27,11.9 6.24,0.02 11.18,-4.7 11.4,-10.92 0.25,-6.54 -4.83,-11.93 -11.25,-11.98zm-60.15 11.97c0.25,-6.51 -4.98,-11.97 -11.5,-12 -6.45,-0.02 -11.85,5.51 -11.63,11.92 0.21,6.12 5.37,11.08 11.55,11.09 6.17,0 11.35,-4.81 11.58,-11.01zm71.4 106.85c-9.51,-0.99 -19.51,4.5 -29.46,5.51 -30.3,3.1 -57.45,-5.34 -79.84,-26.05 -42.57,-39.38 -36.49,-99.76 12.77,-132.03 43.78,-28.68 107.99,-19.12 138.85,20.67 26.94,34.73 23.77,80.83 -9.11,110.01 -15.35,13.61 -8.91,17.95 -4.92,33.77 -8.84,-3.93 -18.64,-10.87 -28.29,-11.88z"/></g></g></svg>