<?xml version="1.0" encoding="UTF-8" standalone="no"?>
<svg xmlns="http://www.w3.org/2000/svg" viewBox="0 0 32 32" version="1.1">
	<path fill="#fb7a24" d="m 15.991122,2.25e-4 c 4.153334,0 8.306896,0 12.460231,-2.25e-4 0.521178,0 1.037597,0.0449 1.537701,0.196197 1.084277,0.327967 1.658479,1.099511 1.883492,2.16288 0.08928,0.421577 0.114659,0.851459 0.115565,1.281116 0.0066,2.886385 0.01155,5.772769 0.01179,8.659154 2.26e-4,5.25691 9.42e-4,10.51382 -0.01,15.77073 -0.0016,0.735848 -0.04101,1.47978 -0.407198,2.150086 -0.406066,0.743483 -0.962141,1.331847 -1.806222,1.590679 -0.152502,0.04666 -0.311801,0.09989 -0.468153,0.09989 -0.360293,2.21e-4 -0.710842,0.08889 -1.070001,0.08889 -8.133322,-6.7e-4 -16.266644,0.0042 -24.3999655,-0.0087 C 3.1769191,31.990073 2.5045997,31.941972 1.8762403,31.674855 1.7511574,31.621655 1.6249415,31.576975 1.5150416,31.493918 0.71491936,30.888941 0.17176185,30.134463 0.05528995,29.113516 0.01336999,28.745372 0,28.379238 0,28.011089 0.0014,19.830979 0.0021,11.650869 0.00629999,3.47076 0.00652699,2.996206 0.01149999,2.513571 0.15857386,2.059444 0.5503645,0.849039 1.4075887,0.18839 2.6783566,0.054151 2.9736153,0.022941 3.271593,0.002741 3.5682118,0.002511 7.709083,-8.89e-4 11.850182,3.11e-4 15.991054,3.11e-4 Z m 0.131654,20.354869 c 0.08633,0.483982 0.155447,0.907803 0.301603,1.313666 0.897558,2.49399 3.56463,4.555405 7.04406,3.724823 2.492137,-0.594876 4.30357,-2.870222 4.3822,-5.407762 0.03761,-1.216016 -0.255604,-2.335507 -0.919992,-3.355775 -0.114659,-0.176218 -0.12395,-0.312927 -0.03445,-0.50239 0.406744,-0.859989 0.685235,-1.76218 0.835245,-2.700738 0.150234,-0.939456 0.181958,-1.87936 -2.27e-4,-2.820163 -0.430993,-2.226184 -2.715791,-4.622974 -5.800484,-4.594689 -3.043679,0.02806 -5.190932,2.302059 -5.654555,4.475265 -0.05597,0.261971 -0.0988,0.526859 -0.158392,0.847643 -0.03965,-0.177116 -0.07387,-0.294969 -0.092,-0.415067 C 15.665945,8.527831 13.360298,6.400643 10.87156,6.167632 8.0408847,5.902294 5.9276217,7.500828 4.9648025,9.384004 4.6362328,10.02692 4.460392,10.713384 4.403516,11.431052 c -0.1065019,1.342624 0.1867179,2.586253 0.9424252,3.712476 0.08815,0.131323 0.08951,0.233686 0.01903,0.369273 -0.4921736,0.94821 -0.8075993,1.953664 -0.9177272,3.013441 -0.1031019,0.991984 -0.1316539,1.985764 0.1531819,2.960239 0.7865252,2.689738 3.4023849,4.421165 6.2346471,4.112053 2.396059,-0.26152 3.994263,-1.575411 4.932156,-3.731557 0.200314,-0.459962 0.264215,-0.959434 0.355534,-1.511883 z" />
	<path fill="#ffffff" d="m 16.122776,20.355094 c -0.09109,0.552449 -0.154993,1.051696 -0.355307,1.511883 -0.937894,2.156146 -2.536098,3.470037 -4.932157,3.731557 C 8.0030498,25.907646 5.3871901,24.175995 4.6006649,21.486481 4.3156031,20.511782 4.3441541,19.518226 4.447484,18.526242 4.5578369,17.46624 4.8730376,16.461011 5.3652102,15.512801 c 0.07047,-0.135587 0.06912,-0.23795 -0.01903,-0.369273 C 4.5904719,14.017529 4.2972521,12.773676 4.403754,11.431052 4.460634,10.713384 4.6364718,10.02692 4.9650405,9.384004 c 0.9625922,-1.8834 3.0760822,-3.48171 5.9067585,-3.216372 2.488964,0.233236 4.794384,2.360199 5.154223,4.752275 0.01813,0.120098 0.05212,0.237951 0.092,0.415067 0.0596,-0.320784 0.10265,-0.585448 0.158393,-0.847643 0.463623,-2.173206 2.610875,-4.447204 5.654554,-4.475265 3.08492,-0.02829 5.369492,2.368505 5.800484,4.594689 0.182186,0.940803 0.150462,1.880707 2.26e-4,2.820163 -0.150235,0.938558 -0.428499,1.840749 -0.835243,2.700738 -0.08973,0.189687 -0.08045,0.326172 0.03445,0.50239 0.664387,1.020044 0.957607,2.139759 0.919991,3.355775 -0.07863,2.537316 -1.890063,4.812661 -4.3822,5.407762 -3.479429,0.830582 -6.146501,-1.230833 -7.044059,-3.724823 -0.146383,-0.405863 -0.215723,-0.829684 -0.30183,-1.313666 z m 6.321208,-4.457756 c 0.03716,-0.143443 0.14933,-0.22942 0.229999,-0.3356 0.872406,-1.148448 1.331269,-2.43136 1.228846,-3.8759 -0.07455,-1.054389 -0.949904,-1.796974 -2.00948,-1.75769 -1.060258,0.03928 -1.859246,0.849438 -1.874202,1.900461 -0.0011,0.08598 0.0041,0.172178 -0.0014,0.257705 -0.07296,1.120163 -0.696791,1.733671 -1.642164,1.802138 -0.172668,0.01257 -0.345789,0.02784 -0.518684,0.02829 -1.227035,0.0027 -2.453842,0.0022 -3.680877,0.0011 -0.535906,-4.49e-4 -1.067281,0.05724 -1.577582,0.213258 -2.382237,0.728218 -3.771289,2.342017 -4.2312855,4.747337 -0.09109,0.475901 -0.1731209,0.96976 -0.01564,1.458681 0.2259198,0.701056 0.6471674,1.222527 1.3929047,1.396949 0.7729308,0.180708 1.4461558,-0.0193 1.9809288,-0.620691 0.345791,-0.388803 0.454785,-0.850785 0.480618,-1.35789 0.06685,-1.304238 0.783805,-1.956132 1.979342,-1.946256 1.834095,0.01504 3.668414,0.0031 5.502733,0.0045 0.325623,2.25e-4 0.328569,0.0045 0.330156,0.323478 0.0032,0.589264 -0.01519,1.179202 0.0077,1.767792 0.03739,0.960782 0.89076,1.759488 1.880092,1.787548 1.020149,0.02896 1.929492,-0.718566 1.995885,-1.694387 0.05733,-0.8445 0.05371,-1.694387 -0.0022,-2.539561 -0.04328,-0.654363 -0.400626,-1.120612 -1.0061,-1.391336 -0.14525,-0.06465 -0.297977,-0.113139 -0.449572,-0.169933 z M 10.946573,13.914941 c 0.394509,0 0.716505,-0.0036 1.038276,0.0016 0.159526,0.0025 0.218669,-0.06555 0.217309,-0.220441 -0.0052,-0.613059 0.02674,-1.228138 -0.01269,-1.838954 -0.05211,-0.805888 -0.484696,-1.388417 -1.24199,-1.682264 -0.776554,-0.301255 -1.4871695,-0.129302 -2.088111,0.438861 -0.6036594,0.570857 -0.6841024,1.268995 -0.4729116,2.03313 0.1939689,0.702178 0.6523784,1.101083 1.3731908,1.221629 0.4187548,0.06982 0.8397758,0.03636 1.1869258,0.04647 z" />
	<path fill="#fb7a24" d="m 22.443984,15.897338 c 0.151822,0.05679 0.304549,0.105282 0.449799,0.170157 0.605474,0.2705 0.96282,0.736974 1.0061,1.391337 0.05575,0.845173 0.0596,1.695061 0.0022,2.53956 -0.06639,0.975822 -0.975963,1.723121 -1.995885,1.694387 -0.989105,-0.02806 -1.842477,-0.826765 -1.880092,-1.787547 -0.02288,-0.588366 -0.0045,-1.178528 -0.0077,-1.767792 -0.0018,-0.318989 -0.0045,-0.323254 -0.330156,-0.323478 -1.834319,-0.0014 -3.668638,0.01055 -5.502732,-0.0045 -1.195537,-0.0099 -1.912496,0.642242 -1.979343,1.946256 -0.02606,0.507104 -0.134827,0.969087 -0.480617,1.357889 -0.534774,0.601162 -1.207999,0.8014 -1.9809288,0.620692 C 8.9988919,21.559877 8.5776433,21.038406 8.3517245,20.33735 8.1942376,19.848653 8.2762645,19.354569 8.3673645,18.878668 8.82736,16.473348 10.216186,14.85955 12.59865,14.131331 c 0.5103,-0.156014 1.041449,-0.213706 1.577582,-0.213257 1.227034,0.0011 2.453842,0.0016 3.680876,-9.33e-4 0.172895,-4.49e-4 0.346017,-0.01571 0.518685,-0.02829 0.945372,-0.06847 1.569199,-0.681975 1.642164,-1.802138 0.0057,-0.08553 2.27e-4,-0.171954 0.0014,-0.257705 0.01495,-1.050799 0.813945,-1.860952 1.874201,-1.900461 1.059578,-0.03928 1.934931,0.703301 2.009481,1.757691 0.102196,1.444538 -0.356439,2.727451 -1.228846,3.875899 -0.0809,0.105731 -0.193289,0.191708 -0.230225,0.335151 z" />
	<path fill="#fb7a24" d="m 10.946573,13.914941 c -0.347378,-0.0101 -0.768171,0.02357 -1.1869268,-0.04647 C 9.0388338,13.747925 8.5804243,13.349021 8.3864554,12.646843 8.1754916,11.882707 8.2557076,11.184345 8.859368,10.613712 c 0.6009405,-0.568162 1.311556,-0.73989 2.088111,-0.438861 0.757293,0.293622 1.189872,0.876376 1.241989,1.682265 0.03943,0.61059 0.0075,1.225894 0.01269,1.838953 0.0014,0.154893 -0.05801,0.223135 -0.217309,0.220442 -0.321771,-0.0053 -0.643541,-0.0016 -1.038277,-0.0016 z" />
</svg>
