<?xml version="1.0" encoding="UTF-8"?>
<!DOCTYPE svg PUBLIC "-//W3C//DTD SVG 1.1//EN" "http://www.w3.org/Graphics/SVG/1.1/DTD/svg11.dtd">
<svg version="1.1" id="Layer_1" xmlns="http://www.w3.org/2000/svg" xmlns:xlink="http://www.w3.org/1999/xlink" x="0px" y="0px" width="141.219px" height="142.548px" viewBox="0 0 141.219 142.548" enable-background="new 0 0 141.219 142.548" xml:space="preserve">
<path fill="#FB7A24" d="M70.57,0.001c18.329,0,36.659,0,54.988-0.001c2.3,0,4.579,0.2,6.786,0.874  c4.785,1.461,7.319,4.898,8.312,9.635c0.394,1.878,0.506,3.793,0.51,5.707c0.029,12.858,0.051,25.716,0.052,38.574  c0.001,23.418,0.004,46.836-0.044,70.254c-0.007,3.278-0.181,6.592-1.797,9.578c-1.792,3.312-4.246,5.933-7.971,7.086  c-0.673,0.208-1.376,0.445-2.066,0.445c-1.59,0.001-3.137,0.396-4.722,0.396c-35.893-0.003-71.786,0.018-107.679-0.039  c-2.919-0.005-5.886-0.218-8.659-1.408c-0.552-0.237-1.109-0.436-1.594-0.806c-3.531-2.695-5.928-6.056-6.442-10.604  C0.059,128.052,0,126.421,0,124.781c0.006-36.44,0.009-72.88,0.028-109.32c0.001-2.114,0.023-4.264,0.672-6.287  c1.729-5.392,5.512-8.335,11.12-8.933c1.303-0.139,2.618-0.229,3.927-0.23C34.021-0.004,52.296,0.001,70.57,0.001z M71.151,90.676  c0.381,2.156,0.686,4.044,1.331,5.852c3.961,11.11,15.731,20.293,31.086,16.593c10.998-2.65,18.992-12.786,19.339-24.09  c0.166-5.417-1.128-10.404-4.06-14.949c-0.506-0.785-0.547-1.394-0.152-2.238c1.795-3.831,3.024-7.85,3.686-12.031  c0.663-4.185,0.803-8.372-0.001-12.563c-1.902-9.917-11.985-20.594-25.598-20.468C83.35,26.907,73.874,37.037,71.828,46.718  c-0.247,1.167-0.436,2.347-0.699,3.776c-0.175-0.789-0.326-1.314-0.406-1.849c-1.588-10.656-11.763-20.132-22.746-21.17  c-12.492-1.182-21.818,5.939-26.067,14.328c-1.45,2.864-2.226,5.922-2.477,9.119c-0.47,5.981,0.824,11.521,4.159,16.538  c0.389,0.585,0.395,1.041,0.084,1.645c-2.172,4.224-3.564,8.703-4.05,13.424c-0.455,4.419-0.581,8.846,0.676,13.187  c3.471,11.982,15.015,19.695,27.514,18.318c10.574-1.165,17.627-7.018,21.766-16.623C70.466,95.362,70.748,93.137,71.151,90.676z"/>
<path fill="#FFFFFF" d="M71.151,90.676c-0.402,2.461-0.684,4.685-1.568,6.735c-4.139,9.605-11.192,15.458-21.766,16.623  c-12.499,1.377-24.043-6.337-27.514-18.318c-1.258-4.342-1.132-8.768-0.676-13.187c0.487-4.722,1.878-9.2,4.05-13.424  c0.311-0.604,0.305-1.06-0.084-1.645c-3.335-5.016-4.629-10.557-4.159-16.538c0.251-3.197,1.027-6.255,2.477-9.119  c4.248-8.39,13.575-15.51,26.067-14.328c10.984,1.039,21.158,10.514,22.746,21.17c0.08,0.535,0.23,1.06,0.406,1.849  c0.263-1.429,0.453-2.608,0.699-3.776c2.046-9.681,11.522-19.811,24.954-19.936c13.614-0.126,23.696,10.551,25.598,20.468  c0.804,4.191,0.664,8.378,0.001,12.563c-0.663,4.181-1.891,8.2-3.686,12.031c-0.396,0.845-0.355,1.453,0.152,2.238  c2.932,4.544,4.226,9.532,4.06,14.949c-0.347,11.303-8.341,21.439-19.339,24.09c-15.355,3.7-27.125-5.483-31.086-16.593  C71.837,94.72,71.531,92.832,71.151,90.676z M99.047,70.818c0.164-0.639,0.659-1.022,1.015-1.495  c3.85-5.116,5.875-10.831,5.423-17.266c-0.329-4.697-4.192-8.005-8.868-7.83c-4.679,0.175-8.205,3.784-8.271,8.466  c-0.005,0.383,0.018,0.767-0.006,1.148c-0.322,4.99-3.075,7.723-7.247,8.028c-0.762,0.056-1.526,0.124-2.289,0.126  C73.389,62.007,67.975,62.005,62.56,62c-2.365-0.002-4.71,0.255-6.962,0.95c-10.513,3.244-16.643,10.433-18.673,21.148  c-0.402,2.12-0.764,4.32-0.069,6.498c0.997,3.123,2.856,5.446,6.147,6.223c3.411,0.805,6.382-0.086,8.742-2.765  c1.526-1.732,2.007-3.79,2.121-6.049c0.295-5.81,3.459-8.714,8.735-8.67c8.094,0.067,16.189,0.014,24.284,0.02  c1.437,0.001,1.45,0.02,1.457,1.441c0.014,2.625-0.067,5.253,0.034,7.875c0.165,4.28,3.931,7.838,8.297,7.963  c4.502,0.129,8.515-3.201,8.808-7.548c0.253-3.762,0.237-7.548-0.01-11.313c-0.191-2.915-1.768-4.992-4.44-6.198  C100.39,71.287,99.716,71.071,99.047,70.818z M48.308,61.987c1.741,0,3.162-0.016,4.582,0.007c0.704,0.011,0.965-0.292,0.959-0.982  c-0.023-2.731,0.118-5.471-0.056-8.192c-0.23-3.59-2.139-6.185-5.481-7.494c-3.427-1.342-6.563-0.576-9.215,1.955  c-2.664,2.543-3.019,5.653-2.087,9.057c0.856,3.128,2.879,4.905,6.06,5.442C44.918,62.091,46.776,61.942,48.308,61.987z"/>
<path fill="#FB7A24" d="M99.047,70.818c0.67,0.253,1.344,0.469,1.985,0.758c2.672,1.205,4.249,3.283,4.44,6.198  c0.246,3.765,0.263,7.551,0.01,11.313c-0.293,4.347-4.307,7.676-8.808,7.548c-4.365-0.125-8.131-3.683-8.297-7.963  c-0.101-2.621-0.02-5.25-0.034-7.875c-0.008-1.421-0.02-1.44-1.457-1.441c-8.095-0.006-16.19,0.047-24.284-0.02  c-5.276-0.044-8.44,2.861-8.735,8.67c-0.115,2.259-0.595,4.317-2.121,6.049c-2.36,2.678-5.331,3.57-8.742,2.765  c-3.291-0.777-5.15-3.1-6.147-6.223c-0.695-2.177-0.333-4.378,0.069-6.498c2.03-10.715,8.159-17.904,18.673-21.148  c2.252-0.695,4.596-0.952,6.962-0.95c5.415,0.005,10.829,0.007,16.244-0.004c0.763-0.002,1.527-0.07,2.289-0.126  c4.172-0.305,6.925-3.038,7.247-8.028c0.025-0.381,0.001-0.766,0.006-1.148c0.066-4.681,3.592-8.29,8.271-8.466  c4.676-0.175,8.539,3.133,8.868,7.83c0.451,6.435-1.573,12.15-5.423,17.266C99.706,69.796,99.21,70.179,99.047,70.818z"/>
<path fill="#FB7A24" d="M48.308,61.987c-1.533-0.045-3.39,0.105-5.238-0.207c-3.181-0.537-5.204-2.314-6.06-5.442  c-0.931-3.404-0.577-6.515,2.087-9.057c2.652-2.531,5.788-3.296,9.215-1.955c3.342,1.308,5.251,3.904,5.481,7.494  c0.174,2.72,0.033,5.461,0.056,8.192c0.006,0.69-0.256,0.994-0.959,0.982C51.47,61.97,50.05,61.987,48.308,61.987z"/>
</svg>
