/* XPM */
static char * xojo_xpm[] = {
"48 48 767 2",
"  	c None",
". 	c #929292",
"+ 	c #A0A0A0",
"@ 	c #A7A7A7",
"# 	c #AFAFAF",
"$ 	c #B1B1B1",
"% 	c #AEAEAE",
"& 	c #A9A9A9",
"* 	c #A5A5A5",
"= 	c #A2A2A2",
"- 	c #9E9E9E",
"; 	c #969696",
"> 	c #8C8C8C",
", 	c #858585",
"' 	c #767676",
") 	c #BCBCBC",
"! 	c #C3C3C3",
"~ 	c #B0B0B0",
"{ 	c #787878",
"] 	c #626262",
"^ 	c #525252",
"/ 	c #484848",
"( 	c #454545",
"_ 	c #494949",
": 	c #797979",
"< 	c #949494",
"[ 	c #979797",
"} 	c #868686",
"| 	c #ABABAB",
"1 	c #696969",
"2 	c #555655",
"3 	c #666864",
"4 	c #777B74",
"5 	c #898D85",
"6 	c #969B92",
"7 	c #9DA299",
"8 	c #9DA29A",
"9 	c #959991",
"0 	c #848881",
"a 	c #6E726C",
"b 	c #585A56",
"c 	c #414241",
"d 	c #505050",
"e 	c #757575",
"f 	c #989898",
"g 	c #8F8F8F",
"h 	c #A3A3A3",
"i 	c #C1C1C1",
"j 	c #BABABA",
"k 	c #898989",
"l 	c #636363",
"m 	c #757873",
"n 	c #9A9E96",
"o 	c #C1C6BD",
"p 	c #CED2CA",
"q 	c #D6DAD2",
"r 	c #DCE0D9",
"s 	c #DFE3DC",
"t 	c #E0E4DD",
"u 	c #E0E3DD",
"v 	c #D5D9D1",
"w 	c #CCD0C8",
"x 	c #BCC1B8",
"y 	c #92968E",
"z 	c #646662",
"A 	c #4D4D4C",
"B 	c #747474",
"C 	c #909090",
"D 	c #C4C4C4",
"E 	c #9C9C9C",
"F 	c #6A6A6A",
"G 	c #7C7F79",
"H 	c #B1B6AB",
"I 	c #CED3C9",
"J 	c #E3E7E0",
"K 	c #E7EBE3",
"L 	c #E9EDE4",
"M 	c #EAEFE6",
"N 	c #EBF0E6",
"O 	c #ECF1E7",
"P 	c #ECF0E7",
"Q 	c #EBEFE6",
"R 	c #E6EAE2",
"S 	c #E3E7DF",
"T 	c #DBDFD7",
"U 	c #CACFC5",
"V 	c #A9AFA4",
"W 	c #71746F",
"X 	c #5D5D5D",
"Y 	c #8D8D8D",
"Z 	c #B4B4B4",
"` 	c #B9B9B9",
" .	c #828282",
"..	c #727370",
"+.	c #A8ADA3",
"@.	c #CED3CA",
"#.	c #DEE2DB",
"$.	c #E5E9E1",
"%.	c #EAEEE6",
"&.	c #DFE9D3",
"*.	c #D1E3BC",
"=.	c #C6DEAA",
"-.	c #BEDA9F",
";.	c #BBD998",
">.	c #BBD999",
",.	c #BFDB9F",
"'.	c #C7DEAC",
").	c #D2E3BE",
"!.	c #DFEAD4",
"~.	c #EAEEE5",
"{.	c #DDE1D9",
"].	c #A2A79D",
"^.	c #6C6D6A",
"/.	c #818181",
"(.	c #B3B3B3",
"_.	c #ADADAD",
":.	c #717171",
"<.	c #838680",
"[.	c #C3C8BE",
"}.	c #E4ECDB",
"|.	c #CBE0B3",
"1.	c #B4D68D",
"2.	c #B2D788",
"3.	c #B7DA8F",
"4.	c #BBDC96",
"5.	c #BFDD9A",
"6.	c #C0DE9D",
"7.	c #BFDD9B",
"8.	c #BCDC96",
"9.	c #B3D788",
"0.	c #B5D68F",
"a.	c #CCE0B5",
"b.	c #E5ECDD",
"c.	c #E4E8E0",
"d.	c #D8DCD4",
"e.	c #BBC1B6",
"f.	c #82857F",
"g.	c #BDBDBD",
"h.	c #A6A6A6",
"i.	c #8F938B",
"j.	c #E9EDE5",
"k.	c #E7EEE0",
"l.	c #C7DEAE",
"m.	c #AED484",
"n.	c #B5D98D",
"o.	c #BEDE9B",
"p.	c #C1DF9F",
"q.	c #AFD486",
"r.	c #CADFB2",
"s.	c #E9EFE3",
"t.	c #E8ECE4",
"u.	c #C4CABF",
"v.	c #93978F",
"w.	c #919191",
"x.	c #C2C2C2",
"y.	c #9D9D9D",
"z.	c #A4A4A4",
"A.	c #676767",
"B.	c #90948C",
"C.	c #CDD1C8",
"D.	c #E2E6DE",
"E.	c #DCE8CF",
"F.	c #B1D58A",
"G.	c #B1D786",
"H.	c #BDDD99",
"I.	c #BFDE9C",
"J.	c #B3D58C",
"K.	c #DDE9D1",
"L.	c #E0E4DB",
"M.	c #C7CCC2",
"N.	c #CCCCCC",
"O.	c #6B6B6B",
"P.	c #828680",
"Q.	c #CACFC6",
"R.	c #E1E6DE",
"S.	c #EBEFE8",
"T.	c #EDF3E8",
"U.	c #B1D38A",
"V.	c #B4D98C",
"W.	c #BCDD98",
"X.	c #B4D98B",
"Y.	c #B2D48D",
"Z.	c #EEF3E9",
"`.	c #EBEFE7",
" +	c #DEE3DB",
".+	c #C4C9BF",
"++	c #989C96",
"@+	c #B2B2B2",
"#+	c #D3D3D3",
"$+	c #BBBBBB",
"%+	c #7C7C7C",
"&+	c #6C6F6A",
"*+	c #C0C6BB",
"=+	c #DEE3DA",
"-+	c #EAEFE7",
";+	c #EFF4EB",
">+	c #F0F6ED",
",+	c #E6EFDE",
"'+	c #BCDA9B",
")+	c #B9DB93",
"!+	c #BCDA9C",
"~+	c #E6F0DE",
"{+	c #E8EEE5",
"]+	c #D9DED5",
"^+	c #BCC3B8",
"/+	c #9B9D9A",
"(+	c #D2D2D2",
"_+	c #5B5C5B",
":+	c #AEB5AA",
"<+	c #D5DBD1",
"[+	c #E6ECE2",
"}+	c #D5E4C5",
"|+	c #D1E4BF",
"1+	c #F0F5EC",
"2+	c #E6EFDD",
"3+	c #B9D997",
"4+	c #B6D98E",
"5+	c #BAD998",
"6+	c #E6F0DD",
"7+	c #F1F6ED",
"8+	c #EFF5EC",
"9+	c #D1E4BE",
"0+	c #D8E6CA",
"a+	c #E6EBE2",
"b+	c #D2D8CE",
"c+	c #B0B6AC",
"d+	c #A2A3A2",
"e+	c #CDCDCD",
"f+	c #9A9A9A",
"g+	c #868A83",
"h+	c #CAD0C5",
"i+	c #E3E8DE",
"j+	c #DFEAD6",
"k+	c #A6CF77",
"l+	c #A4CF73",
"m+	c #D4E5C2",
"n+	c #F0F6EB",
"o+	c #E5EFDC",
"p+	c #B7D793",
"q+	c #B3D789",
"r+	c #B8D794",
"s+	c #E6EFDC",
"t+	c #D3E4C1",
"u+	c #A8D07B",
"v+	c #E3ECDB",
"w+	c #E1E6DD",
"x+	c #C7CDC2",
"y+	c #9DA19A",
"z+	c #878787",
"A+	c #5A5B59",
"B+	c #B9C0B4",
"C+	c #D8DED4",
"D+	c #E8EEE2",
"E+	c #B4D591",
"F+	c #9ECD69",
"G+	c #A6D175",
"H+	c #B0D686",
"I+	c #D3E5C0",
"J+	c #F1F6EC",
"K+	c #E5EFDB",
"L+	c #B4D68E",
"M+	c #AFD684",
"N+	c #D2E4BF",
"O+	c #A7D277",
"P+	c #B9D798",
"Q+	c #E7EDE2",
"R+	c #D5DBD0",
"S+	c #B7BEB2",
"T+	c #959594",
"U+	c #B7B7B7",
"V+	c #686868",
"W+	c #82867E",
"X+	c #C9CFC3",
"Y+	c #E1E7DB",
"Z+	c #D4E3C3",
"`+	c #9CCC67",
" @	c #9CCC66",
".@	c #A4D072",
"+@	c #ABD47F",
"@@	c #ACD480",
"#@	c #B1D58B",
"$@	c #F0F7ED",
"%@	c #EFF6EA",
"&@	c #D1E3BD",
"*@	c #A5D175",
"=@	c #9CCB68",
"-@	c #D8E5CA",
";@	c #DEE5D9",
">@	c #C7CEC2",
",@	c #979A93",
"'@	c #C0C0C0",
")@	c #777777",
"!@	c #B0B6AB",
"~@	c #D3D9CE",
"{@	c #E4EBDE",
"]@	c #AED187",
"^@	c #9ACB63",
"/@	c #A8D279",
"(@	c #A8D27B",
"_@	c #D0E3BC",
":@	c #AFD388",
"<@	c #EFF5EA",
"[@	c #A0CE6D",
"}@	c #B3D38F",
"|@	c #E3EADD",
"1@	c #D2D8CD",
"2@	c #AEB4A9",
"3@	c #8A8A8A",
"4@	c #838383",
"5@	c #7A7A7A",
"6@	c #666865",
"7@	c #DCE1D7",
"8@	c #DAE5CE",
"9@	c #98C962",
"0@	c #98CA60",
"a@	c #A2CF70",
"b@	c #A4D173",
"c@	c #A5D075",
"d@	c #CFE2BA",
"e@	c #F0F5EB",
"f@	c #EAF1E2",
"g@	c #BFDAA2",
"h@	c #A4CF75",
"i@	c #F1F5ED",
"j@	c #99CB62",
"k@	c #99C964",
"l@	c #DDE7D3",
"m@	c #DBE0D6",
"n@	c #C2C7BD",
"o@	c #828481",
"p@	c #A8A8A8",
"q@	c #6C6C6C",
"r@	c #CBD1C6",
"s@	c #E0E6DB",
"t@	c #BBD69D",
"u@	c #94C759",
"v@	c #96C95D",
"w@	c #A1CF6E",
"x@	c #A1CE70",
"y@	c #D0E2BC",
"z@	c #F1F5EC",
"A@	c #F2F6EE",
"B@	c #E7EFDF",
"C@	c #C5DDAB",
"D@	c #A1CE6E",
"E@	c #93C758",
"F@	c #C0D9A6",
"G@	c #DFE5D9",
"H@	c #C9CFC4",
"I@	c #8B8E88",
"J@	c #616161",
"K@	c #9BA197",
"L@	c #D0D6CB",
"M@	c #E1E9DC",
"N@	c #A2CA76",
"O@	c #8BC34D",
"P@	c #93C658",
"Q@	c #93C75A",
"R@	c #95C85D",
"S@	c #9CCB67",
"T@	c #9ECC69",
"U@	c #A0CC6F",
"V@	c #E0EBD4",
"W@	c #F1F6EE",
"X@	c #E0EBD5",
"Y@	c #9DCC69",
"Z@	c #97C960",
"`@	c #92C658",
" #	c #A8CD7F",
".#	c #E0E8DB",
"+#	c #CED4C9",
"@#	c #979D94",
"##	c #737373",
"$#	c #585858",
"%#	c #B2B9AC",
"&#	c #D4DBCE",
"*#	c #E2EADB",
"=#	c #90C259",
"-#	c #8AC24B",
";#	c #8BC34C",
">#	c #90C555",
",#	c #92C657",
"'#	c #96C85D",
")#	c #9ACA63",
"!#	c #9BCB65",
"~#	c #B6D594",
"{#	c #9ACB64",
"]#	c #97C95F",
"^#	c #93C759",
"/#	c #90C554",
"(#	c #8AC34C",
"_#	c #96C562",
":#	c #D2D9CD",
"<#	c #A7AFA1",
"[#	c #707070",
"}#	c #7B7B7B",
"|#	c #5F5F5E",
"1#	c #BDC4B8",
"2#	c #D8DED2",
"3#	c #E0E9D7",
"4#	c #86BE49",
"5#	c #89C24A",
"6#	c #8CC34E",
"7#	c #8FC553",
"8#	c #90C655",
"9#	c #92C757",
"0#	c #95C660",
"a#	c #ECF3E5",
"b#	c #96C661",
"c#	c #92C758",
"d#	c #89BF4E",
"e#	c #E3EBDC",
"f#	c #D6DCD0",
"g#	c #B6BEB0",
"h#	c #646564",
"i#	c #7F7F7F",
"j#	c #808080",
"k#	c #666766",
"l#	c #BFC6B9",
"m#	c #D9DFD3",
"n#	c #D4E1C7",
"o#	c #88C049",
"p#	c #89C149",
"q#	c #8DC450",
"r#	c #8EC452",
"s#	c #DBE8CF",
"t#	c #DBE8CE",
"u#	c #8DC350",
"v#	c #85BD47",
"w#	c #E0E9D8",
"x#	c #D6DDD0",
"y#	c #BBC3B5",
"z#	c #636463",
"A#	c #7E7E7E",
"B#	c #939393",
"C#	c #6A6B69",
"D#	c #BFC6BA",
"E#	c #D2E0C4",
"F#	c #88C149",
"G#	c #D6E5C6",
"H#	c #89C14A",
"I#	c #86BE47",
"J#	c #DBE6D1",
"K#	c #D4DCCE",
"L#	c #BAC2B4",
"M#	c #616261",
"N#	c #9B9B9B",
"O#	c #6F6F6E",
"P#	c #BEC5B9",
"Q#	c #D8DFD2",
"R#	c #D8E4CD",
"S#	c #86BF47",
"T#	c #88C148",
"U#	c #E1EBD6",
"V#	c #DDE8D4",
"W#	c #D3DBCC",
"X#	c #B9C1B2",
"Y#	c #BCC3B6",
"Z#	c #E2EBDA",
"`#	c #87BE4A",
" $	c #87C147",
".$	c #94C45F",
"+$	c #ECF3E6",
"@$	c #8BC052",
"#$	c #DEE8D6",
"$$	c #D1D9CA",
"%$	c #B1B9AB",
"&$	c #5B5B5B",
"*$	c #848484",
"=$	c #AFB6AB",
"-$	c #D3DACE",
";$	c #94C460",
">$	c #87C047",
",$	c #BCD89E",
"'$	c #EDF4E8",
")$	c #EFF5EB",
"!$	c #EEF4E8",
"~$	c #99C668",
"{$	c #DEE8D7",
"]$	c #CDD6C8",
"^$	c #A1A89C",
"/$	c #666666",
"($	c #A0A49C",
"_$	c #CDD3C7",
":$	c #DFE7D9",
"<$	c #A8CD80",
"[$	c #86C046",
"}$	c #97C565",
"|$	c #E8F1E1",
"1$	c #EFF4EA",
"2$	c #EEF4E9",
"3$	c #EDF3E7",
"4$	c #E9F1E1",
"5$	c #ADCF88",
"6$	c #DBE4D5",
"7$	c #C7CFC2",
"8$	c #8D9289",
"9$	c #727272",
"0$	c #B5B5B5",
"a$	c #979A94",
"b$	c #C6CCC0",
"c$	c #DCE2D5",
"d$	c #C2D9AA",
"e$	c #85C046",
"f$	c #92C45D",
"g$	c #DFEAD3",
"h$	c #E4EDDA",
"i$	c #BED9A2",
"j$	c #A1CB74",
"k$	c #93C45E",
"l$	c #BFD9A3",
"m$	c #E4EDDB",
"n$	c #EEF3E8",
"o$	c #91C35C",
"p$	c #85C045",
"q$	c #C7DBB3",
"r$	c #D9E0D3",
"s$	c #C2CABC",
"t$	c #797B76",
"u$	c #939492",
"v$	c #D6DDCF",
"w$	c #DEE7D5",
"x$	c #89BF4F",
"y$	c #85BF45",
"z$	c #92C35C",
"A$	c #DEEAD1",
"B$	c #CADFB4",
"C$	c #8FC258",
"D$	c #CBDFB5",
"E$	c #DDEAD1",
"F$	c #91C25B",
"G$	c #8CBF54",
"H$	c #DCE6D3",
"I$	c #D2D9CB",
"J$	c #BBC2B4",
"K$	c #8B8B8B",
"L$	c #999999",
"M$	c #C5C5C5",
"N$	c #A9B0A4",
"O$	c #CBD3C6",
"P$	c #DEE6D7",
"Q$	c #ACCF89",
"R$	c #84BF44",
"S$	c #91C35B",
"T$	c #ECF3E7",
"U$	c #EBF2E5",
"V$	c #C3DBAA",
"W$	c #87BF49",
"X$	c #C2DBA9",
"Y$	c #E9F1E3",
"Z$	c #E9F1E4",
"`$	c #DAE8CD",
" %	c #90C25A",
".%	c #B1D191",
"+%	c #DAE4D4",
"@%	c #C7D0C1",
"#%	c #9AA095",
"$%	c #6F6F6F",
"%%	c #BFBFBF",
"&%	c #9B9E99",
"*%	c #BFC8B9",
"=%	c #D5DDCF",
"-%	c #D7E4CB",
";%	c #87BF4C",
">%	c #DCE9D0",
",%	c #EBF3E6",
"'%	c #EAF2E5",
")%	c #86BF48",
"!%	c #C1DAA7",
"~%	c #E9F1E2",
"{%	c #D9E8CD",
"]%	c #8ABF50",
"^%	c #D7E4CD",
"/%	c #D3DCCD",
"(%	c #787B76",
"_%	c #B0B7AA",
":%	c #C9D2C1",
"<%	c #D9E3D1",
"[%	c #B4D294",
"}%	c #83BE43",
"|%	c #EAF2E3",
"1%	c #C1DAA8",
"2%	c #C0DAA6",
"3%	c #D9E8CC",
"4%	c #8FC259",
"5%	c #B9D49D",
"6%	c #C7D0C0",
"7%	c #A6ADA0",
"8%	c #727271",
"9%	c #CBCBCB",
"0%	c #9DA09B",
"a%	c #BFC7B8",
"b%	c #D2DACB",
"c%	c #DDE7D4",
"d%	c #98C469",
"e%	c #8FC159",
"f%	c #E6EFDF",
"g%	c #BFD9A4",
"h%	c #85BE47",
"i%	c #E8F0E1",
"j%	c #D9E7CB",
"k%	c #9EC772",
"l%	c #DBE5D2",
"m%	c #CFD8C8",
"n%	c #BEC6B7",
"o%	c #7A7C78",
"p%	c #D0D0D0",
"q%	c #A7ADA4",
"r%	c #C5CDBF",
"s%	c #D5DECF",
"t%	c #D6E2CB",
"u%	c #D7E5CB",
"v%	c #E5EEDE",
"w%	c #BED8A4",
"x%	c #85BE46",
"y%	c #83BE42",
"z%	c #BFD9A6",
"A%	c #E7EFE0",
"B%	c #E7F0E1",
"C%	c #D9E6CD",
"D%	c #D9E4CF",
"E%	c #D5DDCE",
"F%	c #C3CBBD",
"G%	c #C8C8C8",
"H%	c #A1A2A0",
"I%	c #B2B9AD",
"J%	c #C8D1C2",
"K%	c #D7E0D1",
"L%	c #E1E9DB",
"M%	c #E4EDDD",
"N%	c #84BE46",
"O%	c #82BE42",
"P%	c #E6EEE0",
"Q%	c #E2EBDD",
"R%	c #D8E0D2",
"S%	c #C7D0C2",
"T%	c #ADB3A8",
"U%	c #7B7C7B",
"V%	c #989A97",
"W%	c #B8C0B3",
"X%	c #CAD3C4",
"Y%	c #D9E1D3",
"Z%	c #DDE7D5",
"`%	c #95C264",
" &	c #82BE41",
".&	c #99C46B",
"+&	c #DFE8D8",
"@&	c #DAE1D4",
"#&	c #CBD3C5",
"$&	c #828482",
"%&	c #A1A1A1",
"&&	c #6D6D6D",
"*&	c #B8B8B8",
"=&	c #939591",
"-&	c #C9D2C2",
";&	c #D5DECE",
">&	c #D9E4D0",
",&	c #AACC86",
"'&	c #83BC43",
")&	c #82BD41",
"!&	c #83BC45",
"~&	c #AECE8C",
"{&	c #D6DECF",
"]&	c #CAD2C3",
"^&	c #B9C0B3",
"/&	c #8A8C89",
"(&	c #C7C7C7",
"_&	c #8C8E8A",
":&	c #B4BCAE",
"<&	c #C7CFC0",
"[&	c #D2DACA",
"}&	c #DAE3D2",
"|&	c #CDDEBD",
"1&	c #9DC771",
"2&	c #81BC42",
"3&	c #81BD41",
"4&	c #81BC43",
"5&	c #A0C875",
"6&	c #D0E0C0",
"7&	c #D1DACA",
"8&	c #B3BAAE",
"9&	c #91928F",
"0&	c #858684",
"a&	c #A4AB9F",
"b&	c #CDD6C7",
"c&	c #D6DFCF",
"d&	c #DBE4D2",
"e&	c #CEDEBF",
"f&	c #ADCE8A",
"g&	c #92C25E",
"h&	c #80BB41",
"i&	c #81BD40",
"j&	c #81BB42",
"k&	c #93C361",
"l&	c #AFCF8D",
"m&	c #D1E0C3",
"n&	c #DBE4D3",
"o&	c #CDD5C7",
"p&	c #C2CABB",
"q&	c #A7ADA3",
"r&	c #999A99",
"s&	c #ACACAC",
"t&	c #868983",
"u&	c #B8BFB2",
"v&	c #C6CEBF",
"w&	c #CCD5C5",
"x&	c #D2DBCA",
"y&	c #D9E2D1",
"z&	c #D7E3CC",
"A&	c #C8DBB5",
"B&	c #BDD6A4",
"C&	c #B6D298",
"D&	c #BDD5A4",
"E&	c #C8DAB5",
"F&	c #D9E4CE",
"G&	c #D8E1D0",
"H&	c #D3DCCB",
"I&	c #CDD5C6",
"J&	c #C6CEC0",
"K&	c #9A9E98",
"L&	c #AAAAAA",
"M&	c #6D6E6D",
"N&	c #878C84",
"O&	c #B0B9AB",
"P&	c #C1CBBB",
"Q&	c #C8D2C2",
"R&	c #CCD6C6",
"S&	c #CFDAC9",
"T&	c #D4DECE",
"U&	c #D5DFCE",
"V&	c #D4DECD",
"W&	c #D3DDCC",
"X&	c #C1CABB",
"Y&	c #B2BBAD",
"Z&	c #9A9E97",
"`&	c #9C9D9C",
" *	c #414141",
".*	c #91978D",
"+*	c #ACB4A7",
"@*	c #BEC7B8",
"#*	c #C4CCBE",
"$*	c #C5CEBF",
"%*	c #C5CDBE",
"&*	c #C4CDBE",
"**	c #BFC7B9",
"=*	c #AEB5A8",
"-*	c #999F95",
";*	c #8F928D",
">*	c #CECECE",
",*	c #4C4C4C",
"'*	c #0A0A0A",
")*	c #646464",
"!*	c #616260",
"~*	c #6D6F6C",
"{*	c #767974",
"]*	c #7B7E78",
"^*	c #7D807A",
"/*	c #7D807B",
"(*	c #7B7D7A",
"_*	c #7A7B7A",
":*	c #888888",
"<*	c #0B0B0B",
"[*	c #090909",
"}*	c #B6B6B6",
"|*	c #141414",
"1*	c #3D3D3D",
"2*	c #161616",
"                                                                                                ",
"                                  . + @ # $ % & * = - ; > , '                                   ",
"                              & ) ! ~ . { ] ^ / ( _ ^ ] : < + [ }                               ",
"                          | ! ) < 1 2 3 4 5 6 7 8 9 0 a b c d e f + g                           ",
"                      h i j k l m n o p q r s t t u r v w x y z A B + * C                       ",
"                    $ D E F G H I r J K L M N N O P Q L R S T U V W X Y ~ h                     ",
"                  Z `  ...+.@.#.$.%.O &.*.=.-.;.>.,.'.).!.O ~.$.{.U ].^./.(.(.                  ",
"                $ _.:.<.[.T $.~.}.|.1.2.3.4.5.6.6.7.8.3.9.0.a.b.%.c.d.e.f., ` g.                ",
"              & h.F i.U t j.k.l.m.n.o.p.p.p.p.p.p.p.p.p.p.o.n.q.r.s.t.{.u.v.w.x.D               ",
"            y.z.A.B.C.D.%.E.F.G.H.I.I.I.I.I.I.I.I.I.I.I.I.I.I.H.G.J.K.~.L.M.n + N.D             ",
"          Y h.O.P.Q.R.S.T.U.V.W.W.W.W.W.W.W.W.W.W.W.W.W.W.W.W.W.W.X.Y.Z.`. +.+++@+#+$+          ",
"        ' = %+&+*+=+-+;+>+,+'+)+)+)+)+)+)+)+)+)+)+)+)+)+)+)+)+)+)+!+~+>+;+{+]+^+/+x.(+          ",
"        C w._+:+<+[+}+|+1+>+2+3+4+4+4+4+4+4+4+4+4+4+4+4+4+4+4+4+5+6+7+8+9+0+a+b+c+d+e+x.        ",
"      B f+A.g+h+i+j+k+l+m+n+7+o+p+q+q+q+q+q+q+q+q+q+q+q+q+q+q+r+s+7+n+t+l+u+v+w+x+y+(.e+=       ",
"      z+, A+B+C+D+E+F+G+H+I+n+J+K+L+M+M+M+M+M+M+M+M+M+M+M+M+0.o+J+n+N+H+O+F+P+Q+R+S+T+i U+      ",
"      w.V+W+X+Y+Z+`+ @.@+@@@9+n+J+K+F.+@+@+@+@+@+@+@+@+@+@#@o+$@%@&@@@+@*@ @=@-@;@>@,@& '@      ",
"    )@> ^ !@~@{@]@^@^@F+/@/@(@_@n+7+K+:@/@/@/@/@/@/@/@/@:@K+7+<@_@(@/@/@[@^@^@}@|@1@2@3@$+E     ",
"    4@5@6@.+7@8@9@0@0@0@a@b@b@c@d@e@7+f@g@h@b@b@b@b@h@g@f@i@e@d@c@b@b@.@j@0@0@k@l@m@n@o@p@*     ",
"    > q@f.r@s@t@u@v@v@v@0@[@w@w@x@y@z@A@e@B@&@C@C@&@B@e@7+e@y@x@w@w@D@^@v@v@v@E@F@G@H@I@< &     ",
"  A.g J@K@L@M@N@O@P@Q@Q@Q@R@S@T@T@U@V@>+W@7+>+1+1+>+7+W@>+X@U@T@T@Y@Z@Q@Q@Q@`@O@ #.#+#@# .@     ",
"  ##. $#%#&#*#=#-#;#>#,#,#,#`@'#)#!#~#<@7+7+7+7+7+7+7+7+<@~#!#{#]#^#,#,#,#/#(#-#_#*#:#<#[#h %+  ",
"  }#w.|#1#2#3#4#5#5#5#6#7#8#8#8#8#9#0#a#7+7+7+7+7+7+7+7+a#b#c#8#8#8#8#7#6#5#5#5#d#e#f#g#h#y.i#  ",
"  j#w.k#l#m#n#o#p#p#p#p#p#-#6#q#r#r#r#s#J+7+7+7+7+7+7+J+t#r#r#r#u#6#-#p#p#p#p#p#v#w#x#y#z#; A#  ",
"   .B#C#D#m#E#F#F#F#F#F#F#F#F#F#F#5#-#G#1+7+7+7+7+7+7+1+G#-#H#F#F#F#F#F#F#F#F#F#I#J#K#L#M#. }#  ",
"  } N#O#P#Q#R#S#T#T#T#T#T#T#T#T#T#T#S#U#1+1+1+1+1+1+1+1+U#S#T#T#T#T#T#T#T#T#T#T#v#V#W#X#X . )@  ",
"  z+h.##Y#x#Z#`# $ $ $ $ $ $ $ $ $ $.$+$e@e@e@e@e@e@e@e@+$.$ $ $ $ $ $ $ $ $ $ $@$#$$$%$&$. [#  ",
"  *$~ 4@=$-$*#;$>$>$>$>$>$>$>$>$>$>$,$'$)$)$)$)$)$)$)$)$!$,$>$>$>$>$>$>$>$>$>$>$~${$]$^$/$C /$  ",
"    Z f+($_$:$<$[$[$[$[$[$[$[$[$[$}$|$1$1$2$3$+$+$3$2$1$1$4$}$[$[$[$[$[$[$[$[$[$5$6$7$8$9$Y     ",
"    0$_.a$b$c$d$e$e$e$e$e$e$e$e$f$g$!$T.h$i$j$k$k$j$l$m$n$2$g$o$e$e$e$e$e$e$e$p$q$r$s$t$A#z+    ",
"    _.) u$l#v$w$x$y$y$y$y$y$y$z$A$3$+$B$C$y$y$y$y$y$y$C$D$3$T.E$F$y$y$y$y$y$y$G$H$I$J$z#K$}#    ",
"    L$M$* N$O$P$Q$R$R$R$R$R$S$E$T$U$V$W$R$R$R$R$R$R$R$R$W$X$Y$Z$`$ %R$R$R$R$R$.%+%@%#%$%w.A.    ",
"      ! %%&%*%=%-%;%R$R$R$S$>%,%'%X$)%R$R$R$R$R$R$R$R$R$R$)%!%~%Y${% %R$R$R$]%^%/%*%(%} >       ",
"      $ N.@ _%:%<%[%}%}% %`$|%~%1%)%}%}%}%}%}%}%}%}%}%}%}%}%)%2%|$~%3%4%}%}%5%<%6%7%8%L$}#      ",
"        9%M$0%a%b%c%d%e%0+B@f%g%h%}%}%}%}%}%}%}%}%}%}%}%}%}%}%h%F@i%~%j%e%k%l%m%n%o%g [         ",
"        (.p%@+q%r%s%t%u%v%v%w%x%y%y%y%y%y%y%y%y%y%y%y%y%y%y%y%y%x%z%A%B%C%D%E%F%6 i#- A#        ",
"          G%9%H%I%J%K%L%M%w%N%O%O%O%O%O%O%O%O%O%O%O%O%O%O%O%O%O%O%N%z%P%Q%R%S%T%U%+ ;           ",
"          [ N.x.V%W%X%Y%Z%`% & & & & & & & & & & & & & & & & & & & &.&+&@&#&S+$&%&* &&          ",
"            & 9%*&=&L#-&;&>&,&'&)&)&)&)&)&)&)&)&)&)&)&)&)&)&)&)&!&~&l%{&]&^&/&z.$ z+            ",
"              # (&# _&:&<&[&}&|&1&2&3&3&3&3&3&3&3&3&3&3&3&3&4&5&6&}&7&<&8&9&% j f               ",
"                p@'@_.0&a&s$b&c&d&e&f&g&h&i&i&i&i&i&i&j&k&l&m&n&{&o&p&q&r&$+! %&                ",
"                  f+` s&i#t&u&v&w&x&y&l%z&A&B&C&C&D&E&F&l%G&H&I&J&S+K&& G%G%-                   ",
"                    : & L&Y M&N&O&P&Q&R&S&T&c&U&U&V&W&7&R&J%X&Y&Z&`&'@p%(&}                     ",
"                       *K$* = k F (%.*+*@*#*r%$*%*&*s$**=*-*;*f $+e+>*% ,*                      ",
"                        '*d > z.p@f 4@)*!*~*{*]*^*/*(*_*:** j 9%9%$ /$<*                        ",
"                            [* *{ N#* p@%&f+; ; N#= s&*&i '@}*. ^ '*                            ",
"                                  |*1*X e } . L$E N#< } $%_ 2*                                  ",
"                                                                                                ",
"                                                                                                "};
